%TF.GenerationSoftware,KiCad,Pcbnew,8.0.4*%
%TF.CreationDate,2024-08-25T14:13:04+02:00*%
%TF.ProjectId,fpga_extension,66706761-5f65-4787-9465-6e73696f6e2e,rev?*%
%TF.SameCoordinates,Original*%
%TF.FileFunction,Legend,Top*%
%TF.FilePolarity,Positive*%
%FSLAX46Y46*%
G04 Gerber Fmt 4.6, Leading zero omitted, Abs format (unit mm)*
G04 Created by KiCad (PCBNEW 8.0.4) date 2024-08-25 14:13:04*
%MOMM*%
%LPD*%
G01*
G04 APERTURE LIST*
G04 Aperture macros list*
%AMRoundRect*
0 Rectangle with rounded corners*
0 $1 Rounding radius*
0 $2 $3 $4 $5 $6 $7 $8 $9 X,Y pos of 4 corners*
0 Add a 4 corners polygon primitive as box body*
4,1,4,$2,$3,$4,$5,$6,$7,$8,$9,$2,$3,0*
0 Add four circle primitives for the rounded corners*
1,1,$1+$1,$2,$3*
1,1,$1+$1,$4,$5*
1,1,$1+$1,$6,$7*
1,1,$1+$1,$8,$9*
0 Add four rect primitives between the rounded corners*
20,1,$1+$1,$2,$3,$4,$5,0*
20,1,$1+$1,$4,$5,$6,$7,0*
20,1,$1+$1,$6,$7,$8,$9,0*
20,1,$1+$1,$8,$9,$2,$3,0*%
G04 Aperture macros list end*
%ADD10C,0.152400*%
%ADD11C,0.120000*%
%ADD12C,0.100000*%
%ADD13C,0.200000*%
%ADD14C,0.127000*%
%ADD15RoundRect,0.155000X-0.212500X-0.155000X0.212500X-0.155000X0.212500X0.155000X-0.212500X0.155000X0*%
%ADD16RoundRect,0.160000X0.160000X-0.197500X0.160000X0.197500X-0.160000X0.197500X-0.160000X-0.197500X0*%
%ADD17RoundRect,0.155000X0.155000X-0.212500X0.155000X0.212500X-0.155000X0.212500X-0.155000X-0.212500X0*%
%ADD18RoundRect,0.155000X0.212500X0.155000X-0.212500X0.155000X-0.212500X-0.155000X0.212500X-0.155000X0*%
%ADD19RoundRect,0.160000X-0.197500X-0.160000X0.197500X-0.160000X0.197500X0.160000X-0.197500X0.160000X0*%
%ADD20RoundRect,0.160000X0.197500X0.160000X-0.197500X0.160000X-0.197500X-0.160000X0.197500X-0.160000X0*%
%ADD21RoundRect,0.160000X0.222500X0.160000X-0.222500X0.160000X-0.222500X-0.160000X0.222500X-0.160000X0*%
%ADD22RoundRect,0.155000X-0.155000X0.212500X-0.155000X-0.212500X0.155000X-0.212500X0.155000X0.212500X0*%
%ADD23R,1.000000X1.200000*%
%ADD24C,0.650000*%
%ADD25R,0.600000X1.450000*%
%ADD26R,0.300000X1.450000*%
%ADD27O,1.000000X2.100000*%
%ADD28O,1.000000X1.600000*%
%ADD29RoundRect,0.085000X0.085000X-0.265000X0.085000X0.265000X-0.085000X0.265000X-0.085000X-0.265000X0*%
%ADD30RoundRect,0.150000X0.150000X-0.512500X0.150000X0.512500X-0.150000X0.512500X-0.150000X-0.512500X0*%
%ADD31C,0.550000*%
%ADD32C,0.574000*%
%ADD33RoundRect,0.150000X0.650000X0.150000X-0.650000X0.150000X-0.650000X-0.150000X0.650000X-0.150000X0*%
%ADD34RoundRect,0.237500X0.300000X0.237500X-0.300000X0.237500X-0.300000X-0.237500X0.300000X-0.237500X0*%
%ADD35RoundRect,0.237500X-0.237500X0.287500X-0.237500X-0.287500X0.237500X-0.287500X0.237500X0.287500X0*%
%ADD36RoundRect,0.250000X0.325000X0.450000X-0.325000X0.450000X-0.325000X-0.450000X0.325000X-0.450000X0*%
%ADD37RoundRect,0.093750X-0.093750X0.156250X-0.093750X-0.156250X0.093750X-0.156250X0.093750X0.156250X0*%
%ADD38RoundRect,0.075000X-0.075000X0.250000X-0.075000X-0.250000X0.075000X-0.250000X0.075000X0.250000X0*%
%ADD39R,1.700000X1.700000*%
%ADD40O,1.700000X1.700000*%
G04 APERTURE END LIST*
D10*
X141757400Y-103708200D02*
X141427200Y-103708200D01*
X179070000Y-91338400D02*
X179628800Y-91897200D01*
X176784000Y-91948000D02*
X176784000Y-91440000D01*
X178257200Y-97028000D02*
X182016400Y-97028000D01*
X182016400Y-101447600D01*
X178257200Y-101447600D01*
X178257200Y-97028000D01*
X175209200Y-90347800D02*
X175818800Y-89738200D01*
X141427200Y-102235000D02*
X141427200Y-96367600D01*
X177850800Y-92506800D02*
X177850800Y-90218000D01*
X141427200Y-96367600D02*
X141887900Y-96367600D01*
X184950000Y-88779700D02*
X185476700Y-89306400D01*
X174853600Y-91744800D02*
X175209200Y-91389200D01*
X177850800Y-90218000D02*
X178950000Y-89118800D01*
X181152800Y-85979700D02*
X181660800Y-85979700D01*
X178968400Y-85979700D02*
X178968400Y-89179700D01*
X175412400Y-88392000D02*
X173786800Y-90017600D01*
X181660800Y-85979700D02*
X181660800Y-88442800D01*
X183794400Y-86055200D02*
X185102400Y-86055200D01*
X141427200Y-103708200D02*
X141427200Y-102235000D01*
X178968400Y-85979700D02*
X181152800Y-85979700D01*
X178257200Y-97028000D02*
X178257200Y-92913200D01*
X178257200Y-92913200D02*
X177850800Y-92506800D01*
X141427200Y-102235000D02*
X141909800Y-102235000D01*
X184950000Y-87579700D02*
X185387500Y-88017200D01*
X141909800Y-102235000D02*
X141427200Y-102235000D01*
X175209200Y-90347800D02*
X175209200Y-91414600D01*
X156552167Y-117164935D02*
X156552167Y-116148935D01*
X156552167Y-116148935D02*
X156890834Y-116874650D01*
X156890834Y-116874650D02*
X157229501Y-116148935D01*
X157229501Y-116148935D02*
X157229501Y-117164935D01*
X158148739Y-117164935D02*
X158148739Y-116632745D01*
X158148739Y-116632745D02*
X158100358Y-116535983D01*
X158100358Y-116535983D02*
X158003596Y-116487602D01*
X158003596Y-116487602D02*
X157810072Y-116487602D01*
X157810072Y-116487602D02*
X157713310Y-116535983D01*
X158148739Y-117116555D02*
X158051977Y-117164935D01*
X158051977Y-117164935D02*
X157810072Y-117164935D01*
X157810072Y-117164935D02*
X157713310Y-117116555D01*
X157713310Y-117116555D02*
X157664929Y-117019793D01*
X157664929Y-117019793D02*
X157664929Y-116923031D01*
X157664929Y-116923031D02*
X157713310Y-116826269D01*
X157713310Y-116826269D02*
X157810072Y-116777888D01*
X157810072Y-116777888D02*
X158051977Y-116777888D01*
X158051977Y-116777888D02*
X158148739Y-116729507D01*
X158487405Y-116487602D02*
X158874453Y-116487602D01*
X158632548Y-116148935D02*
X158632548Y-117019793D01*
X158632548Y-117019793D02*
X158680929Y-117116555D01*
X158680929Y-117116555D02*
X158777691Y-117164935D01*
X158777691Y-117164935D02*
X158874453Y-117164935D01*
X159600167Y-117116555D02*
X159503405Y-117164935D01*
X159503405Y-117164935D02*
X159309881Y-117164935D01*
X159309881Y-117164935D02*
X159213119Y-117116555D01*
X159213119Y-117116555D02*
X159164738Y-117019793D01*
X159164738Y-117019793D02*
X159164738Y-116632745D01*
X159164738Y-116632745D02*
X159213119Y-116535983D01*
X159213119Y-116535983D02*
X159309881Y-116487602D01*
X159309881Y-116487602D02*
X159503405Y-116487602D01*
X159503405Y-116487602D02*
X159600167Y-116535983D01*
X159600167Y-116535983D02*
X159648548Y-116632745D01*
X159648548Y-116632745D02*
X159648548Y-116729507D01*
X159648548Y-116729507D02*
X159164738Y-116826269D01*
X160519405Y-116487602D02*
X160519405Y-117164935D01*
X160083976Y-116487602D02*
X160083976Y-117019793D01*
X160083976Y-117019793D02*
X160132357Y-117116555D01*
X160132357Y-117116555D02*
X160229119Y-117164935D01*
X160229119Y-117164935D02*
X160374262Y-117164935D01*
X160374262Y-117164935D02*
X160471024Y-117116555D01*
X160471024Y-117116555D02*
X160519405Y-117068174D01*
X160954833Y-117116555D02*
X161051595Y-117164935D01*
X161051595Y-117164935D02*
X161245119Y-117164935D01*
X161245119Y-117164935D02*
X161341881Y-117116555D01*
X161341881Y-117116555D02*
X161390262Y-117019793D01*
X161390262Y-117019793D02*
X161390262Y-116971412D01*
X161390262Y-116971412D02*
X161341881Y-116874650D01*
X161341881Y-116874650D02*
X161245119Y-116826269D01*
X161245119Y-116826269D02*
X161099976Y-116826269D01*
X161099976Y-116826269D02*
X161003214Y-116777888D01*
X161003214Y-116777888D02*
X160954833Y-116681126D01*
X160954833Y-116681126D02*
X160954833Y-116632745D01*
X160954833Y-116632745D02*
X161003214Y-116535983D01*
X161003214Y-116535983D02*
X161099976Y-116487602D01*
X161099976Y-116487602D02*
X161245119Y-116487602D01*
X161245119Y-116487602D02*
X161341881Y-116535983D01*
X161728928Y-116487602D02*
X162261119Y-116487602D01*
X162261119Y-116487602D02*
X161728928Y-117164935D01*
X161728928Y-117164935D02*
X162261119Y-117164935D01*
X163373880Y-117116555D02*
X163519023Y-117164935D01*
X163519023Y-117164935D02*
X163760928Y-117164935D01*
X163760928Y-117164935D02*
X163857690Y-117116555D01*
X163857690Y-117116555D02*
X163906071Y-117068174D01*
X163906071Y-117068174D02*
X163954452Y-116971412D01*
X163954452Y-116971412D02*
X163954452Y-116874650D01*
X163954452Y-116874650D02*
X163906071Y-116777888D01*
X163906071Y-116777888D02*
X163857690Y-116729507D01*
X163857690Y-116729507D02*
X163760928Y-116681126D01*
X163760928Y-116681126D02*
X163567404Y-116632745D01*
X163567404Y-116632745D02*
X163470642Y-116584364D01*
X163470642Y-116584364D02*
X163422261Y-116535983D01*
X163422261Y-116535983D02*
X163373880Y-116439221D01*
X163373880Y-116439221D02*
X163373880Y-116342459D01*
X163373880Y-116342459D02*
X163422261Y-116245697D01*
X163422261Y-116245697D02*
X163470642Y-116197316D01*
X163470642Y-116197316D02*
X163567404Y-116148935D01*
X163567404Y-116148935D02*
X163809309Y-116148935D01*
X163809309Y-116148935D02*
X163954452Y-116197316D01*
X164244737Y-116487602D02*
X164631785Y-116487602D01*
X164389880Y-116148935D02*
X164389880Y-117019793D01*
X164389880Y-117019793D02*
X164438261Y-117116555D01*
X164438261Y-117116555D02*
X164535023Y-117164935D01*
X164535023Y-117164935D02*
X164631785Y-117164935D01*
X165405880Y-117164935D02*
X165405880Y-116632745D01*
X165405880Y-116632745D02*
X165357499Y-116535983D01*
X165357499Y-116535983D02*
X165260737Y-116487602D01*
X165260737Y-116487602D02*
X165067213Y-116487602D01*
X165067213Y-116487602D02*
X164970451Y-116535983D01*
X165405880Y-117116555D02*
X165309118Y-117164935D01*
X165309118Y-117164935D02*
X165067213Y-117164935D01*
X165067213Y-117164935D02*
X164970451Y-117116555D01*
X164970451Y-117116555D02*
X164922070Y-117019793D01*
X164922070Y-117019793D02*
X164922070Y-116923031D01*
X164922070Y-116923031D02*
X164970451Y-116826269D01*
X164970451Y-116826269D02*
X165067213Y-116777888D01*
X165067213Y-116777888D02*
X165309118Y-116777888D01*
X165309118Y-116777888D02*
X165405880Y-116729507D01*
X166325118Y-117164935D02*
X166325118Y-116148935D01*
X166325118Y-117116555D02*
X166228356Y-117164935D01*
X166228356Y-117164935D02*
X166034832Y-117164935D01*
X166034832Y-117164935D02*
X165938070Y-117116555D01*
X165938070Y-117116555D02*
X165889689Y-117068174D01*
X165889689Y-117068174D02*
X165841308Y-116971412D01*
X165841308Y-116971412D02*
X165841308Y-116681126D01*
X165841308Y-116681126D02*
X165889689Y-116584364D01*
X165889689Y-116584364D02*
X165938070Y-116535983D01*
X165938070Y-116535983D02*
X166034832Y-116487602D01*
X166034832Y-116487602D02*
X166228356Y-116487602D01*
X166228356Y-116487602D02*
X166325118Y-116535983D01*
X166808927Y-116487602D02*
X166808927Y-117164935D01*
X166808927Y-116584364D02*
X166857308Y-116535983D01*
X166857308Y-116535983D02*
X166954070Y-116487602D01*
X166954070Y-116487602D02*
X167099213Y-116487602D01*
X167099213Y-116487602D02*
X167195975Y-116535983D01*
X167195975Y-116535983D02*
X167244356Y-116632745D01*
X167244356Y-116632745D02*
X167244356Y-117164935D01*
X167728165Y-117164935D02*
X167728165Y-116487602D01*
X167728165Y-116148935D02*
X167679784Y-116197316D01*
X167679784Y-116197316D02*
X167728165Y-116245697D01*
X167728165Y-116245697D02*
X167776546Y-116197316D01*
X167776546Y-116197316D02*
X167728165Y-116148935D01*
X167728165Y-116148935D02*
X167728165Y-116245697D01*
X168211975Y-117164935D02*
X168211975Y-116148935D01*
X168308737Y-116777888D02*
X168599023Y-117164935D01*
X168599023Y-116487602D02*
X168211975Y-116874650D01*
X170098832Y-117551983D02*
X170050451Y-117503602D01*
X170050451Y-117503602D02*
X169953689Y-117358459D01*
X169953689Y-117358459D02*
X169905308Y-117261697D01*
X169905308Y-117261697D02*
X169856927Y-117116555D01*
X169856927Y-117116555D02*
X169808546Y-116874650D01*
X169808546Y-116874650D02*
X169808546Y-116681126D01*
X169808546Y-116681126D02*
X169856927Y-116439221D01*
X169856927Y-116439221D02*
X169905308Y-116294078D01*
X169905308Y-116294078D02*
X169953689Y-116197316D01*
X169953689Y-116197316D02*
X170050451Y-116052174D01*
X170050451Y-116052174D02*
X170098832Y-116003793D01*
X170437498Y-116245697D02*
X170485879Y-116197316D01*
X170485879Y-116197316D02*
X170582641Y-116148935D01*
X170582641Y-116148935D02*
X170824546Y-116148935D01*
X170824546Y-116148935D02*
X170921308Y-116197316D01*
X170921308Y-116197316D02*
X170969689Y-116245697D01*
X170969689Y-116245697D02*
X171018070Y-116342459D01*
X171018070Y-116342459D02*
X171018070Y-116439221D01*
X171018070Y-116439221D02*
X170969689Y-116584364D01*
X170969689Y-116584364D02*
X170389117Y-117164935D01*
X170389117Y-117164935D02*
X171018070Y-117164935D01*
X171647022Y-116148935D02*
X171743784Y-116148935D01*
X171743784Y-116148935D02*
X171840546Y-116197316D01*
X171840546Y-116197316D02*
X171888927Y-116245697D01*
X171888927Y-116245697D02*
X171937308Y-116342459D01*
X171937308Y-116342459D02*
X171985689Y-116535983D01*
X171985689Y-116535983D02*
X171985689Y-116777888D01*
X171985689Y-116777888D02*
X171937308Y-116971412D01*
X171937308Y-116971412D02*
X171888927Y-117068174D01*
X171888927Y-117068174D02*
X171840546Y-117116555D01*
X171840546Y-117116555D02*
X171743784Y-117164935D01*
X171743784Y-117164935D02*
X171647022Y-117164935D01*
X171647022Y-117164935D02*
X171550260Y-117116555D01*
X171550260Y-117116555D02*
X171501879Y-117068174D01*
X171501879Y-117068174D02*
X171453498Y-116971412D01*
X171453498Y-116971412D02*
X171405117Y-116777888D01*
X171405117Y-116777888D02*
X171405117Y-116535983D01*
X171405117Y-116535983D02*
X171453498Y-116342459D01*
X171453498Y-116342459D02*
X171501879Y-116245697D01*
X171501879Y-116245697D02*
X171550260Y-116197316D01*
X171550260Y-116197316D02*
X171647022Y-116148935D01*
X172372736Y-116245697D02*
X172421117Y-116197316D01*
X172421117Y-116197316D02*
X172517879Y-116148935D01*
X172517879Y-116148935D02*
X172759784Y-116148935D01*
X172759784Y-116148935D02*
X172856546Y-116197316D01*
X172856546Y-116197316D02*
X172904927Y-116245697D01*
X172904927Y-116245697D02*
X172953308Y-116342459D01*
X172953308Y-116342459D02*
X172953308Y-116439221D01*
X172953308Y-116439221D02*
X172904927Y-116584364D01*
X172904927Y-116584364D02*
X172324355Y-117164935D01*
X172324355Y-117164935D02*
X172953308Y-117164935D01*
X173824165Y-116487602D02*
X173824165Y-117164935D01*
X173582260Y-116100555D02*
X173340355Y-116826269D01*
X173340355Y-116826269D02*
X173969308Y-116826269D01*
X174259593Y-117551983D02*
X174307974Y-117503602D01*
X174307974Y-117503602D02*
X174404736Y-117358459D01*
X174404736Y-117358459D02*
X174453117Y-117261697D01*
X174453117Y-117261697D02*
X174501498Y-117116555D01*
X174501498Y-117116555D02*
X174549879Y-116874650D01*
X174549879Y-116874650D02*
X174549879Y-116681126D01*
X174549879Y-116681126D02*
X174501498Y-116439221D01*
X174501498Y-116439221D02*
X174453117Y-116294078D01*
X174453117Y-116294078D02*
X174404736Y-116197316D01*
X174404736Y-116197316D02*
X174307974Y-116052174D01*
X174307974Y-116052174D02*
X174259593Y-116003793D01*
X158511967Y-115096735D02*
X158511967Y-114080735D01*
X158511967Y-114080735D02*
X158850634Y-114806450D01*
X158850634Y-114806450D02*
X159189301Y-114080735D01*
X159189301Y-114080735D02*
X159189301Y-115096735D01*
X159624729Y-115048355D02*
X159769872Y-115096735D01*
X159769872Y-115096735D02*
X160011777Y-115096735D01*
X160011777Y-115096735D02*
X160108539Y-115048355D01*
X160108539Y-115048355D02*
X160156920Y-114999974D01*
X160156920Y-114999974D02*
X160205301Y-114903212D01*
X160205301Y-114903212D02*
X160205301Y-114806450D01*
X160205301Y-114806450D02*
X160156920Y-114709688D01*
X160156920Y-114709688D02*
X160108539Y-114661307D01*
X160108539Y-114661307D02*
X160011777Y-114612926D01*
X160011777Y-114612926D02*
X159818253Y-114564545D01*
X159818253Y-114564545D02*
X159721491Y-114516164D01*
X159721491Y-114516164D02*
X159673110Y-114467783D01*
X159673110Y-114467783D02*
X159624729Y-114371021D01*
X159624729Y-114371021D02*
X159624729Y-114274259D01*
X159624729Y-114274259D02*
X159673110Y-114177497D01*
X159673110Y-114177497D02*
X159721491Y-114129116D01*
X159721491Y-114129116D02*
X159818253Y-114080735D01*
X159818253Y-114080735D02*
X160060158Y-114080735D01*
X160060158Y-114080735D02*
X160205301Y-114129116D01*
X160640729Y-115096735D02*
X160640729Y-114080735D01*
X160640729Y-114080735D02*
X161027777Y-114080735D01*
X161027777Y-114080735D02*
X161124539Y-114129116D01*
X161124539Y-114129116D02*
X161172920Y-114177497D01*
X161172920Y-114177497D02*
X161221301Y-114274259D01*
X161221301Y-114274259D02*
X161221301Y-114419402D01*
X161221301Y-114419402D02*
X161172920Y-114516164D01*
X161172920Y-114516164D02*
X161124539Y-114564545D01*
X161124539Y-114564545D02*
X161027777Y-114612926D01*
X161027777Y-114612926D02*
X160640729Y-114612926D01*
X162237301Y-114999974D02*
X162188920Y-115048355D01*
X162188920Y-115048355D02*
X162043777Y-115096735D01*
X162043777Y-115096735D02*
X161947015Y-115096735D01*
X161947015Y-115096735D02*
X161801872Y-115048355D01*
X161801872Y-115048355D02*
X161705110Y-114951593D01*
X161705110Y-114951593D02*
X161656729Y-114854831D01*
X161656729Y-114854831D02*
X161608348Y-114661307D01*
X161608348Y-114661307D02*
X161608348Y-114516164D01*
X161608348Y-114516164D02*
X161656729Y-114322640D01*
X161656729Y-114322640D02*
X161705110Y-114225878D01*
X161705110Y-114225878D02*
X161801872Y-114129116D01*
X161801872Y-114129116D02*
X161947015Y-114080735D01*
X161947015Y-114080735D02*
X162043777Y-114080735D01*
X162043777Y-114080735D02*
X162188920Y-114129116D01*
X162188920Y-114129116D02*
X162237301Y-114177497D01*
X162575967Y-114419402D02*
X162817872Y-115096735D01*
X162817872Y-115096735D02*
X163059777Y-114419402D01*
X163398443Y-114177497D02*
X163446824Y-114129116D01*
X163446824Y-114129116D02*
X163543586Y-114080735D01*
X163543586Y-114080735D02*
X163785491Y-114080735D01*
X163785491Y-114080735D02*
X163882253Y-114129116D01*
X163882253Y-114129116D02*
X163930634Y-114177497D01*
X163930634Y-114177497D02*
X163979015Y-114274259D01*
X163979015Y-114274259D02*
X163979015Y-114371021D01*
X163979015Y-114371021D02*
X163930634Y-114516164D01*
X163930634Y-114516164D02*
X163350062Y-115096735D01*
X163350062Y-115096735D02*
X163979015Y-115096735D01*
X165527205Y-114564545D02*
X165188538Y-114564545D01*
X165188538Y-115096735D02*
X165188538Y-114080735D01*
X165188538Y-114080735D02*
X165672348Y-114080735D01*
X166059395Y-115096735D02*
X166059395Y-114080735D01*
X166059395Y-114080735D02*
X166446443Y-114080735D01*
X166446443Y-114080735D02*
X166543205Y-114129116D01*
X166543205Y-114129116D02*
X166591586Y-114177497D01*
X166591586Y-114177497D02*
X166639967Y-114274259D01*
X166639967Y-114274259D02*
X166639967Y-114419402D01*
X166639967Y-114419402D02*
X166591586Y-114516164D01*
X166591586Y-114516164D02*
X166543205Y-114564545D01*
X166543205Y-114564545D02*
X166446443Y-114612926D01*
X166446443Y-114612926D02*
X166059395Y-114612926D01*
X167607586Y-114129116D02*
X167510824Y-114080735D01*
X167510824Y-114080735D02*
X167365681Y-114080735D01*
X167365681Y-114080735D02*
X167220538Y-114129116D01*
X167220538Y-114129116D02*
X167123776Y-114225878D01*
X167123776Y-114225878D02*
X167075395Y-114322640D01*
X167075395Y-114322640D02*
X167027014Y-114516164D01*
X167027014Y-114516164D02*
X167027014Y-114661307D01*
X167027014Y-114661307D02*
X167075395Y-114854831D01*
X167075395Y-114854831D02*
X167123776Y-114951593D01*
X167123776Y-114951593D02*
X167220538Y-115048355D01*
X167220538Y-115048355D02*
X167365681Y-115096735D01*
X167365681Y-115096735D02*
X167462443Y-115096735D01*
X167462443Y-115096735D02*
X167607586Y-115048355D01*
X167607586Y-115048355D02*
X167655967Y-114999974D01*
X167655967Y-114999974D02*
X167655967Y-114661307D01*
X167655967Y-114661307D02*
X167462443Y-114661307D01*
X168043014Y-114806450D02*
X168526824Y-114806450D01*
X167946252Y-115096735D02*
X168284919Y-114080735D01*
X168284919Y-114080735D02*
X168623586Y-115096735D01*
X169736347Y-114564545D02*
X170075014Y-114564545D01*
X170220157Y-115096735D02*
X169736347Y-115096735D01*
X169736347Y-115096735D02*
X169736347Y-114080735D01*
X169736347Y-114080735D02*
X170220157Y-114080735D01*
X171236157Y-114999974D02*
X171187776Y-115048355D01*
X171187776Y-115048355D02*
X171042633Y-115096735D01*
X171042633Y-115096735D02*
X170945871Y-115096735D01*
X170945871Y-115096735D02*
X170800728Y-115048355D01*
X170800728Y-115048355D02*
X170703966Y-114951593D01*
X170703966Y-114951593D02*
X170655585Y-114854831D01*
X170655585Y-114854831D02*
X170607204Y-114661307D01*
X170607204Y-114661307D02*
X170607204Y-114516164D01*
X170607204Y-114516164D02*
X170655585Y-114322640D01*
X170655585Y-114322640D02*
X170703966Y-114225878D01*
X170703966Y-114225878D02*
X170800728Y-114129116D01*
X170800728Y-114129116D02*
X170945871Y-114080735D01*
X170945871Y-114080735D02*
X171042633Y-114080735D01*
X171042633Y-114080735D02*
X171187776Y-114129116D01*
X171187776Y-114129116D02*
X171236157Y-114177497D01*
X171671585Y-115096735D02*
X171671585Y-114080735D01*
X171671585Y-114080735D02*
X172058633Y-114080735D01*
X172058633Y-114080735D02*
X172155395Y-114129116D01*
X172155395Y-114129116D02*
X172203776Y-114177497D01*
X172203776Y-114177497D02*
X172252157Y-114274259D01*
X172252157Y-114274259D02*
X172252157Y-114419402D01*
X172252157Y-114419402D02*
X172203776Y-114516164D01*
X172203776Y-114516164D02*
X172155395Y-114564545D01*
X172155395Y-114564545D02*
X172058633Y-114612926D01*
X172058633Y-114612926D02*
X171671585Y-114612926D01*
X173171395Y-114080735D02*
X172687585Y-114080735D01*
X172687585Y-114080735D02*
X172639204Y-114564545D01*
X172639204Y-114564545D02*
X172687585Y-114516164D01*
X172687585Y-114516164D02*
X172784347Y-114467783D01*
X172784347Y-114467783D02*
X173026252Y-114467783D01*
X173026252Y-114467783D02*
X173123014Y-114516164D01*
X173123014Y-114516164D02*
X173171395Y-114564545D01*
X173171395Y-114564545D02*
X173219776Y-114661307D01*
X173219776Y-114661307D02*
X173219776Y-114903212D01*
X173219776Y-114903212D02*
X173171395Y-114999974D01*
X173171395Y-114999974D02*
X173123014Y-115048355D01*
X173123014Y-115048355D02*
X173026252Y-115096735D01*
X173026252Y-115096735D02*
X172784347Y-115096735D01*
X172784347Y-115096735D02*
X172687585Y-115048355D01*
X172687585Y-115048355D02*
X172639204Y-114999974D01*
X153016857Y-112684134D02*
X152968476Y-112732515D01*
X152968476Y-112732515D02*
X152823333Y-112780895D01*
X152823333Y-112780895D02*
X152726571Y-112780895D01*
X152726571Y-112780895D02*
X152581428Y-112732515D01*
X152581428Y-112732515D02*
X152484666Y-112635753D01*
X152484666Y-112635753D02*
X152436285Y-112538991D01*
X152436285Y-112538991D02*
X152387904Y-112345467D01*
X152387904Y-112345467D02*
X152387904Y-112200324D01*
X152387904Y-112200324D02*
X152436285Y-112006800D01*
X152436285Y-112006800D02*
X152484666Y-111910038D01*
X152484666Y-111910038D02*
X152581428Y-111813276D01*
X152581428Y-111813276D02*
X152726571Y-111764895D01*
X152726571Y-111764895D02*
X152823333Y-111764895D01*
X152823333Y-111764895D02*
X152968476Y-111813276D01*
X152968476Y-111813276D02*
X153016857Y-111861657D01*
X153984476Y-112780895D02*
X153403904Y-112780895D01*
X153694190Y-112780895D02*
X153694190Y-111764895D01*
X153694190Y-111764895D02*
X153597428Y-111910038D01*
X153597428Y-111910038D02*
X153500666Y-112006800D01*
X153500666Y-112006800D02*
X153403904Y-112055181D01*
X154323142Y-111764895D02*
X154952095Y-111764895D01*
X154952095Y-111764895D02*
X154613428Y-112151943D01*
X154613428Y-112151943D02*
X154758571Y-112151943D01*
X154758571Y-112151943D02*
X154855333Y-112200324D01*
X154855333Y-112200324D02*
X154903714Y-112248705D01*
X154903714Y-112248705D02*
X154952095Y-112345467D01*
X154952095Y-112345467D02*
X154952095Y-112587372D01*
X154952095Y-112587372D02*
X154903714Y-112684134D01*
X154903714Y-112684134D02*
X154855333Y-112732515D01*
X154855333Y-112732515D02*
X154758571Y-112780895D01*
X154758571Y-112780895D02*
X154468285Y-112780895D01*
X154468285Y-112780895D02*
X154371523Y-112732515D01*
X154371523Y-112732515D02*
X154323142Y-112684134D01*
X174096495Y-85082742D02*
X173612686Y-85421409D01*
X174096495Y-85663314D02*
X173080495Y-85663314D01*
X173080495Y-85663314D02*
X173080495Y-85276266D01*
X173080495Y-85276266D02*
X173128876Y-85179504D01*
X173128876Y-85179504D02*
X173177257Y-85131123D01*
X173177257Y-85131123D02*
X173274019Y-85082742D01*
X173274019Y-85082742D02*
X173419162Y-85082742D01*
X173419162Y-85082742D02*
X173515924Y-85131123D01*
X173515924Y-85131123D02*
X173564305Y-85179504D01*
X173564305Y-85179504D02*
X173612686Y-85276266D01*
X173612686Y-85276266D02*
X173612686Y-85663314D01*
X173177257Y-84695695D02*
X173128876Y-84647314D01*
X173128876Y-84647314D02*
X173080495Y-84550552D01*
X173080495Y-84550552D02*
X173080495Y-84308647D01*
X173080495Y-84308647D02*
X173128876Y-84211885D01*
X173128876Y-84211885D02*
X173177257Y-84163504D01*
X173177257Y-84163504D02*
X173274019Y-84115123D01*
X173274019Y-84115123D02*
X173370781Y-84115123D01*
X173370781Y-84115123D02*
X173515924Y-84163504D01*
X173515924Y-84163504D02*
X174096495Y-84744076D01*
X174096495Y-84744076D02*
X174096495Y-84115123D01*
X173177257Y-83728076D02*
X173128876Y-83679695D01*
X173128876Y-83679695D02*
X173080495Y-83582933D01*
X173080495Y-83582933D02*
X173080495Y-83341028D01*
X173080495Y-83341028D02*
X173128876Y-83244266D01*
X173128876Y-83244266D02*
X173177257Y-83195885D01*
X173177257Y-83195885D02*
X173274019Y-83147504D01*
X173274019Y-83147504D02*
X173370781Y-83147504D01*
X173370781Y-83147504D02*
X173515924Y-83195885D01*
X173515924Y-83195885D02*
X174096495Y-83776457D01*
X174096495Y-83776457D02*
X174096495Y-83147504D01*
X177657334Y-83863542D02*
X177705715Y-83911923D01*
X177705715Y-83911923D02*
X177754095Y-84057066D01*
X177754095Y-84057066D02*
X177754095Y-84153828D01*
X177754095Y-84153828D02*
X177705715Y-84298971D01*
X177705715Y-84298971D02*
X177608953Y-84395733D01*
X177608953Y-84395733D02*
X177512191Y-84444114D01*
X177512191Y-84444114D02*
X177318667Y-84492495D01*
X177318667Y-84492495D02*
X177173524Y-84492495D01*
X177173524Y-84492495D02*
X176980000Y-84444114D01*
X176980000Y-84444114D02*
X176883238Y-84395733D01*
X176883238Y-84395733D02*
X176786476Y-84298971D01*
X176786476Y-84298971D02*
X176738095Y-84153828D01*
X176738095Y-84153828D02*
X176738095Y-84057066D01*
X176738095Y-84057066D02*
X176786476Y-83911923D01*
X176786476Y-83911923D02*
X176834857Y-83863542D01*
X176834857Y-83476495D02*
X176786476Y-83428114D01*
X176786476Y-83428114D02*
X176738095Y-83331352D01*
X176738095Y-83331352D02*
X176738095Y-83089447D01*
X176738095Y-83089447D02*
X176786476Y-82992685D01*
X176786476Y-82992685D02*
X176834857Y-82944304D01*
X176834857Y-82944304D02*
X176931619Y-82895923D01*
X176931619Y-82895923D02*
X177028381Y-82895923D01*
X177028381Y-82895923D02*
X177173524Y-82944304D01*
X177173524Y-82944304D02*
X177754095Y-83524876D01*
X177754095Y-83524876D02*
X177754095Y-82895923D01*
X176738095Y-82557257D02*
X176738095Y-81879923D01*
X176738095Y-81879923D02*
X177754095Y-82315352D01*
X186036857Y-89062134D02*
X185988476Y-89110515D01*
X185988476Y-89110515D02*
X185843333Y-89158895D01*
X185843333Y-89158895D02*
X185746571Y-89158895D01*
X185746571Y-89158895D02*
X185601428Y-89110515D01*
X185601428Y-89110515D02*
X185504666Y-89013753D01*
X185504666Y-89013753D02*
X185456285Y-88916991D01*
X185456285Y-88916991D02*
X185407904Y-88723467D01*
X185407904Y-88723467D02*
X185407904Y-88578324D01*
X185407904Y-88578324D02*
X185456285Y-88384800D01*
X185456285Y-88384800D02*
X185504666Y-88288038D01*
X185504666Y-88288038D02*
X185601428Y-88191276D01*
X185601428Y-88191276D02*
X185746571Y-88142895D01*
X185746571Y-88142895D02*
X185843333Y-88142895D01*
X185843333Y-88142895D02*
X185988476Y-88191276D01*
X185988476Y-88191276D02*
X186036857Y-88239657D01*
X186375523Y-88142895D02*
X187004476Y-88142895D01*
X187004476Y-88142895D02*
X186665809Y-88529943D01*
X186665809Y-88529943D02*
X186810952Y-88529943D01*
X186810952Y-88529943D02*
X186907714Y-88578324D01*
X186907714Y-88578324D02*
X186956095Y-88626705D01*
X186956095Y-88626705D02*
X187004476Y-88723467D01*
X187004476Y-88723467D02*
X187004476Y-88965372D01*
X187004476Y-88965372D02*
X186956095Y-89062134D01*
X186956095Y-89062134D02*
X186907714Y-89110515D01*
X186907714Y-89110515D02*
X186810952Y-89158895D01*
X186810952Y-89158895D02*
X186520666Y-89158895D01*
X186520666Y-89158895D02*
X186423904Y-89110515D01*
X186423904Y-89110515D02*
X186375523Y-89062134D01*
X187343142Y-88142895D02*
X188020476Y-88142895D01*
X188020476Y-88142895D02*
X187585047Y-89158895D01*
X154693257Y-73817295D02*
X154354590Y-73333486D01*
X154112685Y-73817295D02*
X154112685Y-72801295D01*
X154112685Y-72801295D02*
X154499733Y-72801295D01*
X154499733Y-72801295D02*
X154596495Y-72849676D01*
X154596495Y-72849676D02*
X154644876Y-72898057D01*
X154644876Y-72898057D02*
X154693257Y-72994819D01*
X154693257Y-72994819D02*
X154693257Y-73139962D01*
X154693257Y-73139962D02*
X154644876Y-73236724D01*
X154644876Y-73236724D02*
X154596495Y-73285105D01*
X154596495Y-73285105D02*
X154499733Y-73333486D01*
X154499733Y-73333486D02*
X154112685Y-73333486D01*
X155660876Y-73817295D02*
X155080304Y-73817295D01*
X155370590Y-73817295D02*
X155370590Y-72801295D01*
X155370590Y-72801295D02*
X155273828Y-72946438D01*
X155273828Y-72946438D02*
X155177066Y-73043200D01*
X155177066Y-73043200D02*
X155080304Y-73091581D01*
X155999542Y-72801295D02*
X156628495Y-72801295D01*
X156628495Y-72801295D02*
X156289828Y-73188343D01*
X156289828Y-73188343D02*
X156434971Y-73188343D01*
X156434971Y-73188343D02*
X156531733Y-73236724D01*
X156531733Y-73236724D02*
X156580114Y-73285105D01*
X156580114Y-73285105D02*
X156628495Y-73381867D01*
X156628495Y-73381867D02*
X156628495Y-73623772D01*
X156628495Y-73623772D02*
X156580114Y-73720534D01*
X156580114Y-73720534D02*
X156531733Y-73768915D01*
X156531733Y-73768915D02*
X156434971Y-73817295D01*
X156434971Y-73817295D02*
X156144685Y-73817295D01*
X156144685Y-73817295D02*
X156047923Y-73768915D01*
X156047923Y-73768915D02*
X155999542Y-73720534D01*
X179373357Y-99755534D02*
X179324976Y-99803915D01*
X179324976Y-99803915D02*
X179179833Y-99852295D01*
X179179833Y-99852295D02*
X179083071Y-99852295D01*
X179083071Y-99852295D02*
X178937928Y-99803915D01*
X178937928Y-99803915D02*
X178841166Y-99707153D01*
X178841166Y-99707153D02*
X178792785Y-99610391D01*
X178792785Y-99610391D02*
X178744404Y-99416867D01*
X178744404Y-99416867D02*
X178744404Y-99271724D01*
X178744404Y-99271724D02*
X178792785Y-99078200D01*
X178792785Y-99078200D02*
X178841166Y-98981438D01*
X178841166Y-98981438D02*
X178937928Y-98884676D01*
X178937928Y-98884676D02*
X179083071Y-98836295D01*
X179083071Y-98836295D02*
X179179833Y-98836295D01*
X179179833Y-98836295D02*
X179324976Y-98884676D01*
X179324976Y-98884676D02*
X179373357Y-98933057D01*
X179712023Y-98836295D02*
X180340976Y-98836295D01*
X180340976Y-98836295D02*
X180002309Y-99223343D01*
X180002309Y-99223343D02*
X180147452Y-99223343D01*
X180147452Y-99223343D02*
X180244214Y-99271724D01*
X180244214Y-99271724D02*
X180292595Y-99320105D01*
X180292595Y-99320105D02*
X180340976Y-99416867D01*
X180340976Y-99416867D02*
X180340976Y-99658772D01*
X180340976Y-99658772D02*
X180292595Y-99755534D01*
X180292595Y-99755534D02*
X180244214Y-99803915D01*
X180244214Y-99803915D02*
X180147452Y-99852295D01*
X180147452Y-99852295D02*
X179857166Y-99852295D01*
X179857166Y-99852295D02*
X179760404Y-99803915D01*
X179760404Y-99803915D02*
X179712023Y-99755534D01*
X180679642Y-98836295D02*
X181308595Y-98836295D01*
X181308595Y-98836295D02*
X180969928Y-99223343D01*
X180969928Y-99223343D02*
X181115071Y-99223343D01*
X181115071Y-99223343D02*
X181211833Y-99271724D01*
X181211833Y-99271724D02*
X181260214Y-99320105D01*
X181260214Y-99320105D02*
X181308595Y-99416867D01*
X181308595Y-99416867D02*
X181308595Y-99658772D01*
X181308595Y-99658772D02*
X181260214Y-99755534D01*
X181260214Y-99755534D02*
X181211833Y-99803915D01*
X181211833Y-99803915D02*
X181115071Y-99852295D01*
X181115071Y-99852295D02*
X180824785Y-99852295D01*
X180824785Y-99852295D02*
X180728023Y-99803915D01*
X180728023Y-99803915D02*
X180679642Y-99755534D01*
X185274857Y-102722495D02*
X184936190Y-102238686D01*
X184694285Y-102722495D02*
X184694285Y-101706495D01*
X184694285Y-101706495D02*
X185081333Y-101706495D01*
X185081333Y-101706495D02*
X185178095Y-101754876D01*
X185178095Y-101754876D02*
X185226476Y-101803257D01*
X185226476Y-101803257D02*
X185274857Y-101900019D01*
X185274857Y-101900019D02*
X185274857Y-102045162D01*
X185274857Y-102045162D02*
X185226476Y-102141924D01*
X185226476Y-102141924D02*
X185178095Y-102190305D01*
X185178095Y-102190305D02*
X185081333Y-102238686D01*
X185081333Y-102238686D02*
X184694285Y-102238686D01*
X185661904Y-101803257D02*
X185710285Y-101754876D01*
X185710285Y-101754876D02*
X185807047Y-101706495D01*
X185807047Y-101706495D02*
X186048952Y-101706495D01*
X186048952Y-101706495D02*
X186145714Y-101754876D01*
X186145714Y-101754876D02*
X186194095Y-101803257D01*
X186194095Y-101803257D02*
X186242476Y-101900019D01*
X186242476Y-101900019D02*
X186242476Y-101996781D01*
X186242476Y-101996781D02*
X186194095Y-102141924D01*
X186194095Y-102141924D02*
X185613523Y-102722495D01*
X185613523Y-102722495D02*
X186242476Y-102722495D01*
X187161714Y-101706495D02*
X186677904Y-101706495D01*
X186677904Y-101706495D02*
X186629523Y-102190305D01*
X186629523Y-102190305D02*
X186677904Y-102141924D01*
X186677904Y-102141924D02*
X186774666Y-102093543D01*
X186774666Y-102093543D02*
X187016571Y-102093543D01*
X187016571Y-102093543D02*
X187113333Y-102141924D01*
X187113333Y-102141924D02*
X187161714Y-102190305D01*
X187161714Y-102190305D02*
X187210095Y-102287067D01*
X187210095Y-102287067D02*
X187210095Y-102528972D01*
X187210095Y-102528972D02*
X187161714Y-102625734D01*
X187161714Y-102625734D02*
X187113333Y-102674115D01*
X187113333Y-102674115D02*
X187016571Y-102722495D01*
X187016571Y-102722495D02*
X186774666Y-102722495D01*
X186774666Y-102722495D02*
X186677904Y-102674115D01*
X186677904Y-102674115D02*
X186629523Y-102625734D01*
X179373357Y-98358534D02*
X179324976Y-98406915D01*
X179324976Y-98406915D02*
X179179833Y-98455295D01*
X179179833Y-98455295D02*
X179083071Y-98455295D01*
X179083071Y-98455295D02*
X178937928Y-98406915D01*
X178937928Y-98406915D02*
X178841166Y-98310153D01*
X178841166Y-98310153D02*
X178792785Y-98213391D01*
X178792785Y-98213391D02*
X178744404Y-98019867D01*
X178744404Y-98019867D02*
X178744404Y-97874724D01*
X178744404Y-97874724D02*
X178792785Y-97681200D01*
X178792785Y-97681200D02*
X178841166Y-97584438D01*
X178841166Y-97584438D02*
X178937928Y-97487676D01*
X178937928Y-97487676D02*
X179083071Y-97439295D01*
X179083071Y-97439295D02*
X179179833Y-97439295D01*
X179179833Y-97439295D02*
X179324976Y-97487676D01*
X179324976Y-97487676D02*
X179373357Y-97536057D01*
X179712023Y-97439295D02*
X180340976Y-97439295D01*
X180340976Y-97439295D02*
X180002309Y-97826343D01*
X180002309Y-97826343D02*
X180147452Y-97826343D01*
X180147452Y-97826343D02*
X180244214Y-97874724D01*
X180244214Y-97874724D02*
X180292595Y-97923105D01*
X180292595Y-97923105D02*
X180340976Y-98019867D01*
X180340976Y-98019867D02*
X180340976Y-98261772D01*
X180340976Y-98261772D02*
X180292595Y-98358534D01*
X180292595Y-98358534D02*
X180244214Y-98406915D01*
X180244214Y-98406915D02*
X180147452Y-98455295D01*
X180147452Y-98455295D02*
X179857166Y-98455295D01*
X179857166Y-98455295D02*
X179760404Y-98406915D01*
X179760404Y-98406915D02*
X179712023Y-98358534D01*
X181211833Y-97777962D02*
X181211833Y-98455295D01*
X180969928Y-97390915D02*
X180728023Y-98116629D01*
X180728023Y-98116629D02*
X181356976Y-98116629D01*
X149542295Y-110952095D02*
X149542295Y-109936095D01*
X149542295Y-109936095D02*
X149784200Y-109936095D01*
X149784200Y-109936095D02*
X149929343Y-109984476D01*
X149929343Y-109984476D02*
X150026105Y-110081238D01*
X150026105Y-110081238D02*
X150074486Y-110178000D01*
X150074486Y-110178000D02*
X150122867Y-110371524D01*
X150122867Y-110371524D02*
X150122867Y-110516667D01*
X150122867Y-110516667D02*
X150074486Y-110710191D01*
X150074486Y-110710191D02*
X150026105Y-110806953D01*
X150026105Y-110806953D02*
X149929343Y-110903715D01*
X149929343Y-110903715D02*
X149784200Y-110952095D01*
X149784200Y-110952095D02*
X149542295Y-110952095D01*
X150461533Y-109936095D02*
X151090486Y-109936095D01*
X151090486Y-109936095D02*
X150751819Y-110323143D01*
X150751819Y-110323143D02*
X150896962Y-110323143D01*
X150896962Y-110323143D02*
X150993724Y-110371524D01*
X150993724Y-110371524D02*
X151042105Y-110419905D01*
X151042105Y-110419905D02*
X151090486Y-110516667D01*
X151090486Y-110516667D02*
X151090486Y-110758572D01*
X151090486Y-110758572D02*
X151042105Y-110855334D01*
X151042105Y-110855334D02*
X150993724Y-110903715D01*
X150993724Y-110903715D02*
X150896962Y-110952095D01*
X150896962Y-110952095D02*
X150606676Y-110952095D01*
X150606676Y-110952095D02*
X150509914Y-110903715D01*
X150509914Y-110903715D02*
X150461533Y-110855334D01*
X164587167Y-81134095D02*
X164248500Y-80650286D01*
X164006595Y-81134095D02*
X164006595Y-80118095D01*
X164006595Y-80118095D02*
X164393643Y-80118095D01*
X164393643Y-80118095D02*
X164490405Y-80166476D01*
X164490405Y-80166476D02*
X164538786Y-80214857D01*
X164538786Y-80214857D02*
X164587167Y-80311619D01*
X164587167Y-80311619D02*
X164587167Y-80456762D01*
X164587167Y-80456762D02*
X164538786Y-80553524D01*
X164538786Y-80553524D02*
X164490405Y-80601905D01*
X164490405Y-80601905D02*
X164393643Y-80650286D01*
X164393643Y-80650286D02*
X164006595Y-80650286D01*
X165506405Y-80118095D02*
X165022595Y-80118095D01*
X165022595Y-80118095D02*
X164974214Y-80601905D01*
X164974214Y-80601905D02*
X165022595Y-80553524D01*
X165022595Y-80553524D02*
X165119357Y-80505143D01*
X165119357Y-80505143D02*
X165361262Y-80505143D01*
X165361262Y-80505143D02*
X165458024Y-80553524D01*
X165458024Y-80553524D02*
X165506405Y-80601905D01*
X165506405Y-80601905D02*
X165554786Y-80698667D01*
X165554786Y-80698667D02*
X165554786Y-80940572D01*
X165554786Y-80940572D02*
X165506405Y-81037334D01*
X165506405Y-81037334D02*
X165458024Y-81085715D01*
X165458024Y-81085715D02*
X165361262Y-81134095D01*
X165361262Y-81134095D02*
X165119357Y-81134095D01*
X165119357Y-81134095D02*
X165022595Y-81085715D01*
X165022595Y-81085715D02*
X164974214Y-81037334D01*
X148146857Y-76190334D02*
X148098476Y-76238715D01*
X148098476Y-76238715D02*
X147953333Y-76287095D01*
X147953333Y-76287095D02*
X147856571Y-76287095D01*
X147856571Y-76287095D02*
X147711428Y-76238715D01*
X147711428Y-76238715D02*
X147614666Y-76141953D01*
X147614666Y-76141953D02*
X147566285Y-76045191D01*
X147566285Y-76045191D02*
X147517904Y-75851667D01*
X147517904Y-75851667D02*
X147517904Y-75706524D01*
X147517904Y-75706524D02*
X147566285Y-75513000D01*
X147566285Y-75513000D02*
X147614666Y-75416238D01*
X147614666Y-75416238D02*
X147711428Y-75319476D01*
X147711428Y-75319476D02*
X147856571Y-75271095D01*
X147856571Y-75271095D02*
X147953333Y-75271095D01*
X147953333Y-75271095D02*
X148098476Y-75319476D01*
X148098476Y-75319476D02*
X148146857Y-75367857D01*
X148485523Y-75271095D02*
X149114476Y-75271095D01*
X149114476Y-75271095D02*
X148775809Y-75658143D01*
X148775809Y-75658143D02*
X148920952Y-75658143D01*
X148920952Y-75658143D02*
X149017714Y-75706524D01*
X149017714Y-75706524D02*
X149066095Y-75754905D01*
X149066095Y-75754905D02*
X149114476Y-75851667D01*
X149114476Y-75851667D02*
X149114476Y-76093572D01*
X149114476Y-76093572D02*
X149066095Y-76190334D01*
X149066095Y-76190334D02*
X149017714Y-76238715D01*
X149017714Y-76238715D02*
X148920952Y-76287095D01*
X148920952Y-76287095D02*
X148630666Y-76287095D01*
X148630666Y-76287095D02*
X148533904Y-76238715D01*
X148533904Y-76238715D02*
X148485523Y-76190334D01*
X149598285Y-76287095D02*
X149791809Y-76287095D01*
X149791809Y-76287095D02*
X149888571Y-76238715D01*
X149888571Y-76238715D02*
X149936952Y-76190334D01*
X149936952Y-76190334D02*
X150033714Y-76045191D01*
X150033714Y-76045191D02*
X150082095Y-75851667D01*
X150082095Y-75851667D02*
X150082095Y-75464619D01*
X150082095Y-75464619D02*
X150033714Y-75367857D01*
X150033714Y-75367857D02*
X149985333Y-75319476D01*
X149985333Y-75319476D02*
X149888571Y-75271095D01*
X149888571Y-75271095D02*
X149695047Y-75271095D01*
X149695047Y-75271095D02*
X149598285Y-75319476D01*
X149598285Y-75319476D02*
X149549904Y-75367857D01*
X149549904Y-75367857D02*
X149501523Y-75464619D01*
X149501523Y-75464619D02*
X149501523Y-75706524D01*
X149501523Y-75706524D02*
X149549904Y-75803286D01*
X149549904Y-75803286D02*
X149598285Y-75851667D01*
X149598285Y-75851667D02*
X149695047Y-75900048D01*
X149695047Y-75900048D02*
X149888571Y-75900048D01*
X149888571Y-75900048D02*
X149985333Y-75851667D01*
X149985333Y-75851667D02*
X150033714Y-75803286D01*
X150033714Y-75803286D02*
X150082095Y-75706524D01*
X186190334Y-87232842D02*
X186238715Y-87281223D01*
X186238715Y-87281223D02*
X186287095Y-87426366D01*
X186287095Y-87426366D02*
X186287095Y-87523128D01*
X186287095Y-87523128D02*
X186238715Y-87668271D01*
X186238715Y-87668271D02*
X186141953Y-87765033D01*
X186141953Y-87765033D02*
X186045191Y-87813414D01*
X186045191Y-87813414D02*
X185851667Y-87861795D01*
X185851667Y-87861795D02*
X185706524Y-87861795D01*
X185706524Y-87861795D02*
X185513000Y-87813414D01*
X185513000Y-87813414D02*
X185416238Y-87765033D01*
X185416238Y-87765033D02*
X185319476Y-87668271D01*
X185319476Y-87668271D02*
X185271095Y-87523128D01*
X185271095Y-87523128D02*
X185271095Y-87426366D01*
X185271095Y-87426366D02*
X185319476Y-87281223D01*
X185319476Y-87281223D02*
X185367857Y-87232842D01*
X185271095Y-86894176D02*
X185271095Y-86265223D01*
X185271095Y-86265223D02*
X185658143Y-86603890D01*
X185658143Y-86603890D02*
X185658143Y-86458747D01*
X185658143Y-86458747D02*
X185706524Y-86361985D01*
X185706524Y-86361985D02*
X185754905Y-86313604D01*
X185754905Y-86313604D02*
X185851667Y-86265223D01*
X185851667Y-86265223D02*
X186093572Y-86265223D01*
X186093572Y-86265223D02*
X186190334Y-86313604D01*
X186190334Y-86313604D02*
X186238715Y-86361985D01*
X186238715Y-86361985D02*
X186287095Y-86458747D01*
X186287095Y-86458747D02*
X186287095Y-86749033D01*
X186287095Y-86749033D02*
X186238715Y-86845795D01*
X186238715Y-86845795D02*
X186190334Y-86894176D01*
X186287095Y-85297604D02*
X186287095Y-85878176D01*
X186287095Y-85587890D02*
X185271095Y-85587890D01*
X185271095Y-85587890D02*
X185416238Y-85684652D01*
X185416238Y-85684652D02*
X185513000Y-85781414D01*
X185513000Y-85781414D02*
X185561381Y-85878176D01*
X159886957Y-75055029D02*
X159548290Y-74571220D01*
X159306385Y-75055029D02*
X159306385Y-74039029D01*
X159306385Y-74039029D02*
X159693433Y-74039029D01*
X159693433Y-74039029D02*
X159790195Y-74087410D01*
X159790195Y-74087410D02*
X159838576Y-74135791D01*
X159838576Y-74135791D02*
X159886957Y-74232553D01*
X159886957Y-74232553D02*
X159886957Y-74377696D01*
X159886957Y-74377696D02*
X159838576Y-74474458D01*
X159838576Y-74474458D02*
X159790195Y-74522839D01*
X159790195Y-74522839D02*
X159693433Y-74571220D01*
X159693433Y-74571220D02*
X159306385Y-74571220D01*
X160854576Y-75055029D02*
X160274004Y-75055029D01*
X160564290Y-75055029D02*
X160564290Y-74039029D01*
X160564290Y-74039029D02*
X160467528Y-74184172D01*
X160467528Y-74184172D02*
X160370766Y-74280934D01*
X160370766Y-74280934D02*
X160274004Y-74329315D01*
X161773814Y-74039029D02*
X161290004Y-74039029D01*
X161290004Y-74039029D02*
X161241623Y-74522839D01*
X161241623Y-74522839D02*
X161290004Y-74474458D01*
X161290004Y-74474458D02*
X161386766Y-74426077D01*
X161386766Y-74426077D02*
X161628671Y-74426077D01*
X161628671Y-74426077D02*
X161725433Y-74474458D01*
X161725433Y-74474458D02*
X161773814Y-74522839D01*
X161773814Y-74522839D02*
X161822195Y-74619601D01*
X161822195Y-74619601D02*
X161822195Y-74861506D01*
X161822195Y-74861506D02*
X161773814Y-74958268D01*
X161773814Y-74958268D02*
X161725433Y-75006649D01*
X161725433Y-75006649D02*
X161628671Y-75055029D01*
X161628671Y-75055029D02*
X161386766Y-75055029D01*
X161386766Y-75055029D02*
X161290004Y-75006649D01*
X161290004Y-75006649D02*
X161241623Y-74958268D01*
X180649695Y-81831542D02*
X180165886Y-82170209D01*
X180649695Y-82412114D02*
X179633695Y-82412114D01*
X179633695Y-82412114D02*
X179633695Y-82025066D01*
X179633695Y-82025066D02*
X179682076Y-81928304D01*
X179682076Y-81928304D02*
X179730457Y-81879923D01*
X179730457Y-81879923D02*
X179827219Y-81831542D01*
X179827219Y-81831542D02*
X179972362Y-81831542D01*
X179972362Y-81831542D02*
X180069124Y-81879923D01*
X180069124Y-81879923D02*
X180117505Y-81928304D01*
X180117505Y-81928304D02*
X180165886Y-82025066D01*
X180165886Y-82025066D02*
X180165886Y-82412114D01*
X179730457Y-81444495D02*
X179682076Y-81396114D01*
X179682076Y-81396114D02*
X179633695Y-81299352D01*
X179633695Y-81299352D02*
X179633695Y-81057447D01*
X179633695Y-81057447D02*
X179682076Y-80960685D01*
X179682076Y-80960685D02*
X179730457Y-80912304D01*
X179730457Y-80912304D02*
X179827219Y-80863923D01*
X179827219Y-80863923D02*
X179923981Y-80863923D01*
X179923981Y-80863923D02*
X180069124Y-80912304D01*
X180069124Y-80912304D02*
X180649695Y-81492876D01*
X180649695Y-81492876D02*
X180649695Y-80863923D01*
X179633695Y-80234971D02*
X179633695Y-80138209D01*
X179633695Y-80138209D02*
X179682076Y-80041447D01*
X179682076Y-80041447D02*
X179730457Y-79993066D01*
X179730457Y-79993066D02*
X179827219Y-79944685D01*
X179827219Y-79944685D02*
X180020743Y-79896304D01*
X180020743Y-79896304D02*
X180262648Y-79896304D01*
X180262648Y-79896304D02*
X180456172Y-79944685D01*
X180456172Y-79944685D02*
X180552934Y-79993066D01*
X180552934Y-79993066D02*
X180601315Y-80041447D01*
X180601315Y-80041447D02*
X180649695Y-80138209D01*
X180649695Y-80138209D02*
X180649695Y-80234971D01*
X180649695Y-80234971D02*
X180601315Y-80331733D01*
X180601315Y-80331733D02*
X180552934Y-80380114D01*
X180552934Y-80380114D02*
X180456172Y-80428495D01*
X180456172Y-80428495D02*
X180262648Y-80476876D01*
X180262648Y-80476876D02*
X180020743Y-80476876D01*
X180020743Y-80476876D02*
X179827219Y-80428495D01*
X179827219Y-80428495D02*
X179730457Y-80380114D01*
X179730457Y-80380114D02*
X179682076Y-80331733D01*
X179682076Y-80331733D02*
X179633695Y-80234971D01*
X144509067Y-119491334D02*
X144460686Y-119539715D01*
X144460686Y-119539715D02*
X144315543Y-119588095D01*
X144315543Y-119588095D02*
X144218781Y-119588095D01*
X144218781Y-119588095D02*
X144073638Y-119539715D01*
X144073638Y-119539715D02*
X143976876Y-119442953D01*
X143976876Y-119442953D02*
X143928495Y-119346191D01*
X143928495Y-119346191D02*
X143880114Y-119152667D01*
X143880114Y-119152667D02*
X143880114Y-119007524D01*
X143880114Y-119007524D02*
X143928495Y-118814000D01*
X143928495Y-118814000D02*
X143976876Y-118717238D01*
X143976876Y-118717238D02*
X144073638Y-118620476D01*
X144073638Y-118620476D02*
X144218781Y-118572095D01*
X144218781Y-118572095D02*
X144315543Y-118572095D01*
X144315543Y-118572095D02*
X144460686Y-118620476D01*
X144460686Y-118620476D02*
X144509067Y-118668857D01*
X144992876Y-119588095D02*
X145186400Y-119588095D01*
X145186400Y-119588095D02*
X145283162Y-119539715D01*
X145283162Y-119539715D02*
X145331543Y-119491334D01*
X145331543Y-119491334D02*
X145428305Y-119346191D01*
X145428305Y-119346191D02*
X145476686Y-119152667D01*
X145476686Y-119152667D02*
X145476686Y-118765619D01*
X145476686Y-118765619D02*
X145428305Y-118668857D01*
X145428305Y-118668857D02*
X145379924Y-118620476D01*
X145379924Y-118620476D02*
X145283162Y-118572095D01*
X145283162Y-118572095D02*
X145089638Y-118572095D01*
X145089638Y-118572095D02*
X144992876Y-118620476D01*
X144992876Y-118620476D02*
X144944495Y-118668857D01*
X144944495Y-118668857D02*
X144896114Y-118765619D01*
X144896114Y-118765619D02*
X144896114Y-119007524D01*
X144896114Y-119007524D02*
X144944495Y-119104286D01*
X144944495Y-119104286D02*
X144992876Y-119152667D01*
X144992876Y-119152667D02*
X145089638Y-119201048D01*
X145089638Y-119201048D02*
X145283162Y-119201048D01*
X145283162Y-119201048D02*
X145379924Y-119152667D01*
X145379924Y-119152667D02*
X145428305Y-119104286D01*
X145428305Y-119104286D02*
X145476686Y-119007524D01*
X152840267Y-80116495D02*
X152501600Y-79632686D01*
X152259695Y-80116495D02*
X152259695Y-79100495D01*
X152259695Y-79100495D02*
X152646743Y-79100495D01*
X152646743Y-79100495D02*
X152743505Y-79148876D01*
X152743505Y-79148876D02*
X152791886Y-79197257D01*
X152791886Y-79197257D02*
X152840267Y-79294019D01*
X152840267Y-79294019D02*
X152840267Y-79439162D01*
X152840267Y-79439162D02*
X152791886Y-79535924D01*
X152791886Y-79535924D02*
X152743505Y-79584305D01*
X152743505Y-79584305D02*
X152646743Y-79632686D01*
X152646743Y-79632686D02*
X152259695Y-79632686D01*
X153420838Y-79535924D02*
X153324076Y-79487543D01*
X153324076Y-79487543D02*
X153275695Y-79439162D01*
X153275695Y-79439162D02*
X153227314Y-79342400D01*
X153227314Y-79342400D02*
X153227314Y-79294019D01*
X153227314Y-79294019D02*
X153275695Y-79197257D01*
X153275695Y-79197257D02*
X153324076Y-79148876D01*
X153324076Y-79148876D02*
X153420838Y-79100495D01*
X153420838Y-79100495D02*
X153614362Y-79100495D01*
X153614362Y-79100495D02*
X153711124Y-79148876D01*
X153711124Y-79148876D02*
X153759505Y-79197257D01*
X153759505Y-79197257D02*
X153807886Y-79294019D01*
X153807886Y-79294019D02*
X153807886Y-79342400D01*
X153807886Y-79342400D02*
X153759505Y-79439162D01*
X153759505Y-79439162D02*
X153711124Y-79487543D01*
X153711124Y-79487543D02*
X153614362Y-79535924D01*
X153614362Y-79535924D02*
X153420838Y-79535924D01*
X153420838Y-79535924D02*
X153324076Y-79584305D01*
X153324076Y-79584305D02*
X153275695Y-79632686D01*
X153275695Y-79632686D02*
X153227314Y-79729448D01*
X153227314Y-79729448D02*
X153227314Y-79922972D01*
X153227314Y-79922972D02*
X153275695Y-80019734D01*
X153275695Y-80019734D02*
X153324076Y-80068115D01*
X153324076Y-80068115D02*
X153420838Y-80116495D01*
X153420838Y-80116495D02*
X153614362Y-80116495D01*
X153614362Y-80116495D02*
X153711124Y-80068115D01*
X153711124Y-80068115D02*
X153759505Y-80019734D01*
X153759505Y-80019734D02*
X153807886Y-79922972D01*
X153807886Y-79922972D02*
X153807886Y-79729448D01*
X153807886Y-79729448D02*
X153759505Y-79632686D01*
X153759505Y-79632686D02*
X153711124Y-79584305D01*
X153711124Y-79584305D02*
X153614362Y-79535924D01*
X181735790Y-95990286D02*
X181735790Y-96474095D01*
X181397123Y-95458095D02*
X181735790Y-95990286D01*
X181735790Y-95990286D02*
X182074457Y-95458095D01*
X182945314Y-96474095D02*
X182364742Y-96474095D01*
X182655028Y-96474095D02*
X182655028Y-95458095D01*
X182655028Y-95458095D02*
X182558266Y-95603238D01*
X182558266Y-95603238D02*
X182461504Y-95700000D01*
X182461504Y-95700000D02*
X182364742Y-95748381D01*
X147225657Y-112734934D02*
X147177276Y-112783315D01*
X147177276Y-112783315D02*
X147032133Y-112831695D01*
X147032133Y-112831695D02*
X146935371Y-112831695D01*
X146935371Y-112831695D02*
X146790228Y-112783315D01*
X146790228Y-112783315D02*
X146693466Y-112686553D01*
X146693466Y-112686553D02*
X146645085Y-112589791D01*
X146645085Y-112589791D02*
X146596704Y-112396267D01*
X146596704Y-112396267D02*
X146596704Y-112251124D01*
X146596704Y-112251124D02*
X146645085Y-112057600D01*
X146645085Y-112057600D02*
X146693466Y-111960838D01*
X146693466Y-111960838D02*
X146790228Y-111864076D01*
X146790228Y-111864076D02*
X146935371Y-111815695D01*
X146935371Y-111815695D02*
X147032133Y-111815695D01*
X147032133Y-111815695D02*
X147177276Y-111864076D01*
X147177276Y-111864076D02*
X147225657Y-111912457D01*
X148193276Y-112831695D02*
X147612704Y-112831695D01*
X147902990Y-112831695D02*
X147902990Y-111815695D01*
X147902990Y-111815695D02*
X147806228Y-111960838D01*
X147806228Y-111960838D02*
X147709466Y-112057600D01*
X147709466Y-112057600D02*
X147612704Y-112105981D01*
X148580323Y-111912457D02*
X148628704Y-111864076D01*
X148628704Y-111864076D02*
X148725466Y-111815695D01*
X148725466Y-111815695D02*
X148967371Y-111815695D01*
X148967371Y-111815695D02*
X149064133Y-111864076D01*
X149064133Y-111864076D02*
X149112514Y-111912457D01*
X149112514Y-111912457D02*
X149160895Y-112009219D01*
X149160895Y-112009219D02*
X149160895Y-112105981D01*
X149160895Y-112105981D02*
X149112514Y-112251124D01*
X149112514Y-112251124D02*
X148531942Y-112831695D01*
X148531942Y-112831695D02*
X149160895Y-112831695D01*
X152090357Y-109580495D02*
X151751690Y-109096686D01*
X151509785Y-109580495D02*
X151509785Y-108564495D01*
X151509785Y-108564495D02*
X151896833Y-108564495D01*
X151896833Y-108564495D02*
X151993595Y-108612876D01*
X151993595Y-108612876D02*
X152041976Y-108661257D01*
X152041976Y-108661257D02*
X152090357Y-108758019D01*
X152090357Y-108758019D02*
X152090357Y-108903162D01*
X152090357Y-108903162D02*
X152041976Y-108999924D01*
X152041976Y-108999924D02*
X151993595Y-109048305D01*
X151993595Y-109048305D02*
X151896833Y-109096686D01*
X151896833Y-109096686D02*
X151509785Y-109096686D01*
X152429023Y-108564495D02*
X153057976Y-108564495D01*
X153057976Y-108564495D02*
X152719309Y-108951543D01*
X152719309Y-108951543D02*
X152864452Y-108951543D01*
X152864452Y-108951543D02*
X152961214Y-108999924D01*
X152961214Y-108999924D02*
X153009595Y-109048305D01*
X153009595Y-109048305D02*
X153057976Y-109145067D01*
X153057976Y-109145067D02*
X153057976Y-109386972D01*
X153057976Y-109386972D02*
X153009595Y-109483734D01*
X153009595Y-109483734D02*
X152961214Y-109532115D01*
X152961214Y-109532115D02*
X152864452Y-109580495D01*
X152864452Y-109580495D02*
X152574166Y-109580495D01*
X152574166Y-109580495D02*
X152477404Y-109532115D01*
X152477404Y-109532115D02*
X152429023Y-109483734D01*
X153686928Y-108564495D02*
X153783690Y-108564495D01*
X153783690Y-108564495D02*
X153880452Y-108612876D01*
X153880452Y-108612876D02*
X153928833Y-108661257D01*
X153928833Y-108661257D02*
X153977214Y-108758019D01*
X153977214Y-108758019D02*
X154025595Y-108951543D01*
X154025595Y-108951543D02*
X154025595Y-109193448D01*
X154025595Y-109193448D02*
X153977214Y-109386972D01*
X153977214Y-109386972D02*
X153928833Y-109483734D01*
X153928833Y-109483734D02*
X153880452Y-109532115D01*
X153880452Y-109532115D02*
X153783690Y-109580495D01*
X153783690Y-109580495D02*
X153686928Y-109580495D01*
X153686928Y-109580495D02*
X153590166Y-109532115D01*
X153590166Y-109532115D02*
X153541785Y-109483734D01*
X153541785Y-109483734D02*
X153493404Y-109386972D01*
X153493404Y-109386972D02*
X153445023Y-109193448D01*
X153445023Y-109193448D02*
X153445023Y-108951543D01*
X153445023Y-108951543D02*
X153493404Y-108758019D01*
X153493404Y-108758019D02*
X153541785Y-108661257D01*
X153541785Y-108661257D02*
X153590166Y-108612876D01*
X153590166Y-108612876D02*
X153686928Y-108564495D01*
X182541333Y-73995095D02*
X182541333Y-74720810D01*
X182541333Y-74720810D02*
X182492952Y-74865953D01*
X182492952Y-74865953D02*
X182396190Y-74962715D01*
X182396190Y-74962715D02*
X182251047Y-75011095D01*
X182251047Y-75011095D02*
X182154285Y-75011095D01*
X183557333Y-75011095D02*
X182976761Y-75011095D01*
X183267047Y-75011095D02*
X183267047Y-73995095D01*
X183267047Y-73995095D02*
X183170285Y-74140238D01*
X183170285Y-74140238D02*
X183073523Y-74237000D01*
X183073523Y-74237000D02*
X182976761Y-74285381D01*
X183095295Y-100487295D02*
X183095295Y-99471295D01*
X183095295Y-99471295D02*
X183337200Y-99471295D01*
X183337200Y-99471295D02*
X183482343Y-99519676D01*
X183482343Y-99519676D02*
X183579105Y-99616438D01*
X183579105Y-99616438D02*
X183627486Y-99713200D01*
X183627486Y-99713200D02*
X183675867Y-99906724D01*
X183675867Y-99906724D02*
X183675867Y-100051867D01*
X183675867Y-100051867D02*
X183627486Y-100245391D01*
X183627486Y-100245391D02*
X183579105Y-100342153D01*
X183579105Y-100342153D02*
X183482343Y-100438915D01*
X183482343Y-100438915D02*
X183337200Y-100487295D01*
X183337200Y-100487295D02*
X183095295Y-100487295D01*
X184062914Y-99568057D02*
X184111295Y-99519676D01*
X184111295Y-99519676D02*
X184208057Y-99471295D01*
X184208057Y-99471295D02*
X184449962Y-99471295D01*
X184449962Y-99471295D02*
X184546724Y-99519676D01*
X184546724Y-99519676D02*
X184595105Y-99568057D01*
X184595105Y-99568057D02*
X184643486Y-99664819D01*
X184643486Y-99664819D02*
X184643486Y-99761581D01*
X184643486Y-99761581D02*
X184595105Y-99906724D01*
X184595105Y-99906724D02*
X184014533Y-100487295D01*
X184014533Y-100487295D02*
X184643486Y-100487295D01*
X186194895Y-109728095D02*
X187017372Y-109728095D01*
X187017372Y-109728095D02*
X187114134Y-109679714D01*
X187114134Y-109679714D02*
X187162515Y-109631333D01*
X187162515Y-109631333D02*
X187210895Y-109534571D01*
X187210895Y-109534571D02*
X187210895Y-109341047D01*
X187210895Y-109341047D02*
X187162515Y-109244285D01*
X187162515Y-109244285D02*
X187114134Y-109195904D01*
X187114134Y-109195904D02*
X187017372Y-109147523D01*
X187017372Y-109147523D02*
X186194895Y-109147523D01*
X186194895Y-108228285D02*
X186194895Y-108421809D01*
X186194895Y-108421809D02*
X186243276Y-108518571D01*
X186243276Y-108518571D02*
X186291657Y-108566952D01*
X186291657Y-108566952D02*
X186436800Y-108663714D01*
X186436800Y-108663714D02*
X186630324Y-108712095D01*
X186630324Y-108712095D02*
X187017372Y-108712095D01*
X187017372Y-108712095D02*
X187114134Y-108663714D01*
X187114134Y-108663714D02*
X187162515Y-108615333D01*
X187162515Y-108615333D02*
X187210895Y-108518571D01*
X187210895Y-108518571D02*
X187210895Y-108325047D01*
X187210895Y-108325047D02*
X187162515Y-108228285D01*
X187162515Y-108228285D02*
X187114134Y-108179904D01*
X187114134Y-108179904D02*
X187017372Y-108131523D01*
X187017372Y-108131523D02*
X186775467Y-108131523D01*
X186775467Y-108131523D02*
X186678705Y-108179904D01*
X186678705Y-108179904D02*
X186630324Y-108228285D01*
X186630324Y-108228285D02*
X186581943Y-108325047D01*
X186581943Y-108325047D02*
X186581943Y-108518571D01*
X186581943Y-108518571D02*
X186630324Y-108615333D01*
X186630324Y-108615333D02*
X186678705Y-108663714D01*
X186678705Y-108663714D02*
X186775467Y-108712095D01*
X175673657Y-93075334D02*
X175625276Y-93123715D01*
X175625276Y-93123715D02*
X175480133Y-93172095D01*
X175480133Y-93172095D02*
X175383371Y-93172095D01*
X175383371Y-93172095D02*
X175238228Y-93123715D01*
X175238228Y-93123715D02*
X175141466Y-93026953D01*
X175141466Y-93026953D02*
X175093085Y-92930191D01*
X175093085Y-92930191D02*
X175044704Y-92736667D01*
X175044704Y-92736667D02*
X175044704Y-92591524D01*
X175044704Y-92591524D02*
X175093085Y-92398000D01*
X175093085Y-92398000D02*
X175141466Y-92301238D01*
X175141466Y-92301238D02*
X175238228Y-92204476D01*
X175238228Y-92204476D02*
X175383371Y-92156095D01*
X175383371Y-92156095D02*
X175480133Y-92156095D01*
X175480133Y-92156095D02*
X175625276Y-92204476D01*
X175625276Y-92204476D02*
X175673657Y-92252857D01*
X176012323Y-92156095D02*
X176641276Y-92156095D01*
X176641276Y-92156095D02*
X176302609Y-92543143D01*
X176302609Y-92543143D02*
X176447752Y-92543143D01*
X176447752Y-92543143D02*
X176544514Y-92591524D01*
X176544514Y-92591524D02*
X176592895Y-92639905D01*
X176592895Y-92639905D02*
X176641276Y-92736667D01*
X176641276Y-92736667D02*
X176641276Y-92978572D01*
X176641276Y-92978572D02*
X176592895Y-93075334D01*
X176592895Y-93075334D02*
X176544514Y-93123715D01*
X176544514Y-93123715D02*
X176447752Y-93172095D01*
X176447752Y-93172095D02*
X176157466Y-93172095D01*
X176157466Y-93172095D02*
X176060704Y-93123715D01*
X176060704Y-93123715D02*
X176012323Y-93075334D01*
X177028323Y-92252857D02*
X177076704Y-92204476D01*
X177076704Y-92204476D02*
X177173466Y-92156095D01*
X177173466Y-92156095D02*
X177415371Y-92156095D01*
X177415371Y-92156095D02*
X177512133Y-92204476D01*
X177512133Y-92204476D02*
X177560514Y-92252857D01*
X177560514Y-92252857D02*
X177608895Y-92349619D01*
X177608895Y-92349619D02*
X177608895Y-92446381D01*
X177608895Y-92446381D02*
X177560514Y-92591524D01*
X177560514Y-92591524D02*
X176979942Y-93172095D01*
X176979942Y-93172095D02*
X177608895Y-93172095D01*
X151121857Y-73687095D02*
X150783190Y-73203286D01*
X150541285Y-73687095D02*
X150541285Y-72671095D01*
X150541285Y-72671095D02*
X150928333Y-72671095D01*
X150928333Y-72671095D02*
X151025095Y-72719476D01*
X151025095Y-72719476D02*
X151073476Y-72767857D01*
X151073476Y-72767857D02*
X151121857Y-72864619D01*
X151121857Y-72864619D02*
X151121857Y-73009762D01*
X151121857Y-73009762D02*
X151073476Y-73106524D01*
X151073476Y-73106524D02*
X151025095Y-73154905D01*
X151025095Y-73154905D02*
X150928333Y-73203286D01*
X150928333Y-73203286D02*
X150541285Y-73203286D01*
X151508904Y-72767857D02*
X151557285Y-72719476D01*
X151557285Y-72719476D02*
X151654047Y-72671095D01*
X151654047Y-72671095D02*
X151895952Y-72671095D01*
X151895952Y-72671095D02*
X151992714Y-72719476D01*
X151992714Y-72719476D02*
X152041095Y-72767857D01*
X152041095Y-72767857D02*
X152089476Y-72864619D01*
X152089476Y-72864619D02*
X152089476Y-72961381D01*
X152089476Y-72961381D02*
X152041095Y-73106524D01*
X152041095Y-73106524D02*
X151460523Y-73687095D01*
X151460523Y-73687095D02*
X152089476Y-73687095D01*
X152960333Y-72671095D02*
X152766809Y-72671095D01*
X152766809Y-72671095D02*
X152670047Y-72719476D01*
X152670047Y-72719476D02*
X152621666Y-72767857D01*
X152621666Y-72767857D02*
X152524904Y-72913000D01*
X152524904Y-72913000D02*
X152476523Y-73106524D01*
X152476523Y-73106524D02*
X152476523Y-73493572D01*
X152476523Y-73493572D02*
X152524904Y-73590334D01*
X152524904Y-73590334D02*
X152573285Y-73638715D01*
X152573285Y-73638715D02*
X152670047Y-73687095D01*
X152670047Y-73687095D02*
X152863571Y-73687095D01*
X152863571Y-73687095D02*
X152960333Y-73638715D01*
X152960333Y-73638715D02*
X153008714Y-73590334D01*
X153008714Y-73590334D02*
X153057095Y-73493572D01*
X153057095Y-73493572D02*
X153057095Y-73251667D01*
X153057095Y-73251667D02*
X153008714Y-73154905D01*
X153008714Y-73154905D02*
X152960333Y-73106524D01*
X152960333Y-73106524D02*
X152863571Y-73058143D01*
X152863571Y-73058143D02*
X152670047Y-73058143D01*
X152670047Y-73058143D02*
X152573285Y-73106524D01*
X152573285Y-73106524D02*
X152524904Y-73154905D01*
X152524904Y-73154905D02*
X152476523Y-73251667D01*
X149410057Y-119567534D02*
X149361676Y-119615915D01*
X149361676Y-119615915D02*
X149216533Y-119664295D01*
X149216533Y-119664295D02*
X149119771Y-119664295D01*
X149119771Y-119664295D02*
X148974628Y-119615915D01*
X148974628Y-119615915D02*
X148877866Y-119519153D01*
X148877866Y-119519153D02*
X148829485Y-119422391D01*
X148829485Y-119422391D02*
X148781104Y-119228867D01*
X148781104Y-119228867D02*
X148781104Y-119083724D01*
X148781104Y-119083724D02*
X148829485Y-118890200D01*
X148829485Y-118890200D02*
X148877866Y-118793438D01*
X148877866Y-118793438D02*
X148974628Y-118696676D01*
X148974628Y-118696676D02*
X149119771Y-118648295D01*
X149119771Y-118648295D02*
X149216533Y-118648295D01*
X149216533Y-118648295D02*
X149361676Y-118696676D01*
X149361676Y-118696676D02*
X149410057Y-118745057D01*
X150377676Y-119664295D02*
X149797104Y-119664295D01*
X150087390Y-119664295D02*
X150087390Y-118648295D01*
X150087390Y-118648295D02*
X149990628Y-118793438D01*
X149990628Y-118793438D02*
X149893866Y-118890200D01*
X149893866Y-118890200D02*
X149797104Y-118938581D01*
X151006628Y-118648295D02*
X151103390Y-118648295D01*
X151103390Y-118648295D02*
X151200152Y-118696676D01*
X151200152Y-118696676D02*
X151248533Y-118745057D01*
X151248533Y-118745057D02*
X151296914Y-118841819D01*
X151296914Y-118841819D02*
X151345295Y-119035343D01*
X151345295Y-119035343D02*
X151345295Y-119277248D01*
X151345295Y-119277248D02*
X151296914Y-119470772D01*
X151296914Y-119470772D02*
X151248533Y-119567534D01*
X151248533Y-119567534D02*
X151200152Y-119615915D01*
X151200152Y-119615915D02*
X151103390Y-119664295D01*
X151103390Y-119664295D02*
X151006628Y-119664295D01*
X151006628Y-119664295D02*
X150909866Y-119615915D01*
X150909866Y-119615915D02*
X150861485Y-119567534D01*
X150861485Y-119567534D02*
X150813104Y-119470772D01*
X150813104Y-119470772D02*
X150764723Y-119277248D01*
X150764723Y-119277248D02*
X150764723Y-119035343D01*
X150764723Y-119035343D02*
X150813104Y-118841819D01*
X150813104Y-118841819D02*
X150861485Y-118745057D01*
X150861485Y-118745057D02*
X150909866Y-118696676D01*
X150909866Y-118696676D02*
X151006628Y-118648295D01*
X152000857Y-76204895D02*
X151662190Y-75721086D01*
X151420285Y-76204895D02*
X151420285Y-75188895D01*
X151420285Y-75188895D02*
X151807333Y-75188895D01*
X151807333Y-75188895D02*
X151904095Y-75237276D01*
X151904095Y-75237276D02*
X151952476Y-75285657D01*
X151952476Y-75285657D02*
X152000857Y-75382419D01*
X152000857Y-75382419D02*
X152000857Y-75527562D01*
X152000857Y-75527562D02*
X151952476Y-75624324D01*
X151952476Y-75624324D02*
X151904095Y-75672705D01*
X151904095Y-75672705D02*
X151807333Y-75721086D01*
X151807333Y-75721086D02*
X151420285Y-75721086D01*
X152968476Y-76204895D02*
X152387904Y-76204895D01*
X152678190Y-76204895D02*
X152678190Y-75188895D01*
X152678190Y-75188895D02*
X152581428Y-75334038D01*
X152581428Y-75334038D02*
X152484666Y-75430800D01*
X152484666Y-75430800D02*
X152387904Y-75479181D01*
X153597428Y-75188895D02*
X153694190Y-75188895D01*
X153694190Y-75188895D02*
X153790952Y-75237276D01*
X153790952Y-75237276D02*
X153839333Y-75285657D01*
X153839333Y-75285657D02*
X153887714Y-75382419D01*
X153887714Y-75382419D02*
X153936095Y-75575943D01*
X153936095Y-75575943D02*
X153936095Y-75817848D01*
X153936095Y-75817848D02*
X153887714Y-76011372D01*
X153887714Y-76011372D02*
X153839333Y-76108134D01*
X153839333Y-76108134D02*
X153790952Y-76156515D01*
X153790952Y-76156515D02*
X153694190Y-76204895D01*
X153694190Y-76204895D02*
X153597428Y-76204895D01*
X153597428Y-76204895D02*
X153500666Y-76156515D01*
X153500666Y-76156515D02*
X153452285Y-76108134D01*
X153452285Y-76108134D02*
X153403904Y-76011372D01*
X153403904Y-76011372D02*
X153355523Y-75817848D01*
X153355523Y-75817848D02*
X153355523Y-75575943D01*
X153355523Y-75575943D02*
X153403904Y-75382419D01*
X153403904Y-75382419D02*
X153452285Y-75285657D01*
X153452285Y-75285657D02*
X153500666Y-75237276D01*
X153500666Y-75237276D02*
X153597428Y-75188895D01*
X152891067Y-77525695D02*
X152552400Y-77041886D01*
X152310495Y-77525695D02*
X152310495Y-76509695D01*
X152310495Y-76509695D02*
X152697543Y-76509695D01*
X152697543Y-76509695D02*
X152794305Y-76558076D01*
X152794305Y-76558076D02*
X152842686Y-76606457D01*
X152842686Y-76606457D02*
X152891067Y-76703219D01*
X152891067Y-76703219D02*
X152891067Y-76848362D01*
X152891067Y-76848362D02*
X152842686Y-76945124D01*
X152842686Y-76945124D02*
X152794305Y-76993505D01*
X152794305Y-76993505D02*
X152697543Y-77041886D01*
X152697543Y-77041886D02*
X152310495Y-77041886D01*
X153761924Y-76509695D02*
X153568400Y-76509695D01*
X153568400Y-76509695D02*
X153471638Y-76558076D01*
X153471638Y-76558076D02*
X153423257Y-76606457D01*
X153423257Y-76606457D02*
X153326495Y-76751600D01*
X153326495Y-76751600D02*
X153278114Y-76945124D01*
X153278114Y-76945124D02*
X153278114Y-77332172D01*
X153278114Y-77332172D02*
X153326495Y-77428934D01*
X153326495Y-77428934D02*
X153374876Y-77477315D01*
X153374876Y-77477315D02*
X153471638Y-77525695D01*
X153471638Y-77525695D02*
X153665162Y-77525695D01*
X153665162Y-77525695D02*
X153761924Y-77477315D01*
X153761924Y-77477315D02*
X153810305Y-77428934D01*
X153810305Y-77428934D02*
X153858686Y-77332172D01*
X153858686Y-77332172D02*
X153858686Y-77090267D01*
X153858686Y-77090267D02*
X153810305Y-76993505D01*
X153810305Y-76993505D02*
X153761924Y-76945124D01*
X153761924Y-76945124D02*
X153665162Y-76896743D01*
X153665162Y-76896743D02*
X153471638Y-76896743D01*
X153471638Y-76896743D02*
X153374876Y-76945124D01*
X153374876Y-76945124D02*
X153326495Y-76993505D01*
X153326495Y-76993505D02*
X153278114Y-77090267D01*
X186544857Y-82046895D02*
X186206190Y-81563086D01*
X185964285Y-82046895D02*
X185964285Y-81030895D01*
X185964285Y-81030895D02*
X186351333Y-81030895D01*
X186351333Y-81030895D02*
X186448095Y-81079276D01*
X186448095Y-81079276D02*
X186496476Y-81127657D01*
X186496476Y-81127657D02*
X186544857Y-81224419D01*
X186544857Y-81224419D02*
X186544857Y-81369562D01*
X186544857Y-81369562D02*
X186496476Y-81466324D01*
X186496476Y-81466324D02*
X186448095Y-81514705D01*
X186448095Y-81514705D02*
X186351333Y-81563086D01*
X186351333Y-81563086D02*
X185964285Y-81563086D01*
X187512476Y-82046895D02*
X186931904Y-82046895D01*
X187222190Y-82046895D02*
X187222190Y-81030895D01*
X187222190Y-81030895D02*
X187125428Y-81176038D01*
X187125428Y-81176038D02*
X187028666Y-81272800D01*
X187028666Y-81272800D02*
X186931904Y-81321181D01*
X187996285Y-82046895D02*
X188189809Y-82046895D01*
X188189809Y-82046895D02*
X188286571Y-81998515D01*
X188286571Y-81998515D02*
X188334952Y-81950134D01*
X188334952Y-81950134D02*
X188431714Y-81804991D01*
X188431714Y-81804991D02*
X188480095Y-81611467D01*
X188480095Y-81611467D02*
X188480095Y-81224419D01*
X188480095Y-81224419D02*
X188431714Y-81127657D01*
X188431714Y-81127657D02*
X188383333Y-81079276D01*
X188383333Y-81079276D02*
X188286571Y-81030895D01*
X188286571Y-81030895D02*
X188093047Y-81030895D01*
X188093047Y-81030895D02*
X187996285Y-81079276D01*
X187996285Y-81079276D02*
X187947904Y-81127657D01*
X187947904Y-81127657D02*
X187899523Y-81224419D01*
X187899523Y-81224419D02*
X187899523Y-81466324D01*
X187899523Y-81466324D02*
X187947904Y-81563086D01*
X187947904Y-81563086D02*
X187996285Y-81611467D01*
X187996285Y-81611467D02*
X188093047Y-81659848D01*
X188093047Y-81659848D02*
X188286571Y-81659848D01*
X188286571Y-81659848D02*
X188383333Y-81611467D01*
X188383333Y-81611467D02*
X188431714Y-81563086D01*
X188431714Y-81563086D02*
X188480095Y-81466324D01*
X179960334Y-94328342D02*
X180008715Y-94376723D01*
X180008715Y-94376723D02*
X180057095Y-94521866D01*
X180057095Y-94521866D02*
X180057095Y-94618628D01*
X180057095Y-94618628D02*
X180008715Y-94763771D01*
X180008715Y-94763771D02*
X179911953Y-94860533D01*
X179911953Y-94860533D02*
X179815191Y-94908914D01*
X179815191Y-94908914D02*
X179621667Y-94957295D01*
X179621667Y-94957295D02*
X179476524Y-94957295D01*
X179476524Y-94957295D02*
X179283000Y-94908914D01*
X179283000Y-94908914D02*
X179186238Y-94860533D01*
X179186238Y-94860533D02*
X179089476Y-94763771D01*
X179089476Y-94763771D02*
X179041095Y-94618628D01*
X179041095Y-94618628D02*
X179041095Y-94521866D01*
X179041095Y-94521866D02*
X179089476Y-94376723D01*
X179089476Y-94376723D02*
X179137857Y-94328342D01*
X179041095Y-93989676D02*
X179041095Y-93360723D01*
X179041095Y-93360723D02*
X179428143Y-93699390D01*
X179428143Y-93699390D02*
X179428143Y-93554247D01*
X179428143Y-93554247D02*
X179476524Y-93457485D01*
X179476524Y-93457485D02*
X179524905Y-93409104D01*
X179524905Y-93409104D02*
X179621667Y-93360723D01*
X179621667Y-93360723D02*
X179863572Y-93360723D01*
X179863572Y-93360723D02*
X179960334Y-93409104D01*
X179960334Y-93409104D02*
X180008715Y-93457485D01*
X180008715Y-93457485D02*
X180057095Y-93554247D01*
X180057095Y-93554247D02*
X180057095Y-93844533D01*
X180057095Y-93844533D02*
X180008715Y-93941295D01*
X180008715Y-93941295D02*
X179960334Y-93989676D01*
X179476524Y-92780152D02*
X179428143Y-92876914D01*
X179428143Y-92876914D02*
X179379762Y-92925295D01*
X179379762Y-92925295D02*
X179283000Y-92973676D01*
X179283000Y-92973676D02*
X179234619Y-92973676D01*
X179234619Y-92973676D02*
X179137857Y-92925295D01*
X179137857Y-92925295D02*
X179089476Y-92876914D01*
X179089476Y-92876914D02*
X179041095Y-92780152D01*
X179041095Y-92780152D02*
X179041095Y-92586628D01*
X179041095Y-92586628D02*
X179089476Y-92489866D01*
X179089476Y-92489866D02*
X179137857Y-92441485D01*
X179137857Y-92441485D02*
X179234619Y-92393104D01*
X179234619Y-92393104D02*
X179283000Y-92393104D01*
X179283000Y-92393104D02*
X179379762Y-92441485D01*
X179379762Y-92441485D02*
X179428143Y-92489866D01*
X179428143Y-92489866D02*
X179476524Y-92586628D01*
X179476524Y-92586628D02*
X179476524Y-92780152D01*
X179476524Y-92780152D02*
X179524905Y-92876914D01*
X179524905Y-92876914D02*
X179573286Y-92925295D01*
X179573286Y-92925295D02*
X179670048Y-92973676D01*
X179670048Y-92973676D02*
X179863572Y-92973676D01*
X179863572Y-92973676D02*
X179960334Y-92925295D01*
X179960334Y-92925295D02*
X180008715Y-92876914D01*
X180008715Y-92876914D02*
X180057095Y-92780152D01*
X180057095Y-92780152D02*
X180057095Y-92586628D01*
X180057095Y-92586628D02*
X180008715Y-92489866D01*
X180008715Y-92489866D02*
X179960334Y-92441485D01*
X179960334Y-92441485D02*
X179863572Y-92393104D01*
X179863572Y-92393104D02*
X179670048Y-92393104D01*
X179670048Y-92393104D02*
X179573286Y-92441485D01*
X179573286Y-92441485D02*
X179524905Y-92489866D01*
X179524905Y-92489866D02*
X179476524Y-92586628D01*
X180601257Y-112679295D02*
X180262590Y-112195486D01*
X180020685Y-112679295D02*
X180020685Y-111663295D01*
X180020685Y-111663295D02*
X180407733Y-111663295D01*
X180407733Y-111663295D02*
X180504495Y-111711676D01*
X180504495Y-111711676D02*
X180552876Y-111760057D01*
X180552876Y-111760057D02*
X180601257Y-111856819D01*
X180601257Y-111856819D02*
X180601257Y-112001962D01*
X180601257Y-112001962D02*
X180552876Y-112098724D01*
X180552876Y-112098724D02*
X180504495Y-112147105D01*
X180504495Y-112147105D02*
X180407733Y-112195486D01*
X180407733Y-112195486D02*
X180020685Y-112195486D01*
X181568876Y-112679295D02*
X180988304Y-112679295D01*
X181278590Y-112679295D02*
X181278590Y-111663295D01*
X181278590Y-111663295D02*
X181181828Y-111808438D01*
X181181828Y-111808438D02*
X181085066Y-111905200D01*
X181085066Y-111905200D02*
X180988304Y-111953581D01*
X181907542Y-111663295D02*
X182584876Y-111663295D01*
X182584876Y-111663295D02*
X182149447Y-112679295D01*
X145221857Y-73662095D02*
X144883190Y-73178286D01*
X144641285Y-73662095D02*
X144641285Y-72646095D01*
X144641285Y-72646095D02*
X145028333Y-72646095D01*
X145028333Y-72646095D02*
X145125095Y-72694476D01*
X145125095Y-72694476D02*
X145173476Y-72742857D01*
X145173476Y-72742857D02*
X145221857Y-72839619D01*
X145221857Y-72839619D02*
X145221857Y-72984762D01*
X145221857Y-72984762D02*
X145173476Y-73081524D01*
X145173476Y-73081524D02*
X145125095Y-73129905D01*
X145125095Y-73129905D02*
X145028333Y-73178286D01*
X145028333Y-73178286D02*
X144641285Y-73178286D01*
X145608904Y-72742857D02*
X145657285Y-72694476D01*
X145657285Y-72694476D02*
X145754047Y-72646095D01*
X145754047Y-72646095D02*
X145995952Y-72646095D01*
X145995952Y-72646095D02*
X146092714Y-72694476D01*
X146092714Y-72694476D02*
X146141095Y-72742857D01*
X146141095Y-72742857D02*
X146189476Y-72839619D01*
X146189476Y-72839619D02*
X146189476Y-72936381D01*
X146189476Y-72936381D02*
X146141095Y-73081524D01*
X146141095Y-73081524D02*
X145560523Y-73662095D01*
X145560523Y-73662095D02*
X146189476Y-73662095D01*
X146528142Y-72646095D02*
X147205476Y-72646095D01*
X147205476Y-72646095D02*
X146770047Y-73662095D01*
X185986057Y-90433734D02*
X185937676Y-90482115D01*
X185937676Y-90482115D02*
X185792533Y-90530495D01*
X185792533Y-90530495D02*
X185695771Y-90530495D01*
X185695771Y-90530495D02*
X185550628Y-90482115D01*
X185550628Y-90482115D02*
X185453866Y-90385353D01*
X185453866Y-90385353D02*
X185405485Y-90288591D01*
X185405485Y-90288591D02*
X185357104Y-90095067D01*
X185357104Y-90095067D02*
X185357104Y-89949924D01*
X185357104Y-89949924D02*
X185405485Y-89756400D01*
X185405485Y-89756400D02*
X185453866Y-89659638D01*
X185453866Y-89659638D02*
X185550628Y-89562876D01*
X185550628Y-89562876D02*
X185695771Y-89514495D01*
X185695771Y-89514495D02*
X185792533Y-89514495D01*
X185792533Y-89514495D02*
X185937676Y-89562876D01*
X185937676Y-89562876D02*
X185986057Y-89611257D01*
X186856914Y-89514495D02*
X186663390Y-89514495D01*
X186663390Y-89514495D02*
X186566628Y-89562876D01*
X186566628Y-89562876D02*
X186518247Y-89611257D01*
X186518247Y-89611257D02*
X186421485Y-89756400D01*
X186421485Y-89756400D02*
X186373104Y-89949924D01*
X186373104Y-89949924D02*
X186373104Y-90336972D01*
X186373104Y-90336972D02*
X186421485Y-90433734D01*
X186421485Y-90433734D02*
X186469866Y-90482115D01*
X186469866Y-90482115D02*
X186566628Y-90530495D01*
X186566628Y-90530495D02*
X186760152Y-90530495D01*
X186760152Y-90530495D02*
X186856914Y-90482115D01*
X186856914Y-90482115D02*
X186905295Y-90433734D01*
X186905295Y-90433734D02*
X186953676Y-90336972D01*
X186953676Y-90336972D02*
X186953676Y-90095067D01*
X186953676Y-90095067D02*
X186905295Y-89998305D01*
X186905295Y-89998305D02*
X186856914Y-89949924D01*
X186856914Y-89949924D02*
X186760152Y-89901543D01*
X186760152Y-89901543D02*
X186566628Y-89901543D01*
X186566628Y-89901543D02*
X186469866Y-89949924D01*
X186469866Y-89949924D02*
X186421485Y-89998305D01*
X186421485Y-89998305D02*
X186373104Y-90095067D01*
X187340723Y-89611257D02*
X187389104Y-89562876D01*
X187389104Y-89562876D02*
X187485866Y-89514495D01*
X187485866Y-89514495D02*
X187727771Y-89514495D01*
X187727771Y-89514495D02*
X187824533Y-89562876D01*
X187824533Y-89562876D02*
X187872914Y-89611257D01*
X187872914Y-89611257D02*
X187921295Y-89708019D01*
X187921295Y-89708019D02*
X187921295Y-89804781D01*
X187921295Y-89804781D02*
X187872914Y-89949924D01*
X187872914Y-89949924D02*
X187292342Y-90530495D01*
X187292342Y-90530495D02*
X187921295Y-90530495D01*
X142294595Y-115886895D02*
X143117072Y-115886895D01*
X143117072Y-115886895D02*
X143213834Y-115838514D01*
X143213834Y-115838514D02*
X143262215Y-115790133D01*
X143262215Y-115790133D02*
X143310595Y-115693371D01*
X143310595Y-115693371D02*
X143310595Y-115499847D01*
X143310595Y-115499847D02*
X143262215Y-115403085D01*
X143262215Y-115403085D02*
X143213834Y-115354704D01*
X143213834Y-115354704D02*
X143117072Y-115306323D01*
X143117072Y-115306323D02*
X142294595Y-115306323D01*
X142633262Y-114387085D02*
X143310595Y-114387085D01*
X142246215Y-114628990D02*
X142971929Y-114870895D01*
X142971929Y-114870895D02*
X142971929Y-114241942D01*
X152870904Y-101071095D02*
X152870904Y-101893572D01*
X152870904Y-101893572D02*
X152919285Y-101990334D01*
X152919285Y-101990334D02*
X152967666Y-102038715D01*
X152967666Y-102038715D02*
X153064428Y-102087095D01*
X153064428Y-102087095D02*
X153257952Y-102087095D01*
X153257952Y-102087095D02*
X153354714Y-102038715D01*
X153354714Y-102038715D02*
X153403095Y-101990334D01*
X153403095Y-101990334D02*
X153451476Y-101893572D01*
X153451476Y-101893572D02*
X153451476Y-101071095D01*
X154467476Y-102087095D02*
X153886904Y-102087095D01*
X154177190Y-102087095D02*
X154177190Y-101071095D01*
X154177190Y-101071095D02*
X154080428Y-101216238D01*
X154080428Y-101216238D02*
X153983666Y-101313000D01*
X153983666Y-101313000D02*
X153886904Y-101361381D01*
X152941867Y-78846495D02*
X152603200Y-78362686D01*
X152361295Y-78846495D02*
X152361295Y-77830495D01*
X152361295Y-77830495D02*
X152748343Y-77830495D01*
X152748343Y-77830495D02*
X152845105Y-77878876D01*
X152845105Y-77878876D02*
X152893486Y-77927257D01*
X152893486Y-77927257D02*
X152941867Y-78024019D01*
X152941867Y-78024019D02*
X152941867Y-78169162D01*
X152941867Y-78169162D02*
X152893486Y-78265924D01*
X152893486Y-78265924D02*
X152845105Y-78314305D01*
X152845105Y-78314305D02*
X152748343Y-78362686D01*
X152748343Y-78362686D02*
X152361295Y-78362686D01*
X153425676Y-78846495D02*
X153619200Y-78846495D01*
X153619200Y-78846495D02*
X153715962Y-78798115D01*
X153715962Y-78798115D02*
X153764343Y-78749734D01*
X153764343Y-78749734D02*
X153861105Y-78604591D01*
X153861105Y-78604591D02*
X153909486Y-78411067D01*
X153909486Y-78411067D02*
X153909486Y-78024019D01*
X153909486Y-78024019D02*
X153861105Y-77927257D01*
X153861105Y-77927257D02*
X153812724Y-77878876D01*
X153812724Y-77878876D02*
X153715962Y-77830495D01*
X153715962Y-77830495D02*
X153522438Y-77830495D01*
X153522438Y-77830495D02*
X153425676Y-77878876D01*
X153425676Y-77878876D02*
X153377295Y-77927257D01*
X153377295Y-77927257D02*
X153328914Y-78024019D01*
X153328914Y-78024019D02*
X153328914Y-78265924D01*
X153328914Y-78265924D02*
X153377295Y-78362686D01*
X153377295Y-78362686D02*
X153425676Y-78411067D01*
X153425676Y-78411067D02*
X153522438Y-78459448D01*
X153522438Y-78459448D02*
X153715962Y-78459448D01*
X153715962Y-78459448D02*
X153812724Y-78411067D01*
X153812724Y-78411067D02*
X153861105Y-78362686D01*
X153861105Y-78362686D02*
X153909486Y-78265924D01*
X179196857Y-84007534D02*
X179148476Y-84055915D01*
X179148476Y-84055915D02*
X179003333Y-84104295D01*
X179003333Y-84104295D02*
X178906571Y-84104295D01*
X178906571Y-84104295D02*
X178761428Y-84055915D01*
X178761428Y-84055915D02*
X178664666Y-83959153D01*
X178664666Y-83959153D02*
X178616285Y-83862391D01*
X178616285Y-83862391D02*
X178567904Y-83668867D01*
X178567904Y-83668867D02*
X178567904Y-83523724D01*
X178567904Y-83523724D02*
X178616285Y-83330200D01*
X178616285Y-83330200D02*
X178664666Y-83233438D01*
X178664666Y-83233438D02*
X178761428Y-83136676D01*
X178761428Y-83136676D02*
X178906571Y-83088295D01*
X178906571Y-83088295D02*
X179003333Y-83088295D01*
X179003333Y-83088295D02*
X179148476Y-83136676D01*
X179148476Y-83136676D02*
X179196857Y-83185057D01*
X180116095Y-83088295D02*
X179632285Y-83088295D01*
X179632285Y-83088295D02*
X179583904Y-83572105D01*
X179583904Y-83572105D02*
X179632285Y-83523724D01*
X179632285Y-83523724D02*
X179729047Y-83475343D01*
X179729047Y-83475343D02*
X179970952Y-83475343D01*
X179970952Y-83475343D02*
X180067714Y-83523724D01*
X180067714Y-83523724D02*
X180116095Y-83572105D01*
X180116095Y-83572105D02*
X180164476Y-83668867D01*
X180164476Y-83668867D02*
X180164476Y-83910772D01*
X180164476Y-83910772D02*
X180116095Y-84007534D01*
X180116095Y-84007534D02*
X180067714Y-84055915D01*
X180067714Y-84055915D02*
X179970952Y-84104295D01*
X179970952Y-84104295D02*
X179729047Y-84104295D01*
X179729047Y-84104295D02*
X179632285Y-84055915D01*
X179632285Y-84055915D02*
X179583904Y-84007534D01*
X180551523Y-83185057D02*
X180599904Y-83136676D01*
X180599904Y-83136676D02*
X180696666Y-83088295D01*
X180696666Y-83088295D02*
X180938571Y-83088295D01*
X180938571Y-83088295D02*
X181035333Y-83136676D01*
X181035333Y-83136676D02*
X181083714Y-83185057D01*
X181083714Y-83185057D02*
X181132095Y-83281819D01*
X181132095Y-83281819D02*
X181132095Y-83378581D01*
X181132095Y-83378581D02*
X181083714Y-83523724D01*
X181083714Y-83523724D02*
X180503142Y-84104295D01*
X180503142Y-84104295D02*
X181132095Y-84104295D01*
X151848457Y-81386495D02*
X151509790Y-80902686D01*
X151267885Y-81386495D02*
X151267885Y-80370495D01*
X151267885Y-80370495D02*
X151654933Y-80370495D01*
X151654933Y-80370495D02*
X151751695Y-80418876D01*
X151751695Y-80418876D02*
X151800076Y-80467257D01*
X151800076Y-80467257D02*
X151848457Y-80564019D01*
X151848457Y-80564019D02*
X151848457Y-80709162D01*
X151848457Y-80709162D02*
X151800076Y-80805924D01*
X151800076Y-80805924D02*
X151751695Y-80854305D01*
X151751695Y-80854305D02*
X151654933Y-80902686D01*
X151654933Y-80902686D02*
X151267885Y-80902686D01*
X152816076Y-81386495D02*
X152235504Y-81386495D01*
X152525790Y-81386495D02*
X152525790Y-80370495D01*
X152525790Y-80370495D02*
X152429028Y-80515638D01*
X152429028Y-80515638D02*
X152332266Y-80612400D01*
X152332266Y-80612400D02*
X152235504Y-80660781D01*
X153686933Y-80709162D02*
X153686933Y-81386495D01*
X153445028Y-80322115D02*
X153203123Y-81047829D01*
X153203123Y-81047829D02*
X153832076Y-81047829D01*
X186290857Y-112760334D02*
X186242476Y-112808715D01*
X186242476Y-112808715D02*
X186097333Y-112857095D01*
X186097333Y-112857095D02*
X186000571Y-112857095D01*
X186000571Y-112857095D02*
X185855428Y-112808715D01*
X185855428Y-112808715D02*
X185758666Y-112711953D01*
X185758666Y-112711953D02*
X185710285Y-112615191D01*
X185710285Y-112615191D02*
X185661904Y-112421667D01*
X185661904Y-112421667D02*
X185661904Y-112276524D01*
X185661904Y-112276524D02*
X185710285Y-112083000D01*
X185710285Y-112083000D02*
X185758666Y-111986238D01*
X185758666Y-111986238D02*
X185855428Y-111889476D01*
X185855428Y-111889476D02*
X186000571Y-111841095D01*
X186000571Y-111841095D02*
X186097333Y-111841095D01*
X186097333Y-111841095D02*
X186242476Y-111889476D01*
X186242476Y-111889476D02*
X186290857Y-111937857D01*
X187258476Y-112857095D02*
X186677904Y-112857095D01*
X186968190Y-112857095D02*
X186968190Y-111841095D01*
X186968190Y-111841095D02*
X186871428Y-111986238D01*
X186871428Y-111986238D02*
X186774666Y-112083000D01*
X186774666Y-112083000D02*
X186677904Y-112131381D01*
X188129333Y-111841095D02*
X187935809Y-111841095D01*
X187935809Y-111841095D02*
X187839047Y-111889476D01*
X187839047Y-111889476D02*
X187790666Y-111937857D01*
X187790666Y-111937857D02*
X187693904Y-112083000D01*
X187693904Y-112083000D02*
X187645523Y-112276524D01*
X187645523Y-112276524D02*
X187645523Y-112663572D01*
X187645523Y-112663572D02*
X187693904Y-112760334D01*
X187693904Y-112760334D02*
X187742285Y-112808715D01*
X187742285Y-112808715D02*
X187839047Y-112857095D01*
X187839047Y-112857095D02*
X188032571Y-112857095D01*
X188032571Y-112857095D02*
X188129333Y-112808715D01*
X188129333Y-112808715D02*
X188177714Y-112760334D01*
X188177714Y-112760334D02*
X188226095Y-112663572D01*
X188226095Y-112663572D02*
X188226095Y-112421667D01*
X188226095Y-112421667D02*
X188177714Y-112324905D01*
X188177714Y-112324905D02*
X188129333Y-112276524D01*
X188129333Y-112276524D02*
X188032571Y-112228143D01*
X188032571Y-112228143D02*
X187839047Y-112228143D01*
X187839047Y-112228143D02*
X187742285Y-112276524D01*
X187742285Y-112276524D02*
X187693904Y-112324905D01*
X187693904Y-112324905D02*
X187645523Y-112421667D01*
X172828857Y-92821334D02*
X172780476Y-92869715D01*
X172780476Y-92869715D02*
X172635333Y-92918095D01*
X172635333Y-92918095D02*
X172538571Y-92918095D01*
X172538571Y-92918095D02*
X172393428Y-92869715D01*
X172393428Y-92869715D02*
X172296666Y-92772953D01*
X172296666Y-92772953D02*
X172248285Y-92676191D01*
X172248285Y-92676191D02*
X172199904Y-92482667D01*
X172199904Y-92482667D02*
X172199904Y-92337524D01*
X172199904Y-92337524D02*
X172248285Y-92144000D01*
X172248285Y-92144000D02*
X172296666Y-92047238D01*
X172296666Y-92047238D02*
X172393428Y-91950476D01*
X172393428Y-91950476D02*
X172538571Y-91902095D01*
X172538571Y-91902095D02*
X172635333Y-91902095D01*
X172635333Y-91902095D02*
X172780476Y-91950476D01*
X172780476Y-91950476D02*
X172828857Y-91998857D01*
X173215904Y-91998857D02*
X173264285Y-91950476D01*
X173264285Y-91950476D02*
X173361047Y-91902095D01*
X173361047Y-91902095D02*
X173602952Y-91902095D01*
X173602952Y-91902095D02*
X173699714Y-91950476D01*
X173699714Y-91950476D02*
X173748095Y-91998857D01*
X173748095Y-91998857D02*
X173796476Y-92095619D01*
X173796476Y-92095619D02*
X173796476Y-92192381D01*
X173796476Y-92192381D02*
X173748095Y-92337524D01*
X173748095Y-92337524D02*
X173167523Y-92918095D01*
X173167523Y-92918095D02*
X173796476Y-92918095D01*
X174280285Y-92918095D02*
X174473809Y-92918095D01*
X174473809Y-92918095D02*
X174570571Y-92869715D01*
X174570571Y-92869715D02*
X174618952Y-92821334D01*
X174618952Y-92821334D02*
X174715714Y-92676191D01*
X174715714Y-92676191D02*
X174764095Y-92482667D01*
X174764095Y-92482667D02*
X174764095Y-92095619D01*
X174764095Y-92095619D02*
X174715714Y-91998857D01*
X174715714Y-91998857D02*
X174667333Y-91950476D01*
X174667333Y-91950476D02*
X174570571Y-91902095D01*
X174570571Y-91902095D02*
X174377047Y-91902095D01*
X174377047Y-91902095D02*
X174280285Y-91950476D01*
X174280285Y-91950476D02*
X174231904Y-91998857D01*
X174231904Y-91998857D02*
X174183523Y-92095619D01*
X174183523Y-92095619D02*
X174183523Y-92337524D01*
X174183523Y-92337524D02*
X174231904Y-92434286D01*
X174231904Y-92434286D02*
X174280285Y-92482667D01*
X174280285Y-92482667D02*
X174377047Y-92531048D01*
X174377047Y-92531048D02*
X174570571Y-92531048D01*
X174570571Y-92531048D02*
X174667333Y-92482667D01*
X174667333Y-92482667D02*
X174715714Y-92434286D01*
X174715714Y-92434286D02*
X174764095Y-92337524D01*
X184480667Y-84104295D02*
X184142000Y-83620486D01*
X183900095Y-84104295D02*
X183900095Y-83088295D01*
X183900095Y-83088295D02*
X184287143Y-83088295D01*
X184287143Y-83088295D02*
X184383905Y-83136676D01*
X184383905Y-83136676D02*
X184432286Y-83185057D01*
X184432286Y-83185057D02*
X184480667Y-83281819D01*
X184480667Y-83281819D02*
X184480667Y-83426962D01*
X184480667Y-83426962D02*
X184432286Y-83523724D01*
X184432286Y-83523724D02*
X184383905Y-83572105D01*
X184383905Y-83572105D02*
X184287143Y-83620486D01*
X184287143Y-83620486D02*
X183900095Y-83620486D01*
X184819333Y-83088295D02*
X185448286Y-83088295D01*
X185448286Y-83088295D02*
X185109619Y-83475343D01*
X185109619Y-83475343D02*
X185254762Y-83475343D01*
X185254762Y-83475343D02*
X185351524Y-83523724D01*
X185351524Y-83523724D02*
X185399905Y-83572105D01*
X185399905Y-83572105D02*
X185448286Y-83668867D01*
X185448286Y-83668867D02*
X185448286Y-83910772D01*
X185448286Y-83910772D02*
X185399905Y-84007534D01*
X185399905Y-84007534D02*
X185351524Y-84055915D01*
X185351524Y-84055915D02*
X185254762Y-84104295D01*
X185254762Y-84104295D02*
X184964476Y-84104295D01*
X184964476Y-84104295D02*
X184867714Y-84055915D01*
X184867714Y-84055915D02*
X184819333Y-84007534D01*
X159886957Y-76358895D02*
X159548290Y-75875086D01*
X159306385Y-76358895D02*
X159306385Y-75342895D01*
X159306385Y-75342895D02*
X159693433Y-75342895D01*
X159693433Y-75342895D02*
X159790195Y-75391276D01*
X159790195Y-75391276D02*
X159838576Y-75439657D01*
X159838576Y-75439657D02*
X159886957Y-75536419D01*
X159886957Y-75536419D02*
X159886957Y-75681562D01*
X159886957Y-75681562D02*
X159838576Y-75778324D01*
X159838576Y-75778324D02*
X159790195Y-75826705D01*
X159790195Y-75826705D02*
X159693433Y-75875086D01*
X159693433Y-75875086D02*
X159306385Y-75875086D01*
X160854576Y-76358895D02*
X160274004Y-76358895D01*
X160564290Y-76358895D02*
X160564290Y-75342895D01*
X160564290Y-75342895D02*
X160467528Y-75488038D01*
X160467528Y-75488038D02*
X160370766Y-75584800D01*
X160370766Y-75584800D02*
X160274004Y-75633181D01*
X161822195Y-76358895D02*
X161241623Y-76358895D01*
X161531909Y-76358895D02*
X161531909Y-75342895D01*
X161531909Y-75342895D02*
X161435147Y-75488038D01*
X161435147Y-75488038D02*
X161338385Y-75584800D01*
X161338385Y-75584800D02*
X161241623Y-75633181D01*
X152102457Y-108259695D02*
X151763790Y-107775886D01*
X151521885Y-108259695D02*
X151521885Y-107243695D01*
X151521885Y-107243695D02*
X151908933Y-107243695D01*
X151908933Y-107243695D02*
X152005695Y-107292076D01*
X152005695Y-107292076D02*
X152054076Y-107340457D01*
X152054076Y-107340457D02*
X152102457Y-107437219D01*
X152102457Y-107437219D02*
X152102457Y-107582362D01*
X152102457Y-107582362D02*
X152054076Y-107679124D01*
X152054076Y-107679124D02*
X152005695Y-107727505D01*
X152005695Y-107727505D02*
X151908933Y-107775886D01*
X151908933Y-107775886D02*
X151521885Y-107775886D01*
X152441123Y-107243695D02*
X153070076Y-107243695D01*
X153070076Y-107243695D02*
X152731409Y-107630743D01*
X152731409Y-107630743D02*
X152876552Y-107630743D01*
X152876552Y-107630743D02*
X152973314Y-107679124D01*
X152973314Y-107679124D02*
X153021695Y-107727505D01*
X153021695Y-107727505D02*
X153070076Y-107824267D01*
X153070076Y-107824267D02*
X153070076Y-108066172D01*
X153070076Y-108066172D02*
X153021695Y-108162934D01*
X153021695Y-108162934D02*
X152973314Y-108211315D01*
X152973314Y-108211315D02*
X152876552Y-108259695D01*
X152876552Y-108259695D02*
X152586266Y-108259695D01*
X152586266Y-108259695D02*
X152489504Y-108211315D01*
X152489504Y-108211315D02*
X152441123Y-108162934D01*
X154037695Y-108259695D02*
X153457123Y-108259695D01*
X153747409Y-108259695D02*
X153747409Y-107243695D01*
X153747409Y-107243695D02*
X153650647Y-107388838D01*
X153650647Y-107388838D02*
X153553885Y-107485600D01*
X153553885Y-107485600D02*
X153457123Y-107533981D01*
X172828857Y-91297334D02*
X172780476Y-91345715D01*
X172780476Y-91345715D02*
X172635333Y-91394095D01*
X172635333Y-91394095D02*
X172538571Y-91394095D01*
X172538571Y-91394095D02*
X172393428Y-91345715D01*
X172393428Y-91345715D02*
X172296666Y-91248953D01*
X172296666Y-91248953D02*
X172248285Y-91152191D01*
X172248285Y-91152191D02*
X172199904Y-90958667D01*
X172199904Y-90958667D02*
X172199904Y-90813524D01*
X172199904Y-90813524D02*
X172248285Y-90620000D01*
X172248285Y-90620000D02*
X172296666Y-90523238D01*
X172296666Y-90523238D02*
X172393428Y-90426476D01*
X172393428Y-90426476D02*
X172538571Y-90378095D01*
X172538571Y-90378095D02*
X172635333Y-90378095D01*
X172635333Y-90378095D02*
X172780476Y-90426476D01*
X172780476Y-90426476D02*
X172828857Y-90474857D01*
X173167523Y-90378095D02*
X173796476Y-90378095D01*
X173796476Y-90378095D02*
X173457809Y-90765143D01*
X173457809Y-90765143D02*
X173602952Y-90765143D01*
X173602952Y-90765143D02*
X173699714Y-90813524D01*
X173699714Y-90813524D02*
X173748095Y-90861905D01*
X173748095Y-90861905D02*
X173796476Y-90958667D01*
X173796476Y-90958667D02*
X173796476Y-91200572D01*
X173796476Y-91200572D02*
X173748095Y-91297334D01*
X173748095Y-91297334D02*
X173699714Y-91345715D01*
X173699714Y-91345715D02*
X173602952Y-91394095D01*
X173602952Y-91394095D02*
X173312666Y-91394095D01*
X173312666Y-91394095D02*
X173215904Y-91345715D01*
X173215904Y-91345715D02*
X173167523Y-91297334D01*
X174425428Y-90378095D02*
X174522190Y-90378095D01*
X174522190Y-90378095D02*
X174618952Y-90426476D01*
X174618952Y-90426476D02*
X174667333Y-90474857D01*
X174667333Y-90474857D02*
X174715714Y-90571619D01*
X174715714Y-90571619D02*
X174764095Y-90765143D01*
X174764095Y-90765143D02*
X174764095Y-91007048D01*
X174764095Y-91007048D02*
X174715714Y-91200572D01*
X174715714Y-91200572D02*
X174667333Y-91297334D01*
X174667333Y-91297334D02*
X174618952Y-91345715D01*
X174618952Y-91345715D02*
X174522190Y-91394095D01*
X174522190Y-91394095D02*
X174425428Y-91394095D01*
X174425428Y-91394095D02*
X174328666Y-91345715D01*
X174328666Y-91345715D02*
X174280285Y-91297334D01*
X174280285Y-91297334D02*
X174231904Y-91200572D01*
X174231904Y-91200572D02*
X174183523Y-91007048D01*
X174183523Y-91007048D02*
X174183523Y-90765143D01*
X174183523Y-90765143D02*
X174231904Y-90571619D01*
X174231904Y-90571619D02*
X174280285Y-90474857D01*
X174280285Y-90474857D02*
X174328666Y-90426476D01*
X174328666Y-90426476D02*
X174425428Y-90378095D01*
X171980904Y-103901895D02*
X171980904Y-104724372D01*
X171980904Y-104724372D02*
X172029285Y-104821134D01*
X172029285Y-104821134D02*
X172077666Y-104869515D01*
X172077666Y-104869515D02*
X172174428Y-104917895D01*
X172174428Y-104917895D02*
X172367952Y-104917895D01*
X172367952Y-104917895D02*
X172464714Y-104869515D01*
X172464714Y-104869515D02*
X172513095Y-104821134D01*
X172513095Y-104821134D02*
X172561476Y-104724372D01*
X172561476Y-104724372D02*
X172561476Y-103901895D01*
X172948523Y-103901895D02*
X173577476Y-103901895D01*
X173577476Y-103901895D02*
X173238809Y-104288943D01*
X173238809Y-104288943D02*
X173383952Y-104288943D01*
X173383952Y-104288943D02*
X173480714Y-104337324D01*
X173480714Y-104337324D02*
X173529095Y-104385705D01*
X173529095Y-104385705D02*
X173577476Y-104482467D01*
X173577476Y-104482467D02*
X173577476Y-104724372D01*
X173577476Y-104724372D02*
X173529095Y-104821134D01*
X173529095Y-104821134D02*
X173480714Y-104869515D01*
X173480714Y-104869515D02*
X173383952Y-104917895D01*
X173383952Y-104917895D02*
X173093666Y-104917895D01*
X173093666Y-104917895D02*
X172996904Y-104869515D01*
X172996904Y-104869515D02*
X172948523Y-104821134D01*
X186341657Y-114157334D02*
X186293276Y-114205715D01*
X186293276Y-114205715D02*
X186148133Y-114254095D01*
X186148133Y-114254095D02*
X186051371Y-114254095D01*
X186051371Y-114254095D02*
X185906228Y-114205715D01*
X185906228Y-114205715D02*
X185809466Y-114108953D01*
X185809466Y-114108953D02*
X185761085Y-114012191D01*
X185761085Y-114012191D02*
X185712704Y-113818667D01*
X185712704Y-113818667D02*
X185712704Y-113673524D01*
X185712704Y-113673524D02*
X185761085Y-113480000D01*
X185761085Y-113480000D02*
X185809466Y-113383238D01*
X185809466Y-113383238D02*
X185906228Y-113286476D01*
X185906228Y-113286476D02*
X186051371Y-113238095D01*
X186051371Y-113238095D02*
X186148133Y-113238095D01*
X186148133Y-113238095D02*
X186293276Y-113286476D01*
X186293276Y-113286476D02*
X186341657Y-113334857D01*
X187309276Y-114254095D02*
X186728704Y-114254095D01*
X187018990Y-114254095D02*
X187018990Y-113238095D01*
X187018990Y-113238095D02*
X186922228Y-113383238D01*
X186922228Y-113383238D02*
X186825466Y-113480000D01*
X186825466Y-113480000D02*
X186728704Y-113528381D01*
X188276895Y-114254095D02*
X187696323Y-114254095D01*
X187986609Y-114254095D02*
X187986609Y-113238095D01*
X187986609Y-113238095D02*
X187889847Y-113383238D01*
X187889847Y-113383238D02*
X187793085Y-113480000D01*
X187793085Y-113480000D02*
X187696323Y-113528381D01*
X149491495Y-109580495D02*
X149491495Y-108564495D01*
X149491495Y-108564495D02*
X149733400Y-108564495D01*
X149733400Y-108564495D02*
X149878543Y-108612876D01*
X149878543Y-108612876D02*
X149975305Y-108709638D01*
X149975305Y-108709638D02*
X150023686Y-108806400D01*
X150023686Y-108806400D02*
X150072067Y-108999924D01*
X150072067Y-108999924D02*
X150072067Y-109145067D01*
X150072067Y-109145067D02*
X150023686Y-109338591D01*
X150023686Y-109338591D02*
X149975305Y-109435353D01*
X149975305Y-109435353D02*
X149878543Y-109532115D01*
X149878543Y-109532115D02*
X149733400Y-109580495D01*
X149733400Y-109580495D02*
X149491495Y-109580495D01*
X150942924Y-108903162D02*
X150942924Y-109580495D01*
X150701019Y-108516115D02*
X150459114Y-109241829D01*
X150459114Y-109241829D02*
X151088067Y-109241829D01*
X167037667Y-81132495D02*
X166699000Y-80648686D01*
X166457095Y-81132495D02*
X166457095Y-80116495D01*
X166457095Y-80116495D02*
X166844143Y-80116495D01*
X166844143Y-80116495D02*
X166940905Y-80164876D01*
X166940905Y-80164876D02*
X166989286Y-80213257D01*
X166989286Y-80213257D02*
X167037667Y-80310019D01*
X167037667Y-80310019D02*
X167037667Y-80455162D01*
X167037667Y-80455162D02*
X166989286Y-80551924D01*
X166989286Y-80551924D02*
X166940905Y-80600305D01*
X166940905Y-80600305D02*
X166844143Y-80648686D01*
X166844143Y-80648686D02*
X166457095Y-80648686D01*
X167908524Y-80455162D02*
X167908524Y-81132495D01*
X167666619Y-80068115D02*
X167424714Y-80793829D01*
X167424714Y-80793829D02*
X168053667Y-80793829D01*
X181718857Y-90806334D02*
X181670476Y-90854715D01*
X181670476Y-90854715D02*
X181525333Y-90903095D01*
X181525333Y-90903095D02*
X181428571Y-90903095D01*
X181428571Y-90903095D02*
X181283428Y-90854715D01*
X181283428Y-90854715D02*
X181186666Y-90757953D01*
X181186666Y-90757953D02*
X181138285Y-90661191D01*
X181138285Y-90661191D02*
X181089904Y-90467667D01*
X181089904Y-90467667D02*
X181089904Y-90322524D01*
X181089904Y-90322524D02*
X181138285Y-90129000D01*
X181138285Y-90129000D02*
X181186666Y-90032238D01*
X181186666Y-90032238D02*
X181283428Y-89935476D01*
X181283428Y-89935476D02*
X181428571Y-89887095D01*
X181428571Y-89887095D02*
X181525333Y-89887095D01*
X181525333Y-89887095D02*
X181670476Y-89935476D01*
X181670476Y-89935476D02*
X181718857Y-89983857D01*
X182057523Y-89887095D02*
X182686476Y-89887095D01*
X182686476Y-89887095D02*
X182347809Y-90274143D01*
X182347809Y-90274143D02*
X182492952Y-90274143D01*
X182492952Y-90274143D02*
X182589714Y-90322524D01*
X182589714Y-90322524D02*
X182638095Y-90370905D01*
X182638095Y-90370905D02*
X182686476Y-90467667D01*
X182686476Y-90467667D02*
X182686476Y-90709572D01*
X182686476Y-90709572D02*
X182638095Y-90806334D01*
X182638095Y-90806334D02*
X182589714Y-90854715D01*
X182589714Y-90854715D02*
X182492952Y-90903095D01*
X182492952Y-90903095D02*
X182202666Y-90903095D01*
X182202666Y-90903095D02*
X182105904Y-90854715D01*
X182105904Y-90854715D02*
X182057523Y-90806334D01*
X183557333Y-89887095D02*
X183363809Y-89887095D01*
X183363809Y-89887095D02*
X183267047Y-89935476D01*
X183267047Y-89935476D02*
X183218666Y-89983857D01*
X183218666Y-89983857D02*
X183121904Y-90129000D01*
X183121904Y-90129000D02*
X183073523Y-90322524D01*
X183073523Y-90322524D02*
X183073523Y-90709572D01*
X183073523Y-90709572D02*
X183121904Y-90806334D01*
X183121904Y-90806334D02*
X183170285Y-90854715D01*
X183170285Y-90854715D02*
X183267047Y-90903095D01*
X183267047Y-90903095D02*
X183460571Y-90903095D01*
X183460571Y-90903095D02*
X183557333Y-90854715D01*
X183557333Y-90854715D02*
X183605714Y-90806334D01*
X183605714Y-90806334D02*
X183654095Y-90709572D01*
X183654095Y-90709572D02*
X183654095Y-90467667D01*
X183654095Y-90467667D02*
X183605714Y-90370905D01*
X183605714Y-90370905D02*
X183557333Y-90322524D01*
X183557333Y-90322524D02*
X183460571Y-90274143D01*
X183460571Y-90274143D02*
X183267047Y-90274143D01*
X183267047Y-90274143D02*
X183170285Y-90322524D01*
X183170285Y-90322524D02*
X183121904Y-90370905D01*
X183121904Y-90370905D02*
X183073523Y-90467667D01*
X170275904Y-89871095D02*
X170275904Y-90693572D01*
X170275904Y-90693572D02*
X170324285Y-90790334D01*
X170324285Y-90790334D02*
X170372666Y-90838715D01*
X170372666Y-90838715D02*
X170469428Y-90887095D01*
X170469428Y-90887095D02*
X170662952Y-90887095D01*
X170662952Y-90887095D02*
X170759714Y-90838715D01*
X170759714Y-90838715D02*
X170808095Y-90790334D01*
X170808095Y-90790334D02*
X170856476Y-90693572D01*
X170856476Y-90693572D02*
X170856476Y-89871095D01*
X171291904Y-89967857D02*
X171340285Y-89919476D01*
X171340285Y-89919476D02*
X171437047Y-89871095D01*
X171437047Y-89871095D02*
X171678952Y-89871095D01*
X171678952Y-89871095D02*
X171775714Y-89919476D01*
X171775714Y-89919476D02*
X171824095Y-89967857D01*
X171824095Y-89967857D02*
X171872476Y-90064619D01*
X171872476Y-90064619D02*
X171872476Y-90161381D01*
X171872476Y-90161381D02*
X171824095Y-90306524D01*
X171824095Y-90306524D02*
X171243523Y-90887095D01*
X171243523Y-90887095D02*
X171872476Y-90887095D01*
X187355295Y-97427142D02*
X186871486Y-97765809D01*
X187355295Y-98007714D02*
X186339295Y-98007714D01*
X186339295Y-98007714D02*
X186339295Y-97620666D01*
X186339295Y-97620666D02*
X186387676Y-97523904D01*
X186387676Y-97523904D02*
X186436057Y-97475523D01*
X186436057Y-97475523D02*
X186532819Y-97427142D01*
X186532819Y-97427142D02*
X186677962Y-97427142D01*
X186677962Y-97427142D02*
X186774724Y-97475523D01*
X186774724Y-97475523D02*
X186823105Y-97523904D01*
X186823105Y-97523904D02*
X186871486Y-97620666D01*
X186871486Y-97620666D02*
X186871486Y-98007714D01*
X186436057Y-97040095D02*
X186387676Y-96991714D01*
X186387676Y-96991714D02*
X186339295Y-96894952D01*
X186339295Y-96894952D02*
X186339295Y-96653047D01*
X186339295Y-96653047D02*
X186387676Y-96556285D01*
X186387676Y-96556285D02*
X186436057Y-96507904D01*
X186436057Y-96507904D02*
X186532819Y-96459523D01*
X186532819Y-96459523D02*
X186629581Y-96459523D01*
X186629581Y-96459523D02*
X186774724Y-96507904D01*
X186774724Y-96507904D02*
X187355295Y-97088476D01*
X187355295Y-97088476D02*
X187355295Y-96459523D01*
X186677962Y-95588666D02*
X187355295Y-95588666D01*
X186290915Y-95830571D02*
X187016629Y-96072476D01*
X187016629Y-96072476D02*
X187016629Y-95443523D01*
X186876267Y-84993295D02*
X186537600Y-84509486D01*
X186295695Y-84993295D02*
X186295695Y-83977295D01*
X186295695Y-83977295D02*
X186682743Y-83977295D01*
X186682743Y-83977295D02*
X186779505Y-84025676D01*
X186779505Y-84025676D02*
X186827886Y-84074057D01*
X186827886Y-84074057D02*
X186876267Y-84170819D01*
X186876267Y-84170819D02*
X186876267Y-84315962D01*
X186876267Y-84315962D02*
X186827886Y-84412724D01*
X186827886Y-84412724D02*
X186779505Y-84461105D01*
X186779505Y-84461105D02*
X186682743Y-84509486D01*
X186682743Y-84509486D02*
X186295695Y-84509486D01*
X187843886Y-84993295D02*
X187263314Y-84993295D01*
X187553600Y-84993295D02*
X187553600Y-83977295D01*
X187553600Y-83977295D02*
X187456838Y-84122438D01*
X187456838Y-84122438D02*
X187360076Y-84219200D01*
X187360076Y-84219200D02*
X187263314Y-84267581D01*
X177391757Y-108481134D02*
X177343376Y-108529515D01*
X177343376Y-108529515D02*
X177198233Y-108577895D01*
X177198233Y-108577895D02*
X177101471Y-108577895D01*
X177101471Y-108577895D02*
X176956328Y-108529515D01*
X176956328Y-108529515D02*
X176859566Y-108432753D01*
X176859566Y-108432753D02*
X176811185Y-108335991D01*
X176811185Y-108335991D02*
X176762804Y-108142467D01*
X176762804Y-108142467D02*
X176762804Y-107997324D01*
X176762804Y-107997324D02*
X176811185Y-107803800D01*
X176811185Y-107803800D02*
X176859566Y-107707038D01*
X176859566Y-107707038D02*
X176956328Y-107610276D01*
X176956328Y-107610276D02*
X177101471Y-107561895D01*
X177101471Y-107561895D02*
X177198233Y-107561895D01*
X177198233Y-107561895D02*
X177343376Y-107610276D01*
X177343376Y-107610276D02*
X177391757Y-107658657D01*
X178359376Y-108577895D02*
X177778804Y-108577895D01*
X178069090Y-108577895D02*
X178069090Y-107561895D01*
X178069090Y-107561895D02*
X177972328Y-107707038D01*
X177972328Y-107707038D02*
X177875566Y-107803800D01*
X177875566Y-107803800D02*
X177778804Y-107852181D01*
X179230233Y-107900562D02*
X179230233Y-108577895D01*
X178988328Y-107513515D02*
X178746423Y-108239229D01*
X178746423Y-108239229D02*
X179375376Y-108239229D01*
X148146857Y-73590334D02*
X148098476Y-73638715D01*
X148098476Y-73638715D02*
X147953333Y-73687095D01*
X147953333Y-73687095D02*
X147856571Y-73687095D01*
X147856571Y-73687095D02*
X147711428Y-73638715D01*
X147711428Y-73638715D02*
X147614666Y-73541953D01*
X147614666Y-73541953D02*
X147566285Y-73445191D01*
X147566285Y-73445191D02*
X147517904Y-73251667D01*
X147517904Y-73251667D02*
X147517904Y-73106524D01*
X147517904Y-73106524D02*
X147566285Y-72913000D01*
X147566285Y-72913000D02*
X147614666Y-72816238D01*
X147614666Y-72816238D02*
X147711428Y-72719476D01*
X147711428Y-72719476D02*
X147856571Y-72671095D01*
X147856571Y-72671095D02*
X147953333Y-72671095D01*
X147953333Y-72671095D02*
X148098476Y-72719476D01*
X148098476Y-72719476D02*
X148146857Y-72767857D01*
X149017714Y-73009762D02*
X149017714Y-73687095D01*
X148775809Y-72622715D02*
X148533904Y-73348429D01*
X148533904Y-73348429D02*
X149162857Y-73348429D01*
X149743428Y-72671095D02*
X149840190Y-72671095D01*
X149840190Y-72671095D02*
X149936952Y-72719476D01*
X149936952Y-72719476D02*
X149985333Y-72767857D01*
X149985333Y-72767857D02*
X150033714Y-72864619D01*
X150033714Y-72864619D02*
X150082095Y-73058143D01*
X150082095Y-73058143D02*
X150082095Y-73300048D01*
X150082095Y-73300048D02*
X150033714Y-73493572D01*
X150033714Y-73493572D02*
X149985333Y-73590334D01*
X149985333Y-73590334D02*
X149936952Y-73638715D01*
X149936952Y-73638715D02*
X149840190Y-73687095D01*
X149840190Y-73687095D02*
X149743428Y-73687095D01*
X149743428Y-73687095D02*
X149646666Y-73638715D01*
X149646666Y-73638715D02*
X149598285Y-73590334D01*
X149598285Y-73590334D02*
X149549904Y-73493572D01*
X149549904Y-73493572D02*
X149501523Y-73300048D01*
X149501523Y-73300048D02*
X149501523Y-73058143D01*
X149501523Y-73058143D02*
X149549904Y-72864619D01*
X149549904Y-72864619D02*
X149598285Y-72767857D01*
X149598285Y-72767857D02*
X149646666Y-72719476D01*
X149646666Y-72719476D02*
X149743428Y-72671095D01*
X175799505Y-80653466D02*
X175799505Y-80992133D01*
X176331695Y-80992133D02*
X175315695Y-80992133D01*
X175315695Y-80992133D02*
X175315695Y-80508323D01*
X176331695Y-79589085D02*
X176331695Y-80169657D01*
X176331695Y-79879371D02*
X175315695Y-79879371D01*
X175315695Y-79879371D02*
X175460838Y-79976133D01*
X175460838Y-79976133D02*
X175557600Y-80072895D01*
X175557600Y-80072895D02*
X175605981Y-80169657D01*
X175366495Y-85082742D02*
X174882686Y-85421409D01*
X175366495Y-85663314D02*
X174350495Y-85663314D01*
X174350495Y-85663314D02*
X174350495Y-85276266D01*
X174350495Y-85276266D02*
X174398876Y-85179504D01*
X174398876Y-85179504D02*
X174447257Y-85131123D01*
X174447257Y-85131123D02*
X174544019Y-85082742D01*
X174544019Y-85082742D02*
X174689162Y-85082742D01*
X174689162Y-85082742D02*
X174785924Y-85131123D01*
X174785924Y-85131123D02*
X174834305Y-85179504D01*
X174834305Y-85179504D02*
X174882686Y-85276266D01*
X174882686Y-85276266D02*
X174882686Y-85663314D01*
X174447257Y-84695695D02*
X174398876Y-84647314D01*
X174398876Y-84647314D02*
X174350495Y-84550552D01*
X174350495Y-84550552D02*
X174350495Y-84308647D01*
X174350495Y-84308647D02*
X174398876Y-84211885D01*
X174398876Y-84211885D02*
X174447257Y-84163504D01*
X174447257Y-84163504D02*
X174544019Y-84115123D01*
X174544019Y-84115123D02*
X174640781Y-84115123D01*
X174640781Y-84115123D02*
X174785924Y-84163504D01*
X174785924Y-84163504D02*
X175366495Y-84744076D01*
X175366495Y-84744076D02*
X175366495Y-84115123D01*
X174350495Y-83776457D02*
X174350495Y-83147504D01*
X174350495Y-83147504D02*
X174737543Y-83486171D01*
X174737543Y-83486171D02*
X174737543Y-83341028D01*
X174737543Y-83341028D02*
X174785924Y-83244266D01*
X174785924Y-83244266D02*
X174834305Y-83195885D01*
X174834305Y-83195885D02*
X174931067Y-83147504D01*
X174931067Y-83147504D02*
X175172972Y-83147504D01*
X175172972Y-83147504D02*
X175269734Y-83195885D01*
X175269734Y-83195885D02*
X175318115Y-83244266D01*
X175318115Y-83244266D02*
X175366495Y-83341028D01*
X175366495Y-83341028D02*
X175366495Y-83631314D01*
X175366495Y-83631314D02*
X175318115Y-83728076D01*
X175318115Y-83728076D02*
X175269734Y-83776457D01*
X152039557Y-110901295D02*
X151700890Y-110417486D01*
X151458985Y-110901295D02*
X151458985Y-109885295D01*
X151458985Y-109885295D02*
X151846033Y-109885295D01*
X151846033Y-109885295D02*
X151942795Y-109933676D01*
X151942795Y-109933676D02*
X151991176Y-109982057D01*
X151991176Y-109982057D02*
X152039557Y-110078819D01*
X152039557Y-110078819D02*
X152039557Y-110223962D01*
X152039557Y-110223962D02*
X151991176Y-110320724D01*
X151991176Y-110320724D02*
X151942795Y-110369105D01*
X151942795Y-110369105D02*
X151846033Y-110417486D01*
X151846033Y-110417486D02*
X151458985Y-110417486D01*
X152426604Y-109982057D02*
X152474985Y-109933676D01*
X152474985Y-109933676D02*
X152571747Y-109885295D01*
X152571747Y-109885295D02*
X152813652Y-109885295D01*
X152813652Y-109885295D02*
X152910414Y-109933676D01*
X152910414Y-109933676D02*
X152958795Y-109982057D01*
X152958795Y-109982057D02*
X153007176Y-110078819D01*
X153007176Y-110078819D02*
X153007176Y-110175581D01*
X153007176Y-110175581D02*
X152958795Y-110320724D01*
X152958795Y-110320724D02*
X152378223Y-110901295D01*
X152378223Y-110901295D02*
X153007176Y-110901295D01*
X153490985Y-110901295D02*
X153684509Y-110901295D01*
X153684509Y-110901295D02*
X153781271Y-110852915D01*
X153781271Y-110852915D02*
X153829652Y-110804534D01*
X153829652Y-110804534D02*
X153926414Y-110659391D01*
X153926414Y-110659391D02*
X153974795Y-110465867D01*
X153974795Y-110465867D02*
X153974795Y-110078819D01*
X153974795Y-110078819D02*
X153926414Y-109982057D01*
X153926414Y-109982057D02*
X153878033Y-109933676D01*
X153878033Y-109933676D02*
X153781271Y-109885295D01*
X153781271Y-109885295D02*
X153587747Y-109885295D01*
X153587747Y-109885295D02*
X153490985Y-109933676D01*
X153490985Y-109933676D02*
X153442604Y-109982057D01*
X153442604Y-109982057D02*
X153394223Y-110078819D01*
X153394223Y-110078819D02*
X153394223Y-110320724D01*
X153394223Y-110320724D02*
X153442604Y-110417486D01*
X153442604Y-110417486D02*
X153490985Y-110465867D01*
X153490985Y-110465867D02*
X153587747Y-110514248D01*
X153587747Y-110514248D02*
X153781271Y-110514248D01*
X153781271Y-110514248D02*
X153878033Y-110465867D01*
X153878033Y-110465867D02*
X153926414Y-110417486D01*
X153926414Y-110417486D02*
X153974795Y-110320724D01*
X181467334Y-94379142D02*
X181515715Y-94427523D01*
X181515715Y-94427523D02*
X181564095Y-94572666D01*
X181564095Y-94572666D02*
X181564095Y-94669428D01*
X181564095Y-94669428D02*
X181515715Y-94814571D01*
X181515715Y-94814571D02*
X181418953Y-94911333D01*
X181418953Y-94911333D02*
X181322191Y-94959714D01*
X181322191Y-94959714D02*
X181128667Y-95008095D01*
X181128667Y-95008095D02*
X180983524Y-95008095D01*
X180983524Y-95008095D02*
X180790000Y-94959714D01*
X180790000Y-94959714D02*
X180693238Y-94911333D01*
X180693238Y-94911333D02*
X180596476Y-94814571D01*
X180596476Y-94814571D02*
X180548095Y-94669428D01*
X180548095Y-94669428D02*
X180548095Y-94572666D01*
X180548095Y-94572666D02*
X180596476Y-94427523D01*
X180596476Y-94427523D02*
X180644857Y-94379142D01*
X180644857Y-93992095D02*
X180596476Y-93943714D01*
X180596476Y-93943714D02*
X180548095Y-93846952D01*
X180548095Y-93846952D02*
X180548095Y-93605047D01*
X180548095Y-93605047D02*
X180596476Y-93508285D01*
X180596476Y-93508285D02*
X180644857Y-93459904D01*
X180644857Y-93459904D02*
X180741619Y-93411523D01*
X180741619Y-93411523D02*
X180838381Y-93411523D01*
X180838381Y-93411523D02*
X180983524Y-93459904D01*
X180983524Y-93459904D02*
X181564095Y-94040476D01*
X181564095Y-94040476D02*
X181564095Y-93411523D01*
X180548095Y-92492285D02*
X180548095Y-92976095D01*
X180548095Y-92976095D02*
X181031905Y-93024476D01*
X181031905Y-93024476D02*
X180983524Y-92976095D01*
X180983524Y-92976095D02*
X180935143Y-92879333D01*
X180935143Y-92879333D02*
X180935143Y-92637428D01*
X180935143Y-92637428D02*
X180983524Y-92540666D01*
X180983524Y-92540666D02*
X181031905Y-92492285D01*
X181031905Y-92492285D02*
X181128667Y-92443904D01*
X181128667Y-92443904D02*
X181370572Y-92443904D01*
X181370572Y-92443904D02*
X181467334Y-92492285D01*
X181467334Y-92492285D02*
X181515715Y-92540666D01*
X181515715Y-92540666D02*
X181564095Y-92637428D01*
X181564095Y-92637428D02*
X181564095Y-92879333D01*
X181564095Y-92879333D02*
X181515715Y-92976095D01*
X181515715Y-92976095D02*
X181467334Y-93024476D01*
X179382057Y-101050934D02*
X179333676Y-101099315D01*
X179333676Y-101099315D02*
X179188533Y-101147695D01*
X179188533Y-101147695D02*
X179091771Y-101147695D01*
X179091771Y-101147695D02*
X178946628Y-101099315D01*
X178946628Y-101099315D02*
X178849866Y-101002553D01*
X178849866Y-101002553D02*
X178801485Y-100905791D01*
X178801485Y-100905791D02*
X178753104Y-100712267D01*
X178753104Y-100712267D02*
X178753104Y-100567124D01*
X178753104Y-100567124D02*
X178801485Y-100373600D01*
X178801485Y-100373600D02*
X178849866Y-100276838D01*
X178849866Y-100276838D02*
X178946628Y-100180076D01*
X178946628Y-100180076D02*
X179091771Y-100131695D01*
X179091771Y-100131695D02*
X179188533Y-100131695D01*
X179188533Y-100131695D02*
X179333676Y-100180076D01*
X179333676Y-100180076D02*
X179382057Y-100228457D01*
X179720723Y-100131695D02*
X180349676Y-100131695D01*
X180349676Y-100131695D02*
X180011009Y-100518743D01*
X180011009Y-100518743D02*
X180156152Y-100518743D01*
X180156152Y-100518743D02*
X180252914Y-100567124D01*
X180252914Y-100567124D02*
X180301295Y-100615505D01*
X180301295Y-100615505D02*
X180349676Y-100712267D01*
X180349676Y-100712267D02*
X180349676Y-100954172D01*
X180349676Y-100954172D02*
X180301295Y-101050934D01*
X180301295Y-101050934D02*
X180252914Y-101099315D01*
X180252914Y-101099315D02*
X180156152Y-101147695D01*
X180156152Y-101147695D02*
X179865866Y-101147695D01*
X179865866Y-101147695D02*
X179769104Y-101099315D01*
X179769104Y-101099315D02*
X179720723Y-101050934D01*
X181268914Y-100131695D02*
X180785104Y-100131695D01*
X180785104Y-100131695D02*
X180736723Y-100615505D01*
X180736723Y-100615505D02*
X180785104Y-100567124D01*
X180785104Y-100567124D02*
X180881866Y-100518743D01*
X180881866Y-100518743D02*
X181123771Y-100518743D01*
X181123771Y-100518743D02*
X181220533Y-100567124D01*
X181220533Y-100567124D02*
X181268914Y-100615505D01*
X181268914Y-100615505D02*
X181317295Y-100712267D01*
X181317295Y-100712267D02*
X181317295Y-100954172D01*
X181317295Y-100954172D02*
X181268914Y-101050934D01*
X181268914Y-101050934D02*
X181220533Y-101099315D01*
X181220533Y-101099315D02*
X181123771Y-101147695D01*
X181123771Y-101147695D02*
X180881866Y-101147695D01*
X180881866Y-101147695D02*
X180785104Y-101099315D01*
X180785104Y-101099315D02*
X180736723Y-101050934D01*
X151848457Y-82758095D02*
X151509790Y-82274286D01*
X151267885Y-82758095D02*
X151267885Y-81742095D01*
X151267885Y-81742095D02*
X151654933Y-81742095D01*
X151654933Y-81742095D02*
X151751695Y-81790476D01*
X151751695Y-81790476D02*
X151800076Y-81838857D01*
X151800076Y-81838857D02*
X151848457Y-81935619D01*
X151848457Y-81935619D02*
X151848457Y-82080762D01*
X151848457Y-82080762D02*
X151800076Y-82177524D01*
X151800076Y-82177524D02*
X151751695Y-82225905D01*
X151751695Y-82225905D02*
X151654933Y-82274286D01*
X151654933Y-82274286D02*
X151267885Y-82274286D01*
X152816076Y-82758095D02*
X152235504Y-82758095D01*
X152525790Y-82758095D02*
X152525790Y-81742095D01*
X152525790Y-81742095D02*
X152429028Y-81887238D01*
X152429028Y-81887238D02*
X152332266Y-81984000D01*
X152332266Y-81984000D02*
X152235504Y-82032381D01*
X153203123Y-81838857D02*
X153251504Y-81790476D01*
X153251504Y-81790476D02*
X153348266Y-81742095D01*
X153348266Y-81742095D02*
X153590171Y-81742095D01*
X153590171Y-81742095D02*
X153686933Y-81790476D01*
X153686933Y-81790476D02*
X153735314Y-81838857D01*
X153735314Y-81838857D02*
X153783695Y-81935619D01*
X153783695Y-81935619D02*
X153783695Y-82032381D01*
X153783695Y-82032381D02*
X153735314Y-82177524D01*
X153735314Y-82177524D02*
X153154742Y-82758095D01*
X153154742Y-82758095D02*
X153783695Y-82758095D01*
X186369267Y-106647495D02*
X185885457Y-106647495D01*
X185885457Y-106647495D02*
X185885457Y-105631495D01*
X187240124Y-106647495D02*
X186659552Y-106647495D01*
X186949838Y-106647495D02*
X186949838Y-105631495D01*
X186949838Y-105631495D02*
X186853076Y-105776638D01*
X186853076Y-105776638D02*
X186756314Y-105873400D01*
X186756314Y-105873400D02*
X186659552Y-105921781D01*
X177469057Y-109979734D02*
X177420676Y-110028115D01*
X177420676Y-110028115D02*
X177275533Y-110076495D01*
X177275533Y-110076495D02*
X177178771Y-110076495D01*
X177178771Y-110076495D02*
X177033628Y-110028115D01*
X177033628Y-110028115D02*
X176936866Y-109931353D01*
X176936866Y-109931353D02*
X176888485Y-109834591D01*
X176888485Y-109834591D02*
X176840104Y-109641067D01*
X176840104Y-109641067D02*
X176840104Y-109495924D01*
X176840104Y-109495924D02*
X176888485Y-109302400D01*
X176888485Y-109302400D02*
X176936866Y-109205638D01*
X176936866Y-109205638D02*
X177033628Y-109108876D01*
X177033628Y-109108876D02*
X177178771Y-109060495D01*
X177178771Y-109060495D02*
X177275533Y-109060495D01*
X177275533Y-109060495D02*
X177420676Y-109108876D01*
X177420676Y-109108876D02*
X177469057Y-109157257D01*
X178436676Y-110076495D02*
X177856104Y-110076495D01*
X178146390Y-110076495D02*
X178146390Y-109060495D01*
X178146390Y-109060495D02*
X178049628Y-109205638D01*
X178049628Y-109205638D02*
X177952866Y-109302400D01*
X177952866Y-109302400D02*
X177856104Y-109350781D01*
X179355914Y-109060495D02*
X178872104Y-109060495D01*
X178872104Y-109060495D02*
X178823723Y-109544305D01*
X178823723Y-109544305D02*
X178872104Y-109495924D01*
X178872104Y-109495924D02*
X178968866Y-109447543D01*
X178968866Y-109447543D02*
X179210771Y-109447543D01*
X179210771Y-109447543D02*
X179307533Y-109495924D01*
X179307533Y-109495924D02*
X179355914Y-109544305D01*
X179355914Y-109544305D02*
X179404295Y-109641067D01*
X179404295Y-109641067D02*
X179404295Y-109882972D01*
X179404295Y-109882972D02*
X179355914Y-109979734D01*
X179355914Y-109979734D02*
X179307533Y-110028115D01*
X179307533Y-110028115D02*
X179210771Y-110076495D01*
X179210771Y-110076495D02*
X178968866Y-110076495D01*
X178968866Y-110076495D02*
X178872104Y-110028115D01*
X178872104Y-110028115D02*
X178823723Y-109979734D01*
X183750857Y-98815734D02*
X183702476Y-98864115D01*
X183702476Y-98864115D02*
X183557333Y-98912495D01*
X183557333Y-98912495D02*
X183460571Y-98912495D01*
X183460571Y-98912495D02*
X183315428Y-98864115D01*
X183315428Y-98864115D02*
X183218666Y-98767353D01*
X183218666Y-98767353D02*
X183170285Y-98670591D01*
X183170285Y-98670591D02*
X183121904Y-98477067D01*
X183121904Y-98477067D02*
X183121904Y-98331924D01*
X183121904Y-98331924D02*
X183170285Y-98138400D01*
X183170285Y-98138400D02*
X183218666Y-98041638D01*
X183218666Y-98041638D02*
X183315428Y-97944876D01*
X183315428Y-97944876D02*
X183460571Y-97896495D01*
X183460571Y-97896495D02*
X183557333Y-97896495D01*
X183557333Y-97896495D02*
X183702476Y-97944876D01*
X183702476Y-97944876D02*
X183750857Y-97993257D01*
X184137904Y-97993257D02*
X184186285Y-97944876D01*
X184186285Y-97944876D02*
X184283047Y-97896495D01*
X184283047Y-97896495D02*
X184524952Y-97896495D01*
X184524952Y-97896495D02*
X184621714Y-97944876D01*
X184621714Y-97944876D02*
X184670095Y-97993257D01*
X184670095Y-97993257D02*
X184718476Y-98090019D01*
X184718476Y-98090019D02*
X184718476Y-98186781D01*
X184718476Y-98186781D02*
X184670095Y-98331924D01*
X184670095Y-98331924D02*
X184089523Y-98912495D01*
X184089523Y-98912495D02*
X184718476Y-98912495D01*
X185299047Y-98331924D02*
X185202285Y-98283543D01*
X185202285Y-98283543D02*
X185153904Y-98235162D01*
X185153904Y-98235162D02*
X185105523Y-98138400D01*
X185105523Y-98138400D02*
X185105523Y-98090019D01*
X185105523Y-98090019D02*
X185153904Y-97993257D01*
X185153904Y-97993257D02*
X185202285Y-97944876D01*
X185202285Y-97944876D02*
X185299047Y-97896495D01*
X185299047Y-97896495D02*
X185492571Y-97896495D01*
X185492571Y-97896495D02*
X185589333Y-97944876D01*
X185589333Y-97944876D02*
X185637714Y-97993257D01*
X185637714Y-97993257D02*
X185686095Y-98090019D01*
X185686095Y-98090019D02*
X185686095Y-98138400D01*
X185686095Y-98138400D02*
X185637714Y-98235162D01*
X185637714Y-98235162D02*
X185589333Y-98283543D01*
X185589333Y-98283543D02*
X185492571Y-98331924D01*
X185492571Y-98331924D02*
X185299047Y-98331924D01*
X185299047Y-98331924D02*
X185202285Y-98380305D01*
X185202285Y-98380305D02*
X185153904Y-98428686D01*
X185153904Y-98428686D02*
X185105523Y-98525448D01*
X185105523Y-98525448D02*
X185105523Y-98718972D01*
X185105523Y-98718972D02*
X185153904Y-98815734D01*
X185153904Y-98815734D02*
X185202285Y-98864115D01*
X185202285Y-98864115D02*
X185299047Y-98912495D01*
X185299047Y-98912495D02*
X185492571Y-98912495D01*
X185492571Y-98912495D02*
X185589333Y-98864115D01*
X185589333Y-98864115D02*
X185637714Y-98815734D01*
X185637714Y-98815734D02*
X185686095Y-98718972D01*
X185686095Y-98718972D02*
X185686095Y-98525448D01*
X185686095Y-98525448D02*
X185637714Y-98428686D01*
X185637714Y-98428686D02*
X185589333Y-98380305D01*
X185589333Y-98380305D02*
X185492571Y-98331924D01*
X149542295Y-108208895D02*
X149542295Y-107192895D01*
X149542295Y-107192895D02*
X149784200Y-107192895D01*
X149784200Y-107192895D02*
X149929343Y-107241276D01*
X149929343Y-107241276D02*
X150026105Y-107338038D01*
X150026105Y-107338038D02*
X150074486Y-107434800D01*
X150074486Y-107434800D02*
X150122867Y-107628324D01*
X150122867Y-107628324D02*
X150122867Y-107773467D01*
X150122867Y-107773467D02*
X150074486Y-107966991D01*
X150074486Y-107966991D02*
X150026105Y-108063753D01*
X150026105Y-108063753D02*
X149929343Y-108160515D01*
X149929343Y-108160515D02*
X149784200Y-108208895D01*
X149784200Y-108208895D02*
X149542295Y-108208895D01*
X151042105Y-107192895D02*
X150558295Y-107192895D01*
X150558295Y-107192895D02*
X150509914Y-107676705D01*
X150509914Y-107676705D02*
X150558295Y-107628324D01*
X150558295Y-107628324D02*
X150655057Y-107579943D01*
X150655057Y-107579943D02*
X150896962Y-107579943D01*
X150896962Y-107579943D02*
X150993724Y-107628324D01*
X150993724Y-107628324D02*
X151042105Y-107676705D01*
X151042105Y-107676705D02*
X151090486Y-107773467D01*
X151090486Y-107773467D02*
X151090486Y-108015372D01*
X151090486Y-108015372D02*
X151042105Y-108112134D01*
X151042105Y-108112134D02*
X150993724Y-108160515D01*
X150993724Y-108160515D02*
X150896962Y-108208895D01*
X150896962Y-108208895D02*
X150655057Y-108208895D01*
X150655057Y-108208895D02*
X150558295Y-108160515D01*
X150558295Y-108160515D02*
X150509914Y-108112134D01*
X186290857Y-111434695D02*
X185952190Y-110950886D01*
X185710285Y-111434695D02*
X185710285Y-110418695D01*
X185710285Y-110418695D02*
X186097333Y-110418695D01*
X186097333Y-110418695D02*
X186194095Y-110467076D01*
X186194095Y-110467076D02*
X186242476Y-110515457D01*
X186242476Y-110515457D02*
X186290857Y-110612219D01*
X186290857Y-110612219D02*
X186290857Y-110757362D01*
X186290857Y-110757362D02*
X186242476Y-110854124D01*
X186242476Y-110854124D02*
X186194095Y-110902505D01*
X186194095Y-110902505D02*
X186097333Y-110950886D01*
X186097333Y-110950886D02*
X185710285Y-110950886D01*
X187258476Y-111434695D02*
X186677904Y-111434695D01*
X186968190Y-111434695D02*
X186968190Y-110418695D01*
X186968190Y-110418695D02*
X186871428Y-110563838D01*
X186871428Y-110563838D02*
X186774666Y-110660600D01*
X186774666Y-110660600D02*
X186677904Y-110708981D01*
X188129333Y-110418695D02*
X187935809Y-110418695D01*
X187935809Y-110418695D02*
X187839047Y-110467076D01*
X187839047Y-110467076D02*
X187790666Y-110515457D01*
X187790666Y-110515457D02*
X187693904Y-110660600D01*
X187693904Y-110660600D02*
X187645523Y-110854124D01*
X187645523Y-110854124D02*
X187645523Y-111241172D01*
X187645523Y-111241172D02*
X187693904Y-111337934D01*
X187693904Y-111337934D02*
X187742285Y-111386315D01*
X187742285Y-111386315D02*
X187839047Y-111434695D01*
X187839047Y-111434695D02*
X188032571Y-111434695D01*
X188032571Y-111434695D02*
X188129333Y-111386315D01*
X188129333Y-111386315D02*
X188177714Y-111337934D01*
X188177714Y-111337934D02*
X188226095Y-111241172D01*
X188226095Y-111241172D02*
X188226095Y-110999267D01*
X188226095Y-110999267D02*
X188177714Y-110902505D01*
X188177714Y-110902505D02*
X188129333Y-110854124D01*
X188129333Y-110854124D02*
X188032571Y-110805743D01*
X188032571Y-110805743D02*
X187839047Y-110805743D01*
X187839047Y-110805743D02*
X187742285Y-110854124D01*
X187742285Y-110854124D02*
X187693904Y-110902505D01*
X187693904Y-110902505D02*
X187645523Y-110999267D01*
X164555667Y-92057095D02*
X164217000Y-91573286D01*
X163975095Y-92057095D02*
X163975095Y-91041095D01*
X163975095Y-91041095D02*
X164362143Y-91041095D01*
X164362143Y-91041095D02*
X164458905Y-91089476D01*
X164458905Y-91089476D02*
X164507286Y-91137857D01*
X164507286Y-91137857D02*
X164555667Y-91234619D01*
X164555667Y-91234619D02*
X164555667Y-91379762D01*
X164555667Y-91379762D02*
X164507286Y-91476524D01*
X164507286Y-91476524D02*
X164458905Y-91524905D01*
X164458905Y-91524905D02*
X164362143Y-91573286D01*
X164362143Y-91573286D02*
X163975095Y-91573286D01*
X164942714Y-91137857D02*
X164991095Y-91089476D01*
X164991095Y-91089476D02*
X165087857Y-91041095D01*
X165087857Y-91041095D02*
X165329762Y-91041095D01*
X165329762Y-91041095D02*
X165426524Y-91089476D01*
X165426524Y-91089476D02*
X165474905Y-91137857D01*
X165474905Y-91137857D02*
X165523286Y-91234619D01*
X165523286Y-91234619D02*
X165523286Y-91331381D01*
X165523286Y-91331381D02*
X165474905Y-91476524D01*
X165474905Y-91476524D02*
X164894333Y-92057095D01*
X164894333Y-92057095D02*
X165523286Y-92057095D01*
X184764495Y-82714495D02*
X185586972Y-82714495D01*
X185586972Y-82714495D02*
X185683734Y-82666114D01*
X185683734Y-82666114D02*
X185732115Y-82617733D01*
X185732115Y-82617733D02*
X185780495Y-82520971D01*
X185780495Y-82520971D02*
X185780495Y-82327447D01*
X185780495Y-82327447D02*
X185732115Y-82230685D01*
X185732115Y-82230685D02*
X185683734Y-82182304D01*
X185683734Y-82182304D02*
X185586972Y-82133923D01*
X185586972Y-82133923D02*
X184764495Y-82133923D01*
X184764495Y-81746876D02*
X184764495Y-81069542D01*
X184764495Y-81069542D02*
X185780495Y-81504971D01*
X147668095Y-115886895D02*
X148490572Y-115886895D01*
X148490572Y-115886895D02*
X148587334Y-115838514D01*
X148587334Y-115838514D02*
X148635715Y-115790133D01*
X148635715Y-115790133D02*
X148684095Y-115693371D01*
X148684095Y-115693371D02*
X148684095Y-115499847D01*
X148684095Y-115499847D02*
X148635715Y-115403085D01*
X148635715Y-115403085D02*
X148587334Y-115354704D01*
X148587334Y-115354704D02*
X148490572Y-115306323D01*
X148490572Y-115306323D02*
X147668095Y-115306323D01*
X147668095Y-114338704D02*
X147668095Y-114822514D01*
X147668095Y-114822514D02*
X148151905Y-114870895D01*
X148151905Y-114870895D02*
X148103524Y-114822514D01*
X148103524Y-114822514D02*
X148055143Y-114725752D01*
X148055143Y-114725752D02*
X148055143Y-114483847D01*
X148055143Y-114483847D02*
X148103524Y-114387085D01*
X148103524Y-114387085D02*
X148151905Y-114338704D01*
X148151905Y-114338704D02*
X148248667Y-114290323D01*
X148248667Y-114290323D02*
X148490572Y-114290323D01*
X148490572Y-114290323D02*
X148587334Y-114338704D01*
X148587334Y-114338704D02*
X148635715Y-114387085D01*
X148635715Y-114387085D02*
X148684095Y-114483847D01*
X148684095Y-114483847D02*
X148684095Y-114725752D01*
X148684095Y-114725752D02*
X148635715Y-114822514D01*
X148635715Y-114822514D02*
X148587334Y-114870895D01*
X166880667Y-91965334D02*
X166832286Y-92013715D01*
X166832286Y-92013715D02*
X166687143Y-92062095D01*
X166687143Y-92062095D02*
X166590381Y-92062095D01*
X166590381Y-92062095D02*
X166445238Y-92013715D01*
X166445238Y-92013715D02*
X166348476Y-91916953D01*
X166348476Y-91916953D02*
X166300095Y-91820191D01*
X166300095Y-91820191D02*
X166251714Y-91626667D01*
X166251714Y-91626667D02*
X166251714Y-91481524D01*
X166251714Y-91481524D02*
X166300095Y-91288000D01*
X166300095Y-91288000D02*
X166348476Y-91191238D01*
X166348476Y-91191238D02*
X166445238Y-91094476D01*
X166445238Y-91094476D02*
X166590381Y-91046095D01*
X166590381Y-91046095D02*
X166687143Y-91046095D01*
X166687143Y-91046095D02*
X166832286Y-91094476D01*
X166832286Y-91094476D02*
X166880667Y-91142857D01*
X167267714Y-91142857D02*
X167316095Y-91094476D01*
X167316095Y-91094476D02*
X167412857Y-91046095D01*
X167412857Y-91046095D02*
X167654762Y-91046095D01*
X167654762Y-91046095D02*
X167751524Y-91094476D01*
X167751524Y-91094476D02*
X167799905Y-91142857D01*
X167799905Y-91142857D02*
X167848286Y-91239619D01*
X167848286Y-91239619D02*
X167848286Y-91336381D01*
X167848286Y-91336381D02*
X167799905Y-91481524D01*
X167799905Y-91481524D02*
X167219333Y-92062095D01*
X167219333Y-92062095D02*
X167848286Y-92062095D01*
X159736967Y-77713561D02*
X159398300Y-77229752D01*
X159156395Y-77713561D02*
X159156395Y-76697561D01*
X159156395Y-76697561D02*
X159543443Y-76697561D01*
X159543443Y-76697561D02*
X159640205Y-76745942D01*
X159640205Y-76745942D02*
X159688586Y-76794323D01*
X159688586Y-76794323D02*
X159736967Y-76891085D01*
X159736967Y-76891085D02*
X159736967Y-77036228D01*
X159736967Y-77036228D02*
X159688586Y-77132990D01*
X159688586Y-77132990D02*
X159640205Y-77181371D01*
X159640205Y-77181371D02*
X159543443Y-77229752D01*
X159543443Y-77229752D02*
X159156395Y-77229752D01*
X160075633Y-76697561D02*
X160752967Y-76697561D01*
X160752967Y-76697561D02*
X160317538Y-77713561D01*
X176260334Y-72916142D02*
X176308715Y-72964523D01*
X176308715Y-72964523D02*
X176357095Y-73109666D01*
X176357095Y-73109666D02*
X176357095Y-73206428D01*
X176357095Y-73206428D02*
X176308715Y-73351571D01*
X176308715Y-73351571D02*
X176211953Y-73448333D01*
X176211953Y-73448333D02*
X176115191Y-73496714D01*
X176115191Y-73496714D02*
X175921667Y-73545095D01*
X175921667Y-73545095D02*
X175776524Y-73545095D01*
X175776524Y-73545095D02*
X175583000Y-73496714D01*
X175583000Y-73496714D02*
X175486238Y-73448333D01*
X175486238Y-73448333D02*
X175389476Y-73351571D01*
X175389476Y-73351571D02*
X175341095Y-73206428D01*
X175341095Y-73206428D02*
X175341095Y-73109666D01*
X175341095Y-73109666D02*
X175389476Y-72964523D01*
X175389476Y-72964523D02*
X175437857Y-72916142D01*
X175437857Y-72529095D02*
X175389476Y-72480714D01*
X175389476Y-72480714D02*
X175341095Y-72383952D01*
X175341095Y-72383952D02*
X175341095Y-72142047D01*
X175341095Y-72142047D02*
X175389476Y-72045285D01*
X175389476Y-72045285D02*
X175437857Y-71996904D01*
X175437857Y-71996904D02*
X175534619Y-71948523D01*
X175534619Y-71948523D02*
X175631381Y-71948523D01*
X175631381Y-71948523D02*
X175776524Y-71996904D01*
X175776524Y-71996904D02*
X176357095Y-72577476D01*
X176357095Y-72577476D02*
X176357095Y-71948523D01*
X175679762Y-71077666D02*
X176357095Y-71077666D01*
X175292715Y-71319571D02*
X176018429Y-71561476D01*
X176018429Y-71561476D02*
X176018429Y-70932523D01*
X172101933Y-79964095D02*
X172101933Y-80689810D01*
X172101933Y-80689810D02*
X172053552Y-80834953D01*
X172053552Y-80834953D02*
X171956790Y-80931715D01*
X171956790Y-80931715D02*
X171811647Y-80980095D01*
X171811647Y-80980095D02*
X171714885Y-80980095D01*
X172537361Y-80060857D02*
X172585742Y-80012476D01*
X172585742Y-80012476D02*
X172682504Y-79964095D01*
X172682504Y-79964095D02*
X172924409Y-79964095D01*
X172924409Y-79964095D02*
X173021171Y-80012476D01*
X173021171Y-80012476D02*
X173069552Y-80060857D01*
X173069552Y-80060857D02*
X173117933Y-80157619D01*
X173117933Y-80157619D02*
X173117933Y-80254381D01*
X173117933Y-80254381D02*
X173069552Y-80399524D01*
X173069552Y-80399524D02*
X172488980Y-80980095D01*
X172488980Y-80980095D02*
X173117933Y-80980095D01*
D11*
X150065665Y-112060400D02*
X150297335Y-112060400D01*
X150065665Y-112780400D02*
X150297335Y-112780400D01*
X173356000Y-87289621D02*
X173356000Y-86954379D01*
X174116000Y-87289621D02*
X174116000Y-86954379D01*
X176932000Y-85967835D02*
X176932000Y-85736165D01*
X177652000Y-85967835D02*
X177652000Y-85736165D01*
X183808635Y-86762000D02*
X183576965Y-86762000D01*
X183808635Y-87482000D02*
X183576965Y-87482000D01*
X155202979Y-74194400D02*
X155538221Y-74194400D01*
X155202979Y-74954400D02*
X155538221Y-74954400D01*
X180224165Y-87778000D02*
X180455835Y-87778000D01*
X180224165Y-88498000D02*
X180455835Y-88498000D01*
X186146421Y-100508800D02*
X185811179Y-100508800D01*
X186146421Y-101268800D02*
X185811179Y-101268800D01*
X180224165Y-86381000D02*
X180455835Y-86381000D01*
X180224165Y-87101000D02*
X180455835Y-87101000D01*
D12*
X146411900Y-110236000D02*
G75*
G02*
X146311900Y-110236000I-50000J0D01*
G01*
X146311900Y-110236000D02*
G75*
G02*
X146411900Y-110236000I50000J0D01*
G01*
D11*
X164924121Y-79122000D02*
X164588879Y-79122000D01*
X164924121Y-79882000D02*
X164588879Y-79882000D01*
X149008335Y-76890000D02*
X148776665Y-76890000D01*
X149008335Y-77610000D02*
X148776665Y-77610000D01*
X182774000Y-85355165D02*
X182774000Y-85586835D01*
X183494000Y-85355165D02*
X183494000Y-85586835D01*
X157667979Y-74194400D02*
X158003221Y-74194400D01*
X157667979Y-74954400D02*
X158003221Y-74954400D01*
X181103000Y-81193621D02*
X181103000Y-80858379D01*
X181863000Y-81193621D02*
X181863000Y-80858379D01*
X144604665Y-117470600D02*
X144836335Y-117470600D01*
X144604665Y-118190600D02*
X144836335Y-118190600D01*
X155202979Y-78818798D02*
X155538221Y-78818798D01*
X155202979Y-79578798D02*
X155538221Y-79578798D01*
D13*
X183916000Y-92604000D02*
G75*
G02*
X183716000Y-92604000I-100000J0D01*
G01*
X183716000Y-92604000D02*
G75*
G02*
X183916000Y-92604000I100000J0D01*
G01*
D11*
X144528465Y-112060400D02*
X144760135Y-112060400D01*
X144528465Y-112780400D02*
X144760135Y-112780400D01*
X147507979Y-108738400D02*
X147843221Y-108738400D01*
X147507979Y-109498400D02*
X147843221Y-109498400D01*
X178180000Y-72243000D02*
X178180000Y-70343000D01*
X178180000Y-76143000D02*
X178180000Y-74143000D01*
X187580000Y-70343000D02*
X178180000Y-70343000D01*
X187580000Y-72243000D02*
X187580000Y-70343000D01*
X187580000Y-76143000D02*
X187580000Y-74143000D01*
D12*
X187280100Y-99669600D02*
G75*
G02*
X187180100Y-99669600I-50000J0D01*
G01*
X187180100Y-99669600D02*
G75*
G02*
X187280100Y-99669600I50000J0D01*
G01*
D11*
X183961200Y-108165000D02*
X183961200Y-109265000D01*
X185761200Y-108165000D02*
X185761200Y-109465000D01*
X183961200Y-109795000D02*
X183681200Y-109515000D01*
X183961200Y-109515000D01*
X183961200Y-109795000D01*
G36*
X183961200Y-109795000D02*
G01*
X183681200Y-109515000D01*
X183961200Y-109515000D01*
X183961200Y-109795000D01*
G37*
X176840335Y-90318000D02*
X176608665Y-90318000D01*
X176840335Y-91038000D02*
X176608665Y-91038000D01*
X151634879Y-74020000D02*
X151970121Y-74020000D01*
X151634879Y-74780000D02*
X151970121Y-74780000D01*
X149972765Y-117470600D02*
X150204435Y-117470600D01*
X149972765Y-118190600D02*
X150204435Y-118190600D01*
X155202979Y-75364400D02*
X155538221Y-75364400D01*
X155202979Y-76124400D02*
X155538221Y-76124400D01*
X155202979Y-76515866D02*
X155538221Y-76515866D01*
X155202979Y-77275866D02*
X155538221Y-77275866D01*
X186058121Y-80011000D02*
X185722879Y-80011000D01*
X186058121Y-80771000D02*
X185722879Y-80771000D01*
X178075000Y-91137665D02*
X178075000Y-91369335D01*
X178795000Y-91137665D02*
X178795000Y-91369335D01*
X182158621Y-110567200D02*
X181823379Y-110567200D01*
X182158621Y-111327200D02*
X181823379Y-111327200D01*
X146742621Y-74045000D02*
X146407379Y-74045000D01*
X146742621Y-74805000D02*
X146407379Y-74805000D01*
X183859435Y-87828800D02*
X183627765Y-87828800D01*
X183859435Y-88548800D02*
X183627765Y-88548800D01*
X143688500Y-115112800D02*
X143688500Y-114312800D01*
X143688500Y-115112800D02*
X143688500Y-115912800D01*
X146808500Y-115112800D02*
X146808500Y-114312800D01*
X146808500Y-115112800D02*
X146808500Y-115912800D01*
X143738500Y-116412800D02*
X143408500Y-116652800D01*
X143408500Y-116172800D01*
X143738500Y-116412800D01*
G36*
X143738500Y-116412800D02*
G01*
X143408500Y-116652800D01*
X143408500Y-116172800D01*
X143738500Y-116412800D01*
G37*
X145035000Y-83515000D02*
X162255000Y-83515000D01*
X145035000Y-100735000D02*
X145035000Y-83515000D01*
X145035000Y-100735000D02*
X161935000Y-100735000D01*
X162255000Y-83515000D02*
X162255000Y-100415000D01*
X162255000Y-101235000D02*
X162255000Y-100735000D01*
X162755000Y-100735000D01*
X162255000Y-101235000D01*
G36*
X162255000Y-101235000D02*
G01*
X162255000Y-100735000D01*
X162755000Y-100735000D01*
X162255000Y-101235000D01*
G37*
X155202979Y-77667332D02*
X155538221Y-77667332D01*
X155202979Y-78427332D02*
X155538221Y-78427332D01*
X180037665Y-84349000D02*
X180269335Y-84349000D01*
X180037665Y-85069000D02*
X180269335Y-85069000D01*
X155202979Y-79970264D02*
X155538221Y-79970264D01*
X155202979Y-80730264D02*
X155538221Y-80730264D01*
X184495135Y-111692800D02*
X184263465Y-111692800D01*
X184495135Y-112412800D02*
X184263465Y-112412800D01*
X176772835Y-88667000D02*
X176541165Y-88667000D01*
X176772835Y-89387000D02*
X176541165Y-89387000D01*
X182578321Y-83440000D02*
X182243079Y-83440000D01*
X182578321Y-84200000D02*
X182243079Y-84200000D01*
X157667979Y-75364400D02*
X158003221Y-75364400D01*
X157667979Y-76124400D02*
X158003221Y-76124400D01*
X147507979Y-107620800D02*
X147843221Y-107620800D01*
X147507979Y-108380800D02*
X147843221Y-108380800D01*
X176772835Y-87143000D02*
X176541165Y-87143000D01*
X176772835Y-87863000D02*
X176541165Y-87863000D01*
D14*
X169180000Y-94570800D02*
X169180000Y-102570800D01*
X169180000Y-102570800D02*
X175180000Y-102570800D01*
X175180000Y-94570800D02*
X169180000Y-94570800D01*
X175180000Y-102570800D02*
X175180000Y-94570800D01*
D13*
X175780000Y-100570800D02*
G75*
G02*
X175580000Y-100570800I-100000J0D01*
G01*
X175580000Y-100570800D02*
G75*
G02*
X175780000Y-100570800I100000J0D01*
G01*
D11*
X184511135Y-112822400D02*
X184279465Y-112822400D01*
X184511135Y-113542400D02*
X184279465Y-113542400D01*
D12*
X146411900Y-109118400D02*
G75*
G02*
X146311900Y-109118400I-50000J0D01*
G01*
X146311900Y-109118400D02*
G75*
G02*
X146411900Y-109118400I50000J0D01*
G01*
D11*
X167362521Y-79122000D02*
X167027279Y-79122000D01*
X167362521Y-79882000D02*
X167027279Y-79882000D01*
X182487835Y-88921000D02*
X182256165Y-88921000D01*
X182487835Y-89641000D02*
X182256165Y-89641000D01*
X165499200Y-84073600D02*
X165499200Y-84333600D01*
X165499200Y-89523600D02*
X165499200Y-89263600D01*
X168224200Y-84073600D02*
X165499200Y-84073600D01*
X168224200Y-84073600D02*
X170949200Y-84073600D01*
X168224200Y-89523600D02*
X165499200Y-89523600D01*
X168224200Y-89523600D02*
X170949200Y-89523600D01*
X170949200Y-84073600D02*
X170949200Y-84333600D01*
X170949200Y-89523600D02*
X170949200Y-89263600D01*
X171971700Y-89593600D02*
X171491700Y-89593600D01*
X171731700Y-89263600D01*
X171971700Y-89593600D01*
G36*
X171971700Y-89593600D02*
G01*
X171491700Y-89593600D01*
X171731700Y-89263600D01*
X171971700Y-89593600D01*
G37*
X186208400Y-94237121D02*
X186208400Y-93901879D01*
X186968400Y-94237121D02*
X186968400Y-93901879D01*
X184681479Y-84303600D02*
X185016721Y-84303600D01*
X184681479Y-85063600D02*
X185016721Y-85063600D01*
X181569367Y-107478800D02*
X181276833Y-107478800D01*
X181569367Y-108498800D02*
X181276833Y-108498800D01*
X149158335Y-74090000D02*
X148926665Y-74090000D01*
X149158335Y-74810000D02*
X148926665Y-74810000D01*
X175385000Y-77665733D02*
X175385000Y-78008267D01*
X176405000Y-77665733D02*
X176405000Y-78008267D01*
X174499000Y-87289621D02*
X174499000Y-86954379D01*
X175259000Y-87289621D02*
X175259000Y-86954379D01*
X147507979Y-109856000D02*
X147843221Y-109856000D01*
X147507979Y-110616000D02*
X147843221Y-110616000D01*
X182012000Y-93923665D02*
X182012000Y-94155335D01*
X182732000Y-93923665D02*
X182732000Y-94155335D01*
X180029665Y-88921000D02*
X180261335Y-88921000D01*
X180029665Y-89641000D02*
X180261335Y-89641000D01*
X155202979Y-81121734D02*
X155538221Y-81121734D01*
X155202979Y-81881734D02*
X155538221Y-81881734D01*
X183869852Y-105424600D02*
X183347348Y-105424600D01*
X183869852Y-106844600D02*
X183347348Y-106844600D01*
X181594767Y-109129800D02*
X181302233Y-109129800D01*
X181594767Y-110149800D02*
X181302233Y-110149800D01*
X184519835Y-96668000D02*
X184288165Y-96668000D01*
X184519835Y-97388000D02*
X184288165Y-97388000D01*
D12*
X146411900Y-108000800D02*
G75*
G02*
X146311900Y-108000800I-50000J0D01*
G01*
X146311900Y-108000800D02*
G75*
G02*
X146411900Y-108000800I50000J0D01*
G01*
D11*
X184520821Y-110567200D02*
X184185579Y-110567200D01*
X184520821Y-111327200D02*
X184185579Y-111327200D01*
X164892621Y-90045000D02*
X164557379Y-90045000D01*
X164892621Y-90805000D02*
X164557379Y-90805000D01*
X182398000Y-82148000D02*
X182398000Y-80848000D01*
X184378000Y-82148000D02*
X184378000Y-81098000D01*
X184658000Y-80728000D02*
X184378000Y-80728000D01*
X184378000Y-80448000D01*
X184658000Y-80728000D01*
G36*
X184658000Y-80728000D02*
G01*
X184378000Y-80728000D01*
X184378000Y-80448000D01*
X184658000Y-80728000D01*
G37*
X149062000Y-115112800D02*
X149062000Y-114312800D01*
X149062000Y-115112800D02*
X149062000Y-115912800D01*
X152182000Y-115112800D02*
X152182000Y-114312800D01*
X152182000Y-115112800D02*
X152182000Y-115912800D01*
X149112000Y-116412800D02*
X148782000Y-116652800D01*
X148782000Y-116172800D01*
X149112000Y-116412800D01*
G36*
X149112000Y-116412800D02*
G01*
X148782000Y-116652800D01*
X148782000Y-116172800D01*
X149112000Y-116412800D01*
G37*
X166959165Y-90065000D02*
X167190835Y-90065000D01*
X166959165Y-90785000D02*
X167190835Y-90785000D01*
X157667979Y-76515866D02*
X158003221Y-76515866D01*
X157667979Y-77275866D02*
X158003221Y-77275866D01*
X175535000Y-74814165D02*
X175535000Y-75045835D01*
X176255000Y-74814165D02*
X176255000Y-75045835D01*
X171136000Y-76591400D02*
X171136000Y-71451400D01*
X173796000Y-71451400D02*
X171136000Y-71451400D01*
X173796000Y-76591400D02*
X171136000Y-76591400D01*
X173796000Y-76591400D02*
X173796000Y-71451400D01*
X173796000Y-77861400D02*
X173796000Y-79191400D01*
X173796000Y-79191400D02*
X172466000Y-79191400D01*
%LPC*%
D15*
X149614000Y-112420400D03*
X150749000Y-112420400D03*
D16*
X173736000Y-87719500D03*
X173736000Y-86524500D03*
D17*
X177292000Y-86419500D03*
X177292000Y-85284500D03*
D18*
X184260300Y-87122000D03*
X183125300Y-87122000D03*
D19*
X154773100Y-74574400D03*
X155968100Y-74574400D03*
D15*
X179772500Y-88138000D03*
X180907500Y-88138000D03*
D20*
X186576300Y-100888800D03*
X185381300Y-100888800D03*
D15*
X179772500Y-86741000D03*
X180907500Y-86741000D03*
D21*
X145669400Y-110236000D03*
X144524400Y-110236000D03*
D20*
X165354000Y-79502000D03*
X164159000Y-79502000D03*
D18*
X149460000Y-77250000D03*
X148325000Y-77250000D03*
D22*
X183134000Y-84903500D03*
X183134000Y-86038500D03*
D19*
X157238100Y-74574400D03*
X158433100Y-74574400D03*
D16*
X181483000Y-81623500D03*
X181483000Y-80428500D03*
D15*
X144153000Y-117830600D03*
X145288000Y-117830600D03*
D19*
X154773100Y-79198798D03*
X155968100Y-79198798D03*
D23*
X183866000Y-93804000D03*
X183866000Y-95504000D03*
X185166000Y-95504000D03*
X185166000Y-93804000D03*
D15*
X144076800Y-112420400D03*
X145211800Y-112420400D03*
D19*
X147078100Y-109118400D03*
X148273100Y-109118400D03*
D24*
X185770000Y-76843000D03*
X179990000Y-76843000D03*
D25*
X186130000Y-78288000D03*
X185330000Y-78288000D03*
D26*
X184130000Y-78288000D03*
X183130000Y-78288000D03*
X182630000Y-78288000D03*
X181630000Y-78288000D03*
D25*
X180430000Y-78288000D03*
X179630000Y-78288000D03*
X179630000Y-78288000D03*
X180430000Y-78288000D03*
D26*
X181130000Y-78288000D03*
X182130000Y-78288000D03*
X183630000Y-78288000D03*
X184630000Y-78288000D03*
D25*
X185330000Y-78288000D03*
X186130000Y-78288000D03*
D27*
X187200000Y-77373000D03*
D28*
X187200000Y-73193000D03*
D27*
X178560000Y-77373000D03*
D28*
X178560000Y-73193000D03*
D21*
X186537600Y-99669600D03*
X185392600Y-99669600D03*
D29*
X184361200Y-109565000D03*
X184861200Y-109565000D03*
X185361200Y-109565000D03*
X185361200Y-108065000D03*
X184861200Y-108065000D03*
X184361200Y-108065000D03*
D18*
X177292000Y-90678000D03*
X176157000Y-90678000D03*
D19*
X151205000Y-74400000D03*
X152400000Y-74400000D03*
D15*
X149521100Y-117830600D03*
X150656100Y-117830600D03*
D19*
X154773100Y-75744400D03*
X155968100Y-75744400D03*
X154773100Y-76895866D03*
X155968100Y-76895866D03*
D20*
X186488000Y-80391000D03*
X185293000Y-80391000D03*
D22*
X178435000Y-90686000D03*
X178435000Y-91821000D03*
D20*
X182588500Y-110947200D03*
X181393500Y-110947200D03*
X147172500Y-74425000D03*
X145977500Y-74425000D03*
D18*
X184311100Y-88188800D03*
X183176100Y-88188800D03*
D30*
X144298500Y-116250300D03*
X145248500Y-116250300D03*
X146198500Y-116250300D03*
X146198500Y-113975300D03*
X144298500Y-113975300D03*
D31*
X160445000Y-99725000D03*
X159645000Y-99725000D03*
X158845000Y-99725000D03*
X158045000Y-99725000D03*
X157245000Y-99725000D03*
X156445000Y-99725000D03*
X155645000Y-99725000D03*
X154845000Y-99725000D03*
X154045000Y-99725000D03*
X153245000Y-99725000D03*
X152445000Y-99725000D03*
X151645000Y-99725000D03*
X150845000Y-99725000D03*
X150045000Y-99725000D03*
X149245000Y-99725000D03*
X148445000Y-99725000D03*
X147645000Y-99725000D03*
X146845000Y-99725000D03*
X161245000Y-98925000D03*
X160445000Y-98925000D03*
X159645000Y-98925000D03*
X158845000Y-98925000D03*
X158045000Y-98925000D03*
X157245000Y-98925000D03*
X156445000Y-98925000D03*
X155645000Y-98925000D03*
X154845000Y-98925000D03*
X154045000Y-98925000D03*
X153245000Y-98925000D03*
X152445000Y-98925000D03*
X151645000Y-98925000D03*
X150845000Y-98925000D03*
X150045000Y-98925000D03*
X149245000Y-98925000D03*
X148445000Y-98925000D03*
X147645000Y-98925000D03*
X146845000Y-98925000D03*
X146045000Y-98925000D03*
X161245000Y-98125000D03*
X160445000Y-98125000D03*
X159645000Y-98125000D03*
X158845000Y-98125000D03*
X158045000Y-98125000D03*
X157245000Y-98125000D03*
X156445000Y-98125000D03*
X155645000Y-98125000D03*
X154845000Y-98125000D03*
X154045000Y-98125000D03*
X153245000Y-98125000D03*
X152445000Y-98125000D03*
X151645000Y-98125000D03*
X150845000Y-98125000D03*
X150045000Y-98125000D03*
X149245000Y-98125000D03*
X148445000Y-98125000D03*
X147645000Y-98125000D03*
X146845000Y-98125000D03*
X146045000Y-98125000D03*
X161245000Y-97325000D03*
X160445000Y-97325000D03*
X159645000Y-97325000D03*
X158845000Y-97325000D03*
X158045000Y-97325000D03*
X157245000Y-97325000D03*
X156445000Y-97325000D03*
X155645000Y-97325000D03*
X154845000Y-97325000D03*
X154045000Y-97325000D03*
X153245000Y-97325000D03*
X152445000Y-97325000D03*
X151645000Y-97325000D03*
X150845000Y-97325000D03*
X150045000Y-97325000D03*
X149245000Y-97325000D03*
X148445000Y-97325000D03*
X147645000Y-97325000D03*
X146845000Y-97325000D03*
X146045000Y-97325000D03*
X161245000Y-96525000D03*
X160445000Y-96525000D03*
X159645000Y-96525000D03*
X158845000Y-96525000D03*
X158045000Y-96525000D03*
X157245000Y-96525000D03*
X156445000Y-96525000D03*
X155645000Y-96525000D03*
X154845000Y-96525000D03*
X154045000Y-96525000D03*
X153245000Y-96525000D03*
X152445000Y-96525000D03*
X151645000Y-96525000D03*
X150845000Y-96525000D03*
X150045000Y-96525000D03*
X149245000Y-96525000D03*
X148445000Y-96525000D03*
X147645000Y-96525000D03*
X146845000Y-96525000D03*
X146045000Y-96525000D03*
X161245000Y-95725000D03*
X160445000Y-95725000D03*
X159645000Y-95725000D03*
X158845000Y-95725000D03*
X158045000Y-95725000D03*
X157245000Y-95725000D03*
X156445000Y-95725000D03*
X155645000Y-95725000D03*
X154845000Y-95725000D03*
X154045000Y-95725000D03*
X153245000Y-95725000D03*
X152445000Y-95725000D03*
X151645000Y-95725000D03*
X150845000Y-95725000D03*
X150045000Y-95725000D03*
X149245000Y-95725000D03*
X148445000Y-95725000D03*
X147645000Y-95725000D03*
X146845000Y-95725000D03*
X146045000Y-95725000D03*
X161245000Y-94925000D03*
X160445000Y-94925000D03*
X159645000Y-94925000D03*
X158845000Y-94925000D03*
X158045000Y-94925000D03*
X157245000Y-94925000D03*
X156445000Y-94925000D03*
X155645000Y-94925000D03*
X154845000Y-94925000D03*
X154045000Y-94925000D03*
X153245000Y-94925000D03*
X152445000Y-94925000D03*
X151645000Y-94925000D03*
X150845000Y-94925000D03*
X150045000Y-94925000D03*
X149245000Y-94925000D03*
X148445000Y-94925000D03*
X147645000Y-94925000D03*
X146845000Y-94925000D03*
X146045000Y-94925000D03*
X161245000Y-94125000D03*
X160445000Y-94125000D03*
X159645000Y-94125000D03*
X158845000Y-94125000D03*
X158045000Y-94125000D03*
X157245000Y-94125000D03*
X156445000Y-94125000D03*
X155645000Y-94125000D03*
X154845000Y-94125000D03*
X154045000Y-94125000D03*
X153245000Y-94125000D03*
X152445000Y-94125000D03*
X151645000Y-94125000D03*
X150845000Y-94125000D03*
X150045000Y-94125000D03*
X149245000Y-94125000D03*
X148445000Y-94125000D03*
X147645000Y-94125000D03*
X146845000Y-94125000D03*
X146045000Y-94125000D03*
X161245000Y-93325000D03*
X160445000Y-93325000D03*
X159645000Y-93325000D03*
X158845000Y-93325000D03*
X158045000Y-93325000D03*
X157245000Y-93325000D03*
X156445000Y-93325000D03*
X155645000Y-93325000D03*
X154845000Y-93325000D03*
X154045000Y-93325000D03*
X153245000Y-93325000D03*
X152445000Y-93325000D03*
X151645000Y-93325000D03*
X150845000Y-93325000D03*
X150045000Y-93325000D03*
X149245000Y-93325000D03*
X148445000Y-93325000D03*
X147645000Y-93325000D03*
X146845000Y-93325000D03*
X146045000Y-93325000D03*
X161245000Y-92525000D03*
X160445000Y-92525000D03*
X159645000Y-92525000D03*
X158845000Y-92525000D03*
X158045000Y-92525000D03*
X157245000Y-92525000D03*
X156445000Y-92525000D03*
X155645000Y-92525000D03*
X154845000Y-92525000D03*
X154045000Y-92525000D03*
X153245000Y-92525000D03*
X152445000Y-92525000D03*
X151645000Y-92525000D03*
X150845000Y-92525000D03*
X150045000Y-92525000D03*
X149245000Y-92525000D03*
X148445000Y-92525000D03*
X147645000Y-92525000D03*
X146845000Y-92525000D03*
X146045000Y-92525000D03*
X161245000Y-91725000D03*
X160445000Y-91725000D03*
X159645000Y-91725000D03*
X158845000Y-91725000D03*
X158045000Y-91725000D03*
X157245000Y-91725000D03*
X156445000Y-91725000D03*
X155645000Y-91725000D03*
X154845000Y-91725000D03*
X154045000Y-91725000D03*
X153245000Y-91725000D03*
X152445000Y-91725000D03*
X151645000Y-91725000D03*
X150845000Y-91725000D03*
X150045000Y-91725000D03*
X149245000Y-91725000D03*
X148445000Y-91725000D03*
X147645000Y-91725000D03*
X146845000Y-91725000D03*
X146045000Y-91725000D03*
X161245000Y-90925000D03*
X160445000Y-90925000D03*
X159645000Y-90925000D03*
X158845000Y-90925000D03*
X158045000Y-90925000D03*
X157245000Y-90925000D03*
X156445000Y-90925000D03*
X155645000Y-90925000D03*
X154845000Y-90925000D03*
X154045000Y-90925000D03*
X153245000Y-90925000D03*
X152445000Y-90925000D03*
X151645000Y-90925000D03*
X150845000Y-90925000D03*
X150045000Y-90925000D03*
X149245000Y-90925000D03*
X148445000Y-90925000D03*
X147645000Y-90925000D03*
X146845000Y-90925000D03*
X146045000Y-90925000D03*
X161245000Y-90125000D03*
X160445000Y-90125000D03*
X159645000Y-90125000D03*
X158845000Y-90125000D03*
X158045000Y-90125000D03*
X157245000Y-90125000D03*
X156445000Y-90125000D03*
X155645000Y-90125000D03*
X154845000Y-90125000D03*
X154045000Y-90125000D03*
X153245000Y-90125000D03*
X152445000Y-90125000D03*
X151645000Y-90125000D03*
X150845000Y-90125000D03*
X150045000Y-90125000D03*
X149245000Y-90125000D03*
X148445000Y-90125000D03*
X147645000Y-90125000D03*
X146845000Y-90125000D03*
X146045000Y-90125000D03*
X161245000Y-89325000D03*
X160445000Y-89325000D03*
X159645000Y-89325000D03*
X158845000Y-89325000D03*
X158045000Y-89325000D03*
X157245000Y-89325000D03*
X156445000Y-89325000D03*
X155645000Y-89325000D03*
X154845000Y-89325000D03*
X154045000Y-89325000D03*
X153245000Y-89325000D03*
X152445000Y-89325000D03*
X151645000Y-89325000D03*
X150845000Y-89325000D03*
X150045000Y-89325000D03*
X149245000Y-89325000D03*
X148445000Y-89325000D03*
X147645000Y-89325000D03*
X146845000Y-89325000D03*
X146045000Y-89325000D03*
X161245000Y-88525000D03*
X160445000Y-88525000D03*
X159645000Y-88525000D03*
X158845000Y-88525000D03*
X158045000Y-88525000D03*
X149245000Y-88525000D03*
X148445000Y-88525000D03*
X147645000Y-88525000D03*
X146845000Y-88525000D03*
X146045000Y-88525000D03*
X161245000Y-87725000D03*
X160445000Y-87725000D03*
X159645000Y-87725000D03*
X158845000Y-87725000D03*
X158045000Y-87725000D03*
X157245000Y-87725000D03*
X156445000Y-87725000D03*
X155645000Y-87725000D03*
X154845000Y-87725000D03*
X154045000Y-87725000D03*
X153245000Y-87725000D03*
X152445000Y-87725000D03*
X151645000Y-87725000D03*
X150845000Y-87725000D03*
X150045000Y-87725000D03*
X149245000Y-87725000D03*
X148445000Y-87725000D03*
X147645000Y-87725000D03*
X146845000Y-87725000D03*
X146045000Y-87725000D03*
X161245000Y-86925000D03*
X160445000Y-86925000D03*
X159645000Y-86925000D03*
X158845000Y-86925000D03*
X158045000Y-86925000D03*
X157245000Y-86925000D03*
X156445000Y-86925000D03*
X155645000Y-86925000D03*
X154845000Y-86925000D03*
X154045000Y-86925000D03*
X153245000Y-86925000D03*
X152445000Y-86925000D03*
X151645000Y-86925000D03*
X150845000Y-86925000D03*
X150045000Y-86925000D03*
X149245000Y-86925000D03*
X148445000Y-86925000D03*
X147645000Y-86925000D03*
X146845000Y-86925000D03*
X146045000Y-86925000D03*
X161245000Y-86125000D03*
X160445000Y-86125000D03*
X159645000Y-86125000D03*
X158845000Y-86125000D03*
X158045000Y-86125000D03*
X157245000Y-86125000D03*
X156445000Y-86125000D03*
X155645000Y-86125000D03*
X154845000Y-86125000D03*
X154045000Y-86125000D03*
X153245000Y-86125000D03*
X152445000Y-86125000D03*
X151645000Y-86125000D03*
X150845000Y-86125000D03*
X150045000Y-86125000D03*
X149245000Y-86125000D03*
X148445000Y-86125000D03*
X147645000Y-86125000D03*
X146845000Y-86125000D03*
X146045000Y-86125000D03*
X161245000Y-85325000D03*
X160445000Y-85325000D03*
X159645000Y-85325000D03*
X158845000Y-85325000D03*
X158045000Y-85325000D03*
X157245000Y-85325000D03*
X156445000Y-85325000D03*
X155645000Y-85325000D03*
X154845000Y-85325000D03*
X154045000Y-85325000D03*
X153245000Y-85325000D03*
X152445000Y-85325000D03*
X151645000Y-85325000D03*
X150845000Y-85325000D03*
X150045000Y-85325000D03*
X149245000Y-85325000D03*
X148445000Y-85325000D03*
X147645000Y-85325000D03*
X146845000Y-85325000D03*
X146045000Y-85325000D03*
X160445000Y-84525000D03*
X159645000Y-84525000D03*
X158045000Y-84525000D03*
X157245000Y-84525000D03*
X156445000Y-84525000D03*
X155645000Y-84525000D03*
X153245000Y-84525000D03*
X152445000Y-84525000D03*
X150845000Y-84525000D03*
X150045000Y-84525000D03*
X149245000Y-84525000D03*
X148445000Y-84525000D03*
X146845000Y-84525000D03*
D19*
X154773100Y-78047332D03*
X155968100Y-78047332D03*
D15*
X179586000Y-84709000D03*
X180721000Y-84709000D03*
D19*
X154773100Y-80350264D03*
X155968100Y-80350264D03*
D18*
X184946800Y-112052800D03*
X183811800Y-112052800D03*
X177224500Y-89027000D03*
X176089500Y-89027000D03*
D20*
X183008200Y-83820000D03*
X181813200Y-83820000D03*
D19*
X157238100Y-75744400D03*
X158433100Y-75744400D03*
X147078100Y-108000800D03*
X148273100Y-108000800D03*
D18*
X177224500Y-87503000D03*
X176089500Y-87503000D03*
D32*
X173180000Y-100570800D03*
X172180000Y-100570800D03*
X171180000Y-100570800D03*
X170180000Y-100570800D03*
X174180000Y-99570800D03*
X173180000Y-99570800D03*
X172180000Y-99570800D03*
X171180000Y-99570800D03*
X170180000Y-99570800D03*
X174180000Y-98570800D03*
X173180000Y-98570800D03*
X172180000Y-98570800D03*
X171180000Y-98570800D03*
X170180000Y-98570800D03*
X174180000Y-97570800D03*
X173180000Y-97570800D03*
X172180000Y-97570800D03*
X171180000Y-97570800D03*
X170180000Y-97570800D03*
X174180000Y-96570800D03*
X173180000Y-96570800D03*
X172180000Y-96570800D03*
X171180000Y-96570800D03*
X170180000Y-96570800D03*
D18*
X184962800Y-113182400D03*
X183827800Y-113182400D03*
D21*
X145669400Y-109118400D03*
X144524400Y-109118400D03*
D20*
X167792400Y-79502000D03*
X166597400Y-79502000D03*
D18*
X182939500Y-89281000D03*
X181804500Y-89281000D03*
D33*
X171824200Y-88703600D03*
X171824200Y-87433600D03*
X171824200Y-86163600D03*
X171824200Y-84893600D03*
X164624200Y-84893600D03*
X164624200Y-86163600D03*
X164624200Y-87433600D03*
X164624200Y-88703600D03*
D16*
X186588400Y-94667000D03*
X186588400Y-93472000D03*
D19*
X184251600Y-84683600D03*
X185446600Y-84683600D03*
D34*
X182285600Y-107988800D03*
X180560600Y-107988800D03*
D18*
X149610000Y-74450000D03*
X148475000Y-74450000D03*
D35*
X175895000Y-76962000D03*
X175895000Y-78712000D03*
D16*
X174879000Y-87719500D03*
X174879000Y-86524500D03*
D19*
X147078100Y-110236000D03*
X148273100Y-110236000D03*
D22*
X182372000Y-93472000D03*
X182372000Y-94607000D03*
D15*
X179578000Y-89281000D03*
X180713000Y-89281000D03*
D19*
X154773100Y-81501734D03*
X155968100Y-81501734D03*
D36*
X184633600Y-106134600D03*
X182583600Y-106134600D03*
D34*
X182311000Y-109639800D03*
X180586000Y-109639800D03*
D18*
X184971500Y-97028000D03*
X183836500Y-97028000D03*
D21*
X145669400Y-108000800D03*
X144524400Y-108000800D03*
D20*
X184950700Y-110947200D03*
X183755700Y-110947200D03*
X165322500Y-90425000D03*
X164127500Y-90425000D03*
D37*
X183925500Y-80648000D03*
D38*
X183388000Y-80573000D03*
D37*
X182850500Y-80648000D03*
X182850500Y-82348000D03*
D38*
X183388000Y-82423000D03*
D37*
X183925500Y-82348000D03*
D30*
X149672000Y-116250300D03*
X150622000Y-116250300D03*
X151572000Y-116250300D03*
X151572000Y-113975300D03*
X149672000Y-113975300D03*
D15*
X166507500Y-90425000D03*
X167642500Y-90425000D03*
D19*
X157238100Y-76895866D03*
X158433100Y-76895866D03*
D22*
X175895000Y-74362500D03*
X175895000Y-75497500D03*
D39*
X172466000Y-77861400D03*
D40*
X172466000Y-75321400D03*
X172466000Y-72781400D03*
%LPD*%
M02*
