%TF.GenerationSoftware,KiCad,Pcbnew,8.0.4*%
%TF.CreationDate,2024-08-25T14:13:04+02:00*%
%TF.ProjectId,fpga_extension,66706761-5f65-4787-9465-6e73696f6e2e,rev?*%
%TF.SameCoordinates,Original*%
%TF.FileFunction,Copper,L3,Inr*%
%TF.FilePolarity,Positive*%
%FSLAX46Y46*%
G04 Gerber Fmt 4.6, Leading zero omitted, Abs format (unit mm)*
G04 Created by KiCad (PCBNEW 8.0.4) date 2024-08-25 14:13:04*
%MOMM*%
%LPD*%
G01*
G04 APERTURE LIST*
%TA.AperFunction,ComponentPad*%
%ADD10O,1.000000X2.100000*%
%TD*%
%TA.AperFunction,ComponentPad*%
%ADD11O,1.000000X1.600000*%
%TD*%
%TA.AperFunction,ComponentPad*%
%ADD12R,1.700000X1.700000*%
%TD*%
%TA.AperFunction,ComponentPad*%
%ADD13O,1.700000X1.700000*%
%TD*%
%TA.AperFunction,ViaPad*%
%ADD14C,0.406400*%
%TD*%
%TA.AperFunction,ViaPad*%
%ADD15C,0.711200*%
%TD*%
%TA.AperFunction,ViaPad*%
%ADD16C,0.600000*%
%TD*%
%TA.AperFunction,Conductor*%
%ADD17C,0.457200*%
%TD*%
%TA.AperFunction,Conductor*%
%ADD18C,0.609600*%
%TD*%
%TA.AperFunction,Conductor*%
%ADD19C,0.245364*%
%TD*%
G04 APERTURE END LIST*
D10*
X187200000Y-77373000D03*
D11*
X187200000Y-73193000D03*
D10*
X178560000Y-77373000D03*
D11*
X178560000Y-73193000D03*
D12*
X172466000Y-77861400D03*
D13*
X172466000Y-75321400D03*
X172466000Y-72781400D03*
D14*
X182311000Y-109639800D03*
D15*
X182583600Y-106134600D03*
D14*
X184950700Y-110947200D03*
D15*
X159867600Y-82118200D03*
X142722600Y-88537400D03*
X166104600Y-81610200D03*
D14*
X171180000Y-96570800D03*
X157245000Y-94125000D03*
D15*
X149614000Y-112420400D03*
D14*
X157245000Y-93325000D03*
X171180000Y-99570800D03*
X174180000Y-97570800D03*
X156445000Y-94125000D03*
D15*
X148767800Y-113944400D03*
X157556200Y-100558600D03*
D14*
X150045000Y-95725000D03*
D15*
X144076800Y-112420400D03*
D14*
X150045000Y-89325000D03*
X157245000Y-95725000D03*
D15*
X143433800Y-113995200D03*
D14*
X157245000Y-89325000D03*
X186385200Y-85598000D03*
X177224500Y-89027000D03*
X184311100Y-88188800D03*
X177224500Y-87503000D03*
X154845000Y-90125000D03*
X151645000Y-90125000D03*
X153245000Y-94092500D03*
D15*
X161086800Y-83058000D03*
D14*
X150045000Y-87725000D03*
X150045000Y-86925000D03*
X157245000Y-87725000D03*
X157245000Y-86925000D03*
X175768000Y-72796400D03*
X185521600Y-81381600D03*
X174447200Y-77876400D03*
X187350400Y-89204800D03*
X157861000Y-107061000D03*
X165989800Y-111574000D03*
X181483000Y-97282000D03*
X154965400Y-101015800D03*
X177292000Y-106172000D03*
X168529800Y-115474000D03*
X148590000Y-104140000D03*
X177165000Y-104648000D03*
X167259800Y-111574000D03*
X157734000Y-102108000D03*
X180022500Y-93408500D03*
X161544000Y-107950000D03*
X146862800Y-103886000D03*
X150876000Y-103378000D03*
X157708600Y-108940600D03*
X169722800Y-109651800D03*
X153035000Y-102616000D03*
X163449800Y-111574000D03*
X177292000Y-95631000D03*
X166624000Y-107950000D03*
X180086000Y-94869000D03*
X162814000Y-109220000D03*
X180086000Y-96520000D03*
X164084000Y-107950000D03*
X160274000Y-109220000D03*
X177292000Y-93091000D03*
X165354000Y-109220000D03*
X178562000Y-98171000D03*
X177292000Y-94361000D03*
X162179800Y-111574000D03*
X154051000Y-104902000D03*
D16*
X171069800Y-115474000D03*
D14*
X187096400Y-91643200D03*
X177292000Y-97409000D03*
X164719800Y-111574000D03*
X154051000Y-101854000D03*
X148844000Y-102870000D03*
X154470100Y-112560100D03*
X184277000Y-84709000D03*
X158045000Y-87725000D03*
X158045000Y-88525000D03*
X181737000Y-84709000D03*
X158845000Y-86125000D03*
X166624000Y-79502000D03*
X164159000Y-79502000D03*
X158045000Y-86925000D03*
X158845000Y-88525000D03*
X174498000Y-82931000D03*
X159645000Y-84525000D03*
X168021000Y-80518000D03*
X163169600Y-86156800D03*
X162509200Y-87579200D03*
X160121600Y-79095600D03*
X158845000Y-87725000D03*
X177927000Y-80645000D03*
X159645000Y-86125000D03*
X169291000Y-82550000D03*
X158845000Y-86925000D03*
X175133000Y-80264000D03*
X156972000Y-79857600D03*
X159645000Y-85325000D03*
X168021000Y-83058000D03*
X161036000Y-78740000D03*
X186436000Y-86766400D03*
X186436000Y-84429600D03*
X173024800Y-91541600D03*
X186740800Y-82854800D03*
X171145200Y-91287600D03*
X175996600Y-86791800D03*
X172847000Y-86791800D03*
X174879000Y-87719500D03*
X175133000Y-88773000D03*
X154845000Y-89325000D03*
X178435000Y-90551000D03*
D15*
X149900000Y-75825000D03*
X167436800Y-84912200D03*
D14*
X150045000Y-90925000D03*
D15*
X176149000Y-111709200D03*
X166507500Y-90425000D03*
D14*
X171220200Y-83235800D03*
X154045000Y-89325000D03*
X184260300Y-87122000D03*
X179772500Y-86741000D03*
X179586000Y-84709000D03*
D15*
X165322500Y-90425000D03*
D14*
X154045000Y-95725000D03*
X179578000Y-89281000D03*
X157245000Y-90925000D03*
X150045000Y-94125000D03*
X157245000Y-91725000D03*
X182939500Y-89281000D03*
X150045000Y-91725000D03*
X177292000Y-90678000D03*
X154845000Y-95725000D03*
X179772500Y-88138000D03*
D15*
X166200000Y-88900000D03*
D14*
X183134000Y-84903500D03*
X150045000Y-93325000D03*
X156445000Y-91725000D03*
X150845000Y-91725000D03*
X150845000Y-94125000D03*
X152445000Y-95725000D03*
X153245000Y-95725000D03*
X156445000Y-98925000D03*
X152445000Y-86125000D03*
X180797200Y-87503000D03*
D15*
X147700000Y-75825000D03*
D14*
X145084800Y-91795600D03*
X155645000Y-86925000D03*
X153245000Y-92525000D03*
X150045000Y-92525000D03*
X152445000Y-90925000D03*
X156445000Y-94925000D03*
X156445000Y-90125000D03*
X149245000Y-86125000D03*
X180797200Y-88188800D03*
X154845000Y-90925000D03*
X150845000Y-86125000D03*
X180713000Y-89281000D03*
D15*
X162280600Y-80848200D03*
D14*
X184404000Y-85699600D03*
D15*
X141909800Y-81508600D03*
D14*
X151645000Y-94925000D03*
D15*
X168150000Y-89325000D03*
D14*
X183388000Y-80010000D03*
X148445000Y-94925000D03*
X143921000Y-99949000D03*
X157245000Y-90125000D03*
X149245000Y-85325000D03*
X160445000Y-90925000D03*
X181483000Y-81623500D03*
X150845000Y-93325000D03*
X154045000Y-86925000D03*
X151645000Y-86925000D03*
X154845000Y-86925000D03*
X150845000Y-92525000D03*
X158433100Y-74574400D03*
X176157000Y-90678000D03*
X153245000Y-91725000D03*
X152445000Y-85325000D03*
X154845000Y-92525000D03*
X151645000Y-95725000D03*
D15*
X146227800Y-117805200D03*
D14*
X182321200Y-88188800D03*
X152445000Y-91725000D03*
D15*
X175895000Y-74362500D03*
D14*
X157245000Y-86125000D03*
X183159400Y-86029800D03*
X154045000Y-93325000D03*
X150045000Y-85325000D03*
X158845000Y-94925000D03*
X146845000Y-88525000D03*
D15*
X173609000Y-113538000D03*
X150622000Y-115062000D03*
X151460200Y-117830600D03*
X180594000Y-110947200D03*
D14*
X184861200Y-108940600D03*
X180797200Y-86766400D03*
X174180000Y-98570800D03*
X155645000Y-89325000D03*
X156445000Y-93325000D03*
X177165000Y-84201000D03*
X154845000Y-86125000D03*
X142392400Y-95808800D03*
D15*
X155854400Y-117398800D03*
D14*
X156445000Y-86125000D03*
X181804500Y-89281000D03*
X150845000Y-95725000D03*
X142400400Y-96824800D03*
X156445000Y-86925000D03*
D15*
X158343600Y-73228200D03*
D14*
X150845000Y-89325000D03*
X154045000Y-92525000D03*
D15*
X180389000Y-114366000D03*
D14*
X186130000Y-78288000D03*
X145186400Y-93014800D03*
X156445000Y-95725000D03*
X153245000Y-89325000D03*
X158433100Y-75744400D03*
X181559200Y-88188800D03*
X150845000Y-90925000D03*
X148273100Y-108000800D03*
X172180000Y-99570800D03*
D15*
X180543200Y-106908600D03*
D14*
X146045000Y-86125000D03*
X156445000Y-89325000D03*
X179630000Y-78288000D03*
X150845000Y-86925000D03*
X153245000Y-93325000D03*
X148475000Y-74450000D03*
X182321200Y-86055200D03*
X186488000Y-80391000D03*
X160445000Y-93325000D03*
X146845000Y-98125000D03*
X152445000Y-86925000D03*
X156445000Y-90925000D03*
X176089500Y-89027000D03*
X146845000Y-85325000D03*
D15*
X141859000Y-73228200D03*
D14*
X152445000Y-89325000D03*
X157245000Y-94925000D03*
D15*
X172339000Y-109220000D03*
X179451000Y-109651800D03*
D14*
X158433100Y-76895866D03*
X151645000Y-86125000D03*
D15*
X155840000Y-109470000D03*
D14*
X180721000Y-84709000D03*
X154045000Y-94925000D03*
D15*
X182778400Y-112877600D03*
D16*
X184810400Y-98094800D03*
D14*
X181559200Y-86055200D03*
X154845000Y-93325000D03*
X154045000Y-91725000D03*
X148273100Y-109118400D03*
X150045000Y-94925000D03*
X146845000Y-86125000D03*
D15*
X173355000Y-85090000D03*
D16*
X185166000Y-93804000D03*
D14*
X156445000Y-92525000D03*
X181559200Y-86766400D03*
X183159400Y-88163400D03*
X153245000Y-86925000D03*
X153245000Y-94925000D03*
X157245000Y-92525000D03*
X150845000Y-94925000D03*
D15*
X158242000Y-81483200D03*
D14*
X176089500Y-87503000D03*
X156445000Y-85325000D03*
X181559200Y-87503000D03*
X180797200Y-86055200D03*
X170180000Y-96570800D03*
X154845000Y-94925000D03*
X184861200Y-110210600D03*
X150845000Y-98925000D03*
X153245000Y-90925000D03*
X157245000Y-85325000D03*
X146845000Y-94125000D03*
X155645000Y-86125000D03*
X182321200Y-87503000D03*
X185381300Y-100888800D03*
D15*
X173355000Y-88874600D03*
D14*
X152445000Y-94925000D03*
X152445000Y-92525000D03*
X155645000Y-94925000D03*
D15*
X145237200Y-115112800D03*
D14*
X152445000Y-93325000D03*
X154045000Y-90925000D03*
X183201500Y-87122000D03*
X150045000Y-86125000D03*
D15*
X145211800Y-112420400D03*
D14*
X182321200Y-86766400D03*
X148273100Y-110236000D03*
X154845000Y-91725000D03*
X178435000Y-91821000D03*
D15*
X150749000Y-112420400D03*
D14*
X165473000Y-83312000D03*
X155645000Y-95725000D03*
X151645000Y-89325000D03*
X158845000Y-97325000D03*
D15*
X147218400Y-116230400D03*
D14*
X184861200Y-107315000D03*
D15*
X186182000Y-118110000D03*
X152501600Y-116281200D03*
X184962800Y-113182400D03*
X180721000Y-119126000D03*
X143459200Y-116255800D03*
X148717000Y-116255800D03*
D14*
X185928000Y-109550200D03*
D15*
X186055000Y-114554000D03*
X176530000Y-80899000D03*
D14*
X152100000Y-75825000D03*
X146456400Y-78917800D03*
X145500000Y-75825000D03*
X146600000Y-75825000D03*
X153200000Y-75825000D03*
X151000000Y-75825000D03*
X143840200Y-101396800D03*
X185392600Y-99669600D03*
D17*
X142798800Y-88461200D02*
X142722600Y-88537400D01*
D18*
X177419000Y-82550000D02*
X178435000Y-83566000D01*
X181229000Y-95504000D02*
X182583600Y-96858600D01*
D17*
X157657800Y-83921600D02*
X146024600Y-83921600D01*
D18*
X166104600Y-81610200D02*
X175463200Y-81610200D01*
X176403000Y-82550000D02*
X177419000Y-82550000D01*
D17*
X159461200Y-82118200D02*
X157657800Y-83921600D01*
D18*
X182583600Y-96858600D02*
X182583600Y-106134600D01*
X178435000Y-83566000D02*
X178435000Y-89408000D01*
X181229000Y-92202000D02*
X181229000Y-95504000D01*
X178435000Y-89408000D02*
X181229000Y-92202000D01*
D17*
X142798800Y-87147400D02*
X142798800Y-88461200D01*
X146024600Y-83921600D02*
X142798800Y-87147400D01*
X159867600Y-82118200D02*
X159461200Y-82118200D01*
D18*
X175463200Y-81610200D02*
X176403000Y-82550000D01*
X153619200Y-103682800D02*
X155524200Y-101777800D01*
X156337000Y-101777800D02*
X157556200Y-100558600D01*
D19*
X171180000Y-99570800D02*
X168348400Y-99570800D01*
D17*
X148767800Y-113944400D02*
X148767800Y-113266600D01*
D18*
X156133800Y-101777800D02*
X156337000Y-101777800D01*
X155524200Y-101777800D02*
X156133800Y-101777800D01*
X149614000Y-107688000D02*
X153619200Y-103682800D01*
X149614000Y-112420400D02*
X149614000Y-107688000D01*
D19*
X167360600Y-100558600D02*
X167843200Y-100076000D01*
X167843200Y-100076000D02*
X171180000Y-96739200D01*
X171180000Y-96570800D02*
X173180000Y-96570800D01*
X156445000Y-94125000D02*
X157245000Y-94125000D01*
X157245000Y-94125000D02*
X157245000Y-93325000D01*
X157556200Y-100558600D02*
X167360600Y-100558600D01*
X168348400Y-99570800D02*
X167843200Y-100076000D01*
D17*
X148767800Y-113266600D02*
X149614000Y-112420400D01*
D19*
X173180000Y-96570800D02*
X174180000Y-97570800D01*
X171180000Y-96739200D02*
X171180000Y-96570800D01*
X149352000Y-95032000D02*
X150045000Y-95725000D01*
D17*
X150045000Y-99713200D02*
X145923000Y-103835200D01*
D19*
X157245000Y-89325000D02*
X157245000Y-88792000D01*
D17*
X144076800Y-111396400D02*
X144076800Y-112420400D01*
D19*
X158242000Y-94728000D02*
X158242000Y-90322000D01*
X148590000Y-93853000D02*
X149352000Y-94615000D01*
X150851000Y-88519000D02*
X150045000Y-89325000D01*
D17*
X143433800Y-113063400D02*
X144076800Y-112420400D01*
D19*
X158242000Y-90322000D02*
X157245000Y-89325000D01*
X150045000Y-89325000D02*
X149054000Y-89325000D01*
X148590000Y-89789000D02*
X148590000Y-93853000D01*
X149352000Y-94615000D02*
X149352000Y-95032000D01*
X156972000Y-88519000D02*
X150851000Y-88519000D01*
D17*
X143433800Y-113995200D02*
X143433800Y-113063400D01*
D19*
X157245000Y-95725000D02*
X158242000Y-94728000D01*
D17*
X145923000Y-103835200D02*
X145923000Y-109550200D01*
X145923000Y-109550200D02*
X144076800Y-111396400D01*
D19*
X149054000Y-89325000D02*
X148590000Y-89789000D01*
X157245000Y-88792000D02*
X156972000Y-88519000D01*
D17*
X150045000Y-95725000D02*
X150045000Y-99713200D01*
D19*
X160426400Y-83083400D02*
X161061400Y-83083400D01*
X158140400Y-86029600D02*
X158140400Y-85496400D01*
X158140400Y-85496400D02*
X158140400Y-84709000D01*
X159766000Y-83083400D02*
X160426400Y-83083400D01*
X158140400Y-84709000D02*
X158978600Y-83870800D01*
X157245000Y-86925000D02*
X158140400Y-86029600D01*
X158978600Y-83870800D02*
X159766000Y-83083400D01*
X157245000Y-86925000D02*
X157245000Y-87725000D01*
X161061400Y-83083400D02*
X161086800Y-83058000D01*
D18*
X157149800Y-97231200D02*
X158318200Y-98399600D01*
D19*
X151213600Y-94125000D02*
X150845000Y-94125000D01*
X179772500Y-85445600D02*
X179772500Y-84895500D01*
D18*
X154845000Y-96602800D02*
X155473400Y-97231200D01*
D19*
X182253700Y-89966800D02*
X182939500Y-89281000D01*
X183134000Y-84903500D02*
X183874918Y-85644418D01*
D17*
X166200000Y-88900000D02*
X166200000Y-90117500D01*
D18*
X158318200Y-98399600D02*
X160147000Y-98399600D01*
D17*
X178427000Y-90813000D02*
X178427000Y-90551000D01*
D19*
X151175200Y-91725000D02*
X151638000Y-91262200D01*
X179578000Y-89306400D02*
X180238400Y-89966800D01*
X154045000Y-95725000D02*
X153245000Y-95725000D01*
X183874918Y-85644418D02*
X183874918Y-85918753D01*
X183874918Y-85918753D02*
X183896000Y-85939835D01*
X153276200Y-90093800D02*
X154045000Y-89325000D01*
D17*
X162610800Y-82753200D02*
X163042600Y-82753200D01*
D19*
X179772500Y-88138000D02*
X179772500Y-86741000D01*
X157245000Y-91725000D02*
X157245000Y-90925000D01*
D18*
X165346900Y-90449400D02*
X165322500Y-90425000D01*
X176149000Y-92989400D02*
X175882300Y-92722700D01*
D19*
X179772500Y-86741000D02*
X179772500Y-85445600D01*
D17*
X163042600Y-82753200D02*
X166200000Y-85910600D01*
D19*
X150845000Y-91725000D02*
X151262600Y-91725000D01*
D17*
X158496000Y-78638400D02*
X162610800Y-82753200D01*
D19*
X154845000Y-89325000D02*
X154896765Y-89325000D01*
X151638000Y-90932000D02*
X152476200Y-90093800D01*
D17*
X175882300Y-92722700D02*
X176517300Y-92722700D01*
D19*
X154896765Y-89325000D02*
X155702000Y-90130235D01*
D17*
X176517300Y-92722700D02*
X178427000Y-90813000D01*
D18*
X173609000Y-90449400D02*
X165346900Y-90449400D01*
D19*
X150845000Y-91725000D02*
X151175200Y-91725000D01*
X152476200Y-90093800D02*
X153276200Y-90093800D01*
X150845000Y-94125000D02*
X150045000Y-94125000D01*
X179578000Y-88332500D02*
X179772500Y-88138000D01*
X151561800Y-92024200D02*
X151561800Y-93776800D01*
D18*
X176149000Y-111709200D02*
X176149000Y-92989400D01*
D19*
X179578000Y-89281000D02*
X179578000Y-89306400D01*
X151262600Y-91725000D02*
X151561800Y-92024200D01*
D17*
X166438400Y-85910600D02*
X167436800Y-84912200D01*
D19*
X155702000Y-90130235D02*
X155702000Y-90982000D01*
X150845000Y-91725000D02*
X150045000Y-91725000D01*
D18*
X164871400Y-90876100D02*
X165322500Y-90425000D01*
D19*
X155702000Y-90982000D02*
X156445000Y-91725000D01*
X151561800Y-93776800D02*
X151213600Y-94125000D01*
D17*
X166200000Y-85910600D02*
X166200000Y-88900000D01*
D19*
X179772500Y-84895500D02*
X179586000Y-84709000D01*
D17*
X151307800Y-78638400D02*
X158496000Y-78638400D01*
D18*
X164871400Y-93675200D02*
X164871400Y-90876100D01*
D19*
X156445000Y-91725000D02*
X157245000Y-91725000D01*
X154045000Y-89325000D02*
X154845000Y-89325000D01*
D18*
X175882300Y-92722700D02*
X173609000Y-90449400D01*
D19*
X153245000Y-95725000D02*
X152445000Y-95725000D01*
D18*
X155473400Y-97231200D02*
X157149800Y-97231200D01*
D19*
X151638000Y-91262200D02*
X151638000Y-90932000D01*
X150045000Y-90925000D02*
X150045000Y-91725000D01*
D17*
X166200000Y-90117500D02*
X166507500Y-90425000D01*
D19*
X154845000Y-95725000D02*
X154045000Y-95725000D01*
D18*
X154845000Y-95725000D02*
X154845000Y-96602800D01*
D19*
X179772500Y-85445600D02*
X182591900Y-85445600D01*
X180238400Y-89966800D02*
X182253700Y-89966800D01*
X179578000Y-89281000D02*
X179578000Y-88332500D01*
X183896000Y-86757700D02*
X184260300Y-87122000D01*
D18*
X160147000Y-98399600D02*
X164871400Y-93675200D01*
D17*
X149900000Y-77230600D02*
X151307800Y-78638400D01*
D19*
X182591900Y-85445600D02*
X183134000Y-84903500D01*
D17*
X149900000Y-75825000D02*
X149900000Y-77230600D01*
X166200000Y-85910600D02*
X166438400Y-85910600D01*
D19*
X183896000Y-85939835D02*
X183896000Y-86757700D01*
D17*
X152501600Y-116281200D02*
X167386000Y-116281200D01*
X185928000Y-107899200D02*
X185343800Y-107315000D01*
X179044600Y-117449600D02*
X180721000Y-119126000D01*
X168554400Y-117449600D02*
X179044600Y-117449600D01*
X152476200Y-116255800D02*
X152501600Y-116281200D01*
X185928000Y-109550200D02*
X185928000Y-107899200D01*
X186182000Y-117068600D02*
X184505600Y-115392200D01*
X147243800Y-116255800D02*
X148717000Y-116255800D01*
X184505600Y-115392200D02*
X184505600Y-113614200D01*
X143459200Y-116255800D02*
X147193000Y-116255800D01*
X147218400Y-116230400D02*
X147243800Y-116255800D01*
X167386000Y-116281200D02*
X168554400Y-117449600D01*
X185343800Y-107315000D02*
X184861200Y-107315000D01*
X185928000Y-112191800D02*
X185928000Y-109550200D01*
X186182000Y-118110000D02*
X186182000Y-117068600D01*
X184937400Y-113182400D02*
X184962800Y-113182400D01*
X147193000Y-116255800D02*
X147218400Y-116230400D01*
X184505600Y-113614200D02*
X184937400Y-113182400D01*
X184962800Y-113182400D02*
X184962800Y-113157000D01*
X184962800Y-113157000D02*
X185928000Y-112191800D01*
X148717000Y-116255800D02*
X152476200Y-116255800D01*
D18*
X185166000Y-84074000D02*
X185166000Y-89662000D01*
X176530000Y-80899000D02*
X177165000Y-81534000D01*
X179324000Y-81534000D02*
X181102000Y-83312000D01*
X182626000Y-92202000D02*
X182626000Y-95250000D01*
X185166000Y-89662000D02*
X182626000Y-92202000D01*
X186944000Y-105918000D02*
X186944000Y-113665000D01*
X183642000Y-103378000D02*
X185166000Y-104902000D01*
X185166000Y-104902000D02*
X185928000Y-104902000D01*
X185928000Y-104902000D02*
X186944000Y-105918000D01*
X183642000Y-96266000D02*
X183642000Y-103378000D01*
X184404000Y-83312000D02*
X185166000Y-84074000D01*
X181102000Y-83312000D02*
X184404000Y-83312000D01*
X182626000Y-95250000D02*
X183642000Y-96266000D01*
X186944000Y-113665000D02*
X186055000Y-114554000D01*
X177165000Y-81534000D02*
X179324000Y-81534000D01*
M02*
