G04 #@! TF.GenerationSoftware,KiCad,Pcbnew,8.0.6*
G04 #@! TF.CreationDate,2024-11-24T11:16:57+01:00*
G04 #@! TF.ProjectId,fpga_extension,66706761-5f65-4787-9465-6e73696f6e2e,rev?*
G04 #@! TF.SameCoordinates,Original*
G04 #@! TF.FileFunction,Copper,L6,Bot*
G04 #@! TF.FilePolarity,Positive*
%FSLAX46Y46*%
G04 Gerber Fmt 4.6, Leading zero omitted, Abs format (unit mm)*
G04 Created by KiCad (PCBNEW 8.0.6) date 2024-11-24 11:16:57*
%MOMM*%
%LPD*%
G01*
G04 APERTURE LIST*
G04 Aperture macros list*
%AMRoundRect*
0 Rectangle with rounded corners*
0 $1 Rounding radius*
0 $2 $3 $4 $5 $6 $7 $8 $9 X,Y pos of 4 corners*
0 Add a 4 corners polygon primitive as box body*
4,1,4,$2,$3,$4,$5,$6,$7,$8,$9,$2,$3,0*
0 Add four circle primitives for the rounded corners*
1,1,$1+$1,$2,$3*
1,1,$1+$1,$4,$5*
1,1,$1+$1,$6,$7*
1,1,$1+$1,$8,$9*
0 Add four rect primitives between the rounded corners*
20,1,$1+$1,$2,$3,$4,$5,0*
20,1,$1+$1,$4,$5,$6,$7,0*
20,1,$1+$1,$6,$7,$8,$9,0*
20,1,$1+$1,$8,$9,$2,$3,0*%
G04 Aperture macros list end*
G04 #@! TA.AperFunction,ComponentPad*
%ADD10O,1.000000X2.100000*%
G04 #@! TD*
G04 #@! TA.AperFunction,ComponentPad*
%ADD11O,1.000000X1.600000*%
G04 #@! TD*
G04 #@! TA.AperFunction,ComponentPad*
%ADD12R,1.700000X1.700000*%
G04 #@! TD*
G04 #@! TA.AperFunction,ComponentPad*
%ADD13O,1.700000X1.700000*%
G04 #@! TD*
G04 #@! TA.AperFunction,SMDPad,CuDef*
%ADD14RoundRect,0.160000X0.197500X0.160000X-0.197500X0.160000X-0.197500X-0.160000X0.197500X-0.160000X0*%
G04 #@! TD*
G04 #@! TA.AperFunction,SMDPad,CuDef*
%ADD15RoundRect,0.155000X-0.212500X-0.155000X0.212500X-0.155000X0.212500X0.155000X-0.212500X0.155000X0*%
G04 #@! TD*
G04 #@! TA.AperFunction,SMDPad,CuDef*
%ADD16RoundRect,0.155000X0.212500X0.155000X-0.212500X0.155000X-0.212500X-0.155000X0.212500X-0.155000X0*%
G04 #@! TD*
G04 #@! TA.AperFunction,SMDPad,CuDef*
%ADD17RoundRect,0.250000X-0.350000X0.275000X-0.350000X-0.275000X0.350000X-0.275000X0.350000X0.275000X0*%
G04 #@! TD*
G04 #@! TA.AperFunction,SMDPad,CuDef*
%ADD18RoundRect,0.250000X0.275000X0.350000X-0.275000X0.350000X-0.275000X-0.350000X0.275000X-0.350000X0*%
G04 #@! TD*
G04 #@! TA.AperFunction,SMDPad,CuDef*
%ADD19RoundRect,0.155000X0.155000X-0.212500X0.155000X0.212500X-0.155000X0.212500X-0.155000X-0.212500X0*%
G04 #@! TD*
G04 #@! TA.AperFunction,SMDPad,CuDef*
%ADD20RoundRect,0.250000X0.250000X-0.250000X0.250000X0.250000X-0.250000X0.250000X-0.250000X-0.250000X0*%
G04 #@! TD*
G04 #@! TA.AperFunction,SMDPad,CuDef*
%ADD21RoundRect,0.150000X0.650000X0.150000X-0.650000X0.150000X-0.650000X-0.150000X0.650000X-0.150000X0*%
G04 #@! TD*
G04 #@! TA.AperFunction,SMDPad,CuDef*
%ADD22RoundRect,0.155000X-0.155000X0.212500X-0.155000X-0.212500X0.155000X-0.212500X0.155000X0.212500X0*%
G04 #@! TD*
G04 #@! TA.AperFunction,SMDPad,CuDef*
%ADD23RoundRect,0.175000X0.825000X0.175000X-0.825000X0.175000X-0.825000X-0.175000X0.825000X-0.175000X0*%
G04 #@! TD*
G04 #@! TA.AperFunction,SMDPad,CuDef*
%ADD24R,0.900000X1.100000*%
G04 #@! TD*
G04 #@! TA.AperFunction,SMDPad,CuDef*
%ADD25R,0.800000X1.500000*%
G04 #@! TD*
G04 #@! TA.AperFunction,SMDPad,CuDef*
%ADD26R,1.450000X2.000000*%
G04 #@! TD*
G04 #@! TA.AperFunction,SMDPad,CuDef*
%ADD27RoundRect,0.050000X-0.050000X0.387500X-0.050000X-0.387500X0.050000X-0.387500X0.050000X0.387500X0*%
G04 #@! TD*
G04 #@! TA.AperFunction,SMDPad,CuDef*
%ADD28RoundRect,0.050000X-0.387500X0.050000X-0.387500X-0.050000X0.387500X-0.050000X0.387500X0.050000X0*%
G04 #@! TD*
G04 #@! TA.AperFunction,HeatsinkPad*
%ADD29R,3.200000X3.200000*%
G04 #@! TD*
G04 #@! TA.AperFunction,SMDPad,CuDef*
%ADD30R,0.740000X2.400000*%
G04 #@! TD*
G04 #@! TA.AperFunction,SMDPad,CuDef*
%ADD31RoundRect,0.160000X-0.197500X-0.160000X0.197500X-0.160000X0.197500X0.160000X-0.197500X0.160000X0*%
G04 #@! TD*
G04 #@! TA.AperFunction,ViaPad*
%ADD32C,0.406400*%
G04 #@! TD*
G04 #@! TA.AperFunction,ViaPad*
%ADD33C,0.711200*%
G04 #@! TD*
G04 #@! TA.AperFunction,ViaPad*
%ADD34C,0.600000*%
G04 #@! TD*
G04 #@! TA.AperFunction,Conductor*
%ADD35C,0.457200*%
G04 #@! TD*
G04 #@! TA.AperFunction,Conductor*
%ADD36C,0.245364*%
G04 #@! TD*
G04 #@! TA.AperFunction,Conductor*
%ADD37C,0.156464*%
G04 #@! TD*
G04 #@! TA.AperFunction,Conductor*
%ADD38C,0.609600*%
G04 #@! TD*
G04 APERTURE END LIST*
D10*
X187200000Y-77373000D03*
D11*
X187200000Y-73193000D03*
D10*
X178560000Y-77373000D03*
D11*
X178560000Y-73193000D03*
D12*
X172466000Y-77861400D03*
D13*
X172466000Y-75321400D03*
X172466000Y-72781400D03*
D14*
X171705200Y-118643400D03*
X170510200Y-118643400D03*
D15*
X158385700Y-93065600D03*
X159520700Y-93065600D03*
D16*
X149301200Y-94925000D03*
X148166200Y-94925000D03*
D17*
X142722600Y-88537400D03*
X142722600Y-90837400D03*
D16*
X152412500Y-96525000D03*
X151277500Y-96525000D03*
D18*
X175869600Y-118999000D03*
X173569600Y-118999000D03*
D19*
X162280600Y-81983200D03*
X162280600Y-80848200D03*
D20*
X184580000Y-117836000D03*
X184580000Y-115336000D03*
D16*
X150045000Y-86925000D03*
X148910000Y-86925000D03*
D21*
X171824200Y-84893600D03*
X171824200Y-86163600D03*
X171824200Y-87433600D03*
X171824200Y-88703600D03*
X164624200Y-88703600D03*
X164624200Y-87433600D03*
X164624200Y-86163600D03*
X164624200Y-84893600D03*
D15*
X149698900Y-88519000D03*
X150833900Y-88519000D03*
X154045000Y-96525000D03*
X155180000Y-96525000D03*
D22*
X146845000Y-96157500D03*
X146845000Y-97292500D03*
D19*
X153245000Y-94092500D03*
X153245000Y-92957500D03*
D15*
X158385700Y-94157800D03*
X159520700Y-94157800D03*
D16*
X149233700Y-92811600D03*
X148098700Y-92811600D03*
X143527400Y-95808800D03*
X142392400Y-95808800D03*
D15*
X164338000Y-83312000D03*
X165473000Y-83312000D03*
D22*
X154845000Y-90125000D03*
X154845000Y-91260000D03*
D16*
X156412500Y-94125000D03*
X155277500Y-94125000D03*
D23*
X181913000Y-115890000D03*
X181913000Y-117790000D03*
X178513000Y-116840000D03*
D24*
X143921000Y-98249000D03*
X143921000Y-99949000D03*
X142621000Y-99949000D03*
X142621000Y-98249000D03*
D25*
X153200000Y-75825000D03*
X152100000Y-75825000D03*
X151000000Y-75825000D03*
X149900000Y-75825000D03*
X148800000Y-75825000D03*
X147700000Y-75825000D03*
X146600000Y-75825000D03*
X145500000Y-75825000D03*
D26*
X156875000Y-81525000D03*
X156875000Y-73225000D03*
X143125000Y-81525000D03*
X143125000Y-73225000D03*
D16*
X152730200Y-97536000D03*
X151595200Y-97536000D03*
D14*
X172415200Y-83235800D03*
X171220200Y-83235800D03*
X182675000Y-114366000D03*
X181480000Y-114366000D03*
D16*
X153119900Y-88519000D03*
X151984900Y-88519000D03*
D18*
X166104600Y-81610200D03*
X163804600Y-81610200D03*
D22*
X175119800Y-97552700D03*
X175119800Y-98687700D03*
X173291000Y-97527300D03*
X173291000Y-98662300D03*
D27*
X179350000Y-83642200D03*
X179750000Y-83642200D03*
X180150000Y-83642200D03*
X180550000Y-83642200D03*
X180950000Y-83642200D03*
X181350000Y-83642200D03*
X181750000Y-83642200D03*
X182150000Y-83642200D03*
X182550000Y-83642200D03*
X182950000Y-83642200D03*
X183350000Y-83642200D03*
X183750000Y-83642200D03*
X184150000Y-83642200D03*
X184550000Y-83642200D03*
D28*
X185387500Y-84479700D03*
X185387500Y-84879700D03*
X185387500Y-85279700D03*
X185387500Y-85679700D03*
X185387500Y-86079700D03*
X185387500Y-86479700D03*
X185387500Y-86879700D03*
X185387500Y-87279700D03*
X185387500Y-87679700D03*
X185387500Y-88079700D03*
X185387500Y-88479700D03*
X185387500Y-88879700D03*
X185387500Y-89279700D03*
X185387500Y-89679700D03*
D27*
X184550000Y-90517200D03*
X184150000Y-90517200D03*
X183750000Y-90517200D03*
X183350000Y-90517200D03*
X182950000Y-90517200D03*
X182550000Y-90517200D03*
X182150000Y-90517200D03*
X181750000Y-90517200D03*
X181350000Y-90517200D03*
X180950000Y-90517200D03*
X180550000Y-90517200D03*
X180150000Y-90517200D03*
X179750000Y-90517200D03*
X179350000Y-90517200D03*
D28*
X178512500Y-89679700D03*
X178512500Y-89279700D03*
X178512500Y-88879700D03*
X178512500Y-88479700D03*
X178512500Y-88079700D03*
X178512500Y-87679700D03*
X178512500Y-87279700D03*
X178512500Y-86879700D03*
X178512500Y-86479700D03*
X178512500Y-86079700D03*
X178512500Y-85679700D03*
X178512500Y-85279700D03*
X178512500Y-84879700D03*
X178512500Y-84479700D03*
D29*
X181950000Y-87079700D03*
D30*
X155829800Y-111574000D03*
X155829800Y-115474000D03*
X157099800Y-111574000D03*
X157099800Y-115474000D03*
X158369800Y-111574000D03*
X158369800Y-115474000D03*
X159639800Y-111574000D03*
X159639800Y-115474000D03*
X160909800Y-111574000D03*
X160909800Y-115474000D03*
X162179800Y-111574000D03*
X162179800Y-115474000D03*
X163449800Y-111574000D03*
X163449800Y-115474000D03*
X164719800Y-111574000D03*
X164719800Y-115474000D03*
X165989800Y-111574000D03*
X165989800Y-115474000D03*
X167259800Y-111574000D03*
X167259800Y-115474000D03*
X168529800Y-111574000D03*
X168529800Y-115474000D03*
X169799800Y-111574000D03*
X169799800Y-115474000D03*
X171069800Y-111574000D03*
X171069800Y-115474000D03*
X172339800Y-111574000D03*
X172339800Y-115474000D03*
X173609800Y-111574000D03*
X173609800Y-115474000D03*
D15*
X149106000Y-96774000D03*
X150241000Y-96774000D03*
X158385700Y-89941400D03*
X159520700Y-89941400D03*
D16*
X149245000Y-91725000D03*
X148110000Y-91725000D03*
D31*
X142645200Y-101396800D03*
X143840200Y-101396800D03*
D19*
X158750000Y-85209000D03*
X158750000Y-84074000D03*
D15*
X171180000Y-100385800D03*
X172315000Y-100385800D03*
D22*
X157245000Y-95757500D03*
X157245000Y-96892500D03*
D16*
X148056600Y-88493600D03*
X146921600Y-88493600D03*
D15*
X158377000Y-92049600D03*
X159512000Y-92049600D03*
X154270900Y-88519000D03*
X155405900Y-88519000D03*
X154660600Y-97561400D03*
X155795600Y-97561400D03*
X158351600Y-96113600D03*
X159486600Y-96113600D03*
D16*
X149245000Y-93878400D03*
X148110000Y-93878400D03*
X143535400Y-96824800D03*
X142400400Y-96824800D03*
D15*
X158385700Y-90982800D03*
X159520700Y-90982800D03*
D22*
X156445000Y-86925000D03*
X156445000Y-88060000D03*
D16*
X171242300Y-95732600D03*
X170107300Y-95732600D03*
D32*
X182311000Y-109639800D03*
D33*
X182583600Y-106134600D03*
D32*
X184950700Y-110947200D03*
D33*
X159867600Y-82118200D03*
X142722600Y-88537400D03*
X166104600Y-81610200D03*
D32*
X171180000Y-96570800D03*
X157245000Y-94125000D03*
D33*
X149614000Y-112420400D03*
D32*
X157245000Y-93325000D03*
X171180000Y-99570800D03*
X174180000Y-97570800D03*
X156445000Y-94125000D03*
D33*
X148767800Y-113944400D03*
X157556200Y-100558600D03*
D32*
X150045000Y-95725000D03*
D33*
X144076800Y-112420400D03*
D32*
X150045000Y-89325000D03*
X157245000Y-95725000D03*
D33*
X143433800Y-113995200D03*
D32*
X157245000Y-89325000D03*
X186385200Y-85598000D03*
X177224500Y-89027000D03*
X184311100Y-88188800D03*
X177224500Y-87503000D03*
X154845000Y-90125000D03*
X151645000Y-90125000D03*
X153245000Y-94092500D03*
D33*
X161086800Y-83058000D03*
D32*
X150045000Y-87725000D03*
X150045000Y-86925000D03*
X157245000Y-87725000D03*
X157245000Y-86925000D03*
X175768000Y-72796400D03*
X185521600Y-81381600D03*
X174447200Y-77876400D03*
X187350400Y-89204800D03*
X157861000Y-107061000D03*
X165989800Y-111574000D03*
X181483000Y-97282000D03*
X154965400Y-101015800D03*
X177292000Y-106172000D03*
X168529800Y-115474000D03*
X148590000Y-104140000D03*
X177165000Y-104648000D03*
X167259800Y-111574000D03*
X157734000Y-102108000D03*
X180022500Y-93408500D03*
X161544000Y-107950000D03*
X146862800Y-103886000D03*
X150876000Y-103378000D03*
X157708600Y-108940600D03*
X169722800Y-109651800D03*
X153035000Y-102616000D03*
X163449800Y-111574000D03*
X177292000Y-95631000D03*
X166624000Y-107950000D03*
X180086000Y-94869000D03*
X162814000Y-109220000D03*
X180086000Y-96520000D03*
X164084000Y-107950000D03*
X160274000Y-109220000D03*
X177292000Y-93091000D03*
X165354000Y-109220000D03*
X178562000Y-98171000D03*
X177292000Y-94361000D03*
X162179800Y-111574000D03*
X154051000Y-104902000D03*
D34*
X171069800Y-115474000D03*
D32*
X187096400Y-91643200D03*
X177292000Y-97409000D03*
X164719800Y-111574000D03*
X154051000Y-101854000D03*
X148844000Y-102870000D03*
X154470100Y-112560100D03*
X184277000Y-84709000D03*
X158045000Y-87725000D03*
X158045000Y-88525000D03*
X181737000Y-84709000D03*
X158845000Y-86125000D03*
X166624000Y-79502000D03*
X164159000Y-79502000D03*
X158045000Y-86925000D03*
X158845000Y-88525000D03*
X174498000Y-82931000D03*
X159645000Y-84525000D03*
X168021000Y-80518000D03*
X163169600Y-86156800D03*
X162509200Y-87579200D03*
X160121600Y-79095600D03*
X158845000Y-87725000D03*
X177927000Y-80645000D03*
X159645000Y-86125000D03*
X169291000Y-82550000D03*
X158845000Y-86925000D03*
X175133000Y-80264000D03*
X156972000Y-79857600D03*
X159645000Y-85325000D03*
X168021000Y-83058000D03*
X161036000Y-78740000D03*
X186436000Y-86766400D03*
X186436000Y-84429600D03*
X173024800Y-91541600D03*
X186740800Y-82854800D03*
X171145200Y-91287600D03*
X175996600Y-86791800D03*
X172847000Y-86791800D03*
X174879000Y-87719500D03*
X175133000Y-88773000D03*
X154845000Y-89325000D03*
X178435000Y-90551000D03*
D33*
X149900000Y-75825000D03*
X167436800Y-84912200D03*
D32*
X150045000Y-90925000D03*
D33*
X176149000Y-111709200D03*
X166507500Y-90425000D03*
D32*
X171220200Y-83235800D03*
X154045000Y-89325000D03*
X184260300Y-87122000D03*
X179772500Y-86741000D03*
X179586000Y-84709000D03*
D33*
X165322500Y-90425000D03*
D32*
X154045000Y-95725000D03*
X179578000Y-89281000D03*
X157245000Y-90925000D03*
X150045000Y-94125000D03*
X157245000Y-91725000D03*
X182939500Y-89281000D03*
X150045000Y-91725000D03*
X177292000Y-90678000D03*
X154845000Y-95725000D03*
X179772500Y-88138000D03*
D33*
X166200000Y-88900000D03*
D32*
X183134000Y-84903500D03*
X150045000Y-93325000D03*
X156445000Y-91725000D03*
X150845000Y-91725000D03*
X150845000Y-94125000D03*
X152445000Y-95725000D03*
X153245000Y-95725000D03*
X156445000Y-98925000D03*
X152445000Y-86125000D03*
X180797200Y-87503000D03*
D33*
X147700000Y-75825000D03*
D32*
X145084800Y-91795600D03*
X155645000Y-86925000D03*
X153245000Y-92525000D03*
X150045000Y-92525000D03*
X152445000Y-90925000D03*
X156445000Y-94925000D03*
X156445000Y-90125000D03*
X149245000Y-86125000D03*
X180797200Y-88188800D03*
X154845000Y-90925000D03*
X150845000Y-86125000D03*
X180713000Y-89281000D03*
D33*
X162280600Y-80848200D03*
D32*
X184404000Y-85699600D03*
D33*
X141909800Y-81508600D03*
D32*
X151645000Y-94925000D03*
D33*
X168150000Y-89325000D03*
D32*
X183388000Y-80010000D03*
X148445000Y-94925000D03*
X143921000Y-99949000D03*
X157245000Y-90125000D03*
X149245000Y-85325000D03*
X160445000Y-90925000D03*
X181483000Y-81623500D03*
X150845000Y-93325000D03*
X154045000Y-86925000D03*
X151645000Y-86925000D03*
X154845000Y-86925000D03*
X150845000Y-92525000D03*
X158433100Y-74574400D03*
X176157000Y-90678000D03*
X153245000Y-91725000D03*
X152445000Y-85325000D03*
X154845000Y-92525000D03*
X151645000Y-95725000D03*
D33*
X146227800Y-117805200D03*
D32*
X182321200Y-88188800D03*
X152445000Y-91725000D03*
D33*
X175895000Y-74362500D03*
D32*
X157245000Y-86125000D03*
X183159400Y-86029800D03*
X154045000Y-93325000D03*
X150045000Y-85325000D03*
X158845000Y-94925000D03*
X146845000Y-88525000D03*
D33*
X173609000Y-113538000D03*
X150622000Y-115062000D03*
X151460200Y-117830600D03*
X180594000Y-110947200D03*
D32*
X184861200Y-108940600D03*
X180797200Y-86766400D03*
X174180000Y-98570800D03*
X155645000Y-89325000D03*
X156445000Y-93325000D03*
X177165000Y-84201000D03*
X154845000Y-86125000D03*
X142392400Y-95808800D03*
D33*
X155854400Y-117398800D03*
D32*
X156445000Y-86125000D03*
X181804500Y-89281000D03*
X150845000Y-95725000D03*
X142400400Y-96824800D03*
X156445000Y-86925000D03*
D33*
X158343600Y-73228200D03*
D32*
X150845000Y-89325000D03*
X154045000Y-92525000D03*
D33*
X180389000Y-114366000D03*
D32*
X186130000Y-78288000D03*
X145186400Y-93014800D03*
X156445000Y-95725000D03*
X153245000Y-89325000D03*
X158433100Y-75744400D03*
X181559200Y-88188800D03*
X150845000Y-90925000D03*
X148273100Y-108000800D03*
X172180000Y-99570800D03*
D33*
X180543200Y-106908600D03*
D32*
X146045000Y-86125000D03*
X156445000Y-89325000D03*
X179630000Y-78288000D03*
X150845000Y-86925000D03*
X153245000Y-93325000D03*
X148475000Y-74450000D03*
X182321200Y-86055200D03*
X186488000Y-80391000D03*
X160445000Y-93325000D03*
X146845000Y-98125000D03*
X152445000Y-86925000D03*
X156445000Y-90925000D03*
X176089500Y-89027000D03*
X146845000Y-85325000D03*
D33*
X141859000Y-73228200D03*
D32*
X152445000Y-89325000D03*
X157245000Y-94925000D03*
D33*
X172339000Y-109220000D03*
X179451000Y-109651800D03*
D32*
X158433100Y-76895866D03*
X151645000Y-86125000D03*
D33*
X155840000Y-109470000D03*
D32*
X180721000Y-84709000D03*
X154045000Y-94925000D03*
D33*
X182778400Y-112877600D03*
D34*
X184810400Y-98094800D03*
D32*
X181559200Y-86055200D03*
X154845000Y-93325000D03*
X154045000Y-91725000D03*
X148273100Y-109118400D03*
X150045000Y-94925000D03*
X146845000Y-86125000D03*
D33*
X173355000Y-85090000D03*
D34*
X185166000Y-93804000D03*
D32*
X156445000Y-92525000D03*
X181559200Y-86766400D03*
X183159400Y-88163400D03*
X153245000Y-86925000D03*
X153245000Y-94925000D03*
X157245000Y-92525000D03*
X150845000Y-94925000D03*
D33*
X158242000Y-81483200D03*
D32*
X176089500Y-87503000D03*
X156445000Y-85325000D03*
X181559200Y-87503000D03*
X180797200Y-86055200D03*
X170180000Y-96570800D03*
X154845000Y-94925000D03*
X184861200Y-110210600D03*
X150845000Y-98925000D03*
X153245000Y-90925000D03*
X157245000Y-85325000D03*
X146845000Y-94125000D03*
X155645000Y-86125000D03*
X182321200Y-87503000D03*
X185381300Y-100888800D03*
D33*
X173355000Y-88874600D03*
D32*
X152445000Y-94925000D03*
X152445000Y-92525000D03*
X155645000Y-94925000D03*
D33*
X145237200Y-115112800D03*
D32*
X152445000Y-93325000D03*
X154045000Y-90925000D03*
X183201500Y-87122000D03*
X150045000Y-86125000D03*
D33*
X145211800Y-112420400D03*
D32*
X182321200Y-86766400D03*
X148273100Y-110236000D03*
X154845000Y-91725000D03*
X178435000Y-91821000D03*
D33*
X150749000Y-112420400D03*
D32*
X165473000Y-83312000D03*
X155645000Y-95725000D03*
X151645000Y-89325000D03*
X158845000Y-97325000D03*
D33*
X147218400Y-116230400D03*
D32*
X184861200Y-107315000D03*
D33*
X186182000Y-118110000D03*
X152501600Y-116281200D03*
X184962800Y-113182400D03*
X180721000Y-119126000D03*
X143459200Y-116255800D03*
X148717000Y-116255800D03*
D32*
X185928000Y-109550200D03*
D33*
X186055000Y-114554000D03*
X176530000Y-80899000D03*
D32*
X152100000Y-75825000D03*
X146456400Y-78917800D03*
X145500000Y-75825000D03*
X146600000Y-75825000D03*
X153200000Y-75825000D03*
X151000000Y-75825000D03*
X143840200Y-101396800D03*
X185392600Y-99669600D03*
D35*
X159867600Y-81102200D02*
X159867600Y-82118200D01*
X162737800Y-79629000D02*
X161340800Y-79629000D01*
X166104600Y-80608200D02*
X165811200Y-80314800D01*
X161340800Y-79629000D02*
X159867600Y-81102200D01*
X163423600Y-80314800D02*
X162737800Y-79629000D01*
X165811200Y-80314800D02*
X163423600Y-80314800D01*
X166104600Y-81610200D02*
X166104600Y-80608200D01*
D36*
X174136500Y-97527300D02*
X174180000Y-97570800D01*
X158385700Y-93065600D02*
X157504400Y-93065600D01*
X171242300Y-95732600D02*
X171242300Y-96508500D01*
D35*
X158165800Y-94377700D02*
X158165800Y-99949000D01*
D36*
X157504400Y-93065600D02*
X157245000Y-93325000D01*
X171242300Y-96508500D02*
X171180000Y-96570800D01*
X157277800Y-94157800D02*
X157245000Y-94125000D01*
D35*
X158165800Y-99949000D02*
X157556200Y-100558600D01*
D36*
X171180000Y-100385800D02*
X171180000Y-99570800D01*
X158385700Y-94157800D02*
X157277800Y-94157800D01*
X175119800Y-97552700D02*
X174198100Y-97552700D01*
X174198100Y-97552700D02*
X174180000Y-97570800D01*
X173291000Y-97527300D02*
X174136500Y-97527300D01*
D35*
X158385700Y-94157800D02*
X158165800Y-94377700D01*
D36*
X150045000Y-89325000D02*
X150045000Y-88865100D01*
X150045000Y-95725000D02*
X150045000Y-95835000D01*
X157245000Y-88860000D02*
X156445000Y-88060000D01*
X150045000Y-88865100D02*
X149698900Y-88519000D01*
X157226000Y-95744000D02*
X157245000Y-95725000D01*
X150045000Y-95835000D02*
X149106000Y-96774000D01*
X157245000Y-89325000D02*
X157245000Y-88860000D01*
D37*
X186385200Y-85598000D02*
X186385200Y-85953600D01*
X185859100Y-86479700D02*
X185387500Y-86479700D01*
X186385200Y-85953600D02*
X185859100Y-86479700D01*
X184820200Y-87679700D02*
X185387500Y-87679700D01*
X177371800Y-88879700D02*
X177224500Y-89027000D01*
X178512500Y-86879700D02*
X177847800Y-86879700D01*
X178512500Y-88879700D02*
X177371800Y-88879700D01*
X177847800Y-86879700D02*
X177224500Y-87503000D01*
X184311100Y-88188800D02*
X184820200Y-87679700D01*
D36*
X149391365Y-90830400D02*
X142817200Y-90830400D01*
X151645000Y-90125000D02*
X150096765Y-90125000D01*
X142817200Y-90830400D02*
X142773400Y-90874200D01*
X150096765Y-90125000D02*
X149391365Y-90830400D01*
X148056600Y-88493600D02*
X148825200Y-87725000D01*
X162280600Y-81983200D02*
X162161600Y-81983200D01*
X162280600Y-81983200D02*
X163431600Y-81983200D01*
X163431600Y-81983200D02*
X163804600Y-81610200D01*
X158038800Y-85920200D02*
X158750000Y-85209000D01*
X148825200Y-87725000D02*
X150045000Y-87725000D01*
X162161600Y-81983200D02*
X161086800Y-83058000D01*
X157245000Y-86925000D02*
X158038800Y-86131200D01*
X157183200Y-87786800D02*
X157245000Y-87725000D01*
X150045000Y-86925000D02*
X150045000Y-87725000D01*
X158038800Y-86131200D02*
X158038800Y-85920200D01*
D37*
X187452000Y-82880626D02*
X187452000Y-86435774D01*
X172466000Y-72781400D02*
X175753000Y-72781400D01*
X185952974Y-81381600D02*
X187452000Y-82880626D01*
X175753000Y-72781400D02*
X175768000Y-72796400D01*
X185808074Y-88079700D02*
X185387500Y-88079700D01*
X187452000Y-86435774D02*
X185808074Y-88079700D01*
X185521600Y-81381600D02*
X185952974Y-81381600D01*
X172466000Y-77861400D02*
X174432200Y-77861400D01*
X187350400Y-89204800D02*
X186625300Y-88479700D01*
X186625300Y-88479700D02*
X185387500Y-88479700D01*
X174432200Y-77861400D02*
X174447200Y-77876400D01*
X159004000Y-113538000D02*
X159639800Y-114173800D01*
X157861000Y-107061000D02*
X159004000Y-108204000D01*
X159004000Y-108204000D02*
X159004000Y-113538000D01*
X159639800Y-114173800D02*
X159639800Y-115474000D01*
D35*
X169799800Y-115474000D02*
X169799800Y-117933000D01*
X169799800Y-117933000D02*
X170510200Y-118643400D01*
D37*
X162870265Y-103942265D02*
X162956521Y-103856008D01*
X165989800Y-107348273D02*
X165989800Y-107137756D01*
X162956521Y-103683495D02*
X162704769Y-103431743D01*
X161544000Y-102616000D02*
X156565600Y-102616000D01*
X164567328Y-105639328D02*
X164567329Y-105639329D01*
X165379800Y-108068273D02*
X165379800Y-107948273D01*
X162783716Y-104028811D02*
X162870264Y-103942264D01*
X165989800Y-111574000D02*
X165989800Y-108548273D01*
X164991594Y-106063594D02*
X164991595Y-106063595D01*
X162870264Y-103942264D02*
X162870265Y-103942265D01*
X164143062Y-105215062D02*
X164143063Y-105215063D01*
X165415861Y-106487861D02*
X165502408Y-106401313D01*
X182499000Y-96393000D02*
X182550000Y-96393000D01*
X164143063Y-105215063D02*
X164056546Y-105301577D01*
X165329583Y-106574137D02*
X165415858Y-106487859D01*
X163381078Y-104279983D02*
X163294530Y-104366530D01*
X165989800Y-107137756D02*
X165989800Y-107061800D01*
X164991595Y-106063595D02*
X164905054Y-106150133D01*
X165989800Y-107061800D02*
X165928515Y-107000515D01*
X165989800Y-107468273D02*
X165989800Y-107348273D01*
X161656623Y-102728623D02*
X161544000Y-102616000D01*
X164731978Y-106150134D02*
X164480789Y-105898945D01*
X181610000Y-97282000D02*
X182499000Y-96393000D01*
X163718797Y-104790797D02*
X163805344Y-104704249D01*
X164480788Y-105725867D02*
X164567328Y-105639328D01*
X163034888Y-104453077D02*
X162783716Y-104201905D01*
X163632280Y-104877311D02*
X163718796Y-104790796D01*
X165583409Y-107000515D02*
X165329583Y-106746689D01*
X181483000Y-97282000D02*
X181610000Y-97282000D01*
X165619800Y-107708273D02*
X165749800Y-107708273D01*
X162110125Y-103182125D02*
X161656623Y-102728623D01*
X163718796Y-104790796D02*
X163718797Y-104790797D01*
X162359743Y-103431743D02*
X162110125Y-103182125D01*
X163294530Y-104366530D02*
X163294531Y-104366531D01*
X164567329Y-105639329D02*
X164653868Y-105552789D01*
X163294531Y-104366531D02*
X163207982Y-104453077D01*
X165078142Y-105977047D02*
X164991594Y-106063594D01*
X163805344Y-104531155D02*
X163554172Y-104279983D01*
X163883518Y-105301578D02*
X163632281Y-105050341D01*
X165502408Y-106228219D02*
X165251236Y-105977047D01*
X165415858Y-106487859D02*
X165415861Y-106487861D01*
X156565600Y-102616000D02*
X154965400Y-101015800D01*
X164653868Y-105379712D02*
X164402679Y-105128523D01*
X182550000Y-96393000D02*
X182550000Y-90517200D01*
X165749800Y-108308273D02*
X165619800Y-108308273D01*
X164229602Y-105128523D02*
X164143062Y-105215062D01*
X165379800Y-107948273D02*
G75*
G02*
X165619800Y-107708300I240000J-27D01*
G01*
X165329583Y-106746689D02*
G75*
G02*
X165329570Y-106574124I86317J86289D01*
G01*
X163805344Y-104704249D02*
G75*
G03*
X163805346Y-104531153I-86544J86549D01*
G01*
X164905054Y-106150133D02*
G75*
G02*
X164731963Y-106150150I-86554J86533D01*
G01*
X165989800Y-108548273D02*
G75*
G03*
X165749800Y-108308300I-240000J-27D01*
G01*
X164056546Y-105301577D02*
G75*
G02*
X163883486Y-105301610I-86546J86477D01*
G01*
X162704769Y-103431743D02*
G75*
G03*
X162532257Y-103431743I-86256J-86255D01*
G01*
X165928515Y-107000515D02*
G75*
G03*
X165755924Y-107000476I-86315J-86285D01*
G01*
X162532256Y-103431743D02*
G75*
G02*
X162359744Y-103431743I-86256J86255D01*
G01*
X163207982Y-104453077D02*
G75*
G02*
X163034888Y-104453077I-86547J86547D01*
G01*
X165619800Y-108308273D02*
G75*
G02*
X165379827Y-108068273I0J239973D01*
G01*
X165251236Y-105977047D02*
G75*
G03*
X165078142Y-105977047I-86547J-86547D01*
G01*
X164480789Y-105898945D02*
G75*
G02*
X164480782Y-105725861I86511J86545D01*
G01*
X162956521Y-103856008D02*
G75*
G03*
X162956473Y-103683544I-86221J86208D01*
G01*
X163554172Y-104279983D02*
G75*
G03*
X163381078Y-104279983I-86547J-86547D01*
G01*
X165755961Y-107000514D02*
G75*
G02*
X165583424Y-107000500I-86261J86314D01*
G01*
X164653868Y-105552789D02*
G75*
G03*
X164653819Y-105379761I-86568J86489D01*
G01*
X165749800Y-107708273D02*
G75*
G03*
X165989773Y-107468273I0J239973D01*
G01*
X165502408Y-106401313D02*
G75*
G03*
X165502374Y-106228253I-86508J86513D01*
G01*
X163632281Y-105050341D02*
G75*
G02*
X163632254Y-104877286I86519J86541D01*
G01*
X164402679Y-105128523D02*
G75*
G03*
X164229603Y-105128523I-86538J-86537D01*
G01*
X162783716Y-104201905D02*
G75*
G02*
X162783758Y-104028853I86584J86505D01*
G01*
X184150000Y-90517200D02*
X184150000Y-99314000D01*
X184150000Y-99314000D02*
X177292000Y-106172000D01*
X158369800Y-108712800D02*
X157149800Y-107492800D01*
X153074328Y-107894558D02*
X153074328Y-107684800D01*
X155762328Y-107492800D02*
X155666328Y-107492800D01*
X154034328Y-107894558D02*
X154034328Y-107684800D01*
X150653033Y-106203034D02*
X150585154Y-106135154D01*
X153554328Y-107684800D02*
X153554328Y-107894558D01*
X154994328Y-107894558D02*
X154994328Y-107684800D01*
X157149800Y-107492800D02*
X156626328Y-107492800D01*
X151183503Y-107301740D02*
X151331857Y-107153387D01*
X158369800Y-111574000D02*
X158369800Y-108712800D01*
X153362328Y-108086558D02*
X153266328Y-108086558D01*
X152882328Y-107492800D02*
X152786328Y-107492800D01*
X154514328Y-107684800D02*
X154514328Y-107894558D01*
X150504692Y-106622905D02*
X150653034Y-106474564D01*
X150992447Y-106813977D02*
X150844104Y-106962317D01*
X150585154Y-106135154D02*
X148619782Y-104169782D01*
X151251387Y-107641153D02*
X151183504Y-107573270D01*
X152786328Y-107492800D02*
X152256328Y-107492800D01*
X148619782Y-104169782D02*
X148590000Y-104140000D01*
X150572576Y-106962318D02*
X150504693Y-106894435D01*
X151331856Y-106881857D02*
X151263977Y-106813977D01*
X155474328Y-107684800D02*
X155474328Y-107894558D01*
X156434328Y-107684800D02*
X156434328Y-107894558D01*
X153842328Y-107492800D02*
X153746328Y-107492800D01*
X155282328Y-108086558D02*
X155186328Y-108086558D01*
X151671270Y-107492800D02*
X151522915Y-107641152D01*
X152256328Y-107492800D02*
X151942800Y-107492800D01*
X155954328Y-107894558D02*
X155954328Y-107684800D01*
X154322328Y-108086558D02*
X154226328Y-108086558D01*
X154802328Y-107492800D02*
X154706328Y-107492800D01*
X156242328Y-108086558D02*
X156146328Y-108086558D01*
X154994328Y-107684800D02*
G75*
G03*
X154802328Y-107492772I-192028J0D01*
G01*
X151263977Y-106813977D02*
G75*
G03*
X150992447Y-106813977I-135765J-135761D01*
G01*
X153074328Y-107684800D02*
G75*
G03*
X152882328Y-107492772I-192028J0D01*
G01*
X153746328Y-107492800D02*
G75*
G03*
X153554300Y-107684800I-28J-192000D01*
G01*
X156146328Y-108086558D02*
G75*
G02*
X155954342Y-107894558I-28J191958D01*
G01*
X150844104Y-106962317D02*
G75*
G02*
X150572536Y-106962358I-135804J135717D01*
G01*
X156626328Y-107492800D02*
G75*
G03*
X156434300Y-107684800I-28J-192000D01*
G01*
X154226328Y-108086558D02*
G75*
G02*
X154034342Y-107894558I-28J191958D01*
G01*
X155954328Y-107684800D02*
G75*
G03*
X155762328Y-107492772I-192028J0D01*
G01*
X155666328Y-107492800D02*
G75*
G03*
X155474300Y-107684800I-28J-192000D01*
G01*
X153554328Y-107894558D02*
G75*
G02*
X153362328Y-108086628I-192028J-42D01*
G01*
X151183504Y-107573270D02*
G75*
G02*
X151183499Y-107301736I135796J135770D01*
G01*
X154706328Y-107492800D02*
G75*
G03*
X154514300Y-107684800I-28J-192000D01*
G01*
X156434328Y-107894558D02*
G75*
G02*
X156242328Y-108086628I-192028J-42D01*
G01*
X153266328Y-108086558D02*
G75*
G02*
X153074342Y-107894558I-28J191958D01*
G01*
X151522915Y-107641152D02*
G75*
G02*
X151251437Y-107641104I-135715J135752D01*
G01*
X150504693Y-106894435D02*
G75*
G02*
X150504722Y-106622935I135807J135735D01*
G01*
X155474328Y-107894558D02*
G75*
G02*
X155282328Y-108086628I-192028J-42D01*
G01*
X154034328Y-107684800D02*
G75*
G03*
X153842328Y-107492772I-192028J0D01*
G01*
X151331857Y-107153387D02*
G75*
G03*
X151331879Y-106881835I-135757J135787D01*
G01*
X154514328Y-107894558D02*
G75*
G02*
X154322328Y-108086628I-192028J-42D01*
G01*
X151942800Y-107492800D02*
G75*
G03*
X151671270Y-107492800I-135765J-135761D01*
G01*
X150653034Y-106474564D02*
G75*
G03*
X150653032Y-106203035I-135734J135764D01*
G01*
X155186328Y-108086558D02*
G75*
G02*
X154994342Y-107894558I-28J191958D01*
G01*
X165647593Y-105449593D02*
X165562742Y-105364742D01*
X163017155Y-102819155D02*
X162325635Y-102127635D01*
X164446891Y-103595592D02*
X164289947Y-103752535D01*
X167416724Y-106226052D02*
X167331871Y-106141199D01*
X163950535Y-103752535D02*
X163865684Y-103667684D01*
X183750000Y-98190000D02*
X183750000Y-90517200D01*
X164871156Y-103680445D02*
X164786303Y-103595592D01*
X166992459Y-106141199D02*
X166835534Y-106298123D01*
X165719616Y-104529044D02*
X165634763Y-104444191D01*
X164022599Y-102831945D02*
X163937746Y-102747092D01*
X177165000Y-104648000D02*
X177292000Y-104648000D01*
X164714213Y-104176801D02*
X164871156Y-104019857D01*
X164799065Y-104601065D02*
X164714213Y-104516213D01*
X166568173Y-105377544D02*
X166483320Y-105292691D01*
X163102007Y-102904007D02*
X163017155Y-102819155D01*
X167259800Y-107420078D02*
X167259800Y-107061800D01*
X163598334Y-102747092D02*
X163441418Y-102904007D01*
X165562742Y-105025330D02*
X165719616Y-104868455D01*
X166143908Y-105292691D02*
X165987005Y-105449593D01*
X167259800Y-106722388D02*
X167416724Y-106565463D01*
X166496123Y-106298123D02*
X166411271Y-106213271D01*
X166411271Y-105873859D02*
X166568173Y-105716956D01*
X162325635Y-102127635D02*
X162306000Y-102108000D01*
X165295351Y-104444191D02*
X165138476Y-104601065D01*
X177292000Y-104648000D02*
X183750000Y-98190000D01*
X162306000Y-102108000D02*
X157734000Y-102108000D01*
X167259800Y-111574000D02*
X167259800Y-107420078D01*
X163865684Y-103328272D02*
X164022599Y-103171356D01*
X163937746Y-102747092D02*
G75*
G03*
X163598334Y-102747092I-169706J-169704D01*
G01*
X166411271Y-106213271D02*
G75*
G02*
X166411306Y-105873894I169729J169671D01*
G01*
X166483320Y-105292691D02*
G75*
G03*
X166143908Y-105292691I-169706J-169704D01*
G01*
X163441418Y-102904007D02*
G75*
G02*
X163102008Y-102904007I-169705J169703D01*
G01*
X165562742Y-105364742D02*
G75*
G02*
X165562706Y-105025294I169658J169742D01*
G01*
X165987005Y-105449593D02*
G75*
G02*
X165647593Y-105449593I-169706J169704D01*
G01*
X167259800Y-107061800D02*
G75*
G02*
X167259806Y-106722394I169700J169700D01*
G01*
X163865684Y-103667684D02*
G75*
G02*
X163865706Y-103328294I169716J169684D01*
G01*
X165719616Y-104868455D02*
G75*
G03*
X165719666Y-104528995I-169716J169755D01*
G01*
X164022599Y-103171356D02*
G75*
G03*
X164022550Y-102831995I-169699J169656D01*
G01*
X165138476Y-104601065D02*
G75*
G02*
X164799066Y-104601065I-169705J169703D01*
G01*
X165634763Y-104444191D02*
G75*
G03*
X165295351Y-104444191I-169706J-169704D01*
G01*
X167331871Y-106141199D02*
G75*
G03*
X166992459Y-106141199I-169706J-169704D01*
G01*
X166568173Y-105716956D02*
G75*
G03*
X166568123Y-105377594I-169673J169656D01*
G01*
X167416724Y-106565463D02*
G75*
G03*
X167416682Y-106226095I-169724J169663D01*
G01*
X166835534Y-106298123D02*
G75*
G02*
X166496122Y-106298124I-169706J169703D01*
G01*
X164786303Y-103595592D02*
G75*
G03*
X164446891Y-103595592I-169706J-169704D01*
G01*
X164289947Y-103752535D02*
G75*
G02*
X163950535Y-103752535I-169706J169704D01*
G01*
X164714213Y-104516213D02*
G75*
G02*
X164714206Y-104176794I169687J169713D01*
G01*
X164871156Y-104019857D02*
G75*
G03*
X164871107Y-103680494I-169656J169657D01*
G01*
X161544000Y-113538000D02*
X161544000Y-111760000D01*
X161544000Y-111760000D02*
X161544000Y-107950000D01*
X180022500Y-93408500D02*
X180550000Y-92881000D01*
X162179800Y-114173800D02*
X161544000Y-113538000D01*
X180550000Y-92881000D02*
X180550000Y-90517200D01*
X162179800Y-115474000D02*
X162179800Y-114173800D01*
X150025794Y-107099794D02*
X149940942Y-107014942D01*
X148645696Y-105719696D02*
X146862800Y-103936800D01*
X148957280Y-107319780D02*
X148872427Y-107234927D01*
X150874323Y-107948323D02*
X150789471Y-107863471D01*
X149601530Y-107014942D02*
X149296690Y-107319779D01*
X153235387Y-109623132D02*
X153115387Y-109623132D01*
X148872427Y-106895515D02*
X149177264Y-106590675D01*
X146862800Y-103936800D02*
X146862800Y-103886000D01*
X153475387Y-108952000D02*
X153475387Y-109383132D01*
X149720938Y-107744062D02*
X150025793Y-107439204D01*
X152875387Y-109383132D02*
X152875387Y-108952000D01*
X152635387Y-108712000D02*
X152515387Y-108712000D01*
X150450059Y-107863471D02*
X150145201Y-108168326D01*
X151865387Y-108712000D02*
X151638000Y-108712000D01*
X150654320Y-109016856D02*
X150569467Y-108932003D01*
X149177265Y-106251265D02*
X149092413Y-106166413D01*
X149805791Y-108168327D02*
X149720938Y-108083474D01*
X156210000Y-108712000D02*
X153715387Y-108712000D01*
X151298588Y-108712000D02*
X150993730Y-109016855D01*
X152515387Y-108712000D02*
X151865387Y-108712000D01*
X157099800Y-109601800D02*
X156210000Y-108712000D01*
X150569467Y-108592591D02*
X150874322Y-108287733D01*
X157099800Y-111574000D02*
X157099800Y-109601800D01*
X149092413Y-106166413D02*
X148645696Y-105719696D01*
X150025793Y-107439204D02*
G75*
G03*
X150025793Y-107099796I-169693J169704D01*
G01*
X149940942Y-107014942D02*
G75*
G03*
X149601530Y-107014942I-169706J-169701D01*
G01*
X148872427Y-107234927D02*
G75*
G02*
X148872406Y-106895494I169673J169727D01*
G01*
X150874322Y-108287733D02*
G75*
G03*
X150874351Y-107948296I-169722J169733D01*
G01*
X153475387Y-109383132D02*
G75*
G02*
X153235387Y-109623087I-239987J32D01*
G01*
X151638000Y-108712000D02*
G75*
G03*
X151298588Y-108712000I-169706J-169701D01*
G01*
X153115387Y-109623132D02*
G75*
G02*
X152875368Y-109383132I13J240032D01*
G01*
X152875387Y-108952000D02*
G75*
G03*
X152635387Y-108712013I-239987J0D01*
G01*
X153715387Y-108712000D02*
G75*
G03*
X153475400Y-108952000I13J-240000D01*
G01*
X150789471Y-107863471D02*
G75*
G03*
X150450059Y-107863471I-169706J-169701D01*
G01*
X149720938Y-108083474D02*
G75*
G02*
X149720970Y-107744094I169662J169674D01*
G01*
X150993730Y-109016855D02*
G75*
G02*
X150654295Y-109016881I-169730J169655D01*
G01*
X149177264Y-106590675D02*
G75*
G03*
X149177235Y-106251296I-169664J169675D01*
G01*
X150569467Y-108932003D02*
G75*
G02*
X150569470Y-108592594I169733J169703D01*
G01*
X150145201Y-108168326D02*
G75*
G02*
X149805795Y-108168322I-169701J169726D01*
G01*
X149296690Y-107319779D02*
G75*
G02*
X148957296Y-107319765I-169690J169679D01*
G01*
X159742395Y-106291394D02*
X159535986Y-106084985D01*
X159559801Y-106656489D02*
X159651144Y-106565143D01*
X152373382Y-105239736D02*
X152166649Y-105033003D01*
X157340806Y-105405612D02*
X157049194Y-105405612D01*
X155270000Y-105793187D02*
X155270000Y-105664000D01*
X155140806Y-105405612D02*
X154849194Y-105405612D01*
X160040054Y-106954054D02*
X160040055Y-106954055D01*
X151959918Y-104461918D02*
X151110526Y-103612526D01*
X160040055Y-106954055D02*
X159948709Y-107045398D01*
X159651144Y-106565143D02*
X159651145Y-106565145D01*
X160909800Y-111574000D02*
X160909800Y-108893271D01*
X152166648Y-104668649D02*
X151959918Y-104461918D01*
X156920000Y-105534806D02*
X156920000Y-105664000D01*
X160428965Y-107342965D02*
X160520322Y-107251607D01*
X151110526Y-103612526D02*
X150876000Y-103378000D01*
X160909800Y-108293271D02*
X160909800Y-107823800D01*
X155820000Y-105534806D02*
X155820000Y-105664000D01*
X158750000Y-105664000D02*
X158150000Y-105664000D01*
X160544736Y-107823800D02*
X160337697Y-107616761D01*
X155270000Y-105664000D02*
X155270000Y-105534806D01*
X155820000Y-105664000D02*
X155820000Y-105793187D01*
X160428962Y-107342964D02*
X160428965Y-107342965D01*
X154590938Y-105922124D02*
X154299062Y-105922124D01*
X154720000Y-105664000D02*
X154720000Y-105793062D01*
X153162000Y-105664000D02*
X152737736Y-105239736D01*
X154040938Y-105664000D02*
X153750000Y-105664000D01*
X157891876Y-105922124D02*
X157599062Y-105922124D01*
X155690814Y-105922373D02*
X155399186Y-105922373D01*
X159651145Y-106565145D02*
X159742395Y-106473894D01*
X157470000Y-105793062D02*
X157470000Y-105664000D01*
X153750000Y-105664000D02*
X153162000Y-105664000D01*
X159170985Y-106084985D02*
X158965251Y-105879251D01*
X156370000Y-105664000D02*
X156370000Y-105534806D01*
X156920000Y-105664000D02*
X156920000Y-105793194D01*
X160131412Y-106862697D02*
X160040054Y-106954054D01*
X159766023Y-107045398D02*
X159559800Y-106839175D01*
X157470000Y-105664000D02*
X157470000Y-105534806D01*
X158965251Y-105879251D02*
X158750000Y-105664000D01*
X156790806Y-105922388D02*
X156499194Y-105922388D01*
X154720000Y-105534806D02*
X154720000Y-105664000D01*
X156240806Y-105405612D02*
X155949194Y-105405612D01*
X160520322Y-107068893D02*
X160314126Y-106862697D01*
X156370000Y-105793194D02*
X156370000Y-105664000D01*
X160337696Y-107434229D02*
X160428962Y-107342964D01*
X160909800Y-108893271D02*
X160909800Y-108293271D01*
X159559800Y-106839175D02*
G75*
G02*
X159559768Y-106656456I91300J91375D01*
G01*
X152166649Y-104850827D02*
G75*
G03*
X152166687Y-104668610I-91049J91127D01*
G01*
X154299062Y-105922124D02*
G75*
G02*
X154170076Y-105793062I38J129024D01*
G01*
X154170000Y-105793062D02*
G75*
G03*
X154040938Y-105664000I-129100J-38D01*
G01*
X155820000Y-105793187D02*
G75*
G02*
X155690814Y-105922400I-129200J-13D01*
G01*
X159742395Y-106473894D02*
G75*
G03*
X159742439Y-106291350I-91295J91294D01*
G01*
X157470000Y-105534806D02*
G75*
G03*
X157340806Y-105405600I-129200J6D01*
G01*
X160337697Y-107616761D02*
G75*
G02*
X160337702Y-107434234I91303J91261D01*
G01*
X155949194Y-105405612D02*
G75*
G03*
X155820012Y-105534806I6J-129188D01*
G01*
X158150000Y-105664000D02*
G75*
G03*
X158020900Y-105793062I0J-129100D01*
G01*
X159535986Y-106084985D02*
G75*
G03*
X159353486Y-106084985I-91250J-91250D01*
G01*
X156370000Y-105534806D02*
G75*
G03*
X156240806Y-105405600I-129200J6D01*
G01*
X159353486Y-106084985D02*
G75*
G02*
X159170985Y-106084986I-91251J91251D01*
G01*
X154720000Y-105793062D02*
G75*
G02*
X154590938Y-105922200I-129100J-38D01*
G01*
X159948709Y-107045398D02*
G75*
G02*
X159766023Y-107045398I-91343J91338D01*
G01*
X156499194Y-105922388D02*
G75*
G02*
X156370012Y-105793194I6J129188D01*
G01*
X158020938Y-105793062D02*
G75*
G02*
X157891876Y-105922138I-129038J-38D01*
G01*
X157599062Y-105922124D02*
G75*
G02*
X157470076Y-105793062I38J129024D01*
G01*
X155270000Y-105534806D02*
G75*
G03*
X155140806Y-105405600I-129200J6D01*
G01*
X155399186Y-105922373D02*
G75*
G02*
X155270027Y-105793187I14J129173D01*
G01*
X157049194Y-105405612D02*
G75*
G03*
X156920012Y-105534806I6J-129188D01*
G01*
X152555558Y-105239735D02*
G75*
G02*
X152373412Y-105239706I-91058J91135D01*
G01*
X152166649Y-105033003D02*
G75*
G02*
X152166634Y-104850812I91051J91103D01*
G01*
X160520322Y-107251607D02*
G75*
G03*
X160520272Y-107068943I-91322J91307D01*
G01*
X152737736Y-105239736D02*
G75*
G03*
X152555511Y-105239688I-91136J-91064D01*
G01*
X156920000Y-105793194D02*
G75*
G02*
X156790806Y-105922400I-129200J-6D01*
G01*
X160314126Y-106862697D02*
G75*
G03*
X160131412Y-106862697I-91357J-91358D01*
G01*
X160909800Y-107823800D02*
G75*
G03*
X160727268Y-107823800I-91266J-91265D01*
G01*
X154849194Y-105405612D02*
G75*
G03*
X154720012Y-105534806I6J-129188D01*
G01*
X160727268Y-107823800D02*
G75*
G02*
X160544736Y-107823800I-91266J91265D01*
G01*
X157734000Y-113284000D02*
X157734000Y-110998000D01*
X157734000Y-108966000D02*
X157708600Y-108940600D01*
X158369800Y-115474000D02*
X158369800Y-113919800D01*
X157734000Y-110998000D02*
X157734000Y-108966000D01*
X158369800Y-113919800D02*
X157734000Y-113284000D01*
X169799800Y-109728800D02*
X169799800Y-111574000D01*
X169722800Y-109651800D02*
X169799800Y-109728800D01*
X162300132Y-106858687D02*
X162399053Y-106957608D01*
X161147795Y-104829114D02*
X161246652Y-104927971D01*
X162618330Y-106957608D02*
X162727969Y-106847968D01*
X163449800Y-107806482D02*
X163449800Y-107672482D01*
X162699800Y-108476482D02*
X162699800Y-108342482D01*
X153035000Y-102616000D02*
X154432000Y-104013000D01*
X163449800Y-107569800D02*
X163404996Y-107524996D01*
X162727969Y-106847969D02*
X162835958Y-106739977D01*
X161136982Y-105256982D02*
X161027347Y-105366616D01*
X154432000Y-104013000D02*
X159893000Y-104013000D01*
X163449800Y-107672482D02*
X163449800Y-107569800D01*
X163051940Y-106739979D02*
X163154157Y-106842196D01*
X160500584Y-104620586D02*
X160500587Y-104620587D01*
X160818784Y-104938784D02*
X160928453Y-104829112D01*
X162727969Y-106847968D02*
X162727969Y-106847969D01*
X161773376Y-105893377D02*
X161773377Y-105893377D01*
X162409772Y-106529772D02*
X162300132Y-106639411D01*
X177292000Y-95631000D02*
X177800000Y-95631000D01*
X163181800Y-108744482D02*
X162967800Y-108744482D01*
X159893000Y-104013000D02*
X160062182Y-104182182D01*
X162409771Y-106529772D02*
X162409772Y-106529772D01*
X160494118Y-104182182D02*
X160608569Y-104296633D01*
X163154156Y-107274156D02*
X163244155Y-107364155D01*
X160390952Y-104949487D02*
X160489883Y-105048418D01*
X179197000Y-94234000D02*
X180213000Y-94234000D01*
X161246651Y-105147311D02*
X161136981Y-105256982D01*
X161455179Y-105575178D02*
X161455179Y-105575179D01*
X180950000Y-93497000D02*
X180950000Y-90517200D01*
X162519441Y-106420101D02*
X162409771Y-106529772D01*
X161773377Y-105893377D02*
X161663737Y-106003016D01*
X161027347Y-105585882D02*
X161126278Y-105684813D01*
X160818784Y-104938783D02*
X160818784Y-104938784D01*
X161883046Y-105783706D02*
X161773376Y-105893377D01*
X161663737Y-106222296D02*
X161762655Y-106321214D01*
X162967800Y-108074482D02*
X163181800Y-108074482D01*
X161784190Y-105465509D02*
X161883047Y-105564366D01*
X177800000Y-95631000D02*
X179197000Y-94234000D01*
X160608570Y-104512603D02*
X160500584Y-104620586D01*
X161345545Y-105684813D02*
X161455179Y-105575178D01*
X180213000Y-94234000D02*
X180950000Y-93497000D01*
X161455179Y-105575179D02*
X161564848Y-105465507D01*
X160500587Y-104620587D02*
X160390952Y-104730221D01*
X162091574Y-106211574D02*
X162201243Y-106101902D01*
X160709150Y-105048418D02*
X160818784Y-104938783D01*
X163449800Y-111574000D02*
X163449800Y-109012482D01*
X163244155Y-107364155D02*
X163404996Y-107524996D01*
X161136981Y-105256982D02*
X161136982Y-105256982D01*
X161981935Y-106321214D02*
X162091574Y-106211574D01*
X162420585Y-106101904D02*
X162519442Y-106200761D01*
X161027347Y-105366616D02*
G75*
G03*
X161027396Y-105585833I109653J-109584D01*
G01*
X161663737Y-106003016D02*
G75*
G03*
X161663693Y-106222340I109663J-109684D01*
G01*
X162967800Y-108744482D02*
G75*
G02*
X162699818Y-108476482I0J267982D01*
G01*
X162201243Y-106101902D02*
G75*
G02*
X162420572Y-106101917I109657J-109698D01*
G01*
X161246652Y-104927971D02*
G75*
G02*
X161246611Y-105147270I-109652J-109629D01*
G01*
X160489883Y-105048418D02*
G75*
G03*
X160709150Y-105048419I109634J109636D01*
G01*
X162699800Y-108342482D02*
G75*
G02*
X162967800Y-108074500I268000J-18D01*
G01*
X162835958Y-106739977D02*
G75*
G02*
X163051892Y-106740027I107942J-108023D01*
G01*
X160062182Y-104182182D02*
G75*
G03*
X160278150Y-104182182I107984J107985D01*
G01*
X162300132Y-106639411D02*
G75*
G03*
X162300181Y-106858638I109668J-109589D01*
G01*
X163181800Y-108074482D02*
G75*
G03*
X163449782Y-107806482I0J267982D01*
G01*
X162519442Y-106200761D02*
G75*
G02*
X162519411Y-106420070I-109642J-109639D01*
G01*
X160928453Y-104829112D02*
G75*
G02*
X161147772Y-104829137I109647J-109688D01*
G01*
X162399053Y-106957608D02*
G75*
G03*
X162618330Y-106957608I109638J109641D01*
G01*
X163154156Y-107058176D02*
G75*
G03*
X163154122Y-107274190I107944J-108024D01*
G01*
X161883047Y-105564366D02*
G75*
G02*
X161883011Y-105783670I-109647J-109634D01*
G01*
X160278150Y-104182182D02*
G75*
G02*
X160494118Y-104182182I107984J-107985D01*
G01*
X163154157Y-106842196D02*
G75*
G02*
X163154171Y-107058191I-107957J-108004D01*
G01*
X161126278Y-105684813D02*
G75*
G03*
X161345545Y-105684814I109634J109636D01*
G01*
X161762655Y-106321214D02*
G75*
G03*
X161981935Y-106321214I109640J109641D01*
G01*
X160390952Y-104730221D02*
G75*
G03*
X160390906Y-104949533I109648J-109679D01*
G01*
X163449800Y-109012482D02*
G75*
G03*
X163181800Y-108744500I-268000J-18D01*
G01*
X161564848Y-105465507D02*
G75*
G02*
X161784172Y-105465527I109652J-109693D01*
G01*
X160608569Y-104296633D02*
G75*
G02*
X160608552Y-104512584I-107969J-107967D01*
G01*
X166624000Y-111252000D02*
X166624000Y-107950000D01*
X166624000Y-114838200D02*
X166624000Y-111252000D01*
X167259800Y-115474000D02*
X166624000Y-114838200D01*
X181350000Y-93986000D02*
X181350000Y-90517200D01*
X180086000Y-94869000D02*
X180467000Y-94869000D01*
X163449800Y-115474000D02*
X163449800Y-114173800D01*
X163449800Y-114173800D02*
X162814000Y-113538000D01*
X162814000Y-113538000D02*
X162814000Y-111887000D01*
X162814000Y-111887000D02*
X162814000Y-109220000D01*
X180467000Y-94869000D02*
X181350000Y-93986000D01*
X164719800Y-115474000D02*
X164719800Y-114046800D01*
X164084000Y-113411000D02*
X164084000Y-111633000D01*
X164719800Y-114046800D02*
X164084000Y-113411000D01*
X182150000Y-95599000D02*
X182150000Y-90517200D01*
X164084000Y-111633000D02*
X164084000Y-107950000D01*
X180086000Y-96520000D02*
X181229000Y-96520000D01*
X181229000Y-96520000D02*
X182150000Y-95599000D01*
X177292000Y-93091000D02*
X178485800Y-93091000D01*
X160274000Y-112014000D02*
X160274000Y-109220000D01*
X178485800Y-93091000D02*
X179750000Y-91826800D01*
X160909800Y-114173800D02*
X160274000Y-113538000D01*
X179750000Y-91826800D02*
X179750000Y-90517200D01*
X160909800Y-115474000D02*
X160909800Y-114173800D01*
X160274000Y-113538000D02*
X160274000Y-112014000D01*
X165989800Y-115474000D02*
X165989800Y-114072200D01*
X182245000Y-98044000D02*
X183350000Y-96939000D01*
X183350000Y-96939000D02*
X183350000Y-90517200D01*
X165354000Y-113436400D02*
X165354000Y-109220000D01*
X178689000Y-98044000D02*
X182245000Y-98044000D01*
X178562000Y-98171000D02*
X178689000Y-98044000D01*
X165989800Y-114072200D02*
X165354000Y-113436400D01*
X158602718Y-104522000D02*
X158742718Y-104522000D01*
X158082718Y-105282000D02*
X158222718Y-105282000D01*
X154604092Y-104505020D02*
X154707112Y-104505020D01*
X159860087Y-105250086D02*
X159683311Y-105073311D01*
X160835898Y-106225898D02*
X160772257Y-106289536D01*
X161507652Y-106770373D02*
X161444012Y-106834012D01*
X161444012Y-106834012D02*
X161380371Y-106897650D01*
X160291424Y-105554145D02*
X160227784Y-105617784D01*
X157207112Y-104902000D02*
X157702718Y-104902000D01*
X161203594Y-106339036D02*
X161026817Y-106162259D01*
X161253093Y-106897651D02*
X161076316Y-106720874D01*
X156604148Y-104504964D02*
X156707112Y-104504964D01*
X162179800Y-111574000D02*
X162179800Y-107569800D01*
X156104050Y-104902000D02*
X156207112Y-104902000D01*
X161139955Y-106529955D02*
X161203594Y-106466315D01*
X159122718Y-104902000D02*
X159262718Y-104902000D01*
X159683311Y-105073311D02*
X159512000Y-104902000D01*
X160531841Y-105921841D02*
X160595480Y-105858201D01*
X159512000Y-104902000D02*
X159424049Y-104902000D01*
X155104092Y-104902000D02*
X155207112Y-104902000D01*
X161748068Y-107138070D02*
X161748069Y-107138069D01*
X162179800Y-107569800D02*
X162115766Y-107505766D01*
X158412718Y-105092000D02*
X158412718Y-104902000D01*
X160899538Y-106162259D02*
X160835898Y-106225898D01*
X155604050Y-104505062D02*
X155707112Y-104505062D01*
X161684428Y-107201709D02*
X161748068Y-107138070D01*
X180150000Y-92265000D02*
X180150000Y-90517200D01*
X160468201Y-105985480D02*
X160531841Y-105921841D01*
X161748069Y-107138069D02*
X161811708Y-107074429D01*
X160644979Y-106289537D02*
X160468202Y-106112760D01*
X161811708Y-106947150D02*
X161634931Y-106770373D01*
X160227784Y-105617784D02*
X160164143Y-105681422D01*
X178054000Y-94361000D02*
X180150000Y-92265000D01*
X177292000Y-94361000D02*
X178054000Y-94361000D01*
X160595480Y-105730922D02*
X160418703Y-105554145D01*
X161076315Y-106593594D02*
X161139955Y-106529955D01*
X161861206Y-107505766D02*
X161684429Y-107328989D01*
X159262718Y-104902000D02*
X159424049Y-104902000D01*
X160036865Y-105681423D02*
X159860088Y-105504646D01*
X158412718Y-104902000D02*
X158412718Y-104712000D01*
X154051000Y-104902000D02*
X154207112Y-104902000D01*
X157104148Y-104902000D02*
X157207112Y-104902000D01*
X160595480Y-105858201D02*
G75*
G03*
X160595442Y-105730960I-63680J63601D01*
G01*
X154207112Y-104902000D02*
G75*
G03*
X154405600Y-104703510I-12J198500D01*
G01*
X158412718Y-104712000D02*
G75*
G02*
X158602718Y-104522018I189982J0D01*
G01*
X156405630Y-104703482D02*
G75*
G02*
X156604148Y-104505030I198470J-18D01*
G01*
X155405581Y-104703531D02*
G75*
G02*
X155604050Y-104505081I198419J31D01*
G01*
X156905630Y-104703482D02*
G75*
G03*
X157104148Y-104901970I198470J-18D01*
G01*
X155707112Y-104505062D02*
G75*
G02*
X155905538Y-104703531I-12J-198438D01*
G01*
X154405602Y-104703510D02*
G75*
G02*
X154604092Y-104505002I198498J10D01*
G01*
X154707112Y-104505020D02*
G75*
G02*
X154905580Y-104703510I-12J-198480D01*
G01*
X155905581Y-104703531D02*
G75*
G03*
X156104050Y-104901919I198419J31D01*
G01*
X161026817Y-106162259D02*
G75*
G03*
X160899539Y-106162259I-63639J-63637D01*
G01*
X159860088Y-105504646D02*
G75*
G02*
X159860081Y-105377360I63612J63646D01*
G01*
X160468202Y-106112760D02*
G75*
G02*
X160468181Y-105985460I63598J63660D01*
G01*
X162115766Y-107505766D02*
G75*
G03*
X161988486Y-107505766I-63640J-63635D01*
G01*
X158222718Y-105282000D02*
G75*
G03*
X158412700Y-105092000I-18J190000D01*
G01*
X161076316Y-106720874D02*
G75*
G02*
X161076281Y-106593561I63684J63674D01*
G01*
X154905602Y-104703510D02*
G75*
G03*
X155104092Y-104901998I198498J10D01*
G01*
X156707112Y-104504964D02*
G75*
G02*
X156905636Y-104703482I-12J-198536D01*
G01*
X159860087Y-105377366D02*
G75*
G03*
X159860113Y-105250060I-63587J63666D01*
G01*
X158932718Y-104712000D02*
G75*
G03*
X159122718Y-104901982I189982J0D01*
G01*
X161684429Y-107328989D02*
G75*
G02*
X161684379Y-107201661I63671J63689D01*
G01*
X156207112Y-104902000D02*
G75*
G03*
X156405600Y-104703482I-12J198500D01*
G01*
X160418703Y-105554145D02*
G75*
G03*
X160291425Y-105554145I-63639J-63637D01*
G01*
X160164143Y-105681422D02*
G75*
G02*
X160036861Y-105681427I-63643J63622D01*
G01*
X161811708Y-107074429D02*
G75*
G03*
X161811698Y-106947161I-63608J63629D01*
G01*
X158742718Y-104522000D02*
G75*
G02*
X158932700Y-104712000I-18J-190000D01*
G01*
X161380371Y-106897650D02*
G75*
G02*
X161253062Y-106897683I-63671J63650D01*
G01*
X161634931Y-106770373D02*
G75*
G03*
X161507653Y-106770373I-63639J-63637D01*
G01*
X160772257Y-106289536D02*
G75*
G02*
X160644962Y-106289555I-63657J63636D01*
G01*
X161203594Y-106466315D02*
G75*
G03*
X161203570Y-106339061I-63594J63615D01*
G01*
X161988486Y-107505766D02*
G75*
G02*
X161861206Y-107505766I-63640J63642D01*
G01*
X157702718Y-104902000D02*
G75*
G02*
X157892700Y-105092000I-18J-190000D01*
G01*
X155207112Y-104902000D02*
G75*
G03*
X155405600Y-104703531I-12J198500D01*
G01*
X157892718Y-105092000D02*
G75*
G03*
X158082718Y-105281982I189982J0D01*
G01*
X187096400Y-89712800D02*
X186263300Y-88879700D01*
X187096400Y-91643200D02*
X187096400Y-89712800D01*
X186263300Y-88879700D02*
X185387500Y-88879700D01*
X163659136Y-106665258D02*
X163538927Y-106545049D01*
X163966728Y-106562728D02*
X163864196Y-106665257D01*
X163093445Y-105279323D02*
X162973236Y-105159114D01*
X163316186Y-105912186D02*
X163213654Y-106014715D01*
X161792361Y-103978239D02*
X161672152Y-103858030D01*
X163743987Y-105929865D02*
X163623778Y-105809656D01*
X162237842Y-105038903D02*
X162340373Y-104936373D01*
X164309678Y-107315800D02*
X164189469Y-107195591D01*
X155685256Y-103378000D02*
X155575000Y-103378000D01*
X179133500Y-95567500D02*
X177292000Y-97409000D01*
X164189468Y-106990529D02*
X164291999Y-106887999D01*
X181038500Y-95567500D02*
X181750000Y-94856000D01*
X160782000Y-103378000D02*
X160333467Y-103378000D01*
X162015102Y-104611102D02*
X161912570Y-104713631D01*
X161587300Y-104388361D02*
X161689831Y-104285831D01*
X159708467Y-103378000D02*
X159708467Y-103296063D01*
X159708467Y-103459996D02*
X159708467Y-103378000D01*
X155575000Y-103378000D02*
X154051000Y-101854000D01*
X162358052Y-105364174D02*
X162237843Y-105243965D01*
X159626530Y-103214126D02*
X159270404Y-103214126D01*
X160169475Y-103541992D02*
X159790463Y-103541992D01*
X163008594Y-106014716D02*
X162888385Y-105894507D01*
X162340373Y-104936373D02*
X162442903Y-104833842D01*
X161262030Y-103858030D02*
X161141823Y-103737823D01*
X162888384Y-105689445D02*
X162990915Y-105586915D01*
X158773467Y-103378000D02*
X155685256Y-103378000D01*
X159106530Y-103378000D02*
X158773467Y-103378000D01*
X163641457Y-106237457D02*
X163743987Y-106134926D01*
X162990915Y-105586915D02*
X163093445Y-105484384D01*
X162665644Y-105261644D02*
X162563112Y-105364173D01*
X163418717Y-105809656D02*
X163316186Y-105912186D01*
X164291999Y-106887999D02*
X164394529Y-106785468D01*
X162117633Y-104508572D02*
X162015102Y-104611102D01*
X164394529Y-106580407D02*
X164274320Y-106460198D01*
X162442903Y-104628781D02*
X162322694Y-104508572D01*
X181038500Y-95567500D02*
X179133500Y-95567500D01*
X163538926Y-106339987D02*
X163641457Y-106237457D01*
X181750000Y-94856000D02*
X181750000Y-90517200D01*
X160824048Y-103420048D02*
X160782000Y-103378000D01*
X161689831Y-104285831D02*
X161792361Y-104183300D01*
X164069259Y-106460198D02*
X163966728Y-106562728D01*
X162768175Y-105159114D02*
X162665644Y-105261644D01*
X164719800Y-111574000D02*
X164719800Y-107315800D01*
X161707510Y-104713632D02*
X161587301Y-104593423D01*
X161141823Y-103737823D02*
X160824048Y-103420048D01*
X161912570Y-104713631D02*
G75*
G02*
X161707471Y-104713672I-102570J102531D01*
G01*
X164514738Y-107315799D02*
G75*
G02*
X164309670Y-107315808I-102538J102499D01*
G01*
X163213654Y-106014715D02*
G75*
G02*
X163008570Y-106014740I-102554J102515D01*
G01*
X164394529Y-106785468D02*
G75*
G03*
X164394567Y-106580370I-102529J102568D01*
G01*
X163864196Y-106665257D02*
G75*
G02*
X163659170Y-106665224I-102496J102557D01*
G01*
X159708467Y-103296063D02*
G75*
G03*
X159626530Y-103214133I-81967J-37D01*
G01*
X161672152Y-103858030D02*
G75*
G03*
X161467092Y-103858030I-102530J-102529D01*
G01*
X163538927Y-106545049D02*
G75*
G02*
X163538908Y-106339970I102573J102549D01*
G01*
X161587301Y-104593423D02*
G75*
G02*
X161587308Y-104388370I102499J102523D01*
G01*
X164274320Y-106460198D02*
G75*
G03*
X164069260Y-106460198I-102530J-102529D01*
G01*
X159790463Y-103541992D02*
G75*
G02*
X159708508Y-103459996I37J81992D01*
G01*
X162973236Y-105159114D02*
G75*
G03*
X162768176Y-105159114I-102530J-102529D01*
G01*
X163743987Y-106134926D02*
G75*
G03*
X163743983Y-105929870I-102487J102526D01*
G01*
X161792361Y-104183300D02*
G75*
G03*
X161792331Y-103978269I-102561J102500D01*
G01*
X162888385Y-105894507D02*
G75*
G02*
X162888408Y-105689470I102515J102507D01*
G01*
X162322694Y-104508572D02*
G75*
G03*
X162117634Y-104508572I-102530J-102529D01*
G01*
X160333467Y-103378000D02*
G75*
G03*
X160251500Y-103459996I33J-82000D01*
G01*
X161467091Y-103858030D02*
G75*
G02*
X161262031Y-103858030I-102530J102529D01*
G01*
X160251471Y-103459996D02*
G75*
G02*
X160169475Y-103541971I-81971J-4D01*
G01*
X159270404Y-103214126D02*
G75*
G03*
X159188426Y-103296063I-4J-81974D01*
G01*
X162237843Y-105243965D02*
G75*
G02*
X162237808Y-105038870I102557J102565D01*
G01*
X164719800Y-107315800D02*
G75*
G03*
X164514770Y-107315830I-102500J-102500D01*
G01*
X162442903Y-104833842D02*
G75*
G03*
X162442915Y-104628769I-102503J102542D01*
G01*
X159188467Y-103296063D02*
G75*
G02*
X159106530Y-103378067I-81967J-37D01*
G01*
X163623778Y-105809656D02*
G75*
G03*
X163418718Y-105809656I-102530J-102529D01*
G01*
X164189469Y-107195591D02*
G75*
G02*
X164189508Y-106990570I102531J102491D01*
G01*
X162563112Y-105364173D02*
G75*
G02*
X162358070Y-105364156I-102512J102573D01*
G01*
X163093445Y-105484384D02*
G75*
G03*
X163093399Y-105279370I-102545J102484D01*
G01*
X150752440Y-105117852D02*
X150742840Y-105127449D01*
X149903911Y-104269323D02*
X149894311Y-104278920D01*
X158951431Y-107706345D02*
X158866578Y-107621492D01*
X150328174Y-104354174D02*
X150243323Y-104269323D01*
X152919000Y-106426000D02*
X152400000Y-106426000D01*
X151251957Y-105975978D02*
X151167104Y-105891125D01*
X155439000Y-106426000D02*
X155319000Y-106426000D01*
X158791271Y-106848271D02*
X158369000Y-106426000D01*
X150403428Y-105127449D02*
X150318575Y-105042596D01*
X155679000Y-106679546D02*
X155679000Y-106666000D01*
X149554899Y-104278920D02*
X149470046Y-104194067D01*
X154239000Y-106426000D02*
X154119000Y-106426000D01*
X149479645Y-103505645D02*
X149394794Y-103420794D01*
X152400000Y-106426000D02*
X151940381Y-105966381D01*
X156687850Y-106426000D02*
X156519000Y-106426000D01*
X149470046Y-103854655D02*
X149479645Y-103845057D01*
X156279000Y-106666000D02*
X156279000Y-106679546D01*
X154839000Y-106919546D02*
X154719000Y-106919546D01*
X158369000Y-106426000D02*
X157719000Y-106426000D01*
X151167104Y-105551713D02*
X151176703Y-105542115D01*
X155079000Y-106666000D02*
X155079000Y-106679546D01*
X156039000Y-106919546D02*
X155919000Y-106919546D01*
X157287850Y-106857150D02*
X157119000Y-106857150D01*
X158876123Y-106933123D02*
X158791271Y-106848271D01*
X153279000Y-106679548D02*
X153279000Y-106666000D01*
X151176703Y-105202703D02*
X151091852Y-105117852D01*
X159639800Y-111574000D02*
X159639800Y-108077000D01*
X158866578Y-107282080D02*
X158876122Y-107272533D01*
X153039000Y-106426000D02*
X152919000Y-106426000D01*
X151600969Y-105966381D02*
X151591369Y-105975978D01*
X159300388Y-107696800D02*
X159290841Y-107706344D01*
X154479000Y-106679546D02*
X154479000Y-106666000D01*
X149394794Y-103420794D02*
X149265606Y-103291606D01*
X149265606Y-103291606D02*
X148844000Y-102870000D01*
X159639800Y-108077000D02*
X159639800Y-107696800D01*
X153639000Y-106919548D02*
X153519000Y-106919548D01*
X150318575Y-104703184D02*
X150328174Y-104693586D01*
X153879000Y-106666000D02*
X153879000Y-106679548D01*
X159290841Y-107706344D02*
G75*
G02*
X158951396Y-107706381I-169741J169744D01*
G01*
X149894311Y-104278920D02*
G75*
G02*
X149554899Y-104278920I-169706J169701D01*
G01*
X157503425Y-106641575D02*
G75*
G02*
X157287850Y-106857125I-215525J-25D01*
G01*
X149470046Y-104194067D02*
G75*
G02*
X149470085Y-103854694I169754J169667D01*
G01*
X156903425Y-106641575D02*
G75*
G03*
X156687850Y-106426075I-215525J-25D01*
G01*
X149479645Y-103845057D02*
G75*
G03*
X149479596Y-103505694I-169745J169657D01*
G01*
X153279000Y-106666000D02*
G75*
G03*
X153039000Y-106426000I-240000J0D01*
G01*
X155679000Y-106666000D02*
G75*
G03*
X155439000Y-106426000I-240000J0D01*
G01*
X150243323Y-104269323D02*
G75*
G03*
X149903911Y-104269323I-169706J-169701D01*
G01*
X151167104Y-105891125D02*
G75*
G02*
X151167085Y-105551694I169696J169725D01*
G01*
X156279000Y-106679546D02*
G75*
G02*
X156039000Y-106919500I-240000J46D01*
G01*
X156519000Y-106426000D02*
G75*
G03*
X156279000Y-106666000I0J-240000D01*
G01*
X159639800Y-107696800D02*
G75*
G03*
X159300388Y-107696800I-169706J-169701D01*
G01*
X158876122Y-107272533D02*
G75*
G03*
X158876151Y-106933096I-169722J169733D01*
G01*
X151091852Y-105117852D02*
G75*
G03*
X150752440Y-105117852I-169706J-169701D01*
G01*
X154119000Y-106426000D02*
G75*
G03*
X153879000Y-106666000I0J-240000D01*
G01*
X153519000Y-106919548D02*
G75*
G02*
X153278952Y-106679548I0J240048D01*
G01*
X151591369Y-105975978D02*
G75*
G02*
X151251957Y-105975978I-169706J169701D01*
G01*
X157719000Y-106426000D02*
G75*
G03*
X157503400Y-106641575I0J-215600D01*
G01*
X153879000Y-106679548D02*
G75*
G02*
X153639000Y-106919500I-240000J48D01*
G01*
X158866578Y-107621492D02*
G75*
G02*
X158866592Y-107282094I169722J169692D01*
G01*
X155079000Y-106679546D02*
G75*
G02*
X154839000Y-106919500I-240000J46D01*
G01*
X154479000Y-106666000D02*
G75*
G03*
X154239000Y-106426000I-240000J0D01*
G01*
X151176703Y-105542115D02*
G75*
G03*
X151176712Y-105202694I-169703J169715D01*
G01*
X155319000Y-106426000D02*
G75*
G03*
X155079000Y-106666000I0J-240000D01*
G01*
X150328174Y-104693586D02*
G75*
G03*
X150328154Y-104354194I-169674J169686D01*
G01*
X150742840Y-105127449D02*
G75*
G02*
X150403428Y-105127449I-169706J169701D01*
G01*
X154719000Y-106919546D02*
G75*
G02*
X154478954Y-106679546I0J240046D01*
G01*
X157119000Y-106857150D02*
G75*
G02*
X156903450Y-106641575I0J215550D01*
G01*
X151940381Y-105966381D02*
G75*
G03*
X151600969Y-105966381I-169706J-169701D01*
G01*
X150318575Y-105042596D02*
G75*
G02*
X150318585Y-104703194I169725J169696D01*
G01*
X155919000Y-106919546D02*
G75*
G02*
X155678954Y-106679546I0J240046D01*
G01*
X154470100Y-112560100D02*
X155346400Y-113436400D01*
X157099800Y-113970600D02*
X157099800Y-115474000D01*
X155346400Y-113436400D02*
X156565600Y-113436400D01*
X156565600Y-113436400D02*
X157099800Y-113970600D01*
X183750000Y-84182000D02*
X184277000Y-84709000D01*
X183750000Y-83642200D02*
X183750000Y-84182000D01*
X182150000Y-83642200D02*
X182150000Y-84296000D01*
X182150000Y-84296000D02*
X181737000Y-84709000D01*
X174244000Y-80010000D02*
X174117000Y-80137000D01*
X183388000Y-81026000D02*
X181991000Y-79629000D01*
X183350000Y-83642200D02*
X183350000Y-82715000D01*
X168783000Y-79502000D02*
X166624000Y-79502000D01*
X174117000Y-80137000D02*
X169418000Y-80137000D01*
X174879000Y-79629000D02*
X174498000Y-80010000D01*
X174498000Y-80010000D02*
X174244000Y-80010000D01*
X181991000Y-79629000D02*
X174879000Y-79629000D01*
X183350000Y-82715000D02*
X183388000Y-82677000D01*
X183388000Y-82677000D02*
X183388000Y-81026000D01*
X169418000Y-80137000D02*
X168783000Y-79502000D01*
X174244000Y-79502000D02*
X174625000Y-79121000D01*
X184785000Y-82423000D02*
X184150000Y-83058000D01*
X170053000Y-79502000D02*
X174244000Y-79502000D01*
X169418000Y-78867000D02*
X170053000Y-79502000D01*
X174625000Y-79121000D02*
X183642000Y-79121000D01*
X164159000Y-79502000D02*
X164794000Y-78867000D01*
X183642000Y-79121000D02*
X184785000Y-80264000D01*
X184150000Y-83058000D02*
X184150000Y-83642200D01*
X164794000Y-78867000D02*
X169418000Y-78867000D01*
X184785000Y-80264000D02*
X184785000Y-82423000D01*
X179750000Y-83204700D02*
X179750000Y-83642200D01*
X174498000Y-82931000D02*
X179476300Y-82931000D01*
X179476300Y-82931000D02*
X179750000Y-83204700D01*
X168910000Y-80772000D02*
X168656000Y-80518000D01*
X168656000Y-80518000D02*
X168021000Y-80518000D01*
X176276000Y-81788000D02*
X175260000Y-80772000D01*
X180950000Y-83642200D02*
X180950000Y-82525000D01*
X180950000Y-82525000D02*
X180213000Y-81788000D01*
X180213000Y-81788000D02*
X176276000Y-81788000D01*
X175260000Y-80772000D02*
X168910000Y-80772000D01*
X159054800Y-82702400D02*
X159054800Y-81838800D01*
X160223200Y-83870800D02*
X159258000Y-82905600D01*
X159054800Y-81838800D02*
X159054800Y-80162400D01*
X159258000Y-82905600D02*
X159054800Y-82702400D01*
X162509200Y-87579200D02*
X163169600Y-86918800D01*
X160883600Y-83870800D02*
X160528000Y-83870800D01*
X159054800Y-80162400D02*
X160121600Y-79095600D01*
X163169600Y-86156800D02*
X160883600Y-83870800D01*
X160528000Y-83870800D02*
X160223200Y-83870800D01*
X163169600Y-86918800D02*
X163169600Y-86156800D01*
X180467000Y-81407000D02*
X179959000Y-81407000D01*
X178689000Y-81407000D02*
X177927000Y-80645000D01*
X180975000Y-81915000D02*
X180467000Y-81407000D01*
X181350000Y-82290000D02*
X180975000Y-81915000D01*
X181350000Y-83642200D02*
X181350000Y-82290000D01*
X179959000Y-81407000D02*
X178689000Y-81407000D01*
X170053000Y-81788000D02*
X169291000Y-82550000D01*
X180150000Y-83122000D02*
X180150000Y-83642200D01*
X175260000Y-82550000D02*
X179578000Y-82550000D01*
X179578000Y-82550000D02*
X180150000Y-83122000D01*
X174498000Y-81788000D02*
X175260000Y-82550000D01*
X174498000Y-81788000D02*
X170053000Y-81788000D01*
X180363368Y-80033368D02*
X175363632Y-80033368D01*
X182365868Y-80765868D02*
X181864000Y-80264000D01*
X181864000Y-80264000D02*
X180594000Y-80264000D01*
X182550000Y-82732874D02*
X182365868Y-82548742D01*
X180594000Y-80264000D02*
X180363368Y-80033368D01*
X182365868Y-82548742D02*
X182365868Y-80765868D01*
X175363632Y-80033368D02*
X175133000Y-80264000D01*
X182550000Y-83642200D02*
X182550000Y-82732874D01*
X161036000Y-78740000D02*
X160731200Y-78435200D01*
X180550000Y-83642200D02*
X180550000Y-82760000D01*
X158394400Y-78435200D02*
X156972000Y-79857600D01*
X175006000Y-81280000D02*
X169164000Y-81280000D01*
X168021000Y-82423000D02*
X168021000Y-83058000D01*
X169164000Y-81280000D02*
X168021000Y-82423000D01*
X179959000Y-82169000D02*
X175895000Y-82169000D01*
X175895000Y-82169000D02*
X175006000Y-81280000D01*
X160731200Y-78435200D02*
X158394400Y-78435200D01*
X180550000Y-82760000D02*
X179959000Y-82169000D01*
X178512500Y-84479700D02*
X177497200Y-83464400D01*
X173253400Y-83464400D02*
X171824200Y-84893600D01*
X173024800Y-83235800D02*
X173253400Y-83464400D01*
X172415200Y-83235800D02*
X173024800Y-83235800D01*
X177497200Y-83464400D02*
X173253400Y-83464400D01*
X186436000Y-86766400D02*
X186322700Y-86879700D01*
X186322700Y-86879700D02*
X185387500Y-86879700D01*
X186436000Y-84429600D02*
X185985900Y-84879700D01*
X185985900Y-84879700D02*
X185387500Y-84879700D01*
X186740800Y-83126400D02*
X185387500Y-84479700D01*
X186740800Y-82854800D02*
X186740800Y-83126400D01*
X174371000Y-89103200D02*
X173609000Y-89865200D01*
X163245800Y-88061800D02*
X163874000Y-87433600D01*
X178512500Y-86079700D02*
X175794300Y-86079700D01*
X173609000Y-89865200D02*
X163830000Y-89865200D01*
X174371000Y-87503000D02*
X174371000Y-89103200D01*
X175794300Y-86079700D02*
X174371000Y-87503000D01*
X163245800Y-89281000D02*
X163245800Y-88061800D01*
X163830000Y-89865200D02*
X163245800Y-89281000D01*
X163874000Y-87433600D02*
X164624200Y-87433600D01*
D36*
X172847000Y-86791800D02*
X165252400Y-86791800D01*
X165252400Y-86791800D02*
X164624200Y-86163600D01*
D37*
X178512500Y-86479700D02*
X176308700Y-86479700D01*
X176308700Y-86479700D02*
X175996600Y-86791800D01*
X174581300Y-84879700D02*
X173297400Y-86163600D01*
X173297400Y-86163600D02*
X171824200Y-86163600D01*
X178512500Y-84879700D02*
X174581300Y-84879700D01*
X175121100Y-85279700D02*
X178512500Y-85279700D01*
X172967200Y-87433600D02*
X175121100Y-85279700D01*
X171824200Y-87433600D02*
X172967200Y-87433600D01*
X173050200Y-88036400D02*
X165785800Y-88036400D01*
X178512500Y-85679700D02*
X175406900Y-85679700D01*
X175406900Y-85679700D02*
X173050200Y-88036400D01*
X165118600Y-88703600D02*
X164624200Y-88703600D01*
X165785800Y-88036400D02*
X165118600Y-88703600D01*
X178512500Y-88079700D02*
X175328700Y-88079700D01*
X174968500Y-87719500D02*
X174879000Y-87719500D01*
X175328700Y-88079700D02*
X174968500Y-87719500D01*
X176911000Y-88479700D02*
X175426300Y-88479700D01*
X175260000Y-88646000D02*
X175133000Y-88773000D01*
X175426300Y-88479700D02*
X175260000Y-88646000D01*
X178512500Y-88479700D02*
X176911000Y-88479700D01*
D36*
X142621000Y-98249000D02*
X143921000Y-98249000D01*
X149225000Y-98298000D02*
X152146000Y-98298000D01*
X147574000Y-96139000D02*
X147574000Y-96647000D01*
X158228600Y-89941400D02*
X157245000Y-90925000D01*
X149245000Y-93878400D02*
X149798400Y-93325000D01*
D37*
X182950000Y-90517200D02*
X182950000Y-89291500D01*
D36*
X157987200Y-90982800D02*
X157245000Y-91725000D01*
X153239000Y-88519000D02*
X153119900Y-88519000D01*
X149233700Y-92811600D02*
X149233700Y-92536300D01*
X158377000Y-92049600D02*
X157569600Y-92049600D01*
X154845000Y-89325000D02*
X154845000Y-89211400D01*
X158385700Y-90982800D02*
X157987200Y-90982800D01*
X153245000Y-95725000D02*
X153245000Y-97021200D01*
X171220200Y-83235800D02*
X169113200Y-83235800D01*
X149798400Y-93325000D02*
X150045000Y-93325000D01*
D37*
X182950000Y-84719500D02*
X182950000Y-83642200D01*
X178512500Y-87279700D02*
X179233800Y-87279700D01*
D36*
X147555500Y-96157500D02*
X147574000Y-96139000D01*
D37*
X179350000Y-89662000D02*
X179350000Y-89509000D01*
X177292000Y-90678000D02*
X178308000Y-90678000D01*
D36*
X149245000Y-91725000D02*
X150045000Y-91725000D01*
D37*
X178512500Y-90473500D02*
X178512500Y-89279700D01*
D36*
X178512500Y-89679700D02*
X178512500Y-90465500D01*
D37*
X179350000Y-83642200D02*
X179350000Y-84473000D01*
D36*
X157569600Y-92049600D02*
X157245000Y-91725000D01*
D37*
X184418000Y-87279700D02*
X184260300Y-87122000D01*
D36*
X178512500Y-90465500D02*
X178427000Y-90551000D01*
X152445000Y-96492500D02*
X152412500Y-96525000D01*
D37*
X178512500Y-89679700D02*
X179332300Y-89679700D01*
X182950000Y-89291500D02*
X182939500Y-89281000D01*
D36*
X143921000Y-97210400D02*
X143535400Y-96824800D01*
X164338000Y-84607400D02*
X164624200Y-84893600D01*
X158385700Y-89941400D02*
X158228600Y-89941400D01*
X152445000Y-95725000D02*
X152445000Y-96492500D01*
X154845000Y-89211400D02*
X154270900Y-88637300D01*
D37*
X185387500Y-87279700D02*
X184418000Y-87279700D01*
X179350000Y-90517200D02*
X179350000Y-89662000D01*
X178512500Y-87679700D02*
X179314200Y-87679700D01*
X179350000Y-84473000D02*
X179586000Y-84709000D01*
D36*
X148031000Y-96139000D02*
X149245000Y-94925000D01*
D38*
X175869600Y-118999000D02*
X175869600Y-111988600D01*
D36*
X154613618Y-97514418D02*
X154613618Y-95956382D01*
X154660600Y-97561400D02*
X154613618Y-97514418D01*
X147574000Y-96139000D02*
X148031000Y-96139000D01*
X154270900Y-88637300D02*
X154270900Y-88519000D01*
X167436800Y-84912200D02*
X164624200Y-84893600D01*
X143921000Y-98249000D02*
X143921000Y-97210400D01*
D37*
X179233800Y-87279700D02*
X179772500Y-86741000D01*
D36*
X149531600Y-92811600D02*
X150045000Y-93325000D01*
X152146000Y-98298000D02*
X152730200Y-97713800D01*
D38*
X175869600Y-111988600D02*
X176149000Y-111709200D01*
D36*
X149245000Y-94925000D02*
X150045000Y-94125000D01*
X154045000Y-95725000D02*
X154045000Y-96525000D01*
X154613618Y-95956382D02*
X154845000Y-95725000D01*
X153245000Y-97021200D02*
X152730200Y-97536000D01*
X143535400Y-95816800D02*
X143527400Y-95808800D01*
D37*
X178308000Y-90678000D02*
X178512500Y-90473500D01*
D36*
X154045000Y-89325000D02*
X153239000Y-88519000D01*
X149233700Y-92811600D02*
X149531600Y-92811600D01*
X147574000Y-96647000D02*
X149225000Y-98298000D01*
X149233700Y-92536300D02*
X150045000Y-91725000D01*
D37*
X179332300Y-89679700D02*
X179350000Y-89662000D01*
D36*
X143535400Y-96824800D02*
X143535400Y-95816800D01*
D37*
X178512500Y-89679700D02*
X178512500Y-89279700D01*
X183134000Y-84903500D02*
X182950000Y-84719500D01*
D36*
X169113200Y-83235800D02*
X167455400Y-84893600D01*
X143527400Y-95808800D02*
X146496300Y-95808800D01*
X146496300Y-95808800D02*
X146845000Y-96157500D01*
D37*
X179350000Y-89509000D02*
X179578000Y-89281000D01*
D36*
X164338000Y-83312000D02*
X164338000Y-84607400D01*
X146845000Y-96157500D02*
X147555500Y-96157500D01*
X167455400Y-84893600D02*
X167436800Y-84912200D01*
D37*
X179314200Y-87679700D02*
X179772500Y-88138000D01*
D36*
X152730200Y-97713800D02*
X152730200Y-97536000D01*
D35*
X172339800Y-111574000D02*
X172339800Y-109220800D01*
D36*
X152445000Y-89199000D02*
X152445000Y-89325000D01*
D38*
X155829800Y-109480200D02*
X155840000Y-109470000D01*
D36*
X151587200Y-95782800D02*
X151645000Y-95725000D01*
X151277500Y-96525000D02*
X151277500Y-96157500D01*
D38*
X156875000Y-81525000D02*
X158200200Y-81525000D01*
D36*
X155405900Y-88519000D02*
X155405900Y-89085900D01*
X156445000Y-98210800D02*
X155795600Y-97561400D01*
X174088500Y-98662300D02*
X174180000Y-98570800D01*
D38*
X155829800Y-115474000D02*
X155829800Y-117374200D01*
D36*
X147091600Y-93878400D02*
X146845000Y-94125000D01*
X159520700Y-93065600D02*
X160108400Y-93065600D01*
X172315000Y-99705800D02*
X172180000Y-99570800D01*
X155180000Y-96525000D02*
X155189000Y-96525000D01*
D38*
X143125000Y-81525000D02*
X141926200Y-81525000D01*
D36*
X150845000Y-88530100D02*
X150833900Y-88519000D01*
X151277500Y-96525000D02*
X151587200Y-96215300D01*
X150845000Y-89325000D02*
X150845000Y-88530100D01*
X157245000Y-96892500D02*
X156861900Y-96892500D01*
X150241000Y-96774000D02*
X151028500Y-96774000D01*
X148910000Y-86925000D02*
X148910000Y-86460000D01*
X170107300Y-96498100D02*
X170180000Y-96570800D01*
D35*
X172339800Y-109220800D02*
X172339000Y-109220000D01*
D36*
X158038800Y-84785200D02*
X158038800Y-84795500D01*
X148110000Y-94925000D02*
X148445000Y-94925000D01*
X160147000Y-92329000D02*
X160147000Y-93027000D01*
X146903200Y-94183200D02*
X146845000Y-94125000D01*
X160108400Y-93065600D02*
X160147000Y-93027000D01*
D38*
X181480000Y-114366000D02*
X180389000Y-114366000D01*
D36*
X159791400Y-92329000D02*
X160147000Y-92329000D01*
D38*
X155829800Y-117374200D02*
X155854400Y-117398800D01*
D36*
X151028500Y-96774000D02*
X151277500Y-96525000D01*
X160445000Y-91311100D02*
X160445000Y-90925000D01*
X159486600Y-96683400D02*
X158845000Y-97325000D01*
X159520700Y-89941400D02*
X159520700Y-90000700D01*
X170107300Y-95732600D02*
X170107300Y-96498100D01*
X160147000Y-91609100D02*
X160147000Y-92329000D01*
X151984900Y-88738900D02*
X152445000Y-89199000D01*
X153245000Y-92957500D02*
X153245000Y-93325000D01*
X173184000Y-88703600D02*
X173355000Y-88874600D01*
X159520700Y-94249300D02*
X158845000Y-94925000D01*
D38*
X156875000Y-73225000D02*
X158340400Y-73225000D01*
D36*
X160387200Y-90982800D02*
X160445000Y-90925000D01*
D35*
X173609800Y-113538800D02*
X173609000Y-113538000D01*
D36*
X159520700Y-90000700D02*
X160445000Y-90925000D01*
X159520700Y-94157800D02*
X159520700Y-94249300D01*
X151984900Y-88519000D02*
X151984900Y-88738900D01*
X172315000Y-100385800D02*
X172315000Y-99705800D01*
X156445000Y-98925000D02*
X156445000Y-98210800D01*
X151595200Y-97536000D02*
X151595200Y-96842700D01*
X156861900Y-96892500D02*
X156445000Y-96475600D01*
D38*
X143125000Y-73225000D02*
X141862200Y-73225000D01*
D36*
X145389600Y-92811600D02*
X145186400Y-93014800D01*
X159486600Y-96113600D02*
X159486600Y-96683400D01*
X154845000Y-91260000D02*
X154845000Y-91725000D01*
D38*
X141926200Y-81525000D02*
X141909800Y-81508600D01*
D36*
X173291000Y-98662300D02*
X173088500Y-98662300D01*
X157509300Y-85325000D02*
X157245000Y-85325000D01*
X174180000Y-98570800D02*
X175002900Y-98570800D01*
X155405900Y-89085900D02*
X155645000Y-89325000D01*
X156445000Y-96475600D02*
X156445000Y-95725000D01*
D35*
X173609800Y-115474000D02*
X173609800Y-113538800D01*
D36*
X154845000Y-91260000D02*
X154845000Y-90925000D01*
X158038800Y-84795500D02*
X157509300Y-85325000D01*
D37*
X184404000Y-85699600D02*
X184784100Y-86079700D01*
D36*
X155645000Y-96069000D02*
X155645000Y-95725000D01*
X173291000Y-98662300D02*
X174088500Y-98662300D01*
D38*
X155829800Y-111574000D02*
X155829800Y-109480200D01*
D36*
X151595200Y-96842700D02*
X151277500Y-96525000D01*
X155277500Y-94125000D02*
X155277500Y-93757500D01*
X160147000Y-93027000D02*
X160445000Y-93325000D01*
X146845000Y-97325000D02*
X146845000Y-98125000D01*
X148910000Y-86460000D02*
X149245000Y-86125000D01*
X148098700Y-92811600D02*
X145389600Y-92811600D01*
X158750000Y-84074000D02*
X158038800Y-84785200D01*
D38*
X158340400Y-73225000D02*
X158343600Y-73228200D01*
D36*
X159520700Y-90982800D02*
X160387200Y-90982800D01*
X145155400Y-91725000D02*
X145084800Y-91795600D01*
X155189000Y-96525000D02*
X155645000Y-96069000D01*
X155277500Y-93757500D02*
X154845000Y-93325000D01*
X171824200Y-88703600D02*
X173184000Y-88703600D01*
X160147000Y-91609100D02*
X160445000Y-91311100D01*
D38*
X141862200Y-73225000D02*
X141859000Y-73228200D01*
D36*
X175002900Y-98570800D02*
X175119800Y-98687700D01*
X173088500Y-98662300D02*
X172180000Y-99570800D01*
X151277500Y-96157500D02*
X150845000Y-95725000D01*
X159512000Y-92049600D02*
X159791400Y-92329000D01*
X151587200Y-96215300D02*
X151587200Y-95782800D01*
X148110000Y-93878400D02*
X147091600Y-93878400D01*
D37*
X184784100Y-86079700D02*
X185387500Y-86079700D01*
D36*
X148110000Y-91725000D02*
X145155400Y-91725000D01*
D38*
X158200200Y-81525000D02*
X158242000Y-81483200D01*
X181913000Y-117790000D02*
X184534000Y-117790000D01*
X184534000Y-117790000D02*
X184580000Y-117836000D01*
X172339800Y-118008800D02*
X171705200Y-118643400D01*
X172339800Y-115474000D02*
X172339800Y-118008800D01*
X172339800Y-118008800D02*
X172579400Y-118008800D01*
X172579400Y-118008800D02*
X173569600Y-118999000D01*
X181913000Y-115890000D02*
X182675000Y-115128000D01*
X186055000Y-114554000D02*
X185801000Y-114808000D01*
X185108000Y-114808000D02*
X184580000Y-115336000D01*
X184026000Y-115890000D02*
X184580000Y-115336000D01*
X181913000Y-115890000D02*
X184026000Y-115890000D01*
X185801000Y-114808000D02*
X185108000Y-114808000D01*
X182675000Y-115128000D02*
X182675000Y-114366000D01*
X171577000Y-107950000D02*
X175895000Y-107950000D01*
X178513000Y-110568000D02*
X178513000Y-116840000D01*
X171069800Y-108457200D02*
X171577000Y-107950000D01*
X171069800Y-111574000D02*
X171069800Y-108457200D01*
X175895000Y-107950000D02*
X178513000Y-110568000D01*
D36*
X142621000Y-101372600D02*
X142645200Y-101396800D01*
X142621000Y-99949000D02*
X142621000Y-101372600D01*
D37*
X146456400Y-78917800D02*
X148800000Y-76574200D01*
X148800000Y-76574200D02*
X148800000Y-75825000D01*
X186002900Y-89279700D02*
X186537600Y-89814400D01*
X186537600Y-89814400D02*
X186537600Y-98524600D01*
X185387500Y-89279700D02*
X186002900Y-89279700D01*
X186537600Y-98524600D02*
X185392600Y-99669600D01*
G04 #@! TA.AperFunction,Conductor*
G36*
X186451677Y-117494685D02*
G01*
X186472319Y-117511319D01*
X187034681Y-118073681D01*
X187068166Y-118135004D01*
X187071000Y-118161362D01*
X187071000Y-119582638D01*
X187051315Y-119649677D01*
X187034681Y-119670319D01*
X186853319Y-119851681D01*
X186791996Y-119885166D01*
X186765638Y-119888000D01*
X180391362Y-119888000D01*
X180324323Y-119868315D01*
X180303681Y-119851681D01*
X180249319Y-119797319D01*
X180215834Y-119735996D01*
X180213000Y-119709638D01*
X180213000Y-118288362D01*
X180232685Y-118221323D01*
X180249319Y-118200681D01*
X180938681Y-117511319D01*
X181000004Y-117477834D01*
X181026362Y-117475000D01*
X186384638Y-117475000D01*
X186451677Y-117494685D01*
G37*
G04 #@! TD.AperFunction*
M02*
