%TF.GenerationSoftware,KiCad,Pcbnew,8.0.4*%
%TF.CreationDate,2024-08-25T14:13:04+02:00*%
%TF.ProjectId,fpga_extension,66706761-5f65-4787-9465-6e73696f6e2e,rev?*%
%TF.SameCoordinates,Original*%
%TF.FileFunction,Copper,L4,Inr*%
%TF.FilePolarity,Positive*%
%FSLAX46Y46*%
G04 Gerber Fmt 4.6, Leading zero omitted, Abs format (unit mm)*
G04 Created by KiCad (PCBNEW 8.0.4) date 2024-08-25 14:13:04*
%MOMM*%
%LPD*%
G01*
G04 APERTURE LIST*
%TA.AperFunction,ComponentPad*%
%ADD10O,1.000000X2.100000*%
%TD*%
%TA.AperFunction,ComponentPad*%
%ADD11O,1.000000X1.600000*%
%TD*%
%TA.AperFunction,ComponentPad*%
%ADD12R,1.700000X1.700000*%
%TD*%
%TA.AperFunction,ComponentPad*%
%ADD13O,1.700000X1.700000*%
%TD*%
%TA.AperFunction,ViaPad*%
%ADD14C,0.406400*%
%TD*%
%TA.AperFunction,ViaPad*%
%ADD15C,0.711200*%
%TD*%
%TA.AperFunction,ViaPad*%
%ADD16C,0.600000*%
%TD*%
%TA.AperFunction,Conductor*%
%ADD17C,0.457200*%
%TD*%
%TA.AperFunction,Conductor*%
%ADD18C,0.245364*%
%TD*%
%TA.AperFunction,Conductor*%
%ADD19C,0.156464*%
%TD*%
G04 APERTURE END LIST*
D10*
X187200000Y-77373000D03*
D11*
X187200000Y-73193000D03*
D10*
X178560000Y-77373000D03*
D11*
X178560000Y-73193000D03*
D12*
X172466000Y-77861400D03*
D13*
X172466000Y-75321400D03*
X172466000Y-72781400D03*
D14*
X182311000Y-109639800D03*
D15*
X182583600Y-106134600D03*
D14*
X184950700Y-110947200D03*
D15*
X159867600Y-82118200D03*
X142722600Y-88537400D03*
X166104600Y-81610200D03*
D14*
X171180000Y-96570800D03*
X157245000Y-94125000D03*
D15*
X149614000Y-112420400D03*
D14*
X157245000Y-93325000D03*
X171180000Y-99570800D03*
X174180000Y-97570800D03*
X156445000Y-94125000D03*
D15*
X148767800Y-113944400D03*
X157556200Y-100558600D03*
D14*
X150045000Y-95725000D03*
D15*
X144076800Y-112420400D03*
D14*
X150045000Y-89325000D03*
X157245000Y-95725000D03*
D15*
X143433800Y-113995200D03*
D14*
X157245000Y-89325000D03*
X186385200Y-85598000D03*
X177224500Y-89027000D03*
X184311100Y-88188800D03*
X177224500Y-87503000D03*
X154845000Y-90125000D03*
X151645000Y-90125000D03*
X153245000Y-94092500D03*
D15*
X161086800Y-83058000D03*
D14*
X150045000Y-87725000D03*
X150045000Y-86925000D03*
X157245000Y-87725000D03*
X157245000Y-86925000D03*
X175768000Y-72796400D03*
X185521600Y-81381600D03*
X174447200Y-77876400D03*
X187350400Y-89204800D03*
X157861000Y-107061000D03*
X165989800Y-111574000D03*
X181483000Y-97282000D03*
X154965400Y-101015800D03*
X177292000Y-106172000D03*
X168529800Y-115474000D03*
X148590000Y-104140000D03*
X177165000Y-104648000D03*
X167259800Y-111574000D03*
X157734000Y-102108000D03*
X180022500Y-93408500D03*
X161544000Y-107950000D03*
X146862800Y-103886000D03*
X150876000Y-103378000D03*
X157708600Y-108940600D03*
X169722800Y-109651800D03*
X153035000Y-102616000D03*
X163449800Y-111574000D03*
X177292000Y-95631000D03*
X166624000Y-107950000D03*
X180086000Y-94869000D03*
X162814000Y-109220000D03*
X180086000Y-96520000D03*
X164084000Y-107950000D03*
X160274000Y-109220000D03*
X177292000Y-93091000D03*
X165354000Y-109220000D03*
X178562000Y-98171000D03*
X177292000Y-94361000D03*
X162179800Y-111574000D03*
X154051000Y-104902000D03*
D16*
X171069800Y-115474000D03*
D14*
X187096400Y-91643200D03*
X177292000Y-97409000D03*
X164719800Y-111574000D03*
X154051000Y-101854000D03*
X148844000Y-102870000D03*
X154470100Y-112560100D03*
X184277000Y-84709000D03*
X158045000Y-87725000D03*
X158045000Y-88525000D03*
X181737000Y-84709000D03*
X158845000Y-86125000D03*
X166624000Y-79502000D03*
X164159000Y-79502000D03*
X158045000Y-86925000D03*
X158845000Y-88525000D03*
X174498000Y-82931000D03*
X159645000Y-84525000D03*
X168021000Y-80518000D03*
X163169600Y-86156800D03*
X162509200Y-87579200D03*
X160121600Y-79095600D03*
X158845000Y-87725000D03*
X177927000Y-80645000D03*
X159645000Y-86125000D03*
X169291000Y-82550000D03*
X158845000Y-86925000D03*
X175133000Y-80264000D03*
X156972000Y-79857600D03*
X159645000Y-85325000D03*
X168021000Y-83058000D03*
X161036000Y-78740000D03*
X186436000Y-86766400D03*
X186436000Y-84429600D03*
X173024800Y-91541600D03*
X186740800Y-82854800D03*
X171145200Y-91287600D03*
X175996600Y-86791800D03*
X172847000Y-86791800D03*
X174879000Y-87719500D03*
X175133000Y-88773000D03*
X154845000Y-89325000D03*
X178435000Y-90551000D03*
D15*
X149900000Y-75825000D03*
X167436800Y-84912200D03*
D14*
X150045000Y-90925000D03*
D15*
X176149000Y-111709200D03*
X166507500Y-90425000D03*
D14*
X171220200Y-83235800D03*
X154045000Y-89325000D03*
X184260300Y-87122000D03*
X179772500Y-86741000D03*
X179586000Y-84709000D03*
D15*
X165322500Y-90425000D03*
D14*
X154045000Y-95725000D03*
X179578000Y-89281000D03*
X157245000Y-90925000D03*
X150045000Y-94125000D03*
X157245000Y-91725000D03*
X182939500Y-89281000D03*
X150045000Y-91725000D03*
X177292000Y-90678000D03*
X154845000Y-95725000D03*
X179772500Y-88138000D03*
D15*
X166200000Y-88900000D03*
D14*
X183134000Y-84903500D03*
X150045000Y-93325000D03*
X156445000Y-91725000D03*
X150845000Y-91725000D03*
X150845000Y-94125000D03*
X152445000Y-95725000D03*
X153245000Y-95725000D03*
X156445000Y-98925000D03*
X152445000Y-86125000D03*
X180797200Y-87503000D03*
D15*
X147700000Y-75825000D03*
D14*
X145084800Y-91795600D03*
X155645000Y-86925000D03*
X153245000Y-92525000D03*
X150045000Y-92525000D03*
X152445000Y-90925000D03*
X156445000Y-94925000D03*
X156445000Y-90125000D03*
X149245000Y-86125000D03*
X180797200Y-88188800D03*
X154845000Y-90925000D03*
X150845000Y-86125000D03*
X180713000Y-89281000D03*
D15*
X162280600Y-80848200D03*
D14*
X184404000Y-85699600D03*
D15*
X141909800Y-81508600D03*
D14*
X151645000Y-94925000D03*
D15*
X168150000Y-89325000D03*
D14*
X183388000Y-80010000D03*
X148445000Y-94925000D03*
X143921000Y-99949000D03*
X157245000Y-90125000D03*
X149245000Y-85325000D03*
X160445000Y-90925000D03*
X181483000Y-81623500D03*
X150845000Y-93325000D03*
X154045000Y-86925000D03*
X151645000Y-86925000D03*
X154845000Y-86925000D03*
X150845000Y-92525000D03*
X158433100Y-74574400D03*
X176157000Y-90678000D03*
X153245000Y-91725000D03*
X152445000Y-85325000D03*
X154845000Y-92525000D03*
X151645000Y-95725000D03*
D15*
X146227800Y-117805200D03*
D14*
X182321200Y-88188800D03*
X152445000Y-91725000D03*
D15*
X175895000Y-74362500D03*
D14*
X157245000Y-86125000D03*
X183159400Y-86029800D03*
X154045000Y-93325000D03*
X150045000Y-85325000D03*
X158845000Y-94925000D03*
X146845000Y-88525000D03*
D15*
X173609000Y-113538000D03*
X150622000Y-115062000D03*
X151460200Y-117830600D03*
X180594000Y-110947200D03*
D14*
X184861200Y-108940600D03*
X180797200Y-86766400D03*
X174180000Y-98570800D03*
X155645000Y-89325000D03*
X156445000Y-93325000D03*
X177165000Y-84201000D03*
X154845000Y-86125000D03*
X142392400Y-95808800D03*
D15*
X155854400Y-117398800D03*
D14*
X156445000Y-86125000D03*
X181804500Y-89281000D03*
X150845000Y-95725000D03*
X142400400Y-96824800D03*
X156445000Y-86925000D03*
D15*
X158343600Y-73228200D03*
D14*
X150845000Y-89325000D03*
X154045000Y-92525000D03*
D15*
X180389000Y-114366000D03*
D14*
X186130000Y-78288000D03*
X145186400Y-93014800D03*
X156445000Y-95725000D03*
X153245000Y-89325000D03*
X158433100Y-75744400D03*
X181559200Y-88188800D03*
X150845000Y-90925000D03*
X148273100Y-108000800D03*
X172180000Y-99570800D03*
D15*
X180543200Y-106908600D03*
D14*
X146045000Y-86125000D03*
X156445000Y-89325000D03*
X179630000Y-78288000D03*
X150845000Y-86925000D03*
X153245000Y-93325000D03*
X148475000Y-74450000D03*
X182321200Y-86055200D03*
X186488000Y-80391000D03*
X160445000Y-93325000D03*
X146845000Y-98125000D03*
X152445000Y-86925000D03*
X156445000Y-90925000D03*
X176089500Y-89027000D03*
X146845000Y-85325000D03*
D15*
X141859000Y-73228200D03*
D14*
X152445000Y-89325000D03*
X157245000Y-94925000D03*
D15*
X172339000Y-109220000D03*
X179451000Y-109651800D03*
D14*
X158433100Y-76895866D03*
X151645000Y-86125000D03*
D15*
X155840000Y-109470000D03*
D14*
X180721000Y-84709000D03*
X154045000Y-94925000D03*
D15*
X182778400Y-112877600D03*
D16*
X184810400Y-98094800D03*
D14*
X181559200Y-86055200D03*
X154845000Y-93325000D03*
X154045000Y-91725000D03*
X148273100Y-109118400D03*
X150045000Y-94925000D03*
X146845000Y-86125000D03*
D15*
X173355000Y-85090000D03*
D16*
X185166000Y-93804000D03*
D14*
X156445000Y-92525000D03*
X181559200Y-86766400D03*
X183159400Y-88163400D03*
X153245000Y-86925000D03*
X153245000Y-94925000D03*
X157245000Y-92525000D03*
X150845000Y-94925000D03*
D15*
X158242000Y-81483200D03*
D14*
X176089500Y-87503000D03*
X156445000Y-85325000D03*
X181559200Y-87503000D03*
X180797200Y-86055200D03*
X170180000Y-96570800D03*
X154845000Y-94925000D03*
X184861200Y-110210600D03*
X150845000Y-98925000D03*
X153245000Y-90925000D03*
X157245000Y-85325000D03*
X146845000Y-94125000D03*
X155645000Y-86125000D03*
X182321200Y-87503000D03*
X185381300Y-100888800D03*
D15*
X173355000Y-88874600D03*
D14*
X152445000Y-94925000D03*
X152445000Y-92525000D03*
X155645000Y-94925000D03*
D15*
X145237200Y-115112800D03*
D14*
X152445000Y-93325000D03*
X154045000Y-90925000D03*
X183201500Y-87122000D03*
X150045000Y-86125000D03*
D15*
X145211800Y-112420400D03*
D14*
X182321200Y-86766400D03*
X148273100Y-110236000D03*
X154845000Y-91725000D03*
X178435000Y-91821000D03*
D15*
X150749000Y-112420400D03*
D14*
X165473000Y-83312000D03*
X155645000Y-95725000D03*
X151645000Y-89325000D03*
X158845000Y-97325000D03*
D15*
X147218400Y-116230400D03*
D14*
X184861200Y-107315000D03*
D15*
X186182000Y-118110000D03*
X152501600Y-116281200D03*
X184962800Y-113182400D03*
X180721000Y-119126000D03*
X143459200Y-116255800D03*
X148717000Y-116255800D03*
D14*
X185928000Y-109550200D03*
D15*
X186055000Y-114554000D03*
X176530000Y-80899000D03*
D14*
X152100000Y-75825000D03*
X146456400Y-78917800D03*
X145500000Y-75825000D03*
X146600000Y-75825000D03*
X153200000Y-75825000D03*
X151000000Y-75825000D03*
X143840200Y-101396800D03*
X185392600Y-99669600D03*
D17*
X183618400Y-110947200D02*
X182311000Y-109639800D01*
X184950700Y-110947200D02*
X183618400Y-110947200D01*
D18*
X178003200Y-75031600D02*
X175768000Y-72796400D01*
X180380365Y-75031600D02*
X178003200Y-75031600D01*
X185521600Y-80172835D02*
X180380365Y-75031600D01*
X185521600Y-81381600D02*
X185521600Y-80172835D01*
X186994800Y-81991200D02*
X184912000Y-81991200D01*
X184912000Y-81991200D02*
X183540400Y-80619600D01*
X183540400Y-80619600D02*
X181254400Y-80619600D01*
X175666400Y-79095600D02*
X174447200Y-77876400D01*
X187350400Y-89204800D02*
X187350400Y-88188800D01*
X187604400Y-82600800D02*
X186994800Y-81991200D01*
X187350400Y-88188800D02*
X187604400Y-87934800D01*
X181254400Y-80619600D02*
X179730400Y-79095600D01*
X187604400Y-87934800D02*
X187604400Y-82600800D01*
X179730400Y-79095600D02*
X175666400Y-79095600D01*
X168783000Y-107950000D02*
X165989800Y-110743200D01*
X181483000Y-98171000D02*
X171704000Y-107950000D01*
X165989800Y-110743200D02*
X165989800Y-111574000D01*
X181483000Y-97282000D02*
X181483000Y-98171000D01*
X171704000Y-107950000D02*
X168783000Y-107950000D01*
X168879000Y-115474000D02*
X168529800Y-115474000D01*
X177292000Y-107061000D02*
X168879000Y-115474000D01*
X177292000Y-106172000D02*
X177292000Y-107061000D01*
X177165000Y-104648000D02*
X177038000Y-104648000D01*
X175387000Y-106299000D02*
X175387000Y-107442000D01*
X177038000Y-104648000D02*
X175387000Y-106299000D01*
X171255000Y-111574000D02*
X167259800Y-111574000D01*
X175387000Y-107442000D02*
X171255000Y-111574000D01*
X161544000Y-106172000D02*
X161544000Y-107950000D01*
X180022500Y-93408500D02*
X179705000Y-93726000D01*
X169799000Y-97917000D02*
X161544000Y-106172000D01*
X179705000Y-93726000D02*
X174879000Y-93726000D01*
X170688000Y-97917000D02*
X169799000Y-97917000D01*
X174879000Y-93726000D02*
X170688000Y-97917000D01*
X171069000Y-103759000D02*
X167386000Y-103759000D01*
X167386000Y-103759000D02*
X163449000Y-107696000D01*
X163449000Y-107696000D02*
X163449000Y-111573200D01*
X163449000Y-111573200D02*
X163449800Y-111574000D01*
X175641000Y-99187000D02*
X171069000Y-103759000D01*
X175641000Y-97282000D02*
X175641000Y-99187000D01*
X177292000Y-95631000D02*
X175641000Y-97282000D01*
X167005000Y-102997000D02*
X162814000Y-107188000D01*
X176635918Y-94890082D02*
X175006000Y-96520000D01*
X170815000Y-102997000D02*
X167005000Y-102997000D01*
X180064918Y-94890082D02*
X176635918Y-94890082D01*
X162814000Y-107188000D02*
X162814000Y-109220000D01*
X175006000Y-98806000D02*
X170815000Y-102997000D01*
X175006000Y-96520000D02*
X175006000Y-98806000D01*
X180086000Y-94869000D02*
X180064918Y-94890082D01*
X176403000Y-97536000D02*
X176403000Y-99695000D01*
X177419000Y-96520000D02*
X176403000Y-97536000D01*
X176403000Y-99695000D02*
X171450000Y-104648000D01*
X167386000Y-104648000D02*
X164084000Y-107950000D01*
X180086000Y-96520000D02*
X177419000Y-96520000D01*
X171450000Y-104648000D02*
X167386000Y-104648000D01*
X160274000Y-105156000D02*
X160274000Y-109220000D01*
X172339000Y-93091000D02*
X160274000Y-105156000D01*
X177292000Y-93091000D02*
X172339000Y-93091000D01*
X178562000Y-98171000D02*
X178562000Y-99822000D01*
X168656000Y-106934000D02*
X166370000Y-109220000D01*
X171450000Y-106934000D02*
X168656000Y-106934000D01*
X166370000Y-109220000D02*
X165354000Y-109220000D01*
X178562000Y-99822000D02*
X171450000Y-106934000D01*
X170116500Y-98615500D02*
X171259500Y-98615500D01*
X175514000Y-94361000D02*
X177292000Y-94361000D01*
X171259500Y-98615500D02*
X175514000Y-94361000D01*
X162179800Y-111574000D02*
X162179800Y-107695200D01*
X162242500Y-107632500D02*
X162242500Y-106489500D01*
X162179800Y-107695200D02*
X162242500Y-107632500D01*
X162242500Y-106489500D02*
X170116500Y-98615500D01*
X178562000Y-102362000D02*
X178562000Y-107188000D01*
X182626000Y-94843600D02*
X182626000Y-98298000D01*
X171069800Y-114680200D02*
X171069800Y-115474000D01*
X187096400Y-91643200D02*
X185826400Y-91643200D01*
X185826400Y-91643200D02*
X182626000Y-94843600D01*
X178562000Y-107188000D02*
X171069800Y-114680200D01*
X182626000Y-98298000D02*
X178562000Y-102362000D01*
X167513000Y-105791000D02*
X164719000Y-108585000D01*
X164719000Y-108585000D02*
X164719000Y-111573200D01*
X171704000Y-105791000D02*
X167513000Y-105791000D01*
X164719000Y-111573200D02*
X164719800Y-111574000D01*
X177292000Y-100203000D02*
X171704000Y-105791000D01*
X177292000Y-97409000D02*
X177292000Y-100203000D01*
X178562000Y-89027000D02*
X178562000Y-86360000D01*
X159308800Y-89966800D02*
X159639000Y-90297000D01*
X183739282Y-85500718D02*
X184277000Y-84963000D01*
X184277000Y-84963000D02*
X184277000Y-84709000D01*
X179675282Y-85500718D02*
X183739282Y-85500718D01*
X162433000Y-90297000D02*
X164084000Y-91948000D01*
D19*
X158045000Y-87725000D02*
X157445742Y-88324258D01*
D18*
X159258000Y-89966800D02*
X159308800Y-89966800D01*
X178562000Y-86360000D02*
X179324000Y-85598000D01*
X179324000Y-85598000D02*
X179578000Y-85598000D01*
X164084000Y-91948000D02*
X168402000Y-91948000D01*
X170307000Y-90043000D02*
X174879000Y-90043000D01*
D19*
X157445742Y-88713342D02*
X158064200Y-89331800D01*
D18*
X159639000Y-90297000D02*
X162433000Y-90297000D01*
X177800000Y-89789000D02*
X178562000Y-89027000D01*
D19*
X159258000Y-89966800D02*
X159283400Y-89966800D01*
D18*
X168402000Y-91948000D02*
X170307000Y-90043000D01*
X179578000Y-85598000D02*
X179675282Y-85500718D01*
X174879000Y-90043000D02*
X175133000Y-89789000D01*
D19*
X157445742Y-88324258D02*
X157445742Y-88713342D01*
X158699200Y-89966800D02*
X159258000Y-89966800D01*
X158064200Y-89331800D02*
X158699200Y-89966800D01*
D18*
X175133000Y-89789000D02*
X177800000Y-89789000D01*
X174498000Y-85598000D02*
X174498000Y-84963000D01*
X180467000Y-83439000D02*
X181737000Y-84709000D01*
X160020000Y-89662000D02*
X163068000Y-89662000D01*
X174498000Y-84963000D02*
X176022000Y-83439000D01*
D19*
X159131000Y-89509600D02*
X159334200Y-89509600D01*
D18*
X176022000Y-83439000D02*
X180467000Y-83439000D01*
X169418000Y-89027000D02*
X172466000Y-85979000D01*
X164592000Y-91186000D02*
X167767000Y-91186000D01*
D19*
X158045000Y-88525000D02*
X159029600Y-89509600D01*
D18*
X169418000Y-89535000D02*
X169418000Y-89027000D01*
X174117000Y-85979000D02*
X174498000Y-85598000D01*
X163068000Y-89662000D02*
X164592000Y-91186000D01*
X172466000Y-85979000D02*
X174117000Y-85979000D01*
X167767000Y-91186000D02*
X169418000Y-89535000D01*
X159334200Y-89509600D02*
X159867600Y-89509600D01*
X159867600Y-89509600D02*
X160020000Y-89662000D01*
D19*
X159029600Y-89509600D02*
X159131000Y-89509600D01*
D18*
X165862000Y-79502000D02*
X166624000Y-79502000D01*
X160782000Y-82296000D02*
X161290000Y-81788000D01*
D19*
X159435800Y-83058000D02*
X160020000Y-83058000D01*
X158845000Y-83648800D02*
X159435800Y-83058000D01*
X158845000Y-86125000D02*
X158845000Y-83648800D01*
X160020000Y-83058000D02*
X160782000Y-82296000D01*
D18*
X161290000Y-81788000D02*
X163576000Y-81788000D01*
X163576000Y-81788000D02*
X165862000Y-79502000D01*
D19*
X158360368Y-86609632D02*
X158360368Y-82431632D01*
D18*
X161036000Y-79756000D02*
X159004000Y-81788000D01*
X164159000Y-79502000D02*
X163576000Y-79502000D01*
D19*
X158045000Y-86925000D02*
X158360368Y-86609632D01*
D18*
X163322000Y-79756000D02*
X161036000Y-79756000D01*
D19*
X158360368Y-82431632D02*
X159004000Y-81788000D01*
D18*
X163576000Y-79502000D02*
X163322000Y-79756000D01*
X174498000Y-82931000D02*
X174371000Y-82931000D01*
X166878000Y-89535000D02*
X165481000Y-89535000D01*
X164973000Y-89027000D02*
X159347000Y-89027000D01*
X174371000Y-82931000D02*
X168656000Y-88646000D01*
X159347000Y-89027000D02*
X158845000Y-88525000D01*
X165481000Y-89535000D02*
X164973000Y-89027000D01*
X168656000Y-88646000D02*
X167767000Y-88646000D01*
X167767000Y-88646000D02*
X166878000Y-89535000D01*
D19*
X160940600Y-84525000D02*
X161010600Y-84455000D01*
D18*
X167259000Y-82042000D02*
X167259000Y-81280000D01*
X164465000Y-82550000D02*
X166751000Y-82550000D01*
X167259000Y-81280000D02*
X168021000Y-80518000D01*
D19*
X159645000Y-84525000D02*
X160940600Y-84525000D01*
D18*
X161010600Y-84455000D02*
X162534600Y-82931000D01*
X166751000Y-82550000D02*
X167259000Y-82042000D01*
X164084000Y-82931000D02*
X164465000Y-82550000D01*
X162534600Y-82931000D02*
X164084000Y-82931000D01*
X168275000Y-88011000D02*
X163576000Y-88011000D01*
X158845000Y-87725000D02*
X159385000Y-88265000D01*
X173990000Y-82296000D02*
X168275000Y-88011000D01*
X177927000Y-80645000D02*
X177419000Y-81153000D01*
X177419000Y-81153001D02*
X176276001Y-82296000D01*
X163576000Y-88011000D02*
X163322000Y-88265000D01*
X159385000Y-88265000D02*
X163322000Y-88265000D01*
X177419000Y-81153000D02*
X177419000Y-81153001D01*
X176276001Y-82296000D02*
X173990000Y-82296000D01*
X169291000Y-84201000D02*
X169291000Y-82550000D01*
X165608000Y-85725000D02*
X167767000Y-85725000D01*
X159645000Y-86125000D02*
X161652000Y-86125000D01*
X165227000Y-85344000D02*
X165608000Y-85725000D01*
X162433000Y-85344000D02*
X165227000Y-85344000D01*
X161652000Y-86125000D02*
X162433000Y-85344000D01*
X167767000Y-85725000D02*
X169291000Y-84201000D01*
X161975800Y-86817200D02*
X167563800Y-86817200D01*
X161868000Y-86925000D02*
X161975800Y-86817200D01*
X170053000Y-82804000D02*
X172847000Y-80010000D01*
X172847000Y-80010000D02*
X174879000Y-80010000D01*
X158845000Y-86925000D02*
X161868000Y-86925000D01*
X167563800Y-86817200D02*
X170053000Y-84328000D01*
X170053000Y-84328000D02*
X170053000Y-82804000D01*
X174879000Y-80010000D02*
X175133000Y-80264000D01*
X168021000Y-83058000D02*
X167005000Y-84074000D01*
X162560000Y-84074000D02*
X161309000Y-85325000D01*
D19*
X159645000Y-85325000D02*
X161029600Y-85325000D01*
D18*
X167005000Y-84074000D02*
X162560000Y-84074000D01*
X161309000Y-85325000D02*
X161029600Y-85325000D01*
X173274482Y-91291918D02*
X173024800Y-91541600D01*
X182266082Y-91291918D02*
X173274482Y-91291918D01*
X185115200Y-88442800D02*
X182266082Y-91291918D01*
X185115200Y-85750400D02*
X185115200Y-88442800D01*
X186436000Y-84429600D02*
X185115200Y-85750400D01*
X186791600Y-87477600D02*
X186334400Y-87477600D01*
X175103282Y-92350082D02*
X175006000Y-92252800D01*
X171246800Y-91287600D02*
X171145200Y-91287600D01*
X182427118Y-92350082D02*
X175103282Y-92350082D01*
X185674000Y-89103200D02*
X182427118Y-92350082D01*
X185674000Y-88138000D02*
X185674000Y-89103200D01*
X175006000Y-92252800D02*
X172212000Y-92252800D01*
X186740800Y-82854800D02*
X187096400Y-83210400D01*
X186334400Y-87477600D02*
X185674000Y-88138000D01*
X172212000Y-92252800D02*
X171246800Y-91287600D01*
X187096400Y-83210400D02*
X187096400Y-87172800D01*
X187096400Y-87172800D02*
X186791600Y-87477600D01*
X172847000Y-86791800D02*
X175996600Y-86791800D01*
M02*
