M48
; DRILL file {KiCad 8.0.4} date 2024-08-25T14:13:09+0200
; FORMAT={-:-/ absolute / metric / decimal}
; #@! TF.CreationDate,2024-08-25T14:13:09+02:00
; #@! TF.GenerationSoftware,Kicad,Pcbnew,8.0.4
; #@! TF.FileFunction,Plated,1,6,PTH
FMAT,2
METRIC
; #@! TA.AperFunction,Plated,PTH,ViaDrill
T1C0.300
; #@! TA.AperFunction,Plated,PTH,ViaDrill
T2C0.305
; #@! TA.AperFunction,Plated,PTH,ComponentDrill
T3C0.600
; #@! TA.AperFunction,Plated,PTH,ComponentDrill
T4C1.000
%
G90
G05
T1
X171.07Y-115.474
X184.81Y-98.095
X185.166Y-93.804
T2
X141.859Y-73.228
X141.91Y-81.509
X142.392Y-95.809
X142.4Y-96.825
X142.723Y-88.537
X143.434Y-113.995
X143.459Y-116.256
X143.84Y-101.397
X143.921Y-99.949
X144.077Y-112.42
X145.085Y-91.796
X145.186Y-93.015
X145.212Y-112.42
X145.237Y-115.113
X145.5Y-75.825
X146.045Y-86.125
X146.228Y-117.805
X146.456Y-78.918
X146.6Y-75.825
X146.845Y-85.325
X146.845Y-86.125
X146.845Y-88.525
X146.845Y-94.125
X146.845Y-98.125
X146.863Y-103.886
X147.218Y-116.23
X147.7Y-75.825
X148.273Y-108.001
X148.273Y-109.118
X148.273Y-110.236
X148.445Y-94.925
X148.475Y-74.45
X148.59Y-104.14
X148.717Y-116.256
X148.768Y-113.944
X148.844Y-102.87
X149.245Y-85.325
X149.245Y-86.125
X149.614Y-112.42
X149.9Y-75.825
X150.045Y-85.325
X150.045Y-86.125
X150.045Y-86.925
X150.045Y-87.725
X150.045Y-89.325
X150.045Y-90.925
X150.045Y-91.725
X150.045Y-92.525
X150.045Y-93.325
X150.045Y-94.125
X150.045Y-94.925
X150.045Y-95.725
X150.622Y-115.062
X150.749Y-112.42
X150.845Y-86.125
X150.845Y-86.925
X150.845Y-89.325
X150.845Y-90.925
X150.845Y-91.725
X150.845Y-92.525
X150.845Y-93.325
X150.845Y-94.125
X150.845Y-94.925
X150.845Y-95.725
X150.845Y-98.925
X150.876Y-103.378
X151.0Y-75.825
X151.46Y-117.831
X151.645Y-86.125
X151.645Y-86.925
X151.645Y-89.325
X151.645Y-90.125
X151.645Y-94.925
X151.645Y-95.725
X152.1Y-75.825
X152.445Y-85.325
X152.445Y-86.125
X152.445Y-86.925
X152.445Y-89.325
X152.445Y-90.925
X152.445Y-91.725
X152.445Y-92.525
X152.445Y-93.325
X152.445Y-94.925
X152.445Y-95.725
X152.502Y-116.281
X153.035Y-102.616
X153.2Y-75.825
X153.245Y-86.925
X153.245Y-89.325
X153.245Y-90.925
X153.245Y-91.725
X153.245Y-92.525
X153.245Y-93.325
X153.245Y-94.093
X153.245Y-94.925
X153.245Y-95.725
X154.045Y-86.925
X154.045Y-89.325
X154.045Y-90.925
X154.045Y-91.725
X154.045Y-92.525
X154.045Y-93.325
X154.045Y-94.925
X154.045Y-95.725
X154.051Y-101.854
X154.051Y-104.902
X154.47Y-112.56
X154.845Y-86.125
X154.845Y-86.925
X154.845Y-89.325
X154.845Y-90.125
X154.845Y-90.925
X154.845Y-91.725
X154.845Y-92.525
X154.845Y-93.325
X154.845Y-94.925
X154.845Y-95.725
X154.965Y-101.016
X155.645Y-86.125
X155.645Y-86.925
X155.645Y-89.325
X155.645Y-94.925
X155.645Y-95.725
X155.84Y-109.47
X155.854Y-117.399
X156.445Y-85.325
X156.445Y-86.125
X156.445Y-86.925
X156.445Y-89.325
X156.445Y-90.125
X156.445Y-90.925
X156.445Y-91.725
X156.445Y-92.525
X156.445Y-93.325
X156.445Y-94.125
X156.445Y-94.925
X156.445Y-95.725
X156.445Y-98.925
X156.972Y-79.858
X157.245Y-85.325
X157.245Y-86.125
X157.245Y-86.925
X157.245Y-87.725
X157.245Y-89.325
X157.245Y-90.125
X157.245Y-90.925
X157.245Y-91.725
X157.245Y-92.525
X157.245Y-93.325
X157.245Y-94.125
X157.245Y-94.925
X157.245Y-95.725
X157.556Y-100.559
X157.709Y-108.941
X157.734Y-102.108
X157.861Y-107.061
X158.045Y-86.925
X158.045Y-87.725
X158.045Y-88.525
X158.242Y-81.483
X158.344Y-73.228
X158.433Y-74.574
X158.433Y-75.744
X158.433Y-76.896
X158.845Y-86.125
X158.845Y-86.925
X158.845Y-87.725
X158.845Y-88.525
X158.845Y-94.925
X158.845Y-97.325
X159.645Y-84.525
X159.645Y-85.325
X159.645Y-86.125
X159.868Y-82.118
X160.122Y-79.096
X160.274Y-109.22
X160.445Y-90.925
X160.445Y-93.325
X161.036Y-78.74
X161.087Y-83.058
X161.544Y-107.95
X162.18Y-111.574
X162.281Y-80.848
X162.509Y-87.579
X162.814Y-109.22
X163.17Y-86.157
X163.45Y-111.574
X164.084Y-107.95
X164.159Y-79.502
X164.72Y-111.574
X165.322Y-90.425
X165.354Y-109.22
X165.473Y-83.312
X165.99Y-111.574
X166.105Y-81.61
X166.2Y-88.9
X166.507Y-90.425
X166.624Y-79.502
X166.624Y-107.95
X167.26Y-111.574
X167.437Y-84.912
X168.021Y-80.518
X168.021Y-83.058
X168.15Y-89.325
X168.53Y-115.474
X169.291Y-82.55
X169.723Y-109.652
X170.18Y-96.571
X171.145Y-91.288
X171.18Y-96.571
X171.18Y-99.571
X171.22Y-83.236
X172.18Y-99.571
X172.339Y-109.22
X172.847Y-86.792
X173.025Y-91.542
X173.355Y-85.09
X173.355Y-88.875
X173.609Y-113.538
X174.18Y-97.571
X174.18Y-98.571
X174.447Y-77.876
X174.498Y-82.931
X174.879Y-87.719
X175.133Y-80.264
X175.133Y-88.773
X175.768Y-72.796
X175.895Y-74.362
X175.997Y-86.792
X176.089Y-87.503
X176.089Y-89.027
X176.149Y-111.709
X176.157Y-90.678
X176.53Y-80.899
X177.165Y-84.201
X177.165Y-104.648
X177.225Y-87.503
X177.225Y-89.027
X177.292Y-90.678
X177.292Y-93.091
X177.292Y-94.361
X177.292Y-95.631
X177.292Y-97.409
X177.292Y-106.172
X177.927Y-80.645
X178.435Y-90.551
X178.435Y-91.821
X178.562Y-98.171
X179.451Y-109.652
X179.578Y-89.281
X179.586Y-84.709
X179.63Y-78.288
X179.772Y-86.741
X179.772Y-88.138
X180.022Y-93.408
X180.086Y-94.869
X180.086Y-96.52
X180.389Y-114.366
X180.543Y-106.909
X180.594Y-110.947
X180.713Y-89.281
X180.721Y-84.709
X180.721Y-119.126
X180.797Y-86.055
X180.797Y-86.766
X180.797Y-87.503
X180.797Y-88.189
X181.483Y-81.623
X181.483Y-97.282
X181.559Y-86.055
X181.559Y-86.766
X181.559Y-87.503
X181.559Y-88.189
X181.737Y-84.709
X181.804Y-89.281
X182.311Y-109.64
X182.321Y-86.055
X182.321Y-86.766
X182.321Y-87.503
X182.321Y-88.189
X182.584Y-106.135
X182.778Y-112.878
X182.939Y-89.281
X183.134Y-84.903
X183.159Y-86.03
X183.159Y-88.163
X183.201Y-87.122
X183.388Y-80.01
X184.26Y-87.122
X184.277Y-84.709
X184.311Y-88.189
X184.404Y-85.7
X184.861Y-107.315
X184.861Y-108.941
X184.861Y-110.211
X184.951Y-110.947
X184.963Y-113.182
X185.381Y-100.889
X185.393Y-99.67
X185.522Y-81.382
X185.928Y-109.55
X186.055Y-114.554
X186.13Y-78.288
X186.182Y-118.11
X186.385Y-85.598
X186.436Y-84.43
X186.436Y-86.766
X186.488Y-80.391
X186.741Y-82.855
X187.096Y-91.643
X187.35Y-89.205
T4
X172.466Y-72.781
X172.466Y-75.321
X172.466Y-77.861
T3
X178.56Y-73.493G85X178.56Y-72.893
G05
X178.56Y-77.923G85X178.56Y-76.823
G05
X187.2Y-73.493G85X187.2Y-72.893
G05
X187.2Y-77.923G85X187.2Y-76.823
G05
M30
