G04 #@! TF.GenerationSoftware,KiCad,Pcbnew,8.0.6*
G04 #@! TF.CreationDate,2024-11-24T11:16:57+01:00*
G04 #@! TF.ProjectId,fpga_extension,66706761-5f65-4787-9465-6e73696f6e2e,rev?*
G04 #@! TF.SameCoordinates,Original*
G04 #@! TF.FileFunction,Legend,Bot*
G04 #@! TF.FilePolarity,Positive*
%FSLAX46Y46*%
G04 Gerber Fmt 4.6, Leading zero omitted, Abs format (unit mm)*
G04 Created by KiCad (PCBNEW 8.0.6) date 2024-11-24 11:16:57*
%MOMM*%
%LPD*%
G01*
G04 APERTURE LIST*
G04 Aperture macros list*
%AMRoundRect*
0 Rectangle with rounded corners*
0 $1 Rounding radius*
0 $2 $3 $4 $5 $6 $7 $8 $9 X,Y pos of 4 corners*
0 Add a 4 corners polygon primitive as box body*
4,1,4,$2,$3,$4,$5,$6,$7,$8,$9,$2,$3,0*
0 Add four circle primitives for the rounded corners*
1,1,$1+$1,$2,$3*
1,1,$1+$1,$4,$5*
1,1,$1+$1,$6,$7*
1,1,$1+$1,$8,$9*
0 Add four rect primitives between the rounded corners*
20,1,$1+$1,$2,$3,$4,$5,0*
20,1,$1+$1,$4,$5,$6,$7,0*
20,1,$1+$1,$6,$7,$8,$9,0*
20,1,$1+$1,$8,$9,$2,$3,0*%
G04 Aperture macros list end*
%ADD10C,0.152400*%
%ADD11C,0.120000*%
%ADD12C,0.650000*%
%ADD13O,1.000000X2.100000*%
%ADD14O,1.000000X1.600000*%
%ADD15R,1.700000X1.700000*%
%ADD16O,1.700000X1.700000*%
%ADD17RoundRect,0.160000X0.197500X0.160000X-0.197500X0.160000X-0.197500X-0.160000X0.197500X-0.160000X0*%
%ADD18RoundRect,0.155000X-0.212500X-0.155000X0.212500X-0.155000X0.212500X0.155000X-0.212500X0.155000X0*%
%ADD19RoundRect,0.155000X0.212500X0.155000X-0.212500X0.155000X-0.212500X-0.155000X0.212500X-0.155000X0*%
%ADD20RoundRect,0.250000X-0.350000X0.275000X-0.350000X-0.275000X0.350000X-0.275000X0.350000X0.275000X0*%
%ADD21RoundRect,0.250000X0.275000X0.350000X-0.275000X0.350000X-0.275000X-0.350000X0.275000X-0.350000X0*%
%ADD22RoundRect,0.155000X0.155000X-0.212500X0.155000X0.212500X-0.155000X0.212500X-0.155000X-0.212500X0*%
%ADD23RoundRect,0.250000X0.250000X-0.250000X0.250000X0.250000X-0.250000X0.250000X-0.250000X-0.250000X0*%
%ADD24RoundRect,0.150000X0.650000X0.150000X-0.650000X0.150000X-0.650000X-0.150000X0.650000X-0.150000X0*%
%ADD25RoundRect,0.155000X-0.155000X0.212500X-0.155000X-0.212500X0.155000X-0.212500X0.155000X0.212500X0*%
%ADD26RoundRect,0.175000X0.825000X0.175000X-0.825000X0.175000X-0.825000X-0.175000X0.825000X-0.175000X0*%
%ADD27R,0.900000X1.100000*%
%ADD28R,0.800000X1.500000*%
%ADD29R,1.450000X2.000000*%
%ADD30RoundRect,0.050000X-0.050000X0.387500X-0.050000X-0.387500X0.050000X-0.387500X0.050000X0.387500X0*%
%ADD31RoundRect,0.050000X-0.387500X0.050000X-0.387500X-0.050000X0.387500X-0.050000X0.387500X0.050000X0*%
%ADD32R,3.200000X3.200000*%
%ADD33R,0.740000X2.400000*%
%ADD34RoundRect,0.160000X-0.197500X-0.160000X0.197500X-0.160000X0.197500X0.160000X-0.197500X0.160000X0*%
G04 APERTURE END LIST*
D10*
X169080542Y-119181695D02*
X169419209Y-118697886D01*
X169661114Y-119181695D02*
X169661114Y-118165695D01*
X169661114Y-118165695D02*
X169274066Y-118165695D01*
X169274066Y-118165695D02*
X169177304Y-118214076D01*
X169177304Y-118214076D02*
X169128923Y-118262457D01*
X169128923Y-118262457D02*
X169080542Y-118359219D01*
X169080542Y-118359219D02*
X169080542Y-118504362D01*
X169080542Y-118504362D02*
X169128923Y-118601124D01*
X169128923Y-118601124D02*
X169177304Y-118649505D01*
X169177304Y-118649505D02*
X169274066Y-118697886D01*
X169274066Y-118697886D02*
X169661114Y-118697886D01*
X168693495Y-118262457D02*
X168645114Y-118214076D01*
X168645114Y-118214076D02*
X168548352Y-118165695D01*
X168548352Y-118165695D02*
X168306447Y-118165695D01*
X168306447Y-118165695D02*
X168209685Y-118214076D01*
X168209685Y-118214076D02*
X168161304Y-118262457D01*
X168161304Y-118262457D02*
X168112923Y-118359219D01*
X168112923Y-118359219D02*
X168112923Y-118455981D01*
X168112923Y-118455981D02*
X168161304Y-118601124D01*
X168161304Y-118601124D02*
X168741876Y-119181695D01*
X168741876Y-119181695D02*
X168112923Y-119181695D01*
X167532352Y-118601124D02*
X167629114Y-118552743D01*
X167629114Y-118552743D02*
X167677495Y-118504362D01*
X167677495Y-118504362D02*
X167725876Y-118407600D01*
X167725876Y-118407600D02*
X167725876Y-118359219D01*
X167725876Y-118359219D02*
X167677495Y-118262457D01*
X167677495Y-118262457D02*
X167629114Y-118214076D01*
X167629114Y-118214076D02*
X167532352Y-118165695D01*
X167532352Y-118165695D02*
X167338828Y-118165695D01*
X167338828Y-118165695D02*
X167242066Y-118214076D01*
X167242066Y-118214076D02*
X167193685Y-118262457D01*
X167193685Y-118262457D02*
X167145304Y-118359219D01*
X167145304Y-118359219D02*
X167145304Y-118407600D01*
X167145304Y-118407600D02*
X167193685Y-118504362D01*
X167193685Y-118504362D02*
X167242066Y-118552743D01*
X167242066Y-118552743D02*
X167338828Y-118601124D01*
X167338828Y-118601124D02*
X167532352Y-118601124D01*
X167532352Y-118601124D02*
X167629114Y-118649505D01*
X167629114Y-118649505D02*
X167677495Y-118697886D01*
X167677495Y-118697886D02*
X167725876Y-118794648D01*
X167725876Y-118794648D02*
X167725876Y-118988172D01*
X167725876Y-118988172D02*
X167677495Y-119084934D01*
X167677495Y-119084934D02*
X167629114Y-119133315D01*
X167629114Y-119133315D02*
X167532352Y-119181695D01*
X167532352Y-119181695D02*
X167338828Y-119181695D01*
X167338828Y-119181695D02*
X167242066Y-119133315D01*
X167242066Y-119133315D02*
X167193685Y-119084934D01*
X167193685Y-119084934D02*
X167145304Y-118988172D01*
X167145304Y-118988172D02*
X167145304Y-118794648D01*
X167145304Y-118794648D02*
X167193685Y-118697886D01*
X167193685Y-118697886D02*
X167242066Y-118649505D01*
X167242066Y-118649505D02*
X167338828Y-118601124D01*
X161414332Y-93490334D02*
X161462713Y-93538715D01*
X161462713Y-93538715D02*
X161607856Y-93587095D01*
X161607856Y-93587095D02*
X161704618Y-93587095D01*
X161704618Y-93587095D02*
X161849761Y-93538715D01*
X161849761Y-93538715D02*
X161946523Y-93441953D01*
X161946523Y-93441953D02*
X161994904Y-93345191D01*
X161994904Y-93345191D02*
X162043285Y-93151667D01*
X162043285Y-93151667D02*
X162043285Y-93006524D01*
X162043285Y-93006524D02*
X161994904Y-92813000D01*
X161994904Y-92813000D02*
X161946523Y-92716238D01*
X161946523Y-92716238D02*
X161849761Y-92619476D01*
X161849761Y-92619476D02*
X161704618Y-92571095D01*
X161704618Y-92571095D02*
X161607856Y-92571095D01*
X161607856Y-92571095D02*
X161462713Y-92619476D01*
X161462713Y-92619476D02*
X161414332Y-92667857D01*
X161075666Y-92571095D02*
X160446713Y-92571095D01*
X160446713Y-92571095D02*
X160785380Y-92958143D01*
X160785380Y-92958143D02*
X160640237Y-92958143D01*
X160640237Y-92958143D02*
X160543475Y-93006524D01*
X160543475Y-93006524D02*
X160495094Y-93054905D01*
X160495094Y-93054905D02*
X160446713Y-93151667D01*
X160446713Y-93151667D02*
X160446713Y-93393572D01*
X160446713Y-93393572D02*
X160495094Y-93490334D01*
X160495094Y-93490334D02*
X160543475Y-93538715D01*
X160543475Y-93538715D02*
X160640237Y-93587095D01*
X160640237Y-93587095D02*
X160930523Y-93587095D01*
X160930523Y-93587095D02*
X161027285Y-93538715D01*
X161027285Y-93538715D02*
X161075666Y-93490334D01*
X146681932Y-95412134D02*
X146730313Y-95460515D01*
X146730313Y-95460515D02*
X146875456Y-95508895D01*
X146875456Y-95508895D02*
X146972218Y-95508895D01*
X146972218Y-95508895D02*
X147117361Y-95460515D01*
X147117361Y-95460515D02*
X147214123Y-95363753D01*
X147214123Y-95363753D02*
X147262504Y-95266991D01*
X147262504Y-95266991D02*
X147310885Y-95073467D01*
X147310885Y-95073467D02*
X147310885Y-94928324D01*
X147310885Y-94928324D02*
X147262504Y-94734800D01*
X147262504Y-94734800D02*
X147214123Y-94638038D01*
X147214123Y-94638038D02*
X147117361Y-94541276D01*
X147117361Y-94541276D02*
X146972218Y-94492895D01*
X146972218Y-94492895D02*
X146875456Y-94492895D01*
X146875456Y-94492895D02*
X146730313Y-94541276D01*
X146730313Y-94541276D02*
X146681932Y-94589657D01*
X145714313Y-95508895D02*
X146294885Y-95508895D01*
X146004599Y-95508895D02*
X146004599Y-94492895D01*
X146004599Y-94492895D02*
X146101361Y-94638038D01*
X146101361Y-94638038D02*
X146198123Y-94734800D01*
X146198123Y-94734800D02*
X146294885Y-94783181D01*
X142627105Y-92403733D02*
X142627105Y-92065066D01*
X143159295Y-92065066D02*
X142143295Y-92065066D01*
X142143295Y-92065066D02*
X142143295Y-92548876D01*
X142627105Y-93274590D02*
X142675486Y-93419733D01*
X142675486Y-93419733D02*
X142723867Y-93468114D01*
X142723867Y-93468114D02*
X142820629Y-93516495D01*
X142820629Y-93516495D02*
X142965772Y-93516495D01*
X142965772Y-93516495D02*
X143062534Y-93468114D01*
X143062534Y-93468114D02*
X143110915Y-93419733D01*
X143110915Y-93419733D02*
X143159295Y-93322971D01*
X143159295Y-93322971D02*
X143159295Y-92935923D01*
X143159295Y-92935923D02*
X142143295Y-92935923D01*
X142143295Y-92935923D02*
X142143295Y-93274590D01*
X142143295Y-93274590D02*
X142191676Y-93371352D01*
X142191676Y-93371352D02*
X142240057Y-93419733D01*
X142240057Y-93419733D02*
X142336819Y-93468114D01*
X142336819Y-93468114D02*
X142433581Y-93468114D01*
X142433581Y-93468114D02*
X142530343Y-93419733D01*
X142530343Y-93419733D02*
X142578724Y-93371352D01*
X142578724Y-93371352D02*
X142627105Y-93274590D01*
X142627105Y-93274590D02*
X142627105Y-92935923D01*
X142240057Y-93903542D02*
X142191676Y-93951923D01*
X142191676Y-93951923D02*
X142143295Y-94048685D01*
X142143295Y-94048685D02*
X142143295Y-94290590D01*
X142143295Y-94290590D02*
X142191676Y-94387352D01*
X142191676Y-94387352D02*
X142240057Y-94435733D01*
X142240057Y-94435733D02*
X142336819Y-94484114D01*
X142336819Y-94484114D02*
X142433581Y-94484114D01*
X142433581Y-94484114D02*
X142578724Y-94435733D01*
X142578724Y-94435733D02*
X143159295Y-93855161D01*
X143159295Y-93855161D02*
X143159295Y-94484114D01*
X152494342Y-95691534D02*
X152542723Y-95739915D01*
X152542723Y-95739915D02*
X152687866Y-95788295D01*
X152687866Y-95788295D02*
X152784628Y-95788295D01*
X152784628Y-95788295D02*
X152929771Y-95739915D01*
X152929771Y-95739915D02*
X153026533Y-95643153D01*
X153026533Y-95643153D02*
X153074914Y-95546391D01*
X153074914Y-95546391D02*
X153123295Y-95352867D01*
X153123295Y-95352867D02*
X153123295Y-95207724D01*
X153123295Y-95207724D02*
X153074914Y-95014200D01*
X153074914Y-95014200D02*
X153026533Y-94917438D01*
X153026533Y-94917438D02*
X152929771Y-94820676D01*
X152929771Y-94820676D02*
X152784628Y-94772295D01*
X152784628Y-94772295D02*
X152687866Y-94772295D01*
X152687866Y-94772295D02*
X152542723Y-94820676D01*
X152542723Y-94820676D02*
X152494342Y-94869057D01*
X151623485Y-95110962D02*
X151623485Y-95788295D01*
X151865390Y-94723915D02*
X152107295Y-95449629D01*
X152107295Y-95449629D02*
X151478342Y-95449629D01*
X150655866Y-95110962D02*
X150655866Y-95788295D01*
X150897771Y-94723915D02*
X151139676Y-95449629D01*
X151139676Y-95449629D02*
X150510723Y-95449629D01*
X179053066Y-119360705D02*
X179391733Y-119360705D01*
X179391733Y-119892895D02*
X179391733Y-118876895D01*
X179391733Y-118876895D02*
X178907923Y-118876895D01*
X178182209Y-119360705D02*
X178037066Y-119409086D01*
X178037066Y-119409086D02*
X177988685Y-119457467D01*
X177988685Y-119457467D02*
X177940304Y-119554229D01*
X177940304Y-119554229D02*
X177940304Y-119699372D01*
X177940304Y-119699372D02*
X177988685Y-119796134D01*
X177988685Y-119796134D02*
X178037066Y-119844515D01*
X178037066Y-119844515D02*
X178133828Y-119892895D01*
X178133828Y-119892895D02*
X178520876Y-119892895D01*
X178520876Y-119892895D02*
X178520876Y-118876895D01*
X178520876Y-118876895D02*
X178182209Y-118876895D01*
X178182209Y-118876895D02*
X178085447Y-118925276D01*
X178085447Y-118925276D02*
X178037066Y-118973657D01*
X178037066Y-118973657D02*
X177988685Y-119070419D01*
X177988685Y-119070419D02*
X177988685Y-119167181D01*
X177988685Y-119167181D02*
X178037066Y-119263943D01*
X178037066Y-119263943D02*
X178085447Y-119312324D01*
X178085447Y-119312324D02*
X178182209Y-119360705D01*
X178182209Y-119360705D02*
X178520876Y-119360705D01*
X176972685Y-119892895D02*
X177553257Y-119892895D01*
X177262971Y-119892895D02*
X177262971Y-118876895D01*
X177262971Y-118876895D02*
X177359733Y-119022038D01*
X177359733Y-119022038D02*
X177456495Y-119118800D01*
X177456495Y-119118800D02*
X177553257Y-119167181D01*
X162722134Y-77782057D02*
X162770515Y-77733676D01*
X162770515Y-77733676D02*
X162818895Y-77588533D01*
X162818895Y-77588533D02*
X162818895Y-77491771D01*
X162818895Y-77491771D02*
X162770515Y-77346628D01*
X162770515Y-77346628D02*
X162673753Y-77249866D01*
X162673753Y-77249866D02*
X162576991Y-77201485D01*
X162576991Y-77201485D02*
X162383467Y-77153104D01*
X162383467Y-77153104D02*
X162238324Y-77153104D01*
X162238324Y-77153104D02*
X162044800Y-77201485D01*
X162044800Y-77201485D02*
X161948038Y-77249866D01*
X161948038Y-77249866D02*
X161851276Y-77346628D01*
X161851276Y-77346628D02*
X161802895Y-77491771D01*
X161802895Y-77491771D02*
X161802895Y-77588533D01*
X161802895Y-77588533D02*
X161851276Y-77733676D01*
X161851276Y-77733676D02*
X161899657Y-77782057D01*
X161899657Y-78169104D02*
X161851276Y-78217485D01*
X161851276Y-78217485D02*
X161802895Y-78314247D01*
X161802895Y-78314247D02*
X161802895Y-78556152D01*
X161802895Y-78556152D02*
X161851276Y-78652914D01*
X161851276Y-78652914D02*
X161899657Y-78701295D01*
X161899657Y-78701295D02*
X161996419Y-78749676D01*
X161996419Y-78749676D02*
X162093181Y-78749676D01*
X162093181Y-78749676D02*
X162238324Y-78701295D01*
X162238324Y-78701295D02*
X162818895Y-78120723D01*
X162818895Y-78120723D02*
X162818895Y-78749676D01*
X161802895Y-79088342D02*
X161802895Y-79717295D01*
X161802895Y-79717295D02*
X162189943Y-79378628D01*
X162189943Y-79378628D02*
X162189943Y-79523771D01*
X162189943Y-79523771D02*
X162238324Y-79620533D01*
X162238324Y-79620533D02*
X162286705Y-79668914D01*
X162286705Y-79668914D02*
X162383467Y-79717295D01*
X162383467Y-79717295D02*
X162625372Y-79717295D01*
X162625372Y-79717295D02*
X162722134Y-79668914D01*
X162722134Y-79668914D02*
X162770515Y-79620533D01*
X162770515Y-79620533D02*
X162818895Y-79523771D01*
X162818895Y-79523771D02*
X162818895Y-79233485D01*
X162818895Y-79233485D02*
X162770515Y-79136723D01*
X162770515Y-79136723D02*
X162722134Y-79088342D01*
X186892095Y-115836095D02*
X185876095Y-115836095D01*
X185876095Y-115836095D02*
X185876095Y-116078000D01*
X185876095Y-116078000D02*
X185924476Y-116223143D01*
X185924476Y-116223143D02*
X186021238Y-116319905D01*
X186021238Y-116319905D02*
X186118000Y-116368286D01*
X186118000Y-116368286D02*
X186311524Y-116416667D01*
X186311524Y-116416667D02*
X186456667Y-116416667D01*
X186456667Y-116416667D02*
X186650191Y-116368286D01*
X186650191Y-116368286D02*
X186746953Y-116319905D01*
X186746953Y-116319905D02*
X186843715Y-116223143D01*
X186843715Y-116223143D02*
X186892095Y-116078000D01*
X186892095Y-116078000D02*
X186892095Y-115836095D01*
X186892095Y-117384286D02*
X186892095Y-116803714D01*
X186892095Y-117094000D02*
X185876095Y-117094000D01*
X185876095Y-117094000D02*
X186021238Y-116997238D01*
X186021238Y-116997238D02*
X186118000Y-116900476D01*
X186118000Y-116900476D02*
X186166381Y-116803714D01*
X147498142Y-87290334D02*
X147546523Y-87338715D01*
X147546523Y-87338715D02*
X147691666Y-87387095D01*
X147691666Y-87387095D02*
X147788428Y-87387095D01*
X147788428Y-87387095D02*
X147933571Y-87338715D01*
X147933571Y-87338715D02*
X148030333Y-87241953D01*
X148030333Y-87241953D02*
X148078714Y-87145191D01*
X148078714Y-87145191D02*
X148127095Y-86951667D01*
X148127095Y-86951667D02*
X148127095Y-86806524D01*
X148127095Y-86806524D02*
X148078714Y-86613000D01*
X148078714Y-86613000D02*
X148030333Y-86516238D01*
X148030333Y-86516238D02*
X147933571Y-86419476D01*
X147933571Y-86419476D02*
X147788428Y-86371095D01*
X147788428Y-86371095D02*
X147691666Y-86371095D01*
X147691666Y-86371095D02*
X147546523Y-86419476D01*
X147546523Y-86419476D02*
X147498142Y-86467857D01*
X147111095Y-86467857D02*
X147062714Y-86419476D01*
X147062714Y-86419476D02*
X146965952Y-86371095D01*
X146965952Y-86371095D02*
X146724047Y-86371095D01*
X146724047Y-86371095D02*
X146627285Y-86419476D01*
X146627285Y-86419476D02*
X146578904Y-86467857D01*
X146578904Y-86467857D02*
X146530523Y-86564619D01*
X146530523Y-86564619D02*
X146530523Y-86661381D01*
X146530523Y-86661381D02*
X146578904Y-86806524D01*
X146578904Y-86806524D02*
X147159476Y-87387095D01*
X147159476Y-87387095D02*
X146530523Y-87387095D01*
X145562904Y-87387095D02*
X146143476Y-87387095D01*
X145853190Y-87387095D02*
X145853190Y-86371095D01*
X145853190Y-86371095D02*
X145949952Y-86516238D01*
X145949952Y-86516238D02*
X146046714Y-86613000D01*
X146046714Y-86613000D02*
X146143476Y-86661381D01*
X168998295Y-82684695D02*
X168998295Y-83507172D01*
X168998295Y-83507172D02*
X168949914Y-83603934D01*
X168949914Y-83603934D02*
X168901533Y-83652315D01*
X168901533Y-83652315D02*
X168804771Y-83700695D01*
X168804771Y-83700695D02*
X168611247Y-83700695D01*
X168611247Y-83700695D02*
X168514485Y-83652315D01*
X168514485Y-83652315D02*
X168466104Y-83603934D01*
X168466104Y-83603934D02*
X168417723Y-83507172D01*
X168417723Y-83507172D02*
X168417723Y-82684695D01*
X167788771Y-83120124D02*
X167885533Y-83071743D01*
X167885533Y-83071743D02*
X167933914Y-83023362D01*
X167933914Y-83023362D02*
X167982295Y-82926600D01*
X167982295Y-82926600D02*
X167982295Y-82878219D01*
X167982295Y-82878219D02*
X167933914Y-82781457D01*
X167933914Y-82781457D02*
X167885533Y-82733076D01*
X167885533Y-82733076D02*
X167788771Y-82684695D01*
X167788771Y-82684695D02*
X167595247Y-82684695D01*
X167595247Y-82684695D02*
X167498485Y-82733076D01*
X167498485Y-82733076D02*
X167450104Y-82781457D01*
X167450104Y-82781457D02*
X167401723Y-82878219D01*
X167401723Y-82878219D02*
X167401723Y-82926600D01*
X167401723Y-82926600D02*
X167450104Y-83023362D01*
X167450104Y-83023362D02*
X167498485Y-83071743D01*
X167498485Y-83071743D02*
X167595247Y-83120124D01*
X167595247Y-83120124D02*
X167788771Y-83120124D01*
X167788771Y-83120124D02*
X167885533Y-83168505D01*
X167885533Y-83168505D02*
X167933914Y-83216886D01*
X167933914Y-83216886D02*
X167982295Y-83313648D01*
X167982295Y-83313648D02*
X167982295Y-83507172D01*
X167982295Y-83507172D02*
X167933914Y-83603934D01*
X167933914Y-83603934D02*
X167885533Y-83652315D01*
X167885533Y-83652315D02*
X167788771Y-83700695D01*
X167788771Y-83700695D02*
X167595247Y-83700695D01*
X167595247Y-83700695D02*
X167498485Y-83652315D01*
X167498485Y-83652315D02*
X167450104Y-83603934D01*
X167450104Y-83603934D02*
X167401723Y-83507172D01*
X167401723Y-83507172D02*
X167401723Y-83313648D01*
X167401723Y-83313648D02*
X167450104Y-83216886D01*
X167450104Y-83216886D02*
X167498485Y-83168505D01*
X167498485Y-83168505D02*
X167595247Y-83120124D01*
X150902842Y-90078134D02*
X150951223Y-90126515D01*
X150951223Y-90126515D02*
X151096366Y-90174895D01*
X151096366Y-90174895D02*
X151193128Y-90174895D01*
X151193128Y-90174895D02*
X151338271Y-90126515D01*
X151338271Y-90126515D02*
X151435033Y-90029753D01*
X151435033Y-90029753D02*
X151483414Y-89932991D01*
X151483414Y-89932991D02*
X151531795Y-89739467D01*
X151531795Y-89739467D02*
X151531795Y-89594324D01*
X151531795Y-89594324D02*
X151483414Y-89400800D01*
X151483414Y-89400800D02*
X151435033Y-89304038D01*
X151435033Y-89304038D02*
X151338271Y-89207276D01*
X151338271Y-89207276D02*
X151193128Y-89158895D01*
X151193128Y-89158895D02*
X151096366Y-89158895D01*
X151096366Y-89158895D02*
X150951223Y-89207276D01*
X150951223Y-89207276D02*
X150902842Y-89255657D01*
X149983604Y-89158895D02*
X150467414Y-89158895D01*
X150467414Y-89158895D02*
X150515795Y-89642705D01*
X150515795Y-89642705D02*
X150467414Y-89594324D01*
X150467414Y-89594324D02*
X150370652Y-89545943D01*
X150370652Y-89545943D02*
X150128747Y-89545943D01*
X150128747Y-89545943D02*
X150031985Y-89594324D01*
X150031985Y-89594324D02*
X149983604Y-89642705D01*
X149983604Y-89642705D02*
X149935223Y-89739467D01*
X149935223Y-89739467D02*
X149935223Y-89981372D01*
X149935223Y-89981372D02*
X149983604Y-90078134D01*
X149983604Y-90078134D02*
X150031985Y-90126515D01*
X150031985Y-90126515D02*
X150128747Y-90174895D01*
X150128747Y-90174895D02*
X150370652Y-90174895D01*
X150370652Y-90174895D02*
X150467414Y-90126515D01*
X150467414Y-90126515D02*
X150515795Y-90078134D01*
X149064366Y-89158895D02*
X149257890Y-89158895D01*
X149257890Y-89158895D02*
X149354652Y-89207276D01*
X149354652Y-89207276D02*
X149403033Y-89255657D01*
X149403033Y-89255657D02*
X149499795Y-89400800D01*
X149499795Y-89400800D02*
X149548176Y-89594324D01*
X149548176Y-89594324D02*
X149548176Y-89981372D01*
X149548176Y-89981372D02*
X149499795Y-90078134D01*
X149499795Y-90078134D02*
X149451414Y-90126515D01*
X149451414Y-90126515D02*
X149354652Y-90174895D01*
X149354652Y-90174895D02*
X149161128Y-90174895D01*
X149161128Y-90174895D02*
X149064366Y-90126515D01*
X149064366Y-90126515D02*
X149015985Y-90078134D01*
X149015985Y-90078134D02*
X148967604Y-89981372D01*
X148967604Y-89981372D02*
X148967604Y-89739467D01*
X148967604Y-89739467D02*
X149015985Y-89642705D01*
X149015985Y-89642705D02*
X149064366Y-89594324D01*
X149064366Y-89594324D02*
X149161128Y-89545943D01*
X149161128Y-89545943D02*
X149354652Y-89545943D01*
X149354652Y-89545943D02*
X149451414Y-89594324D01*
X149451414Y-89594324D02*
X149499795Y-89642705D01*
X149499795Y-89642705D02*
X149548176Y-89739467D01*
X155847142Y-95716934D02*
X155895523Y-95765315D01*
X155895523Y-95765315D02*
X156040666Y-95813695D01*
X156040666Y-95813695D02*
X156137428Y-95813695D01*
X156137428Y-95813695D02*
X156282571Y-95765315D01*
X156282571Y-95765315D02*
X156379333Y-95668553D01*
X156379333Y-95668553D02*
X156427714Y-95571791D01*
X156427714Y-95571791D02*
X156476095Y-95378267D01*
X156476095Y-95378267D02*
X156476095Y-95233124D01*
X156476095Y-95233124D02*
X156427714Y-95039600D01*
X156427714Y-95039600D02*
X156379333Y-94942838D01*
X156379333Y-94942838D02*
X156282571Y-94846076D01*
X156282571Y-94846076D02*
X156137428Y-94797695D01*
X156137428Y-94797695D02*
X156040666Y-94797695D01*
X156040666Y-94797695D02*
X155895523Y-94846076D01*
X155895523Y-94846076D02*
X155847142Y-94894457D01*
X154976285Y-95136362D02*
X154976285Y-95813695D01*
X155218190Y-94749315D02*
X155460095Y-95475029D01*
X155460095Y-95475029D02*
X154831142Y-95475029D01*
X154540857Y-94797695D02*
X153911904Y-94797695D01*
X153911904Y-94797695D02*
X154250571Y-95184743D01*
X154250571Y-95184743D02*
X154105428Y-95184743D01*
X154105428Y-95184743D02*
X154008666Y-95233124D01*
X154008666Y-95233124D02*
X153960285Y-95281505D01*
X153960285Y-95281505D02*
X153911904Y-95378267D01*
X153911904Y-95378267D02*
X153911904Y-95620172D01*
X153911904Y-95620172D02*
X153960285Y-95716934D01*
X153960285Y-95716934D02*
X154008666Y-95765315D01*
X154008666Y-95765315D02*
X154105428Y-95813695D01*
X154105428Y-95813695D02*
X154395714Y-95813695D01*
X154395714Y-95813695D02*
X154492476Y-95765315D01*
X154492476Y-95765315D02*
X154540857Y-95716934D01*
X147634534Y-98762457D02*
X147682915Y-98714076D01*
X147682915Y-98714076D02*
X147731295Y-98568933D01*
X147731295Y-98568933D02*
X147731295Y-98472171D01*
X147731295Y-98472171D02*
X147682915Y-98327028D01*
X147682915Y-98327028D02*
X147586153Y-98230266D01*
X147586153Y-98230266D02*
X147489391Y-98181885D01*
X147489391Y-98181885D02*
X147295867Y-98133504D01*
X147295867Y-98133504D02*
X147150724Y-98133504D01*
X147150724Y-98133504D02*
X146957200Y-98181885D01*
X146957200Y-98181885D02*
X146860438Y-98230266D01*
X146860438Y-98230266D02*
X146763676Y-98327028D01*
X146763676Y-98327028D02*
X146715295Y-98472171D01*
X146715295Y-98472171D02*
X146715295Y-98568933D01*
X146715295Y-98568933D02*
X146763676Y-98714076D01*
X146763676Y-98714076D02*
X146812057Y-98762457D01*
X146715295Y-99633314D02*
X146715295Y-99439790D01*
X146715295Y-99439790D02*
X146763676Y-99343028D01*
X146763676Y-99343028D02*
X146812057Y-99294647D01*
X146812057Y-99294647D02*
X146957200Y-99197885D01*
X146957200Y-99197885D02*
X147150724Y-99149504D01*
X147150724Y-99149504D02*
X147537772Y-99149504D01*
X147537772Y-99149504D02*
X147634534Y-99197885D01*
X147634534Y-99197885D02*
X147682915Y-99246266D01*
X147682915Y-99246266D02*
X147731295Y-99343028D01*
X147731295Y-99343028D02*
X147731295Y-99536552D01*
X147731295Y-99536552D02*
X147682915Y-99633314D01*
X147682915Y-99633314D02*
X147634534Y-99681695D01*
X147634534Y-99681695D02*
X147537772Y-99730076D01*
X147537772Y-99730076D02*
X147295867Y-99730076D01*
X147295867Y-99730076D02*
X147199105Y-99681695D01*
X147199105Y-99681695D02*
X147150724Y-99633314D01*
X147150724Y-99633314D02*
X147102343Y-99536552D01*
X147102343Y-99536552D02*
X147102343Y-99343028D01*
X147102343Y-99343028D02*
X147150724Y-99246266D01*
X147150724Y-99246266D02*
X147199105Y-99197885D01*
X147199105Y-99197885D02*
X147295867Y-99149504D01*
X147731295Y-100697695D02*
X147731295Y-100117123D01*
X147731295Y-100407409D02*
X146715295Y-100407409D01*
X146715295Y-100407409D02*
X146860438Y-100310647D01*
X146860438Y-100310647D02*
X146957200Y-100213885D01*
X146957200Y-100213885D02*
X147005581Y-100117123D01*
X152460534Y-92361657D02*
X152508915Y-92313276D01*
X152508915Y-92313276D02*
X152557295Y-92168133D01*
X152557295Y-92168133D02*
X152557295Y-92071371D01*
X152557295Y-92071371D02*
X152508915Y-91926228D01*
X152508915Y-91926228D02*
X152412153Y-91829466D01*
X152412153Y-91829466D02*
X152315391Y-91781085D01*
X152315391Y-91781085D02*
X152121867Y-91732704D01*
X152121867Y-91732704D02*
X151976724Y-91732704D01*
X151976724Y-91732704D02*
X151783200Y-91781085D01*
X151783200Y-91781085D02*
X151686438Y-91829466D01*
X151686438Y-91829466D02*
X151589676Y-91926228D01*
X151589676Y-91926228D02*
X151541295Y-92071371D01*
X151541295Y-92071371D02*
X151541295Y-92168133D01*
X151541295Y-92168133D02*
X151589676Y-92313276D01*
X151589676Y-92313276D02*
X151638057Y-92361657D01*
X151638057Y-92748704D02*
X151589676Y-92797085D01*
X151589676Y-92797085D02*
X151541295Y-92893847D01*
X151541295Y-92893847D02*
X151541295Y-93135752D01*
X151541295Y-93135752D02*
X151589676Y-93232514D01*
X151589676Y-93232514D02*
X151638057Y-93280895D01*
X151638057Y-93280895D02*
X151734819Y-93329276D01*
X151734819Y-93329276D02*
X151831581Y-93329276D01*
X151831581Y-93329276D02*
X151976724Y-93280895D01*
X151976724Y-93280895D02*
X152557295Y-92700323D01*
X152557295Y-92700323D02*
X152557295Y-93329276D01*
X151541295Y-93958228D02*
X151541295Y-94054990D01*
X151541295Y-94054990D02*
X151589676Y-94151752D01*
X151589676Y-94151752D02*
X151638057Y-94200133D01*
X151638057Y-94200133D02*
X151734819Y-94248514D01*
X151734819Y-94248514D02*
X151928343Y-94296895D01*
X151928343Y-94296895D02*
X152170248Y-94296895D01*
X152170248Y-94296895D02*
X152363772Y-94248514D01*
X152363772Y-94248514D02*
X152460534Y-94200133D01*
X152460534Y-94200133D02*
X152508915Y-94151752D01*
X152508915Y-94151752D02*
X152557295Y-94054990D01*
X152557295Y-94054990D02*
X152557295Y-93958228D01*
X152557295Y-93958228D02*
X152508915Y-93861466D01*
X152508915Y-93861466D02*
X152460534Y-93813085D01*
X152460534Y-93813085D02*
X152363772Y-93764704D01*
X152363772Y-93764704D02*
X152170248Y-93716323D01*
X152170248Y-93716323D02*
X151928343Y-93716323D01*
X151928343Y-93716323D02*
X151734819Y-93764704D01*
X151734819Y-93764704D02*
X151638057Y-93813085D01*
X151638057Y-93813085D02*
X151589676Y-93861466D01*
X151589676Y-93861466D02*
X151541295Y-93958228D01*
X162247942Y-94802534D02*
X162296323Y-94850915D01*
X162296323Y-94850915D02*
X162441466Y-94899295D01*
X162441466Y-94899295D02*
X162538228Y-94899295D01*
X162538228Y-94899295D02*
X162683371Y-94850915D01*
X162683371Y-94850915D02*
X162780133Y-94754153D01*
X162780133Y-94754153D02*
X162828514Y-94657391D01*
X162828514Y-94657391D02*
X162876895Y-94463867D01*
X162876895Y-94463867D02*
X162876895Y-94318724D01*
X162876895Y-94318724D02*
X162828514Y-94125200D01*
X162828514Y-94125200D02*
X162780133Y-94028438D01*
X162780133Y-94028438D02*
X162683371Y-93931676D01*
X162683371Y-93931676D02*
X162538228Y-93883295D01*
X162538228Y-93883295D02*
X162441466Y-93883295D01*
X162441466Y-93883295D02*
X162296323Y-93931676D01*
X162296323Y-93931676D02*
X162247942Y-93980057D01*
X161377085Y-93883295D02*
X161570609Y-93883295D01*
X161570609Y-93883295D02*
X161667371Y-93931676D01*
X161667371Y-93931676D02*
X161715752Y-93980057D01*
X161715752Y-93980057D02*
X161812514Y-94125200D01*
X161812514Y-94125200D02*
X161860895Y-94318724D01*
X161860895Y-94318724D02*
X161860895Y-94705772D01*
X161860895Y-94705772D02*
X161812514Y-94802534D01*
X161812514Y-94802534D02*
X161764133Y-94850915D01*
X161764133Y-94850915D02*
X161667371Y-94899295D01*
X161667371Y-94899295D02*
X161473847Y-94899295D01*
X161473847Y-94899295D02*
X161377085Y-94850915D01*
X161377085Y-94850915D02*
X161328704Y-94802534D01*
X161328704Y-94802534D02*
X161280323Y-94705772D01*
X161280323Y-94705772D02*
X161280323Y-94463867D01*
X161280323Y-94463867D02*
X161328704Y-94367105D01*
X161328704Y-94367105D02*
X161377085Y-94318724D01*
X161377085Y-94318724D02*
X161473847Y-94270343D01*
X161473847Y-94270343D02*
X161667371Y-94270343D01*
X161667371Y-94270343D02*
X161764133Y-94318724D01*
X161764133Y-94318724D02*
X161812514Y-94367105D01*
X161812514Y-94367105D02*
X161860895Y-94463867D01*
X160651371Y-93883295D02*
X160554609Y-93883295D01*
X160554609Y-93883295D02*
X160457847Y-93931676D01*
X160457847Y-93931676D02*
X160409466Y-93980057D01*
X160409466Y-93980057D02*
X160361085Y-94076819D01*
X160361085Y-94076819D02*
X160312704Y-94270343D01*
X160312704Y-94270343D02*
X160312704Y-94512248D01*
X160312704Y-94512248D02*
X160361085Y-94705772D01*
X160361085Y-94705772D02*
X160409466Y-94802534D01*
X160409466Y-94802534D02*
X160457847Y-94850915D01*
X160457847Y-94850915D02*
X160554609Y-94899295D01*
X160554609Y-94899295D02*
X160651371Y-94899295D01*
X160651371Y-94899295D02*
X160748133Y-94850915D01*
X160748133Y-94850915D02*
X160796514Y-94802534D01*
X160796514Y-94802534D02*
X160844895Y-94705772D01*
X160844895Y-94705772D02*
X160893276Y-94512248D01*
X160893276Y-94512248D02*
X160893276Y-94270343D01*
X160893276Y-94270343D02*
X160844895Y-94076819D01*
X160844895Y-94076819D02*
X160796514Y-93980057D01*
X160796514Y-93980057D02*
X160748133Y-93931676D01*
X160748133Y-93931676D02*
X160651371Y-93883295D01*
X146698142Y-92890334D02*
X146746523Y-92938715D01*
X146746523Y-92938715D02*
X146891666Y-92987095D01*
X146891666Y-92987095D02*
X146988428Y-92987095D01*
X146988428Y-92987095D02*
X147133571Y-92938715D01*
X147133571Y-92938715D02*
X147230333Y-92841953D01*
X147230333Y-92841953D02*
X147278714Y-92745191D01*
X147278714Y-92745191D02*
X147327095Y-92551667D01*
X147327095Y-92551667D02*
X147327095Y-92406524D01*
X147327095Y-92406524D02*
X147278714Y-92213000D01*
X147278714Y-92213000D02*
X147230333Y-92116238D01*
X147230333Y-92116238D02*
X147133571Y-92019476D01*
X147133571Y-92019476D02*
X146988428Y-91971095D01*
X146988428Y-91971095D02*
X146891666Y-91971095D01*
X146891666Y-91971095D02*
X146746523Y-92019476D01*
X146746523Y-92019476D02*
X146698142Y-92067857D01*
X145827285Y-92309762D02*
X145827285Y-92987095D01*
X146069190Y-91922715D02*
X146311095Y-92648429D01*
X146311095Y-92648429D02*
X145682142Y-92648429D01*
X145149952Y-92406524D02*
X145246714Y-92358143D01*
X145246714Y-92358143D02*
X145295095Y-92309762D01*
X145295095Y-92309762D02*
X145343476Y-92213000D01*
X145343476Y-92213000D02*
X145343476Y-92164619D01*
X145343476Y-92164619D02*
X145295095Y-92067857D01*
X145295095Y-92067857D02*
X145246714Y-92019476D01*
X145246714Y-92019476D02*
X145149952Y-91971095D01*
X145149952Y-91971095D02*
X144956428Y-91971095D01*
X144956428Y-91971095D02*
X144859666Y-92019476D01*
X144859666Y-92019476D02*
X144811285Y-92067857D01*
X144811285Y-92067857D02*
X144762904Y-92164619D01*
X144762904Y-92164619D02*
X144762904Y-92213000D01*
X144762904Y-92213000D02*
X144811285Y-92309762D01*
X144811285Y-92309762D02*
X144859666Y-92358143D01*
X144859666Y-92358143D02*
X144956428Y-92406524D01*
X144956428Y-92406524D02*
X145149952Y-92406524D01*
X145149952Y-92406524D02*
X145246714Y-92454905D01*
X145246714Y-92454905D02*
X145295095Y-92503286D01*
X145295095Y-92503286D02*
X145343476Y-92600048D01*
X145343476Y-92600048D02*
X145343476Y-92793572D01*
X145343476Y-92793572D02*
X145295095Y-92890334D01*
X145295095Y-92890334D02*
X145246714Y-92938715D01*
X145246714Y-92938715D02*
X145149952Y-92987095D01*
X145149952Y-92987095D02*
X144956428Y-92987095D01*
X144956428Y-92987095D02*
X144859666Y-92938715D01*
X144859666Y-92938715D02*
X144811285Y-92890334D01*
X144811285Y-92890334D02*
X144762904Y-92793572D01*
X144762904Y-92793572D02*
X144762904Y-92600048D01*
X144762904Y-92600048D02*
X144811285Y-92503286D01*
X144811285Y-92503286D02*
X144859666Y-92454905D01*
X144859666Y-92454905D02*
X144956428Y-92406524D01*
X143858342Y-103032134D02*
X143906723Y-103080515D01*
X143906723Y-103080515D02*
X144051866Y-103128895D01*
X144051866Y-103128895D02*
X144148628Y-103128895D01*
X144148628Y-103128895D02*
X144293771Y-103080515D01*
X144293771Y-103080515D02*
X144390533Y-102983753D01*
X144390533Y-102983753D02*
X144438914Y-102886991D01*
X144438914Y-102886991D02*
X144487295Y-102693467D01*
X144487295Y-102693467D02*
X144487295Y-102548324D01*
X144487295Y-102548324D02*
X144438914Y-102354800D01*
X144438914Y-102354800D02*
X144390533Y-102258038D01*
X144390533Y-102258038D02*
X144293771Y-102161276D01*
X144293771Y-102161276D02*
X144148628Y-102112895D01*
X144148628Y-102112895D02*
X144051866Y-102112895D01*
X144051866Y-102112895D02*
X143906723Y-102161276D01*
X143906723Y-102161276D02*
X143858342Y-102209657D01*
X142987485Y-102451562D02*
X142987485Y-103128895D01*
X143229390Y-102064515D02*
X143471295Y-102790229D01*
X143471295Y-102790229D02*
X142842342Y-102790229D01*
X141923104Y-103128895D02*
X142503676Y-103128895D01*
X142213390Y-103128895D02*
X142213390Y-102112895D01*
X142213390Y-102112895D02*
X142310152Y-102258038D01*
X142310152Y-102258038D02*
X142406914Y-102354800D01*
X142406914Y-102354800D02*
X142503676Y-102403181D01*
X162832142Y-83626534D02*
X162880523Y-83674915D01*
X162880523Y-83674915D02*
X163025666Y-83723295D01*
X163025666Y-83723295D02*
X163122428Y-83723295D01*
X163122428Y-83723295D02*
X163267571Y-83674915D01*
X163267571Y-83674915D02*
X163364333Y-83578153D01*
X163364333Y-83578153D02*
X163412714Y-83481391D01*
X163412714Y-83481391D02*
X163461095Y-83287867D01*
X163461095Y-83287867D02*
X163461095Y-83142724D01*
X163461095Y-83142724D02*
X163412714Y-82949200D01*
X163412714Y-82949200D02*
X163364333Y-82852438D01*
X163364333Y-82852438D02*
X163267571Y-82755676D01*
X163267571Y-82755676D02*
X163122428Y-82707295D01*
X163122428Y-82707295D02*
X163025666Y-82707295D01*
X163025666Y-82707295D02*
X162880523Y-82755676D01*
X162880523Y-82755676D02*
X162832142Y-82804057D01*
X162445095Y-82804057D02*
X162396714Y-82755676D01*
X162396714Y-82755676D02*
X162299952Y-82707295D01*
X162299952Y-82707295D02*
X162058047Y-82707295D01*
X162058047Y-82707295D02*
X161961285Y-82755676D01*
X161961285Y-82755676D02*
X161912904Y-82804057D01*
X161912904Y-82804057D02*
X161864523Y-82900819D01*
X161864523Y-82900819D02*
X161864523Y-82997581D01*
X161864523Y-82997581D02*
X161912904Y-83142724D01*
X161912904Y-83142724D02*
X162493476Y-83723295D01*
X162493476Y-83723295D02*
X161864523Y-83723295D01*
X160993666Y-82707295D02*
X161187190Y-82707295D01*
X161187190Y-82707295D02*
X161283952Y-82755676D01*
X161283952Y-82755676D02*
X161332333Y-82804057D01*
X161332333Y-82804057D02*
X161429095Y-82949200D01*
X161429095Y-82949200D02*
X161477476Y-83142724D01*
X161477476Y-83142724D02*
X161477476Y-83529772D01*
X161477476Y-83529772D02*
X161429095Y-83626534D01*
X161429095Y-83626534D02*
X161380714Y-83674915D01*
X161380714Y-83674915D02*
X161283952Y-83723295D01*
X161283952Y-83723295D02*
X161090428Y-83723295D01*
X161090428Y-83723295D02*
X160993666Y-83674915D01*
X160993666Y-83674915D02*
X160945285Y-83626534D01*
X160945285Y-83626534D02*
X160896904Y-83529772D01*
X160896904Y-83529772D02*
X160896904Y-83287867D01*
X160896904Y-83287867D02*
X160945285Y-83191105D01*
X160945285Y-83191105D02*
X160993666Y-83142724D01*
X160993666Y-83142724D02*
X161090428Y-83094343D01*
X161090428Y-83094343D02*
X161283952Y-83094343D01*
X161283952Y-83094343D02*
X161380714Y-83142724D01*
X161380714Y-83142724D02*
X161429095Y-83191105D01*
X161429095Y-83191105D02*
X161477476Y-83287867D01*
X154035334Y-90075657D02*
X154083715Y-90027276D01*
X154083715Y-90027276D02*
X154132095Y-89882133D01*
X154132095Y-89882133D02*
X154132095Y-89785371D01*
X154132095Y-89785371D02*
X154083715Y-89640228D01*
X154083715Y-89640228D02*
X153986953Y-89543466D01*
X153986953Y-89543466D02*
X153890191Y-89495085D01*
X153890191Y-89495085D02*
X153696667Y-89446704D01*
X153696667Y-89446704D02*
X153551524Y-89446704D01*
X153551524Y-89446704D02*
X153358000Y-89495085D01*
X153358000Y-89495085D02*
X153261238Y-89543466D01*
X153261238Y-89543466D02*
X153164476Y-89640228D01*
X153164476Y-89640228D02*
X153116095Y-89785371D01*
X153116095Y-89785371D02*
X153116095Y-89882133D01*
X153116095Y-89882133D02*
X153164476Y-90027276D01*
X153164476Y-90027276D02*
X153212857Y-90075657D01*
X154132095Y-91043276D02*
X154132095Y-90462704D01*
X154132095Y-90752990D02*
X153116095Y-90752990D01*
X153116095Y-90752990D02*
X153261238Y-90656228D01*
X153261238Y-90656228D02*
X153358000Y-90559466D01*
X153358000Y-90559466D02*
X153406381Y-90462704D01*
X153551524Y-91623847D02*
X153503143Y-91527085D01*
X153503143Y-91527085D02*
X153454762Y-91478704D01*
X153454762Y-91478704D02*
X153358000Y-91430323D01*
X153358000Y-91430323D02*
X153309619Y-91430323D01*
X153309619Y-91430323D02*
X153212857Y-91478704D01*
X153212857Y-91478704D02*
X153164476Y-91527085D01*
X153164476Y-91527085D02*
X153116095Y-91623847D01*
X153116095Y-91623847D02*
X153116095Y-91817371D01*
X153116095Y-91817371D02*
X153164476Y-91914133D01*
X153164476Y-91914133D02*
X153212857Y-91962514D01*
X153212857Y-91962514D02*
X153309619Y-92010895D01*
X153309619Y-92010895D02*
X153358000Y-92010895D01*
X153358000Y-92010895D02*
X153454762Y-91962514D01*
X153454762Y-91962514D02*
X153503143Y-91914133D01*
X153503143Y-91914133D02*
X153551524Y-91817371D01*
X153551524Y-91817371D02*
X153551524Y-91623847D01*
X153551524Y-91623847D02*
X153599905Y-91527085D01*
X153599905Y-91527085D02*
X153648286Y-91478704D01*
X153648286Y-91478704D02*
X153745048Y-91430323D01*
X153745048Y-91430323D02*
X153938572Y-91430323D01*
X153938572Y-91430323D02*
X154035334Y-91478704D01*
X154035334Y-91478704D02*
X154083715Y-91527085D01*
X154083715Y-91527085D02*
X154132095Y-91623847D01*
X154132095Y-91623847D02*
X154132095Y-91817371D01*
X154132095Y-91817371D02*
X154083715Y-91914133D01*
X154083715Y-91914133D02*
X154035334Y-91962514D01*
X154035334Y-91962514D02*
X153938572Y-92010895D01*
X153938572Y-92010895D02*
X153745048Y-92010895D01*
X153745048Y-92010895D02*
X153648286Y-91962514D01*
X153648286Y-91962514D02*
X153599905Y-91914133D01*
X153599905Y-91914133D02*
X153551524Y-91817371D01*
X157269542Y-93330334D02*
X157317923Y-93378715D01*
X157317923Y-93378715D02*
X157463066Y-93427095D01*
X157463066Y-93427095D02*
X157559828Y-93427095D01*
X157559828Y-93427095D02*
X157704971Y-93378715D01*
X157704971Y-93378715D02*
X157801733Y-93281953D01*
X157801733Y-93281953D02*
X157850114Y-93185191D01*
X157850114Y-93185191D02*
X157898495Y-92991667D01*
X157898495Y-92991667D02*
X157898495Y-92846524D01*
X157898495Y-92846524D02*
X157850114Y-92653000D01*
X157850114Y-92653000D02*
X157801733Y-92556238D01*
X157801733Y-92556238D02*
X157704971Y-92459476D01*
X157704971Y-92459476D02*
X157559828Y-92411095D01*
X157559828Y-92411095D02*
X157463066Y-92411095D01*
X157463066Y-92411095D02*
X157317923Y-92459476D01*
X157317923Y-92459476D02*
X157269542Y-92507857D01*
X156350304Y-92411095D02*
X156834114Y-92411095D01*
X156834114Y-92411095D02*
X156882495Y-92894905D01*
X156882495Y-92894905D02*
X156834114Y-92846524D01*
X156834114Y-92846524D02*
X156737352Y-92798143D01*
X156737352Y-92798143D02*
X156495447Y-92798143D01*
X156495447Y-92798143D02*
X156398685Y-92846524D01*
X156398685Y-92846524D02*
X156350304Y-92894905D01*
X156350304Y-92894905D02*
X156301923Y-92991667D01*
X156301923Y-92991667D02*
X156301923Y-93233572D01*
X156301923Y-93233572D02*
X156350304Y-93330334D01*
X156350304Y-93330334D02*
X156398685Y-93378715D01*
X156398685Y-93378715D02*
X156495447Y-93427095D01*
X156495447Y-93427095D02*
X156737352Y-93427095D01*
X156737352Y-93427095D02*
X156834114Y-93378715D01*
X156834114Y-93378715D02*
X156882495Y-93330334D01*
X155818114Y-93427095D02*
X155624590Y-93427095D01*
X155624590Y-93427095D02*
X155527828Y-93378715D01*
X155527828Y-93378715D02*
X155479447Y-93330334D01*
X155479447Y-93330334D02*
X155382685Y-93185191D01*
X155382685Y-93185191D02*
X155334304Y-92991667D01*
X155334304Y-92991667D02*
X155334304Y-92604619D01*
X155334304Y-92604619D02*
X155382685Y-92507857D01*
X155382685Y-92507857D02*
X155431066Y-92459476D01*
X155431066Y-92459476D02*
X155527828Y-92411095D01*
X155527828Y-92411095D02*
X155721352Y-92411095D01*
X155721352Y-92411095D02*
X155818114Y-92459476D01*
X155818114Y-92459476D02*
X155866495Y-92507857D01*
X155866495Y-92507857D02*
X155914876Y-92604619D01*
X155914876Y-92604619D02*
X155914876Y-92846524D01*
X155914876Y-92846524D02*
X155866495Y-92943286D01*
X155866495Y-92943286D02*
X155818114Y-92991667D01*
X155818114Y-92991667D02*
X155721352Y-93040048D01*
X155721352Y-93040048D02*
X155527828Y-93040048D01*
X155527828Y-93040048D02*
X155431066Y-92991667D01*
X155431066Y-92991667D02*
X155382685Y-92943286D01*
X155382685Y-92943286D02*
X155334304Y-92846524D01*
X179850761Y-114797857D02*
X179947523Y-114749476D01*
X179947523Y-114749476D02*
X180044285Y-114652715D01*
X180044285Y-114652715D02*
X180189428Y-114507572D01*
X180189428Y-114507572D02*
X180286190Y-114459191D01*
X180286190Y-114459191D02*
X180382952Y-114459191D01*
X180334571Y-114701095D02*
X180431333Y-114652715D01*
X180431333Y-114652715D02*
X180528095Y-114555953D01*
X180528095Y-114555953D02*
X180576476Y-114362429D01*
X180576476Y-114362429D02*
X180576476Y-114023762D01*
X180576476Y-114023762D02*
X180528095Y-113830238D01*
X180528095Y-113830238D02*
X180431333Y-113733476D01*
X180431333Y-113733476D02*
X180334571Y-113685095D01*
X180334571Y-113685095D02*
X180141047Y-113685095D01*
X180141047Y-113685095D02*
X180044285Y-113733476D01*
X180044285Y-113733476D02*
X179947523Y-113830238D01*
X179947523Y-113830238D02*
X179899142Y-114023762D01*
X179899142Y-114023762D02*
X179899142Y-114362429D01*
X179899142Y-114362429D02*
X179947523Y-114555953D01*
X179947523Y-114555953D02*
X180044285Y-114652715D01*
X180044285Y-114652715D02*
X180141047Y-114701095D01*
X180141047Y-114701095D02*
X180334571Y-114701095D01*
X178931523Y-114701095D02*
X179512095Y-114701095D01*
X179221809Y-114701095D02*
X179221809Y-113685095D01*
X179221809Y-113685095D02*
X179318571Y-113830238D01*
X179318571Y-113830238D02*
X179415333Y-113927000D01*
X179415333Y-113927000D02*
X179512095Y-113975381D01*
X144988095Y-98339123D02*
X146004095Y-99016457D01*
X144988095Y-99016457D02*
X146004095Y-98339123D01*
X146004095Y-99935695D02*
X146004095Y-99355123D01*
X146004095Y-99645409D02*
X144988095Y-99645409D01*
X144988095Y-99645409D02*
X145133238Y-99548647D01*
X145133238Y-99548647D02*
X145230000Y-99451885D01*
X145230000Y-99451885D02*
X145278381Y-99355123D01*
X152898142Y-99290334D02*
X152946523Y-99338715D01*
X152946523Y-99338715D02*
X153091666Y-99387095D01*
X153091666Y-99387095D02*
X153188428Y-99387095D01*
X153188428Y-99387095D02*
X153333571Y-99338715D01*
X153333571Y-99338715D02*
X153430333Y-99241953D01*
X153430333Y-99241953D02*
X153478714Y-99145191D01*
X153478714Y-99145191D02*
X153527095Y-98951667D01*
X153527095Y-98951667D02*
X153527095Y-98806524D01*
X153527095Y-98806524D02*
X153478714Y-98613000D01*
X153478714Y-98613000D02*
X153430333Y-98516238D01*
X153430333Y-98516238D02*
X153333571Y-98419476D01*
X153333571Y-98419476D02*
X153188428Y-98371095D01*
X153188428Y-98371095D02*
X153091666Y-98371095D01*
X153091666Y-98371095D02*
X152946523Y-98419476D01*
X152946523Y-98419476D02*
X152898142Y-98467857D01*
X152027285Y-98709762D02*
X152027285Y-99387095D01*
X152269190Y-98322715D02*
X152511095Y-99048429D01*
X152511095Y-99048429D02*
X151882142Y-99048429D01*
X151011285Y-98371095D02*
X151495095Y-98371095D01*
X151495095Y-98371095D02*
X151543476Y-98854905D01*
X151543476Y-98854905D02*
X151495095Y-98806524D01*
X151495095Y-98806524D02*
X151398333Y-98758143D01*
X151398333Y-98758143D02*
X151156428Y-98758143D01*
X151156428Y-98758143D02*
X151059666Y-98806524D01*
X151059666Y-98806524D02*
X151011285Y-98854905D01*
X151011285Y-98854905D02*
X150962904Y-98951667D01*
X150962904Y-98951667D02*
X150962904Y-99193572D01*
X150962904Y-99193572D02*
X151011285Y-99290334D01*
X151011285Y-99290334D02*
X151059666Y-99338715D01*
X151059666Y-99338715D02*
X151156428Y-99387095D01*
X151156428Y-99387095D02*
X151398333Y-99387095D01*
X151398333Y-99387095D02*
X151495095Y-99338715D01*
X151495095Y-99338715D02*
X151543476Y-99290334D01*
X172470842Y-82527895D02*
X172809509Y-82044086D01*
X173051414Y-82527895D02*
X173051414Y-81511895D01*
X173051414Y-81511895D02*
X172664366Y-81511895D01*
X172664366Y-81511895D02*
X172567604Y-81560276D01*
X172567604Y-81560276D02*
X172519223Y-81608657D01*
X172519223Y-81608657D02*
X172470842Y-81705419D01*
X172470842Y-81705419D02*
X172470842Y-81850562D01*
X172470842Y-81850562D02*
X172519223Y-81947324D01*
X172519223Y-81947324D02*
X172567604Y-81995705D01*
X172567604Y-81995705D02*
X172664366Y-82044086D01*
X172664366Y-82044086D02*
X173051414Y-82044086D01*
X172083795Y-81608657D02*
X172035414Y-81560276D01*
X172035414Y-81560276D02*
X171938652Y-81511895D01*
X171938652Y-81511895D02*
X171696747Y-81511895D01*
X171696747Y-81511895D02*
X171599985Y-81560276D01*
X171599985Y-81560276D02*
X171551604Y-81608657D01*
X171551604Y-81608657D02*
X171503223Y-81705419D01*
X171503223Y-81705419D02*
X171503223Y-81802181D01*
X171503223Y-81802181D02*
X171551604Y-81947324D01*
X171551604Y-81947324D02*
X172132176Y-82527895D01*
X172132176Y-82527895D02*
X171503223Y-82527895D01*
X170535604Y-82527895D02*
X171116176Y-82527895D01*
X170825890Y-82527895D02*
X170825890Y-81511895D01*
X170825890Y-81511895D02*
X170922652Y-81657038D01*
X170922652Y-81657038D02*
X171019414Y-81753800D01*
X171019414Y-81753800D02*
X171116176Y-81802181D01*
X182730642Y-113431095D02*
X183069309Y-112947286D01*
X183311214Y-113431095D02*
X183311214Y-112415095D01*
X183311214Y-112415095D02*
X182924166Y-112415095D01*
X182924166Y-112415095D02*
X182827404Y-112463476D01*
X182827404Y-112463476D02*
X182779023Y-112511857D01*
X182779023Y-112511857D02*
X182730642Y-112608619D01*
X182730642Y-112608619D02*
X182730642Y-112753762D01*
X182730642Y-112753762D02*
X182779023Y-112850524D01*
X182779023Y-112850524D02*
X182827404Y-112898905D01*
X182827404Y-112898905D02*
X182924166Y-112947286D01*
X182924166Y-112947286D02*
X183311214Y-112947286D01*
X181763023Y-113431095D02*
X182343595Y-113431095D01*
X182053309Y-113431095D02*
X182053309Y-112415095D01*
X182053309Y-112415095D02*
X182150071Y-112560238D01*
X182150071Y-112560238D02*
X182246833Y-112657000D01*
X182246833Y-112657000D02*
X182343595Y-112705381D01*
X181182452Y-112850524D02*
X181279214Y-112802143D01*
X181279214Y-112802143D02*
X181327595Y-112753762D01*
X181327595Y-112753762D02*
X181375976Y-112657000D01*
X181375976Y-112657000D02*
X181375976Y-112608619D01*
X181375976Y-112608619D02*
X181327595Y-112511857D01*
X181327595Y-112511857D02*
X181279214Y-112463476D01*
X181279214Y-112463476D02*
X181182452Y-112415095D01*
X181182452Y-112415095D02*
X180988928Y-112415095D01*
X180988928Y-112415095D02*
X180892166Y-112463476D01*
X180892166Y-112463476D02*
X180843785Y-112511857D01*
X180843785Y-112511857D02*
X180795404Y-112608619D01*
X180795404Y-112608619D02*
X180795404Y-112657000D01*
X180795404Y-112657000D02*
X180843785Y-112753762D01*
X180843785Y-112753762D02*
X180892166Y-112802143D01*
X180892166Y-112802143D02*
X180988928Y-112850524D01*
X180988928Y-112850524D02*
X181182452Y-112850524D01*
X181182452Y-112850524D02*
X181279214Y-112898905D01*
X181279214Y-112898905D02*
X181327595Y-112947286D01*
X181327595Y-112947286D02*
X181375976Y-113044048D01*
X181375976Y-113044048D02*
X181375976Y-113237572D01*
X181375976Y-113237572D02*
X181327595Y-113334334D01*
X181327595Y-113334334D02*
X181279214Y-113382715D01*
X181279214Y-113382715D02*
X181182452Y-113431095D01*
X181182452Y-113431095D02*
X180988928Y-113431095D01*
X180988928Y-113431095D02*
X180892166Y-113382715D01*
X180892166Y-113382715D02*
X180843785Y-113334334D01*
X180843785Y-113334334D02*
X180795404Y-113237572D01*
X180795404Y-113237572D02*
X180795404Y-113044048D01*
X180795404Y-113044048D02*
X180843785Y-112947286D01*
X180843785Y-112947286D02*
X180892166Y-112898905D01*
X180892166Y-112898905D02*
X180988928Y-112850524D01*
X152392742Y-87741334D02*
X152441123Y-87789715D01*
X152441123Y-87789715D02*
X152586266Y-87838095D01*
X152586266Y-87838095D02*
X152683028Y-87838095D01*
X152683028Y-87838095D02*
X152828171Y-87789715D01*
X152828171Y-87789715D02*
X152924933Y-87692953D01*
X152924933Y-87692953D02*
X152973314Y-87596191D01*
X152973314Y-87596191D02*
X153021695Y-87402667D01*
X153021695Y-87402667D02*
X153021695Y-87257524D01*
X153021695Y-87257524D02*
X152973314Y-87064000D01*
X152973314Y-87064000D02*
X152924933Y-86967238D01*
X152924933Y-86967238D02*
X152828171Y-86870476D01*
X152828171Y-86870476D02*
X152683028Y-86822095D01*
X152683028Y-86822095D02*
X152586266Y-86822095D01*
X152586266Y-86822095D02*
X152441123Y-86870476D01*
X152441123Y-86870476D02*
X152392742Y-86918857D01*
X151473504Y-86822095D02*
X151957314Y-86822095D01*
X151957314Y-86822095D02*
X152005695Y-87305905D01*
X152005695Y-87305905D02*
X151957314Y-87257524D01*
X151957314Y-87257524D02*
X151860552Y-87209143D01*
X151860552Y-87209143D02*
X151618647Y-87209143D01*
X151618647Y-87209143D02*
X151521885Y-87257524D01*
X151521885Y-87257524D02*
X151473504Y-87305905D01*
X151473504Y-87305905D02*
X151425123Y-87402667D01*
X151425123Y-87402667D02*
X151425123Y-87644572D01*
X151425123Y-87644572D02*
X151473504Y-87741334D01*
X151473504Y-87741334D02*
X151521885Y-87789715D01*
X151521885Y-87789715D02*
X151618647Y-87838095D01*
X151618647Y-87838095D02*
X151860552Y-87838095D01*
X151860552Y-87838095D02*
X151957314Y-87789715D01*
X151957314Y-87789715D02*
X152005695Y-87741334D01*
X150457504Y-87838095D02*
X151038076Y-87838095D01*
X150747790Y-87838095D02*
X150747790Y-86822095D01*
X150747790Y-86822095D02*
X150844552Y-86967238D01*
X150844552Y-86967238D02*
X150941314Y-87064000D01*
X150941314Y-87064000D02*
X151038076Y-87112381D01*
X165801266Y-79990105D02*
X166139933Y-79990105D01*
X166139933Y-80522295D02*
X166139933Y-79506295D01*
X166139933Y-79506295D02*
X165656123Y-79506295D01*
X164930409Y-79990105D02*
X164785266Y-80038486D01*
X164785266Y-80038486D02*
X164736885Y-80086867D01*
X164736885Y-80086867D02*
X164688504Y-80183629D01*
X164688504Y-80183629D02*
X164688504Y-80328772D01*
X164688504Y-80328772D02*
X164736885Y-80425534D01*
X164736885Y-80425534D02*
X164785266Y-80473915D01*
X164785266Y-80473915D02*
X164882028Y-80522295D01*
X164882028Y-80522295D02*
X165269076Y-80522295D01*
X165269076Y-80522295D02*
X165269076Y-79506295D01*
X165269076Y-79506295D02*
X164930409Y-79506295D01*
X164930409Y-79506295D02*
X164833647Y-79554676D01*
X164833647Y-79554676D02*
X164785266Y-79603057D01*
X164785266Y-79603057D02*
X164736885Y-79699819D01*
X164736885Y-79699819D02*
X164736885Y-79796581D01*
X164736885Y-79796581D02*
X164785266Y-79893343D01*
X164785266Y-79893343D02*
X164833647Y-79941724D01*
X164833647Y-79941724D02*
X164930409Y-79990105D01*
X164930409Y-79990105D02*
X165269076Y-79990105D01*
X164349838Y-79506295D02*
X163720885Y-79506295D01*
X163720885Y-79506295D02*
X164059552Y-79893343D01*
X164059552Y-79893343D02*
X163914409Y-79893343D01*
X163914409Y-79893343D02*
X163817647Y-79941724D01*
X163817647Y-79941724D02*
X163769266Y-79990105D01*
X163769266Y-79990105D02*
X163720885Y-80086867D01*
X163720885Y-80086867D02*
X163720885Y-80328772D01*
X163720885Y-80328772D02*
X163769266Y-80425534D01*
X163769266Y-80425534D02*
X163817647Y-80473915D01*
X163817647Y-80473915D02*
X163914409Y-80522295D01*
X163914409Y-80522295D02*
X164204695Y-80522295D01*
X164204695Y-80522295D02*
X164301457Y-80473915D01*
X164301457Y-80473915D02*
X164349838Y-80425534D01*
X175523734Y-95791867D02*
X175572115Y-95743486D01*
X175572115Y-95743486D02*
X175620495Y-95598343D01*
X175620495Y-95598343D02*
X175620495Y-95501581D01*
X175620495Y-95501581D02*
X175572115Y-95356438D01*
X175572115Y-95356438D02*
X175475353Y-95259676D01*
X175475353Y-95259676D02*
X175378591Y-95211295D01*
X175378591Y-95211295D02*
X175185067Y-95162914D01*
X175185067Y-95162914D02*
X175039924Y-95162914D01*
X175039924Y-95162914D02*
X174846400Y-95211295D01*
X174846400Y-95211295D02*
X174749638Y-95259676D01*
X174749638Y-95259676D02*
X174652876Y-95356438D01*
X174652876Y-95356438D02*
X174604495Y-95501581D01*
X174604495Y-95501581D02*
X174604495Y-95598343D01*
X174604495Y-95598343D02*
X174652876Y-95743486D01*
X174652876Y-95743486D02*
X174701257Y-95791867D01*
X175039924Y-96372438D02*
X174991543Y-96275676D01*
X174991543Y-96275676D02*
X174943162Y-96227295D01*
X174943162Y-96227295D02*
X174846400Y-96178914D01*
X174846400Y-96178914D02*
X174798019Y-96178914D01*
X174798019Y-96178914D02*
X174701257Y-96227295D01*
X174701257Y-96227295D02*
X174652876Y-96275676D01*
X174652876Y-96275676D02*
X174604495Y-96372438D01*
X174604495Y-96372438D02*
X174604495Y-96565962D01*
X174604495Y-96565962D02*
X174652876Y-96662724D01*
X174652876Y-96662724D02*
X174701257Y-96711105D01*
X174701257Y-96711105D02*
X174798019Y-96759486D01*
X174798019Y-96759486D02*
X174846400Y-96759486D01*
X174846400Y-96759486D02*
X174943162Y-96711105D01*
X174943162Y-96711105D02*
X174991543Y-96662724D01*
X174991543Y-96662724D02*
X175039924Y-96565962D01*
X175039924Y-96565962D02*
X175039924Y-96372438D01*
X175039924Y-96372438D02*
X175088305Y-96275676D01*
X175088305Y-96275676D02*
X175136686Y-96227295D01*
X175136686Y-96227295D02*
X175233448Y-96178914D01*
X175233448Y-96178914D02*
X175426972Y-96178914D01*
X175426972Y-96178914D02*
X175523734Y-96227295D01*
X175523734Y-96227295D02*
X175572115Y-96275676D01*
X175572115Y-96275676D02*
X175620495Y-96372438D01*
X175620495Y-96372438D02*
X175620495Y-96565962D01*
X175620495Y-96565962D02*
X175572115Y-96662724D01*
X175572115Y-96662724D02*
X175523734Y-96711105D01*
X175523734Y-96711105D02*
X175426972Y-96759486D01*
X175426972Y-96759486D02*
X175233448Y-96759486D01*
X175233448Y-96759486D02*
X175136686Y-96711105D01*
X175136686Y-96711105D02*
X175088305Y-96662724D01*
X175088305Y-96662724D02*
X175039924Y-96565962D01*
X173745734Y-95741067D02*
X173794115Y-95692686D01*
X173794115Y-95692686D02*
X173842495Y-95547543D01*
X173842495Y-95547543D02*
X173842495Y-95450781D01*
X173842495Y-95450781D02*
X173794115Y-95305638D01*
X173794115Y-95305638D02*
X173697353Y-95208876D01*
X173697353Y-95208876D02*
X173600591Y-95160495D01*
X173600591Y-95160495D02*
X173407067Y-95112114D01*
X173407067Y-95112114D02*
X173261924Y-95112114D01*
X173261924Y-95112114D02*
X173068400Y-95160495D01*
X173068400Y-95160495D02*
X172971638Y-95208876D01*
X172971638Y-95208876D02*
X172874876Y-95305638D01*
X172874876Y-95305638D02*
X172826495Y-95450781D01*
X172826495Y-95450781D02*
X172826495Y-95547543D01*
X172826495Y-95547543D02*
X172874876Y-95692686D01*
X172874876Y-95692686D02*
X172923257Y-95741067D01*
X172826495Y-96079733D02*
X172826495Y-96757067D01*
X172826495Y-96757067D02*
X173842495Y-96321638D01*
X176566095Y-86305604D02*
X177388572Y-86305604D01*
X177388572Y-86305604D02*
X177485334Y-86353985D01*
X177485334Y-86353985D02*
X177533715Y-86402366D01*
X177533715Y-86402366D02*
X177582095Y-86499128D01*
X177582095Y-86499128D02*
X177582095Y-86692652D01*
X177582095Y-86692652D02*
X177533715Y-86789414D01*
X177533715Y-86789414D02*
X177485334Y-86837795D01*
X177485334Y-86837795D02*
X177388572Y-86886176D01*
X177388572Y-86886176D02*
X176566095Y-86886176D01*
X177582095Y-87418366D02*
X177582095Y-87611890D01*
X177582095Y-87611890D02*
X177533715Y-87708652D01*
X177533715Y-87708652D02*
X177485334Y-87757033D01*
X177485334Y-87757033D02*
X177340191Y-87853795D01*
X177340191Y-87853795D02*
X177146667Y-87902176D01*
X177146667Y-87902176D02*
X176759619Y-87902176D01*
X176759619Y-87902176D02*
X176662857Y-87853795D01*
X176662857Y-87853795D02*
X176614476Y-87805414D01*
X176614476Y-87805414D02*
X176566095Y-87708652D01*
X176566095Y-87708652D02*
X176566095Y-87515128D01*
X176566095Y-87515128D02*
X176614476Y-87418366D01*
X176614476Y-87418366D02*
X176662857Y-87369985D01*
X176662857Y-87369985D02*
X176759619Y-87321604D01*
X176759619Y-87321604D02*
X177001524Y-87321604D01*
X177001524Y-87321604D02*
X177098286Y-87369985D01*
X177098286Y-87369985D02*
X177146667Y-87418366D01*
X177146667Y-87418366D02*
X177195048Y-87515128D01*
X177195048Y-87515128D02*
X177195048Y-87708652D01*
X177195048Y-87708652D02*
X177146667Y-87805414D01*
X177146667Y-87805414D02*
X177098286Y-87853795D01*
X177098286Y-87853795D02*
X177001524Y-87902176D01*
X153580895Y-113185333D02*
X154306610Y-113185333D01*
X154306610Y-113185333D02*
X154451753Y-113136952D01*
X154451753Y-113136952D02*
X154548515Y-113040190D01*
X154548515Y-113040190D02*
X154596895Y-112895047D01*
X154596895Y-112895047D02*
X154596895Y-112798285D01*
X153919562Y-114104571D02*
X154596895Y-114104571D01*
X153532515Y-113862666D02*
X154258229Y-113620761D01*
X154258229Y-113620761D02*
X154258229Y-114249714D01*
X150098142Y-98490334D02*
X150146523Y-98538715D01*
X150146523Y-98538715D02*
X150291666Y-98587095D01*
X150291666Y-98587095D02*
X150388428Y-98587095D01*
X150388428Y-98587095D02*
X150533571Y-98538715D01*
X150533571Y-98538715D02*
X150630333Y-98441953D01*
X150630333Y-98441953D02*
X150678714Y-98345191D01*
X150678714Y-98345191D02*
X150727095Y-98151667D01*
X150727095Y-98151667D02*
X150727095Y-98006524D01*
X150727095Y-98006524D02*
X150678714Y-97813000D01*
X150678714Y-97813000D02*
X150630333Y-97716238D01*
X150630333Y-97716238D02*
X150533571Y-97619476D01*
X150533571Y-97619476D02*
X150388428Y-97571095D01*
X150388428Y-97571095D02*
X150291666Y-97571095D01*
X150291666Y-97571095D02*
X150146523Y-97619476D01*
X150146523Y-97619476D02*
X150098142Y-97667857D01*
X149178904Y-97571095D02*
X149662714Y-97571095D01*
X149662714Y-97571095D02*
X149711095Y-98054905D01*
X149711095Y-98054905D02*
X149662714Y-98006524D01*
X149662714Y-98006524D02*
X149565952Y-97958143D01*
X149565952Y-97958143D02*
X149324047Y-97958143D01*
X149324047Y-97958143D02*
X149227285Y-98006524D01*
X149227285Y-98006524D02*
X149178904Y-98054905D01*
X149178904Y-98054905D02*
X149130523Y-98151667D01*
X149130523Y-98151667D02*
X149130523Y-98393572D01*
X149130523Y-98393572D02*
X149178904Y-98490334D01*
X149178904Y-98490334D02*
X149227285Y-98538715D01*
X149227285Y-98538715D02*
X149324047Y-98587095D01*
X149324047Y-98587095D02*
X149565952Y-98587095D01*
X149565952Y-98587095D02*
X149662714Y-98538715D01*
X149662714Y-98538715D02*
X149711095Y-98490334D01*
X148791857Y-97571095D02*
X148114523Y-97571095D01*
X148114523Y-97571095D02*
X148549952Y-98587095D01*
X162425742Y-89468534D02*
X162474123Y-89516915D01*
X162474123Y-89516915D02*
X162619266Y-89565295D01*
X162619266Y-89565295D02*
X162716028Y-89565295D01*
X162716028Y-89565295D02*
X162861171Y-89516915D01*
X162861171Y-89516915D02*
X162957933Y-89420153D01*
X162957933Y-89420153D02*
X163006314Y-89323391D01*
X163006314Y-89323391D02*
X163054695Y-89129867D01*
X163054695Y-89129867D02*
X163054695Y-88984724D01*
X163054695Y-88984724D02*
X163006314Y-88791200D01*
X163006314Y-88791200D02*
X162957933Y-88694438D01*
X162957933Y-88694438D02*
X162861171Y-88597676D01*
X162861171Y-88597676D02*
X162716028Y-88549295D01*
X162716028Y-88549295D02*
X162619266Y-88549295D01*
X162619266Y-88549295D02*
X162474123Y-88597676D01*
X162474123Y-88597676D02*
X162425742Y-88646057D01*
X161506504Y-88549295D02*
X161990314Y-88549295D01*
X161990314Y-88549295D02*
X162038695Y-89033105D01*
X162038695Y-89033105D02*
X161990314Y-88984724D01*
X161990314Y-88984724D02*
X161893552Y-88936343D01*
X161893552Y-88936343D02*
X161651647Y-88936343D01*
X161651647Y-88936343D02*
X161554885Y-88984724D01*
X161554885Y-88984724D02*
X161506504Y-89033105D01*
X161506504Y-89033105D02*
X161458123Y-89129867D01*
X161458123Y-89129867D02*
X161458123Y-89371772D01*
X161458123Y-89371772D02*
X161506504Y-89468534D01*
X161506504Y-89468534D02*
X161554885Y-89516915D01*
X161554885Y-89516915D02*
X161651647Y-89565295D01*
X161651647Y-89565295D02*
X161893552Y-89565295D01*
X161893552Y-89565295D02*
X161990314Y-89516915D01*
X161990314Y-89516915D02*
X162038695Y-89468534D01*
X161119457Y-88549295D02*
X160490504Y-88549295D01*
X160490504Y-88549295D02*
X160829171Y-88936343D01*
X160829171Y-88936343D02*
X160684028Y-88936343D01*
X160684028Y-88936343D02*
X160587266Y-88984724D01*
X160587266Y-88984724D02*
X160538885Y-89033105D01*
X160538885Y-89033105D02*
X160490504Y-89129867D01*
X160490504Y-89129867D02*
X160490504Y-89371772D01*
X160490504Y-89371772D02*
X160538885Y-89468534D01*
X160538885Y-89468534D02*
X160587266Y-89516915D01*
X160587266Y-89516915D02*
X160684028Y-89565295D01*
X160684028Y-89565295D02*
X160974314Y-89565295D01*
X160974314Y-89565295D02*
X161071076Y-89516915D01*
X161071076Y-89516915D02*
X161119457Y-89468534D01*
X146698142Y-91490334D02*
X146746523Y-91538715D01*
X146746523Y-91538715D02*
X146891666Y-91587095D01*
X146891666Y-91587095D02*
X146988428Y-91587095D01*
X146988428Y-91587095D02*
X147133571Y-91538715D01*
X147133571Y-91538715D02*
X147230333Y-91441953D01*
X147230333Y-91441953D02*
X147278714Y-91345191D01*
X147278714Y-91345191D02*
X147327095Y-91151667D01*
X147327095Y-91151667D02*
X147327095Y-91006524D01*
X147327095Y-91006524D02*
X147278714Y-90813000D01*
X147278714Y-90813000D02*
X147230333Y-90716238D01*
X147230333Y-90716238D02*
X147133571Y-90619476D01*
X147133571Y-90619476D02*
X146988428Y-90571095D01*
X146988428Y-90571095D02*
X146891666Y-90571095D01*
X146891666Y-90571095D02*
X146746523Y-90619476D01*
X146746523Y-90619476D02*
X146698142Y-90667857D01*
X145827285Y-90909762D02*
X145827285Y-91587095D01*
X146069190Y-90522715D02*
X146311095Y-91248429D01*
X146311095Y-91248429D02*
X145682142Y-91248429D01*
X145246714Y-91587095D02*
X145053190Y-91587095D01*
X145053190Y-91587095D02*
X144956428Y-91538715D01*
X144956428Y-91538715D02*
X144908047Y-91490334D01*
X144908047Y-91490334D02*
X144811285Y-91345191D01*
X144811285Y-91345191D02*
X144762904Y-91151667D01*
X144762904Y-91151667D02*
X144762904Y-90764619D01*
X144762904Y-90764619D02*
X144811285Y-90667857D01*
X144811285Y-90667857D02*
X144859666Y-90619476D01*
X144859666Y-90619476D02*
X144956428Y-90571095D01*
X144956428Y-90571095D02*
X145149952Y-90571095D01*
X145149952Y-90571095D02*
X145246714Y-90619476D01*
X145246714Y-90619476D02*
X145295095Y-90667857D01*
X145295095Y-90667857D02*
X145343476Y-90764619D01*
X145343476Y-90764619D02*
X145343476Y-91006524D01*
X145343476Y-91006524D02*
X145295095Y-91103286D01*
X145295095Y-91103286D02*
X145246714Y-91151667D01*
X145246714Y-91151667D02*
X145149952Y-91200048D01*
X145149952Y-91200048D02*
X144956428Y-91200048D01*
X144956428Y-91200048D02*
X144859666Y-91151667D01*
X144859666Y-91151667D02*
X144811285Y-91103286D01*
X144811285Y-91103286D02*
X144762904Y-91006524D01*
X146779342Y-102163695D02*
X147118009Y-101679886D01*
X147359914Y-102163695D02*
X147359914Y-101147695D01*
X147359914Y-101147695D02*
X146972866Y-101147695D01*
X146972866Y-101147695D02*
X146876104Y-101196076D01*
X146876104Y-101196076D02*
X146827723Y-101244457D01*
X146827723Y-101244457D02*
X146779342Y-101341219D01*
X146779342Y-101341219D02*
X146779342Y-101486362D01*
X146779342Y-101486362D02*
X146827723Y-101583124D01*
X146827723Y-101583124D02*
X146876104Y-101631505D01*
X146876104Y-101631505D02*
X146972866Y-101679886D01*
X146972866Y-101679886D02*
X147359914Y-101679886D01*
X146440676Y-101147695D02*
X145811723Y-101147695D01*
X145811723Y-101147695D02*
X146150390Y-101534743D01*
X146150390Y-101534743D02*
X146005247Y-101534743D01*
X146005247Y-101534743D02*
X145908485Y-101583124D01*
X145908485Y-101583124D02*
X145860104Y-101631505D01*
X145860104Y-101631505D02*
X145811723Y-101728267D01*
X145811723Y-101728267D02*
X145811723Y-101970172D01*
X145811723Y-101970172D02*
X145860104Y-102066934D01*
X145860104Y-102066934D02*
X145908485Y-102115315D01*
X145908485Y-102115315D02*
X146005247Y-102163695D01*
X146005247Y-102163695D02*
X146295533Y-102163695D01*
X146295533Y-102163695D02*
X146392295Y-102115315D01*
X146392295Y-102115315D02*
X146440676Y-102066934D01*
X145424676Y-101244457D02*
X145376295Y-101196076D01*
X145376295Y-101196076D02*
X145279533Y-101147695D01*
X145279533Y-101147695D02*
X145037628Y-101147695D01*
X145037628Y-101147695D02*
X144940866Y-101196076D01*
X144940866Y-101196076D02*
X144892485Y-101244457D01*
X144892485Y-101244457D02*
X144844104Y-101341219D01*
X144844104Y-101341219D02*
X144844104Y-101437981D01*
X144844104Y-101437981D02*
X144892485Y-101583124D01*
X144892485Y-101583124D02*
X145473057Y-102163695D01*
X145473057Y-102163695D02*
X144844104Y-102163695D01*
X160521534Y-83766157D02*
X160569915Y-83717776D01*
X160569915Y-83717776D02*
X160618295Y-83572633D01*
X160618295Y-83572633D02*
X160618295Y-83475871D01*
X160618295Y-83475871D02*
X160569915Y-83330728D01*
X160569915Y-83330728D02*
X160473153Y-83233966D01*
X160473153Y-83233966D02*
X160376391Y-83185585D01*
X160376391Y-83185585D02*
X160182867Y-83137204D01*
X160182867Y-83137204D02*
X160037724Y-83137204D01*
X160037724Y-83137204D02*
X159844200Y-83185585D01*
X159844200Y-83185585D02*
X159747438Y-83233966D01*
X159747438Y-83233966D02*
X159650676Y-83330728D01*
X159650676Y-83330728D02*
X159602295Y-83475871D01*
X159602295Y-83475871D02*
X159602295Y-83572633D01*
X159602295Y-83572633D02*
X159650676Y-83717776D01*
X159650676Y-83717776D02*
X159699057Y-83766157D01*
X160618295Y-84733776D02*
X160618295Y-84153204D01*
X160618295Y-84443490D02*
X159602295Y-84443490D01*
X159602295Y-84443490D02*
X159747438Y-84346728D01*
X159747438Y-84346728D02*
X159844200Y-84249966D01*
X159844200Y-84249966D02*
X159892581Y-84153204D01*
X160618295Y-85217585D02*
X160618295Y-85411109D01*
X160618295Y-85411109D02*
X160569915Y-85507871D01*
X160569915Y-85507871D02*
X160521534Y-85556252D01*
X160521534Y-85556252D02*
X160376391Y-85653014D01*
X160376391Y-85653014D02*
X160182867Y-85701395D01*
X160182867Y-85701395D02*
X159795819Y-85701395D01*
X159795819Y-85701395D02*
X159699057Y-85653014D01*
X159699057Y-85653014D02*
X159650676Y-85604633D01*
X159650676Y-85604633D02*
X159602295Y-85507871D01*
X159602295Y-85507871D02*
X159602295Y-85314347D01*
X159602295Y-85314347D02*
X159650676Y-85217585D01*
X159650676Y-85217585D02*
X159699057Y-85169204D01*
X159699057Y-85169204D02*
X159795819Y-85120823D01*
X159795819Y-85120823D02*
X160037724Y-85120823D01*
X160037724Y-85120823D02*
X160134486Y-85169204D01*
X160134486Y-85169204D02*
X160182867Y-85217585D01*
X160182867Y-85217585D02*
X160231248Y-85314347D01*
X160231248Y-85314347D02*
X160231248Y-85507871D01*
X160231248Y-85507871D02*
X160182867Y-85604633D01*
X160182867Y-85604633D02*
X160134486Y-85653014D01*
X160134486Y-85653014D02*
X160037724Y-85701395D01*
X171916832Y-101911134D02*
X171965213Y-101959515D01*
X171965213Y-101959515D02*
X172110356Y-102007895D01*
X172110356Y-102007895D02*
X172207118Y-102007895D01*
X172207118Y-102007895D02*
X172352261Y-101959515D01*
X172352261Y-101959515D02*
X172449023Y-101862753D01*
X172449023Y-101862753D02*
X172497404Y-101765991D01*
X172497404Y-101765991D02*
X172545785Y-101572467D01*
X172545785Y-101572467D02*
X172545785Y-101427324D01*
X172545785Y-101427324D02*
X172497404Y-101233800D01*
X172497404Y-101233800D02*
X172449023Y-101137038D01*
X172449023Y-101137038D02*
X172352261Y-101040276D01*
X172352261Y-101040276D02*
X172207118Y-100991895D01*
X172207118Y-100991895D02*
X172110356Y-100991895D01*
X172110356Y-100991895D02*
X171965213Y-101040276D01*
X171965213Y-101040276D02*
X171916832Y-101088657D01*
X171045975Y-100991895D02*
X171239499Y-100991895D01*
X171239499Y-100991895D02*
X171336261Y-101040276D01*
X171336261Y-101040276D02*
X171384642Y-101088657D01*
X171384642Y-101088657D02*
X171481404Y-101233800D01*
X171481404Y-101233800D02*
X171529785Y-101427324D01*
X171529785Y-101427324D02*
X171529785Y-101814372D01*
X171529785Y-101814372D02*
X171481404Y-101911134D01*
X171481404Y-101911134D02*
X171433023Y-101959515D01*
X171433023Y-101959515D02*
X171336261Y-102007895D01*
X171336261Y-102007895D02*
X171142737Y-102007895D01*
X171142737Y-102007895D02*
X171045975Y-101959515D01*
X171045975Y-101959515D02*
X170997594Y-101911134D01*
X170997594Y-101911134D02*
X170949213Y-101814372D01*
X170949213Y-101814372D02*
X170949213Y-101572467D01*
X170949213Y-101572467D02*
X170997594Y-101475705D01*
X170997594Y-101475705D02*
X171045975Y-101427324D01*
X171045975Y-101427324D02*
X171142737Y-101378943D01*
X171142737Y-101378943D02*
X171336261Y-101378943D01*
X171336261Y-101378943D02*
X171433023Y-101427324D01*
X171433023Y-101427324D02*
X171481404Y-101475705D01*
X171481404Y-101475705D02*
X171529785Y-101572467D01*
X157810334Y-98271857D02*
X157858715Y-98223476D01*
X157858715Y-98223476D02*
X157907095Y-98078333D01*
X157907095Y-98078333D02*
X157907095Y-97981571D01*
X157907095Y-97981571D02*
X157858715Y-97836428D01*
X157858715Y-97836428D02*
X157761953Y-97739666D01*
X157761953Y-97739666D02*
X157665191Y-97691285D01*
X157665191Y-97691285D02*
X157471667Y-97642904D01*
X157471667Y-97642904D02*
X157326524Y-97642904D01*
X157326524Y-97642904D02*
X157133000Y-97691285D01*
X157133000Y-97691285D02*
X157036238Y-97739666D01*
X157036238Y-97739666D02*
X156939476Y-97836428D01*
X156939476Y-97836428D02*
X156891095Y-97981571D01*
X156891095Y-97981571D02*
X156891095Y-98078333D01*
X156891095Y-98078333D02*
X156939476Y-98223476D01*
X156939476Y-98223476D02*
X156987857Y-98271857D01*
X156891095Y-99191095D02*
X156891095Y-98707285D01*
X156891095Y-98707285D02*
X157374905Y-98658904D01*
X157374905Y-98658904D02*
X157326524Y-98707285D01*
X157326524Y-98707285D02*
X157278143Y-98804047D01*
X157278143Y-98804047D02*
X157278143Y-99045952D01*
X157278143Y-99045952D02*
X157326524Y-99142714D01*
X157326524Y-99142714D02*
X157374905Y-99191095D01*
X157374905Y-99191095D02*
X157471667Y-99239476D01*
X157471667Y-99239476D02*
X157713572Y-99239476D01*
X157713572Y-99239476D02*
X157810334Y-99191095D01*
X157810334Y-99191095D02*
X157858715Y-99142714D01*
X157858715Y-99142714D02*
X157907095Y-99045952D01*
X157907095Y-99045952D02*
X157907095Y-98804047D01*
X157907095Y-98804047D02*
X157858715Y-98707285D01*
X157858715Y-98707285D02*
X157810334Y-98658904D01*
X157326524Y-99820047D02*
X157278143Y-99723285D01*
X157278143Y-99723285D02*
X157229762Y-99674904D01*
X157229762Y-99674904D02*
X157133000Y-99626523D01*
X157133000Y-99626523D02*
X157084619Y-99626523D01*
X157084619Y-99626523D02*
X156987857Y-99674904D01*
X156987857Y-99674904D02*
X156939476Y-99723285D01*
X156939476Y-99723285D02*
X156891095Y-99820047D01*
X156891095Y-99820047D02*
X156891095Y-100013571D01*
X156891095Y-100013571D02*
X156939476Y-100110333D01*
X156939476Y-100110333D02*
X156987857Y-100158714D01*
X156987857Y-100158714D02*
X157084619Y-100207095D01*
X157084619Y-100207095D02*
X157133000Y-100207095D01*
X157133000Y-100207095D02*
X157229762Y-100158714D01*
X157229762Y-100158714D02*
X157278143Y-100110333D01*
X157278143Y-100110333D02*
X157326524Y-100013571D01*
X157326524Y-100013571D02*
X157326524Y-99820047D01*
X157326524Y-99820047D02*
X157374905Y-99723285D01*
X157374905Y-99723285D02*
X157423286Y-99674904D01*
X157423286Y-99674904D02*
X157520048Y-99626523D01*
X157520048Y-99626523D02*
X157713572Y-99626523D01*
X157713572Y-99626523D02*
X157810334Y-99674904D01*
X157810334Y-99674904D02*
X157858715Y-99723285D01*
X157858715Y-99723285D02*
X157907095Y-99820047D01*
X157907095Y-99820047D02*
X157907095Y-100013571D01*
X157907095Y-100013571D02*
X157858715Y-100110333D01*
X157858715Y-100110333D02*
X157810334Y-100158714D01*
X157810334Y-100158714D02*
X157713572Y-100207095D01*
X157713572Y-100207095D02*
X157520048Y-100207095D01*
X157520048Y-100207095D02*
X157423286Y-100158714D01*
X157423286Y-100158714D02*
X157374905Y-100110333D01*
X157374905Y-100110333D02*
X157326524Y-100013571D01*
X148125542Y-90027334D02*
X148173923Y-90075715D01*
X148173923Y-90075715D02*
X148319066Y-90124095D01*
X148319066Y-90124095D02*
X148415828Y-90124095D01*
X148415828Y-90124095D02*
X148560971Y-90075715D01*
X148560971Y-90075715D02*
X148657733Y-89978953D01*
X148657733Y-89978953D02*
X148706114Y-89882191D01*
X148706114Y-89882191D02*
X148754495Y-89688667D01*
X148754495Y-89688667D02*
X148754495Y-89543524D01*
X148754495Y-89543524D02*
X148706114Y-89350000D01*
X148706114Y-89350000D02*
X148657733Y-89253238D01*
X148657733Y-89253238D02*
X148560971Y-89156476D01*
X148560971Y-89156476D02*
X148415828Y-89108095D01*
X148415828Y-89108095D02*
X148319066Y-89108095D01*
X148319066Y-89108095D02*
X148173923Y-89156476D01*
X148173923Y-89156476D02*
X148125542Y-89204857D01*
X147738495Y-89204857D02*
X147690114Y-89156476D01*
X147690114Y-89156476D02*
X147593352Y-89108095D01*
X147593352Y-89108095D02*
X147351447Y-89108095D01*
X147351447Y-89108095D02*
X147254685Y-89156476D01*
X147254685Y-89156476D02*
X147206304Y-89204857D01*
X147206304Y-89204857D02*
X147157923Y-89301619D01*
X147157923Y-89301619D02*
X147157923Y-89398381D01*
X147157923Y-89398381D02*
X147206304Y-89543524D01*
X147206304Y-89543524D02*
X147786876Y-90124095D01*
X147786876Y-90124095D02*
X147157923Y-90124095D01*
X146770876Y-89204857D02*
X146722495Y-89156476D01*
X146722495Y-89156476D02*
X146625733Y-89108095D01*
X146625733Y-89108095D02*
X146383828Y-89108095D01*
X146383828Y-89108095D02*
X146287066Y-89156476D01*
X146287066Y-89156476D02*
X146238685Y-89204857D01*
X146238685Y-89204857D02*
X146190304Y-89301619D01*
X146190304Y-89301619D02*
X146190304Y-89398381D01*
X146190304Y-89398381D02*
X146238685Y-89543524D01*
X146238685Y-89543524D02*
X146819257Y-90124095D01*
X146819257Y-90124095D02*
X146190304Y-90124095D01*
X162451142Y-92160934D02*
X162499523Y-92209315D01*
X162499523Y-92209315D02*
X162644666Y-92257695D01*
X162644666Y-92257695D02*
X162741428Y-92257695D01*
X162741428Y-92257695D02*
X162886571Y-92209315D01*
X162886571Y-92209315D02*
X162983333Y-92112553D01*
X162983333Y-92112553D02*
X163031714Y-92015791D01*
X163031714Y-92015791D02*
X163080095Y-91822267D01*
X163080095Y-91822267D02*
X163080095Y-91677124D01*
X163080095Y-91677124D02*
X163031714Y-91483600D01*
X163031714Y-91483600D02*
X162983333Y-91386838D01*
X162983333Y-91386838D02*
X162886571Y-91290076D01*
X162886571Y-91290076D02*
X162741428Y-91241695D01*
X162741428Y-91241695D02*
X162644666Y-91241695D01*
X162644666Y-91241695D02*
X162499523Y-91290076D01*
X162499523Y-91290076D02*
X162451142Y-91338457D01*
X161531904Y-91241695D02*
X162015714Y-91241695D01*
X162015714Y-91241695D02*
X162064095Y-91725505D01*
X162064095Y-91725505D02*
X162015714Y-91677124D01*
X162015714Y-91677124D02*
X161918952Y-91628743D01*
X161918952Y-91628743D02*
X161677047Y-91628743D01*
X161677047Y-91628743D02*
X161580285Y-91677124D01*
X161580285Y-91677124D02*
X161531904Y-91725505D01*
X161531904Y-91725505D02*
X161483523Y-91822267D01*
X161483523Y-91822267D02*
X161483523Y-92064172D01*
X161483523Y-92064172D02*
X161531904Y-92160934D01*
X161531904Y-92160934D02*
X161580285Y-92209315D01*
X161580285Y-92209315D02*
X161677047Y-92257695D01*
X161677047Y-92257695D02*
X161918952Y-92257695D01*
X161918952Y-92257695D02*
X162015714Y-92209315D01*
X162015714Y-92209315D02*
X162064095Y-92160934D01*
X160564285Y-91241695D02*
X161048095Y-91241695D01*
X161048095Y-91241695D02*
X161096476Y-91725505D01*
X161096476Y-91725505D02*
X161048095Y-91677124D01*
X161048095Y-91677124D02*
X160951333Y-91628743D01*
X160951333Y-91628743D02*
X160709428Y-91628743D01*
X160709428Y-91628743D02*
X160612666Y-91677124D01*
X160612666Y-91677124D02*
X160564285Y-91725505D01*
X160564285Y-91725505D02*
X160515904Y-91822267D01*
X160515904Y-91822267D02*
X160515904Y-92064172D01*
X160515904Y-92064172D02*
X160564285Y-92160934D01*
X160564285Y-92160934D02*
X160612666Y-92209315D01*
X160612666Y-92209315D02*
X160709428Y-92257695D01*
X160709428Y-92257695D02*
X160951333Y-92257695D01*
X160951333Y-92257695D02*
X161048095Y-92209315D01*
X161048095Y-92209315D02*
X161096476Y-92160934D01*
X155186742Y-87741334D02*
X155235123Y-87789715D01*
X155235123Y-87789715D02*
X155380266Y-87838095D01*
X155380266Y-87838095D02*
X155477028Y-87838095D01*
X155477028Y-87838095D02*
X155622171Y-87789715D01*
X155622171Y-87789715D02*
X155718933Y-87692953D01*
X155718933Y-87692953D02*
X155767314Y-87596191D01*
X155767314Y-87596191D02*
X155815695Y-87402667D01*
X155815695Y-87402667D02*
X155815695Y-87257524D01*
X155815695Y-87257524D02*
X155767314Y-87064000D01*
X155767314Y-87064000D02*
X155718933Y-86967238D01*
X155718933Y-86967238D02*
X155622171Y-86870476D01*
X155622171Y-86870476D02*
X155477028Y-86822095D01*
X155477028Y-86822095D02*
X155380266Y-86822095D01*
X155380266Y-86822095D02*
X155235123Y-86870476D01*
X155235123Y-86870476D02*
X155186742Y-86918857D01*
X154267504Y-86822095D02*
X154751314Y-86822095D01*
X154751314Y-86822095D02*
X154799695Y-87305905D01*
X154799695Y-87305905D02*
X154751314Y-87257524D01*
X154751314Y-87257524D02*
X154654552Y-87209143D01*
X154654552Y-87209143D02*
X154412647Y-87209143D01*
X154412647Y-87209143D02*
X154315885Y-87257524D01*
X154315885Y-87257524D02*
X154267504Y-87305905D01*
X154267504Y-87305905D02*
X154219123Y-87402667D01*
X154219123Y-87402667D02*
X154219123Y-87644572D01*
X154219123Y-87644572D02*
X154267504Y-87741334D01*
X154267504Y-87741334D02*
X154315885Y-87789715D01*
X154315885Y-87789715D02*
X154412647Y-87838095D01*
X154412647Y-87838095D02*
X154654552Y-87838095D01*
X154654552Y-87838095D02*
X154751314Y-87789715D01*
X154751314Y-87789715D02*
X154799695Y-87741334D01*
X153590171Y-86822095D02*
X153493409Y-86822095D01*
X153493409Y-86822095D02*
X153396647Y-86870476D01*
X153396647Y-86870476D02*
X153348266Y-86918857D01*
X153348266Y-86918857D02*
X153299885Y-87015619D01*
X153299885Y-87015619D02*
X153251504Y-87209143D01*
X153251504Y-87209143D02*
X153251504Y-87451048D01*
X153251504Y-87451048D02*
X153299885Y-87644572D01*
X153299885Y-87644572D02*
X153348266Y-87741334D01*
X153348266Y-87741334D02*
X153396647Y-87789715D01*
X153396647Y-87789715D02*
X153493409Y-87838095D01*
X153493409Y-87838095D02*
X153590171Y-87838095D01*
X153590171Y-87838095D02*
X153686933Y-87789715D01*
X153686933Y-87789715D02*
X153735314Y-87741334D01*
X153735314Y-87741334D02*
X153783695Y-87644572D01*
X153783695Y-87644572D02*
X153832076Y-87451048D01*
X153832076Y-87451048D02*
X153832076Y-87209143D01*
X153832076Y-87209143D02*
X153783695Y-87015619D01*
X153783695Y-87015619D02*
X153735314Y-86918857D01*
X153735314Y-86918857D02*
X153686933Y-86870476D01*
X153686933Y-86870476D02*
X153590171Y-86822095D01*
X155698142Y-99290334D02*
X155746523Y-99338715D01*
X155746523Y-99338715D02*
X155891666Y-99387095D01*
X155891666Y-99387095D02*
X155988428Y-99387095D01*
X155988428Y-99387095D02*
X156133571Y-99338715D01*
X156133571Y-99338715D02*
X156230333Y-99241953D01*
X156230333Y-99241953D02*
X156278714Y-99145191D01*
X156278714Y-99145191D02*
X156327095Y-98951667D01*
X156327095Y-98951667D02*
X156327095Y-98806524D01*
X156327095Y-98806524D02*
X156278714Y-98613000D01*
X156278714Y-98613000D02*
X156230333Y-98516238D01*
X156230333Y-98516238D02*
X156133571Y-98419476D01*
X156133571Y-98419476D02*
X155988428Y-98371095D01*
X155988428Y-98371095D02*
X155891666Y-98371095D01*
X155891666Y-98371095D02*
X155746523Y-98419476D01*
X155746523Y-98419476D02*
X155698142Y-98467857D01*
X154827285Y-98709762D02*
X154827285Y-99387095D01*
X155069190Y-98322715D02*
X155311095Y-99048429D01*
X155311095Y-99048429D02*
X154682142Y-99048429D01*
X153859666Y-98371095D02*
X154053190Y-98371095D01*
X154053190Y-98371095D02*
X154149952Y-98419476D01*
X154149952Y-98419476D02*
X154198333Y-98467857D01*
X154198333Y-98467857D02*
X154295095Y-98613000D01*
X154295095Y-98613000D02*
X154343476Y-98806524D01*
X154343476Y-98806524D02*
X154343476Y-99193572D01*
X154343476Y-99193572D02*
X154295095Y-99290334D01*
X154295095Y-99290334D02*
X154246714Y-99338715D01*
X154246714Y-99338715D02*
X154149952Y-99387095D01*
X154149952Y-99387095D02*
X153956428Y-99387095D01*
X153956428Y-99387095D02*
X153859666Y-99338715D01*
X153859666Y-99338715D02*
X153811285Y-99290334D01*
X153811285Y-99290334D02*
X153762904Y-99193572D01*
X153762904Y-99193572D02*
X153762904Y-98951667D01*
X153762904Y-98951667D02*
X153811285Y-98854905D01*
X153811285Y-98854905D02*
X153859666Y-98806524D01*
X153859666Y-98806524D02*
X153956428Y-98758143D01*
X153956428Y-98758143D02*
X154149952Y-98758143D01*
X154149952Y-98758143D02*
X154246714Y-98806524D01*
X154246714Y-98806524D02*
X154295095Y-98854905D01*
X154295095Y-98854905D02*
X154343476Y-98951667D01*
X161256132Y-96529734D02*
X161304513Y-96578115D01*
X161304513Y-96578115D02*
X161449656Y-96626495D01*
X161449656Y-96626495D02*
X161546418Y-96626495D01*
X161546418Y-96626495D02*
X161691561Y-96578115D01*
X161691561Y-96578115D02*
X161788323Y-96481353D01*
X161788323Y-96481353D02*
X161836704Y-96384591D01*
X161836704Y-96384591D02*
X161885085Y-96191067D01*
X161885085Y-96191067D02*
X161885085Y-96045924D01*
X161885085Y-96045924D02*
X161836704Y-95852400D01*
X161836704Y-95852400D02*
X161788323Y-95755638D01*
X161788323Y-95755638D02*
X161691561Y-95658876D01*
X161691561Y-95658876D02*
X161546418Y-95610495D01*
X161546418Y-95610495D02*
X161449656Y-95610495D01*
X161449656Y-95610495D02*
X161304513Y-95658876D01*
X161304513Y-95658876D02*
X161256132Y-95707257D01*
X160385275Y-95949162D02*
X160385275Y-96626495D01*
X160627180Y-95562115D02*
X160869085Y-96287829D01*
X160869085Y-96287829D02*
X160240132Y-96287829D01*
X146698142Y-94142134D02*
X146746523Y-94190515D01*
X146746523Y-94190515D02*
X146891666Y-94238895D01*
X146891666Y-94238895D02*
X146988428Y-94238895D01*
X146988428Y-94238895D02*
X147133571Y-94190515D01*
X147133571Y-94190515D02*
X147230333Y-94093753D01*
X147230333Y-94093753D02*
X147278714Y-93996991D01*
X147278714Y-93996991D02*
X147327095Y-93803467D01*
X147327095Y-93803467D02*
X147327095Y-93658324D01*
X147327095Y-93658324D02*
X147278714Y-93464800D01*
X147278714Y-93464800D02*
X147230333Y-93368038D01*
X147230333Y-93368038D02*
X147133571Y-93271276D01*
X147133571Y-93271276D02*
X146988428Y-93222895D01*
X146988428Y-93222895D02*
X146891666Y-93222895D01*
X146891666Y-93222895D02*
X146746523Y-93271276D01*
X146746523Y-93271276D02*
X146698142Y-93319657D01*
X145827285Y-93561562D02*
X145827285Y-94238895D01*
X146069190Y-93174515D02*
X146311095Y-93900229D01*
X146311095Y-93900229D02*
X145682142Y-93900229D01*
X145391857Y-93222895D02*
X144714523Y-93222895D01*
X144714523Y-93222895D02*
X145149952Y-94238895D01*
X143883742Y-104429134D02*
X143932123Y-104477515D01*
X143932123Y-104477515D02*
X144077266Y-104525895D01*
X144077266Y-104525895D02*
X144174028Y-104525895D01*
X144174028Y-104525895D02*
X144319171Y-104477515D01*
X144319171Y-104477515D02*
X144415933Y-104380753D01*
X144415933Y-104380753D02*
X144464314Y-104283991D01*
X144464314Y-104283991D02*
X144512695Y-104090467D01*
X144512695Y-104090467D02*
X144512695Y-103945324D01*
X144512695Y-103945324D02*
X144464314Y-103751800D01*
X144464314Y-103751800D02*
X144415933Y-103655038D01*
X144415933Y-103655038D02*
X144319171Y-103558276D01*
X144319171Y-103558276D02*
X144174028Y-103509895D01*
X144174028Y-103509895D02*
X144077266Y-103509895D01*
X144077266Y-103509895D02*
X143932123Y-103558276D01*
X143932123Y-103558276D02*
X143883742Y-103606657D01*
X143012885Y-103848562D02*
X143012885Y-104525895D01*
X143254790Y-103461515D02*
X143496695Y-104187229D01*
X143496695Y-104187229D02*
X142867742Y-104187229D01*
X142529076Y-103606657D02*
X142480695Y-103558276D01*
X142480695Y-103558276D02*
X142383933Y-103509895D01*
X142383933Y-103509895D02*
X142142028Y-103509895D01*
X142142028Y-103509895D02*
X142045266Y-103558276D01*
X142045266Y-103558276D02*
X141996885Y-103606657D01*
X141996885Y-103606657D02*
X141948504Y-103703419D01*
X141948504Y-103703419D02*
X141948504Y-103800181D01*
X141948504Y-103800181D02*
X141996885Y-103945324D01*
X141996885Y-103945324D02*
X142577457Y-104525895D01*
X142577457Y-104525895D02*
X141948504Y-104525895D01*
X162425742Y-90865534D02*
X162474123Y-90913915D01*
X162474123Y-90913915D02*
X162619266Y-90962295D01*
X162619266Y-90962295D02*
X162716028Y-90962295D01*
X162716028Y-90962295D02*
X162861171Y-90913915D01*
X162861171Y-90913915D02*
X162957933Y-90817153D01*
X162957933Y-90817153D02*
X163006314Y-90720391D01*
X163006314Y-90720391D02*
X163054695Y-90526867D01*
X163054695Y-90526867D02*
X163054695Y-90381724D01*
X163054695Y-90381724D02*
X163006314Y-90188200D01*
X163006314Y-90188200D02*
X162957933Y-90091438D01*
X162957933Y-90091438D02*
X162861171Y-89994676D01*
X162861171Y-89994676D02*
X162716028Y-89946295D01*
X162716028Y-89946295D02*
X162619266Y-89946295D01*
X162619266Y-89946295D02*
X162474123Y-89994676D01*
X162474123Y-89994676D02*
X162425742Y-90043057D01*
X161506504Y-89946295D02*
X161990314Y-89946295D01*
X161990314Y-89946295D02*
X162038695Y-90430105D01*
X162038695Y-90430105D02*
X161990314Y-90381724D01*
X161990314Y-90381724D02*
X161893552Y-90333343D01*
X161893552Y-90333343D02*
X161651647Y-90333343D01*
X161651647Y-90333343D02*
X161554885Y-90381724D01*
X161554885Y-90381724D02*
X161506504Y-90430105D01*
X161506504Y-90430105D02*
X161458123Y-90526867D01*
X161458123Y-90526867D02*
X161458123Y-90768772D01*
X161458123Y-90768772D02*
X161506504Y-90865534D01*
X161506504Y-90865534D02*
X161554885Y-90913915D01*
X161554885Y-90913915D02*
X161651647Y-90962295D01*
X161651647Y-90962295D02*
X161893552Y-90962295D01*
X161893552Y-90962295D02*
X161990314Y-90913915D01*
X161990314Y-90913915D02*
X162038695Y-90865534D01*
X160587266Y-90284962D02*
X160587266Y-90962295D01*
X160829171Y-89897915D02*
X161071076Y-90623629D01*
X161071076Y-90623629D02*
X160442123Y-90623629D01*
X158200934Y-87383257D02*
X158249315Y-87334876D01*
X158249315Y-87334876D02*
X158297695Y-87189733D01*
X158297695Y-87189733D02*
X158297695Y-87092971D01*
X158297695Y-87092971D02*
X158249315Y-86947828D01*
X158249315Y-86947828D02*
X158152553Y-86851066D01*
X158152553Y-86851066D02*
X158055791Y-86802685D01*
X158055791Y-86802685D02*
X157862267Y-86754304D01*
X157862267Y-86754304D02*
X157717124Y-86754304D01*
X157717124Y-86754304D02*
X157523600Y-86802685D01*
X157523600Y-86802685D02*
X157426838Y-86851066D01*
X157426838Y-86851066D02*
X157330076Y-86947828D01*
X157330076Y-86947828D02*
X157281695Y-87092971D01*
X157281695Y-87092971D02*
X157281695Y-87189733D01*
X157281695Y-87189733D02*
X157330076Y-87334876D01*
X157330076Y-87334876D02*
X157378457Y-87383257D01*
X158297695Y-88350876D02*
X158297695Y-87770304D01*
X158297695Y-88060590D02*
X157281695Y-88060590D01*
X157281695Y-88060590D02*
X157426838Y-87963828D01*
X157426838Y-87963828D02*
X157523600Y-87867066D01*
X157523600Y-87867066D02*
X157571981Y-87770304D01*
X157281695Y-88689542D02*
X157281695Y-89366876D01*
X157281695Y-89366876D02*
X158297695Y-88931447D01*
X170844132Y-94937934D02*
X170892513Y-94986315D01*
X170892513Y-94986315D02*
X171037656Y-95034695D01*
X171037656Y-95034695D02*
X171134418Y-95034695D01*
X171134418Y-95034695D02*
X171279561Y-94986315D01*
X171279561Y-94986315D02*
X171376323Y-94889553D01*
X171376323Y-94889553D02*
X171424704Y-94792791D01*
X171424704Y-94792791D02*
X171473085Y-94599267D01*
X171473085Y-94599267D02*
X171473085Y-94454124D01*
X171473085Y-94454124D02*
X171424704Y-94260600D01*
X171424704Y-94260600D02*
X171376323Y-94163838D01*
X171376323Y-94163838D02*
X171279561Y-94067076D01*
X171279561Y-94067076D02*
X171134418Y-94018695D01*
X171134418Y-94018695D02*
X171037656Y-94018695D01*
X171037656Y-94018695D02*
X170892513Y-94067076D01*
X170892513Y-94067076D02*
X170844132Y-94115457D01*
X169924894Y-94018695D02*
X170408704Y-94018695D01*
X170408704Y-94018695D02*
X170457085Y-94502505D01*
X170457085Y-94502505D02*
X170408704Y-94454124D01*
X170408704Y-94454124D02*
X170311942Y-94405743D01*
X170311942Y-94405743D02*
X170070037Y-94405743D01*
X170070037Y-94405743D02*
X169973275Y-94454124D01*
X169973275Y-94454124D02*
X169924894Y-94502505D01*
X169924894Y-94502505D02*
X169876513Y-94599267D01*
X169876513Y-94599267D02*
X169876513Y-94841172D01*
X169876513Y-94841172D02*
X169924894Y-94937934D01*
X169924894Y-94937934D02*
X169973275Y-94986315D01*
X169973275Y-94986315D02*
X170070037Y-95034695D01*
X170070037Y-95034695D02*
X170311942Y-95034695D01*
X170311942Y-95034695D02*
X170408704Y-94986315D01*
X170408704Y-94986315D02*
X170457085Y-94937934D01*
D11*
X170940079Y-118263400D02*
X171275321Y-118263400D01*
X170940079Y-119023400D02*
X171275321Y-119023400D01*
X159069035Y-92705600D02*
X158837365Y-92705600D01*
X159069035Y-93425600D02*
X158837365Y-93425600D01*
X148617865Y-94565000D02*
X148849535Y-94565000D01*
X148617865Y-95285000D02*
X148849535Y-95285000D01*
X142162600Y-90097642D02*
X142162600Y-89277158D01*
X143282600Y-90097642D02*
X143282600Y-89277158D01*
X151729165Y-96165000D02*
X151960835Y-96165000D01*
X151729165Y-96885000D02*
X151960835Y-96885000D01*
X174309358Y-118439000D02*
X175129842Y-118439000D01*
X174309358Y-119559000D02*
X175129842Y-119559000D01*
X161920600Y-81299865D02*
X161920600Y-81531535D01*
X162640600Y-81299865D02*
X162640600Y-81531535D01*
X183730000Y-115336000D02*
X183730000Y-118596000D01*
X183730000Y-118596000D02*
X185430000Y-118596000D01*
X185430000Y-115336000D02*
X185430000Y-118596000D01*
X149361665Y-86565000D02*
X149593335Y-86565000D01*
X149361665Y-87285000D02*
X149593335Y-87285000D01*
X165499200Y-84073600D02*
X168224200Y-84073600D01*
X165499200Y-84333600D02*
X165499200Y-84073600D01*
X165499200Y-89263600D02*
X165499200Y-89523600D01*
X165499200Y-89523600D02*
X168224200Y-89523600D01*
X170949200Y-84073600D02*
X168224200Y-84073600D01*
X170949200Y-84333600D02*
X170949200Y-84073600D01*
X170949200Y-89263600D02*
X170949200Y-89523600D01*
X170949200Y-89523600D02*
X168224200Y-89523600D01*
X171731700Y-84333600D02*
X171491700Y-84003600D01*
X171971700Y-84003600D01*
X171731700Y-84333600D01*
G36*
X171731700Y-84333600D02*
G01*
X171491700Y-84003600D01*
X171971700Y-84003600D01*
X171731700Y-84333600D01*
G37*
X150382235Y-88159000D02*
X150150565Y-88159000D01*
X150382235Y-88879000D02*
X150150565Y-88879000D01*
X154728335Y-96165000D02*
X154496665Y-96165000D01*
X154728335Y-96885000D02*
X154496665Y-96885000D01*
X146485000Y-96840835D02*
X146485000Y-96609165D01*
X147205000Y-96840835D02*
X147205000Y-96609165D01*
X152885000Y-93409165D02*
X152885000Y-93640835D01*
X153605000Y-93409165D02*
X153605000Y-93640835D01*
X159069035Y-93797800D02*
X158837365Y-93797800D01*
X159069035Y-94517800D02*
X158837365Y-94517800D01*
X148550365Y-92451600D02*
X148782035Y-92451600D01*
X148550365Y-93171600D02*
X148782035Y-93171600D01*
X142844065Y-95448800D02*
X143075735Y-95448800D01*
X142844065Y-96168800D02*
X143075735Y-96168800D01*
X165021335Y-82952000D02*
X164789665Y-82952000D01*
X165021335Y-83672000D02*
X164789665Y-83672000D01*
X154485000Y-90808335D02*
X154485000Y-90576665D01*
X155205000Y-90808335D02*
X155205000Y-90576665D01*
X155729165Y-93765000D02*
X155960835Y-93765000D01*
X155729165Y-94485000D02*
X155960835Y-94485000D01*
X179138000Y-115230000D02*
X180738000Y-115230000D01*
X179138000Y-116140000D02*
X179138000Y-115240000D01*
X179138000Y-118450000D02*
X179138000Y-117540000D01*
X179138000Y-118450000D02*
X181288000Y-118450000D01*
X181238000Y-115280000D02*
X180998000Y-114950000D01*
X181478000Y-114950000D01*
X181238000Y-115280000D01*
G36*
X181238000Y-115280000D02*
G01*
X180998000Y-114950000D01*
X181478000Y-114950000D01*
X181238000Y-115280000D01*
G37*
X144571000Y-97499000D02*
X141971000Y-97499000D01*
X144571000Y-100699000D02*
X144571000Y-97499000D01*
X143090000Y-71565000D02*
X156910000Y-71565000D01*
X143090000Y-71965000D02*
X143090000Y-71565000D01*
X143090000Y-80265000D02*
X143090000Y-74485000D01*
X143090000Y-85485000D02*
X143090000Y-82785000D01*
X144500000Y-70565000D02*
X144500000Y-71565000D01*
X144500000Y-70665000D02*
X145000000Y-70765000D01*
X145000000Y-70065000D02*
X155000000Y-70065000D01*
X145000000Y-70765000D02*
X146300000Y-71065000D01*
X146300000Y-71065000D02*
X147800000Y-71265000D01*
X147800000Y-71265000D02*
X149100000Y-71365000D01*
X149100000Y-71365000D02*
X150900000Y-71365000D01*
X150900000Y-71365000D02*
X152200000Y-71265000D01*
X152200000Y-71265000D02*
X153000000Y-71165000D01*
X153000000Y-71165000D02*
X154700000Y-70865000D01*
X154700000Y-70865000D02*
X155500000Y-70665000D01*
X155500000Y-70565000D02*
X155500000Y-71565000D01*
X156910000Y-71965000D02*
X156910000Y-71565000D01*
X156910000Y-80265000D02*
X156910000Y-74485000D01*
X156910000Y-85485000D02*
X143090000Y-85485000D01*
X156910000Y-85485000D02*
X156910000Y-82785000D01*
X144500000Y-70565000D02*
G75*
G02*
X145000000Y-70065000I500000J0D01*
G01*
X155000000Y-70065000D02*
G75*
G02*
X155500000Y-70565000I-1J-500001D01*
G01*
X152046865Y-97176000D02*
X152278535Y-97176000D01*
X152046865Y-97896000D02*
X152278535Y-97896000D01*
X171650079Y-82855800D02*
X171985321Y-82855800D01*
X171650079Y-83615800D02*
X171985321Y-83615800D01*
X181909879Y-113986000D02*
X182245121Y-113986000D01*
X181909879Y-114746000D02*
X182245121Y-114746000D01*
X152436565Y-88159000D02*
X152668235Y-88159000D01*
X152436565Y-88879000D02*
X152668235Y-88879000D01*
X164544358Y-81050200D02*
X165364842Y-81050200D01*
X164544358Y-82170200D02*
X165364842Y-82170200D01*
X174759800Y-98236035D02*
X174759800Y-98004365D01*
X175479800Y-98236035D02*
X175479800Y-98004365D01*
X172931000Y-98210635D02*
X172931000Y-97978965D01*
X173651000Y-98210635D02*
X173651000Y-97978965D01*
X178340000Y-83769700D02*
X178340000Y-84119700D01*
X178340000Y-90689700D02*
X178340000Y-90039700D01*
X178580000Y-83469700D02*
X178990000Y-83469700D01*
X178990000Y-90689700D02*
X178340000Y-90689700D01*
X184910000Y-83469700D02*
X185560000Y-83469700D01*
X184910000Y-90689700D02*
X185560000Y-90689700D01*
X185560000Y-83469700D02*
X185560000Y-84119700D01*
X185560000Y-90689700D02*
X185560000Y-90039700D01*
X178340000Y-83469700D02*
X178010000Y-83709700D01*
X178010000Y-83229700D01*
X178340000Y-83469700D01*
G36*
X178340000Y-83469700D02*
G01*
X178010000Y-83709700D01*
X178010000Y-83229700D01*
X178340000Y-83469700D01*
G37*
X155134800Y-115289000D02*
X155134800Y-111759000D01*
X155199800Y-111759000D02*
X155134800Y-111759000D01*
X155199800Y-111759000D02*
X155199800Y-110434000D01*
X155199800Y-115289000D02*
X155134800Y-115289000D01*
X174304800Y-111759000D02*
X174239800Y-111759000D01*
X174304800Y-115289000D02*
X174239800Y-115289000D01*
X174304800Y-115289000D02*
X174304800Y-111759000D01*
X149789335Y-96414000D02*
X149557665Y-96414000D01*
X149789335Y-97134000D02*
X149557665Y-97134000D01*
X159069035Y-89581400D02*
X158837365Y-89581400D01*
X159069035Y-90301400D02*
X158837365Y-90301400D01*
X148561665Y-91365000D02*
X148793335Y-91365000D01*
X148561665Y-92085000D02*
X148793335Y-92085000D01*
X143410321Y-101016800D02*
X143075079Y-101016800D01*
X143410321Y-101776800D02*
X143075079Y-101776800D01*
X158390000Y-84525665D02*
X158390000Y-84757335D01*
X159110000Y-84525665D02*
X159110000Y-84757335D01*
X171863335Y-100025800D02*
X171631665Y-100025800D01*
X171863335Y-100745800D02*
X171631665Y-100745800D01*
X156885000Y-96440835D02*
X156885000Y-96209165D01*
X157605000Y-96440835D02*
X157605000Y-96209165D01*
X147373265Y-88133600D02*
X147604935Y-88133600D01*
X147373265Y-88853600D02*
X147604935Y-88853600D01*
X159060335Y-91689600D02*
X158828665Y-91689600D01*
X159060335Y-92409600D02*
X158828665Y-92409600D01*
X154954235Y-88159000D02*
X154722565Y-88159000D01*
X154954235Y-88879000D02*
X154722565Y-88879000D01*
X155343935Y-97201400D02*
X155112265Y-97201400D01*
X155343935Y-97921400D02*
X155112265Y-97921400D01*
X159034935Y-95753600D02*
X158803265Y-95753600D01*
X159034935Y-96473600D02*
X158803265Y-96473600D01*
X148561665Y-93518400D02*
X148793335Y-93518400D01*
X148561665Y-94238400D02*
X148793335Y-94238400D01*
X142852065Y-96464800D02*
X143083735Y-96464800D01*
X142852065Y-97184800D02*
X143083735Y-97184800D01*
X159069035Y-90622800D02*
X158837365Y-90622800D01*
X159069035Y-91342800D02*
X158837365Y-91342800D01*
X156085000Y-87608335D02*
X156085000Y-87376665D01*
X156805000Y-87608335D02*
X156805000Y-87376665D01*
X170558965Y-95372600D02*
X170790635Y-95372600D01*
X170558965Y-96092600D02*
X170790635Y-96092600D01*
%LPC*%
D12*
X185770000Y-76843000D03*
X179990000Y-76843000D03*
D13*
X187200000Y-77373000D03*
D14*
X187200000Y-73193000D03*
D13*
X178560000Y-77373000D03*
D14*
X178560000Y-73193000D03*
D15*
X172466000Y-77861400D03*
D16*
X172466000Y-75321400D03*
X172466000Y-72781400D03*
D17*
X171705200Y-118643400D03*
X170510200Y-118643400D03*
D18*
X158385700Y-93065600D03*
X159520700Y-93065600D03*
D19*
X149301200Y-94925000D03*
X148166200Y-94925000D03*
D20*
X142722600Y-88537400D03*
X142722600Y-90837400D03*
D19*
X152412500Y-96525000D03*
X151277500Y-96525000D03*
D21*
X175869600Y-118999000D03*
X173569600Y-118999000D03*
D22*
X162280600Y-81983200D03*
X162280600Y-80848200D03*
D23*
X184580000Y-117836000D03*
X184580000Y-115336000D03*
D19*
X150045000Y-86925000D03*
X148910000Y-86925000D03*
D24*
X171824200Y-84893600D03*
X171824200Y-86163600D03*
X171824200Y-87433600D03*
X171824200Y-88703600D03*
X164624200Y-88703600D03*
X164624200Y-87433600D03*
X164624200Y-86163600D03*
X164624200Y-84893600D03*
D18*
X149698900Y-88519000D03*
X150833900Y-88519000D03*
X154045000Y-96525000D03*
X155180000Y-96525000D03*
D25*
X146845000Y-96157500D03*
X146845000Y-97292500D03*
D22*
X153245000Y-94092500D03*
X153245000Y-92957500D03*
D18*
X158385700Y-94157800D03*
X159520700Y-94157800D03*
D19*
X149233700Y-92811600D03*
X148098700Y-92811600D03*
X143527400Y-95808800D03*
X142392400Y-95808800D03*
D18*
X164338000Y-83312000D03*
X165473000Y-83312000D03*
D25*
X154845000Y-90125000D03*
X154845000Y-91260000D03*
D19*
X156412500Y-94125000D03*
X155277500Y-94125000D03*
D26*
X181913000Y-115890000D03*
X181913000Y-117790000D03*
X178513000Y-116840000D03*
D27*
X143921000Y-98249000D03*
X143921000Y-99949000D03*
X142621000Y-99949000D03*
X142621000Y-98249000D03*
D28*
X153200000Y-75825000D03*
X152100000Y-75825000D03*
X151000000Y-75825000D03*
X149900000Y-75825000D03*
X148800000Y-75825000D03*
X147700000Y-75825000D03*
X146600000Y-75825000D03*
X145500000Y-75825000D03*
D29*
X156875000Y-81525000D03*
X156875000Y-73225000D03*
X143125000Y-81525000D03*
X143125000Y-73225000D03*
D19*
X152730200Y-97536000D03*
X151595200Y-97536000D03*
D17*
X172415200Y-83235800D03*
X171220200Y-83235800D03*
X182675000Y-114366000D03*
X181480000Y-114366000D03*
D19*
X153119900Y-88519000D03*
X151984900Y-88519000D03*
D21*
X166104600Y-81610200D03*
X163804600Y-81610200D03*
D25*
X175119800Y-97552700D03*
X175119800Y-98687700D03*
X173291000Y-97527300D03*
X173291000Y-98662300D03*
D30*
X179350000Y-83642200D03*
X179750000Y-83642200D03*
X180150000Y-83642200D03*
X180550000Y-83642200D03*
X180950000Y-83642200D03*
X181350000Y-83642200D03*
X181750000Y-83642200D03*
X182150000Y-83642200D03*
X182550000Y-83642200D03*
X182950000Y-83642200D03*
X183350000Y-83642200D03*
X183750000Y-83642200D03*
X184150000Y-83642200D03*
X184550000Y-83642200D03*
D31*
X185387500Y-84479700D03*
X185387500Y-84879700D03*
X185387500Y-85279700D03*
X185387500Y-85679700D03*
X185387500Y-86079700D03*
X185387500Y-86479700D03*
X185387500Y-86879700D03*
X185387500Y-87279700D03*
X185387500Y-87679700D03*
X185387500Y-88079700D03*
X185387500Y-88479700D03*
X185387500Y-88879700D03*
X185387500Y-89279700D03*
X185387500Y-89679700D03*
D30*
X184550000Y-90517200D03*
X184150000Y-90517200D03*
X183750000Y-90517200D03*
X183350000Y-90517200D03*
X182950000Y-90517200D03*
X182550000Y-90517200D03*
X182150000Y-90517200D03*
X181750000Y-90517200D03*
X181350000Y-90517200D03*
X180950000Y-90517200D03*
X180550000Y-90517200D03*
X180150000Y-90517200D03*
X179750000Y-90517200D03*
X179350000Y-90517200D03*
D31*
X178512500Y-89679700D03*
X178512500Y-89279700D03*
X178512500Y-88879700D03*
X178512500Y-88479700D03*
X178512500Y-88079700D03*
X178512500Y-87679700D03*
X178512500Y-87279700D03*
X178512500Y-86879700D03*
X178512500Y-86479700D03*
X178512500Y-86079700D03*
X178512500Y-85679700D03*
X178512500Y-85279700D03*
X178512500Y-84879700D03*
X178512500Y-84479700D03*
D32*
X181950000Y-87079700D03*
D33*
X155829800Y-111574000D03*
X155829800Y-115474000D03*
X157099800Y-111574000D03*
X157099800Y-115474000D03*
X158369800Y-111574000D03*
X158369800Y-115474000D03*
X159639800Y-111574000D03*
X159639800Y-115474000D03*
X160909800Y-111574000D03*
X160909800Y-115474000D03*
X162179800Y-111574000D03*
X162179800Y-115474000D03*
X163449800Y-111574000D03*
X163449800Y-115474000D03*
X164719800Y-111574000D03*
X164719800Y-115474000D03*
X165989800Y-111574000D03*
X165989800Y-115474000D03*
X167259800Y-111574000D03*
X167259800Y-115474000D03*
X168529800Y-111574000D03*
X168529800Y-115474000D03*
X169799800Y-111574000D03*
X169799800Y-115474000D03*
X171069800Y-111574000D03*
X171069800Y-115474000D03*
X172339800Y-111574000D03*
X172339800Y-115474000D03*
X173609800Y-111574000D03*
X173609800Y-115474000D03*
D18*
X149106000Y-96774000D03*
X150241000Y-96774000D03*
X158385700Y-89941400D03*
X159520700Y-89941400D03*
D19*
X149245000Y-91725000D03*
X148110000Y-91725000D03*
D34*
X142645200Y-101396800D03*
X143840200Y-101396800D03*
D22*
X158750000Y-85209000D03*
X158750000Y-84074000D03*
D18*
X171180000Y-100385800D03*
X172315000Y-100385800D03*
D25*
X157245000Y-95757500D03*
X157245000Y-96892500D03*
D19*
X148056600Y-88493600D03*
X146921600Y-88493600D03*
D18*
X158377000Y-92049600D03*
X159512000Y-92049600D03*
X154270900Y-88519000D03*
X155405900Y-88519000D03*
X154660600Y-97561400D03*
X155795600Y-97561400D03*
X158351600Y-96113600D03*
X159486600Y-96113600D03*
D19*
X149245000Y-93878400D03*
X148110000Y-93878400D03*
X143535400Y-96824800D03*
X142400400Y-96824800D03*
D18*
X158385700Y-90982800D03*
X159520700Y-90982800D03*
D25*
X156445000Y-86925000D03*
X156445000Y-88060000D03*
D19*
X171242300Y-95732600D03*
X170107300Y-95732600D03*
%LPD*%
M02*
