%TF.GenerationSoftware,KiCad,Pcbnew,8.0.4*%
%TF.CreationDate,2024-08-25T14:13:04+02:00*%
%TF.ProjectId,fpga_extension,66706761-5f65-4787-9465-6e73696f6e2e,rev?*%
%TF.SameCoordinates,Original*%
%TF.FileFunction,Copper,L5,Inr*%
%TF.FilePolarity,Positive*%
%FSLAX46Y46*%
G04 Gerber Fmt 4.6, Leading zero omitted, Abs format (unit mm)*
G04 Created by KiCad (PCBNEW 8.0.4) date 2024-08-25 14:13:04*
%MOMM*%
%LPD*%
G01*
G04 APERTURE LIST*
%TA.AperFunction,ComponentPad*%
%ADD10O,1.000000X2.100000*%
%TD*%
%TA.AperFunction,ComponentPad*%
%ADD11O,1.000000X1.600000*%
%TD*%
%TA.AperFunction,ComponentPad*%
%ADD12R,1.700000X1.700000*%
%TD*%
%TA.AperFunction,ComponentPad*%
%ADD13O,1.700000X1.700000*%
%TD*%
%TA.AperFunction,ViaPad*%
%ADD14C,0.406400*%
%TD*%
%TA.AperFunction,ViaPad*%
%ADD15C,0.711200*%
%TD*%
%TA.AperFunction,ViaPad*%
%ADD16C,0.600000*%
%TD*%
G04 APERTURE END LIST*
D10*
X187200000Y-77373000D03*
D11*
X187200000Y-73193000D03*
D10*
X178560000Y-77373000D03*
D11*
X178560000Y-73193000D03*
D12*
X172466000Y-77861400D03*
D13*
X172466000Y-75321400D03*
X172466000Y-72781400D03*
D14*
X182311000Y-109639800D03*
D15*
X182583600Y-106134600D03*
D14*
X184950700Y-110947200D03*
D15*
X159867600Y-82118200D03*
X142722600Y-88537400D03*
X166104600Y-81610200D03*
D14*
X171180000Y-96570800D03*
X157245000Y-94125000D03*
D15*
X149614000Y-112420400D03*
D14*
X157245000Y-93325000D03*
X171180000Y-99570800D03*
X174180000Y-97570800D03*
X156445000Y-94125000D03*
D15*
X148767800Y-113944400D03*
X157556200Y-100558600D03*
D14*
X150045000Y-95725000D03*
D15*
X144076800Y-112420400D03*
D14*
X150045000Y-89325000D03*
X157245000Y-95725000D03*
D15*
X143433800Y-113995200D03*
D14*
X157245000Y-89325000D03*
X186385200Y-85598000D03*
X177224500Y-89027000D03*
X184311100Y-88188800D03*
X177224500Y-87503000D03*
X154845000Y-90125000D03*
X151645000Y-90125000D03*
X153245000Y-94092500D03*
D15*
X161086800Y-83058000D03*
D14*
X150045000Y-87725000D03*
X150045000Y-86925000D03*
X157245000Y-87725000D03*
X157245000Y-86925000D03*
X175768000Y-72796400D03*
X185521600Y-81381600D03*
X174447200Y-77876400D03*
X187350400Y-89204800D03*
X157861000Y-107061000D03*
X165989800Y-111574000D03*
X181483000Y-97282000D03*
X154965400Y-101015800D03*
X177292000Y-106172000D03*
X168529800Y-115474000D03*
X148590000Y-104140000D03*
X177165000Y-104648000D03*
X167259800Y-111574000D03*
X157734000Y-102108000D03*
X180022500Y-93408500D03*
X161544000Y-107950000D03*
X146862800Y-103886000D03*
X150876000Y-103378000D03*
X157708600Y-108940600D03*
X169722800Y-109651800D03*
X153035000Y-102616000D03*
X163449800Y-111574000D03*
X177292000Y-95631000D03*
X166624000Y-107950000D03*
X180086000Y-94869000D03*
X162814000Y-109220000D03*
X180086000Y-96520000D03*
X164084000Y-107950000D03*
X160274000Y-109220000D03*
X177292000Y-93091000D03*
X165354000Y-109220000D03*
X178562000Y-98171000D03*
X177292000Y-94361000D03*
X162179800Y-111574000D03*
X154051000Y-104902000D03*
D16*
X171069800Y-115474000D03*
D14*
X187096400Y-91643200D03*
X177292000Y-97409000D03*
X164719800Y-111574000D03*
X154051000Y-101854000D03*
X148844000Y-102870000D03*
X154470100Y-112560100D03*
X184277000Y-84709000D03*
X158045000Y-87725000D03*
X158045000Y-88525000D03*
X181737000Y-84709000D03*
X158845000Y-86125000D03*
X166624000Y-79502000D03*
X164159000Y-79502000D03*
X158045000Y-86925000D03*
X158845000Y-88525000D03*
X174498000Y-82931000D03*
X159645000Y-84525000D03*
X168021000Y-80518000D03*
X163169600Y-86156800D03*
X162509200Y-87579200D03*
X160121600Y-79095600D03*
X158845000Y-87725000D03*
X177927000Y-80645000D03*
X159645000Y-86125000D03*
X169291000Y-82550000D03*
X158845000Y-86925000D03*
X175133000Y-80264000D03*
X156972000Y-79857600D03*
X159645000Y-85325000D03*
X168021000Y-83058000D03*
X161036000Y-78740000D03*
X186436000Y-86766400D03*
X186436000Y-84429600D03*
X173024800Y-91541600D03*
X186740800Y-82854800D03*
X171145200Y-91287600D03*
X175996600Y-86791800D03*
X172847000Y-86791800D03*
X174879000Y-87719500D03*
X175133000Y-88773000D03*
X154845000Y-89325000D03*
X178435000Y-90551000D03*
D15*
X149900000Y-75825000D03*
X167436800Y-84912200D03*
D14*
X150045000Y-90925000D03*
D15*
X176149000Y-111709200D03*
X166507500Y-90425000D03*
D14*
X171220200Y-83235800D03*
X154045000Y-89325000D03*
X184260300Y-87122000D03*
X179772500Y-86741000D03*
X179586000Y-84709000D03*
D15*
X165322500Y-90425000D03*
D14*
X154045000Y-95725000D03*
X179578000Y-89281000D03*
X157245000Y-90925000D03*
X150045000Y-94125000D03*
X157245000Y-91725000D03*
X182939500Y-89281000D03*
X150045000Y-91725000D03*
X177292000Y-90678000D03*
X154845000Y-95725000D03*
X179772500Y-88138000D03*
D15*
X166200000Y-88900000D03*
D14*
X183134000Y-84903500D03*
X150045000Y-93325000D03*
X156445000Y-91725000D03*
X150845000Y-91725000D03*
X150845000Y-94125000D03*
X152445000Y-95725000D03*
X153245000Y-95725000D03*
X156445000Y-98925000D03*
X152445000Y-86125000D03*
X180797200Y-87503000D03*
D15*
X147700000Y-75825000D03*
D14*
X145084800Y-91795600D03*
X155645000Y-86925000D03*
X153245000Y-92525000D03*
X150045000Y-92525000D03*
X152445000Y-90925000D03*
X156445000Y-94925000D03*
X156445000Y-90125000D03*
X149245000Y-86125000D03*
X180797200Y-88188800D03*
X154845000Y-90925000D03*
X150845000Y-86125000D03*
X180713000Y-89281000D03*
D15*
X162280600Y-80848200D03*
D14*
X184404000Y-85699600D03*
D15*
X141909800Y-81508600D03*
D14*
X151645000Y-94925000D03*
D15*
X168150000Y-89325000D03*
D14*
X183388000Y-80010000D03*
X148445000Y-94925000D03*
X143921000Y-99949000D03*
X157245000Y-90125000D03*
X149245000Y-85325000D03*
X160445000Y-90925000D03*
X181483000Y-81623500D03*
X150845000Y-93325000D03*
X154045000Y-86925000D03*
X151645000Y-86925000D03*
X154845000Y-86925000D03*
X150845000Y-92525000D03*
X158433100Y-74574400D03*
X176157000Y-90678000D03*
X153245000Y-91725000D03*
X152445000Y-85325000D03*
X154845000Y-92525000D03*
X151645000Y-95725000D03*
D15*
X146227800Y-117805200D03*
D14*
X182321200Y-88188800D03*
X152445000Y-91725000D03*
D15*
X175895000Y-74362500D03*
D14*
X157245000Y-86125000D03*
X183159400Y-86029800D03*
X154045000Y-93325000D03*
X150045000Y-85325000D03*
X158845000Y-94925000D03*
X146845000Y-88525000D03*
D15*
X173609000Y-113538000D03*
X150622000Y-115062000D03*
X151460200Y-117830600D03*
X180594000Y-110947200D03*
D14*
X184861200Y-108940600D03*
X180797200Y-86766400D03*
X174180000Y-98570800D03*
X155645000Y-89325000D03*
X156445000Y-93325000D03*
X177165000Y-84201000D03*
X154845000Y-86125000D03*
X142392400Y-95808800D03*
D15*
X155854400Y-117398800D03*
D14*
X156445000Y-86125000D03*
X181804500Y-89281000D03*
X150845000Y-95725000D03*
X142400400Y-96824800D03*
X156445000Y-86925000D03*
D15*
X158343600Y-73228200D03*
D14*
X150845000Y-89325000D03*
X154045000Y-92525000D03*
D15*
X180389000Y-114366000D03*
D14*
X186130000Y-78288000D03*
X145186400Y-93014800D03*
X156445000Y-95725000D03*
X153245000Y-89325000D03*
X158433100Y-75744400D03*
X181559200Y-88188800D03*
X150845000Y-90925000D03*
X148273100Y-108000800D03*
X172180000Y-99570800D03*
D15*
X180543200Y-106908600D03*
D14*
X146045000Y-86125000D03*
X156445000Y-89325000D03*
X179630000Y-78288000D03*
X150845000Y-86925000D03*
X153245000Y-93325000D03*
X148475000Y-74450000D03*
X182321200Y-86055200D03*
X186488000Y-80391000D03*
X160445000Y-93325000D03*
X146845000Y-98125000D03*
X152445000Y-86925000D03*
X156445000Y-90925000D03*
X176089500Y-89027000D03*
X146845000Y-85325000D03*
D15*
X141859000Y-73228200D03*
D14*
X152445000Y-89325000D03*
X157245000Y-94925000D03*
D15*
X172339000Y-109220000D03*
X179451000Y-109651800D03*
D14*
X158433100Y-76895866D03*
X151645000Y-86125000D03*
D15*
X155840000Y-109470000D03*
D14*
X180721000Y-84709000D03*
X154045000Y-94925000D03*
D15*
X182778400Y-112877600D03*
D16*
X184810400Y-98094800D03*
D14*
X181559200Y-86055200D03*
X154845000Y-93325000D03*
X154045000Y-91725000D03*
X148273100Y-109118400D03*
X150045000Y-94925000D03*
X146845000Y-86125000D03*
D15*
X173355000Y-85090000D03*
D16*
X185166000Y-93804000D03*
D14*
X156445000Y-92525000D03*
X181559200Y-86766400D03*
X183159400Y-88163400D03*
X153245000Y-86925000D03*
X153245000Y-94925000D03*
X157245000Y-92525000D03*
X150845000Y-94925000D03*
D15*
X158242000Y-81483200D03*
D14*
X176089500Y-87503000D03*
X156445000Y-85325000D03*
X181559200Y-87503000D03*
X180797200Y-86055200D03*
X170180000Y-96570800D03*
X154845000Y-94925000D03*
X184861200Y-110210600D03*
X150845000Y-98925000D03*
X153245000Y-90925000D03*
X157245000Y-85325000D03*
X146845000Y-94125000D03*
X155645000Y-86125000D03*
X182321200Y-87503000D03*
X185381300Y-100888800D03*
D15*
X173355000Y-88874600D03*
D14*
X152445000Y-94925000D03*
X152445000Y-92525000D03*
X155645000Y-94925000D03*
D15*
X145237200Y-115112800D03*
D14*
X152445000Y-93325000D03*
X154045000Y-90925000D03*
X183201500Y-87122000D03*
X150045000Y-86125000D03*
D15*
X145211800Y-112420400D03*
D14*
X182321200Y-86766400D03*
X148273100Y-110236000D03*
X154845000Y-91725000D03*
X178435000Y-91821000D03*
D15*
X150749000Y-112420400D03*
D14*
X165473000Y-83312000D03*
X155645000Y-95725000D03*
X151645000Y-89325000D03*
X158845000Y-97325000D03*
D15*
X147218400Y-116230400D03*
D14*
X184861200Y-107315000D03*
D15*
X186182000Y-118110000D03*
X152501600Y-116281200D03*
X184962800Y-113182400D03*
X180721000Y-119126000D03*
X143459200Y-116255800D03*
X148717000Y-116255800D03*
D14*
X185928000Y-109550200D03*
D15*
X186055000Y-114554000D03*
X176530000Y-80899000D03*
D14*
X152100000Y-75825000D03*
X146456400Y-78917800D03*
X145500000Y-75825000D03*
X146600000Y-75825000D03*
X153200000Y-75825000D03*
X151000000Y-75825000D03*
X143840200Y-101396800D03*
X185392600Y-99669600D03*
%TA.AperFunction,Conductor*%
G36*
X162762339Y-70597185D02*
G01*
X162808094Y-70649989D01*
X162819300Y-70701500D01*
X162819300Y-75514667D01*
X162819301Y-75514684D01*
X162855238Y-75787655D01*
X162855239Y-75787660D01*
X162855240Y-75787666D01*
X162872783Y-75853136D01*
X162926504Y-76053630D01*
X163031875Y-76308017D01*
X163031880Y-76308028D01*
X163105246Y-76435100D01*
X163169551Y-76546479D01*
X163169553Y-76546482D01*
X163169554Y-76546483D01*
X163337170Y-76764926D01*
X163337176Y-76764933D01*
X163531866Y-76959623D01*
X163531873Y-76959629D01*
X163628653Y-77033890D01*
X163750321Y-77127249D01*
X163903578Y-77215732D01*
X163988771Y-77264919D01*
X163988776Y-77264921D01*
X163988779Y-77264923D01*
X164243168Y-77370295D01*
X164509134Y-77441560D01*
X164782126Y-77477500D01*
X164782133Y-77477500D01*
X165057467Y-77477500D01*
X165057474Y-77477500D01*
X165330466Y-77441560D01*
X165596432Y-77370295D01*
X165850821Y-77264923D01*
X166089279Y-77127249D01*
X166307728Y-76959628D01*
X166502428Y-76764928D01*
X166670049Y-76546479D01*
X166807723Y-76308021D01*
X166913095Y-76053632D01*
X166984360Y-75787666D01*
X167020300Y-75514674D01*
X167020300Y-75377000D01*
X167020300Y-75337118D01*
X167020300Y-75071399D01*
X171135364Y-75071399D01*
X171135364Y-75071400D01*
X172032988Y-75071400D01*
X172000075Y-75128407D01*
X171966000Y-75255574D01*
X171966000Y-75387226D01*
X172000075Y-75514393D01*
X172032988Y-75571400D01*
X171135364Y-75571400D01*
X171192567Y-75784886D01*
X171192570Y-75784892D01*
X171292399Y-75998978D01*
X171427894Y-76192482D01*
X171594917Y-76359505D01*
X171788422Y-76495000D01*
X171788424Y-76495001D01*
X171843145Y-76520518D01*
X171895585Y-76566690D01*
X171914737Y-76633883D01*
X171894522Y-76700764D01*
X171841357Y-76746099D01*
X171790742Y-76756900D01*
X171590936Y-76756900D01*
X171516698Y-76771666D01*
X171432515Y-76827915D01*
X171376266Y-76912099D01*
X171376264Y-76912103D01*
X171361500Y-76986328D01*
X171361500Y-78736463D01*
X171376266Y-78810701D01*
X171432515Y-78894884D01*
X171466234Y-78917414D01*
X171516699Y-78951134D01*
X171516702Y-78951134D01*
X171516703Y-78951135D01*
X171541666Y-78956100D01*
X171590933Y-78965900D01*
X173341066Y-78965899D01*
X173415301Y-78951134D01*
X173499484Y-78894884D01*
X173555734Y-78810701D01*
X173570500Y-78736467D01*
X173570500Y-77876400D01*
X173984793Y-77876400D01*
X174003523Y-78006673D01*
X174003524Y-78006678D01*
X174049434Y-78107205D01*
X174058198Y-78126396D01*
X174144388Y-78225864D01*
X174255109Y-78297020D01*
X174255112Y-78297021D01*
X174255111Y-78297021D01*
X174381390Y-78334099D01*
X174381392Y-78334100D01*
X174381393Y-78334100D01*
X174513008Y-78334100D01*
X174513008Y-78334099D01*
X174639291Y-78297020D01*
X174750012Y-78225864D01*
X174836202Y-78126396D01*
X174884108Y-78021495D01*
X174890875Y-78006678D01*
X174890876Y-78006673D01*
X174897228Y-77962496D01*
X174909607Y-77876400D01*
X174890876Y-77746125D01*
X174890875Y-77746124D01*
X174890875Y-77746121D01*
X174836202Y-77626405D01*
X174836202Y-77626404D01*
X174750012Y-77526936D01*
X174639291Y-77455780D01*
X174639289Y-77455779D01*
X174639287Y-77455778D01*
X174639288Y-77455778D01*
X174513009Y-77418700D01*
X174513007Y-77418700D01*
X174381393Y-77418700D01*
X174381390Y-77418700D01*
X174255111Y-77455778D01*
X174144389Y-77526935D01*
X174058199Y-77626402D01*
X174058197Y-77626405D01*
X174003524Y-77746121D01*
X174003523Y-77746126D01*
X173984793Y-77876400D01*
X173570500Y-77876400D01*
X173570499Y-76986334D01*
X173555734Y-76912099D01*
X173537068Y-76884165D01*
X173499484Y-76827915D01*
X173449019Y-76794196D01*
X173415301Y-76771666D01*
X173415299Y-76771665D01*
X173415296Y-76771664D01*
X173341071Y-76756900D01*
X173141259Y-76756900D01*
X173074220Y-76737215D01*
X173063206Y-76724504D01*
X177560000Y-76724504D01*
X177560000Y-77123000D01*
X178260000Y-77123000D01*
X178260000Y-77623000D01*
X177560000Y-77623000D01*
X177560000Y-78021495D01*
X177598427Y-78214681D01*
X177598430Y-78214693D01*
X177673807Y-78396671D01*
X177673814Y-78396684D01*
X177783248Y-78560462D01*
X177783251Y-78560466D01*
X177922533Y-78699748D01*
X177922537Y-78699751D01*
X178086315Y-78809185D01*
X178086328Y-78809192D01*
X178268308Y-78884569D01*
X178310000Y-78892862D01*
X178310000Y-78089988D01*
X178319940Y-78107205D01*
X178375795Y-78163060D01*
X178444204Y-78202556D01*
X178520504Y-78223000D01*
X178599496Y-78223000D01*
X178675796Y-78202556D01*
X178744205Y-78163060D01*
X178800060Y-78107205D01*
X178810000Y-78089988D01*
X178810000Y-78892862D01*
X178851690Y-78884569D01*
X178851692Y-78884569D01*
X179033671Y-78809192D01*
X179033684Y-78809185D01*
X179197462Y-78699751D01*
X179197466Y-78699748D01*
X179336748Y-78560466D01*
X179336751Y-78560462D01*
X179446185Y-78396684D01*
X179446192Y-78396671D01*
X179521569Y-78214693D01*
X179521572Y-78214681D01*
X179559999Y-78021495D01*
X179560000Y-78021492D01*
X179560000Y-77623000D01*
X178860000Y-77623000D01*
X178860000Y-77123000D01*
X179475607Y-77123000D01*
X179542646Y-77142685D01*
X179562616Y-77161049D01*
X179563748Y-77159918D01*
X179569495Y-77165665D01*
X179667335Y-77263505D01*
X179667336Y-77263506D01*
X179667338Y-77263507D01*
X179727249Y-77298096D01*
X179787164Y-77332688D01*
X179920817Y-77368500D01*
X179920819Y-77368500D01*
X180059181Y-77368500D01*
X180059183Y-77368500D01*
X180192836Y-77332688D01*
X180312665Y-77263505D01*
X180410505Y-77165665D01*
X180479688Y-77045836D01*
X180515500Y-76912183D01*
X180515500Y-76773817D01*
X185244500Y-76773817D01*
X185244500Y-76912183D01*
X185264369Y-76986333D01*
X185280312Y-77045835D01*
X185280313Y-77045838D01*
X185349492Y-77165661D01*
X185349494Y-77165664D01*
X185349495Y-77165665D01*
X185447335Y-77263505D01*
X185447336Y-77263506D01*
X185447338Y-77263507D01*
X185507249Y-77298096D01*
X185567164Y-77332688D01*
X185700817Y-77368500D01*
X185700819Y-77368500D01*
X185839181Y-77368500D01*
X185839183Y-77368500D01*
X185972836Y-77332688D01*
X186092665Y-77263505D01*
X186190505Y-77165665D01*
X186190505Y-77165664D01*
X186196252Y-77159918D01*
X186198629Y-77162295D01*
X186242491Y-77130294D01*
X186284393Y-77123000D01*
X186900000Y-77123000D01*
X186900000Y-77623000D01*
X186200000Y-77623000D01*
X186200000Y-78021495D01*
X186238427Y-78214681D01*
X186238430Y-78214693D01*
X186313807Y-78396671D01*
X186313814Y-78396684D01*
X186423248Y-78560462D01*
X186423251Y-78560466D01*
X186562533Y-78699748D01*
X186562537Y-78699751D01*
X186726315Y-78809185D01*
X186726328Y-78809192D01*
X186908308Y-78884569D01*
X186950000Y-78892862D01*
X186950000Y-78089988D01*
X186959940Y-78107205D01*
X187015795Y-78163060D01*
X187084204Y-78202556D01*
X187160504Y-78223000D01*
X187239496Y-78223000D01*
X187315796Y-78202556D01*
X187384205Y-78163060D01*
X187440060Y-78107205D01*
X187450000Y-78089988D01*
X187450000Y-78892862D01*
X187491690Y-78884569D01*
X187491692Y-78884569D01*
X187673671Y-78809192D01*
X187673684Y-78809185D01*
X187837462Y-78699751D01*
X187837466Y-78699748D01*
X187976748Y-78560466D01*
X187976751Y-78560462D01*
X188086185Y-78396684D01*
X188086192Y-78396671D01*
X188161569Y-78214693D01*
X188161572Y-78214681D01*
X188199999Y-78021495D01*
X188200000Y-78021492D01*
X188200000Y-77623000D01*
X187500000Y-77623000D01*
X187500000Y-77123000D01*
X188200000Y-77123000D01*
X188200000Y-76724508D01*
X188199999Y-76724504D01*
X188161572Y-76531318D01*
X188161569Y-76531306D01*
X188086192Y-76349328D01*
X188086185Y-76349315D01*
X187976751Y-76185537D01*
X187976748Y-76185533D01*
X187837466Y-76046251D01*
X187837462Y-76046248D01*
X187673684Y-75936814D01*
X187673671Y-75936807D01*
X187491691Y-75861429D01*
X187491683Y-75861427D01*
X187450000Y-75853135D01*
X187450000Y-76656011D01*
X187440060Y-76638795D01*
X187384205Y-76582940D01*
X187315796Y-76543444D01*
X187239496Y-76523000D01*
X187160504Y-76523000D01*
X187084204Y-76543444D01*
X187015795Y-76582940D01*
X186959940Y-76638795D01*
X186950000Y-76656011D01*
X186950000Y-75853136D01*
X186949999Y-75853135D01*
X186908316Y-75861427D01*
X186908308Y-75861429D01*
X186726328Y-75936807D01*
X186726315Y-75936814D01*
X186562537Y-76046248D01*
X186562533Y-76046251D01*
X186423251Y-76185533D01*
X186423248Y-76185537D01*
X186313814Y-76349315D01*
X186313808Y-76349327D01*
X186298623Y-76385986D01*
X186254781Y-76440388D01*
X186188487Y-76462452D01*
X186120788Y-76445172D01*
X186096382Y-76426212D01*
X186092666Y-76422496D01*
X186092661Y-76422492D01*
X185972838Y-76353313D01*
X185972837Y-76353312D01*
X185972836Y-76353312D01*
X185839183Y-76317500D01*
X185700817Y-76317500D01*
X185567164Y-76353312D01*
X185567161Y-76353313D01*
X185447338Y-76422492D01*
X185447333Y-76422496D01*
X185349496Y-76520333D01*
X185349492Y-76520338D01*
X185280313Y-76640161D01*
X185280312Y-76640164D01*
X185244500Y-76773817D01*
X180515500Y-76773817D01*
X180479688Y-76640164D01*
X180428612Y-76551697D01*
X180410507Y-76520338D01*
X180410503Y-76520333D01*
X180312666Y-76422496D01*
X180312661Y-76422492D01*
X180192838Y-76353313D01*
X180192837Y-76353312D01*
X180192836Y-76353312D01*
X180059183Y-76317500D01*
X179920817Y-76317500D01*
X179787164Y-76353312D01*
X179787161Y-76353313D01*
X179667338Y-76422492D01*
X179663613Y-76426217D01*
X179602288Y-76459699D01*
X179532596Y-76454710D01*
X179476665Y-76412836D01*
X179461375Y-76385984D01*
X179446190Y-76349324D01*
X179446185Y-76349315D01*
X179336751Y-76185537D01*
X179336748Y-76185533D01*
X179197466Y-76046251D01*
X179197462Y-76046248D01*
X179033684Y-75936814D01*
X179033671Y-75936807D01*
X178851691Y-75861429D01*
X178851683Y-75861427D01*
X178810000Y-75853135D01*
X178810000Y-76656011D01*
X178800060Y-76638795D01*
X178744205Y-76582940D01*
X178675796Y-76543444D01*
X178599496Y-76523000D01*
X178520504Y-76523000D01*
X178444204Y-76543444D01*
X178375795Y-76582940D01*
X178319940Y-76638795D01*
X178310000Y-76656011D01*
X178310000Y-75853136D01*
X178309999Y-75853135D01*
X178268316Y-75861427D01*
X178268308Y-75861429D01*
X178086328Y-75936807D01*
X178086315Y-75936814D01*
X177922537Y-76046248D01*
X177922533Y-76046251D01*
X177783251Y-76185533D01*
X177783248Y-76185537D01*
X177673814Y-76349315D01*
X177673807Y-76349328D01*
X177598430Y-76531306D01*
X177598427Y-76531318D01*
X177560000Y-76724504D01*
X173063206Y-76724504D01*
X173028465Y-76684411D01*
X173018521Y-76615253D01*
X173047546Y-76551697D01*
X173088855Y-76520518D01*
X173143575Y-76495001D01*
X173143577Y-76495000D01*
X173337082Y-76359505D01*
X173504105Y-76192482D01*
X173639600Y-75998978D01*
X173739429Y-75784892D01*
X173739432Y-75784886D01*
X173796636Y-75571400D01*
X172899012Y-75571400D01*
X172931925Y-75514393D01*
X172966000Y-75387226D01*
X172966000Y-75255574D01*
X172931925Y-75128407D01*
X172899012Y-75071400D01*
X173796636Y-75071400D01*
X173796635Y-75071399D01*
X173739432Y-74857913D01*
X173739429Y-74857907D01*
X173639600Y-74643822D01*
X173639599Y-74643820D01*
X173504113Y-74450326D01*
X173504108Y-74450320D01*
X173337082Y-74283294D01*
X173143578Y-74147799D01*
X172929492Y-74047970D01*
X172929477Y-74047964D01*
X172896960Y-74039251D01*
X172837300Y-74002886D01*
X172806772Y-73940038D01*
X172815067Y-73870663D01*
X172859553Y-73816786D01*
X172884257Y-73803852D01*
X172960427Y-73774344D01*
X173134462Y-73666586D01*
X173285732Y-73528685D01*
X173409088Y-73365335D01*
X173500328Y-73182101D01*
X173556345Y-72985221D01*
X173573842Y-72796400D01*
X175305593Y-72796400D01*
X175324323Y-72926673D01*
X175324324Y-72926678D01*
X175378997Y-73046394D01*
X175378998Y-73046396D01*
X175465188Y-73145864D01*
X175575909Y-73217020D01*
X175575912Y-73217021D01*
X175575911Y-73217021D01*
X175702190Y-73254099D01*
X175702192Y-73254100D01*
X175702193Y-73254100D01*
X175833808Y-73254100D01*
X175833808Y-73254099D01*
X175960091Y-73217020D01*
X176070812Y-73145864D01*
X176157002Y-73046396D01*
X176211676Y-72926675D01*
X176230407Y-72796400D01*
X176230134Y-72794504D01*
X177560000Y-72794504D01*
X177560000Y-72943000D01*
X178260000Y-72943000D01*
X178260000Y-73443000D01*
X177560000Y-73443000D01*
X177560000Y-73591495D01*
X177598427Y-73784681D01*
X177598430Y-73784693D01*
X177673807Y-73966671D01*
X177673814Y-73966684D01*
X177783248Y-74130462D01*
X177783251Y-74130466D01*
X177922533Y-74269748D01*
X177922537Y-74269751D01*
X178086315Y-74379185D01*
X178086328Y-74379192D01*
X178268308Y-74454569D01*
X178310000Y-74462862D01*
X178310000Y-73659988D01*
X178319940Y-73677205D01*
X178375795Y-73733060D01*
X178444204Y-73772556D01*
X178520504Y-73793000D01*
X178599496Y-73793000D01*
X178675796Y-73772556D01*
X178744205Y-73733060D01*
X178800060Y-73677205D01*
X178810000Y-73659988D01*
X178810000Y-74462862D01*
X178851690Y-74454569D01*
X178851692Y-74454569D01*
X179033671Y-74379192D01*
X179033684Y-74379185D01*
X179197462Y-74269751D01*
X179197466Y-74269748D01*
X179336748Y-74130466D01*
X179336751Y-74130462D01*
X179446185Y-73966684D01*
X179446192Y-73966671D01*
X179521569Y-73784693D01*
X179521572Y-73784681D01*
X179559999Y-73591495D01*
X179560000Y-73591492D01*
X179560000Y-73443000D01*
X178860000Y-73443000D01*
X178860000Y-72943000D01*
X179560000Y-72943000D01*
X179560000Y-72794508D01*
X179559999Y-72794504D01*
X186200000Y-72794504D01*
X186200000Y-72943000D01*
X186900000Y-72943000D01*
X186900000Y-73443000D01*
X186200000Y-73443000D01*
X186200000Y-73591495D01*
X186238427Y-73784681D01*
X186238430Y-73784693D01*
X186313807Y-73966671D01*
X186313814Y-73966684D01*
X186423248Y-74130462D01*
X186423251Y-74130466D01*
X186562533Y-74269748D01*
X186562537Y-74269751D01*
X186726315Y-74379185D01*
X186726328Y-74379192D01*
X186908308Y-74454569D01*
X186950000Y-74462862D01*
X186950000Y-73659988D01*
X186959940Y-73677205D01*
X187015795Y-73733060D01*
X187084204Y-73772556D01*
X187160504Y-73793000D01*
X187239496Y-73793000D01*
X187315796Y-73772556D01*
X187384205Y-73733060D01*
X187440060Y-73677205D01*
X187450000Y-73659988D01*
X187450000Y-74462862D01*
X187491690Y-74454569D01*
X187491692Y-74454569D01*
X187673671Y-74379192D01*
X187673684Y-74379185D01*
X187837462Y-74269751D01*
X187837466Y-74269748D01*
X187976748Y-74130466D01*
X187976751Y-74130462D01*
X188086185Y-73966684D01*
X188086192Y-73966671D01*
X188161569Y-73784693D01*
X188161572Y-73784681D01*
X188199999Y-73591495D01*
X188200000Y-73591492D01*
X188200000Y-73443000D01*
X187500000Y-73443000D01*
X187500000Y-72943000D01*
X188200000Y-72943000D01*
X188200000Y-72794508D01*
X188199999Y-72794504D01*
X188161572Y-72601318D01*
X188161569Y-72601306D01*
X188086192Y-72419328D01*
X188086185Y-72419315D01*
X187976751Y-72255537D01*
X187976748Y-72255533D01*
X187837466Y-72116251D01*
X187837462Y-72116248D01*
X187673684Y-72006814D01*
X187673671Y-72006807D01*
X187491691Y-71931429D01*
X187491683Y-71931427D01*
X187450000Y-71923135D01*
X187450000Y-72726011D01*
X187440060Y-72708795D01*
X187384205Y-72652940D01*
X187315796Y-72613444D01*
X187239496Y-72593000D01*
X187160504Y-72593000D01*
X187084204Y-72613444D01*
X187015795Y-72652940D01*
X186959940Y-72708795D01*
X186950000Y-72726011D01*
X186950000Y-71923136D01*
X186949999Y-71923135D01*
X186908316Y-71931427D01*
X186908308Y-71931429D01*
X186726328Y-72006807D01*
X186726315Y-72006814D01*
X186562537Y-72116248D01*
X186562533Y-72116251D01*
X186423251Y-72255533D01*
X186423248Y-72255537D01*
X186313814Y-72419315D01*
X186313807Y-72419328D01*
X186238430Y-72601306D01*
X186238427Y-72601318D01*
X186200000Y-72794504D01*
X179559999Y-72794504D01*
X179521572Y-72601318D01*
X179521569Y-72601306D01*
X179446192Y-72419328D01*
X179446185Y-72419315D01*
X179336751Y-72255537D01*
X179336748Y-72255533D01*
X179197466Y-72116251D01*
X179197462Y-72116248D01*
X179033684Y-72006814D01*
X179033671Y-72006807D01*
X178851691Y-71931429D01*
X178851683Y-71931427D01*
X178810000Y-71923135D01*
X178810000Y-72726011D01*
X178800060Y-72708795D01*
X178744205Y-72652940D01*
X178675796Y-72613444D01*
X178599496Y-72593000D01*
X178520504Y-72593000D01*
X178444204Y-72613444D01*
X178375795Y-72652940D01*
X178319940Y-72708795D01*
X178310000Y-72726011D01*
X178310000Y-71923136D01*
X178309999Y-71923135D01*
X178268316Y-71931427D01*
X178268308Y-71931429D01*
X178086328Y-72006807D01*
X178086315Y-72006814D01*
X177922537Y-72116248D01*
X177922533Y-72116251D01*
X177783251Y-72255533D01*
X177783248Y-72255537D01*
X177673814Y-72419315D01*
X177673807Y-72419328D01*
X177598430Y-72601306D01*
X177598427Y-72601318D01*
X177560000Y-72794504D01*
X176230134Y-72794504D01*
X176211676Y-72666125D01*
X176211675Y-72666124D01*
X176211675Y-72666121D01*
X176157002Y-72546405D01*
X176157002Y-72546404D01*
X176070812Y-72446936D01*
X175960091Y-72375780D01*
X175960089Y-72375779D01*
X175960087Y-72375778D01*
X175960088Y-72375778D01*
X175833809Y-72338700D01*
X175833807Y-72338700D01*
X175702193Y-72338700D01*
X175702190Y-72338700D01*
X175575911Y-72375778D01*
X175465189Y-72446935D01*
X175378999Y-72546402D01*
X175378997Y-72546405D01*
X175324324Y-72666121D01*
X175324323Y-72666126D01*
X175305593Y-72796400D01*
X173573842Y-72796400D01*
X173575232Y-72781400D01*
X173556345Y-72577579D01*
X173500328Y-72380699D01*
X173409088Y-72197465D01*
X173285732Y-72034115D01*
X173285730Y-72034112D01*
X173134462Y-71896214D01*
X173134460Y-71896212D01*
X172960430Y-71788457D01*
X172960424Y-71788454D01*
X172809993Y-71730177D01*
X172769556Y-71714512D01*
X172568347Y-71676900D01*
X172363653Y-71676900D01*
X172162444Y-71714512D01*
X172162441Y-71714512D01*
X172162441Y-71714513D01*
X171971575Y-71788454D01*
X171971569Y-71788457D01*
X171797539Y-71896212D01*
X171797537Y-71896214D01*
X171646269Y-72034112D01*
X171522912Y-72197464D01*
X171431673Y-72380695D01*
X171375654Y-72577583D01*
X171356768Y-72781399D01*
X171356768Y-72781400D01*
X171375654Y-72985216D01*
X171431673Y-73182104D01*
X171522912Y-73365335D01*
X171646269Y-73528687D01*
X171797537Y-73666585D01*
X171797539Y-73666587D01*
X171971569Y-73774342D01*
X171971571Y-73774343D01*
X171971573Y-73774344D01*
X171971576Y-73774345D01*
X171971578Y-73774346D01*
X172047737Y-73803850D01*
X172103139Y-73846423D01*
X172126730Y-73912189D01*
X172111019Y-73980270D01*
X172060996Y-74029049D01*
X172035040Y-74039251D01*
X172002519Y-74047965D01*
X172002507Y-74047970D01*
X171788422Y-74147799D01*
X171788420Y-74147800D01*
X171594926Y-74283286D01*
X171594920Y-74283291D01*
X171427891Y-74450320D01*
X171427886Y-74450326D01*
X171292400Y-74643820D01*
X171292399Y-74643822D01*
X171192570Y-74857907D01*
X171192567Y-74857913D01*
X171135364Y-75071399D01*
X167020300Y-75071399D01*
X167020300Y-70701500D01*
X167039985Y-70634461D01*
X167092789Y-70588706D01*
X167144300Y-70577500D01*
X188345300Y-70577500D01*
X188412339Y-70597185D01*
X188458094Y-70649989D01*
X188469300Y-70701500D01*
X188469300Y-120052500D01*
X188449615Y-120119539D01*
X188396811Y-120165294D01*
X188345300Y-120176500D01*
X141494300Y-120176500D01*
X141427261Y-120156815D01*
X141381506Y-120104011D01*
X141370300Y-120052500D01*
X141370300Y-119126000D01*
X180106419Y-119126000D01*
X180124277Y-119273077D01*
X180124278Y-119273079D01*
X180176816Y-119411610D01*
X180260980Y-119533543D01*
X180260982Y-119533545D01*
X180260984Y-119533547D01*
X180371876Y-119631789D01*
X180371878Y-119631790D01*
X180503067Y-119700643D01*
X180574993Y-119718371D01*
X180646919Y-119736100D01*
X180646920Y-119736100D01*
X180795081Y-119736100D01*
X180843031Y-119724281D01*
X180938933Y-119700643D01*
X181070122Y-119631790D01*
X181181020Y-119533543D01*
X181265184Y-119411610D01*
X181317722Y-119273079D01*
X181335581Y-119126000D01*
X181317722Y-118978921D01*
X181265184Y-118840390D01*
X181181020Y-118718457D01*
X181181017Y-118718454D01*
X181181015Y-118718452D01*
X181070123Y-118620210D01*
X180938931Y-118551356D01*
X180795081Y-118515900D01*
X180795080Y-118515900D01*
X180646920Y-118515900D01*
X180646919Y-118515900D01*
X180503068Y-118551356D01*
X180371876Y-118620210D01*
X180260984Y-118718452D01*
X180260978Y-118718459D01*
X180176817Y-118840387D01*
X180124278Y-118978920D01*
X180124277Y-118978922D01*
X180106419Y-119126000D01*
X141370300Y-119126000D01*
X141370300Y-118110000D01*
X185567419Y-118110000D01*
X185585277Y-118257077D01*
X185585278Y-118257079D01*
X185637816Y-118395610D01*
X185721980Y-118517543D01*
X185721982Y-118517545D01*
X185721984Y-118517547D01*
X185832876Y-118615789D01*
X185832878Y-118615790D01*
X185964067Y-118684643D01*
X186035993Y-118702371D01*
X186107919Y-118720100D01*
X186107920Y-118720100D01*
X186256081Y-118720100D01*
X186304031Y-118708281D01*
X186399933Y-118684643D01*
X186531122Y-118615790D01*
X186642020Y-118517543D01*
X186726184Y-118395610D01*
X186778722Y-118257079D01*
X186796581Y-118110000D01*
X186778722Y-117962921D01*
X186726184Y-117824390D01*
X186642020Y-117702457D01*
X186642017Y-117702454D01*
X186642015Y-117702452D01*
X186531123Y-117604210D01*
X186399931Y-117535356D01*
X186256081Y-117499900D01*
X186256080Y-117499900D01*
X186107920Y-117499900D01*
X186107919Y-117499900D01*
X185964068Y-117535356D01*
X185832876Y-117604210D01*
X185721984Y-117702452D01*
X185721978Y-117702459D01*
X185637817Y-117824387D01*
X185585278Y-117962920D01*
X185585277Y-117962922D01*
X185567419Y-118110000D01*
X141370300Y-118110000D01*
X141370300Y-116255800D01*
X142844619Y-116255800D01*
X142862477Y-116402877D01*
X142862478Y-116402879D01*
X142915017Y-116541412D01*
X142981646Y-116637940D01*
X142999180Y-116663343D01*
X142999182Y-116663345D01*
X142999184Y-116663347D01*
X143110076Y-116761589D01*
X143110078Y-116761590D01*
X143241267Y-116830443D01*
X143313193Y-116848171D01*
X143385119Y-116865900D01*
X143385120Y-116865900D01*
X143533281Y-116865900D01*
X143581231Y-116854081D01*
X143677133Y-116830443D01*
X143808322Y-116761590D01*
X143919220Y-116663343D01*
X144003384Y-116541410D01*
X144055922Y-116402879D01*
X144073781Y-116255800D01*
X144070697Y-116230400D01*
X146603819Y-116230400D01*
X146621677Y-116377477D01*
X146621678Y-116377479D01*
X146674217Y-116516012D01*
X146709282Y-116566812D01*
X146758380Y-116637943D01*
X146758382Y-116637945D01*
X146758384Y-116637947D01*
X146869276Y-116736189D01*
X146869278Y-116736190D01*
X147000467Y-116805043D01*
X147072393Y-116822771D01*
X147144319Y-116840500D01*
X147144320Y-116840500D01*
X147292481Y-116840500D01*
X147340431Y-116828681D01*
X147436333Y-116805043D01*
X147567522Y-116736190D01*
X147678420Y-116637943D01*
X147762584Y-116516010D01*
X147815122Y-116377479D01*
X147829897Y-116255800D01*
X148102419Y-116255800D01*
X148120277Y-116402877D01*
X148120278Y-116402879D01*
X148172817Y-116541412D01*
X148239446Y-116637940D01*
X148256980Y-116663343D01*
X148256982Y-116663345D01*
X148256984Y-116663347D01*
X148367876Y-116761589D01*
X148367878Y-116761590D01*
X148499067Y-116830443D01*
X148570993Y-116848171D01*
X148642919Y-116865900D01*
X148642920Y-116865900D01*
X148791081Y-116865900D01*
X148839031Y-116854081D01*
X148934933Y-116830443D01*
X149066122Y-116761590D01*
X149177020Y-116663343D01*
X149261184Y-116541410D01*
X149313722Y-116402879D01*
X149328497Y-116281200D01*
X151887019Y-116281200D01*
X151904877Y-116428277D01*
X151904878Y-116428279D01*
X151957416Y-116566810D01*
X152041580Y-116688743D01*
X152041582Y-116688745D01*
X152041584Y-116688747D01*
X152152476Y-116786989D01*
X152152478Y-116786990D01*
X152283667Y-116855843D01*
X152355593Y-116873571D01*
X152427519Y-116891300D01*
X152427520Y-116891300D01*
X152575681Y-116891300D01*
X152623631Y-116879481D01*
X152719533Y-116855843D01*
X152850722Y-116786990D01*
X152961620Y-116688743D01*
X153045784Y-116566810D01*
X153098322Y-116428279D01*
X153116181Y-116281200D01*
X153098322Y-116134121D01*
X153045784Y-115995590D01*
X152961620Y-115873657D01*
X152961617Y-115873654D01*
X152961615Y-115873652D01*
X152850723Y-115775410D01*
X152719531Y-115706556D01*
X152575681Y-115671100D01*
X152575680Y-115671100D01*
X152427520Y-115671100D01*
X152427519Y-115671100D01*
X152283668Y-115706556D01*
X152152476Y-115775410D01*
X152041584Y-115873652D01*
X152041578Y-115873659D01*
X151957417Y-115995587D01*
X151904878Y-116134120D01*
X151904877Y-116134122D01*
X151887019Y-116281200D01*
X149328497Y-116281200D01*
X149331581Y-116255800D01*
X149313722Y-116108721D01*
X149261184Y-115970190D01*
X149177020Y-115848257D01*
X149177017Y-115848254D01*
X149177015Y-115848252D01*
X149066123Y-115750010D01*
X148934931Y-115681156D01*
X148791081Y-115645700D01*
X148791080Y-115645700D01*
X148642920Y-115645700D01*
X148642919Y-115645700D01*
X148499068Y-115681156D01*
X148367876Y-115750010D01*
X148256984Y-115848252D01*
X148256978Y-115848259D01*
X148172817Y-115970187D01*
X148120278Y-116108720D01*
X148120277Y-116108722D01*
X148102419Y-116255800D01*
X147829897Y-116255800D01*
X147832981Y-116230400D01*
X147815122Y-116083321D01*
X147762584Y-115944790D01*
X147678420Y-115822857D01*
X147678417Y-115822854D01*
X147678415Y-115822852D01*
X147567523Y-115724610D01*
X147436331Y-115655756D01*
X147292481Y-115620300D01*
X147292480Y-115620300D01*
X147144320Y-115620300D01*
X147144319Y-115620300D01*
X147000468Y-115655756D01*
X146869276Y-115724610D01*
X146758384Y-115822852D01*
X146758378Y-115822859D01*
X146674217Y-115944787D01*
X146621678Y-116083320D01*
X146621677Y-116083322D01*
X146603819Y-116230400D01*
X144070697Y-116230400D01*
X144055922Y-116108721D01*
X144003384Y-115970190D01*
X143919220Y-115848257D01*
X143919217Y-115848254D01*
X143919215Y-115848252D01*
X143808323Y-115750010D01*
X143677131Y-115681156D01*
X143533281Y-115645700D01*
X143533280Y-115645700D01*
X143385120Y-115645700D01*
X143385119Y-115645700D01*
X143241268Y-115681156D01*
X143110076Y-115750010D01*
X142999184Y-115848252D01*
X142999178Y-115848259D01*
X142915017Y-115970187D01*
X142862478Y-116108720D01*
X142862477Y-116108722D01*
X142844619Y-116255800D01*
X141370300Y-116255800D01*
X141370300Y-115474000D01*
X168067393Y-115474000D01*
X168086123Y-115604273D01*
X168086124Y-115604278D01*
X168132834Y-115706557D01*
X168140798Y-115723996D01*
X168226988Y-115823464D01*
X168337709Y-115894620D01*
X168337712Y-115894621D01*
X168337711Y-115894621D01*
X168463990Y-115931699D01*
X168463992Y-115931700D01*
X168463993Y-115931700D01*
X168595608Y-115931700D01*
X168595608Y-115931699D01*
X168721891Y-115894620D01*
X168832612Y-115823464D01*
X168918802Y-115723996D01*
X168966158Y-115620300D01*
X168973475Y-115604278D01*
X168973476Y-115604273D01*
X168992207Y-115474000D01*
X168992207Y-115473998D01*
X170510515Y-115473998D01*
X170510515Y-115474001D01*
X170529571Y-115618752D01*
X170529573Y-115618757D01*
X170585442Y-115753638D01*
X170585445Y-115753644D01*
X170674325Y-115869473D01*
X170674326Y-115869474D01*
X170790155Y-115958354D01*
X170790161Y-115958357D01*
X170818729Y-115970190D01*
X170925046Y-116014228D01*
X170997423Y-116023756D01*
X171069799Y-116033285D01*
X171069800Y-116033285D01*
X171069801Y-116033285D01*
X171118051Y-116026932D01*
X171214554Y-116014228D01*
X171349443Y-115958355D01*
X171465274Y-115869474D01*
X171554155Y-115753643D01*
X171610028Y-115618754D01*
X171629085Y-115474000D01*
X171610028Y-115329246D01*
X171554155Y-115194358D01*
X171465274Y-115078526D01*
X171349443Y-114989645D01*
X171349440Y-114989644D01*
X171349438Y-114989642D01*
X171214557Y-114933773D01*
X171214552Y-114933771D01*
X171069801Y-114914715D01*
X171069799Y-114914715D01*
X170925047Y-114933771D01*
X170925045Y-114933772D01*
X170790161Y-114989643D01*
X170674326Y-115078526D01*
X170585443Y-115194361D01*
X170529572Y-115329245D01*
X170529571Y-115329247D01*
X170510515Y-115473998D01*
X168992207Y-115473998D01*
X168973476Y-115343725D01*
X168973475Y-115343724D01*
X168973475Y-115343721D01*
X168918802Y-115224005D01*
X168918802Y-115224004D01*
X168832612Y-115124536D01*
X168721891Y-115053380D01*
X168721889Y-115053379D01*
X168721887Y-115053378D01*
X168721888Y-115053378D01*
X168595609Y-115016300D01*
X168595607Y-115016300D01*
X168463993Y-115016300D01*
X168463990Y-115016300D01*
X168337711Y-115053378D01*
X168226989Y-115124535D01*
X168140799Y-115224002D01*
X168140797Y-115224005D01*
X168086124Y-115343721D01*
X168086123Y-115343726D01*
X168067393Y-115474000D01*
X141370300Y-115474000D01*
X141370300Y-113995200D01*
X142819219Y-113995200D01*
X142837077Y-114142277D01*
X142837078Y-114142279D01*
X142889616Y-114280810D01*
X142973780Y-114402743D01*
X142973782Y-114402745D01*
X142973784Y-114402747D01*
X143084676Y-114500989D01*
X143084678Y-114500990D01*
X143215867Y-114569843D01*
X143287793Y-114587571D01*
X143359719Y-114605300D01*
X143359720Y-114605300D01*
X143507881Y-114605300D01*
X143555831Y-114593481D01*
X143651733Y-114569843D01*
X143782922Y-114500990D01*
X143893820Y-114402743D01*
X143977984Y-114280810D01*
X144030522Y-114142279D01*
X144048381Y-113995200D01*
X144042213Y-113944400D01*
X148153219Y-113944400D01*
X148171077Y-114091477D01*
X148171078Y-114091479D01*
X148191928Y-114146457D01*
X148223617Y-114230012D01*
X148258682Y-114280812D01*
X148307780Y-114351943D01*
X148307782Y-114351945D01*
X148307784Y-114351947D01*
X148418676Y-114450189D01*
X148418678Y-114450190D01*
X148549867Y-114519043D01*
X148621793Y-114536771D01*
X148693719Y-114554500D01*
X148693720Y-114554500D01*
X148841881Y-114554500D01*
X148843910Y-114554000D01*
X185440419Y-114554000D01*
X185458277Y-114701077D01*
X185458278Y-114701079D01*
X185510816Y-114839610D01*
X185594980Y-114961543D01*
X185594982Y-114961545D01*
X185594984Y-114961547D01*
X185705876Y-115059789D01*
X185705878Y-115059790D01*
X185837067Y-115128643D01*
X185908993Y-115146371D01*
X185980919Y-115164100D01*
X185980920Y-115164100D01*
X186129081Y-115164100D01*
X186177031Y-115152281D01*
X186272933Y-115128643D01*
X186404122Y-115059790D01*
X186515020Y-114961543D01*
X186599184Y-114839610D01*
X186651722Y-114701079D01*
X186669581Y-114554000D01*
X186651722Y-114406921D01*
X186599184Y-114268390D01*
X186515020Y-114146457D01*
X186515017Y-114146454D01*
X186515015Y-114146452D01*
X186404123Y-114048210D01*
X186272931Y-113979356D01*
X186129081Y-113943900D01*
X186129080Y-113943900D01*
X185980920Y-113943900D01*
X185980919Y-113943900D01*
X185837068Y-113979356D01*
X185705876Y-114048210D01*
X185594984Y-114146452D01*
X185594978Y-114146459D01*
X185510817Y-114268387D01*
X185458278Y-114406920D01*
X185458277Y-114406922D01*
X185440419Y-114554000D01*
X148843910Y-114554000D01*
X148889831Y-114542681D01*
X148985733Y-114519043D01*
X149116922Y-114450190D01*
X149227820Y-114351943D01*
X149311984Y-114230010D01*
X149364522Y-114091479D01*
X149382381Y-113944400D01*
X149364522Y-113797321D01*
X149311984Y-113658790D01*
X149227820Y-113536857D01*
X149227817Y-113536854D01*
X149227815Y-113536852D01*
X149116923Y-113438610D01*
X148985731Y-113369756D01*
X148841881Y-113334300D01*
X148841880Y-113334300D01*
X148693720Y-113334300D01*
X148693719Y-113334300D01*
X148549868Y-113369756D01*
X148418676Y-113438610D01*
X148307784Y-113536852D01*
X148307778Y-113536859D01*
X148223617Y-113658787D01*
X148171078Y-113797320D01*
X148171077Y-113797322D01*
X148153219Y-113944400D01*
X144042213Y-113944400D01*
X144030522Y-113848121D01*
X143977984Y-113709590D01*
X143893820Y-113587657D01*
X143893817Y-113587654D01*
X143893815Y-113587652D01*
X143782923Y-113489410D01*
X143651731Y-113420556D01*
X143507881Y-113385100D01*
X143507880Y-113385100D01*
X143359720Y-113385100D01*
X143359719Y-113385100D01*
X143215868Y-113420556D01*
X143084676Y-113489410D01*
X142973784Y-113587652D01*
X142973778Y-113587659D01*
X142889617Y-113709587D01*
X142837078Y-113848120D01*
X142837077Y-113848122D01*
X142819219Y-113995200D01*
X141370300Y-113995200D01*
X141370300Y-113182400D01*
X184348219Y-113182400D01*
X184366077Y-113329477D01*
X184366078Y-113329479D01*
X184418616Y-113468010D01*
X184502780Y-113589943D01*
X184502782Y-113589945D01*
X184502784Y-113589947D01*
X184613676Y-113688189D01*
X184613678Y-113688190D01*
X184744867Y-113757043D01*
X184816793Y-113774771D01*
X184888719Y-113792500D01*
X184888720Y-113792500D01*
X185036881Y-113792500D01*
X185084831Y-113780681D01*
X185180733Y-113757043D01*
X185311922Y-113688190D01*
X185422820Y-113589943D01*
X185506984Y-113468010D01*
X185559522Y-113329479D01*
X185577381Y-113182400D01*
X185559522Y-113035321D01*
X185506984Y-112896790D01*
X185422820Y-112774857D01*
X185422817Y-112774854D01*
X185422815Y-112774852D01*
X185311923Y-112676610D01*
X185180731Y-112607756D01*
X185036881Y-112572300D01*
X185036880Y-112572300D01*
X184888720Y-112572300D01*
X184888719Y-112572300D01*
X184744868Y-112607756D01*
X184613676Y-112676610D01*
X184502784Y-112774852D01*
X184502778Y-112774859D01*
X184418617Y-112896787D01*
X184366078Y-113035320D01*
X184366077Y-113035322D01*
X184348219Y-113182400D01*
X141370300Y-113182400D01*
X141370300Y-112420400D01*
X143462219Y-112420400D01*
X143480077Y-112567477D01*
X143480078Y-112567479D01*
X143532616Y-112706010D01*
X143616780Y-112827943D01*
X143616782Y-112827945D01*
X143616784Y-112827947D01*
X143727676Y-112926189D01*
X143727678Y-112926190D01*
X143858867Y-112995043D01*
X143930793Y-113012771D01*
X144002719Y-113030500D01*
X144002720Y-113030500D01*
X144150881Y-113030500D01*
X144202409Y-113017799D01*
X144294733Y-112995043D01*
X144425922Y-112926190D01*
X144536820Y-112827943D01*
X144620984Y-112706010D01*
X144673522Y-112567479D01*
X144691381Y-112420400D01*
X148999419Y-112420400D01*
X149017277Y-112567477D01*
X149017278Y-112567479D01*
X149069816Y-112706010D01*
X149153980Y-112827943D01*
X149153982Y-112827945D01*
X149153984Y-112827947D01*
X149264876Y-112926189D01*
X149264878Y-112926190D01*
X149396067Y-112995043D01*
X149467993Y-113012771D01*
X149539919Y-113030500D01*
X149539920Y-113030500D01*
X149688081Y-113030500D01*
X149739609Y-113017799D01*
X149831933Y-112995043D01*
X149963122Y-112926190D01*
X150074020Y-112827943D01*
X150158184Y-112706010D01*
X150210722Y-112567479D01*
X150211618Y-112560100D01*
X154007693Y-112560100D01*
X154026423Y-112690373D01*
X154026424Y-112690378D01*
X154065005Y-112774857D01*
X154081098Y-112810096D01*
X154167288Y-112909564D01*
X154278009Y-112980720D01*
X154278012Y-112980721D01*
X154278011Y-112980721D01*
X154404290Y-113017799D01*
X154404292Y-113017800D01*
X154404293Y-113017800D01*
X154535908Y-113017800D01*
X154535908Y-113017799D01*
X154662191Y-112980720D01*
X154772912Y-112909564D01*
X154859102Y-112810096D01*
X154913776Y-112690375D01*
X154932507Y-112560100D01*
X154913776Y-112429825D01*
X154913775Y-112429824D01*
X154913775Y-112429821D01*
X154878556Y-112352704D01*
X154859102Y-112310104D01*
X154772912Y-112210636D01*
X154662191Y-112139480D01*
X154662189Y-112139479D01*
X154662187Y-112139478D01*
X154662188Y-112139478D01*
X154535909Y-112102400D01*
X154535907Y-112102400D01*
X154404293Y-112102400D01*
X154404290Y-112102400D01*
X154278011Y-112139478D01*
X154167289Y-112210635D01*
X154081099Y-112310102D01*
X154081097Y-112310105D01*
X154026424Y-112429821D01*
X154026423Y-112429826D01*
X154007693Y-112560100D01*
X150211618Y-112560100D01*
X150228581Y-112420400D01*
X150210722Y-112273321D01*
X150158184Y-112134790D01*
X150074020Y-112012857D01*
X150074017Y-112012854D01*
X150074015Y-112012852D01*
X149963123Y-111914610D01*
X149831931Y-111845756D01*
X149688081Y-111810300D01*
X149688080Y-111810300D01*
X149539920Y-111810300D01*
X149539919Y-111810300D01*
X149396068Y-111845756D01*
X149264876Y-111914610D01*
X149153984Y-112012852D01*
X149153978Y-112012859D01*
X149069817Y-112134787D01*
X149017278Y-112273320D01*
X149017277Y-112273322D01*
X148999419Y-112420400D01*
X144691381Y-112420400D01*
X144673522Y-112273321D01*
X144620984Y-112134790D01*
X144536820Y-112012857D01*
X144536817Y-112012854D01*
X144536815Y-112012852D01*
X144425923Y-111914610D01*
X144294731Y-111845756D01*
X144150881Y-111810300D01*
X144150880Y-111810300D01*
X144002720Y-111810300D01*
X144002719Y-111810300D01*
X143858868Y-111845756D01*
X143727676Y-111914610D01*
X143616784Y-112012852D01*
X143616778Y-112012859D01*
X143532617Y-112134787D01*
X143480078Y-112273320D01*
X143480077Y-112273322D01*
X143462219Y-112420400D01*
X141370300Y-112420400D01*
X141370300Y-111574000D01*
X161717393Y-111574000D01*
X161736123Y-111704273D01*
X161736124Y-111704278D01*
X161784543Y-111810300D01*
X161790798Y-111823996D01*
X161876988Y-111923464D01*
X161987709Y-111994620D01*
X161987712Y-111994621D01*
X161987711Y-111994621D01*
X162113990Y-112031699D01*
X162113992Y-112031700D01*
X162113993Y-112031700D01*
X162245608Y-112031700D01*
X162245608Y-112031699D01*
X162371891Y-111994620D01*
X162482612Y-111923464D01*
X162568802Y-111823996D01*
X162623476Y-111704275D01*
X162642207Y-111574000D01*
X162987393Y-111574000D01*
X163006123Y-111704273D01*
X163006124Y-111704278D01*
X163054543Y-111810300D01*
X163060798Y-111823996D01*
X163146988Y-111923464D01*
X163257709Y-111994620D01*
X163257712Y-111994621D01*
X163257711Y-111994621D01*
X163383990Y-112031699D01*
X163383992Y-112031700D01*
X163383993Y-112031700D01*
X163515608Y-112031700D01*
X163515608Y-112031699D01*
X163641891Y-111994620D01*
X163752612Y-111923464D01*
X163838802Y-111823996D01*
X163893476Y-111704275D01*
X163912207Y-111574000D01*
X164257393Y-111574000D01*
X164276123Y-111704273D01*
X164276124Y-111704278D01*
X164324543Y-111810300D01*
X164330798Y-111823996D01*
X164416988Y-111923464D01*
X164527709Y-111994620D01*
X164527712Y-111994621D01*
X164527711Y-111994621D01*
X164653990Y-112031699D01*
X164653992Y-112031700D01*
X164653993Y-112031700D01*
X164785608Y-112031700D01*
X164785608Y-112031699D01*
X164911891Y-111994620D01*
X165022612Y-111923464D01*
X165108802Y-111823996D01*
X165163476Y-111704275D01*
X165182207Y-111574000D01*
X165527393Y-111574000D01*
X165546123Y-111704273D01*
X165546124Y-111704278D01*
X165594543Y-111810300D01*
X165600798Y-111823996D01*
X165686988Y-111923464D01*
X165797709Y-111994620D01*
X165797712Y-111994621D01*
X165797711Y-111994621D01*
X165923990Y-112031699D01*
X165923992Y-112031700D01*
X165923993Y-112031700D01*
X166055608Y-112031700D01*
X166055608Y-112031699D01*
X166181891Y-111994620D01*
X166292612Y-111923464D01*
X166378802Y-111823996D01*
X166433476Y-111704275D01*
X166452207Y-111574000D01*
X166797393Y-111574000D01*
X166816123Y-111704273D01*
X166816124Y-111704278D01*
X166864543Y-111810300D01*
X166870798Y-111823996D01*
X166956988Y-111923464D01*
X167067709Y-111994620D01*
X167067712Y-111994621D01*
X167067711Y-111994621D01*
X167193990Y-112031699D01*
X167193992Y-112031700D01*
X167193993Y-112031700D01*
X167325608Y-112031700D01*
X167325608Y-112031699D01*
X167451891Y-111994620D01*
X167562612Y-111923464D01*
X167648802Y-111823996D01*
X167701227Y-111709200D01*
X175534419Y-111709200D01*
X175552277Y-111856277D01*
X175552278Y-111856279D01*
X175604744Y-111994621D01*
X175604817Y-111994812D01*
X175630279Y-112031700D01*
X175688980Y-112116743D01*
X175688982Y-112116745D01*
X175688984Y-112116747D01*
X175799876Y-112214989D01*
X175799878Y-112214990D01*
X175931067Y-112283843D01*
X176002993Y-112301571D01*
X176074919Y-112319300D01*
X176074920Y-112319300D01*
X176223081Y-112319300D01*
X176271031Y-112307481D01*
X176366933Y-112283843D01*
X176498122Y-112214990D01*
X176609020Y-112116743D01*
X176693184Y-111994810D01*
X176745722Y-111856279D01*
X176763581Y-111709200D01*
X176745722Y-111562121D01*
X176693184Y-111423590D01*
X176609020Y-111301657D01*
X176609017Y-111301654D01*
X176609015Y-111301652D01*
X176498123Y-111203410D01*
X176366931Y-111134556D01*
X176223081Y-111099100D01*
X176223080Y-111099100D01*
X176074920Y-111099100D01*
X176074919Y-111099100D01*
X175931068Y-111134556D01*
X175799876Y-111203410D01*
X175688984Y-111301652D01*
X175688978Y-111301659D01*
X175604817Y-111423587D01*
X175552278Y-111562120D01*
X175552277Y-111562122D01*
X175534419Y-111709200D01*
X167701227Y-111709200D01*
X167703476Y-111704275D01*
X167722207Y-111574000D01*
X167703476Y-111443725D01*
X167703475Y-111443724D01*
X167703475Y-111443721D01*
X167648802Y-111324005D01*
X167648802Y-111324004D01*
X167562612Y-111224536D01*
X167451891Y-111153380D01*
X167451889Y-111153379D01*
X167451887Y-111153378D01*
X167451888Y-111153378D01*
X167325609Y-111116300D01*
X167325607Y-111116300D01*
X167193993Y-111116300D01*
X167193990Y-111116300D01*
X167067711Y-111153378D01*
X166956989Y-111224535D01*
X166870799Y-111324002D01*
X166870797Y-111324005D01*
X166816124Y-111443721D01*
X166816123Y-111443726D01*
X166797393Y-111574000D01*
X166452207Y-111574000D01*
X166433476Y-111443725D01*
X166433475Y-111443724D01*
X166433475Y-111443721D01*
X166378802Y-111324005D01*
X166378802Y-111324004D01*
X166292612Y-111224536D01*
X166181891Y-111153380D01*
X166181889Y-111153379D01*
X166181887Y-111153378D01*
X166181888Y-111153378D01*
X166055609Y-111116300D01*
X166055607Y-111116300D01*
X165923993Y-111116300D01*
X165923990Y-111116300D01*
X165797711Y-111153378D01*
X165686989Y-111224535D01*
X165600799Y-111324002D01*
X165600797Y-111324005D01*
X165546124Y-111443721D01*
X165546123Y-111443726D01*
X165527393Y-111574000D01*
X165182207Y-111574000D01*
X165163476Y-111443725D01*
X165163475Y-111443724D01*
X165163475Y-111443721D01*
X165108802Y-111324005D01*
X165108802Y-111324004D01*
X165022612Y-111224536D01*
X164911891Y-111153380D01*
X164911889Y-111153379D01*
X164911887Y-111153378D01*
X164911888Y-111153378D01*
X164785609Y-111116300D01*
X164785607Y-111116300D01*
X164653993Y-111116300D01*
X164653990Y-111116300D01*
X164527711Y-111153378D01*
X164416989Y-111224535D01*
X164330799Y-111324002D01*
X164330797Y-111324005D01*
X164276124Y-111443721D01*
X164276123Y-111443726D01*
X164257393Y-111574000D01*
X163912207Y-111574000D01*
X163893476Y-111443725D01*
X163893475Y-111443724D01*
X163893475Y-111443721D01*
X163838802Y-111324005D01*
X163838802Y-111324004D01*
X163752612Y-111224536D01*
X163641891Y-111153380D01*
X163641889Y-111153379D01*
X163641887Y-111153378D01*
X163641888Y-111153378D01*
X163515609Y-111116300D01*
X163515607Y-111116300D01*
X163383993Y-111116300D01*
X163383990Y-111116300D01*
X163257711Y-111153378D01*
X163146989Y-111224535D01*
X163060799Y-111324002D01*
X163060797Y-111324005D01*
X163006124Y-111443721D01*
X163006123Y-111443726D01*
X162987393Y-111574000D01*
X162642207Y-111574000D01*
X162623476Y-111443725D01*
X162623475Y-111443724D01*
X162623475Y-111443721D01*
X162568802Y-111324005D01*
X162568802Y-111324004D01*
X162482612Y-111224536D01*
X162371891Y-111153380D01*
X162371889Y-111153379D01*
X162371887Y-111153378D01*
X162371888Y-111153378D01*
X162245609Y-111116300D01*
X162245607Y-111116300D01*
X162113993Y-111116300D01*
X162113990Y-111116300D01*
X161987711Y-111153378D01*
X161876989Y-111224535D01*
X161790799Y-111324002D01*
X161790797Y-111324005D01*
X161736124Y-111443721D01*
X161736123Y-111443726D01*
X161717393Y-111574000D01*
X141370300Y-111574000D01*
X141370300Y-110947200D01*
X184488293Y-110947200D01*
X184507023Y-111077473D01*
X184507024Y-111077478D01*
X184541687Y-111153378D01*
X184561698Y-111197196D01*
X184647888Y-111296664D01*
X184758609Y-111367820D01*
X184758612Y-111367821D01*
X184758611Y-111367821D01*
X184884890Y-111404899D01*
X184884892Y-111404900D01*
X184884893Y-111404900D01*
X185016508Y-111404900D01*
X185016508Y-111404899D01*
X185142791Y-111367820D01*
X185253512Y-111296664D01*
X185339702Y-111197196D01*
X185394376Y-111077475D01*
X185413107Y-110947200D01*
X185394376Y-110816925D01*
X185394375Y-110816924D01*
X185394375Y-110816921D01*
X185339702Y-110697205D01*
X185339702Y-110697204D01*
X185253512Y-110597736D01*
X185142791Y-110526580D01*
X185142789Y-110526579D01*
X185142787Y-110526578D01*
X185142788Y-110526578D01*
X185016509Y-110489500D01*
X185016507Y-110489500D01*
X184884893Y-110489500D01*
X184884890Y-110489500D01*
X184758611Y-110526578D01*
X184647889Y-110597735D01*
X184561699Y-110697202D01*
X184561697Y-110697205D01*
X184507024Y-110816921D01*
X184507023Y-110816926D01*
X184488293Y-110947200D01*
X141370300Y-110947200D01*
X141370300Y-108940600D01*
X157246193Y-108940600D01*
X157264923Y-109070873D01*
X157264924Y-109070878D01*
X157291732Y-109129578D01*
X157319598Y-109190596D01*
X157405788Y-109290064D01*
X157516509Y-109361220D01*
X157516512Y-109361221D01*
X157516511Y-109361221D01*
X157642790Y-109398299D01*
X157642792Y-109398300D01*
X157642793Y-109398300D01*
X157774408Y-109398300D01*
X157774408Y-109398299D01*
X157900691Y-109361220D01*
X158011412Y-109290064D01*
X158072123Y-109220000D01*
X159811593Y-109220000D01*
X159830323Y-109350273D01*
X159830324Y-109350278D01*
X159884997Y-109469994D01*
X159884998Y-109469996D01*
X159971188Y-109569464D01*
X160081909Y-109640620D01*
X160081912Y-109640621D01*
X160081911Y-109640621D01*
X160208190Y-109677699D01*
X160208192Y-109677700D01*
X160208193Y-109677700D01*
X160339808Y-109677700D01*
X160339808Y-109677699D01*
X160466091Y-109640620D01*
X160576812Y-109569464D01*
X160663002Y-109469996D01*
X160717676Y-109350275D01*
X160736407Y-109220000D01*
X162351593Y-109220000D01*
X162370323Y-109350273D01*
X162370324Y-109350278D01*
X162424997Y-109469994D01*
X162424998Y-109469996D01*
X162511188Y-109569464D01*
X162621909Y-109640620D01*
X162621912Y-109640621D01*
X162621911Y-109640621D01*
X162748190Y-109677699D01*
X162748192Y-109677700D01*
X162748193Y-109677700D01*
X162879808Y-109677700D01*
X162879808Y-109677699D01*
X163006091Y-109640620D01*
X163116812Y-109569464D01*
X163203002Y-109469996D01*
X163257676Y-109350275D01*
X163276407Y-109220000D01*
X164891593Y-109220000D01*
X164910323Y-109350273D01*
X164910324Y-109350278D01*
X164964997Y-109469994D01*
X164964998Y-109469996D01*
X165051188Y-109569464D01*
X165161909Y-109640620D01*
X165161912Y-109640621D01*
X165161911Y-109640621D01*
X165288190Y-109677699D01*
X165288192Y-109677700D01*
X165288193Y-109677700D01*
X165419808Y-109677700D01*
X165419808Y-109677699D01*
X165508014Y-109651800D01*
X169260393Y-109651800D01*
X169279123Y-109782073D01*
X169279124Y-109782078D01*
X169328317Y-109889794D01*
X169333798Y-109901796D01*
X169419988Y-110001264D01*
X169530709Y-110072420D01*
X169530712Y-110072421D01*
X169530711Y-110072421D01*
X169656990Y-110109499D01*
X169656992Y-110109500D01*
X169656993Y-110109500D01*
X169788608Y-110109500D01*
X169788608Y-110109499D01*
X169914891Y-110072420D01*
X170025612Y-110001264D01*
X170111802Y-109901796D01*
X170158201Y-109800196D01*
X170166475Y-109782078D01*
X170166476Y-109782073D01*
X170168201Y-109770075D01*
X170185207Y-109651800D01*
X170183482Y-109639800D01*
X181848593Y-109639800D01*
X181867323Y-109770073D01*
X181867324Y-109770078D01*
X181921997Y-109889794D01*
X181921998Y-109889796D01*
X182008188Y-109989264D01*
X182118909Y-110060420D01*
X182118912Y-110060421D01*
X182118911Y-110060421D01*
X182245190Y-110097499D01*
X182245192Y-110097500D01*
X182245193Y-110097500D01*
X182376808Y-110097500D01*
X182376808Y-110097499D01*
X182503091Y-110060420D01*
X182613812Y-109989264D01*
X182700002Y-109889796D01*
X182740921Y-109800194D01*
X182754675Y-109770078D01*
X182754676Y-109770073D01*
X182767558Y-109680478D01*
X182773407Y-109639800D01*
X182760524Y-109550200D01*
X185465593Y-109550200D01*
X185484323Y-109680473D01*
X185484324Y-109680478D01*
X185530724Y-109782078D01*
X185538998Y-109800196D01*
X185625188Y-109899664D01*
X185735909Y-109970820D01*
X185735912Y-109970821D01*
X185735911Y-109970821D01*
X185862190Y-110007899D01*
X185862192Y-110007900D01*
X185862193Y-110007900D01*
X185993808Y-110007900D01*
X185993808Y-110007899D01*
X186120091Y-109970820D01*
X186230812Y-109899664D01*
X186317002Y-109800196D01*
X186371676Y-109680475D01*
X186390407Y-109550200D01*
X186371676Y-109419925D01*
X186371675Y-109419924D01*
X186371675Y-109419921D01*
X186336456Y-109342804D01*
X186317002Y-109300204D01*
X186230812Y-109200736D01*
X186120091Y-109129580D01*
X186120089Y-109129579D01*
X186120087Y-109129578D01*
X186120088Y-109129578D01*
X185993809Y-109092500D01*
X185993807Y-109092500D01*
X185862193Y-109092500D01*
X185862190Y-109092500D01*
X185735911Y-109129578D01*
X185625189Y-109200735D01*
X185538999Y-109300202D01*
X185538997Y-109300205D01*
X185484324Y-109419921D01*
X185484323Y-109419926D01*
X185465593Y-109550200D01*
X182760524Y-109550200D01*
X182754676Y-109509525D01*
X182754675Y-109509524D01*
X182754675Y-109509521D01*
X182713758Y-109419926D01*
X182700002Y-109389804D01*
X182613812Y-109290336D01*
X182503091Y-109219180D01*
X182503089Y-109219179D01*
X182503087Y-109219178D01*
X182503088Y-109219178D01*
X182376809Y-109182100D01*
X182376807Y-109182100D01*
X182245193Y-109182100D01*
X182245190Y-109182100D01*
X182118911Y-109219178D01*
X182008189Y-109290335D01*
X181921999Y-109389802D01*
X181921997Y-109389805D01*
X181867324Y-109509521D01*
X181867323Y-109509526D01*
X181848593Y-109639800D01*
X170183482Y-109639800D01*
X170166476Y-109521525D01*
X170166475Y-109521524D01*
X170166475Y-109521521D01*
X170120077Y-109419925D01*
X170111802Y-109401804D01*
X170025612Y-109302336D01*
X169914891Y-109231180D01*
X169914889Y-109231179D01*
X169914887Y-109231178D01*
X169914888Y-109231178D01*
X169788609Y-109194100D01*
X169788607Y-109194100D01*
X169656993Y-109194100D01*
X169656990Y-109194100D01*
X169530711Y-109231178D01*
X169419989Y-109302335D01*
X169333799Y-109401802D01*
X169333797Y-109401805D01*
X169279124Y-109521521D01*
X169279123Y-109521526D01*
X169260393Y-109651800D01*
X165508014Y-109651800D01*
X165546091Y-109640620D01*
X165656812Y-109569464D01*
X165743002Y-109469996D01*
X165797676Y-109350275D01*
X165816407Y-109220000D01*
X165797676Y-109089725D01*
X165797675Y-109089724D01*
X165797675Y-109089721D01*
X165743002Y-108970005D01*
X165743002Y-108970004D01*
X165656812Y-108870536D01*
X165546091Y-108799380D01*
X165546089Y-108799379D01*
X165546087Y-108799378D01*
X165546088Y-108799378D01*
X165419809Y-108762300D01*
X165419807Y-108762300D01*
X165288193Y-108762300D01*
X165288190Y-108762300D01*
X165161911Y-108799378D01*
X165051189Y-108870535D01*
X164964999Y-108970002D01*
X164964997Y-108970005D01*
X164910324Y-109089721D01*
X164910323Y-109089726D01*
X164891593Y-109220000D01*
X163276407Y-109220000D01*
X163257676Y-109089725D01*
X163257675Y-109089724D01*
X163257675Y-109089721D01*
X163203002Y-108970005D01*
X163203002Y-108970004D01*
X163116812Y-108870536D01*
X163006091Y-108799380D01*
X163006089Y-108799379D01*
X163006087Y-108799378D01*
X163006088Y-108799378D01*
X162879809Y-108762300D01*
X162879807Y-108762300D01*
X162748193Y-108762300D01*
X162748190Y-108762300D01*
X162621911Y-108799378D01*
X162511189Y-108870535D01*
X162424999Y-108970002D01*
X162424997Y-108970005D01*
X162370324Y-109089721D01*
X162370323Y-109089726D01*
X162351593Y-109220000D01*
X160736407Y-109220000D01*
X160717676Y-109089725D01*
X160717675Y-109089724D01*
X160717675Y-109089721D01*
X160663002Y-108970005D01*
X160663002Y-108970004D01*
X160576812Y-108870536D01*
X160466091Y-108799380D01*
X160466089Y-108799379D01*
X160466087Y-108799378D01*
X160466088Y-108799378D01*
X160339809Y-108762300D01*
X160339807Y-108762300D01*
X160208193Y-108762300D01*
X160208190Y-108762300D01*
X160081911Y-108799378D01*
X159971189Y-108870535D01*
X159884999Y-108970002D01*
X159884997Y-108970005D01*
X159830324Y-109089721D01*
X159830323Y-109089726D01*
X159811593Y-109220000D01*
X158072123Y-109220000D01*
X158097602Y-109190596D01*
X158143668Y-109089725D01*
X158152275Y-109070878D01*
X158152276Y-109070873D01*
X158171007Y-108940600D01*
X158152276Y-108810325D01*
X158152275Y-108810324D01*
X158152275Y-108810321D01*
X158097602Y-108690605D01*
X158097602Y-108690604D01*
X158011412Y-108591136D01*
X157900691Y-108519980D01*
X157900689Y-108519979D01*
X157900687Y-108519978D01*
X157900688Y-108519978D01*
X157774409Y-108482900D01*
X157774407Y-108482900D01*
X157642793Y-108482900D01*
X157642790Y-108482900D01*
X157516511Y-108519978D01*
X157405789Y-108591135D01*
X157319599Y-108690602D01*
X157319597Y-108690605D01*
X157264924Y-108810321D01*
X157264923Y-108810326D01*
X157246193Y-108940600D01*
X141370300Y-108940600D01*
X141370300Y-107950000D01*
X161081593Y-107950000D01*
X161100323Y-108080273D01*
X161100324Y-108080278D01*
X161154997Y-108199994D01*
X161154998Y-108199996D01*
X161241188Y-108299464D01*
X161351909Y-108370620D01*
X161351912Y-108370621D01*
X161351911Y-108370621D01*
X161478190Y-108407699D01*
X161478192Y-108407700D01*
X161478193Y-108407700D01*
X161609808Y-108407700D01*
X161609808Y-108407699D01*
X161736091Y-108370620D01*
X161846812Y-108299464D01*
X161933002Y-108199996D01*
X161987676Y-108080275D01*
X162006407Y-107950000D01*
X163621593Y-107950000D01*
X163640323Y-108080273D01*
X163640324Y-108080278D01*
X163694997Y-108199994D01*
X163694998Y-108199996D01*
X163781188Y-108299464D01*
X163891909Y-108370620D01*
X163891912Y-108370621D01*
X163891911Y-108370621D01*
X164018190Y-108407699D01*
X164018192Y-108407700D01*
X164018193Y-108407700D01*
X164149808Y-108407700D01*
X164149808Y-108407699D01*
X164276091Y-108370620D01*
X164386812Y-108299464D01*
X164473002Y-108199996D01*
X164527676Y-108080275D01*
X164546407Y-107950000D01*
X166161593Y-107950000D01*
X166180323Y-108080273D01*
X166180324Y-108080278D01*
X166234997Y-108199994D01*
X166234998Y-108199996D01*
X166321188Y-108299464D01*
X166431909Y-108370620D01*
X166431912Y-108370621D01*
X166431911Y-108370621D01*
X166558190Y-108407699D01*
X166558192Y-108407700D01*
X166558193Y-108407700D01*
X166689808Y-108407700D01*
X166689808Y-108407699D01*
X166816091Y-108370620D01*
X166926812Y-108299464D01*
X167013002Y-108199996D01*
X167067676Y-108080275D01*
X167086407Y-107950000D01*
X167067676Y-107819725D01*
X167067675Y-107819724D01*
X167067675Y-107819721D01*
X167032456Y-107742604D01*
X167013002Y-107700004D01*
X166926812Y-107600536D01*
X166816091Y-107529380D01*
X166816089Y-107529379D01*
X166816087Y-107529378D01*
X166816088Y-107529378D01*
X166689809Y-107492300D01*
X166689807Y-107492300D01*
X166558193Y-107492300D01*
X166558190Y-107492300D01*
X166431911Y-107529378D01*
X166321189Y-107600535D01*
X166234999Y-107700002D01*
X166234997Y-107700005D01*
X166180324Y-107819721D01*
X166180323Y-107819726D01*
X166161593Y-107950000D01*
X164546407Y-107950000D01*
X164527676Y-107819725D01*
X164527675Y-107819724D01*
X164527675Y-107819721D01*
X164492456Y-107742604D01*
X164473002Y-107700004D01*
X164386812Y-107600536D01*
X164276091Y-107529380D01*
X164276089Y-107529379D01*
X164276087Y-107529378D01*
X164276088Y-107529378D01*
X164149809Y-107492300D01*
X164149807Y-107492300D01*
X164018193Y-107492300D01*
X164018190Y-107492300D01*
X163891911Y-107529378D01*
X163781189Y-107600535D01*
X163694999Y-107700002D01*
X163694997Y-107700005D01*
X163640324Y-107819721D01*
X163640323Y-107819726D01*
X163621593Y-107950000D01*
X162006407Y-107950000D01*
X161987676Y-107819725D01*
X161987675Y-107819724D01*
X161987675Y-107819721D01*
X161952456Y-107742604D01*
X161933002Y-107700004D01*
X161846812Y-107600536D01*
X161736091Y-107529380D01*
X161736089Y-107529379D01*
X161736087Y-107529378D01*
X161736088Y-107529378D01*
X161609809Y-107492300D01*
X161609807Y-107492300D01*
X161478193Y-107492300D01*
X161478190Y-107492300D01*
X161351911Y-107529378D01*
X161241189Y-107600535D01*
X161154999Y-107700002D01*
X161154997Y-107700005D01*
X161100324Y-107819721D01*
X161100323Y-107819726D01*
X161081593Y-107950000D01*
X141370300Y-107950000D01*
X141370300Y-107061000D01*
X157398593Y-107061000D01*
X157417323Y-107191273D01*
X157417324Y-107191278D01*
X157471997Y-107310994D01*
X157471998Y-107310996D01*
X157558188Y-107410464D01*
X157668909Y-107481620D01*
X157668912Y-107481621D01*
X157668911Y-107481621D01*
X157795190Y-107518699D01*
X157795192Y-107518700D01*
X157795193Y-107518700D01*
X157926808Y-107518700D01*
X157926808Y-107518699D01*
X158053091Y-107481620D01*
X158163812Y-107410464D01*
X158246532Y-107315000D01*
X184398793Y-107315000D01*
X184417523Y-107445273D01*
X184417524Y-107445278D01*
X184472197Y-107564994D01*
X184472198Y-107564996D01*
X184558388Y-107664464D01*
X184669109Y-107735620D01*
X184669112Y-107735621D01*
X184669111Y-107735621D01*
X184795390Y-107772699D01*
X184795392Y-107772700D01*
X184795393Y-107772700D01*
X184927008Y-107772700D01*
X184927008Y-107772699D01*
X185053291Y-107735620D01*
X185164012Y-107664464D01*
X185250202Y-107564996D01*
X185304876Y-107445275D01*
X185323607Y-107315000D01*
X185304876Y-107184725D01*
X185304875Y-107184724D01*
X185304875Y-107184721D01*
X185250202Y-107065005D01*
X185250202Y-107065004D01*
X185164012Y-106965536D01*
X185053291Y-106894380D01*
X185053289Y-106894379D01*
X185053287Y-106894378D01*
X185053288Y-106894378D01*
X184927009Y-106857300D01*
X184927007Y-106857300D01*
X184795393Y-106857300D01*
X184795390Y-106857300D01*
X184669111Y-106894378D01*
X184558389Y-106965535D01*
X184472199Y-107065002D01*
X184472197Y-107065005D01*
X184417524Y-107184721D01*
X184417523Y-107184726D01*
X184398793Y-107315000D01*
X158246532Y-107315000D01*
X158250002Y-107310996D01*
X158304676Y-107191275D01*
X158323407Y-107061000D01*
X158304676Y-106930725D01*
X158304675Y-106930724D01*
X158304675Y-106930721D01*
X158250002Y-106811005D01*
X158250002Y-106811004D01*
X158163812Y-106711536D01*
X158053091Y-106640380D01*
X158053089Y-106640379D01*
X158053087Y-106640378D01*
X158053088Y-106640378D01*
X157926809Y-106603300D01*
X157926807Y-106603300D01*
X157795193Y-106603300D01*
X157795190Y-106603300D01*
X157668911Y-106640378D01*
X157558189Y-106711535D01*
X157471999Y-106811002D01*
X157471997Y-106811005D01*
X157417324Y-106930721D01*
X157417323Y-106930726D01*
X157398593Y-107061000D01*
X141370300Y-107061000D01*
X141370300Y-106172000D01*
X176829593Y-106172000D01*
X176848323Y-106302273D01*
X176848324Y-106302278D01*
X176902182Y-106420210D01*
X176902998Y-106421996D01*
X176989188Y-106521464D01*
X177099909Y-106592620D01*
X177099912Y-106592621D01*
X177099911Y-106592621D01*
X177226190Y-106629699D01*
X177226192Y-106629700D01*
X177226193Y-106629700D01*
X177357808Y-106629700D01*
X177357808Y-106629699D01*
X177484091Y-106592620D01*
X177594812Y-106521464D01*
X177681002Y-106421996D01*
X177735676Y-106302275D01*
X177754407Y-106172000D01*
X177749030Y-106134600D01*
X181969019Y-106134600D01*
X181986877Y-106281677D01*
X181986878Y-106281679D01*
X182039417Y-106420212D01*
X182040649Y-106421997D01*
X182123580Y-106542143D01*
X182123582Y-106542145D01*
X182123584Y-106542147D01*
X182234476Y-106640389D01*
X182234478Y-106640390D01*
X182365667Y-106709243D01*
X182437593Y-106726971D01*
X182509519Y-106744700D01*
X182509520Y-106744700D01*
X182657681Y-106744700D01*
X182705631Y-106732881D01*
X182801533Y-106709243D01*
X182932722Y-106640390D01*
X183043620Y-106542143D01*
X183127784Y-106420210D01*
X183180322Y-106281679D01*
X183198181Y-106134600D01*
X183180322Y-105987521D01*
X183127784Y-105848990D01*
X183043620Y-105727057D01*
X183043617Y-105727054D01*
X183043615Y-105727052D01*
X182932723Y-105628810D01*
X182801531Y-105559956D01*
X182657681Y-105524500D01*
X182657680Y-105524500D01*
X182509520Y-105524500D01*
X182509519Y-105524500D01*
X182365668Y-105559956D01*
X182234476Y-105628810D01*
X182123584Y-105727052D01*
X182123578Y-105727059D01*
X182039417Y-105848987D01*
X181986878Y-105987520D01*
X181986877Y-105987522D01*
X181969019Y-106134600D01*
X177749030Y-106134600D01*
X177735676Y-106041725D01*
X177735675Y-106041724D01*
X177735675Y-106041721D01*
X177681002Y-105922005D01*
X177681002Y-105922004D01*
X177594812Y-105822536D01*
X177484091Y-105751380D01*
X177484089Y-105751379D01*
X177484087Y-105751378D01*
X177484088Y-105751378D01*
X177357809Y-105714300D01*
X177357807Y-105714300D01*
X177226193Y-105714300D01*
X177226190Y-105714300D01*
X177099911Y-105751378D01*
X176989189Y-105822535D01*
X176902999Y-105922002D01*
X176902997Y-105922005D01*
X176848324Y-106041721D01*
X176848323Y-106041726D01*
X176829593Y-106172000D01*
X141370300Y-106172000D01*
X141370300Y-104902000D01*
X153588593Y-104902000D01*
X153607323Y-105032273D01*
X153607324Y-105032278D01*
X153661997Y-105151994D01*
X153661998Y-105151996D01*
X153748188Y-105251464D01*
X153858909Y-105322620D01*
X153858912Y-105322621D01*
X153858911Y-105322621D01*
X153985190Y-105359699D01*
X153985192Y-105359700D01*
X153985193Y-105359700D01*
X154116808Y-105359700D01*
X154116808Y-105359699D01*
X154243091Y-105322620D01*
X154353812Y-105251464D01*
X154440002Y-105151996D01*
X154494676Y-105032275D01*
X154513407Y-104902000D01*
X154494676Y-104771725D01*
X154494675Y-104771724D01*
X154494675Y-104771721D01*
X154440002Y-104652005D01*
X154440002Y-104652004D01*
X154436532Y-104648000D01*
X176702593Y-104648000D01*
X176721323Y-104778273D01*
X176721324Y-104778278D01*
X176775997Y-104897994D01*
X176775998Y-104897996D01*
X176862188Y-104997464D01*
X176972909Y-105068620D01*
X176972912Y-105068621D01*
X176972911Y-105068621D01*
X177099190Y-105105699D01*
X177099192Y-105105700D01*
X177099193Y-105105700D01*
X177230808Y-105105700D01*
X177230808Y-105105699D01*
X177357091Y-105068620D01*
X177467812Y-104997464D01*
X177554002Y-104897996D01*
X177608676Y-104778275D01*
X177627407Y-104648000D01*
X177608676Y-104517725D01*
X177608675Y-104517724D01*
X177608675Y-104517721D01*
X177554002Y-104398005D01*
X177554002Y-104398004D01*
X177467812Y-104298536D01*
X177357091Y-104227380D01*
X177357089Y-104227379D01*
X177357087Y-104227378D01*
X177357088Y-104227378D01*
X177230809Y-104190300D01*
X177230807Y-104190300D01*
X177099193Y-104190300D01*
X177099190Y-104190300D01*
X176972911Y-104227378D01*
X176862189Y-104298535D01*
X176775999Y-104398002D01*
X176775997Y-104398005D01*
X176721324Y-104517721D01*
X176721323Y-104517726D01*
X176702593Y-104648000D01*
X154436532Y-104648000D01*
X154353812Y-104552536D01*
X154243091Y-104481380D01*
X154243089Y-104481379D01*
X154243087Y-104481378D01*
X154243088Y-104481378D01*
X154116809Y-104444300D01*
X154116807Y-104444300D01*
X153985193Y-104444300D01*
X153985190Y-104444300D01*
X153858911Y-104481378D01*
X153748189Y-104552535D01*
X153661999Y-104652002D01*
X153661997Y-104652005D01*
X153607324Y-104771721D01*
X153607323Y-104771726D01*
X153588593Y-104902000D01*
X141370300Y-104902000D01*
X141370300Y-103886000D01*
X146400393Y-103886000D01*
X146419123Y-104016273D01*
X146419124Y-104016278D01*
X146473797Y-104135994D01*
X146473798Y-104135996D01*
X146559988Y-104235464D01*
X146670709Y-104306620D01*
X146670712Y-104306621D01*
X146670711Y-104306621D01*
X146796990Y-104343699D01*
X146796992Y-104343700D01*
X146796993Y-104343700D01*
X146928608Y-104343700D01*
X146928608Y-104343699D01*
X147054891Y-104306620D01*
X147165612Y-104235464D01*
X147248332Y-104140000D01*
X148127593Y-104140000D01*
X148146323Y-104270273D01*
X148146324Y-104270278D01*
X148200997Y-104389994D01*
X148200998Y-104389996D01*
X148287188Y-104489464D01*
X148397909Y-104560620D01*
X148397912Y-104560621D01*
X148397911Y-104560621D01*
X148524190Y-104597699D01*
X148524192Y-104597700D01*
X148524193Y-104597700D01*
X148655808Y-104597700D01*
X148655808Y-104597699D01*
X148782091Y-104560620D01*
X148892812Y-104489464D01*
X148979002Y-104389996D01*
X149033676Y-104270275D01*
X149052407Y-104140000D01*
X149033676Y-104009725D01*
X149033675Y-104009724D01*
X149033675Y-104009721D01*
X148979002Y-103890005D01*
X148979002Y-103890004D01*
X148892812Y-103790536D01*
X148782091Y-103719380D01*
X148782089Y-103719379D01*
X148782087Y-103719378D01*
X148782088Y-103719378D01*
X148655809Y-103682300D01*
X148655807Y-103682300D01*
X148524193Y-103682300D01*
X148524190Y-103682300D01*
X148397911Y-103719378D01*
X148287189Y-103790535D01*
X148200999Y-103890002D01*
X148200997Y-103890005D01*
X148146324Y-104009721D01*
X148146323Y-104009726D01*
X148127593Y-104140000D01*
X147248332Y-104140000D01*
X147251802Y-104135996D01*
X147306476Y-104016275D01*
X147325207Y-103886000D01*
X147306476Y-103755725D01*
X147306475Y-103755724D01*
X147306475Y-103755721D01*
X147251802Y-103636005D01*
X147251802Y-103636004D01*
X147165612Y-103536536D01*
X147054891Y-103465380D01*
X147054889Y-103465379D01*
X147054887Y-103465378D01*
X147054888Y-103465378D01*
X146928609Y-103428300D01*
X146928607Y-103428300D01*
X146796993Y-103428300D01*
X146796990Y-103428300D01*
X146670711Y-103465378D01*
X146559989Y-103536535D01*
X146473799Y-103636002D01*
X146473797Y-103636005D01*
X146419124Y-103755721D01*
X146419123Y-103755726D01*
X146400393Y-103886000D01*
X141370300Y-103886000D01*
X141370300Y-103378000D01*
X150413593Y-103378000D01*
X150432323Y-103508273D01*
X150432324Y-103508278D01*
X150486997Y-103627994D01*
X150486998Y-103627996D01*
X150573188Y-103727464D01*
X150683909Y-103798620D01*
X150683912Y-103798621D01*
X150683911Y-103798621D01*
X150810190Y-103835699D01*
X150810192Y-103835700D01*
X150810193Y-103835700D01*
X150941808Y-103835700D01*
X150941808Y-103835699D01*
X151068091Y-103798620D01*
X151178812Y-103727464D01*
X151265002Y-103627996D01*
X151319676Y-103508275D01*
X151338407Y-103378000D01*
X151319676Y-103247725D01*
X151319675Y-103247724D01*
X151319675Y-103247721D01*
X151265002Y-103128005D01*
X151265002Y-103128004D01*
X151178812Y-103028536D01*
X151068091Y-102957380D01*
X151068089Y-102957379D01*
X151068087Y-102957378D01*
X151068088Y-102957378D01*
X150941809Y-102920300D01*
X150941807Y-102920300D01*
X150810193Y-102920300D01*
X150810190Y-102920300D01*
X150683911Y-102957378D01*
X150573189Y-103028535D01*
X150486999Y-103128002D01*
X150486997Y-103128005D01*
X150432324Y-103247721D01*
X150432323Y-103247726D01*
X150413593Y-103378000D01*
X141370300Y-103378000D01*
X141370300Y-102870000D01*
X148381593Y-102870000D01*
X148400323Y-103000273D01*
X148400324Y-103000278D01*
X148454997Y-103119994D01*
X148454998Y-103119996D01*
X148541188Y-103219464D01*
X148651909Y-103290620D01*
X148651912Y-103290621D01*
X148651911Y-103290621D01*
X148778190Y-103327699D01*
X148778192Y-103327700D01*
X148778193Y-103327700D01*
X148909808Y-103327700D01*
X148909808Y-103327699D01*
X149036091Y-103290620D01*
X149146812Y-103219464D01*
X149233002Y-103119996D01*
X149287676Y-103000275D01*
X149306407Y-102870000D01*
X149287676Y-102739725D01*
X149287675Y-102739724D01*
X149287675Y-102739721D01*
X149233002Y-102620005D01*
X149233002Y-102620004D01*
X149229532Y-102616000D01*
X152572593Y-102616000D01*
X152591323Y-102746273D01*
X152591324Y-102746278D01*
X152645997Y-102865994D01*
X152645998Y-102865996D01*
X152732188Y-102965464D01*
X152842909Y-103036620D01*
X152842912Y-103036621D01*
X152842911Y-103036621D01*
X152969190Y-103073699D01*
X152969192Y-103073700D01*
X152969193Y-103073700D01*
X153100808Y-103073700D01*
X153100808Y-103073699D01*
X153227091Y-103036620D01*
X153337812Y-102965464D01*
X153424002Y-102865996D01*
X153478676Y-102746275D01*
X153497407Y-102616000D01*
X153478676Y-102485725D01*
X153478675Y-102485724D01*
X153478675Y-102485721D01*
X153424002Y-102366005D01*
X153424002Y-102366004D01*
X153337812Y-102266536D01*
X153227091Y-102195380D01*
X153227089Y-102195379D01*
X153227087Y-102195378D01*
X153227088Y-102195378D01*
X153100809Y-102158300D01*
X153100807Y-102158300D01*
X152969193Y-102158300D01*
X152969190Y-102158300D01*
X152842911Y-102195378D01*
X152732189Y-102266535D01*
X152645999Y-102366002D01*
X152645997Y-102366005D01*
X152591324Y-102485721D01*
X152591323Y-102485726D01*
X152572593Y-102616000D01*
X149229532Y-102616000D01*
X149146812Y-102520536D01*
X149036091Y-102449380D01*
X149036089Y-102449379D01*
X149036087Y-102449378D01*
X149036088Y-102449378D01*
X148909809Y-102412300D01*
X148909807Y-102412300D01*
X148778193Y-102412300D01*
X148778190Y-102412300D01*
X148651911Y-102449378D01*
X148541189Y-102520535D01*
X148454999Y-102620002D01*
X148454997Y-102620005D01*
X148400324Y-102739721D01*
X148400323Y-102739726D01*
X148381593Y-102870000D01*
X141370300Y-102870000D01*
X141370300Y-101396800D01*
X143377793Y-101396800D01*
X143396523Y-101527073D01*
X143396524Y-101527078D01*
X143431656Y-101604005D01*
X143451198Y-101646796D01*
X143537388Y-101746264D01*
X143648109Y-101817420D01*
X143648112Y-101817421D01*
X143648111Y-101817421D01*
X143746106Y-101846194D01*
X143772690Y-101854000D01*
X143774390Y-101854499D01*
X143774392Y-101854500D01*
X143774393Y-101854500D01*
X143906008Y-101854500D01*
X143906008Y-101854499D01*
X143907707Y-101854000D01*
X153588593Y-101854000D01*
X153607323Y-101984273D01*
X153607324Y-101984278D01*
X153661997Y-102103994D01*
X153661998Y-102103996D01*
X153748188Y-102203464D01*
X153858909Y-102274620D01*
X153858912Y-102274621D01*
X153858911Y-102274621D01*
X153985190Y-102311699D01*
X153985192Y-102311700D01*
X153985193Y-102311700D01*
X154116808Y-102311700D01*
X154116808Y-102311699D01*
X154243091Y-102274620D01*
X154353812Y-102203464D01*
X154436532Y-102108000D01*
X157271593Y-102108000D01*
X157290323Y-102238273D01*
X157290324Y-102238278D01*
X157344997Y-102357994D01*
X157344998Y-102357996D01*
X157431188Y-102457464D01*
X157541909Y-102528620D01*
X157541912Y-102528621D01*
X157541911Y-102528621D01*
X157668190Y-102565699D01*
X157668192Y-102565700D01*
X157668193Y-102565700D01*
X157799808Y-102565700D01*
X157799808Y-102565699D01*
X157926091Y-102528620D01*
X158036812Y-102457464D01*
X158123002Y-102357996D01*
X158177676Y-102238275D01*
X158196407Y-102108000D01*
X158177676Y-101977725D01*
X158177675Y-101977724D01*
X158177675Y-101977721D01*
X158123002Y-101858005D01*
X158123002Y-101858004D01*
X158036812Y-101758536D01*
X157926091Y-101687380D01*
X157926089Y-101687379D01*
X157926087Y-101687378D01*
X157926088Y-101687378D01*
X157799809Y-101650300D01*
X157799807Y-101650300D01*
X157668193Y-101650300D01*
X157668190Y-101650300D01*
X157541911Y-101687378D01*
X157431189Y-101758535D01*
X157344999Y-101858002D01*
X157344997Y-101858005D01*
X157290324Y-101977721D01*
X157290323Y-101977726D01*
X157271593Y-102108000D01*
X154436532Y-102108000D01*
X154440002Y-102103996D01*
X154494676Y-101984275D01*
X154513407Y-101854000D01*
X154494676Y-101723725D01*
X154494675Y-101723724D01*
X154494675Y-101723721D01*
X154440002Y-101604005D01*
X154440002Y-101604004D01*
X154353812Y-101504536D01*
X154243091Y-101433380D01*
X154243089Y-101433379D01*
X154243087Y-101433378D01*
X154243088Y-101433378D01*
X154116809Y-101396300D01*
X154116807Y-101396300D01*
X153985193Y-101396300D01*
X153985190Y-101396300D01*
X153858911Y-101433378D01*
X153748189Y-101504535D01*
X153661999Y-101604002D01*
X153661997Y-101604005D01*
X153607324Y-101723721D01*
X153607323Y-101723726D01*
X153588593Y-101854000D01*
X143907707Y-101854000D01*
X144032291Y-101817420D01*
X144143012Y-101746264D01*
X144229202Y-101646796D01*
X144283876Y-101527075D01*
X144302607Y-101396800D01*
X144283876Y-101266525D01*
X144283875Y-101266524D01*
X144283875Y-101266521D01*
X144229202Y-101146805D01*
X144229202Y-101146804D01*
X144143012Y-101047336D01*
X144093941Y-101015800D01*
X154502993Y-101015800D01*
X154521723Y-101146073D01*
X154521724Y-101146078D01*
X154576397Y-101265794D01*
X154576398Y-101265796D01*
X154662588Y-101365264D01*
X154773309Y-101436420D01*
X154773312Y-101436421D01*
X154773311Y-101436421D01*
X154899590Y-101473499D01*
X154899592Y-101473500D01*
X154899593Y-101473500D01*
X155031208Y-101473500D01*
X155031208Y-101473499D01*
X155157491Y-101436420D01*
X155268212Y-101365264D01*
X155354402Y-101265796D01*
X155409076Y-101146075D01*
X155427807Y-101015800D01*
X155409076Y-100885525D01*
X155409075Y-100885524D01*
X155409075Y-100885521D01*
X155354402Y-100765805D01*
X155354402Y-100765804D01*
X155268212Y-100666336D01*
X155157491Y-100595180D01*
X155157489Y-100595179D01*
X155157487Y-100595178D01*
X155157488Y-100595178D01*
X155032912Y-100558600D01*
X156941619Y-100558600D01*
X156959477Y-100705677D01*
X156959478Y-100705679D01*
X156982280Y-100765804D01*
X157012017Y-100844212D01*
X157040534Y-100885526D01*
X157096180Y-100966143D01*
X157096182Y-100966145D01*
X157096184Y-100966147D01*
X157207076Y-101064389D01*
X157207078Y-101064390D01*
X157338267Y-101133243D01*
X157393290Y-101146805D01*
X157482119Y-101168700D01*
X157482120Y-101168700D01*
X157630281Y-101168700D01*
X157719110Y-101146805D01*
X157774133Y-101133243D01*
X157905322Y-101064390D01*
X158016220Y-100966143D01*
X158100384Y-100844210D01*
X158152922Y-100705679D01*
X158170781Y-100558600D01*
X158152922Y-100411521D01*
X158100384Y-100272990D01*
X158016220Y-100151057D01*
X158016217Y-100151054D01*
X158016215Y-100151052D01*
X157905323Y-100052810D01*
X157774131Y-99983956D01*
X157630281Y-99948500D01*
X157630280Y-99948500D01*
X157482120Y-99948500D01*
X157482119Y-99948500D01*
X157338268Y-99983956D01*
X157207076Y-100052810D01*
X157096184Y-100151052D01*
X157096178Y-100151059D01*
X157012017Y-100272987D01*
X156959478Y-100411520D01*
X156959477Y-100411522D01*
X156941619Y-100558600D01*
X155032912Y-100558600D01*
X155031209Y-100558100D01*
X155031207Y-100558100D01*
X154899593Y-100558100D01*
X154899590Y-100558100D01*
X154773311Y-100595178D01*
X154662589Y-100666335D01*
X154576399Y-100765802D01*
X154576397Y-100765805D01*
X154521724Y-100885521D01*
X154521723Y-100885526D01*
X154502993Y-101015800D01*
X144093941Y-101015800D01*
X144032291Y-100976180D01*
X144032289Y-100976179D01*
X144032287Y-100976178D01*
X144032288Y-100976178D01*
X143906009Y-100939100D01*
X143906007Y-100939100D01*
X143774393Y-100939100D01*
X143774390Y-100939100D01*
X143648111Y-100976178D01*
X143537389Y-101047335D01*
X143451199Y-101146802D01*
X143451197Y-101146805D01*
X143396524Y-101266521D01*
X143396523Y-101266526D01*
X143377793Y-101396800D01*
X141370300Y-101396800D01*
X141370300Y-99570800D01*
X170717593Y-99570800D01*
X170736323Y-99701073D01*
X170736324Y-99701078D01*
X170781443Y-99799873D01*
X170790998Y-99820796D01*
X170877188Y-99920264D01*
X170987909Y-99991420D01*
X170987912Y-99991421D01*
X170987911Y-99991421D01*
X171114190Y-100028499D01*
X171114192Y-100028500D01*
X171114193Y-100028500D01*
X171245808Y-100028500D01*
X171245808Y-100028499D01*
X171372091Y-99991420D01*
X171482812Y-99920264D01*
X171569002Y-99820796D01*
X171623676Y-99701075D01*
X171628201Y-99669600D01*
X184930193Y-99669600D01*
X184948923Y-99799873D01*
X184948924Y-99799878D01*
X185003597Y-99919594D01*
X185003598Y-99919596D01*
X185089788Y-100019064D01*
X185200509Y-100090220D01*
X185200512Y-100090221D01*
X185200511Y-100090221D01*
X185326790Y-100127299D01*
X185326792Y-100127300D01*
X185326793Y-100127300D01*
X185458408Y-100127300D01*
X185458408Y-100127299D01*
X185584691Y-100090220D01*
X185695412Y-100019064D01*
X185781602Y-99919596D01*
X185820511Y-99834395D01*
X185836275Y-99799878D01*
X185836276Y-99799873D01*
X185855007Y-99669600D01*
X185836276Y-99539325D01*
X185836275Y-99539324D01*
X185836275Y-99539321D01*
X185801056Y-99462204D01*
X185781602Y-99419604D01*
X185695412Y-99320136D01*
X185584691Y-99248980D01*
X185584689Y-99248979D01*
X185584687Y-99248978D01*
X185584688Y-99248978D01*
X185458409Y-99211900D01*
X185458407Y-99211900D01*
X185326793Y-99211900D01*
X185326790Y-99211900D01*
X185200511Y-99248978D01*
X185089789Y-99320135D01*
X185003599Y-99419602D01*
X185003597Y-99419605D01*
X184948924Y-99539321D01*
X184948923Y-99539326D01*
X184930193Y-99669600D01*
X171628201Y-99669600D01*
X171642407Y-99570800D01*
X171623676Y-99440525D01*
X171623675Y-99440524D01*
X171623675Y-99440521D01*
X171569002Y-99320805D01*
X171569002Y-99320804D01*
X171482812Y-99221336D01*
X171372091Y-99150180D01*
X171372089Y-99150179D01*
X171372087Y-99150178D01*
X171372088Y-99150178D01*
X171245809Y-99113100D01*
X171245807Y-99113100D01*
X171114193Y-99113100D01*
X171114190Y-99113100D01*
X170987911Y-99150178D01*
X170877189Y-99221335D01*
X170790999Y-99320802D01*
X170790997Y-99320805D01*
X170736324Y-99440521D01*
X170736323Y-99440526D01*
X170717593Y-99570800D01*
X141370300Y-99570800D01*
X141370300Y-98171000D01*
X178099593Y-98171000D01*
X178118323Y-98301273D01*
X178118324Y-98301278D01*
X178172997Y-98420994D01*
X178172998Y-98420996D01*
X178259188Y-98520464D01*
X178369909Y-98591620D01*
X178369912Y-98591621D01*
X178369911Y-98591621D01*
X178496190Y-98628699D01*
X178496192Y-98628700D01*
X178496193Y-98628700D01*
X178627808Y-98628700D01*
X178627808Y-98628699D01*
X178754091Y-98591620D01*
X178864812Y-98520464D01*
X178951002Y-98420996D01*
X179005676Y-98301275D01*
X179024407Y-98171000D01*
X179005676Y-98040725D01*
X179005675Y-98040724D01*
X179005675Y-98040721D01*
X178951002Y-97921005D01*
X178951002Y-97921004D01*
X178864812Y-97821536D01*
X178754091Y-97750380D01*
X178754089Y-97750379D01*
X178754087Y-97750378D01*
X178754088Y-97750378D01*
X178627809Y-97713300D01*
X178627807Y-97713300D01*
X178496193Y-97713300D01*
X178496190Y-97713300D01*
X178369911Y-97750378D01*
X178259189Y-97821535D01*
X178172999Y-97921002D01*
X178172997Y-97921005D01*
X178118324Y-98040721D01*
X178118323Y-98040726D01*
X178099593Y-98171000D01*
X141370300Y-98171000D01*
X141370300Y-97570800D01*
X173717593Y-97570800D01*
X173736323Y-97701073D01*
X173736324Y-97701078D01*
X173762532Y-97758464D01*
X173790998Y-97820796D01*
X173877188Y-97920264D01*
X173987909Y-97991420D01*
X173987912Y-97991421D01*
X173987911Y-97991421D01*
X174114190Y-98028499D01*
X174114192Y-98028500D01*
X174114193Y-98028500D01*
X174245808Y-98028500D01*
X174245808Y-98028499D01*
X174372091Y-97991420D01*
X174482812Y-97920264D01*
X174569002Y-97820796D01*
X174622970Y-97702621D01*
X174623675Y-97701078D01*
X174623676Y-97701073D01*
X174642407Y-97570800D01*
X174623676Y-97440525D01*
X174623675Y-97440524D01*
X174623675Y-97440521D01*
X174609280Y-97409000D01*
X176829593Y-97409000D01*
X176848323Y-97539273D01*
X176848324Y-97539278D01*
X176902997Y-97658994D01*
X176902998Y-97658996D01*
X176989188Y-97758464D01*
X177099909Y-97829620D01*
X177099912Y-97829621D01*
X177099911Y-97829621D01*
X177226190Y-97866699D01*
X177226192Y-97866700D01*
X177226193Y-97866700D01*
X177357808Y-97866700D01*
X177357808Y-97866699D01*
X177484091Y-97829620D01*
X177594812Y-97758464D01*
X177681002Y-97658996D01*
X177735676Y-97539275D01*
X177754407Y-97409000D01*
X177736147Y-97282000D01*
X181020593Y-97282000D01*
X181039323Y-97412273D01*
X181039324Y-97412278D01*
X181093997Y-97531994D01*
X181093998Y-97531996D01*
X181180188Y-97631464D01*
X181290909Y-97702620D01*
X181290912Y-97702621D01*
X181290911Y-97702621D01*
X181417190Y-97739699D01*
X181417192Y-97739700D01*
X181417193Y-97739700D01*
X181548808Y-97739700D01*
X181548808Y-97739699D01*
X181675091Y-97702620D01*
X181785812Y-97631464D01*
X181872002Y-97531996D01*
X181926676Y-97412275D01*
X181945407Y-97282000D01*
X181926676Y-97151725D01*
X181926675Y-97151724D01*
X181926675Y-97151721D01*
X181872002Y-97032005D01*
X181872002Y-97032004D01*
X181785812Y-96932536D01*
X181675091Y-96861380D01*
X181675089Y-96861379D01*
X181675087Y-96861378D01*
X181675088Y-96861378D01*
X181548809Y-96824300D01*
X181548807Y-96824300D01*
X181417193Y-96824300D01*
X181417190Y-96824300D01*
X181290911Y-96861378D01*
X181180189Y-96932535D01*
X181093999Y-97032002D01*
X181093997Y-97032005D01*
X181039324Y-97151721D01*
X181039323Y-97151726D01*
X181020593Y-97282000D01*
X177736147Y-97282000D01*
X177735676Y-97278725D01*
X177735675Y-97278724D01*
X177735675Y-97278721D01*
X177681002Y-97159005D01*
X177681002Y-97159004D01*
X177594812Y-97059536D01*
X177484091Y-96988380D01*
X177484089Y-96988379D01*
X177484087Y-96988378D01*
X177484088Y-96988378D01*
X177357809Y-96951300D01*
X177357807Y-96951300D01*
X177226193Y-96951300D01*
X177226190Y-96951300D01*
X177099911Y-96988378D01*
X176989189Y-97059535D01*
X176902999Y-97159002D01*
X176902997Y-97159005D01*
X176848324Y-97278721D01*
X176848323Y-97278726D01*
X176829593Y-97409000D01*
X174609280Y-97409000D01*
X174569002Y-97320805D01*
X174569002Y-97320804D01*
X174482812Y-97221336D01*
X174372091Y-97150180D01*
X174372089Y-97150179D01*
X174372087Y-97150178D01*
X174372088Y-97150178D01*
X174245809Y-97113100D01*
X174245807Y-97113100D01*
X174114193Y-97113100D01*
X174114190Y-97113100D01*
X173987911Y-97150178D01*
X173877189Y-97221335D01*
X173790999Y-97320802D01*
X173790997Y-97320805D01*
X173736324Y-97440521D01*
X173736323Y-97440526D01*
X173717593Y-97570800D01*
X141370300Y-97570800D01*
X141370300Y-96570800D01*
X170717593Y-96570800D01*
X170736323Y-96701073D01*
X170736324Y-96701078D01*
X170767799Y-96769997D01*
X170790998Y-96820796D01*
X170877188Y-96920264D01*
X170987909Y-96991420D01*
X170987912Y-96991421D01*
X170987911Y-96991421D01*
X171114190Y-97028499D01*
X171114192Y-97028500D01*
X171114193Y-97028500D01*
X171245808Y-97028500D01*
X171245808Y-97028499D01*
X171372091Y-96991420D01*
X171482812Y-96920264D01*
X171569002Y-96820796D01*
X171623676Y-96701075D01*
X171642407Y-96570800D01*
X171635103Y-96520000D01*
X179623593Y-96520000D01*
X179642323Y-96650273D01*
X179642324Y-96650278D01*
X179696997Y-96769994D01*
X179696998Y-96769996D01*
X179783188Y-96869464D01*
X179893909Y-96940620D01*
X179893912Y-96940621D01*
X179893911Y-96940621D01*
X180020190Y-96977699D01*
X180020192Y-96977700D01*
X180020193Y-96977700D01*
X180151808Y-96977700D01*
X180151808Y-96977699D01*
X180278091Y-96940620D01*
X180388812Y-96869464D01*
X180475002Y-96769996D01*
X180529676Y-96650275D01*
X180548407Y-96520000D01*
X180529676Y-96389725D01*
X180529675Y-96389724D01*
X180529675Y-96389721D01*
X180475002Y-96270005D01*
X180475002Y-96270004D01*
X180388812Y-96170536D01*
X180278091Y-96099380D01*
X180278089Y-96099379D01*
X180278087Y-96099378D01*
X180278088Y-96099378D01*
X180151809Y-96062300D01*
X180151807Y-96062300D01*
X180020193Y-96062300D01*
X180020190Y-96062300D01*
X179893911Y-96099378D01*
X179783189Y-96170535D01*
X179696999Y-96270002D01*
X179696997Y-96270005D01*
X179642324Y-96389721D01*
X179642323Y-96389726D01*
X179623593Y-96520000D01*
X171635103Y-96520000D01*
X171623676Y-96440525D01*
X171623675Y-96440524D01*
X171623675Y-96440521D01*
X171569002Y-96320805D01*
X171569002Y-96320804D01*
X171482812Y-96221336D01*
X171372091Y-96150180D01*
X171372089Y-96150179D01*
X171372087Y-96150178D01*
X171372088Y-96150178D01*
X171245809Y-96113100D01*
X171245807Y-96113100D01*
X171114193Y-96113100D01*
X171114190Y-96113100D01*
X170987911Y-96150178D01*
X170877189Y-96221335D01*
X170790999Y-96320802D01*
X170790997Y-96320805D01*
X170736324Y-96440521D01*
X170736323Y-96440526D01*
X170717593Y-96570800D01*
X141370300Y-96570800D01*
X141370300Y-95725000D01*
X149582593Y-95725000D01*
X149601323Y-95855273D01*
X149601324Y-95855278D01*
X149655997Y-95974994D01*
X149655998Y-95974996D01*
X149742188Y-96074464D01*
X149852909Y-96145620D01*
X149852912Y-96145621D01*
X149852911Y-96145621D01*
X149979190Y-96182699D01*
X149979192Y-96182700D01*
X149979193Y-96182700D01*
X150110808Y-96182700D01*
X150110808Y-96182699D01*
X150237091Y-96145620D01*
X150347812Y-96074464D01*
X150434002Y-95974996D01*
X150488676Y-95855275D01*
X150507407Y-95725000D01*
X151982593Y-95725000D01*
X152001323Y-95855273D01*
X152001324Y-95855278D01*
X152055997Y-95974994D01*
X152055998Y-95974996D01*
X152142188Y-96074464D01*
X152252909Y-96145620D01*
X152252912Y-96145621D01*
X152252911Y-96145621D01*
X152379190Y-96182699D01*
X152379192Y-96182700D01*
X152379193Y-96182700D01*
X152510808Y-96182700D01*
X152510808Y-96182699D01*
X152637091Y-96145620D01*
X152747812Y-96074464D01*
X152751286Y-96070454D01*
X152810061Y-96032679D01*
X152879930Y-96032677D01*
X152938707Y-96070447D01*
X152942188Y-96074464D01*
X153052909Y-96145620D01*
X153052912Y-96145621D01*
X153052911Y-96145621D01*
X153179190Y-96182699D01*
X153179192Y-96182700D01*
X153179193Y-96182700D01*
X153310808Y-96182700D01*
X153310808Y-96182699D01*
X153437091Y-96145620D01*
X153547812Y-96074464D01*
X153551286Y-96070454D01*
X153610061Y-96032679D01*
X153679930Y-96032677D01*
X153738707Y-96070447D01*
X153742188Y-96074464D01*
X153852909Y-96145620D01*
X153852912Y-96145621D01*
X153852911Y-96145621D01*
X153979190Y-96182699D01*
X153979192Y-96182700D01*
X153979193Y-96182700D01*
X154110808Y-96182700D01*
X154110808Y-96182699D01*
X154237091Y-96145620D01*
X154347812Y-96074464D01*
X154351286Y-96070454D01*
X154410061Y-96032679D01*
X154479930Y-96032677D01*
X154538707Y-96070447D01*
X154542188Y-96074464D01*
X154652909Y-96145620D01*
X154652912Y-96145621D01*
X154652911Y-96145621D01*
X154779190Y-96182699D01*
X154779192Y-96182700D01*
X154779193Y-96182700D01*
X154910808Y-96182700D01*
X154910808Y-96182699D01*
X155037091Y-96145620D01*
X155147812Y-96074464D01*
X155234002Y-95974996D01*
X155288676Y-95855275D01*
X155307407Y-95725000D01*
X156782593Y-95725000D01*
X156801323Y-95855273D01*
X156801324Y-95855278D01*
X156855997Y-95974994D01*
X156855998Y-95974996D01*
X156942188Y-96074464D01*
X157052909Y-96145620D01*
X157052912Y-96145621D01*
X157052911Y-96145621D01*
X157179190Y-96182699D01*
X157179192Y-96182700D01*
X157179193Y-96182700D01*
X157310808Y-96182700D01*
X157310808Y-96182699D01*
X157437091Y-96145620D01*
X157547812Y-96074464D01*
X157634002Y-95974996D01*
X157688676Y-95855275D01*
X157707407Y-95725000D01*
X157693892Y-95631000D01*
X176829593Y-95631000D01*
X176848323Y-95761273D01*
X176848324Y-95761278D01*
X176891253Y-95855278D01*
X176902998Y-95880996D01*
X176989188Y-95980464D01*
X177099909Y-96051620D01*
X177099912Y-96051621D01*
X177099911Y-96051621D01*
X177226190Y-96088699D01*
X177226192Y-96088700D01*
X177226193Y-96088700D01*
X177357808Y-96088700D01*
X177357808Y-96088699D01*
X177484091Y-96051620D01*
X177594812Y-95980464D01*
X177681002Y-95880996D01*
X177735676Y-95761275D01*
X177754407Y-95631000D01*
X177735676Y-95500725D01*
X177735675Y-95500724D01*
X177735675Y-95500721D01*
X177681002Y-95381005D01*
X177681002Y-95381004D01*
X177594812Y-95281536D01*
X177484091Y-95210380D01*
X177484089Y-95210379D01*
X177484087Y-95210378D01*
X177484088Y-95210378D01*
X177357809Y-95173300D01*
X177357807Y-95173300D01*
X177226193Y-95173300D01*
X177226190Y-95173300D01*
X177099911Y-95210378D01*
X176989189Y-95281535D01*
X176902999Y-95381002D01*
X176902997Y-95381005D01*
X176848324Y-95500721D01*
X176848323Y-95500726D01*
X176829593Y-95631000D01*
X157693892Y-95631000D01*
X157688676Y-95594725D01*
X157688675Y-95594724D01*
X157688675Y-95594721D01*
X157634002Y-95475005D01*
X157634002Y-95475004D01*
X157547812Y-95375536D01*
X157437091Y-95304380D01*
X157437089Y-95304379D01*
X157437087Y-95304378D01*
X157437088Y-95304378D01*
X157310809Y-95267300D01*
X157310807Y-95267300D01*
X157179193Y-95267300D01*
X157179190Y-95267300D01*
X157052911Y-95304378D01*
X156942189Y-95375535D01*
X156942188Y-95375535D01*
X156942188Y-95375536D01*
X156937452Y-95381002D01*
X156855999Y-95475002D01*
X156855997Y-95475005D01*
X156801324Y-95594721D01*
X156801323Y-95594726D01*
X156782593Y-95725000D01*
X155307407Y-95725000D01*
X155288676Y-95594725D01*
X155288675Y-95594724D01*
X155288675Y-95594721D01*
X155234002Y-95475005D01*
X155234002Y-95475004D01*
X155147812Y-95375536D01*
X155037091Y-95304380D01*
X155037089Y-95304379D01*
X155037087Y-95304378D01*
X155037088Y-95304378D01*
X154910809Y-95267300D01*
X154910807Y-95267300D01*
X154779193Y-95267300D01*
X154779190Y-95267300D01*
X154652911Y-95304378D01*
X154542188Y-95375535D01*
X154542185Y-95375538D01*
X154538712Y-95379547D01*
X154479934Y-95417321D01*
X154410064Y-95417321D01*
X154351288Y-95379547D01*
X154347814Y-95375538D01*
X154347811Y-95375535D01*
X154305174Y-95348134D01*
X154237091Y-95304380D01*
X154237089Y-95304379D01*
X154237087Y-95304378D01*
X154237088Y-95304378D01*
X154110809Y-95267300D01*
X154110807Y-95267300D01*
X153979193Y-95267300D01*
X153979190Y-95267300D01*
X153852911Y-95304378D01*
X153742188Y-95375535D01*
X153742185Y-95375538D01*
X153738712Y-95379547D01*
X153679934Y-95417321D01*
X153610064Y-95417321D01*
X153551288Y-95379547D01*
X153547814Y-95375538D01*
X153547811Y-95375535D01*
X153505174Y-95348134D01*
X153437091Y-95304380D01*
X153437089Y-95304379D01*
X153437087Y-95304378D01*
X153437088Y-95304378D01*
X153310809Y-95267300D01*
X153310807Y-95267300D01*
X153179193Y-95267300D01*
X153179190Y-95267300D01*
X153052911Y-95304378D01*
X152942188Y-95375535D01*
X152942185Y-95375538D01*
X152938712Y-95379547D01*
X152879934Y-95417321D01*
X152810064Y-95417321D01*
X152751288Y-95379547D01*
X152747814Y-95375538D01*
X152747811Y-95375535D01*
X152705174Y-95348134D01*
X152637091Y-95304380D01*
X152637089Y-95304379D01*
X152637087Y-95304378D01*
X152637088Y-95304378D01*
X152510809Y-95267300D01*
X152510807Y-95267300D01*
X152379193Y-95267300D01*
X152379190Y-95267300D01*
X152252911Y-95304378D01*
X152142189Y-95375535D01*
X152142188Y-95375535D01*
X152142188Y-95375536D01*
X152137452Y-95381002D01*
X152055999Y-95475002D01*
X152055997Y-95475005D01*
X152001324Y-95594721D01*
X152001323Y-95594726D01*
X151982593Y-95725000D01*
X150507407Y-95725000D01*
X150488676Y-95594725D01*
X150488675Y-95594724D01*
X150488675Y-95594721D01*
X150434002Y-95475005D01*
X150434002Y-95475004D01*
X150347812Y-95375536D01*
X150237091Y-95304380D01*
X150237089Y-95304379D01*
X150237087Y-95304378D01*
X150237088Y-95304378D01*
X150110809Y-95267300D01*
X150110807Y-95267300D01*
X149979193Y-95267300D01*
X149979190Y-95267300D01*
X149852911Y-95304378D01*
X149742189Y-95375535D01*
X149742188Y-95375535D01*
X149742188Y-95375536D01*
X149737452Y-95381002D01*
X149655999Y-95475002D01*
X149655997Y-95475005D01*
X149601324Y-95594721D01*
X149601323Y-95594726D01*
X149582593Y-95725000D01*
X141370300Y-95725000D01*
X141370300Y-94869000D01*
X179623593Y-94869000D01*
X179642323Y-94999273D01*
X179642324Y-94999278D01*
X179696997Y-95118994D01*
X179696998Y-95118996D01*
X179783188Y-95218464D01*
X179893909Y-95289620D01*
X179893912Y-95289621D01*
X179893911Y-95289621D01*
X180020190Y-95326699D01*
X180020192Y-95326700D01*
X180020193Y-95326700D01*
X180151808Y-95326700D01*
X180151808Y-95326699D01*
X180278091Y-95289620D01*
X180388812Y-95218464D01*
X180475002Y-95118996D01*
X180529676Y-94999275D01*
X180548407Y-94869000D01*
X180529676Y-94738725D01*
X180529675Y-94738724D01*
X180529675Y-94738721D01*
X180475002Y-94619005D01*
X180475002Y-94619004D01*
X180388812Y-94519536D01*
X180278091Y-94448380D01*
X180278089Y-94448379D01*
X180278087Y-94448378D01*
X180278088Y-94448378D01*
X180151809Y-94411300D01*
X180151807Y-94411300D01*
X180020193Y-94411300D01*
X180020190Y-94411300D01*
X179893911Y-94448378D01*
X179783189Y-94519535D01*
X179696999Y-94619002D01*
X179696997Y-94619005D01*
X179642324Y-94738721D01*
X179642323Y-94738726D01*
X179623593Y-94869000D01*
X141370300Y-94869000D01*
X141370300Y-93325000D01*
X149582593Y-93325000D01*
X149601323Y-93455273D01*
X149601324Y-93455278D01*
X149643989Y-93548700D01*
X149655998Y-93574996D01*
X149683706Y-93606973D01*
X149715615Y-93643797D01*
X149744640Y-93707353D01*
X149734697Y-93776511D01*
X149715615Y-93806203D01*
X149655999Y-93875002D01*
X149655997Y-93875005D01*
X149601324Y-93994721D01*
X149601323Y-93994726D01*
X149582593Y-94125000D01*
X149601323Y-94255273D01*
X149601324Y-94255278D01*
X149649606Y-94361000D01*
X149655998Y-94374996D01*
X149742188Y-94474464D01*
X149852909Y-94545620D01*
X149852912Y-94545621D01*
X149852911Y-94545621D01*
X149979190Y-94582699D01*
X149979192Y-94582700D01*
X149979193Y-94582700D01*
X150110808Y-94582700D01*
X150110808Y-94582699D01*
X150237091Y-94545620D01*
X150347812Y-94474464D01*
X150351286Y-94470454D01*
X150410061Y-94432679D01*
X150479930Y-94432677D01*
X150538707Y-94470447D01*
X150542188Y-94474464D01*
X150652909Y-94545620D01*
X150652912Y-94545621D01*
X150652911Y-94545621D01*
X150779190Y-94582699D01*
X150779192Y-94582700D01*
X150779193Y-94582700D01*
X150910808Y-94582700D01*
X150910808Y-94582699D01*
X151037091Y-94545620D01*
X151147812Y-94474464D01*
X151234002Y-94374996D01*
X151288676Y-94255275D01*
X151307407Y-94125000D01*
X151302734Y-94092500D01*
X152782593Y-94092500D01*
X152801323Y-94222773D01*
X152801324Y-94222778D01*
X152855997Y-94342494D01*
X152855998Y-94342496D01*
X152942188Y-94441964D01*
X153052909Y-94513120D01*
X153052912Y-94513121D01*
X153052911Y-94513121D01*
X153179190Y-94550199D01*
X153179192Y-94550200D01*
X153179193Y-94550200D01*
X153310808Y-94550200D01*
X153310808Y-94550199D01*
X153437091Y-94513120D01*
X153547812Y-94441964D01*
X153634002Y-94342496D01*
X153685045Y-94230726D01*
X153688675Y-94222778D01*
X153688676Y-94222773D01*
X153702734Y-94125000D01*
X155982593Y-94125000D01*
X156001323Y-94255273D01*
X156001324Y-94255278D01*
X156049606Y-94361000D01*
X156055998Y-94374996D01*
X156142188Y-94474464D01*
X156252909Y-94545620D01*
X156252912Y-94545621D01*
X156252911Y-94545621D01*
X156379190Y-94582699D01*
X156379192Y-94582700D01*
X156379193Y-94582700D01*
X156510808Y-94582700D01*
X156510808Y-94582699D01*
X156637091Y-94545620D01*
X156747812Y-94474464D01*
X156751286Y-94470454D01*
X156810061Y-94432679D01*
X156879930Y-94432677D01*
X156938707Y-94470447D01*
X156942188Y-94474464D01*
X157052909Y-94545620D01*
X157052912Y-94545621D01*
X157052911Y-94545621D01*
X157179190Y-94582699D01*
X157179192Y-94582700D01*
X157179193Y-94582700D01*
X157310808Y-94582700D01*
X157310808Y-94582699D01*
X157437091Y-94545620D01*
X157547812Y-94474464D01*
X157634002Y-94374996D01*
X157640394Y-94361000D01*
X176829593Y-94361000D01*
X176848323Y-94491273D01*
X176848324Y-94491278D01*
X176902997Y-94610994D01*
X176902998Y-94610996D01*
X176989188Y-94710464D01*
X177099909Y-94781620D01*
X177099912Y-94781621D01*
X177099911Y-94781621D01*
X177226190Y-94818699D01*
X177226192Y-94818700D01*
X177226193Y-94818700D01*
X177357808Y-94818700D01*
X177357808Y-94818699D01*
X177484091Y-94781620D01*
X177594812Y-94710464D01*
X177681002Y-94610996D01*
X177722770Y-94519535D01*
X177735675Y-94491278D01*
X177735676Y-94491273D01*
X177741843Y-94448380D01*
X177754407Y-94361000D01*
X177735676Y-94230725D01*
X177735675Y-94230724D01*
X177735675Y-94230721D01*
X177700456Y-94153604D01*
X177681002Y-94111004D01*
X177594812Y-94011536D01*
X177484091Y-93940380D01*
X177484089Y-93940379D01*
X177484087Y-93940378D01*
X177484088Y-93940378D01*
X177357809Y-93903300D01*
X177357807Y-93903300D01*
X177226193Y-93903300D01*
X177226190Y-93903300D01*
X177099911Y-93940378D01*
X176989189Y-94011535D01*
X176902999Y-94111002D01*
X176902997Y-94111005D01*
X176848324Y-94230721D01*
X176848323Y-94230726D01*
X176829593Y-94361000D01*
X157640394Y-94361000D01*
X157688676Y-94255275D01*
X157707407Y-94125000D01*
X157688676Y-93994725D01*
X157688675Y-93994724D01*
X157688675Y-93994721D01*
X157634002Y-93875005D01*
X157634002Y-93875004D01*
X157574383Y-93806201D01*
X157545359Y-93742648D01*
X157555302Y-93673490D01*
X157574381Y-93643801D01*
X157634002Y-93574996D01*
X157672911Y-93489795D01*
X157688675Y-93455278D01*
X157688676Y-93455273D01*
X157707407Y-93325000D01*
X157688676Y-93194725D01*
X157688675Y-93194724D01*
X157688675Y-93194721D01*
X157641307Y-93091000D01*
X176829593Y-93091000D01*
X176848323Y-93221273D01*
X176848324Y-93221278D01*
X176874332Y-93278226D01*
X176902998Y-93340996D01*
X176989188Y-93440464D01*
X177099909Y-93511620D01*
X177099912Y-93511621D01*
X177099911Y-93511621D01*
X177226190Y-93548699D01*
X177226192Y-93548700D01*
X177226193Y-93548700D01*
X177357808Y-93548700D01*
X177357808Y-93548699D01*
X177484091Y-93511620D01*
X177594812Y-93440464D01*
X177622509Y-93408500D01*
X179560093Y-93408500D01*
X179578823Y-93538773D01*
X179578824Y-93538778D01*
X179626087Y-93642269D01*
X179633498Y-93658496D01*
X179719688Y-93757964D01*
X179830409Y-93829120D01*
X179830412Y-93829121D01*
X179830411Y-93829121D01*
X179956690Y-93866199D01*
X179956692Y-93866200D01*
X179956693Y-93866200D01*
X180088308Y-93866200D01*
X180088308Y-93866199D01*
X180214591Y-93829120D01*
X180325312Y-93757964D01*
X180411502Y-93658496D01*
X180450496Y-93573110D01*
X180466175Y-93538778D01*
X180466176Y-93538773D01*
X180470080Y-93511620D01*
X180484907Y-93408500D01*
X180466176Y-93278225D01*
X180466175Y-93278224D01*
X180466175Y-93278221D01*
X180428043Y-93194725D01*
X180411502Y-93158504D01*
X180325312Y-93059036D01*
X180214591Y-92987880D01*
X180214589Y-92987879D01*
X180214587Y-92987878D01*
X180214588Y-92987878D01*
X180088309Y-92950800D01*
X180088307Y-92950800D01*
X179956693Y-92950800D01*
X179956690Y-92950800D01*
X179830411Y-92987878D01*
X179719689Y-93059035D01*
X179633499Y-93158502D01*
X179633497Y-93158505D01*
X179578824Y-93278221D01*
X179578823Y-93278226D01*
X179560093Y-93408500D01*
X177622509Y-93408500D01*
X177681002Y-93340996D01*
X177735676Y-93221275D01*
X177754407Y-93091000D01*
X177735676Y-92960725D01*
X177735675Y-92960724D01*
X177735675Y-92960721D01*
X177681002Y-92841005D01*
X177681002Y-92841004D01*
X177594812Y-92741536D01*
X177484091Y-92670380D01*
X177484089Y-92670379D01*
X177484087Y-92670378D01*
X177484088Y-92670378D01*
X177357809Y-92633300D01*
X177357807Y-92633300D01*
X177226193Y-92633300D01*
X177226190Y-92633300D01*
X177099911Y-92670378D01*
X176989189Y-92741535D01*
X176902999Y-92841002D01*
X176902997Y-92841005D01*
X176848324Y-92960721D01*
X176848323Y-92960726D01*
X176829593Y-93091000D01*
X157641307Y-93091000D01*
X157634002Y-93075005D01*
X157634002Y-93075004D01*
X157547812Y-92975536D01*
X157437091Y-92904380D01*
X157437089Y-92904379D01*
X157437087Y-92904378D01*
X157437088Y-92904378D01*
X157310809Y-92867300D01*
X157310807Y-92867300D01*
X157179193Y-92867300D01*
X157179190Y-92867300D01*
X157052911Y-92904378D01*
X156942189Y-92975535D01*
X156855999Y-93075002D01*
X156855997Y-93075005D01*
X156801324Y-93194721D01*
X156801323Y-93194726D01*
X156782593Y-93325000D01*
X156801323Y-93455273D01*
X156801325Y-93455281D01*
X156855137Y-93573111D01*
X156865081Y-93642269D01*
X156836056Y-93705825D01*
X156777278Y-93743599D01*
X156707408Y-93743599D01*
X156675304Y-93728938D01*
X156669176Y-93725000D01*
X156637091Y-93704380D01*
X156637089Y-93704379D01*
X156637087Y-93704378D01*
X156637088Y-93704378D01*
X156510809Y-93667300D01*
X156510807Y-93667300D01*
X156379193Y-93667300D01*
X156379190Y-93667300D01*
X156252911Y-93704378D01*
X156142189Y-93775535D01*
X156055999Y-93875002D01*
X156055997Y-93875005D01*
X156001324Y-93994721D01*
X156001323Y-93994726D01*
X155982593Y-94125000D01*
X153702734Y-94125000D01*
X153707407Y-94092500D01*
X153688676Y-93962225D01*
X153688675Y-93962224D01*
X153688675Y-93962221D01*
X153653456Y-93885104D01*
X153634002Y-93842504D01*
X153547812Y-93743036D01*
X153437091Y-93671880D01*
X153437089Y-93671879D01*
X153437087Y-93671878D01*
X153437088Y-93671878D01*
X153310809Y-93634800D01*
X153310807Y-93634800D01*
X153179193Y-93634800D01*
X153179190Y-93634800D01*
X153052911Y-93671878D01*
X152942189Y-93743035D01*
X152855999Y-93842502D01*
X152855997Y-93842505D01*
X152801324Y-93962221D01*
X152801323Y-93962226D01*
X152782593Y-94092500D01*
X151302734Y-94092500D01*
X151288676Y-93994725D01*
X151288675Y-93994724D01*
X151288675Y-93994721D01*
X151234002Y-93875005D01*
X151234002Y-93875004D01*
X151147812Y-93775536D01*
X151037091Y-93704380D01*
X151037089Y-93704379D01*
X151037087Y-93704378D01*
X151037088Y-93704378D01*
X150910809Y-93667300D01*
X150910807Y-93667300D01*
X150779193Y-93667300D01*
X150779190Y-93667300D01*
X150652911Y-93704378D01*
X150652908Y-93704380D01*
X150614694Y-93728938D01*
X150547654Y-93748622D01*
X150480615Y-93728937D01*
X150434861Y-93676132D01*
X150424918Y-93606973D01*
X150434859Y-93573117D01*
X150488676Y-93455275D01*
X150507407Y-93325000D01*
X150488676Y-93194725D01*
X150488675Y-93194724D01*
X150488675Y-93194721D01*
X150434002Y-93075005D01*
X150434002Y-93075004D01*
X150347812Y-92975536D01*
X150237091Y-92904380D01*
X150237089Y-92904379D01*
X150237087Y-92904378D01*
X150237088Y-92904378D01*
X150110809Y-92867300D01*
X150110807Y-92867300D01*
X149979193Y-92867300D01*
X149979190Y-92867300D01*
X149852911Y-92904378D01*
X149742189Y-92975535D01*
X149655999Y-93075002D01*
X149655997Y-93075005D01*
X149601324Y-93194721D01*
X149601323Y-93194726D01*
X149582593Y-93325000D01*
X141370300Y-93325000D01*
X141370300Y-90925000D01*
X149582593Y-90925000D01*
X149601323Y-91055273D01*
X149601324Y-91055278D01*
X149638052Y-91135700D01*
X149655998Y-91174996D01*
X149683706Y-91206973D01*
X149715615Y-91243797D01*
X149744640Y-91307353D01*
X149734697Y-91376511D01*
X149715615Y-91406201D01*
X149711176Y-91411326D01*
X149655999Y-91475002D01*
X149655997Y-91475005D01*
X149601324Y-91594721D01*
X149601323Y-91594726D01*
X149582593Y-91725000D01*
X149601323Y-91855273D01*
X149601324Y-91855278D01*
X149650163Y-91962220D01*
X149655998Y-91974996D01*
X149742188Y-92074464D01*
X149852909Y-92145620D01*
X149852912Y-92145621D01*
X149852911Y-92145621D01*
X149979190Y-92182699D01*
X149979192Y-92182700D01*
X149979193Y-92182700D01*
X150110808Y-92182700D01*
X150110808Y-92182699D01*
X150237091Y-92145620D01*
X150347812Y-92074464D01*
X150351286Y-92070454D01*
X150410061Y-92032679D01*
X150479930Y-92032677D01*
X150538707Y-92070447D01*
X150542188Y-92074464D01*
X150652909Y-92145620D01*
X150652912Y-92145621D01*
X150652911Y-92145621D01*
X150779190Y-92182699D01*
X150779192Y-92182700D01*
X150779193Y-92182700D01*
X150910808Y-92182700D01*
X150910808Y-92182699D01*
X151037091Y-92145620D01*
X151147812Y-92074464D01*
X151234002Y-91974996D01*
X151288676Y-91855275D01*
X151307407Y-91725000D01*
X155982593Y-91725000D01*
X156001323Y-91855273D01*
X156001324Y-91855278D01*
X156050163Y-91962220D01*
X156055998Y-91974996D01*
X156142188Y-92074464D01*
X156252909Y-92145620D01*
X156252912Y-92145621D01*
X156252911Y-92145621D01*
X156379190Y-92182699D01*
X156379192Y-92182700D01*
X156379193Y-92182700D01*
X156510808Y-92182700D01*
X156510808Y-92182699D01*
X156637091Y-92145620D01*
X156747812Y-92074464D01*
X156751286Y-92070454D01*
X156810061Y-92032679D01*
X156879930Y-92032677D01*
X156938707Y-92070447D01*
X156942188Y-92074464D01*
X157052909Y-92145620D01*
X157052912Y-92145621D01*
X157052911Y-92145621D01*
X157179190Y-92182699D01*
X157179192Y-92182700D01*
X157179193Y-92182700D01*
X157310808Y-92182700D01*
X157310808Y-92182699D01*
X157437091Y-92145620D01*
X157547812Y-92074464D01*
X157634002Y-91974996D01*
X157688676Y-91855275D01*
X157707407Y-91725000D01*
X157688676Y-91594725D01*
X157688675Y-91594724D01*
X157688675Y-91594721D01*
X157634002Y-91475005D01*
X157634002Y-91475004D01*
X157574383Y-91406201D01*
X157545359Y-91342648D01*
X157553273Y-91287600D01*
X170682793Y-91287600D01*
X170701523Y-91417873D01*
X170701524Y-91417878D01*
X170756197Y-91537594D01*
X170756198Y-91537596D01*
X170842388Y-91637064D01*
X170953109Y-91708220D01*
X170953112Y-91708221D01*
X170953111Y-91708221D01*
X171079390Y-91745299D01*
X171079392Y-91745300D01*
X171079393Y-91745300D01*
X171211008Y-91745300D01*
X171211008Y-91745299D01*
X171337291Y-91708220D01*
X171448012Y-91637064D01*
X171530732Y-91541600D01*
X172562393Y-91541600D01*
X172581123Y-91671873D01*
X172581124Y-91671878D01*
X172627524Y-91773478D01*
X172635798Y-91791596D01*
X172721988Y-91891064D01*
X172832709Y-91962220D01*
X172832712Y-91962221D01*
X172832711Y-91962221D01*
X172958990Y-91999299D01*
X172958992Y-91999300D01*
X172958993Y-91999300D01*
X173090608Y-91999300D01*
X173090608Y-91999299D01*
X173216891Y-91962220D01*
X173327612Y-91891064D01*
X173413802Y-91791596D01*
X173468476Y-91671875D01*
X173472599Y-91643200D01*
X186633993Y-91643200D01*
X186652723Y-91773473D01*
X186652724Y-91773478D01*
X186706424Y-91891064D01*
X186707398Y-91893196D01*
X186793588Y-91992664D01*
X186904309Y-92063820D01*
X186904312Y-92063821D01*
X186904311Y-92063821D01*
X187030590Y-92100899D01*
X187030592Y-92100900D01*
X187030593Y-92100900D01*
X187162208Y-92100900D01*
X187162208Y-92100899D01*
X187265891Y-92070456D01*
X187288488Y-92063821D01*
X187288488Y-92063820D01*
X187288491Y-92063820D01*
X187399212Y-91992664D01*
X187485402Y-91893196D01*
X187531801Y-91791596D01*
X187540075Y-91773478D01*
X187540076Y-91773473D01*
X187544127Y-91745299D01*
X187558807Y-91643200D01*
X187540076Y-91512925D01*
X187540075Y-91512924D01*
X187540075Y-91512921D01*
X187493677Y-91411325D01*
X187485402Y-91393204D01*
X187399212Y-91293736D01*
X187288491Y-91222580D01*
X187288489Y-91222579D01*
X187288487Y-91222578D01*
X187288488Y-91222578D01*
X187162209Y-91185500D01*
X187162207Y-91185500D01*
X187030593Y-91185500D01*
X187030590Y-91185500D01*
X186904311Y-91222578D01*
X186793589Y-91293735D01*
X186707399Y-91393202D01*
X186707397Y-91393205D01*
X186652724Y-91512921D01*
X186652723Y-91512926D01*
X186633993Y-91643200D01*
X173472599Y-91643200D01*
X173487207Y-91541600D01*
X173468476Y-91411325D01*
X173468475Y-91411324D01*
X173468475Y-91411321D01*
X173420296Y-91305825D01*
X173413802Y-91291604D01*
X173327612Y-91192136D01*
X173216891Y-91120980D01*
X173216889Y-91120979D01*
X173216887Y-91120978D01*
X173216888Y-91120978D01*
X173090609Y-91083900D01*
X173090607Y-91083900D01*
X172958993Y-91083900D01*
X172958990Y-91083900D01*
X172832711Y-91120978D01*
X172721989Y-91192135D01*
X172635799Y-91291602D01*
X172635797Y-91291605D01*
X172581124Y-91411321D01*
X172581123Y-91411326D01*
X172562393Y-91541600D01*
X171530732Y-91541600D01*
X171534202Y-91537596D01*
X171588876Y-91417875D01*
X171607607Y-91287600D01*
X171588876Y-91157325D01*
X171588875Y-91157324D01*
X171588875Y-91157321D01*
X171553656Y-91080204D01*
X171534202Y-91037604D01*
X171448012Y-90938136D01*
X171337291Y-90866980D01*
X171337289Y-90866979D01*
X171337287Y-90866978D01*
X171337288Y-90866978D01*
X171211009Y-90829900D01*
X171211007Y-90829900D01*
X171079393Y-90829900D01*
X171079390Y-90829900D01*
X170953111Y-90866978D01*
X170842389Y-90938135D01*
X170756199Y-91037602D01*
X170756197Y-91037605D01*
X170701524Y-91157321D01*
X170701523Y-91157326D01*
X170682793Y-91287600D01*
X157553273Y-91287600D01*
X157555302Y-91273490D01*
X157574381Y-91243801D01*
X157634002Y-91174996D01*
X157675604Y-91083900D01*
X157688675Y-91055278D01*
X157688676Y-91055273D01*
X157707407Y-90925000D01*
X157688676Y-90794725D01*
X157688675Y-90794724D01*
X157688675Y-90794721D01*
X157636867Y-90681278D01*
X157634002Y-90675004D01*
X157547812Y-90575536D01*
X157437091Y-90504380D01*
X157437089Y-90504379D01*
X157437087Y-90504378D01*
X157437088Y-90504378D01*
X157310809Y-90467300D01*
X157310807Y-90467300D01*
X157179193Y-90467300D01*
X157179190Y-90467300D01*
X157052911Y-90504378D01*
X156942189Y-90575535D01*
X156855999Y-90675002D01*
X156855997Y-90675005D01*
X156801324Y-90794721D01*
X156801323Y-90794726D01*
X156782593Y-90925000D01*
X156801323Y-91055273D01*
X156801325Y-91055281D01*
X156855137Y-91173111D01*
X156865081Y-91242269D01*
X156836056Y-91305825D01*
X156777278Y-91343599D01*
X156707408Y-91343599D01*
X156675304Y-91328938D01*
X156669176Y-91325000D01*
X156637091Y-91304380D01*
X156637089Y-91304379D01*
X156637087Y-91304378D01*
X156637088Y-91304378D01*
X156510809Y-91267300D01*
X156510807Y-91267300D01*
X156379193Y-91267300D01*
X156379190Y-91267300D01*
X156252911Y-91304378D01*
X156142189Y-91375535D01*
X156055999Y-91475002D01*
X156055997Y-91475005D01*
X156001324Y-91594721D01*
X156001323Y-91594726D01*
X155982593Y-91725000D01*
X151307407Y-91725000D01*
X151288676Y-91594725D01*
X151288675Y-91594724D01*
X151288675Y-91594721D01*
X151234002Y-91475005D01*
X151234002Y-91475004D01*
X151147812Y-91375536D01*
X151037091Y-91304380D01*
X151037089Y-91304379D01*
X151037087Y-91304378D01*
X151037088Y-91304378D01*
X150910809Y-91267300D01*
X150910807Y-91267300D01*
X150779193Y-91267300D01*
X150779190Y-91267300D01*
X150652911Y-91304378D01*
X150652908Y-91304380D01*
X150614694Y-91328938D01*
X150547654Y-91348622D01*
X150480615Y-91328937D01*
X150434861Y-91276132D01*
X150424918Y-91206973D01*
X150434859Y-91173117D01*
X150488676Y-91055275D01*
X150507407Y-90925000D01*
X150488676Y-90794725D01*
X150488675Y-90794724D01*
X150488675Y-90794721D01*
X150436867Y-90681278D01*
X150434002Y-90675004D01*
X150347812Y-90575536D01*
X150237091Y-90504380D01*
X150237089Y-90504379D01*
X150237087Y-90504378D01*
X150237088Y-90504378D01*
X150110809Y-90467300D01*
X150110807Y-90467300D01*
X149979193Y-90467300D01*
X149979190Y-90467300D01*
X149852911Y-90504378D01*
X149742189Y-90575535D01*
X149655999Y-90675002D01*
X149655997Y-90675005D01*
X149601324Y-90794721D01*
X149601323Y-90794726D01*
X149582593Y-90925000D01*
X141370300Y-90925000D01*
X141370300Y-90125000D01*
X151182593Y-90125000D01*
X151201323Y-90255273D01*
X151201324Y-90255278D01*
X151255997Y-90374994D01*
X151255998Y-90374996D01*
X151342188Y-90474464D01*
X151452909Y-90545620D01*
X151452912Y-90545621D01*
X151452911Y-90545621D01*
X151579190Y-90582699D01*
X151579192Y-90582700D01*
X151579193Y-90582700D01*
X151710808Y-90582700D01*
X151710808Y-90582699D01*
X151837091Y-90545620D01*
X151947812Y-90474464D01*
X152034002Y-90374996D01*
X152078335Y-90277920D01*
X152088675Y-90255278D01*
X152088676Y-90255273D01*
X152107407Y-90125000D01*
X152088676Y-89994725D01*
X152088675Y-89994724D01*
X152088675Y-89994721D01*
X152034002Y-89875005D01*
X152034002Y-89875004D01*
X151947812Y-89775536D01*
X151837091Y-89704380D01*
X151837089Y-89704379D01*
X151837087Y-89704378D01*
X151837088Y-89704378D01*
X151710809Y-89667300D01*
X151710807Y-89667300D01*
X151579193Y-89667300D01*
X151579190Y-89667300D01*
X151452911Y-89704378D01*
X151342189Y-89775535D01*
X151255999Y-89875002D01*
X151255997Y-89875005D01*
X151201324Y-89994721D01*
X151201323Y-89994726D01*
X151182593Y-90125000D01*
X141370300Y-90125000D01*
X141370300Y-89325000D01*
X149582593Y-89325000D01*
X149601323Y-89455273D01*
X149601324Y-89455278D01*
X149646530Y-89554264D01*
X149655998Y-89574996D01*
X149742188Y-89674464D01*
X149852909Y-89745620D01*
X149852912Y-89745621D01*
X149852911Y-89745621D01*
X149979190Y-89782699D01*
X149979192Y-89782700D01*
X149979193Y-89782700D01*
X150110808Y-89782700D01*
X150110808Y-89782699D01*
X150237091Y-89745620D01*
X150347812Y-89674464D01*
X150434002Y-89574996D01*
X150488676Y-89455275D01*
X150507407Y-89325000D01*
X153582593Y-89325000D01*
X153601323Y-89455273D01*
X153601324Y-89455278D01*
X153646530Y-89554264D01*
X153655998Y-89574996D01*
X153742188Y-89674464D01*
X153852909Y-89745620D01*
X153852912Y-89745621D01*
X153852911Y-89745621D01*
X153979190Y-89782699D01*
X153979192Y-89782700D01*
X153979193Y-89782700D01*
X154110808Y-89782700D01*
X154110808Y-89782699D01*
X154237091Y-89745620D01*
X154275305Y-89721060D01*
X154342342Y-89701377D01*
X154409381Y-89721061D01*
X154455137Y-89773864D01*
X154465081Y-89843023D01*
X154455138Y-89876888D01*
X154401324Y-89994724D01*
X154401323Y-89994726D01*
X154382593Y-90125000D01*
X154401323Y-90255273D01*
X154401324Y-90255278D01*
X154455997Y-90374994D01*
X154455998Y-90374996D01*
X154542188Y-90474464D01*
X154652909Y-90545620D01*
X154652912Y-90545621D01*
X154652911Y-90545621D01*
X154779190Y-90582699D01*
X154779192Y-90582700D01*
X154779193Y-90582700D01*
X154910808Y-90582700D01*
X154910808Y-90582699D01*
X155037091Y-90545620D01*
X155147812Y-90474464D01*
X155190673Y-90425000D01*
X164707919Y-90425000D01*
X164725777Y-90572077D01*
X164725778Y-90572079D01*
X164764812Y-90675004D01*
X164778317Y-90710612D01*
X164817867Y-90767910D01*
X164862480Y-90832543D01*
X164862482Y-90832545D01*
X164862484Y-90832547D01*
X164973376Y-90930789D01*
X164973378Y-90930790D01*
X165104567Y-90999643D01*
X165176493Y-91017371D01*
X165248419Y-91035100D01*
X165248420Y-91035100D01*
X165396581Y-91035100D01*
X165444531Y-91023281D01*
X165540433Y-90999643D01*
X165671622Y-90930790D01*
X165782520Y-90832543D01*
X165812950Y-90788456D01*
X165867232Y-90744467D01*
X165936681Y-90736807D01*
X165999246Y-90767910D01*
X166017048Y-90788455D01*
X166021376Y-90794725D01*
X166047478Y-90832541D01*
X166047484Y-90832547D01*
X166158376Y-90930789D01*
X166158378Y-90930790D01*
X166289567Y-90999643D01*
X166361493Y-91017371D01*
X166433419Y-91035100D01*
X166433420Y-91035100D01*
X166581581Y-91035100D01*
X166629531Y-91023281D01*
X166725433Y-90999643D01*
X166856622Y-90930790D01*
X166967520Y-90832543D01*
X167051684Y-90710610D01*
X167064051Y-90678000D01*
X176829593Y-90678000D01*
X176848323Y-90808273D01*
X176848324Y-90808278D01*
X176901630Y-90925000D01*
X176902998Y-90927996D01*
X176989188Y-91027464D01*
X177099909Y-91098620D01*
X177099912Y-91098621D01*
X177099911Y-91098621D01*
X177226190Y-91135699D01*
X177226192Y-91135700D01*
X177226193Y-91135700D01*
X177357808Y-91135700D01*
X177357808Y-91135699D01*
X177484091Y-91098620D01*
X177594812Y-91027464D01*
X177681002Y-90927996D01*
X177735676Y-90808275D01*
X177750845Y-90702770D01*
X177779868Y-90639218D01*
X177808247Y-90620979D01*
X177788083Y-90608020D01*
X177918750Y-90608020D01*
X177967294Y-90639216D01*
X177986213Y-90673857D01*
X177987639Y-90673207D01*
X178016684Y-90736807D01*
X178045998Y-90800996D01*
X178132188Y-90900464D01*
X178242909Y-90971620D01*
X178242912Y-90971621D01*
X178242911Y-90971621D01*
X178369190Y-91008699D01*
X178369192Y-91008700D01*
X178369193Y-91008700D01*
X178500808Y-91008700D01*
X178500808Y-91008699D01*
X178627091Y-90971620D01*
X178737812Y-90900464D01*
X178824002Y-90800996D01*
X178878676Y-90681275D01*
X178897407Y-90551000D01*
X178878676Y-90420725D01*
X178878675Y-90420724D01*
X178878675Y-90420721D01*
X178824002Y-90301005D01*
X178824002Y-90301004D01*
X178737812Y-90201536D01*
X178627091Y-90130380D01*
X178627089Y-90130379D01*
X178627087Y-90130378D01*
X178627088Y-90130378D01*
X178500809Y-90093300D01*
X178500807Y-90093300D01*
X178369193Y-90093300D01*
X178369190Y-90093300D01*
X178242911Y-90130378D01*
X178132189Y-90201535D01*
X178045999Y-90301002D01*
X178045997Y-90301005D01*
X177991324Y-90420721D01*
X177991323Y-90420726D01*
X177976155Y-90526226D01*
X177947130Y-90589782D01*
X177918750Y-90608020D01*
X177788083Y-90608020D01*
X177759704Y-90589782D01*
X177740788Y-90555140D01*
X177739361Y-90555793D01*
X177702219Y-90474464D01*
X177681002Y-90428004D01*
X177594812Y-90328536D01*
X177484091Y-90257380D01*
X177484089Y-90257379D01*
X177484087Y-90257378D01*
X177484088Y-90257378D01*
X177357809Y-90220300D01*
X177357807Y-90220300D01*
X177226193Y-90220300D01*
X177226190Y-90220300D01*
X177099911Y-90257378D01*
X176989189Y-90328535D01*
X176902999Y-90428002D01*
X176902997Y-90428005D01*
X176848324Y-90547721D01*
X176848323Y-90547726D01*
X176829593Y-90678000D01*
X167064051Y-90678000D01*
X167104222Y-90572079D01*
X167122081Y-90425000D01*
X167104222Y-90277921D01*
X167051684Y-90139390D01*
X167045463Y-90130378D01*
X166967521Y-90017459D01*
X166967520Y-90017457D01*
X166967517Y-90017454D01*
X166967515Y-90017452D01*
X166856623Y-89919210D01*
X166725431Y-89850356D01*
X166581581Y-89814900D01*
X166581580Y-89814900D01*
X166433420Y-89814900D01*
X166433419Y-89814900D01*
X166289568Y-89850356D01*
X166158376Y-89919210D01*
X166047484Y-90017452D01*
X166047481Y-90017455D01*
X166017050Y-90061543D01*
X165962767Y-90105533D01*
X165893318Y-90113192D01*
X165830753Y-90082088D01*
X165812950Y-90061543D01*
X165782521Y-90017459D01*
X165782520Y-90017457D01*
X165782518Y-90017455D01*
X165782515Y-90017452D01*
X165671623Y-89919210D01*
X165540431Y-89850356D01*
X165396581Y-89814900D01*
X165396580Y-89814900D01*
X165248420Y-89814900D01*
X165248419Y-89814900D01*
X165104568Y-89850356D01*
X164973376Y-89919210D01*
X164862484Y-90017452D01*
X164862478Y-90017459D01*
X164778317Y-90139387D01*
X164725778Y-90277920D01*
X164725777Y-90277922D01*
X164707919Y-90425000D01*
X155190673Y-90425000D01*
X155234002Y-90374996D01*
X155278335Y-90277920D01*
X155288675Y-90255278D01*
X155288676Y-90255273D01*
X155307407Y-90125000D01*
X155288676Y-89994725D01*
X155288675Y-89994724D01*
X155288675Y-89994721D01*
X155234002Y-89875005D01*
X155234002Y-89875004D01*
X155174383Y-89806201D01*
X155145359Y-89742648D01*
X155155302Y-89673490D01*
X155174381Y-89643801D01*
X155234002Y-89574996D01*
X155288676Y-89455275D01*
X155307407Y-89325000D01*
X155288676Y-89194725D01*
X155288675Y-89194724D01*
X155288675Y-89194721D01*
X155245000Y-89099086D01*
X155234002Y-89075004D01*
X155147812Y-88975536D01*
X155037091Y-88904380D01*
X155037089Y-88904379D01*
X155037087Y-88904378D01*
X155037088Y-88904378D01*
X154910809Y-88867300D01*
X154910807Y-88867300D01*
X154779193Y-88867300D01*
X154779190Y-88867300D01*
X154652911Y-88904378D01*
X154542188Y-88975535D01*
X154542185Y-88975538D01*
X154538712Y-88979547D01*
X154479934Y-89017321D01*
X154410064Y-89017321D01*
X154351288Y-88979547D01*
X154347814Y-88975538D01*
X154347811Y-88975535D01*
X154301262Y-88945620D01*
X154237091Y-88904380D01*
X154237089Y-88904379D01*
X154237087Y-88904378D01*
X154237088Y-88904378D01*
X154110809Y-88867300D01*
X154110807Y-88867300D01*
X153979193Y-88867300D01*
X153979190Y-88867300D01*
X153852911Y-88904378D01*
X153742189Y-88975535D01*
X153742188Y-88975535D01*
X153742188Y-88975536D01*
X153735981Y-88982699D01*
X153655999Y-89075002D01*
X153655997Y-89075005D01*
X153601324Y-89194721D01*
X153601323Y-89194726D01*
X153582593Y-89325000D01*
X150507407Y-89325000D01*
X150488676Y-89194725D01*
X150488675Y-89194724D01*
X150488675Y-89194721D01*
X150445000Y-89099086D01*
X150434002Y-89075004D01*
X150347812Y-88975536D01*
X150237091Y-88904380D01*
X150237089Y-88904379D01*
X150237087Y-88904378D01*
X150237088Y-88904378D01*
X150110809Y-88867300D01*
X150110807Y-88867300D01*
X149979193Y-88867300D01*
X149979190Y-88867300D01*
X149852911Y-88904378D01*
X149742189Y-88975535D01*
X149742188Y-88975535D01*
X149742188Y-88975536D01*
X149735981Y-88982699D01*
X149655999Y-89075002D01*
X149655997Y-89075005D01*
X149601324Y-89194721D01*
X149601323Y-89194726D01*
X149582593Y-89325000D01*
X141370300Y-89325000D01*
X141370300Y-88537400D01*
X142108019Y-88537400D01*
X142125877Y-88684477D01*
X142125878Y-88684479D01*
X142160967Y-88777002D01*
X142178417Y-88823012D01*
X142213932Y-88874464D01*
X142262580Y-88944943D01*
X142262582Y-88944945D01*
X142262584Y-88944947D01*
X142373476Y-89043189D01*
X142373478Y-89043190D01*
X142504667Y-89112043D01*
X142576593Y-89129771D01*
X142648519Y-89147500D01*
X142648520Y-89147500D01*
X142796681Y-89147500D01*
X142844631Y-89135681D01*
X142940533Y-89112043D01*
X143071722Y-89043190D01*
X143182620Y-88944943D01*
X143266784Y-88823010D01*
X143319322Y-88684479D01*
X143337181Y-88537400D01*
X143319322Y-88390321D01*
X143266784Y-88251790D01*
X143182620Y-88129857D01*
X143182617Y-88129854D01*
X143182615Y-88129852D01*
X143071723Y-88031610D01*
X142940531Y-87962756D01*
X142796681Y-87927300D01*
X142796680Y-87927300D01*
X142648520Y-87927300D01*
X142648519Y-87927300D01*
X142504668Y-87962756D01*
X142373476Y-88031610D01*
X142262584Y-88129852D01*
X142262578Y-88129859D01*
X142178417Y-88251787D01*
X142125878Y-88390320D01*
X142125877Y-88390322D01*
X142108019Y-88537400D01*
X141370300Y-88537400D01*
X141370300Y-86925000D01*
X149582593Y-86925000D01*
X149601323Y-87055273D01*
X149601324Y-87055278D01*
X149655997Y-87174994D01*
X149655999Y-87174997D01*
X149715615Y-87243797D01*
X149744640Y-87307353D01*
X149734697Y-87376511D01*
X149715615Y-87406203D01*
X149655999Y-87475002D01*
X149655997Y-87475005D01*
X149601324Y-87594721D01*
X149601323Y-87594726D01*
X149582593Y-87725000D01*
X149601323Y-87855273D01*
X149601324Y-87855278D01*
X149653485Y-87969494D01*
X149655998Y-87974996D01*
X149742188Y-88074464D01*
X149852909Y-88145620D01*
X149852912Y-88145621D01*
X149852911Y-88145621D01*
X149894758Y-88157908D01*
X149968972Y-88179699D01*
X149979190Y-88182699D01*
X149979192Y-88182700D01*
X149979193Y-88182700D01*
X150110808Y-88182700D01*
X150110808Y-88182699D01*
X150237091Y-88145620D01*
X150347812Y-88074464D01*
X150434002Y-87974996D01*
X150488676Y-87855275D01*
X150507407Y-87725000D01*
X150488676Y-87594725D01*
X150488675Y-87594724D01*
X150488675Y-87594721D01*
X150434002Y-87475005D01*
X150434002Y-87475004D01*
X150374383Y-87406201D01*
X150345359Y-87342648D01*
X150355302Y-87273490D01*
X150374381Y-87243801D01*
X150434002Y-87174996D01*
X150488676Y-87055275D01*
X150507407Y-86925000D01*
X156782593Y-86925000D01*
X156801323Y-87055273D01*
X156801324Y-87055278D01*
X156855997Y-87174994D01*
X156855999Y-87174997D01*
X156915615Y-87243797D01*
X156944640Y-87307353D01*
X156934697Y-87376511D01*
X156915615Y-87406203D01*
X156855999Y-87475002D01*
X156855997Y-87475005D01*
X156801324Y-87594721D01*
X156801323Y-87594726D01*
X156782593Y-87725000D01*
X156801323Y-87855273D01*
X156801324Y-87855278D01*
X156853485Y-87969494D01*
X156855998Y-87974996D01*
X156942188Y-88074464D01*
X157052909Y-88145620D01*
X157052912Y-88145621D01*
X157052911Y-88145621D01*
X157094758Y-88157908D01*
X157168972Y-88179699D01*
X157179190Y-88182699D01*
X157179192Y-88182700D01*
X157179193Y-88182700D01*
X157310808Y-88182700D01*
X157310808Y-88182699D01*
X157437091Y-88145620D01*
X157475305Y-88121060D01*
X157542342Y-88101377D01*
X157609381Y-88121061D01*
X157655137Y-88173864D01*
X157665081Y-88243023D01*
X157655138Y-88276885D01*
X157645000Y-88299086D01*
X157601324Y-88394724D01*
X157601323Y-88394726D01*
X157582593Y-88525000D01*
X157601323Y-88655273D01*
X157601325Y-88655281D01*
X157655137Y-88773111D01*
X157665081Y-88842269D01*
X157636056Y-88905825D01*
X157577278Y-88943599D01*
X157507408Y-88943599D01*
X157475304Y-88928938D01*
X157437091Y-88904380D01*
X157437089Y-88904379D01*
X157437087Y-88904378D01*
X157437088Y-88904378D01*
X157310809Y-88867300D01*
X157310807Y-88867300D01*
X157179193Y-88867300D01*
X157179190Y-88867300D01*
X157052911Y-88904378D01*
X156942189Y-88975535D01*
X156942188Y-88975535D01*
X156942188Y-88975536D01*
X156935981Y-88982699D01*
X156855999Y-89075002D01*
X156855997Y-89075005D01*
X156801324Y-89194721D01*
X156801323Y-89194726D01*
X156782593Y-89325000D01*
X156801323Y-89455273D01*
X156801324Y-89455278D01*
X156846530Y-89554264D01*
X156855998Y-89574996D01*
X156942188Y-89674464D01*
X157052909Y-89745620D01*
X157052912Y-89745621D01*
X157052911Y-89745621D01*
X157179190Y-89782699D01*
X157179192Y-89782700D01*
X157179193Y-89782700D01*
X157310808Y-89782700D01*
X157310808Y-89782699D01*
X157437091Y-89745620D01*
X157547812Y-89674464D01*
X157634002Y-89574996D01*
X157688676Y-89455275D01*
X157707407Y-89325000D01*
X157688676Y-89194725D01*
X157688675Y-89194724D01*
X157688675Y-89194721D01*
X157650917Y-89112043D01*
X157634861Y-89076886D01*
X157624918Y-89007730D01*
X157653943Y-88944175D01*
X157712721Y-88906400D01*
X157782590Y-88906400D01*
X157814696Y-88921062D01*
X157852910Y-88945621D01*
X157979190Y-88982699D01*
X157979192Y-88982700D01*
X157979193Y-88982700D01*
X158110808Y-88982700D01*
X158110808Y-88982699D01*
X158237091Y-88945620D01*
X158347812Y-88874464D01*
X158351286Y-88870454D01*
X158410061Y-88832679D01*
X158479930Y-88832677D01*
X158538707Y-88870447D01*
X158542188Y-88874464D01*
X158652909Y-88945620D01*
X158652912Y-88945621D01*
X158652911Y-88945621D01*
X158779190Y-88982699D01*
X158779192Y-88982700D01*
X158779193Y-88982700D01*
X158910808Y-88982700D01*
X158910808Y-88982699D01*
X159037091Y-88945620D01*
X159108077Y-88900000D01*
X165585419Y-88900000D01*
X165603277Y-89047077D01*
X165603278Y-89047079D01*
X165614583Y-89076889D01*
X165655817Y-89185612D01*
X165686939Y-89230700D01*
X165739980Y-89307543D01*
X165739982Y-89307545D01*
X165739984Y-89307547D01*
X165850876Y-89405789D01*
X165850878Y-89405790D01*
X165982067Y-89474643D01*
X166053993Y-89492371D01*
X166125919Y-89510100D01*
X166125920Y-89510100D01*
X166274081Y-89510100D01*
X166322031Y-89498281D01*
X166417933Y-89474643D01*
X166549122Y-89405790D01*
X166660020Y-89307543D01*
X166744184Y-89185610D01*
X166796722Y-89047079D01*
X166814581Y-88900000D01*
X166796722Y-88752921D01*
X166744184Y-88614390D01*
X166740753Y-88609420D01*
X166713061Y-88569300D01*
X166660020Y-88492457D01*
X166660017Y-88492454D01*
X166660015Y-88492452D01*
X166549123Y-88394210D01*
X166417931Y-88325356D01*
X166274081Y-88289900D01*
X166274080Y-88289900D01*
X166125920Y-88289900D01*
X166125919Y-88289900D01*
X165982068Y-88325356D01*
X165850876Y-88394210D01*
X165739984Y-88492452D01*
X165739978Y-88492459D01*
X165655817Y-88614387D01*
X165603278Y-88752920D01*
X165603277Y-88752922D01*
X165585419Y-88900000D01*
X159108077Y-88900000D01*
X159147812Y-88874464D01*
X159234002Y-88774996D01*
X159278510Y-88677535D01*
X159288675Y-88655278D01*
X159288676Y-88655273D01*
X159307407Y-88525000D01*
X159288676Y-88394725D01*
X159288675Y-88394724D01*
X159288675Y-88394721D01*
X159245000Y-88299086D01*
X159234002Y-88275004D01*
X159174383Y-88206201D01*
X159145359Y-88142648D01*
X159155302Y-88073490D01*
X159174381Y-88043801D01*
X159234002Y-87974996D01*
X159288676Y-87855275D01*
X159307407Y-87725000D01*
X159288676Y-87594725D01*
X159288675Y-87594724D01*
X159288675Y-87594721D01*
X159281587Y-87579200D01*
X162046793Y-87579200D01*
X162065523Y-87709473D01*
X162065524Y-87709478D01*
X162101629Y-87788536D01*
X162120198Y-87829196D01*
X162206388Y-87928664D01*
X162317109Y-87999820D01*
X162317112Y-87999821D01*
X162317111Y-87999821D01*
X162443390Y-88036899D01*
X162443392Y-88036900D01*
X162443393Y-88036900D01*
X162575008Y-88036900D01*
X162575008Y-88036899D01*
X162701291Y-87999820D01*
X162812012Y-87928664D01*
X162898202Y-87829196D01*
X162948298Y-87719500D01*
X174416593Y-87719500D01*
X174435323Y-87849773D01*
X174435324Y-87849778D01*
X174485981Y-87960700D01*
X174489998Y-87969496D01*
X174576188Y-88068964D01*
X174686909Y-88140120D01*
X174686912Y-88140121D01*
X174686911Y-88140121D01*
X174821702Y-88179699D01*
X174821183Y-88181463D01*
X174874781Y-88205933D01*
X174912563Y-88264707D01*
X174912571Y-88334576D01*
X174874804Y-88393359D01*
X174860631Y-88403970D01*
X174830192Y-88423532D01*
X174830189Y-88423534D01*
X174743999Y-88523002D01*
X174743997Y-88523005D01*
X174689324Y-88642721D01*
X174689323Y-88642726D01*
X174670593Y-88773000D01*
X174689323Y-88903273D01*
X174689324Y-88903278D01*
X174737026Y-89007730D01*
X174743998Y-89022996D01*
X174830188Y-89122464D01*
X174940909Y-89193620D01*
X174940912Y-89193621D01*
X174940911Y-89193621D01*
X175067190Y-89230699D01*
X175067192Y-89230700D01*
X175067193Y-89230700D01*
X175198808Y-89230700D01*
X175198808Y-89230699D01*
X175296804Y-89201925D01*
X175325088Y-89193621D01*
X175325088Y-89193620D01*
X175325091Y-89193620D01*
X175435812Y-89122464D01*
X175518532Y-89027000D01*
X176762093Y-89027000D01*
X176780823Y-89157273D01*
X176780824Y-89157278D01*
X176835497Y-89276994D01*
X176835498Y-89276996D01*
X176921688Y-89376464D01*
X177032409Y-89447620D01*
X177032412Y-89447621D01*
X177032411Y-89447621D01*
X177158690Y-89484699D01*
X177158692Y-89484700D01*
X177158693Y-89484700D01*
X177290308Y-89484700D01*
X177290308Y-89484699D01*
X177416591Y-89447620D01*
X177527312Y-89376464D01*
X177610032Y-89281000D01*
X179115593Y-89281000D01*
X179134323Y-89411273D01*
X179134324Y-89411278D01*
X179179455Y-89510100D01*
X179188998Y-89530996D01*
X179275188Y-89630464D01*
X179385909Y-89701620D01*
X179385912Y-89701621D01*
X179385911Y-89701621D01*
X179512190Y-89738699D01*
X179512192Y-89738700D01*
X179512193Y-89738700D01*
X179643808Y-89738700D01*
X179643808Y-89738699D01*
X179770091Y-89701620D01*
X179880812Y-89630464D01*
X179967002Y-89530996D01*
X180021676Y-89411275D01*
X180040407Y-89281000D01*
X182477093Y-89281000D01*
X182495823Y-89411273D01*
X182495824Y-89411278D01*
X182540955Y-89510100D01*
X182550498Y-89530996D01*
X182636688Y-89630464D01*
X182747409Y-89701620D01*
X182747412Y-89701621D01*
X182747411Y-89701621D01*
X182873690Y-89738699D01*
X182873692Y-89738700D01*
X182873693Y-89738700D01*
X183005308Y-89738700D01*
X183005308Y-89738699D01*
X183131591Y-89701620D01*
X183242312Y-89630464D01*
X183328502Y-89530996D01*
X183383176Y-89411275D01*
X183401907Y-89281000D01*
X183390951Y-89204800D01*
X186887993Y-89204800D01*
X186906723Y-89335073D01*
X186906724Y-89335078D01*
X186941524Y-89411278D01*
X186961398Y-89454796D01*
X187047588Y-89554264D01*
X187158309Y-89625420D01*
X187158312Y-89625421D01*
X187158311Y-89625421D01*
X187284590Y-89662499D01*
X187284592Y-89662500D01*
X187284593Y-89662500D01*
X187416208Y-89662500D01*
X187416208Y-89662499D01*
X187542491Y-89625420D01*
X187653212Y-89554264D01*
X187739402Y-89454796D01*
X187794076Y-89335075D01*
X187812807Y-89204800D01*
X187794076Y-89074525D01*
X187794075Y-89074524D01*
X187794075Y-89074521D01*
X187758856Y-88997404D01*
X187739402Y-88954804D01*
X187653212Y-88855336D01*
X187542491Y-88784180D01*
X187542489Y-88784179D01*
X187542487Y-88784178D01*
X187542488Y-88784178D01*
X187416209Y-88747100D01*
X187416207Y-88747100D01*
X187284593Y-88747100D01*
X187284590Y-88747100D01*
X187158311Y-88784178D01*
X187047589Y-88855335D01*
X186961399Y-88954802D01*
X186961397Y-88954805D01*
X186906724Y-89074521D01*
X186906723Y-89074526D01*
X186887993Y-89204800D01*
X183390951Y-89204800D01*
X183383176Y-89150725D01*
X183383175Y-89150724D01*
X183383175Y-89150721D01*
X183334067Y-89043190D01*
X183328502Y-89031004D01*
X183242312Y-88931536D01*
X183131591Y-88860380D01*
X183131589Y-88860379D01*
X183131587Y-88860378D01*
X183131588Y-88860378D01*
X183005309Y-88823300D01*
X183005307Y-88823300D01*
X182873693Y-88823300D01*
X182873690Y-88823300D01*
X182747411Y-88860378D01*
X182636689Y-88931535D01*
X182550499Y-89031002D01*
X182550497Y-89031005D01*
X182495824Y-89150721D01*
X182495823Y-89150726D01*
X182477093Y-89281000D01*
X180040407Y-89281000D01*
X180021676Y-89150725D01*
X180021675Y-89150724D01*
X180021675Y-89150721D01*
X179972567Y-89043190D01*
X179967002Y-89031004D01*
X179880812Y-88931536D01*
X179770091Y-88860380D01*
X179770089Y-88860379D01*
X179770087Y-88860378D01*
X179770088Y-88860378D01*
X179696179Y-88838677D01*
X179655672Y-88812645D01*
X179619387Y-88823300D01*
X179512190Y-88823300D01*
X179385911Y-88860378D01*
X179275189Y-88931535D01*
X179188999Y-89031002D01*
X179188997Y-89031005D01*
X179134324Y-89150721D01*
X179134323Y-89150726D01*
X179115593Y-89281000D01*
X177610032Y-89281000D01*
X177613502Y-89276996D01*
X177668176Y-89157275D01*
X177686907Y-89027000D01*
X177668176Y-88896725D01*
X177668175Y-88896724D01*
X177668175Y-88896721D01*
X177613502Y-88777005D01*
X177613502Y-88777004D01*
X177527312Y-88677536D01*
X177416591Y-88606380D01*
X177416589Y-88606379D01*
X177416587Y-88606378D01*
X177416588Y-88606378D01*
X177290309Y-88569300D01*
X177290307Y-88569300D01*
X177158693Y-88569300D01*
X177158690Y-88569300D01*
X177032411Y-88606378D01*
X176921689Y-88677535D01*
X176835499Y-88777002D01*
X176835497Y-88777005D01*
X176780824Y-88896721D01*
X176780823Y-88896726D01*
X176762093Y-89027000D01*
X175518532Y-89027000D01*
X175522002Y-89022996D01*
X175575249Y-88906400D01*
X175576675Y-88903278D01*
X175576676Y-88903273D01*
X175577147Y-88900000D01*
X175595407Y-88773000D01*
X175576676Y-88642725D01*
X175576675Y-88642724D01*
X175576675Y-88642721D01*
X175541456Y-88565604D01*
X175522002Y-88523004D01*
X175435812Y-88423536D01*
X175325091Y-88352380D01*
X175325089Y-88352379D01*
X175325087Y-88352378D01*
X175325088Y-88352378D01*
X175190298Y-88312801D01*
X175190815Y-88311038D01*
X175137206Y-88286556D01*
X175099432Y-88227778D01*
X175099432Y-88157908D01*
X175112226Y-88138000D01*
X179310093Y-88138000D01*
X179328823Y-88268273D01*
X179328824Y-88268278D01*
X179383497Y-88387994D01*
X179383498Y-88387996D01*
X179469688Y-88487464D01*
X179580409Y-88558620D01*
X179580412Y-88558621D01*
X179580411Y-88558621D01*
X179654321Y-88580323D01*
X179694827Y-88606354D01*
X179731113Y-88595700D01*
X179838308Y-88595700D01*
X179838308Y-88595699D01*
X179964591Y-88558620D01*
X180075312Y-88487464D01*
X180161502Y-88387996D01*
X180206300Y-88289900D01*
X180216175Y-88268278D01*
X180216176Y-88268273D01*
X180218546Y-88251790D01*
X180234907Y-88138000D01*
X180216176Y-88007725D01*
X180216175Y-88007724D01*
X180216175Y-88007721D01*
X180179448Y-87927300D01*
X180161502Y-87888004D01*
X180075312Y-87788536D01*
X179964591Y-87717380D01*
X179964589Y-87717379D01*
X179964587Y-87717378D01*
X179964588Y-87717378D01*
X179838309Y-87680300D01*
X179838307Y-87680300D01*
X179706693Y-87680300D01*
X179706690Y-87680300D01*
X179580411Y-87717378D01*
X179469689Y-87788535D01*
X179383499Y-87888002D01*
X179383497Y-87888005D01*
X179328824Y-88007721D01*
X179328823Y-88007726D01*
X179310093Y-88138000D01*
X175112226Y-88138000D01*
X175137206Y-88099130D01*
X175151371Y-88088527D01*
X175181812Y-88068964D01*
X175268002Y-87969496D01*
X175320163Y-87855278D01*
X175322675Y-87849778D01*
X175322676Y-87849773D01*
X175324177Y-87839334D01*
X175341407Y-87719500D01*
X175322676Y-87589225D01*
X175322675Y-87589224D01*
X175322675Y-87589221D01*
X175283299Y-87503000D01*
X176762093Y-87503000D01*
X176780823Y-87633273D01*
X176780824Y-87633278D01*
X176835497Y-87752994D01*
X176835498Y-87752996D01*
X176921688Y-87852464D01*
X177032409Y-87923620D01*
X177032412Y-87923621D01*
X177032411Y-87923621D01*
X177158690Y-87960699D01*
X177158692Y-87960700D01*
X177158693Y-87960700D01*
X177290308Y-87960700D01*
X177290308Y-87960699D01*
X177416591Y-87923620D01*
X177527312Y-87852464D01*
X177613502Y-87752996D01*
X177668176Y-87633275D01*
X177686907Y-87503000D01*
X177668176Y-87372725D01*
X177668175Y-87372724D01*
X177668175Y-87372721D01*
X177623302Y-87274464D01*
X177613502Y-87253004D01*
X177527312Y-87153536D01*
X177416591Y-87082380D01*
X177416589Y-87082379D01*
X177416587Y-87082378D01*
X177416588Y-87082378D01*
X177290309Y-87045300D01*
X177290307Y-87045300D01*
X177158693Y-87045300D01*
X177158690Y-87045300D01*
X177032411Y-87082378D01*
X176921689Y-87153535D01*
X176835499Y-87253002D01*
X176835497Y-87253005D01*
X176780824Y-87372721D01*
X176780823Y-87372726D01*
X176762093Y-87503000D01*
X175283299Y-87503000D01*
X175270514Y-87475005D01*
X175268002Y-87469504D01*
X175181812Y-87370036D01*
X175071091Y-87298880D01*
X175071089Y-87298879D01*
X175071087Y-87298878D01*
X175071088Y-87298878D01*
X174944809Y-87261800D01*
X174944807Y-87261800D01*
X174813193Y-87261800D01*
X174813190Y-87261800D01*
X174686911Y-87298878D01*
X174576189Y-87370035D01*
X174576188Y-87370035D01*
X174576188Y-87370036D01*
X174573858Y-87372725D01*
X174489999Y-87469502D01*
X174489997Y-87469505D01*
X174435324Y-87589221D01*
X174435323Y-87589226D01*
X174416593Y-87719500D01*
X162948298Y-87719500D01*
X162952875Y-87709478D01*
X162952876Y-87709473D01*
X162971607Y-87579200D01*
X162952876Y-87448925D01*
X162952875Y-87448924D01*
X162952875Y-87448921D01*
X162916849Y-87370035D01*
X162898202Y-87329204D01*
X162812012Y-87229736D01*
X162701291Y-87158580D01*
X162701289Y-87158579D01*
X162701287Y-87158578D01*
X162701288Y-87158578D01*
X162575009Y-87121500D01*
X162575007Y-87121500D01*
X162443393Y-87121500D01*
X162443390Y-87121500D01*
X162317111Y-87158578D01*
X162206389Y-87229735D01*
X162120199Y-87329202D01*
X162120197Y-87329205D01*
X162065524Y-87448921D01*
X162065523Y-87448926D01*
X162046793Y-87579200D01*
X159281587Y-87579200D01*
X159234002Y-87475005D01*
X159234002Y-87475004D01*
X159174383Y-87406201D01*
X159145359Y-87342648D01*
X159155302Y-87273490D01*
X159174381Y-87243801D01*
X159234002Y-87174996D01*
X159288676Y-87055275D01*
X159307407Y-86925000D01*
X159288676Y-86794725D01*
X159288675Y-86794724D01*
X159288675Y-86794721D01*
X159287341Y-86791800D01*
X172384593Y-86791800D01*
X172403323Y-86922073D01*
X172403324Y-86922078D01*
X172457997Y-87041794D01*
X172457998Y-87041796D01*
X172544188Y-87141264D01*
X172654909Y-87212420D01*
X172654912Y-87212421D01*
X172654911Y-87212421D01*
X172781190Y-87249499D01*
X172781192Y-87249500D01*
X172781193Y-87249500D01*
X172912808Y-87249500D01*
X172912808Y-87249499D01*
X173039091Y-87212420D01*
X173149812Y-87141264D01*
X173236002Y-87041796D01*
X173274911Y-86956595D01*
X173290675Y-86922078D01*
X173290676Y-86922073D01*
X173309407Y-86791800D01*
X175534193Y-86791800D01*
X175552923Y-86922073D01*
X175552924Y-86922078D01*
X175607597Y-87041794D01*
X175607598Y-87041796D01*
X175693788Y-87141264D01*
X175804509Y-87212420D01*
X175804512Y-87212421D01*
X175804511Y-87212421D01*
X175930790Y-87249499D01*
X175930792Y-87249500D01*
X175930793Y-87249500D01*
X176062408Y-87249500D01*
X176062408Y-87249499D01*
X176188691Y-87212420D01*
X176299412Y-87141264D01*
X176385602Y-87041796D01*
X176424511Y-86956595D01*
X176440275Y-86922078D01*
X176440276Y-86922073D01*
X176459007Y-86791800D01*
X176451703Y-86741000D01*
X179310093Y-86741000D01*
X179328823Y-86871273D01*
X179328824Y-86871278D01*
X179383497Y-86990994D01*
X179383498Y-86990996D01*
X179469688Y-87090464D01*
X179580409Y-87161620D01*
X179580412Y-87161621D01*
X179580411Y-87161621D01*
X179706690Y-87198699D01*
X179706692Y-87198700D01*
X179706693Y-87198700D01*
X179838308Y-87198700D01*
X179838308Y-87198699D01*
X179964591Y-87161620D01*
X180026241Y-87122000D01*
X183797893Y-87122000D01*
X183816623Y-87252273D01*
X183816624Y-87252278D01*
X183851756Y-87329205D01*
X183871298Y-87371996D01*
X183957488Y-87471464D01*
X184068209Y-87542620D01*
X184068212Y-87542621D01*
X184068211Y-87542621D01*
X184083461Y-87547099D01*
X184142239Y-87584873D01*
X184171265Y-87648428D01*
X184161322Y-87717587D01*
X184115567Y-87770391D01*
X184008290Y-87839334D01*
X184008289Y-87839334D01*
X183922099Y-87938802D01*
X183922097Y-87938805D01*
X183867424Y-88058521D01*
X183867423Y-88058526D01*
X183848693Y-88188800D01*
X183867423Y-88319073D01*
X183867424Y-88319078D01*
X183915129Y-88423536D01*
X183922098Y-88438796D01*
X184008288Y-88538264D01*
X184119009Y-88609420D01*
X184119012Y-88609421D01*
X184119011Y-88609421D01*
X184217006Y-88638194D01*
X184232436Y-88642725D01*
X184245290Y-88646499D01*
X184245292Y-88646500D01*
X184245293Y-88646500D01*
X184376908Y-88646500D01*
X184376908Y-88646499D01*
X184503191Y-88609420D01*
X184613912Y-88538264D01*
X184700102Y-88438796D01*
X184754776Y-88319075D01*
X184773507Y-88188800D01*
X184754776Y-88058525D01*
X184754775Y-88058524D01*
X184754775Y-88058521D01*
X184719556Y-87981404D01*
X184700102Y-87938804D01*
X184613912Y-87839336D01*
X184503191Y-87768180D01*
X184503189Y-87768179D01*
X184503187Y-87768178D01*
X184503186Y-87768177D01*
X184487935Y-87763699D01*
X184429157Y-87725924D01*
X184400134Y-87662367D01*
X184410079Y-87593209D01*
X184455831Y-87540409D01*
X184563112Y-87471464D01*
X184649302Y-87371996D01*
X184703976Y-87252275D01*
X184722707Y-87122000D01*
X184703976Y-86991725D01*
X184703975Y-86991724D01*
X184703975Y-86991721D01*
X184649302Y-86872005D01*
X184649302Y-86872004D01*
X184563112Y-86772536D01*
X184553564Y-86766400D01*
X185973593Y-86766400D01*
X185992323Y-86896673D01*
X185992324Y-86896678D01*
X186046997Y-87016394D01*
X186046998Y-87016396D01*
X186133188Y-87115864D01*
X186243909Y-87187020D01*
X186243912Y-87187021D01*
X186243911Y-87187021D01*
X186370190Y-87224099D01*
X186370192Y-87224100D01*
X186370193Y-87224100D01*
X186501808Y-87224100D01*
X186501808Y-87224099D01*
X186628091Y-87187020D01*
X186738812Y-87115864D01*
X186825002Y-87016396D01*
X186879676Y-86896675D01*
X186898407Y-86766400D01*
X186879676Y-86636125D01*
X186879675Y-86636124D01*
X186879675Y-86636121D01*
X186836602Y-86541805D01*
X186825002Y-86516404D01*
X186738812Y-86416936D01*
X186628091Y-86345780D01*
X186628089Y-86345779D01*
X186628087Y-86345778D01*
X186628088Y-86345778D01*
X186501809Y-86308700D01*
X186501807Y-86308700D01*
X186370193Y-86308700D01*
X186370190Y-86308700D01*
X186243911Y-86345778D01*
X186133189Y-86416935D01*
X186046999Y-86516402D01*
X186046997Y-86516405D01*
X185992324Y-86636121D01*
X185992323Y-86636126D01*
X185973593Y-86766400D01*
X184553564Y-86766400D01*
X184452391Y-86701380D01*
X184452389Y-86701379D01*
X184452387Y-86701378D01*
X184452388Y-86701378D01*
X184326109Y-86664300D01*
X184326107Y-86664300D01*
X184194493Y-86664300D01*
X184194490Y-86664300D01*
X184068211Y-86701378D01*
X183957489Y-86772535D01*
X183871299Y-86872002D01*
X183871297Y-86872005D01*
X183816624Y-86991721D01*
X183816623Y-86991726D01*
X183797893Y-87122000D01*
X180026241Y-87122000D01*
X180075312Y-87090464D01*
X180161502Y-86990996D01*
X180216176Y-86871275D01*
X180234907Y-86741000D01*
X180216176Y-86610725D01*
X180216175Y-86610724D01*
X180216175Y-86610721D01*
X180173102Y-86516405D01*
X180161502Y-86491004D01*
X180075312Y-86391536D01*
X179964591Y-86320380D01*
X179964589Y-86320379D01*
X179964587Y-86320378D01*
X179964588Y-86320378D01*
X179838309Y-86283300D01*
X179838307Y-86283300D01*
X179706693Y-86283300D01*
X179706690Y-86283300D01*
X179580411Y-86320378D01*
X179469689Y-86391535D01*
X179383499Y-86491002D01*
X179383497Y-86491005D01*
X179328824Y-86610721D01*
X179328823Y-86610726D01*
X179310093Y-86741000D01*
X176451703Y-86741000D01*
X176440276Y-86661525D01*
X176440275Y-86661524D01*
X176440275Y-86661521D01*
X176402838Y-86579547D01*
X176385602Y-86541804D01*
X176299412Y-86442336D01*
X176188691Y-86371180D01*
X176188689Y-86371179D01*
X176188687Y-86371178D01*
X176188688Y-86371178D01*
X176062409Y-86334100D01*
X176062407Y-86334100D01*
X175930793Y-86334100D01*
X175930790Y-86334100D01*
X175804511Y-86371178D01*
X175693789Y-86442335D01*
X175607599Y-86541802D01*
X175607597Y-86541805D01*
X175552924Y-86661521D01*
X175552923Y-86661526D01*
X175534193Y-86791800D01*
X173309407Y-86791800D01*
X173290676Y-86661525D01*
X173290675Y-86661524D01*
X173290675Y-86661521D01*
X173253238Y-86579547D01*
X173236002Y-86541804D01*
X173149812Y-86442336D01*
X173039091Y-86371180D01*
X173039089Y-86371179D01*
X173039087Y-86371178D01*
X173039088Y-86371178D01*
X172912809Y-86334100D01*
X172912807Y-86334100D01*
X172781193Y-86334100D01*
X172781190Y-86334100D01*
X172654911Y-86371178D01*
X172544189Y-86442335D01*
X172457999Y-86541802D01*
X172457997Y-86541805D01*
X172403324Y-86661521D01*
X172403323Y-86661526D01*
X172384593Y-86791800D01*
X159287341Y-86791800D01*
X159246046Y-86701378D01*
X159234861Y-86676886D01*
X159224918Y-86607730D01*
X159253943Y-86544175D01*
X159312721Y-86506400D01*
X159382590Y-86506400D01*
X159414696Y-86521062D01*
X159452910Y-86545621D01*
X159579190Y-86582699D01*
X159579192Y-86582700D01*
X159579193Y-86582700D01*
X159710808Y-86582700D01*
X159710808Y-86582699D01*
X159837091Y-86545620D01*
X159947812Y-86474464D01*
X160034002Y-86374996D01*
X160075878Y-86283300D01*
X160088675Y-86255278D01*
X160088676Y-86255273D01*
X160102835Y-86156800D01*
X162707193Y-86156800D01*
X162725923Y-86287073D01*
X162725924Y-86287078D01*
X162773629Y-86391536D01*
X162780598Y-86406796D01*
X162866788Y-86506264D01*
X162977509Y-86577420D01*
X162977512Y-86577421D01*
X162977511Y-86577421D01*
X163075506Y-86606194D01*
X163090936Y-86610725D01*
X163103790Y-86614499D01*
X163103792Y-86614500D01*
X163103793Y-86614500D01*
X163235408Y-86614500D01*
X163235408Y-86614499D01*
X163361691Y-86577420D01*
X163472412Y-86506264D01*
X163558602Y-86406796D01*
X163613276Y-86287075D01*
X163632007Y-86156800D01*
X163613276Y-86026525D01*
X163613275Y-86026524D01*
X163613275Y-86026521D01*
X163558602Y-85906805D01*
X163558602Y-85906804D01*
X163472412Y-85807336D01*
X163361691Y-85736180D01*
X163361689Y-85736179D01*
X163361687Y-85736178D01*
X163361688Y-85736178D01*
X163235409Y-85699100D01*
X163235407Y-85699100D01*
X163103793Y-85699100D01*
X163103790Y-85699100D01*
X162977511Y-85736178D01*
X162866789Y-85807335D01*
X162780599Y-85906802D01*
X162780597Y-85906805D01*
X162725924Y-86026521D01*
X162725923Y-86026526D01*
X162707193Y-86156800D01*
X160102835Y-86156800D01*
X160107407Y-86125000D01*
X160088676Y-85994725D01*
X160088675Y-85994724D01*
X160088675Y-85994721D01*
X160034002Y-85875005D01*
X160034002Y-85875004D01*
X159974383Y-85806201D01*
X159945359Y-85742648D01*
X159955302Y-85673490D01*
X159974381Y-85643801D01*
X160014069Y-85598000D01*
X185922793Y-85598000D01*
X185941523Y-85728273D01*
X185941524Y-85728278D01*
X185977629Y-85807336D01*
X185996198Y-85847996D01*
X186082388Y-85947464D01*
X186193109Y-86018620D01*
X186193112Y-86018621D01*
X186193111Y-86018621D01*
X186319390Y-86055699D01*
X186319392Y-86055700D01*
X186319393Y-86055700D01*
X186451008Y-86055700D01*
X186451008Y-86055699D01*
X186577291Y-86018620D01*
X186688012Y-85947464D01*
X186774202Y-85847996D01*
X186825267Y-85736178D01*
X186828875Y-85728278D01*
X186828876Y-85728273D01*
X186829347Y-85725000D01*
X186847607Y-85598000D01*
X186828876Y-85467725D01*
X186828875Y-85467724D01*
X186828875Y-85467721D01*
X186774202Y-85348005D01*
X186774202Y-85348004D01*
X186688012Y-85248536D01*
X186577291Y-85177380D01*
X186577289Y-85177379D01*
X186577287Y-85177378D01*
X186577288Y-85177378D01*
X186451009Y-85140300D01*
X186451007Y-85140300D01*
X186319393Y-85140300D01*
X186319390Y-85140300D01*
X186193111Y-85177378D01*
X186082389Y-85248535D01*
X185996199Y-85348002D01*
X185996197Y-85348005D01*
X185941524Y-85467721D01*
X185941523Y-85467726D01*
X185922793Y-85598000D01*
X160014069Y-85598000D01*
X160034002Y-85574996D01*
X160082990Y-85467726D01*
X160088675Y-85455278D01*
X160088676Y-85455273D01*
X160107407Y-85325000D01*
X160088676Y-85194725D01*
X160088675Y-85194724D01*
X160088675Y-85194721D01*
X160034002Y-85075005D01*
X160034002Y-85075004D01*
X159974383Y-85006201D01*
X159945359Y-84942648D01*
X159949737Y-84912200D01*
X166822219Y-84912200D01*
X166840077Y-85059277D01*
X166840078Y-85059279D01*
X166891446Y-85194726D01*
X166892617Y-85197812D01*
X166930686Y-85252964D01*
X166976780Y-85319743D01*
X166976782Y-85319745D01*
X166976784Y-85319747D01*
X167087676Y-85417989D01*
X167087678Y-85417990D01*
X167218867Y-85486843D01*
X167290793Y-85504571D01*
X167362719Y-85522300D01*
X167362720Y-85522300D01*
X167510881Y-85522300D01*
X167558831Y-85510481D01*
X167654733Y-85486843D01*
X167785922Y-85417990D01*
X167896820Y-85319743D01*
X167980984Y-85197810D01*
X168033522Y-85059279D01*
X168051381Y-84912200D01*
X168033522Y-84765121D01*
X168012238Y-84709000D01*
X179123593Y-84709000D01*
X179142323Y-84839273D01*
X179142324Y-84839278D01*
X179189532Y-84942648D01*
X179196998Y-84958996D01*
X179283188Y-85058464D01*
X179393909Y-85129620D01*
X179393912Y-85129621D01*
X179393911Y-85129621D01*
X179520190Y-85166699D01*
X179520192Y-85166700D01*
X179520193Y-85166700D01*
X179651808Y-85166700D01*
X179651808Y-85166699D01*
X179778091Y-85129620D01*
X179888812Y-85058464D01*
X179975002Y-84958996D01*
X180027611Y-84843797D01*
X180029675Y-84839278D01*
X180029676Y-84839273D01*
X180029986Y-84837117D01*
X180048407Y-84709000D01*
X181274593Y-84709000D01*
X181293323Y-84839273D01*
X181293324Y-84839278D01*
X181340532Y-84942648D01*
X181347998Y-84958996D01*
X181434188Y-85058464D01*
X181544909Y-85129620D01*
X181544912Y-85129621D01*
X181544911Y-85129621D01*
X181671190Y-85166699D01*
X181671192Y-85166700D01*
X181671193Y-85166700D01*
X181802808Y-85166700D01*
X181802808Y-85166699D01*
X181929091Y-85129620D01*
X182039812Y-85058464D01*
X182126002Y-84958996D01*
X182151346Y-84903500D01*
X182671593Y-84903500D01*
X182690323Y-85033773D01*
X182690324Y-85033778D01*
X182744997Y-85153494D01*
X182744998Y-85153496D01*
X182831188Y-85252964D01*
X182941909Y-85324120D01*
X182941912Y-85324121D01*
X182941911Y-85324121D01*
X183068190Y-85361199D01*
X183068192Y-85361200D01*
X183068193Y-85361200D01*
X183199808Y-85361200D01*
X183199808Y-85361199D01*
X183326091Y-85324120D01*
X183436812Y-85252964D01*
X183523002Y-85153496D01*
X183577676Y-85033775D01*
X183596407Y-84903500D01*
X183596407Y-84903499D01*
X183596407Y-84894631D01*
X183598480Y-84894631D01*
X183606749Y-84837118D01*
X183619449Y-84822460D01*
X183591362Y-84790042D01*
X183791547Y-84790042D01*
X183832338Y-84837117D01*
X183866627Y-84912200D01*
X183887998Y-84958996D01*
X183974188Y-85058464D01*
X184084909Y-85129620D01*
X184084912Y-85129621D01*
X184084911Y-85129621D01*
X184211190Y-85166699D01*
X184211192Y-85166700D01*
X184211193Y-85166700D01*
X184342808Y-85166700D01*
X184342808Y-85166699D01*
X184469091Y-85129620D01*
X184579812Y-85058464D01*
X184666002Y-84958996D01*
X184718611Y-84843797D01*
X184720675Y-84839278D01*
X184720676Y-84839273D01*
X184720986Y-84837117D01*
X184739407Y-84709000D01*
X184720676Y-84578725D01*
X184720675Y-84578724D01*
X184720675Y-84578721D01*
X184685456Y-84501604D01*
X184666002Y-84459004D01*
X184640523Y-84429600D01*
X185973593Y-84429600D01*
X185992323Y-84559873D01*
X185992324Y-84559878D01*
X186035890Y-84655273D01*
X186046998Y-84679596D01*
X186133188Y-84779064D01*
X186243909Y-84850220D01*
X186243912Y-84850221D01*
X186243911Y-84850221D01*
X186370190Y-84887299D01*
X186370192Y-84887300D01*
X186370193Y-84887300D01*
X186501808Y-84887300D01*
X186501808Y-84887299D01*
X186628091Y-84850220D01*
X186738812Y-84779064D01*
X186825002Y-84679596D01*
X186871068Y-84578725D01*
X186879675Y-84559878D01*
X186879676Y-84559873D01*
X186898407Y-84429600D01*
X186879676Y-84299325D01*
X186879675Y-84299324D01*
X186879675Y-84299321D01*
X186825002Y-84179605D01*
X186825002Y-84179604D01*
X186738812Y-84080136D01*
X186628091Y-84008980D01*
X186628089Y-84008979D01*
X186628087Y-84008978D01*
X186628088Y-84008978D01*
X186501809Y-83971900D01*
X186501807Y-83971900D01*
X186370193Y-83971900D01*
X186370190Y-83971900D01*
X186243911Y-84008978D01*
X186133189Y-84080135D01*
X186046999Y-84179602D01*
X186046997Y-84179605D01*
X185992324Y-84299321D01*
X185992323Y-84299326D01*
X185973593Y-84429600D01*
X184640523Y-84429600D01*
X184579812Y-84359536D01*
X184469091Y-84288380D01*
X184469089Y-84288379D01*
X184469087Y-84288378D01*
X184469088Y-84288378D01*
X184342809Y-84251300D01*
X184342807Y-84251300D01*
X184211193Y-84251300D01*
X184211190Y-84251300D01*
X184084911Y-84288378D01*
X183974189Y-84359535D01*
X183887999Y-84459002D01*
X183887997Y-84459005D01*
X183833324Y-84578721D01*
X183833323Y-84578726D01*
X183814593Y-84709000D01*
X183814593Y-84717869D01*
X183812521Y-84717869D01*
X183804243Y-84775396D01*
X183791547Y-84790042D01*
X183591362Y-84790042D01*
X183578660Y-84775381D01*
X183577676Y-84773226D01*
X183577676Y-84773225D01*
X183523002Y-84653504D01*
X183436812Y-84554036D01*
X183326091Y-84482880D01*
X183326089Y-84482879D01*
X183326087Y-84482878D01*
X183326088Y-84482878D01*
X183199809Y-84445800D01*
X183199807Y-84445800D01*
X183068193Y-84445800D01*
X183068190Y-84445800D01*
X182941911Y-84482878D01*
X182831189Y-84554035D01*
X182831188Y-84554035D01*
X182831188Y-84554036D01*
X182826126Y-84559878D01*
X182744999Y-84653502D01*
X182744997Y-84653505D01*
X182690324Y-84773221D01*
X182690323Y-84773226D01*
X182671593Y-84903500D01*
X182151346Y-84903500D01*
X182178611Y-84843797D01*
X182180675Y-84839278D01*
X182180676Y-84839273D01*
X182180986Y-84837117D01*
X182199407Y-84709000D01*
X182180676Y-84578725D01*
X182180675Y-84578724D01*
X182180675Y-84578721D01*
X182145456Y-84501604D01*
X182126002Y-84459004D01*
X182039812Y-84359536D01*
X181929091Y-84288380D01*
X181929089Y-84288379D01*
X181929087Y-84288378D01*
X181929088Y-84288378D01*
X181802809Y-84251300D01*
X181802807Y-84251300D01*
X181671193Y-84251300D01*
X181671190Y-84251300D01*
X181544911Y-84288378D01*
X181434189Y-84359535D01*
X181347999Y-84459002D01*
X181347997Y-84459005D01*
X181293324Y-84578721D01*
X181293323Y-84578726D01*
X181274593Y-84709000D01*
X180048407Y-84709000D01*
X180029676Y-84578725D01*
X180029675Y-84578724D01*
X180029675Y-84578721D01*
X179994456Y-84501604D01*
X179975002Y-84459004D01*
X179888812Y-84359536D01*
X179778091Y-84288380D01*
X179778089Y-84288379D01*
X179778087Y-84288378D01*
X179778088Y-84288378D01*
X179651809Y-84251300D01*
X179651807Y-84251300D01*
X179520193Y-84251300D01*
X179520190Y-84251300D01*
X179393911Y-84288378D01*
X179283189Y-84359535D01*
X179196999Y-84459002D01*
X179196997Y-84459005D01*
X179142324Y-84578721D01*
X179142323Y-84578726D01*
X179123593Y-84709000D01*
X168012238Y-84709000D01*
X167980984Y-84626590D01*
X167896820Y-84504657D01*
X167896817Y-84504654D01*
X167896815Y-84504652D01*
X167785923Y-84406410D01*
X167654731Y-84337556D01*
X167510881Y-84302100D01*
X167510880Y-84302100D01*
X167362720Y-84302100D01*
X167362719Y-84302100D01*
X167218868Y-84337556D01*
X167087676Y-84406410D01*
X166976784Y-84504652D01*
X166976778Y-84504659D01*
X166892617Y-84626587D01*
X166840078Y-84765120D01*
X166840077Y-84765122D01*
X166822219Y-84912200D01*
X159949737Y-84912200D01*
X159955302Y-84873490D01*
X159974381Y-84843801D01*
X160034002Y-84774996D01*
X160088676Y-84655275D01*
X160107407Y-84525000D01*
X160088676Y-84394725D01*
X160088675Y-84394724D01*
X160088675Y-84394721D01*
X160045107Y-84299321D01*
X160034002Y-84275004D01*
X159947812Y-84175536D01*
X159837091Y-84104380D01*
X159837089Y-84104379D01*
X159837087Y-84104378D01*
X159837088Y-84104378D01*
X159710809Y-84067300D01*
X159710807Y-84067300D01*
X159579193Y-84067300D01*
X159579190Y-84067300D01*
X159452911Y-84104378D01*
X159342189Y-84175535D01*
X159255999Y-84275002D01*
X159255997Y-84275005D01*
X159201324Y-84394721D01*
X159201323Y-84394726D01*
X159182593Y-84525000D01*
X159201323Y-84655273D01*
X159201324Y-84655278D01*
X159229909Y-84717869D01*
X159255998Y-84774996D01*
X159311696Y-84839275D01*
X159315615Y-84843797D01*
X159344640Y-84907353D01*
X159334697Y-84976511D01*
X159315615Y-85006203D01*
X159255999Y-85075002D01*
X159255997Y-85075005D01*
X159201324Y-85194721D01*
X159201323Y-85194726D01*
X159182593Y-85325000D01*
X159201323Y-85455273D01*
X159201325Y-85455281D01*
X159255137Y-85573111D01*
X159265081Y-85642269D01*
X159236056Y-85705825D01*
X159177278Y-85743599D01*
X159107408Y-85743599D01*
X159075304Y-85728938D01*
X159039339Y-85705825D01*
X159037091Y-85704380D01*
X159037089Y-85704379D01*
X159037087Y-85704378D01*
X159037088Y-85704378D01*
X158910809Y-85667300D01*
X158910807Y-85667300D01*
X158779193Y-85667300D01*
X158779190Y-85667300D01*
X158652911Y-85704378D01*
X158542189Y-85775535D01*
X158455999Y-85875002D01*
X158455997Y-85875005D01*
X158401324Y-85994721D01*
X158401323Y-85994726D01*
X158382593Y-86125000D01*
X158401323Y-86255273D01*
X158401325Y-86255281D01*
X158455137Y-86373111D01*
X158465081Y-86442269D01*
X158436056Y-86505825D01*
X158377278Y-86543599D01*
X158307408Y-86543599D01*
X158275304Y-86528938D01*
X158269176Y-86525000D01*
X158237091Y-86504380D01*
X158237089Y-86504379D01*
X158237087Y-86504378D01*
X158237088Y-86504378D01*
X158110809Y-86467300D01*
X158110807Y-86467300D01*
X157979193Y-86467300D01*
X157979190Y-86467300D01*
X157852911Y-86504378D01*
X157742188Y-86575535D01*
X157742185Y-86575538D01*
X157738712Y-86579547D01*
X157679934Y-86617321D01*
X157610064Y-86617321D01*
X157551288Y-86579547D01*
X157547814Y-86575538D01*
X157547811Y-86575535D01*
X157469176Y-86525000D01*
X157437091Y-86504380D01*
X157437089Y-86504379D01*
X157437087Y-86504378D01*
X157437088Y-86504378D01*
X157310809Y-86467300D01*
X157310807Y-86467300D01*
X157179193Y-86467300D01*
X157179190Y-86467300D01*
X157052911Y-86504378D01*
X156942189Y-86575535D01*
X156942188Y-86575535D01*
X156942188Y-86575536D01*
X156935981Y-86582699D01*
X156855999Y-86675002D01*
X156855997Y-86675005D01*
X156801324Y-86794721D01*
X156801323Y-86794726D01*
X156782593Y-86925000D01*
X150507407Y-86925000D01*
X150488676Y-86794725D01*
X150488675Y-86794724D01*
X150488675Y-86794721D01*
X150445000Y-86699086D01*
X150434002Y-86675004D01*
X150347812Y-86575536D01*
X150237091Y-86504380D01*
X150237089Y-86504379D01*
X150237087Y-86504378D01*
X150237088Y-86504378D01*
X150110809Y-86467300D01*
X150110807Y-86467300D01*
X149979193Y-86467300D01*
X149979190Y-86467300D01*
X149852911Y-86504378D01*
X149742189Y-86575535D01*
X149742188Y-86575535D01*
X149742188Y-86575536D01*
X149735981Y-86582699D01*
X149655999Y-86675002D01*
X149655997Y-86675005D01*
X149601324Y-86794721D01*
X149601323Y-86794726D01*
X149582593Y-86925000D01*
X141370300Y-86925000D01*
X141370300Y-83058000D01*
X160472219Y-83058000D01*
X160490077Y-83205077D01*
X160490078Y-83205079D01*
X160529109Y-83307996D01*
X160542617Y-83343612D01*
X160573739Y-83388700D01*
X160626780Y-83465543D01*
X160626782Y-83465545D01*
X160626784Y-83465547D01*
X160737676Y-83563789D01*
X160737678Y-83563790D01*
X160868867Y-83632643D01*
X160940793Y-83650371D01*
X161012719Y-83668100D01*
X161012720Y-83668100D01*
X161160881Y-83668100D01*
X161208831Y-83656281D01*
X161304733Y-83632643D01*
X161435922Y-83563790D01*
X161546820Y-83465543D01*
X161630984Y-83343610D01*
X161683522Y-83205079D01*
X161701381Y-83058000D01*
X167558593Y-83058000D01*
X167577323Y-83188273D01*
X167577324Y-83188278D01*
X167631997Y-83307994D01*
X167631998Y-83307996D01*
X167718188Y-83407464D01*
X167828909Y-83478620D01*
X167828912Y-83478621D01*
X167828911Y-83478621D01*
X167955190Y-83515699D01*
X167955192Y-83515700D01*
X167955193Y-83515700D01*
X168086808Y-83515700D01*
X168086808Y-83515699D01*
X168213091Y-83478620D01*
X168323812Y-83407464D01*
X168410002Y-83307996D01*
X168442972Y-83235800D01*
X170757793Y-83235800D01*
X170776523Y-83366073D01*
X170776524Y-83366078D01*
X170827921Y-83478620D01*
X170831198Y-83485796D01*
X170917388Y-83585264D01*
X171028109Y-83656420D01*
X171028112Y-83656421D01*
X171028111Y-83656421D01*
X171154390Y-83693499D01*
X171154392Y-83693500D01*
X171154393Y-83693500D01*
X171286008Y-83693500D01*
X171286008Y-83693499D01*
X171412291Y-83656420D01*
X171523012Y-83585264D01*
X171609202Y-83485796D01*
X171663876Y-83366075D01*
X171682607Y-83235800D01*
X171663876Y-83105525D01*
X171663875Y-83105524D01*
X171663875Y-83105521D01*
X171609202Y-82985805D01*
X171609202Y-82985804D01*
X171561714Y-82931000D01*
X174035593Y-82931000D01*
X174054323Y-83061273D01*
X174054324Y-83061278D01*
X174074532Y-83105526D01*
X174108998Y-83180996D01*
X174195188Y-83280464D01*
X174305909Y-83351620D01*
X174305912Y-83351621D01*
X174305911Y-83351621D01*
X174432190Y-83388699D01*
X174432192Y-83388700D01*
X174432193Y-83388700D01*
X174563808Y-83388700D01*
X174563808Y-83388699D01*
X174690091Y-83351620D01*
X174800812Y-83280464D01*
X174887002Y-83180996D01*
X174941676Y-83061275D01*
X174960407Y-82931000D01*
X174949451Y-82854800D01*
X186278393Y-82854800D01*
X186297123Y-82985073D01*
X186297124Y-82985078D01*
X186331924Y-83061278D01*
X186351798Y-83104796D01*
X186437988Y-83204264D01*
X186548709Y-83275420D01*
X186548712Y-83275421D01*
X186548711Y-83275421D01*
X186674990Y-83312499D01*
X186674992Y-83312500D01*
X186674993Y-83312500D01*
X186806608Y-83312500D01*
X186806608Y-83312499D01*
X186932891Y-83275420D01*
X187043612Y-83204264D01*
X187129802Y-83104796D01*
X187184476Y-82985075D01*
X187203207Y-82854800D01*
X187184476Y-82724525D01*
X187184475Y-82724524D01*
X187184475Y-82724521D01*
X187129802Y-82604805D01*
X187129802Y-82604804D01*
X187043612Y-82505336D01*
X186932891Y-82434180D01*
X186932889Y-82434179D01*
X186932887Y-82434178D01*
X186932888Y-82434178D01*
X186806609Y-82397100D01*
X186806607Y-82397100D01*
X186674993Y-82397100D01*
X186674990Y-82397100D01*
X186548711Y-82434178D01*
X186437989Y-82505335D01*
X186351799Y-82604802D01*
X186351797Y-82604805D01*
X186297124Y-82724521D01*
X186297123Y-82724526D01*
X186278393Y-82854800D01*
X174949451Y-82854800D01*
X174941676Y-82800725D01*
X174941675Y-82800724D01*
X174941675Y-82800721D01*
X174899575Y-82708535D01*
X174887002Y-82681004D01*
X174800812Y-82581536D01*
X174690091Y-82510380D01*
X174690089Y-82510379D01*
X174690087Y-82510378D01*
X174690088Y-82510378D01*
X174563809Y-82473300D01*
X174563807Y-82473300D01*
X174432193Y-82473300D01*
X174432190Y-82473300D01*
X174305911Y-82510378D01*
X174195189Y-82581535D01*
X174108999Y-82681002D01*
X174108997Y-82681005D01*
X174054324Y-82800721D01*
X174054323Y-82800726D01*
X174035593Y-82931000D01*
X171561714Y-82931000D01*
X171523012Y-82886336D01*
X171412291Y-82815180D01*
X171412289Y-82815179D01*
X171412287Y-82815178D01*
X171412288Y-82815178D01*
X171286009Y-82778100D01*
X171286007Y-82778100D01*
X171154393Y-82778100D01*
X171154390Y-82778100D01*
X171028111Y-82815178D01*
X170917389Y-82886335D01*
X170831199Y-82985802D01*
X170831197Y-82985805D01*
X170776524Y-83105521D01*
X170776523Y-83105526D01*
X170757793Y-83235800D01*
X168442972Y-83235800D01*
X168464676Y-83188275D01*
X168483407Y-83058000D01*
X168464676Y-82927725D01*
X168464675Y-82927724D01*
X168464675Y-82927721D01*
X168410002Y-82808005D01*
X168410002Y-82808004D01*
X168323812Y-82708536D01*
X168213091Y-82637380D01*
X168213089Y-82637379D01*
X168213087Y-82637378D01*
X168213088Y-82637378D01*
X168086809Y-82600300D01*
X168086807Y-82600300D01*
X167955193Y-82600300D01*
X167955190Y-82600300D01*
X167828911Y-82637378D01*
X167718189Y-82708535D01*
X167631999Y-82808002D01*
X167631997Y-82808005D01*
X167577324Y-82927721D01*
X167577323Y-82927726D01*
X167558593Y-83058000D01*
X161701381Y-83058000D01*
X161683522Y-82910921D01*
X161630984Y-82772390D01*
X161546820Y-82650457D01*
X161546817Y-82650454D01*
X161546815Y-82650452D01*
X161435923Y-82552210D01*
X161431712Y-82550000D01*
X168828593Y-82550000D01*
X168847323Y-82680273D01*
X168847324Y-82680278D01*
X168901997Y-82799994D01*
X168901998Y-82799996D01*
X168988188Y-82899464D01*
X169098909Y-82970620D01*
X169098912Y-82970621D01*
X169098911Y-82970621D01*
X169225190Y-83007699D01*
X169225192Y-83007700D01*
X169225193Y-83007700D01*
X169356808Y-83007700D01*
X169356808Y-83007699D01*
X169483091Y-82970620D01*
X169593812Y-82899464D01*
X169680002Y-82799996D01*
X169721770Y-82708535D01*
X169734675Y-82680278D01*
X169734676Y-82680273D01*
X169740843Y-82637380D01*
X169753407Y-82550000D01*
X169734676Y-82419725D01*
X169734675Y-82419724D01*
X169734675Y-82419721D01*
X169680002Y-82300005D01*
X169680002Y-82300004D01*
X169593812Y-82200536D01*
X169483091Y-82129380D01*
X169483089Y-82129379D01*
X169483087Y-82129378D01*
X169483088Y-82129378D01*
X169356809Y-82092300D01*
X169356807Y-82092300D01*
X169225193Y-82092300D01*
X169225190Y-82092300D01*
X169098911Y-82129378D01*
X168988189Y-82200535D01*
X168901999Y-82300002D01*
X168901997Y-82300005D01*
X168847324Y-82419721D01*
X168847323Y-82419726D01*
X168828593Y-82550000D01*
X161431712Y-82550000D01*
X161304731Y-82483356D01*
X161160881Y-82447900D01*
X161160880Y-82447900D01*
X161012720Y-82447900D01*
X161012719Y-82447900D01*
X160868868Y-82483356D01*
X160737676Y-82552210D01*
X160626784Y-82650452D01*
X160626778Y-82650459D01*
X160542617Y-82772387D01*
X160490078Y-82910920D01*
X160490077Y-82910922D01*
X160472219Y-83058000D01*
X141370300Y-83058000D01*
X141370300Y-82118200D01*
X159253019Y-82118200D01*
X159270877Y-82265277D01*
X159270878Y-82265279D01*
X159284047Y-82300004D01*
X159323417Y-82403812D01*
X159334401Y-82419725D01*
X159407580Y-82525743D01*
X159407582Y-82525745D01*
X159407584Y-82525747D01*
X159518476Y-82623989D01*
X159518478Y-82623990D01*
X159649667Y-82692843D01*
X159713331Y-82708535D01*
X159793519Y-82728300D01*
X159793520Y-82728300D01*
X159941681Y-82728300D01*
X159989631Y-82716481D01*
X160085533Y-82692843D01*
X160216722Y-82623990D01*
X160327620Y-82525743D01*
X160411784Y-82403810D01*
X160464322Y-82265279D01*
X160482181Y-82118200D01*
X160464322Y-81971121D01*
X160411784Y-81832590D01*
X160327620Y-81710657D01*
X160327617Y-81710654D01*
X160327615Y-81710652D01*
X160216723Y-81612410D01*
X160212512Y-81610200D01*
X165490019Y-81610200D01*
X165507877Y-81757277D01*
X165507878Y-81757279D01*
X165560417Y-81895812D01*
X165612399Y-81971121D01*
X165644580Y-82017743D01*
X165644582Y-82017745D01*
X165644584Y-82017747D01*
X165755476Y-82115989D01*
X165755478Y-82115990D01*
X165886667Y-82184843D01*
X165950331Y-82200535D01*
X166030519Y-82220300D01*
X166030520Y-82220300D01*
X166178681Y-82220300D01*
X166226631Y-82208481D01*
X166322533Y-82184843D01*
X166453722Y-82115990D01*
X166564620Y-82017743D01*
X166648784Y-81895810D01*
X166701322Y-81757279D01*
X166719181Y-81610200D01*
X166701322Y-81463121D01*
X166648784Y-81324590D01*
X166564620Y-81202657D01*
X166564617Y-81202654D01*
X166564615Y-81202652D01*
X166453723Y-81104410D01*
X166322531Y-81035556D01*
X166178681Y-81000100D01*
X166178680Y-81000100D01*
X166030520Y-81000100D01*
X166030519Y-81000100D01*
X165886668Y-81035556D01*
X165755476Y-81104410D01*
X165644584Y-81202652D01*
X165644578Y-81202659D01*
X165560417Y-81324587D01*
X165507878Y-81463120D01*
X165507877Y-81463122D01*
X165490019Y-81610200D01*
X160212512Y-81610200D01*
X160085531Y-81543556D01*
X159941681Y-81508100D01*
X159941680Y-81508100D01*
X159793520Y-81508100D01*
X159793519Y-81508100D01*
X159649668Y-81543556D01*
X159518476Y-81612410D01*
X159407584Y-81710652D01*
X159407578Y-81710659D01*
X159323417Y-81832587D01*
X159270878Y-81971120D01*
X159270877Y-81971122D01*
X159253019Y-82118200D01*
X141370300Y-82118200D01*
X141370300Y-80518000D01*
X167558593Y-80518000D01*
X167577323Y-80648273D01*
X167577324Y-80648278D01*
X167624656Y-80751920D01*
X167631998Y-80767996D01*
X167718188Y-80867464D01*
X167828909Y-80938620D01*
X167828912Y-80938621D01*
X167828911Y-80938621D01*
X167955190Y-80975699D01*
X167955192Y-80975700D01*
X167955193Y-80975700D01*
X168086808Y-80975700D01*
X168086808Y-80975699D01*
X168213091Y-80938620D01*
X168274741Y-80899000D01*
X175915419Y-80899000D01*
X175933277Y-81046077D01*
X175933278Y-81046079D01*
X175965713Y-81131604D01*
X175985817Y-81184612D01*
X176056783Y-81287424D01*
X176069980Y-81306543D01*
X176069982Y-81306545D01*
X176069984Y-81306547D01*
X176180876Y-81404789D01*
X176180878Y-81404790D01*
X176312067Y-81473643D01*
X176383993Y-81491371D01*
X176455919Y-81509100D01*
X176455920Y-81509100D01*
X176604081Y-81509100D01*
X176652031Y-81497281D01*
X176747933Y-81473643D01*
X176879122Y-81404790D01*
X176905298Y-81381600D01*
X185059193Y-81381600D01*
X185077923Y-81511873D01*
X185077924Y-81511878D01*
X185122827Y-81610200D01*
X185132598Y-81631596D01*
X185218788Y-81731064D01*
X185329509Y-81802220D01*
X185329512Y-81802221D01*
X185329511Y-81802221D01*
X185455790Y-81839299D01*
X185455792Y-81839300D01*
X185455793Y-81839300D01*
X185587408Y-81839300D01*
X185587408Y-81839299D01*
X185713691Y-81802220D01*
X185824412Y-81731064D01*
X185910602Y-81631596D01*
X185965276Y-81511875D01*
X185984007Y-81381600D01*
X185965276Y-81251325D01*
X185965275Y-81251324D01*
X185965275Y-81251321D01*
X185910602Y-81131605D01*
X185910602Y-81131604D01*
X185824412Y-81032136D01*
X185713691Y-80960980D01*
X185713689Y-80960979D01*
X185713687Y-80960978D01*
X185713688Y-80960978D01*
X185587409Y-80923900D01*
X185587407Y-80923900D01*
X185455793Y-80923900D01*
X185455790Y-80923900D01*
X185329511Y-80960978D01*
X185218789Y-81032135D01*
X185132599Y-81131602D01*
X185132597Y-81131605D01*
X185077924Y-81251321D01*
X185077923Y-81251326D01*
X185059193Y-81381600D01*
X176905298Y-81381600D01*
X176990020Y-81306543D01*
X177074184Y-81184610D01*
X177126722Y-81046079D01*
X177144581Y-80899000D01*
X177126722Y-80751921D01*
X177086172Y-80645000D01*
X177464593Y-80645000D01*
X177483323Y-80775273D01*
X177483324Y-80775278D01*
X177537997Y-80894994D01*
X177537998Y-80894996D01*
X177624188Y-80994464D01*
X177734909Y-81065620D01*
X177734912Y-81065621D01*
X177734911Y-81065621D01*
X177861190Y-81102699D01*
X177861192Y-81102700D01*
X177861193Y-81102700D01*
X177992808Y-81102700D01*
X177992808Y-81102699D01*
X178119091Y-81065620D01*
X178229812Y-80994464D01*
X178316002Y-80894996D01*
X178370676Y-80775275D01*
X178389407Y-80645000D01*
X178370676Y-80514725D01*
X178370675Y-80514724D01*
X178370675Y-80514721D01*
X178316002Y-80395005D01*
X178316002Y-80395004D01*
X178229812Y-80295536D01*
X178119091Y-80224380D01*
X178119089Y-80224379D01*
X178119087Y-80224378D01*
X178119088Y-80224378D01*
X177992809Y-80187300D01*
X177992807Y-80187300D01*
X177861193Y-80187300D01*
X177861190Y-80187300D01*
X177734911Y-80224378D01*
X177624189Y-80295535D01*
X177537999Y-80395002D01*
X177537997Y-80395005D01*
X177483324Y-80514721D01*
X177483323Y-80514726D01*
X177464593Y-80645000D01*
X177086172Y-80645000D01*
X177074184Y-80613390D01*
X176990020Y-80491457D01*
X176990017Y-80491454D01*
X176990015Y-80491452D01*
X176879123Y-80393210D01*
X176747931Y-80324356D01*
X176604081Y-80288900D01*
X176604080Y-80288900D01*
X176455920Y-80288900D01*
X176455919Y-80288900D01*
X176312068Y-80324356D01*
X176180876Y-80393210D01*
X176069984Y-80491452D01*
X176069978Y-80491459D01*
X175985817Y-80613387D01*
X175933278Y-80751920D01*
X175933277Y-80751922D01*
X175915419Y-80899000D01*
X168274741Y-80899000D01*
X168323812Y-80867464D01*
X168410002Y-80767996D01*
X168464676Y-80648275D01*
X168483407Y-80518000D01*
X168464676Y-80387725D01*
X168464675Y-80387724D01*
X168464675Y-80387721D01*
X168410002Y-80268005D01*
X168410002Y-80268004D01*
X168406532Y-80264000D01*
X174670593Y-80264000D01*
X174689323Y-80394273D01*
X174689324Y-80394278D01*
X174733705Y-80491457D01*
X174743998Y-80513996D01*
X174830188Y-80613464D01*
X174940909Y-80684620D01*
X174940912Y-80684621D01*
X174940911Y-80684621D01*
X175067190Y-80721699D01*
X175067192Y-80721700D01*
X175067193Y-80721700D01*
X175198808Y-80721700D01*
X175198808Y-80721699D01*
X175325091Y-80684620D01*
X175435812Y-80613464D01*
X175522002Y-80513996D01*
X175576676Y-80394275D01*
X175595407Y-80264000D01*
X175576676Y-80133725D01*
X175576675Y-80133724D01*
X175576675Y-80133721D01*
X175522002Y-80014005D01*
X175522002Y-80014004D01*
X175435812Y-79914536D01*
X175325091Y-79843380D01*
X175325089Y-79843379D01*
X175325087Y-79843378D01*
X175325088Y-79843378D01*
X175198809Y-79806300D01*
X175198807Y-79806300D01*
X175067193Y-79806300D01*
X175067190Y-79806300D01*
X174940911Y-79843378D01*
X174830189Y-79914535D01*
X174743999Y-80014002D01*
X174743997Y-80014005D01*
X174689324Y-80133721D01*
X174689323Y-80133726D01*
X174670593Y-80264000D01*
X168406532Y-80264000D01*
X168323812Y-80168536D01*
X168213091Y-80097380D01*
X168213089Y-80097379D01*
X168213087Y-80097378D01*
X168213088Y-80097378D01*
X168086809Y-80060300D01*
X168086807Y-80060300D01*
X167955193Y-80060300D01*
X167955190Y-80060300D01*
X167828911Y-80097378D01*
X167718189Y-80168535D01*
X167631999Y-80268002D01*
X167631997Y-80268005D01*
X167577324Y-80387721D01*
X167577323Y-80387726D01*
X167558593Y-80518000D01*
X141370300Y-80518000D01*
X141370300Y-79857600D01*
X156509593Y-79857600D01*
X156528323Y-79987873D01*
X156528324Y-79987878D01*
X156582997Y-80107594D01*
X156582998Y-80107596D01*
X156669188Y-80207064D01*
X156779909Y-80278220D01*
X156779912Y-80278221D01*
X156779911Y-80278221D01*
X156906190Y-80315299D01*
X156906192Y-80315300D01*
X156906193Y-80315300D01*
X157037808Y-80315300D01*
X157037808Y-80315299D01*
X157164091Y-80278220D01*
X157274812Y-80207064D01*
X157361002Y-80107596D01*
X157403743Y-80014005D01*
X157415675Y-79987878D01*
X157415676Y-79987873D01*
X157425058Y-79922620D01*
X157434407Y-79857600D01*
X157415676Y-79727325D01*
X157415675Y-79727324D01*
X157415675Y-79727321D01*
X157361002Y-79607605D01*
X157361002Y-79607604D01*
X157274812Y-79508136D01*
X157164091Y-79436980D01*
X157164089Y-79436979D01*
X157164087Y-79436978D01*
X157164088Y-79436978D01*
X157037809Y-79399900D01*
X157037807Y-79399900D01*
X156906193Y-79399900D01*
X156906190Y-79399900D01*
X156779911Y-79436978D01*
X156669189Y-79508135D01*
X156582999Y-79607602D01*
X156582997Y-79607605D01*
X156528324Y-79727321D01*
X156528323Y-79727326D01*
X156509593Y-79857600D01*
X141370300Y-79857600D01*
X141370300Y-78917800D01*
X145993993Y-78917800D01*
X146012723Y-79048073D01*
X146012724Y-79048078D01*
X146060429Y-79152536D01*
X146067398Y-79167796D01*
X146153588Y-79267264D01*
X146264309Y-79338420D01*
X146264312Y-79338421D01*
X146264311Y-79338421D01*
X146362306Y-79367194D01*
X146377736Y-79371725D01*
X146390590Y-79375499D01*
X146390592Y-79375500D01*
X146390593Y-79375500D01*
X146522208Y-79375500D01*
X146522208Y-79375499D01*
X146648491Y-79338420D01*
X146759212Y-79267264D01*
X146845402Y-79167796D01*
X146878372Y-79095600D01*
X159659193Y-79095600D01*
X159677923Y-79225873D01*
X159677924Y-79225878D01*
X159696825Y-79267264D01*
X159732598Y-79345596D01*
X159818788Y-79445064D01*
X159929509Y-79516220D01*
X159929512Y-79516221D01*
X159929511Y-79516221D01*
X160055790Y-79553299D01*
X160055792Y-79553300D01*
X160055793Y-79553300D01*
X160187408Y-79553300D01*
X160187408Y-79553299D01*
X160313691Y-79516220D01*
X160335818Y-79502000D01*
X163696593Y-79502000D01*
X163715323Y-79632273D01*
X163715324Y-79632278D01*
X163769997Y-79751994D01*
X163769998Y-79751996D01*
X163856188Y-79851464D01*
X163966909Y-79922620D01*
X163966912Y-79922621D01*
X163966911Y-79922621D01*
X164093190Y-79959699D01*
X164093192Y-79959700D01*
X164093193Y-79959700D01*
X164224808Y-79959700D01*
X164224808Y-79959699D01*
X164351091Y-79922620D01*
X164461812Y-79851464D01*
X164548002Y-79751996D01*
X164602676Y-79632275D01*
X164621407Y-79502000D01*
X166161593Y-79502000D01*
X166180323Y-79632273D01*
X166180324Y-79632278D01*
X166234997Y-79751994D01*
X166234998Y-79751996D01*
X166321188Y-79851464D01*
X166431909Y-79922620D01*
X166431912Y-79922621D01*
X166431911Y-79922621D01*
X166558190Y-79959699D01*
X166558192Y-79959700D01*
X166558193Y-79959700D01*
X166689808Y-79959700D01*
X166689808Y-79959699D01*
X166816091Y-79922620D01*
X166926812Y-79851464D01*
X167013002Y-79751996D01*
X167067676Y-79632275D01*
X167086407Y-79502000D01*
X167067676Y-79371725D01*
X167067675Y-79371724D01*
X167067675Y-79371721D01*
X167013002Y-79252005D01*
X167013002Y-79252004D01*
X166926812Y-79152536D01*
X166816091Y-79081380D01*
X166816089Y-79081379D01*
X166816087Y-79081378D01*
X166816088Y-79081378D01*
X166689809Y-79044300D01*
X166689807Y-79044300D01*
X166558193Y-79044300D01*
X166558190Y-79044300D01*
X166431911Y-79081378D01*
X166321189Y-79152535D01*
X166234999Y-79252002D01*
X166234997Y-79252005D01*
X166180324Y-79371721D01*
X166180323Y-79371726D01*
X166161593Y-79502000D01*
X164621407Y-79502000D01*
X164602676Y-79371725D01*
X164602675Y-79371724D01*
X164602675Y-79371721D01*
X164548002Y-79252005D01*
X164548002Y-79252004D01*
X164461812Y-79152536D01*
X164351091Y-79081380D01*
X164351089Y-79081379D01*
X164351087Y-79081378D01*
X164351088Y-79081378D01*
X164224809Y-79044300D01*
X164224807Y-79044300D01*
X164093193Y-79044300D01*
X164093190Y-79044300D01*
X163966911Y-79081378D01*
X163856189Y-79152535D01*
X163769999Y-79252002D01*
X163769997Y-79252005D01*
X163715324Y-79371721D01*
X163715323Y-79371726D01*
X163696593Y-79502000D01*
X160335818Y-79502000D01*
X160424412Y-79445064D01*
X160510602Y-79345596D01*
X160553343Y-79252005D01*
X160565275Y-79225878D01*
X160565275Y-79225876D01*
X160565276Y-79225875D01*
X160569973Y-79193204D01*
X160598997Y-79129649D01*
X160657774Y-79091873D01*
X160727644Y-79091872D01*
X160759750Y-79106535D01*
X160843906Y-79160619D01*
X160843911Y-79160621D01*
X160970190Y-79197699D01*
X160970192Y-79197700D01*
X160970193Y-79197700D01*
X161101808Y-79197700D01*
X161101808Y-79197699D01*
X161228091Y-79160620D01*
X161338812Y-79089464D01*
X161425002Y-78989996D01*
X161479676Y-78870275D01*
X161498407Y-78740000D01*
X161479676Y-78609725D01*
X161479675Y-78609724D01*
X161479675Y-78609721D01*
X161425002Y-78490005D01*
X161425002Y-78490004D01*
X161338812Y-78390536D01*
X161228091Y-78319380D01*
X161228089Y-78319379D01*
X161228087Y-78319378D01*
X161228088Y-78319378D01*
X161101809Y-78282300D01*
X161101807Y-78282300D01*
X160970193Y-78282300D01*
X160970190Y-78282300D01*
X160843911Y-78319378D01*
X160733189Y-78390535D01*
X160646999Y-78490002D01*
X160646997Y-78490005D01*
X160592324Y-78609721D01*
X160592324Y-78609724D01*
X160587626Y-78642398D01*
X160558600Y-78705953D01*
X160499821Y-78743727D01*
X160429952Y-78743726D01*
X160397849Y-78729065D01*
X160352235Y-78699751D01*
X160313691Y-78674980D01*
X160313689Y-78674979D01*
X160313687Y-78674978D01*
X160313688Y-78674978D01*
X160187409Y-78637900D01*
X160187407Y-78637900D01*
X160055793Y-78637900D01*
X160055790Y-78637900D01*
X159929511Y-78674978D01*
X159818789Y-78746135D01*
X159732599Y-78845602D01*
X159732597Y-78845605D01*
X159677924Y-78965321D01*
X159677923Y-78965326D01*
X159659193Y-79095600D01*
X146878372Y-79095600D01*
X146900076Y-79048075D01*
X146918807Y-78917800D01*
X146900076Y-78787525D01*
X146900075Y-78787524D01*
X146900075Y-78787521D01*
X146862824Y-78705953D01*
X146845402Y-78667804D01*
X146759212Y-78568336D01*
X146648491Y-78497180D01*
X146648489Y-78497179D01*
X146648487Y-78497178D01*
X146648488Y-78497178D01*
X146522209Y-78460100D01*
X146522207Y-78460100D01*
X146390593Y-78460100D01*
X146390590Y-78460100D01*
X146264311Y-78497178D01*
X146153589Y-78568335D01*
X146067399Y-78667802D01*
X146067397Y-78667805D01*
X146012724Y-78787521D01*
X146012723Y-78787526D01*
X145993993Y-78917800D01*
X141370300Y-78917800D01*
X141370300Y-75825000D01*
X145037593Y-75825000D01*
X145056323Y-75955273D01*
X145056324Y-75955278D01*
X145105850Y-76063723D01*
X145110998Y-76074996D01*
X145197188Y-76174464D01*
X145307909Y-76245620D01*
X145307912Y-76245621D01*
X145307911Y-76245621D01*
X145434190Y-76282699D01*
X145434192Y-76282700D01*
X145434193Y-76282700D01*
X145565808Y-76282700D01*
X145565808Y-76282699D01*
X145692091Y-76245620D01*
X145802812Y-76174464D01*
X145889002Y-76074996D01*
X145923718Y-75998978D01*
X145937206Y-75969444D01*
X145982960Y-75916640D01*
X146050000Y-75896955D01*
X146117039Y-75916640D01*
X146162794Y-75969443D01*
X146162794Y-75969444D01*
X146205850Y-76063723D01*
X146210998Y-76074996D01*
X146297188Y-76174464D01*
X146407909Y-76245620D01*
X146407912Y-76245621D01*
X146407911Y-76245621D01*
X146534190Y-76282699D01*
X146534192Y-76282700D01*
X146534193Y-76282700D01*
X146665808Y-76282700D01*
X146665808Y-76282699D01*
X146792091Y-76245620D01*
X146902812Y-76174464D01*
X146989002Y-76074996D01*
X147036003Y-75972077D01*
X147043675Y-75955278D01*
X147043676Y-75955273D01*
X147046331Y-75936807D01*
X147062407Y-75825000D01*
X149285419Y-75825000D01*
X149303277Y-75972077D01*
X149303278Y-75972079D01*
X149353540Y-76104610D01*
X149355817Y-76110612D01*
X149399889Y-76174461D01*
X149439980Y-76232543D01*
X149439982Y-76232545D01*
X149439984Y-76232547D01*
X149550876Y-76330789D01*
X149550878Y-76330790D01*
X149682067Y-76399643D01*
X149753993Y-76417371D01*
X149825919Y-76435100D01*
X149825920Y-76435100D01*
X149974081Y-76435100D01*
X150025232Y-76422492D01*
X150117933Y-76399643D01*
X150249122Y-76330790D01*
X150360020Y-76232543D01*
X150440896Y-76115372D01*
X150495179Y-76071383D01*
X150564627Y-76063723D01*
X150627192Y-76094826D01*
X150636658Y-76104610D01*
X150697185Y-76174461D01*
X150697188Y-76174464D01*
X150807909Y-76245620D01*
X150807912Y-76245621D01*
X150807911Y-76245621D01*
X150934190Y-76282699D01*
X150934192Y-76282700D01*
X150934193Y-76282700D01*
X151065808Y-76282700D01*
X151065808Y-76282699D01*
X151192091Y-76245620D01*
X151302812Y-76174464D01*
X151389002Y-76074996D01*
X151423718Y-75998978D01*
X151437206Y-75969444D01*
X151482960Y-75916640D01*
X151550000Y-75896955D01*
X151617039Y-75916640D01*
X151662794Y-75969443D01*
X151662794Y-75969444D01*
X151705850Y-76063723D01*
X151710998Y-76074996D01*
X151797188Y-76174464D01*
X151907909Y-76245620D01*
X151907912Y-76245621D01*
X151907911Y-76245621D01*
X152034190Y-76282699D01*
X152034192Y-76282700D01*
X152034193Y-76282700D01*
X152165808Y-76282700D01*
X152165808Y-76282699D01*
X152292091Y-76245620D01*
X152402812Y-76174464D01*
X152489002Y-76074996D01*
X152523718Y-75998978D01*
X152537206Y-75969444D01*
X152582960Y-75916640D01*
X152650000Y-75896955D01*
X152717039Y-75916640D01*
X152762794Y-75969443D01*
X152762794Y-75969444D01*
X152805850Y-76063723D01*
X152810998Y-76074996D01*
X152897188Y-76174464D01*
X153007909Y-76245620D01*
X153007912Y-76245621D01*
X153007911Y-76245621D01*
X153134190Y-76282699D01*
X153134192Y-76282700D01*
X153134193Y-76282700D01*
X153265808Y-76282700D01*
X153265808Y-76282699D01*
X153392091Y-76245620D01*
X153502812Y-76174464D01*
X153589002Y-76074996D01*
X153636003Y-75972077D01*
X153643675Y-75955278D01*
X153643676Y-75955273D01*
X153646331Y-75936807D01*
X153662407Y-75825000D01*
X153643676Y-75694725D01*
X153643675Y-75694724D01*
X153643675Y-75694721D01*
X153589002Y-75575005D01*
X153589002Y-75575004D01*
X153502812Y-75475536D01*
X153392091Y-75404380D01*
X153392089Y-75404379D01*
X153392087Y-75404378D01*
X153392088Y-75404378D01*
X153265809Y-75367300D01*
X153265807Y-75367300D01*
X153134193Y-75367300D01*
X153134190Y-75367300D01*
X153007911Y-75404378D01*
X152897189Y-75475535D01*
X152810999Y-75575002D01*
X152810997Y-75575005D01*
X152762794Y-75680556D01*
X152717039Y-75733360D01*
X152650000Y-75753044D01*
X152582960Y-75733359D01*
X152537206Y-75680556D01*
X152489002Y-75575005D01*
X152489002Y-75575004D01*
X152402812Y-75475536D01*
X152292091Y-75404380D01*
X152292089Y-75404379D01*
X152292087Y-75404378D01*
X152292088Y-75404378D01*
X152165809Y-75367300D01*
X152165807Y-75367300D01*
X152034193Y-75367300D01*
X152034190Y-75367300D01*
X151907911Y-75404378D01*
X151797189Y-75475535D01*
X151710999Y-75575002D01*
X151710997Y-75575005D01*
X151662794Y-75680556D01*
X151617039Y-75733360D01*
X151550000Y-75753044D01*
X151482960Y-75733359D01*
X151437206Y-75680556D01*
X151389002Y-75575005D01*
X151389002Y-75575004D01*
X151302812Y-75475536D01*
X151192091Y-75404380D01*
X151192089Y-75404379D01*
X151192087Y-75404378D01*
X151192088Y-75404378D01*
X151065809Y-75367300D01*
X151065807Y-75367300D01*
X150934193Y-75367300D01*
X150934190Y-75367300D01*
X150807911Y-75404378D01*
X150697188Y-75475535D01*
X150636658Y-75545390D01*
X150577879Y-75583164D01*
X150508010Y-75583163D01*
X150449232Y-75545388D01*
X150440896Y-75534626D01*
X150360021Y-75417459D01*
X150360020Y-75417457D01*
X150360017Y-75417454D01*
X150360015Y-75417452D01*
X150249123Y-75319210D01*
X150117931Y-75250356D01*
X149974081Y-75214900D01*
X149974080Y-75214900D01*
X149825920Y-75214900D01*
X149825919Y-75214900D01*
X149682068Y-75250356D01*
X149550876Y-75319210D01*
X149439984Y-75417452D01*
X149439978Y-75417459D01*
X149355817Y-75539387D01*
X149303278Y-75677920D01*
X149303277Y-75677922D01*
X149285419Y-75825000D01*
X147062407Y-75825000D01*
X147043676Y-75694725D01*
X147043675Y-75694724D01*
X147043675Y-75694721D01*
X146989002Y-75575005D01*
X146989002Y-75575004D01*
X146902812Y-75475536D01*
X146792091Y-75404380D01*
X146792089Y-75404379D01*
X146792087Y-75404378D01*
X146792088Y-75404378D01*
X146665809Y-75367300D01*
X146665807Y-75367300D01*
X146534193Y-75367300D01*
X146534190Y-75367300D01*
X146407911Y-75404378D01*
X146297189Y-75475535D01*
X146210999Y-75575002D01*
X146210997Y-75575005D01*
X146162794Y-75680556D01*
X146117039Y-75733360D01*
X146050000Y-75753044D01*
X145982960Y-75733359D01*
X145937206Y-75680556D01*
X145889002Y-75575005D01*
X145889002Y-75575004D01*
X145802812Y-75475536D01*
X145692091Y-75404380D01*
X145692089Y-75404379D01*
X145692087Y-75404378D01*
X145692088Y-75404378D01*
X145565809Y-75367300D01*
X145565807Y-75367300D01*
X145434193Y-75367300D01*
X145434190Y-75367300D01*
X145307911Y-75404378D01*
X145197189Y-75475535D01*
X145110999Y-75575002D01*
X145110997Y-75575005D01*
X145056324Y-75694721D01*
X145056323Y-75694726D01*
X145037593Y-75825000D01*
X141370300Y-75825000D01*
X141370300Y-70701500D01*
X141389985Y-70634461D01*
X141442789Y-70588706D01*
X141494300Y-70577500D01*
X162695300Y-70577500D01*
X162762339Y-70597185D01*
G37*
%TD.AperFunction*%
M02*
