G04 #@! TF.GenerationSoftware,KiCad,Pcbnew,8.0.6*
G04 #@! TF.CreationDate,2024-11-24T11:16:57+01:00*
G04 #@! TF.ProjectId,fpga_extension,66706761-5f65-4787-9465-6e73696f6e2e,rev?*
G04 #@! TF.SameCoordinates,Original*
G04 #@! TF.FileFunction,Paste,Bot*
G04 #@! TF.FilePolarity,Positive*
%FSLAX46Y46*%
G04 Gerber Fmt 4.6, Leading zero omitted, Abs format (unit mm)*
G04 Created by KiCad (PCBNEW 8.0.6) date 2024-11-24 11:16:57*
%MOMM*%
%LPD*%
G01*
G04 APERTURE LIST*
G04 Aperture macros list*
%AMRoundRect*
0 Rectangle with rounded corners*
0 $1 Rounding radius*
0 $2 $3 $4 $5 $6 $7 $8 $9 X,Y pos of 4 corners*
0 Add a 4 corners polygon primitive as box body*
4,1,4,$2,$3,$4,$5,$6,$7,$8,$9,$2,$3,0*
0 Add four circle primitives for the rounded corners*
1,1,$1+$1,$2,$3*
1,1,$1+$1,$4,$5*
1,1,$1+$1,$6,$7*
1,1,$1+$1,$8,$9*
0 Add four rect primitives between the rounded corners*
20,1,$1+$1,$2,$3,$4,$5,0*
20,1,$1+$1,$4,$5,$6,$7,0*
20,1,$1+$1,$6,$7,$8,$9,0*
20,1,$1+$1,$8,$9,$2,$3,0*%
G04 Aperture macros list end*
%ADD10RoundRect,0.160000X0.197500X0.160000X-0.197500X0.160000X-0.197500X-0.160000X0.197500X-0.160000X0*%
%ADD11RoundRect,0.155000X-0.212500X-0.155000X0.212500X-0.155000X0.212500X0.155000X-0.212500X0.155000X0*%
%ADD12RoundRect,0.155000X0.212500X0.155000X-0.212500X0.155000X-0.212500X-0.155000X0.212500X-0.155000X0*%
%ADD13RoundRect,0.250000X-0.350000X0.275000X-0.350000X-0.275000X0.350000X-0.275000X0.350000X0.275000X0*%
%ADD14RoundRect,0.250000X0.275000X0.350000X-0.275000X0.350000X-0.275000X-0.350000X0.275000X-0.350000X0*%
%ADD15RoundRect,0.155000X0.155000X-0.212500X0.155000X0.212500X-0.155000X0.212500X-0.155000X-0.212500X0*%
%ADD16RoundRect,0.250000X0.250000X-0.250000X0.250000X0.250000X-0.250000X0.250000X-0.250000X-0.250000X0*%
%ADD17RoundRect,0.150000X0.650000X0.150000X-0.650000X0.150000X-0.650000X-0.150000X0.650000X-0.150000X0*%
%ADD18RoundRect,0.155000X-0.155000X0.212500X-0.155000X-0.212500X0.155000X-0.212500X0.155000X0.212500X0*%
%ADD19RoundRect,0.175000X0.825000X0.175000X-0.825000X0.175000X-0.825000X-0.175000X0.825000X-0.175000X0*%
%ADD20R,0.900000X1.100000*%
%ADD21R,0.800000X1.500000*%
%ADD22R,1.450000X2.000000*%
%ADD23RoundRect,0.249999X-0.395001X0.395001X-0.395001X-0.395001X0.395001X-0.395001X0.395001X0.395001X0*%
%ADD24RoundRect,0.050000X-0.050000X0.387500X-0.050000X-0.387500X0.050000X-0.387500X0.050000X0.387500X0*%
%ADD25RoundRect,0.050000X-0.387500X0.050000X-0.387500X-0.050000X0.387500X-0.050000X0.387500X0.050000X0*%
%ADD26R,0.740000X2.400000*%
%ADD27RoundRect,0.160000X-0.197500X-0.160000X0.197500X-0.160000X0.197500X0.160000X-0.197500X0.160000X0*%
G04 APERTURE END LIST*
D10*
X171705200Y-118643400D03*
X170510200Y-118643400D03*
D11*
X158385700Y-93065600D03*
X159520700Y-93065600D03*
D12*
X149301200Y-94925000D03*
X148166200Y-94925000D03*
D13*
X142722600Y-88537400D03*
X142722600Y-90837400D03*
D12*
X152412500Y-96525000D03*
X151277500Y-96525000D03*
D14*
X175869600Y-118999000D03*
X173569600Y-118999000D03*
D15*
X162280600Y-81983200D03*
X162280600Y-80848200D03*
D16*
X184580000Y-117836000D03*
X184580000Y-115336000D03*
D12*
X150045000Y-86925000D03*
X148910000Y-86925000D03*
D17*
X171824200Y-84893600D03*
X171824200Y-86163600D03*
X171824200Y-87433600D03*
X171824200Y-88703600D03*
X164624200Y-88703600D03*
X164624200Y-87433600D03*
X164624200Y-86163600D03*
X164624200Y-84893600D03*
D11*
X149698900Y-88519000D03*
X150833900Y-88519000D03*
X154045000Y-96525000D03*
X155180000Y-96525000D03*
D18*
X146845000Y-96157500D03*
X146845000Y-97292500D03*
D15*
X153245000Y-94092500D03*
X153245000Y-92957500D03*
D11*
X158385700Y-94157800D03*
X159520700Y-94157800D03*
D12*
X149233700Y-92811600D03*
X148098700Y-92811600D03*
X143527400Y-95808800D03*
X142392400Y-95808800D03*
D11*
X164338000Y-83312000D03*
X165473000Y-83312000D03*
D18*
X154845000Y-90125000D03*
X154845000Y-91260000D03*
D12*
X156412500Y-94125000D03*
X155277500Y-94125000D03*
D19*
X181913000Y-115890000D03*
X181913000Y-117790000D03*
X178513000Y-116840000D03*
D20*
X143921000Y-98249000D03*
X143921000Y-99949000D03*
X142621000Y-99949000D03*
X142621000Y-98249000D03*
D21*
X153200000Y-75825000D03*
X152100000Y-75825000D03*
X151000000Y-75825000D03*
X149900000Y-75825000D03*
X148800000Y-75825000D03*
X147700000Y-75825000D03*
X146600000Y-75825000D03*
X145500000Y-75825000D03*
D22*
X156875000Y-81525000D03*
X156875000Y-73225000D03*
X143125000Y-81525000D03*
X143125000Y-73225000D03*
D12*
X152730200Y-97536000D03*
X151595200Y-97536000D03*
D10*
X172415200Y-83235800D03*
X171220200Y-83235800D03*
X182675000Y-114366000D03*
X181480000Y-114366000D03*
D12*
X153119900Y-88519000D03*
X151984900Y-88519000D03*
D14*
X166104600Y-81610200D03*
X163804600Y-81610200D03*
D18*
X175119800Y-97552700D03*
X175119800Y-98687700D03*
X173291000Y-97527300D03*
X173291000Y-98662300D03*
D23*
X182750000Y-86279700D03*
X181150000Y-86279700D03*
X182750000Y-87879700D03*
X181150000Y-87879700D03*
D24*
X179350000Y-83642200D03*
X179750000Y-83642200D03*
X180150000Y-83642200D03*
X180550000Y-83642200D03*
X180950000Y-83642200D03*
X181350000Y-83642200D03*
X181750000Y-83642200D03*
X182150000Y-83642200D03*
X182550000Y-83642200D03*
X182950000Y-83642200D03*
X183350000Y-83642200D03*
X183750000Y-83642200D03*
X184150000Y-83642200D03*
X184550000Y-83642200D03*
D25*
X185387500Y-84479700D03*
X185387500Y-84879700D03*
X185387500Y-85279700D03*
X185387500Y-85679700D03*
X185387500Y-86079700D03*
X185387500Y-86479700D03*
X185387500Y-86879700D03*
X185387500Y-87279700D03*
X185387500Y-87679700D03*
X185387500Y-88079700D03*
X185387500Y-88479700D03*
X185387500Y-88879700D03*
X185387500Y-89279700D03*
X185387500Y-89679700D03*
D24*
X184550000Y-90517200D03*
X184150000Y-90517200D03*
X183750000Y-90517200D03*
X183350000Y-90517200D03*
X182950000Y-90517200D03*
X182550000Y-90517200D03*
X182150000Y-90517200D03*
X181750000Y-90517200D03*
X181350000Y-90517200D03*
X180950000Y-90517200D03*
X180550000Y-90517200D03*
X180150000Y-90517200D03*
X179750000Y-90517200D03*
X179350000Y-90517200D03*
D25*
X178512500Y-89679700D03*
X178512500Y-89279700D03*
X178512500Y-88879700D03*
X178512500Y-88479700D03*
X178512500Y-88079700D03*
X178512500Y-87679700D03*
X178512500Y-87279700D03*
X178512500Y-86879700D03*
X178512500Y-86479700D03*
X178512500Y-86079700D03*
X178512500Y-85679700D03*
X178512500Y-85279700D03*
X178512500Y-84879700D03*
X178512500Y-84479700D03*
D26*
X155829800Y-111574000D03*
X155829800Y-115474000D03*
X157099800Y-111574000D03*
X157099800Y-115474000D03*
X158369800Y-111574000D03*
X158369800Y-115474000D03*
X159639800Y-111574000D03*
X159639800Y-115474000D03*
X160909800Y-111574000D03*
X160909800Y-115474000D03*
X162179800Y-111574000D03*
X162179800Y-115474000D03*
X163449800Y-111574000D03*
X163449800Y-115474000D03*
X164719800Y-111574000D03*
X164719800Y-115474000D03*
X165989800Y-111574000D03*
X165989800Y-115474000D03*
X167259800Y-111574000D03*
X167259800Y-115474000D03*
X168529800Y-111574000D03*
X168529800Y-115474000D03*
X169799800Y-111574000D03*
X169799800Y-115474000D03*
X171069800Y-111574000D03*
X171069800Y-115474000D03*
X172339800Y-111574000D03*
X172339800Y-115474000D03*
X173609800Y-111574000D03*
X173609800Y-115474000D03*
D11*
X149106000Y-96774000D03*
X150241000Y-96774000D03*
X158385700Y-89941400D03*
X159520700Y-89941400D03*
D12*
X149245000Y-91725000D03*
X148110000Y-91725000D03*
D27*
X142645200Y-101396800D03*
X143840200Y-101396800D03*
D15*
X158750000Y-85209000D03*
X158750000Y-84074000D03*
D11*
X171180000Y-100385800D03*
X172315000Y-100385800D03*
D18*
X157245000Y-95757500D03*
X157245000Y-96892500D03*
D12*
X148056600Y-88493600D03*
X146921600Y-88493600D03*
D11*
X158377000Y-92049600D03*
X159512000Y-92049600D03*
X154270900Y-88519000D03*
X155405900Y-88519000D03*
X154660600Y-97561400D03*
X155795600Y-97561400D03*
X158351600Y-96113600D03*
X159486600Y-96113600D03*
D12*
X149245000Y-93878400D03*
X148110000Y-93878400D03*
X143535400Y-96824800D03*
X142400400Y-96824800D03*
D11*
X158385700Y-90982800D03*
X159520700Y-90982800D03*
D18*
X156445000Y-86925000D03*
X156445000Y-88060000D03*
D12*
X171242300Y-95732600D03*
X170107300Y-95732600D03*
M02*
