G04 #@! TF.GenerationSoftware,KiCad,Pcbnew,8.0.6*
G04 #@! TF.CreationDate,2024-12-19T22:23:14+01:00*
G04 #@! TF.ProjectId,gpu_extension,6770755f-6578-4746-956e-73696f6e2e6b,rev?*
G04 #@! TF.SameCoordinates,Original*
G04 #@! TF.FileFunction,Copper,L4,Bot*
G04 #@! TF.FilePolarity,Positive*
%FSLAX46Y46*%
G04 Gerber Fmt 4.6, Leading zero omitted, Abs format (unit mm)*
G04 Created by KiCad (PCBNEW 8.0.6) date 2024-12-19 22:23:14*
%MOMM*%
%LPD*%
G01*
G04 APERTURE LIST*
G04 #@! TA.AperFunction,ComponentPad*
%ADD10O,2.300000X1.500000*%
G04 #@! TD*
G04 #@! TA.AperFunction,ComponentPad*
%ADD11O,3.300000X1.500000*%
G04 #@! TD*
G04 #@! TA.AperFunction,ComponentPad*
%ADD12R,1.700000X1.700000*%
G04 #@! TD*
G04 #@! TA.AperFunction,ComponentPad*
%ADD13O,1.700000X1.700000*%
G04 #@! TD*
G04 #@! TA.AperFunction,ComponentPad*
%ADD14C,0.600000*%
G04 #@! TD*
G04 #@! TA.AperFunction,SMDPad,CuDef*
%ADD15R,0.740000X2.400000*%
G04 #@! TD*
G04 #@! TA.AperFunction,ViaPad*
%ADD16C,0.609600*%
G04 #@! TD*
G04 #@! TA.AperFunction,ViaPad*
%ADD17C,0.406400*%
G04 #@! TD*
G04 #@! TA.AperFunction,Conductor*
%ADD18C,0.203200*%
G04 #@! TD*
G04 #@! TA.AperFunction,Conductor*
%ADD19C,0.156464*%
G04 #@! TD*
G04 #@! TA.AperFunction,Conductor*
%ADD20C,0.254000*%
G04 #@! TD*
G04 #@! TA.AperFunction,Conductor*
%ADD21C,0.406400*%
G04 #@! TD*
G04 #@! TA.AperFunction,Conductor*
%ADD22C,0.152400*%
G04 #@! TD*
G04 #@! TA.AperFunction,Conductor*
%ADD23C,0.123190*%
G04 #@! TD*
G04 APERTURE END LIST*
D10*
X133147600Y-88896400D03*
X133147600Y-74396400D03*
D11*
X127187600Y-88896400D03*
X127187600Y-74396400D03*
D12*
X113334800Y-80670400D03*
D13*
X113334800Y-83210400D03*
X113334800Y-85750400D03*
D14*
X120446800Y-97183800D03*
X120446800Y-95808800D03*
X120446800Y-94433800D03*
X119071800Y-97183800D03*
X119071800Y-95808800D03*
X119071800Y-94433800D03*
X117696800Y-97183800D03*
X117696800Y-95808800D03*
X117696800Y-94433800D03*
D12*
X114096800Y-113593800D03*
D13*
X114096800Y-111053800D03*
D15*
X129387600Y-110910200D03*
X129387600Y-107010200D03*
X128117600Y-110910200D03*
X128117600Y-107010200D03*
X126847600Y-110910200D03*
X126847600Y-107010200D03*
X125577600Y-110910200D03*
X125577600Y-107010200D03*
X124307600Y-110910200D03*
X124307600Y-107010200D03*
X123037600Y-110910200D03*
X123037600Y-107010200D03*
X121767600Y-110910200D03*
X121767600Y-107010200D03*
X120497600Y-110910200D03*
X120497600Y-107010200D03*
X119227600Y-110910200D03*
X119227600Y-107010200D03*
X117957600Y-110910200D03*
X117957600Y-107010200D03*
D13*
X113334800Y-76570600D03*
X113334800Y-74030600D03*
D12*
X113334800Y-71490600D03*
D16*
X128270000Y-82146400D03*
X128320800Y-80646400D03*
X128371600Y-79146400D03*
X128422400Y-77646400D03*
D17*
X130073400Y-101498400D03*
D16*
X129032000Y-112852200D03*
D17*
X130810000Y-112268000D03*
X127381000Y-98755200D03*
X124536200Y-91694000D03*
X124460000Y-92989400D03*
X125577600Y-94589600D03*
D16*
X118465600Y-115062000D03*
X116586000Y-106222800D03*
X118567200Y-112826800D03*
D17*
X121818400Y-108966000D03*
D16*
X128117600Y-104648000D03*
D17*
X120243600Y-113436400D03*
X123494800Y-113487200D03*
D16*
X121412000Y-114274600D03*
X132791200Y-109372400D03*
X131622800Y-104089200D03*
X119487600Y-114712400D03*
X133654800Y-101346000D03*
X124510800Y-89204800D03*
D17*
X121005600Y-104546400D03*
X114706400Y-103784400D03*
X119481600Y-103835200D03*
X118008400Y-103835200D03*
X112572800Y-100076000D03*
X114274600Y-92583000D03*
X112826800Y-91846400D03*
X112776000Y-93167200D03*
X113741200Y-94030800D03*
X113792000Y-95300800D03*
X113182400Y-99364800D03*
X113792000Y-98196400D03*
X113842800Y-96774000D03*
X112471200Y-98806000D03*
X112064800Y-94284800D03*
X123825000Y-99441000D03*
X125222000Y-99568000D03*
X126619000Y-101473000D03*
X116433600Y-100787200D03*
X114401600Y-88747600D03*
X113639600Y-90728800D03*
X115620800Y-91643200D03*
X117449600Y-93472000D03*
X117297200Y-90525600D03*
X118110000Y-90576400D03*
X118313200Y-86055200D03*
X124968000Y-98044000D03*
X123571000Y-95631000D03*
X133502400Y-95097600D03*
X134366000Y-92506800D03*
D16*
X128320800Y-85140800D03*
D17*
X117195600Y-83566000D03*
X116890800Y-88798400D03*
X121019100Y-88887200D03*
X121374700Y-85156700D03*
D18*
X115620800Y-91643200D02*
X114554000Y-91643200D01*
X114554000Y-91643200D02*
X113639600Y-90728800D01*
D19*
X122580400Y-105308400D02*
X122432064Y-105456736D01*
X116890800Y-96520000D02*
X116890800Y-97942400D01*
X122432064Y-105456736D02*
X122432064Y-106421936D01*
X122432064Y-106421936D02*
X122428000Y-106426000D01*
X116890800Y-97942400D02*
X122580400Y-103632000D01*
X122428000Y-106426000D02*
X122428000Y-109372400D01*
X115874800Y-95504000D02*
X116890800Y-96520000D01*
X115874800Y-94183200D02*
X115874800Y-95504000D01*
X114274600Y-92583000D02*
X115874800Y-94183200D01*
X122428000Y-109372400D02*
X121767600Y-110032800D01*
X122580400Y-103632000D02*
X122580400Y-105308400D01*
X121767600Y-110032800D02*
X121767600Y-110910200D01*
X125577600Y-94589600D02*
X126542800Y-95554800D01*
X126542800Y-95554800D02*
X126542800Y-99364800D01*
X126542800Y-99364800D02*
X129273300Y-102095300D01*
D20*
X129387600Y-110910200D02*
X129387600Y-112496600D01*
X129387600Y-112496600D02*
X129032000Y-112852200D01*
X128117600Y-107010200D02*
X128117600Y-104648000D01*
D19*
X129451100Y-102120700D02*
X130048000Y-101523800D01*
X129298700Y-102120700D02*
X129451100Y-102120700D01*
X129273300Y-102095300D02*
X129298700Y-102120700D01*
X129273300Y-102095300D02*
X130606800Y-103428800D01*
D21*
X119487600Y-114712400D02*
X119786400Y-115011200D01*
X119786400Y-115011200D02*
X129743200Y-115011200D01*
X129743200Y-115011200D02*
X133654800Y-111099600D01*
X133654800Y-111099600D02*
X133654800Y-101346000D01*
D19*
X120243600Y-113436400D02*
X120751600Y-112928400D01*
X124389400Y-112928400D02*
X125577600Y-111740200D01*
X120751600Y-112928400D02*
X124389400Y-112928400D01*
X125577600Y-111740200D02*
X125577600Y-110910200D01*
D20*
X126847600Y-107010200D02*
X126847600Y-108305600D01*
X126847600Y-108305600D02*
X126034800Y-109118400D01*
X126034800Y-109118400D02*
X124095400Y-109118400D01*
X124095400Y-109118400D02*
X123698000Y-109515800D01*
X123698000Y-109515800D02*
X123698000Y-112277000D01*
X114752200Y-114249200D02*
X114096800Y-113593800D01*
X123698000Y-112277000D02*
X123453000Y-112522000D01*
X123453000Y-112522000D02*
X119811800Y-112522000D01*
X118084600Y-114249200D02*
X114752200Y-114249200D01*
X119811800Y-112522000D02*
X118084600Y-114249200D01*
X134366000Y-92506800D02*
X133832600Y-91973400D01*
X133832600Y-91973400D02*
X127279400Y-91973400D01*
X127279400Y-91973400D02*
X124510800Y-89204800D01*
X133502400Y-95097600D02*
X134366000Y-94234000D01*
X134366000Y-94234000D02*
X134366000Y-92506800D01*
D19*
X130606800Y-107492800D02*
X130606800Y-112064800D01*
X130606800Y-112064800D02*
X130810000Y-112268000D01*
X130606800Y-103428800D02*
X130606800Y-107492800D01*
X126847600Y-110910200D02*
X126847600Y-110250536D01*
X126847600Y-110250536D02*
X128778000Y-108320136D01*
X125831600Y-98094800D02*
X124460000Y-96723200D01*
X128778000Y-108320136D02*
X128778000Y-103225600D01*
X125831600Y-99568000D02*
X125831600Y-98094800D01*
X128778000Y-103225600D02*
X127381000Y-101828600D01*
X127381000Y-101828600D02*
X127381000Y-101117400D01*
X127381000Y-101117400D02*
X125831600Y-99568000D01*
X121615200Y-94386400D02*
X120700800Y-93472000D01*
X124460000Y-96723200D02*
X123748800Y-96723200D01*
X123748800Y-96723200D02*
X121615200Y-94589600D01*
X121615200Y-94589600D02*
X121615200Y-94386400D01*
X120700800Y-93472000D02*
X117449600Y-93472000D01*
X127381000Y-93954600D02*
X127381000Y-98755200D01*
X126060200Y-92633800D02*
X127381000Y-93954600D01*
X124536200Y-91694000D02*
X125120400Y-91694000D01*
X125120400Y-91694000D02*
X126060200Y-92633800D01*
X113334800Y-76570600D02*
X114364632Y-77600432D01*
X119761000Y-85902800D02*
X122072400Y-88214200D01*
X114364632Y-77600432D02*
X115395632Y-77600432D01*
X115395632Y-77600432D02*
X119761000Y-81965800D01*
X119761000Y-81965800D02*
X119761000Y-85902800D01*
X122072400Y-88214200D02*
X122072400Y-90601800D01*
X122072400Y-90601800D02*
X124460000Y-92989400D01*
D22*
X123494800Y-113487200D02*
X123596400Y-113385600D01*
X123596400Y-113385600D02*
X126297800Y-113385600D01*
X128117600Y-111565800D02*
X128117600Y-110910200D01*
X126297800Y-113385600D02*
X128117600Y-111565800D01*
D19*
X123037600Y-110910200D02*
X123037600Y-109321600D01*
X123037600Y-109321600D02*
X123698000Y-108661200D01*
X123698000Y-108661200D02*
X123698000Y-101092000D01*
X123698000Y-101092000D02*
X125222000Y-99568000D01*
X123825000Y-99441000D02*
X123037600Y-100228400D01*
X123037600Y-100228400D02*
X123037600Y-107010200D01*
X120497600Y-107010200D02*
X120497600Y-104749600D01*
X120497600Y-104749600D02*
X119966232Y-104218232D01*
X119966232Y-104218232D02*
X119966232Y-103634458D01*
X115773200Y-102463600D02*
X115773200Y-97282000D01*
X119966232Y-103634458D02*
X119682342Y-103350568D01*
X119682342Y-103350568D02*
X116660168Y-103350568D01*
X116660168Y-103350568D02*
X115773200Y-102463600D01*
X115773200Y-97282000D02*
X114276632Y-95785432D01*
X114276632Y-94566232D02*
X113741200Y-94030800D01*
X114276632Y-95785432D02*
X114276632Y-94566232D01*
X119227600Y-110910200D02*
X119888000Y-110249800D01*
X119888000Y-110249800D02*
X119888000Y-105105200D01*
X119888000Y-105105200D02*
X119278400Y-104495600D01*
X119278400Y-104495600D02*
X116890800Y-104495600D01*
X116890800Y-104495600D02*
X115265200Y-102870000D01*
X115265200Y-102870000D02*
X115265200Y-97511026D01*
X115265200Y-97511026D02*
X113792000Y-96037826D01*
X113792000Y-96037826D02*
X113792000Y-95300800D01*
X115366800Y-94386400D02*
X112826800Y-91846400D01*
X116535200Y-98450400D02*
X116535200Y-96723200D01*
X115366800Y-94386400D02*
X115366800Y-95554800D01*
X115366800Y-95554800D02*
X116535200Y-96723200D01*
X118110000Y-90576400D02*
X118110000Y-89458800D01*
X118110000Y-89458800D02*
X117449600Y-88798400D01*
X117449600Y-88798400D02*
X117449600Y-87325200D01*
X117449600Y-87325200D02*
X113334800Y-83210400D01*
X117297200Y-90525600D02*
X117144800Y-90525600D01*
X117144800Y-90525600D02*
X113334800Y-86715600D01*
X113334800Y-86715600D02*
X113334800Y-85750400D01*
X121767600Y-107010200D02*
X121767600Y-105410000D01*
X121767600Y-105410000D02*
X122174000Y-105003600D01*
X122174000Y-105003600D02*
X122174000Y-103784400D01*
X122174000Y-103784400D02*
X121107200Y-102717600D01*
X121107200Y-102717600D02*
X120802400Y-102717600D01*
X120802400Y-102717600D02*
X116535200Y-98450400D01*
X120497600Y-110910200D02*
X120497600Y-109474000D01*
X121716800Y-104597200D02*
X121716800Y-103886000D01*
X116179600Y-98907600D02*
X116179600Y-96926400D01*
X120497600Y-109474000D02*
X121158000Y-108813600D01*
X121158000Y-108813600D02*
X121158000Y-105156000D01*
X121158000Y-105156000D02*
X121716800Y-104597200D01*
X114757200Y-95504000D02*
X114757200Y-94284800D01*
X121716800Y-103886000D02*
X121208800Y-103378000D01*
X121208800Y-103378000D02*
X120650000Y-103378000D01*
X120650000Y-103378000D02*
X116179600Y-98907600D01*
X116179600Y-96926400D02*
X114757200Y-95504000D01*
X114757200Y-94284800D02*
X113639600Y-93167200D01*
X113639600Y-93167200D02*
X112776000Y-93167200D01*
X113182400Y-99364800D02*
X113487200Y-99669600D01*
X113487200Y-104546400D02*
X115951000Y-107010200D01*
X113487200Y-99669600D02*
X113487200Y-104546400D01*
X115951000Y-107010200D02*
X117957600Y-107010200D01*
X117957600Y-110910200D02*
X117957600Y-110080200D01*
X117957600Y-110080200D02*
X118618000Y-109419800D01*
X118618000Y-109419800D02*
X118618000Y-105613200D01*
X118618000Y-105613200D02*
X118465600Y-105460800D01*
X118465600Y-105460800D02*
X115366800Y-105460800D01*
X113971832Y-104065832D02*
X113971832Y-98376232D01*
X115366800Y-105460800D02*
X113971832Y-104065832D01*
X113971832Y-98376232D02*
X113792000Y-98196400D01*
D23*
X123037600Y-105963000D02*
X123037600Y-107010200D01*
X125374400Y-111113400D02*
X125577600Y-110910200D01*
X128473200Y-111265800D02*
X128117600Y-110910200D01*
D19*
X119227600Y-107010200D02*
X119227600Y-105410000D01*
X119227600Y-105410000D02*
X118872000Y-105054400D01*
X118872000Y-105054400D02*
X116382800Y-105054400D01*
X116382800Y-105054400D02*
X115316000Y-103987600D01*
X115316000Y-103987600D02*
X115316000Y-103530400D01*
X114909600Y-97840800D02*
X113842800Y-96774000D01*
X115316000Y-103530400D02*
X114909600Y-103124000D01*
X114909600Y-103124000D02*
X114909600Y-97840800D01*
M02*
