G04 #@! TF.GenerationSoftware,KiCad,Pcbnew,8.0.6*
G04 #@! TF.CreationDate,2024-12-19T22:23:13+01:00*
G04 #@! TF.ProjectId,gpu_extension,6770755f-6578-4746-956e-73696f6e2e6b,rev?*
G04 #@! TF.SameCoordinates,Original*
G04 #@! TF.FileFunction,Copper,L1,Top*
G04 #@! TF.FilePolarity,Positive*
%FSLAX46Y46*%
G04 Gerber Fmt 4.6, Leading zero omitted, Abs format (unit mm)*
G04 Created by KiCad (PCBNEW 8.0.6) date 2024-12-19 22:23:13*
%MOMM*%
%LPD*%
G01*
G04 APERTURE LIST*
G04 Aperture macros list*
%AMRoundRect*
0 Rectangle with rounded corners*
0 $1 Rounding radius*
0 $2 $3 $4 $5 $6 $7 $8 $9 X,Y pos of 4 corners*
0 Add a 4 corners polygon primitive as box body*
4,1,4,$2,$3,$4,$5,$6,$7,$8,$9,$2,$3,0*
0 Add four circle primitives for the rounded corners*
1,1,$1+$1,$2,$3*
1,1,$1+$1,$4,$5*
1,1,$1+$1,$6,$7*
1,1,$1+$1,$8,$9*
0 Add four rect primitives between the rounded corners*
20,1,$1+$1,$2,$3,$4,$5,0*
20,1,$1+$1,$4,$5,$6,$7,0*
20,1,$1+$1,$6,$7,$8,$9,0*
20,1,$1+$1,$8,$9,$2,$3,0*%
%AMFreePoly0*
4,1,18,-0.437500,0.050000,-0.433694,0.069134,-0.422855,0.085355,-0.406634,0.096194,-0.387500,0.100000,0.387500,0.100000,0.437500,0.050000,0.437500,-0.050000,0.433694,-0.069134,0.422855,-0.085355,0.406634,-0.096194,0.387500,-0.100000,-0.387500,-0.100000,-0.406634,-0.096194,-0.422855,-0.085355,-0.433694,-0.069134,-0.437500,-0.050000,-0.437500,0.050000,-0.437500,0.050000,$1*%
%AMFreePoly1*
4,1,18,-0.437500,0.050000,-0.433694,0.069134,-0.422855,0.085355,-0.406634,0.096194,-0.387500,0.100000,0.387500,0.100000,0.406634,0.096194,0.422855,0.085355,0.433694,0.069134,0.437500,0.050000,0.437500,-0.050000,0.387500,-0.100000,-0.387500,-0.100000,-0.406634,-0.096194,-0.422855,-0.085355,-0.433694,-0.069134,-0.437500,-0.050000,-0.437500,0.050000,-0.437500,0.050000,$1*%
%AMFreePoly2*
4,1,18,-0.100000,0.387500,-0.050000,0.437500,0.050000,0.437500,0.069134,0.433694,0.085355,0.422855,0.096194,0.406634,0.100000,0.387500,0.100000,-0.387500,0.096194,-0.406634,0.085355,-0.422855,0.069134,-0.433694,0.050000,-0.437500,-0.050000,-0.437500,-0.069134,-0.433694,-0.085355,-0.422855,-0.096194,-0.406634,-0.100000,-0.387500,-0.100000,0.387500,-0.100000,0.387500,$1*%
%AMFreePoly3*
4,1,18,-0.100000,0.387500,-0.096194,0.406634,-0.085355,0.422855,-0.069134,0.433694,-0.050000,0.437500,0.050000,0.437500,0.100000,0.387500,0.100000,-0.387500,0.096194,-0.406634,0.085355,-0.422855,0.069134,-0.433694,0.050000,-0.437500,-0.050000,-0.437500,-0.069134,-0.433694,-0.085355,-0.422855,-0.096194,-0.406634,-0.100000,-0.387500,-0.100000,0.387500,-0.100000,0.387500,$1*%
%AMFreePoly4*
4,1,18,-0.437500,0.050000,-0.433694,0.069134,-0.422855,0.085355,-0.406634,0.096194,-0.387500,0.100000,0.387500,0.100000,0.406634,0.096194,0.422855,0.085355,0.433694,0.069134,0.437500,0.050000,0.437500,-0.050000,0.433694,-0.069134,0.422855,-0.085355,0.406634,-0.096194,0.387500,-0.100000,-0.387500,-0.100000,-0.437500,-0.050000,-0.437500,0.050000,-0.437500,0.050000,$1*%
%AMFreePoly5*
4,1,18,-0.437500,0.050000,-0.387500,0.100000,0.387500,0.100000,0.406634,0.096194,0.422855,0.085355,0.433694,0.069134,0.437500,0.050000,0.437500,-0.050000,0.433694,-0.069134,0.422855,-0.085355,0.406634,-0.096194,0.387500,-0.100000,-0.387500,-0.100000,-0.406634,-0.096194,-0.422855,-0.085355,-0.433694,-0.069134,-0.437500,-0.050000,-0.437500,0.050000,-0.437500,0.050000,$1*%
%AMFreePoly6*
4,1,18,-0.100000,0.387500,-0.096194,0.406634,-0.085355,0.422855,-0.069134,0.433694,-0.050000,0.437500,0.050000,0.437500,0.069134,0.433694,0.085355,0.422855,0.096194,0.406634,0.100000,0.387500,0.100000,-0.387500,0.050000,-0.437500,-0.050000,-0.437500,-0.069134,-0.433694,-0.085355,-0.422855,-0.096194,-0.406634,-0.100000,-0.387500,-0.100000,0.387500,-0.100000,0.387500,$1*%
%AMFreePoly7*
4,1,18,-0.100000,0.387500,-0.096194,0.406634,-0.085355,0.422855,-0.069134,0.433694,-0.050000,0.437500,0.050000,0.437500,0.069134,0.433694,0.085355,0.422855,0.096194,0.406634,0.100000,0.387500,0.100000,-0.387500,0.096194,-0.406634,0.085355,-0.422855,0.069134,-0.433694,0.050000,-0.437500,-0.050000,-0.437500,-0.100000,-0.387500,-0.100000,0.387500,-0.100000,0.387500,$1*%
G04 Aperture macros list end*
G04 #@! TA.AperFunction,SMDPad,CuDef*
%ADD10RoundRect,0.160000X0.160000X-0.197500X0.160000X0.197500X-0.160000X0.197500X-0.160000X-0.197500X0*%
G04 #@! TD*
G04 #@! TA.AperFunction,SMDPad,CuDef*
%ADD11RoundRect,0.160000X-0.197500X-0.160000X0.197500X-0.160000X0.197500X0.160000X-0.197500X0.160000X0*%
G04 #@! TD*
G04 #@! TA.AperFunction,ComponentPad*
%ADD12O,2.300000X1.500000*%
G04 #@! TD*
G04 #@! TA.AperFunction,ComponentPad*
%ADD13O,3.300000X1.500000*%
G04 #@! TD*
G04 #@! TA.AperFunction,SMDPad,CuDef*
%ADD14R,2.600000X0.300000*%
G04 #@! TD*
G04 #@! TA.AperFunction,SMDPad,CuDef*
%ADD15RoundRect,0.150000X0.587500X0.150000X-0.587500X0.150000X-0.587500X-0.150000X0.587500X-0.150000X0*%
G04 #@! TD*
G04 #@! TA.AperFunction,SMDPad,CuDef*
%ADD16RoundRect,0.150000X-0.587500X-0.150000X0.587500X-0.150000X0.587500X0.150000X-0.587500X0.150000X0*%
G04 #@! TD*
G04 #@! TA.AperFunction,SMDPad,CuDef*
%ADD17RoundRect,0.150000X0.650000X0.150000X-0.650000X0.150000X-0.650000X-0.150000X0.650000X-0.150000X0*%
G04 #@! TD*
G04 #@! TA.AperFunction,SMDPad,CuDef*
%ADD18RoundRect,0.155000X-0.155000X0.212500X-0.155000X-0.212500X0.155000X-0.212500X0.155000X0.212500X0*%
G04 #@! TD*
G04 #@! TA.AperFunction,SMDPad,CuDef*
%ADD19RoundRect,0.155000X0.155000X-0.212500X0.155000X0.212500X-0.155000X0.212500X-0.155000X-0.212500X0*%
G04 #@! TD*
G04 #@! TA.AperFunction,SMDPad,CuDef*
%ADD20RoundRect,0.155000X0.212500X0.155000X-0.212500X0.155000X-0.212500X-0.155000X0.212500X-0.155000X0*%
G04 #@! TD*
G04 #@! TA.AperFunction,SMDPad,CuDef*
%ADD21RoundRect,0.250000X0.450000X-0.325000X0.450000X0.325000X-0.450000X0.325000X-0.450000X-0.325000X0*%
G04 #@! TD*
G04 #@! TA.AperFunction,SMDPad,CuDef*
%ADD22RoundRect,0.155000X-0.212500X-0.155000X0.212500X-0.155000X0.212500X0.155000X-0.212500X0.155000X0*%
G04 #@! TD*
G04 #@! TA.AperFunction,SMDPad,CuDef*
%ADD23RoundRect,0.162500X0.162500X-0.617500X0.162500X0.617500X-0.162500X0.617500X-0.162500X-0.617500X0*%
G04 #@! TD*
G04 #@! TA.AperFunction,SMDPad,CuDef*
%ADD24R,1.000000X1.200000*%
G04 #@! TD*
G04 #@! TA.AperFunction,SMDPad,CuDef*
%ADD25RoundRect,0.250000X-0.275000X-0.350000X0.275000X-0.350000X0.275000X0.350000X-0.275000X0.350000X0*%
G04 #@! TD*
G04 #@! TA.AperFunction,ComponentPad*
%ADD26R,1.700000X1.700000*%
G04 #@! TD*
G04 #@! TA.AperFunction,ComponentPad*
%ADD27O,1.700000X1.700000*%
G04 #@! TD*
G04 #@! TA.AperFunction,SMDPad,CuDef*
%ADD28RoundRect,0.160000X0.197500X0.160000X-0.197500X0.160000X-0.197500X-0.160000X0.197500X-0.160000X0*%
G04 #@! TD*
G04 #@! TA.AperFunction,SMDPad,CuDef*
%ADD29RoundRect,0.160000X-0.160000X0.197500X-0.160000X-0.197500X0.160000X-0.197500X0.160000X0.197500X0*%
G04 #@! TD*
G04 #@! TA.AperFunction,SMDPad,CuDef*
%ADD30FreePoly0,180.000000*%
G04 #@! TD*
G04 #@! TA.AperFunction,SMDPad,CuDef*
%ADD31RoundRect,0.050000X0.387500X0.050000X-0.387500X0.050000X-0.387500X-0.050000X0.387500X-0.050000X0*%
G04 #@! TD*
G04 #@! TA.AperFunction,SMDPad,CuDef*
%ADD32FreePoly1,180.000000*%
G04 #@! TD*
G04 #@! TA.AperFunction,SMDPad,CuDef*
%ADD33FreePoly2,180.000000*%
G04 #@! TD*
G04 #@! TA.AperFunction,SMDPad,CuDef*
%ADD34RoundRect,0.050000X0.050000X0.387500X-0.050000X0.387500X-0.050000X-0.387500X0.050000X-0.387500X0*%
G04 #@! TD*
G04 #@! TA.AperFunction,SMDPad,CuDef*
%ADD35FreePoly3,180.000000*%
G04 #@! TD*
G04 #@! TA.AperFunction,SMDPad,CuDef*
%ADD36FreePoly4,180.000000*%
G04 #@! TD*
G04 #@! TA.AperFunction,SMDPad,CuDef*
%ADD37FreePoly5,180.000000*%
G04 #@! TD*
G04 #@! TA.AperFunction,SMDPad,CuDef*
%ADD38FreePoly6,180.000000*%
G04 #@! TD*
G04 #@! TA.AperFunction,SMDPad,CuDef*
%ADD39FreePoly7,180.000000*%
G04 #@! TD*
G04 #@! TA.AperFunction,ComponentPad*
%ADD40C,0.600000*%
G04 #@! TD*
G04 #@! TA.AperFunction,SMDPad,CuDef*
%ADD41RoundRect,0.153000X-1.547000X1.547000X-1.547000X-1.547000X1.547000X-1.547000X1.547000X1.547000X0*%
G04 #@! TD*
G04 #@! TA.AperFunction,ViaPad*
%ADD42C,0.609600*%
G04 #@! TD*
G04 #@! TA.AperFunction,ViaPad*
%ADD43C,0.406400*%
G04 #@! TD*
G04 #@! TA.AperFunction,Conductor*
%ADD44C,0.156464*%
G04 #@! TD*
G04 #@! TA.AperFunction,Conductor*
%ADD45C,0.203200*%
G04 #@! TD*
G04 #@! TA.AperFunction,Conductor*
%ADD46C,0.317500*%
G04 #@! TD*
G04 #@! TA.AperFunction,Conductor*
%ADD47C,0.254000*%
G04 #@! TD*
G04 #@! TA.AperFunction,Conductor*
%ADD48C,0.406400*%
G04 #@! TD*
G04 #@! TA.AperFunction,Conductor*
%ADD49C,0.152400*%
G04 #@! TD*
G04 #@! TA.AperFunction,Conductor*
%ADD50C,0.123952*%
G04 #@! TD*
G04 APERTURE END LIST*
D10*
X123698000Y-89141900D03*
X123698000Y-87946900D03*
X123596400Y-84671500D03*
X123596400Y-83476500D03*
D11*
X122236900Y-80975200D03*
X123431900Y-80975200D03*
X122224800Y-78689200D03*
X123419800Y-78689200D03*
D12*
X133147600Y-88896400D03*
X133147600Y-74396400D03*
D13*
X127187600Y-88896400D03*
X127187600Y-74396400D03*
D14*
X126427600Y-86146400D03*
X126427600Y-85646400D03*
X126427600Y-85146400D03*
X126427600Y-84646400D03*
X126427600Y-84146400D03*
X126427600Y-83646400D03*
X126427600Y-83146400D03*
X126427600Y-82646400D03*
X126427600Y-82146400D03*
X126427600Y-81646400D03*
X126427600Y-81146400D03*
X126427600Y-80646400D03*
X126427600Y-80146400D03*
X126427600Y-79646400D03*
X126427600Y-79146400D03*
X126427600Y-78646400D03*
X126427600Y-78146400D03*
X126427600Y-77646400D03*
X126427600Y-77146400D03*
D11*
X132346100Y-92506800D03*
X133541100Y-92506800D03*
X132346100Y-91389200D03*
X133541100Y-91389200D03*
D10*
X125656100Y-97194000D03*
X125656100Y-95999000D03*
D11*
X125730000Y-92633800D03*
X126925000Y-92633800D03*
D15*
X133322300Y-99641400D03*
X133322300Y-97741400D03*
X131447300Y-98691400D03*
X131447300Y-95031600D03*
X133322300Y-94081600D03*
X133322300Y-95981600D03*
D16*
X127281700Y-97754400D03*
X127281700Y-99654400D03*
X129156700Y-98704400D03*
X127286300Y-94081600D03*
X127286300Y-95981600D03*
X129161300Y-95031600D03*
D17*
X132842000Y-107950000D03*
X132842000Y-106680000D03*
X132842000Y-105410000D03*
X132842000Y-104140000D03*
X125642000Y-104140000D03*
X125642000Y-105410000D03*
X125642000Y-106680000D03*
X125642000Y-107950000D03*
D18*
X112826800Y-98010600D03*
X112826800Y-96875600D03*
D19*
X114401600Y-90788300D03*
X114401600Y-89653300D03*
D20*
X118169500Y-89611200D03*
X117034500Y-89611200D03*
D11*
X122236900Y-79857600D03*
X123431900Y-79857600D03*
D20*
X119287100Y-83632700D03*
X118152100Y-83632700D03*
D21*
X116433600Y-104250600D03*
X116433600Y-102200600D03*
D18*
X119430800Y-101887400D03*
X119430800Y-103022400D03*
D11*
X122186100Y-77622400D03*
X123381100Y-77622400D03*
X122186100Y-76504800D03*
X123381100Y-76504800D03*
D22*
X124654500Y-101473000D03*
X125789500Y-101473000D03*
D20*
X120104700Y-88306300D03*
X118969700Y-88306300D03*
D10*
X122428000Y-83401500D03*
X122428000Y-82206500D03*
D18*
X124333000Y-96714500D03*
X124333000Y-97849500D03*
X114706400Y-101854000D03*
X114706400Y-102989000D03*
D23*
X117587600Y-110910200D03*
X118537600Y-110910200D03*
X119487600Y-110910200D03*
X119487600Y-108210200D03*
X117587600Y-108210200D03*
D20*
X122893900Y-108000800D03*
X121758900Y-108000800D03*
D18*
X118059200Y-101887400D03*
X118059200Y-103022400D03*
D11*
X122186100Y-75438000D03*
X123381100Y-75438000D03*
D24*
X120500700Y-86833100D03*
X120500700Y-85133100D03*
X119200700Y-85133100D03*
X119200700Y-86833100D03*
D11*
X129958500Y-91389200D03*
X131153500Y-91389200D03*
D18*
X117195600Y-112961800D03*
X117195600Y-114096800D03*
D11*
X129974100Y-92506800D03*
X131169100Y-92506800D03*
D19*
X112826800Y-95453200D03*
X112826800Y-94318200D03*
X120257100Y-90673900D03*
X120257100Y-89538900D03*
D25*
X113099200Y-107950000D03*
X115399200Y-107950000D03*
D18*
X120396000Y-102937500D03*
X120396000Y-104072500D03*
D26*
X113334800Y-80670400D03*
D27*
X113334800Y-83210400D03*
X113334800Y-85750400D03*
D18*
X124333000Y-94301500D03*
X124333000Y-95436500D03*
D20*
X113326100Y-100584000D03*
X114461100Y-100584000D03*
D28*
X122263500Y-113436400D03*
X121068500Y-113436400D03*
D20*
X123613800Y-114503200D03*
X122478800Y-114503200D03*
D10*
X113538000Y-103416700D03*
X113538000Y-102221700D03*
D11*
X127672500Y-101473000D03*
X128867500Y-101473000D03*
D29*
X117767900Y-87099200D03*
X117767900Y-88294200D03*
D28*
X132309800Y-101447600D03*
X131114800Y-101447600D03*
D20*
X118725100Y-106210200D03*
X117590100Y-106210200D03*
D17*
X132842000Y-114173000D03*
X132842000Y-112903000D03*
X132842000Y-111633000D03*
X132842000Y-110363000D03*
X125642000Y-110363000D03*
X125642000Y-111633000D03*
X125642000Y-112903000D03*
X125642000Y-114173000D03*
D30*
X122509300Y-98608800D03*
D31*
X122509300Y-98208800D03*
X122509300Y-97808800D03*
X122509300Y-97408800D03*
X122509300Y-97008800D03*
X122509300Y-96608800D03*
X122509300Y-96208800D03*
X122509300Y-95808800D03*
X122509300Y-95408800D03*
X122509300Y-95008800D03*
X122509300Y-94608800D03*
X122509300Y-94208800D03*
X122509300Y-93808800D03*
X122509300Y-93408800D03*
D32*
X122509300Y-93008800D03*
D33*
X121871800Y-92371300D03*
D34*
X121471800Y-92371300D03*
X121071800Y-92371300D03*
X120671800Y-92371300D03*
X120271800Y-92371300D03*
X119871800Y-92371300D03*
X119471800Y-92371300D03*
X119071800Y-92371300D03*
X118671800Y-92371300D03*
X118271800Y-92371300D03*
X117871800Y-92371300D03*
X117471800Y-92371300D03*
X117071800Y-92371300D03*
X116671800Y-92371300D03*
D35*
X116271800Y-92371300D03*
D36*
X115634300Y-93008800D03*
D31*
X115634300Y-93408800D03*
X115634300Y-93808800D03*
X115634300Y-94208800D03*
X115634300Y-94608800D03*
X115634300Y-95008800D03*
X115634300Y-95408800D03*
X115634300Y-95808800D03*
X115634300Y-96208800D03*
X115634300Y-96608800D03*
X115634300Y-97008800D03*
X115634300Y-97408800D03*
X115634300Y-97808800D03*
X115634300Y-98208800D03*
D37*
X115634300Y-98608800D03*
D38*
X116271800Y-99246300D03*
D34*
X116671800Y-99246300D03*
X117071800Y-99246300D03*
X117471800Y-99246300D03*
X117871800Y-99246300D03*
X118271800Y-99246300D03*
X118671800Y-99246300D03*
X119071800Y-99246300D03*
X119471800Y-99246300D03*
X119871800Y-99246300D03*
X120271800Y-99246300D03*
X120671800Y-99246300D03*
X121071800Y-99246300D03*
X121471800Y-99246300D03*
D39*
X121871800Y-99246300D03*
D40*
X120446800Y-97183800D03*
X120446800Y-95808800D03*
X120446800Y-94433800D03*
X119071800Y-97183800D03*
X119071800Y-95808800D03*
D41*
X119071800Y-95808800D03*
D40*
X119071800Y-94433800D03*
X117696800Y-97183800D03*
X117696800Y-95808800D03*
X117696800Y-94433800D03*
D26*
X114096800Y-113593800D03*
D27*
X114096800Y-111053800D03*
X113334800Y-76570600D03*
X113334800Y-74030600D03*
D26*
X113334800Y-71490600D03*
D42*
X128270000Y-82146400D03*
X128320800Y-80646400D03*
X128371600Y-79146400D03*
X128422400Y-77646400D03*
D43*
X130073400Y-101498400D03*
D42*
X129032000Y-112852200D03*
D43*
X130810000Y-112268000D03*
X127381000Y-98755200D03*
X124536200Y-91694000D03*
X124460000Y-92989400D03*
X125577600Y-94589600D03*
D42*
X118465600Y-115062000D03*
X116586000Y-106222800D03*
X118567200Y-112826800D03*
D43*
X121818400Y-108966000D03*
D42*
X128117600Y-104648000D03*
D43*
X120243600Y-113436400D03*
X123494800Y-113487200D03*
D42*
X121412000Y-114274600D03*
X132791200Y-109372400D03*
X131622800Y-104089200D03*
X119487600Y-114712400D03*
X133654800Y-101346000D03*
X124510800Y-89204800D03*
D43*
X121005600Y-104546400D03*
X114706400Y-103784400D03*
X119481600Y-103835200D03*
X118008400Y-103835200D03*
X112572800Y-100076000D03*
X114274600Y-92583000D03*
X112826800Y-91846400D03*
X112776000Y-93167200D03*
X113741200Y-94030800D03*
X113792000Y-95300800D03*
X113182400Y-99364800D03*
X113792000Y-98196400D03*
X113842800Y-96774000D03*
X112471200Y-98806000D03*
X112064800Y-94284800D03*
X123825000Y-99441000D03*
X125222000Y-99568000D03*
X126619000Y-101473000D03*
X116433600Y-100787200D03*
X114401600Y-88747600D03*
X113639600Y-90728800D03*
X115620800Y-91643200D03*
X117449600Y-93472000D03*
X117297200Y-90525600D03*
X118110000Y-90576400D03*
X118313200Y-86055200D03*
X124968000Y-98044000D03*
X123571000Y-95631000D03*
X133502400Y-95097600D03*
X134366000Y-92506800D03*
D42*
X128320800Y-85140800D03*
D43*
X117195600Y-83566000D03*
X116890800Y-88798400D03*
X121019100Y-88887200D03*
X121374700Y-85156700D03*
D44*
X115634300Y-93408800D02*
X115202000Y-93408800D01*
X115202000Y-93408800D02*
X114782600Y-92989400D01*
X114782600Y-92989400D02*
X114782600Y-92278200D01*
X114782600Y-92278200D02*
X113995200Y-91490800D01*
X113995200Y-91490800D02*
X113512600Y-91490800D01*
X113512600Y-91490800D02*
X112826800Y-90805000D01*
X112826800Y-90805000D02*
X112826800Y-89052400D01*
X112826800Y-89052400D02*
X114681000Y-87198200D01*
X114681000Y-87198200D02*
X114681000Y-75376800D01*
X114681000Y-75376800D02*
X113334800Y-74030600D01*
D45*
X114401600Y-90788300D02*
X113699100Y-90788300D01*
X113699100Y-90788300D02*
X113639600Y-90728800D01*
D44*
X115196800Y-93808800D02*
X115634300Y-93808800D01*
X114274600Y-92886600D02*
X115196800Y-93808800D01*
X114274600Y-92583000D02*
X114274600Y-92886600D01*
D46*
X123613800Y-114503200D02*
X124612400Y-114503200D01*
X124612400Y-114503200D02*
X124942600Y-114173000D01*
X124942600Y-114173000D02*
X125642000Y-114173000D01*
X124802900Y-113728500D02*
X125247400Y-114173000D01*
X125247400Y-114173000D02*
X125642000Y-114173000D01*
D45*
X124802900Y-113728500D02*
X122936000Y-111861600D01*
D46*
X122893900Y-111819500D02*
X124802900Y-113728500D01*
X122893900Y-108000800D02*
X122893900Y-111819500D01*
X125642000Y-107950000D02*
X122944700Y-107950000D01*
X122944700Y-107950000D02*
X122893900Y-108000800D01*
D44*
X127286300Y-95981600D02*
X127286300Y-95536300D01*
X127286300Y-95536300D02*
X125730000Y-93980000D01*
X125730000Y-93980000D02*
X125730000Y-92633800D01*
X123172796Y-94208800D02*
X122509300Y-94208800D01*
X124561600Y-93573600D02*
X123807996Y-93573600D01*
X125577600Y-94589600D02*
X124561600Y-93573600D01*
X123807996Y-93573600D02*
X123172796Y-94208800D01*
D46*
X113538000Y-103416700D02*
X113538000Y-104160600D01*
X113538000Y-104160600D02*
X117587600Y-108210200D01*
X120396000Y-102937500D02*
X120396000Y-101854000D01*
X121081800Y-103759000D02*
X121081800Y-103378000D01*
X121158000Y-103835200D02*
X121081800Y-103759000D01*
X121081800Y-103378000D02*
X120641300Y-102937500D01*
X120641300Y-102937500D02*
X120396000Y-102937500D01*
X122936000Y-105613200D02*
X121158000Y-103835200D01*
X122893900Y-108000800D02*
X122893900Y-105655300D01*
X122893900Y-105655300D02*
X122936000Y-105613200D01*
X119270200Y-106527600D02*
X122936000Y-106527600D01*
X119270200Y-106527600D02*
X119042500Y-106527600D01*
X119042500Y-106527600D02*
X118725100Y-106210200D01*
X117587600Y-108210200D02*
X119270200Y-106527600D01*
D47*
X112826800Y-95453200D02*
X113182400Y-95808800D01*
X111912400Y-100812600D02*
X111912400Y-96367600D01*
X111912400Y-96367600D02*
X112826800Y-95453200D01*
X112674400Y-101803200D02*
X112585500Y-101714300D01*
X112585500Y-101714300D02*
X112585500Y-101485700D01*
X112585500Y-101485700D02*
X111912400Y-100812600D01*
X114954400Y-98608800D02*
X115634300Y-98608800D01*
X114461100Y-100584000D02*
X114461100Y-99102100D01*
X114461100Y-99102100D02*
X114954400Y-98608800D01*
X113766600Y-101371400D02*
X113766600Y-101278500D01*
X113766600Y-101278500D02*
X114461100Y-100584000D01*
X113030000Y-101447600D02*
X113690400Y-101447600D01*
X113690400Y-101447600D02*
X113766600Y-101371400D01*
X112674400Y-103124000D02*
X112674400Y-101803200D01*
X112674400Y-101803200D02*
X113030000Y-101447600D01*
X113538000Y-103416700D02*
X112967100Y-103416700D01*
X112967100Y-103416700D02*
X112674400Y-103124000D01*
X132842000Y-110363000D02*
X132842000Y-109423200D01*
X132842000Y-109423200D02*
X132791200Y-109372400D01*
X131622800Y-104089200D02*
X132791200Y-104089200D01*
X132791200Y-104089200D02*
X132842000Y-104140000D01*
D44*
X121471800Y-99246300D02*
X121471800Y-99754800D01*
X133248400Y-102870000D02*
X134112000Y-103733600D01*
X121471800Y-99754800D02*
X123063000Y-101346000D01*
X123063000Y-101346000D02*
X123063000Y-102362000D01*
X123063000Y-102362000D02*
X123571000Y-102870000D01*
X123571000Y-102870000D02*
X133248400Y-102870000D01*
X134112000Y-103733600D02*
X134112000Y-106045000D01*
X134112000Y-106045000D02*
X133477000Y-106680000D01*
X133477000Y-106680000D02*
X132842000Y-106680000D01*
X130073400Y-101498400D02*
X130048000Y-101523800D01*
X130124200Y-101447600D02*
X130073400Y-101498400D01*
X131114800Y-101447600D02*
X130124200Y-101447600D01*
D45*
X132309800Y-101447600D02*
X132309800Y-100966200D01*
X132309800Y-100966200D02*
X131381500Y-100037900D01*
X131381500Y-100037900D02*
X128536700Y-100037900D01*
D47*
X127672500Y-100902100D02*
X128536700Y-100037900D01*
X128536700Y-100037900D02*
X128625600Y-99949000D01*
D44*
X128879600Y-102362000D02*
X133985000Y-102362000D01*
X123825000Y-102362000D02*
X128879600Y-102362000D01*
X128879600Y-102362000D02*
X128879600Y-102285800D01*
X128879600Y-102285800D02*
X128867500Y-102273700D01*
X128867500Y-102273700D02*
X128867500Y-101473000D01*
D47*
X127672500Y-101473000D02*
X127672500Y-100902100D01*
X128625600Y-99949000D02*
X128625600Y-99542600D01*
X128625600Y-99542600D02*
X128092200Y-99009200D01*
X128092200Y-99009200D02*
X128092200Y-98564900D01*
X128092200Y-98564900D02*
X127281700Y-97754400D01*
X124654500Y-100754000D02*
X126953500Y-100754000D01*
X126953500Y-100754000D02*
X127672500Y-101473000D01*
D48*
X113099200Y-107950000D02*
X112014000Y-109035200D01*
X112014000Y-109035200D02*
X112014000Y-111511000D01*
X112014000Y-111511000D02*
X114096800Y-113593800D01*
D45*
X122478800Y-114503200D02*
X121640600Y-114503200D01*
X121640600Y-114503200D02*
X121412000Y-114274600D01*
D44*
X120243600Y-113436400D02*
X121068500Y-113436400D01*
D48*
X119487600Y-110910200D02*
X119487600Y-114712400D01*
X117195600Y-114096800D02*
X117500400Y-114096800D01*
X117500400Y-114096800D02*
X118465600Y-115062000D01*
X118537600Y-110910200D02*
X118537600Y-112797200D01*
X118537600Y-112797200D02*
X118567200Y-112826800D01*
X118211600Y-109626400D02*
X117587600Y-110250400D01*
X117587600Y-110250400D02*
X117587600Y-110910200D01*
X119024400Y-109626400D02*
X118211600Y-109626400D01*
X119487600Y-110089600D02*
X119024400Y-109626400D01*
X119487600Y-110910200D02*
X119487600Y-110089600D01*
X115399200Y-107950000D02*
X115399200Y-108721800D01*
X115399200Y-108721800D02*
X117587600Y-110910200D01*
X117195600Y-112961800D02*
X117195600Y-111302200D01*
X117195600Y-111302200D02*
X117587600Y-110910200D01*
D47*
X123698000Y-89141900D02*
X124447900Y-89141900D01*
X124447900Y-89141900D02*
X124510800Y-89204800D01*
X133541100Y-92506800D02*
X133541100Y-91389200D01*
X133541100Y-92506800D02*
X134366000Y-92506800D01*
X133322300Y-95981600D02*
X133322300Y-95277700D01*
X133322300Y-95277700D02*
X133502400Y-95097600D01*
X133322300Y-99641400D02*
X133322300Y-99235500D01*
X133322300Y-99235500D02*
X132257800Y-98171000D01*
X132257800Y-97046100D02*
X133322300Y-95981600D01*
X132257800Y-98171000D02*
X132257800Y-97046100D01*
D48*
X133322300Y-99641400D02*
X133322300Y-101013500D01*
X133322300Y-101013500D02*
X133654800Y-101346000D01*
D44*
X132842000Y-112903000D02*
X133858000Y-112903000D01*
X131445000Y-107061000D02*
X131826000Y-106680000D01*
X133858000Y-112903000D02*
X134264400Y-112496600D01*
X134264400Y-112496600D02*
X134264400Y-109118400D01*
X134264400Y-109118400D02*
X133985000Y-108839000D01*
X133985000Y-108839000D02*
X131953000Y-108839000D01*
X131953000Y-108839000D02*
X131445000Y-108331000D01*
X131445000Y-108331000D02*
X131445000Y-107061000D01*
X131826000Y-106680000D02*
X132842000Y-106680000D01*
X130810000Y-112268000D02*
X130810000Y-112776000D01*
X130810000Y-112776000D02*
X132207000Y-114173000D01*
X132207000Y-114173000D02*
X132842000Y-114173000D01*
X127381000Y-98755200D02*
X127381000Y-99555100D01*
X127381000Y-99555100D02*
X127281700Y-99654400D01*
X124536200Y-91821000D02*
X122948400Y-93408800D01*
X124536200Y-91694000D02*
X124536200Y-91821000D01*
X122948400Y-93408800D02*
X122509300Y-93408800D01*
X122509300Y-93008800D02*
X123063000Y-92455100D01*
X123063000Y-92455100D02*
X123063000Y-91871800D01*
X123063000Y-91871800D02*
X123850400Y-91084400D01*
X123850400Y-91084400D02*
X125069600Y-91084400D01*
X125069600Y-91084400D02*
X125730000Y-91744800D01*
X125730000Y-91744800D02*
X125730000Y-92633800D01*
X124027238Y-92989400D02*
X124460000Y-92989400D01*
X123207838Y-93808800D02*
X124027238Y-92989400D01*
X122509300Y-93808800D02*
X123207838Y-93808800D01*
D45*
X125656100Y-95999000D02*
X125656100Y-95624600D01*
X125656100Y-95624600D02*
X124333000Y-94301500D01*
X126925000Y-92633800D02*
X126925000Y-93720300D01*
X126925000Y-93720300D02*
X127286300Y-94081600D01*
D44*
X125222000Y-99568000D02*
X124460000Y-98806000D01*
X124460000Y-98806000D02*
X124079000Y-98806000D01*
X124079000Y-98806000D02*
X123621800Y-98348800D01*
X123621800Y-98348800D02*
X123621800Y-98272600D01*
X123621800Y-98272600D02*
X123158000Y-97808800D01*
X123158000Y-97808800D02*
X122509300Y-97808800D01*
D47*
X116598600Y-106210200D02*
X116586000Y-106222800D01*
X117590100Y-106210200D02*
X116598600Y-106210200D01*
D45*
X122936000Y-105613200D02*
X122936000Y-106527600D01*
X122936000Y-106527600D02*
X122936000Y-109220000D01*
X121758900Y-108906500D02*
X121818400Y-108966000D01*
X121758900Y-108000800D02*
X121758900Y-108906500D01*
D49*
X123494800Y-113487200D02*
X123444000Y-113436400D01*
X123444000Y-113436400D02*
X122263500Y-113436400D01*
D44*
X125642000Y-110363000D02*
X127076200Y-110363000D01*
X127076200Y-110363000D02*
X129082800Y-108356400D01*
X129082800Y-104546400D02*
X128473200Y-103936800D01*
X129082800Y-108356400D02*
X129082800Y-104546400D01*
X128473200Y-103936800D02*
X125845200Y-103936800D01*
X125845200Y-103936800D02*
X125642000Y-104140000D01*
D45*
X122936000Y-111861600D02*
X122936000Y-109220000D01*
X112572800Y-100076000D02*
X113080800Y-100584000D01*
X113080800Y-100584000D02*
X113326100Y-100584000D01*
X112471200Y-98806000D02*
X112471200Y-98366200D01*
X112471200Y-98366200D02*
X112826800Y-98010600D01*
X120531700Y-104072500D02*
X121005600Y-104546400D01*
X120396000Y-104072500D02*
X120531700Y-104072500D01*
D44*
X119871800Y-99246300D02*
X119871800Y-100567800D01*
X119871800Y-100567800D02*
X121462800Y-102158800D01*
X121462800Y-102158800D02*
X121462800Y-103276400D01*
X121462800Y-103276400D02*
X124866400Y-106680000D01*
X124866400Y-106680000D02*
X125642000Y-106680000D01*
X125642000Y-105410000D02*
X124206000Y-105410000D01*
X124206000Y-105410000D02*
X121818400Y-103022400D01*
X121818400Y-103022400D02*
X121818400Y-101859900D01*
X121818400Y-101859900D02*
X120271800Y-100313300D01*
X120271800Y-100313300D02*
X120271800Y-99246300D01*
X120671800Y-99246300D02*
X120671800Y-100161300D01*
X120671800Y-100161300D02*
X122174000Y-101663500D01*
X122174000Y-101663500D02*
X122174000Y-102768400D01*
X123545600Y-104140000D02*
X125642000Y-104140000D01*
X122174000Y-102768400D02*
X123545600Y-104140000D01*
D45*
X127281700Y-97754400D02*
X128000800Y-97754400D01*
X128000800Y-97754400D02*
X128524000Y-97231200D01*
X128524000Y-97231200D02*
X128524000Y-95758000D01*
X128524000Y-95758000D02*
X127965200Y-95199200D01*
X127965200Y-95199200D02*
X127965200Y-94760500D01*
X127965200Y-94760500D02*
X127286300Y-94081600D01*
X116484400Y-95808800D02*
X116586000Y-95707200D01*
X115634300Y-95808800D02*
X116484400Y-95808800D01*
X116586000Y-95707200D02*
X116586000Y-93123000D01*
X116586000Y-93123000D02*
X116271800Y-92808800D01*
X116271800Y-92808800D02*
X116271800Y-92371300D01*
X117471800Y-99246300D02*
X117471800Y-98808800D01*
X117471800Y-98808800D02*
X116871800Y-98208800D01*
X116871800Y-98208800D02*
X115634300Y-98208800D01*
D44*
X117449600Y-93472000D02*
X117449600Y-93157418D01*
X117449600Y-93157418D02*
X117871800Y-92735218D01*
X117871800Y-92735218D02*
X117871800Y-92371300D01*
D45*
X117871800Y-98808800D02*
X118093900Y-98586700D01*
X116281200Y-96215200D02*
X116586000Y-96520000D01*
X118093900Y-98586700D02*
X118585800Y-98094800D01*
X116078200Y-96215200D02*
X116281200Y-96215200D01*
X115634300Y-96208800D02*
X116071800Y-96208800D01*
X116071800Y-96208800D02*
X116078200Y-96215200D01*
X116586000Y-96520000D02*
X116586000Y-97078800D01*
X116586000Y-97078800D02*
X118093900Y-98586700D01*
X116433600Y-100787200D02*
X116671800Y-100549000D01*
X116671800Y-100549000D02*
X116671800Y-99246300D01*
D44*
X113182400Y-99364800D02*
X113308974Y-99364800D01*
X115264974Y-97408800D02*
X115634300Y-97408800D01*
X113308974Y-99364800D02*
X115264974Y-97408800D01*
D45*
X116433600Y-104250600D02*
X117204600Y-104250600D01*
X117204600Y-104250600D02*
X117500400Y-104546400D01*
X117500400Y-104546400D02*
X118262400Y-104546400D01*
X118262400Y-104546400D02*
X118770400Y-104038400D01*
X118770400Y-104038400D02*
X118770400Y-102547800D01*
X118770400Y-102547800D02*
X119430800Y-101887400D01*
X119430800Y-103784400D02*
X119430800Y-103022400D01*
X119481600Y-103835200D02*
X119430800Y-103784400D01*
X117871800Y-99246300D02*
X117871800Y-100041000D01*
X117871800Y-100041000D02*
X119430800Y-101600000D01*
X119430800Y-101600000D02*
X119430800Y-101887400D01*
X119071800Y-100529800D02*
X120396000Y-101854000D01*
X119071800Y-99246300D02*
X119071800Y-100529800D01*
X114706400Y-102989000D02*
X114706400Y-103784400D01*
X118059200Y-103784400D02*
X118008400Y-103835200D01*
X118059200Y-103022400D02*
X118059200Y-103784400D01*
X121831200Y-96608800D02*
X121831200Y-96482000D01*
X121831200Y-96482000D02*
X121259600Y-95910400D01*
X121259600Y-95910400D02*
X121259600Y-94030800D01*
X121259600Y-94030800D02*
X120904000Y-93675200D01*
X120904000Y-93675200D02*
X119938200Y-93675200D01*
X119938200Y-93675200D02*
X119071800Y-92808800D01*
X119071800Y-92808800D02*
X119071800Y-92371300D01*
X120271800Y-92371300D02*
X120271800Y-92890600D01*
X121208800Y-93218000D02*
X121716800Y-93726000D01*
X120271800Y-92890600D02*
X120599200Y-93218000D01*
X120599200Y-93218000D02*
X121208800Y-93218000D01*
X121716800Y-93726000D02*
X121716800Y-94234000D01*
X121716800Y-94234000D02*
X122091600Y-94608800D01*
X122091600Y-94608800D02*
X122509300Y-94608800D01*
X117871800Y-99246300D02*
X117871800Y-98808800D01*
X121831200Y-96608800D02*
X122509300Y-96608800D01*
X120904000Y-97942400D02*
X121564400Y-97282000D01*
X118585800Y-98094800D02*
X119227600Y-98094800D01*
X119227600Y-98094800D02*
X119380000Y-97942400D01*
X119380000Y-97942400D02*
X120904000Y-97942400D01*
X121564400Y-97282000D02*
X121564400Y-96875600D01*
X121564400Y-96875600D02*
X121831200Y-96608800D01*
X119071800Y-98808800D02*
X119071800Y-99246300D01*
D49*
X113538000Y-102221700D02*
X113905700Y-101854000D01*
X113905700Y-101854000D02*
X114706400Y-101854000D01*
D44*
X115634300Y-94208800D02*
X115138400Y-94208800D01*
X115138400Y-94208800D02*
X112826800Y-91897200D01*
X112826800Y-91897200D02*
X112826800Y-91846400D01*
X115634300Y-94608800D02*
X114928800Y-94608800D01*
X114928800Y-94608800D02*
X114604800Y-94284800D01*
X114604800Y-94284800D02*
X114604800Y-94170713D01*
X114604800Y-94170713D02*
X113601287Y-93167200D01*
X113601287Y-93167200D02*
X112776000Y-93167200D01*
X113741200Y-94538800D02*
X113741200Y-94030800D01*
X113842800Y-94640400D02*
X113741200Y-94538800D01*
X114363600Y-95008800D02*
X114096800Y-94742000D01*
X114896574Y-95008800D02*
X114363600Y-95008800D01*
X114096800Y-94742000D02*
X113995200Y-94640400D01*
X113995200Y-94640400D02*
X113842800Y-94640400D01*
X113792000Y-95300800D02*
X113900000Y-95408800D01*
X113900000Y-95408800D02*
X115634300Y-95408800D01*
X115634300Y-95008800D02*
X114896574Y-95008800D01*
X113792000Y-98196400D02*
X114979600Y-97008800D01*
X114979600Y-97008800D02*
X115634300Y-97008800D01*
X114008000Y-96608800D02*
X113842800Y-96774000D01*
X115634300Y-96608800D02*
X114008000Y-96608800D01*
D45*
X112098200Y-94318200D02*
X112064800Y-94284800D01*
X112826800Y-94318200D02*
X112098200Y-94318200D01*
X113182400Y-95808800D02*
X115634300Y-95808800D01*
X112826800Y-96875600D02*
X113493600Y-96208800D01*
X113493600Y-96208800D02*
X115634300Y-96208800D01*
X115634300Y-98608800D02*
X115634300Y-98208800D01*
D44*
X127281700Y-99654400D02*
X125656100Y-98028800D01*
X125656100Y-98028800D02*
X125656100Y-97194000D01*
X122896800Y-98208800D02*
X122509300Y-98208800D01*
X123825000Y-99441000D02*
X123825000Y-99137000D01*
X123825000Y-99137000D02*
X122896800Y-98208800D01*
D45*
X123329600Y-96608800D02*
X122509300Y-96608800D01*
X124968000Y-98044000D02*
X124527500Y-98044000D01*
X124333000Y-96714500D02*
X123435300Y-96714500D01*
X123435300Y-96714500D02*
X123329600Y-96608800D01*
X124527500Y-98044000D02*
X124333000Y-97849500D01*
X123571000Y-95631000D02*
X123765500Y-95436500D01*
X123765500Y-95436500D02*
X124333000Y-95436500D01*
X122509300Y-94608800D02*
X123170800Y-94608800D01*
X123170800Y-94608800D02*
X123478100Y-94301500D01*
X123478100Y-94301500D02*
X124333000Y-94301500D01*
X124654500Y-100754000D02*
X123995000Y-100754000D01*
X123995000Y-100754000D02*
X122509300Y-99268300D01*
X122509300Y-99268300D02*
X122509300Y-98608800D01*
X119471800Y-99246300D02*
X119471800Y-98587200D01*
X119471800Y-98587200D02*
X119634000Y-98425000D01*
X119634000Y-98425000D02*
X121888000Y-98425000D01*
X121888000Y-98425000D02*
X122071800Y-98608800D01*
X122071800Y-98608800D02*
X122509300Y-98608800D01*
X124654500Y-101473000D02*
X124654500Y-100754000D01*
X125789500Y-101473000D02*
X126619000Y-101473000D01*
D44*
X121871800Y-99246300D02*
X121871800Y-99519800D01*
X121871800Y-99519800D02*
X123571000Y-101219000D01*
X123571000Y-101219000D02*
X123571000Y-102108000D01*
X123571000Y-102108000D02*
X123825000Y-102362000D01*
X133985000Y-102362000D02*
X134493000Y-102870000D01*
X134493000Y-102870000D02*
X134493000Y-107061000D01*
X134493000Y-107061000D02*
X133604000Y-107950000D01*
X133604000Y-107950000D02*
X132842000Y-107950000D01*
X121071800Y-99246300D02*
X121071800Y-99989800D01*
X121071800Y-99989800D02*
X122555000Y-101473000D01*
X122555000Y-101473000D02*
X122555000Y-102616000D01*
X122555000Y-102616000D02*
X123317000Y-103378000D01*
X123317000Y-103378000D02*
X129286000Y-103378000D01*
X129286000Y-103378000D02*
X131318000Y-105410000D01*
D45*
X119471800Y-99246300D02*
X119071800Y-99246300D01*
D44*
X132842000Y-111633000D02*
X131699000Y-111633000D01*
X131699000Y-111633000D02*
X130937000Y-110871000D01*
X130937000Y-110871000D02*
X130937000Y-105791000D01*
X130937000Y-105791000D02*
X131318000Y-105410000D01*
X125642000Y-105410000D02*
X126492000Y-105410000D01*
X126492000Y-105410000D02*
X127508000Y-106426000D01*
X127508000Y-106426000D02*
X127508000Y-108712000D01*
X124714000Y-109347000D02*
X124206000Y-109855000D01*
X127508000Y-108712000D02*
X126873000Y-109347000D01*
X124206000Y-109855000D02*
X124206000Y-110744000D01*
X126873000Y-109347000D02*
X124714000Y-109347000D01*
X124206000Y-110744000D02*
X125095000Y-111633000D01*
X125095000Y-111633000D02*
X125642000Y-111633000D01*
X125642000Y-106680000D02*
X126365000Y-106680000D01*
X126365000Y-106680000D02*
X126873000Y-107188000D01*
X126873000Y-107188000D02*
X126873000Y-108458000D01*
X126873000Y-108458000D02*
X126619000Y-108712000D01*
X124714000Y-112903000D02*
X125642000Y-112903000D01*
X126619000Y-108712000D02*
X124460000Y-108712000D01*
X124460000Y-108712000D02*
X123698000Y-109474000D01*
X123698000Y-109474000D02*
X123698000Y-111887000D01*
X123698000Y-111887000D02*
X124714000Y-112903000D01*
X131318000Y-105410000D02*
X132842000Y-105410000D01*
D45*
X114491100Y-101638700D02*
X114706400Y-101854000D01*
X116271800Y-99246300D02*
X115468400Y-100049700D01*
X115468400Y-100049700D02*
X115468400Y-101092000D01*
X115468400Y-101092000D02*
X114706400Y-101854000D01*
X117471800Y-99246300D02*
X117471800Y-100707800D01*
X117471800Y-100707800D02*
X118059200Y-101295200D01*
X118059200Y-101295200D02*
X118059200Y-101887400D01*
X117071800Y-99246300D02*
X117071800Y-101562400D01*
X117071800Y-101562400D02*
X116433600Y-102200600D01*
X114401600Y-89653300D02*
X114401600Y-88747600D01*
X116271800Y-92371300D02*
X116271800Y-92294200D01*
X116271800Y-92294200D02*
X115620800Y-91643200D01*
X116890800Y-88798400D02*
X117034500Y-88942100D01*
X117034500Y-88942100D02*
X117034500Y-89611200D01*
X118668800Y-91261300D02*
X118668800Y-90110500D01*
X119071800Y-92371300D02*
X119071800Y-91664300D01*
X119071800Y-91664300D02*
X118668800Y-91261300D01*
X118668800Y-90110500D02*
X118169500Y-89611200D01*
D44*
X117297200Y-90788958D02*
X117297200Y-90525600D01*
X118271800Y-91763558D02*
X117297200Y-90788958D01*
X118271800Y-92371300D02*
X118271800Y-91763558D01*
X118110000Y-91236800D02*
X118110000Y-90576400D01*
X118364000Y-91490800D02*
X118110000Y-91236800D01*
X118671800Y-92371300D02*
X118671800Y-91798600D01*
X118671800Y-91798600D02*
X118364000Y-91490800D01*
X119471800Y-92371300D02*
X119471800Y-91607100D01*
X118373700Y-88900000D02*
X117767900Y-88294200D01*
X119471800Y-91607100D02*
X119075200Y-91210500D01*
X119075200Y-91210500D02*
X119075200Y-89306400D01*
X119075200Y-89306400D02*
X118668800Y-88900000D01*
X118668800Y-88900000D02*
X118373700Y-88900000D01*
D45*
X118969700Y-88306300D02*
X118969700Y-87064100D01*
X118969700Y-87064100D02*
X119200700Y-86833100D01*
X119091100Y-86833100D02*
X118313200Y-86055200D01*
X119200700Y-86833100D02*
X119091100Y-86833100D01*
D49*
X117767900Y-87099200D02*
X117767900Y-85736900D01*
X118371700Y-85133100D02*
X119200700Y-85133100D01*
X117767900Y-85736900D02*
X118371700Y-85133100D01*
D44*
X120104700Y-88306300D02*
X120104700Y-87972100D01*
X120104700Y-87972100D02*
X120500700Y-87576100D01*
X120500700Y-87576100D02*
X120500700Y-86833100D01*
D45*
X125717000Y-95999000D02*
X126339600Y-96621600D01*
X125656100Y-95999000D02*
X125717000Y-95999000D01*
X126339600Y-96621600D02*
X126339600Y-96812300D01*
X126339600Y-96812300D02*
X127281700Y-97754400D01*
D47*
X126427600Y-85646400D02*
X124411600Y-85646400D01*
X124411600Y-85646400D02*
X123698000Y-86360000D01*
X123698000Y-86360000D02*
X123698000Y-87946900D01*
D44*
X129974100Y-92506800D02*
X129336800Y-92506800D01*
X129336800Y-92506800D02*
X128981200Y-92151200D01*
X128981200Y-92151200D02*
X128981200Y-89966800D01*
X128981200Y-89966800D02*
X129336800Y-89611200D01*
X129336800Y-89611200D02*
X129336800Y-84886800D01*
X129336800Y-84886800D02*
X128981200Y-84531200D01*
X128981200Y-84531200D02*
X128066800Y-84531200D01*
X128066800Y-84531200D02*
X127951600Y-84646400D01*
X127951600Y-84646400D02*
X126427600Y-84646400D01*
X129958500Y-91389200D02*
X129958500Y-84797300D01*
X129958500Y-84797300D02*
X129307600Y-84146400D01*
X129307600Y-84146400D02*
X126427600Y-84146400D01*
D49*
X132346100Y-92506800D02*
X131169100Y-92506800D01*
X132346100Y-91389200D02*
X131153500Y-91389200D01*
X132346100Y-91389200D02*
X132346100Y-91401300D01*
X132346100Y-91401300D02*
X132943600Y-91998800D01*
X132943600Y-91998800D02*
X132943600Y-93014800D01*
X132943600Y-93014800D02*
X133350000Y-93421200D01*
X133350000Y-93421200D02*
X134010400Y-93421200D01*
X134010400Y-93421200D02*
X134416800Y-93827600D01*
X134416800Y-93827600D02*
X134416800Y-96646900D01*
X134416800Y-96646900D02*
X133322300Y-97741400D01*
X132346100Y-92506800D02*
X132346100Y-93105400D01*
X132346100Y-93105400D02*
X133322300Y-94081600D01*
X129156700Y-98704400D02*
X131434300Y-98704400D01*
X131434300Y-98704400D02*
X131447300Y-98691400D01*
X129161300Y-95031600D02*
X131447300Y-95031600D01*
D50*
X121871800Y-92371300D02*
X121871800Y-92033800D01*
X121871800Y-92033800D02*
X121835376Y-91997376D01*
X121835376Y-91997376D02*
X121835376Y-91857556D01*
X121835376Y-91857556D02*
X122936000Y-90756932D01*
X122936000Y-90756932D02*
X122936000Y-85331900D01*
X122936000Y-85331900D02*
X123596400Y-84671500D01*
X122428000Y-83401500D02*
X122631200Y-83604700D01*
X122631200Y-83604700D02*
X122631200Y-90599068D01*
X122631200Y-90599068D02*
X121508224Y-91722044D01*
X121508224Y-91722044D02*
X121508224Y-91997376D01*
X121508224Y-91997376D02*
X121471800Y-92033800D01*
X121471800Y-92033800D02*
X121471800Y-92371300D01*
D45*
X128320800Y-85140800D02*
X128117600Y-85140800D01*
X126427600Y-85146400D02*
X128315200Y-85146400D01*
X128315200Y-85146400D02*
X128320800Y-85140800D01*
D50*
X115377976Y-83125756D02*
X115377976Y-90576400D01*
X116671800Y-92371300D02*
X116671800Y-91870224D01*
X116671800Y-91870224D02*
X115377976Y-90576400D01*
X118042244Y-81472024D02*
X116569044Y-81472024D01*
X118657624Y-80856644D02*
X118042244Y-81472024D01*
X116704556Y-81799176D02*
X115377976Y-83125756D01*
X120861644Y-75807824D02*
X118657624Y-78011844D01*
X118984776Y-80992156D02*
X118177756Y-81799176D01*
X121280025Y-75807824D02*
X120861644Y-75807824D01*
X118984776Y-78147356D02*
X118984776Y-80992156D01*
X121649849Y-75438000D02*
X121280025Y-75807824D01*
X120997156Y-76134976D02*
X118984776Y-78147356D01*
X118657624Y-78011844D02*
X118657624Y-80856644D01*
X118177756Y-81799176D02*
X116704556Y-81799176D01*
X122186100Y-75438000D02*
X121649849Y-75438000D01*
X121280025Y-76134976D02*
X120997156Y-76134976D01*
X116569044Y-81472024D02*
X115050824Y-82990244D01*
X115050824Y-82990244D02*
X115050824Y-92019156D01*
X115050824Y-92019156D02*
X115634300Y-92602632D01*
X115634300Y-92602632D02*
X115634300Y-93008800D01*
X122186100Y-76504800D02*
X121649849Y-76504800D01*
X121649849Y-76504800D02*
X121280025Y-76134976D01*
X122186100Y-77622400D02*
X121835626Y-77972874D01*
X121835626Y-77972874D02*
X120271394Y-77972874D01*
X120271394Y-77972874D02*
X119724424Y-78519844D01*
X122224800Y-78689200D02*
X121835626Y-78300026D01*
X121835626Y-78300026D02*
X120406906Y-78300026D01*
X120406906Y-78300026D02*
X120051576Y-78655356D01*
X118956644Y-82284824D02*
X119724424Y-81517044D01*
X116427258Y-91247976D02*
X115965224Y-90785942D01*
X116292376Y-90650430D02*
X116292376Y-83278156D01*
X116822921Y-91247976D02*
X116427258Y-91247976D01*
X117108224Y-91533279D02*
X116822921Y-91247976D01*
X116562770Y-90920824D02*
X116292376Y-90650430D01*
X120051576Y-81652556D02*
X120051576Y-78655356D01*
X117108224Y-91678625D02*
X117108224Y-91533279D01*
X116823044Y-82284824D02*
X118956644Y-82284824D01*
X119092156Y-82611976D02*
X120051576Y-81652556D01*
X117071800Y-91715049D02*
X117108224Y-91678625D01*
X116958433Y-90920824D02*
X116562770Y-90920824D01*
X115965224Y-83142644D02*
X116823044Y-82284824D01*
X116958556Y-82611976D02*
X119092156Y-82611976D01*
X117071800Y-92371300D02*
X117071800Y-91715049D01*
X119724424Y-81517044D02*
X119724424Y-78519844D01*
X115965224Y-90785942D02*
X115965224Y-83142644D01*
X117471800Y-92371300D02*
X117471800Y-91715049D01*
X116292376Y-83278156D02*
X116958556Y-82611976D01*
X117471800Y-91715049D02*
X117435376Y-91678625D01*
X117435376Y-91678625D02*
X117435376Y-91397767D01*
X117435376Y-91397767D02*
X116958433Y-90920824D01*
D45*
X128270000Y-82146400D02*
X126427600Y-82146400D01*
X128320800Y-80646400D02*
X126427600Y-80646400D01*
X128371600Y-79146400D02*
X126427600Y-79146400D01*
X128422400Y-77646400D02*
X126427600Y-77646400D01*
D50*
X126427600Y-77146400D02*
X125508000Y-77146400D01*
X125508000Y-77146400D02*
X123799600Y-75438000D01*
X123799600Y-75438000D02*
X123381100Y-75438000D01*
X123381100Y-76504800D02*
X123635100Y-76758800D01*
X123635100Y-76758800D02*
X123850400Y-76758800D01*
X123850400Y-76758800D02*
X124358400Y-77266800D01*
X124358400Y-77266800D02*
X124358400Y-77622400D01*
X124358400Y-77622400D02*
X124882400Y-78146400D01*
X124882400Y-78146400D02*
X126427600Y-78146400D01*
X123381100Y-77622400D02*
X123647200Y-77622400D01*
X123647200Y-77622400D02*
X124671200Y-78646400D01*
X124671200Y-78646400D02*
X126427600Y-78646400D01*
X123419800Y-78689200D02*
X123698000Y-78689200D01*
X123698000Y-78689200D02*
X124655200Y-79646400D01*
X124655200Y-79646400D02*
X126427600Y-79646400D01*
X126427600Y-80146400D02*
X123720700Y-80146400D01*
X123720700Y-80146400D02*
X123431900Y-79857600D01*
X123431900Y-80975200D02*
X124358400Y-80975200D01*
X124358400Y-80975200D02*
X124529600Y-81146400D01*
X124529600Y-81146400D02*
X126427600Y-81146400D01*
X121804176Y-80579976D02*
X122199400Y-80975200D01*
X121328506Y-80579976D02*
X121804176Y-80579976D01*
X121049009Y-80859473D02*
X121328506Y-80579976D01*
X121049009Y-83225677D02*
X121049009Y-80859473D01*
X121578466Y-83755134D02*
X121049009Y-83225677D01*
X121270776Y-83447444D02*
X121578466Y-83755134D01*
X122235976Y-84412644D02*
X121270776Y-83447444D01*
X122235976Y-85614956D02*
X122235976Y-84412644D01*
X121931176Y-85919756D02*
X122235976Y-85614956D01*
X121931176Y-90745756D02*
X121931176Y-85919756D01*
X122199400Y-79857600D02*
X122236900Y-79857600D01*
X121804176Y-80252824D02*
X122199400Y-79857600D01*
X121192994Y-80252824D02*
X121804176Y-80252824D01*
X121035376Y-91641556D02*
X121931176Y-90745756D01*
X120721857Y-80723961D02*
X121192994Y-80252824D01*
X121604024Y-90610244D02*
X121604024Y-85784244D01*
X120708224Y-91678625D02*
X120708224Y-91506044D01*
X121908824Y-84548156D02*
X120943624Y-83582956D01*
X120671800Y-92371300D02*
X120671800Y-91715049D01*
X120671800Y-91715049D02*
X120708224Y-91678625D01*
X120708224Y-91506044D02*
X121604024Y-90610244D01*
X121604024Y-85784244D02*
X121908824Y-85479444D01*
X121908824Y-85479444D02*
X121908824Y-84548156D01*
X121071800Y-92371300D02*
X121071800Y-91715049D01*
X120943624Y-83582956D02*
X121347134Y-83986466D01*
X121071800Y-91715049D02*
X121035376Y-91678625D01*
X121347134Y-83986466D02*
X120721857Y-83361189D01*
X121035376Y-91678625D02*
X121035376Y-91641556D01*
X120721857Y-83361189D02*
X120721857Y-80723961D01*
X122199400Y-80975200D02*
X122236900Y-80975200D01*
X122988100Y-81646400D02*
X126427600Y-81646400D01*
X122428000Y-82206500D02*
X122988100Y-81646400D01*
X123596400Y-83476500D02*
X124426500Y-82646400D01*
X124426500Y-82646400D02*
X126427600Y-82646400D01*
D45*
X117262300Y-83632700D02*
X117195600Y-83566000D01*
X118152100Y-83632700D02*
X117262300Y-83632700D01*
X120271800Y-92371300D02*
X120271800Y-90688600D01*
X120271800Y-90688600D02*
X120257100Y-90673900D01*
D44*
X120104700Y-88306300D02*
X120104700Y-88616300D01*
X120104700Y-88616300D02*
X119444300Y-89276700D01*
X119444300Y-89276700D02*
X119444300Y-91071600D01*
X119444300Y-91071600D02*
X119871800Y-91499100D01*
X119871800Y-91499100D02*
X119871800Y-92371300D01*
D45*
X120367400Y-89538900D02*
X121019100Y-88887200D01*
X120257100Y-89538900D02*
X120367400Y-89538900D01*
X119200700Y-86833100D02*
X119200700Y-86619500D01*
X119200700Y-86619500D02*
X120500700Y-85319500D01*
X120500700Y-85319500D02*
X120500700Y-85133100D01*
D49*
X119334000Y-83632700D02*
X119334000Y-84999800D01*
X119334000Y-84999800D02*
X119200700Y-85133100D01*
D45*
X121351100Y-85133100D02*
X121374700Y-85156700D01*
X120500700Y-85133100D02*
X121351100Y-85133100D01*
D44*
X119821000Y-88590000D02*
X120104700Y-88306300D01*
M02*
