G04 #@! TF.GenerationSoftware,KiCad,Pcbnew,8.0.6*
G04 #@! TF.CreationDate,2024-12-19T22:23:14+01:00*
G04 #@! TF.ProjectId,gpu_extension,6770755f-6578-4746-956e-73696f6e2e6b,rev?*
G04 #@! TF.SameCoordinates,Original*
G04 #@! TF.FileFunction,Paste,Top*
G04 #@! TF.FilePolarity,Positive*
%FSLAX46Y46*%
G04 Gerber Fmt 4.6, Leading zero omitted, Abs format (unit mm)*
G04 Created by KiCad (PCBNEW 8.0.6) date 2024-12-19 22:23:14*
%MOMM*%
%LPD*%
G01*
G04 APERTURE LIST*
G04 Aperture macros list*
%AMRoundRect*
0 Rectangle with rounded corners*
0 $1 Rounding radius*
0 $2 $3 $4 $5 $6 $7 $8 $9 X,Y pos of 4 corners*
0 Add a 4 corners polygon primitive as box body*
4,1,4,$2,$3,$4,$5,$6,$7,$8,$9,$2,$3,0*
0 Add four circle primitives for the rounded corners*
1,1,$1+$1,$2,$3*
1,1,$1+$1,$4,$5*
1,1,$1+$1,$6,$7*
1,1,$1+$1,$8,$9*
0 Add four rect primitives between the rounded corners*
20,1,$1+$1,$2,$3,$4,$5,0*
20,1,$1+$1,$4,$5,$6,$7,0*
20,1,$1+$1,$6,$7,$8,$9,0*
20,1,$1+$1,$8,$9,$2,$3,0*%
%AMFreePoly0*
4,1,18,-0.437500,0.050000,-0.433694,0.069134,-0.422855,0.085355,-0.406634,0.096194,-0.387500,0.100000,0.387500,0.100000,0.437500,0.050000,0.437500,-0.050000,0.433694,-0.069134,0.422855,-0.085355,0.406634,-0.096194,0.387500,-0.100000,-0.387500,-0.100000,-0.406634,-0.096194,-0.422855,-0.085355,-0.433694,-0.069134,-0.437500,-0.050000,-0.437500,0.050000,-0.437500,0.050000,$1*%
%AMFreePoly1*
4,1,18,-0.437500,0.050000,-0.433694,0.069134,-0.422855,0.085355,-0.406634,0.096194,-0.387500,0.100000,0.387500,0.100000,0.406634,0.096194,0.422855,0.085355,0.433694,0.069134,0.437500,0.050000,0.437500,-0.050000,0.387500,-0.100000,-0.387500,-0.100000,-0.406634,-0.096194,-0.422855,-0.085355,-0.433694,-0.069134,-0.437500,-0.050000,-0.437500,0.050000,-0.437500,0.050000,$1*%
%AMFreePoly2*
4,1,18,-0.100000,0.387500,-0.050000,0.437500,0.050000,0.437500,0.069134,0.433694,0.085355,0.422855,0.096194,0.406634,0.100000,0.387500,0.100000,-0.387500,0.096194,-0.406634,0.085355,-0.422855,0.069134,-0.433694,0.050000,-0.437500,-0.050000,-0.437500,-0.069134,-0.433694,-0.085355,-0.422855,-0.096194,-0.406634,-0.100000,-0.387500,-0.100000,0.387500,-0.100000,0.387500,$1*%
%AMFreePoly3*
4,1,18,-0.100000,0.387500,-0.096194,0.406634,-0.085355,0.422855,-0.069134,0.433694,-0.050000,0.437500,0.050000,0.437500,0.100000,0.387500,0.100000,-0.387500,0.096194,-0.406634,0.085355,-0.422855,0.069134,-0.433694,0.050000,-0.437500,-0.050000,-0.437500,-0.069134,-0.433694,-0.085355,-0.422855,-0.096194,-0.406634,-0.100000,-0.387500,-0.100000,0.387500,-0.100000,0.387500,$1*%
%AMFreePoly4*
4,1,18,-0.437500,0.050000,-0.433694,0.069134,-0.422855,0.085355,-0.406634,0.096194,-0.387500,0.100000,0.387500,0.100000,0.406634,0.096194,0.422855,0.085355,0.433694,0.069134,0.437500,0.050000,0.437500,-0.050000,0.433694,-0.069134,0.422855,-0.085355,0.406634,-0.096194,0.387500,-0.100000,-0.387500,-0.100000,-0.437500,-0.050000,-0.437500,0.050000,-0.437500,0.050000,$1*%
%AMFreePoly5*
4,1,18,-0.437500,0.050000,-0.387500,0.100000,0.387500,0.100000,0.406634,0.096194,0.422855,0.085355,0.433694,0.069134,0.437500,0.050000,0.437500,-0.050000,0.433694,-0.069134,0.422855,-0.085355,0.406634,-0.096194,0.387500,-0.100000,-0.387500,-0.100000,-0.406634,-0.096194,-0.422855,-0.085355,-0.433694,-0.069134,-0.437500,-0.050000,-0.437500,0.050000,-0.437500,0.050000,$1*%
%AMFreePoly6*
4,1,18,-0.100000,0.387500,-0.096194,0.406634,-0.085355,0.422855,-0.069134,0.433694,-0.050000,0.437500,0.050000,0.437500,0.069134,0.433694,0.085355,0.422855,0.096194,0.406634,0.100000,0.387500,0.100000,-0.387500,0.050000,-0.437500,-0.050000,-0.437500,-0.069134,-0.433694,-0.085355,-0.422855,-0.096194,-0.406634,-0.100000,-0.387500,-0.100000,0.387500,-0.100000,0.387500,$1*%
%AMFreePoly7*
4,1,18,-0.100000,0.387500,-0.096194,0.406634,-0.085355,0.422855,-0.069134,0.433694,-0.050000,0.437500,0.050000,0.437500,0.069134,0.433694,0.085355,0.422855,0.096194,0.406634,0.100000,0.387500,0.100000,-0.387500,0.096194,-0.406634,0.085355,-0.422855,0.069134,-0.433694,0.050000,-0.437500,-0.050000,-0.437500,-0.100000,-0.387500,-0.100000,0.387500,-0.100000,0.387500,$1*%
G04 Aperture macros list end*
%ADD10RoundRect,0.160000X0.160000X-0.197500X0.160000X0.197500X-0.160000X0.197500X-0.160000X-0.197500X0*%
%ADD11RoundRect,0.160000X-0.197500X-0.160000X0.197500X-0.160000X0.197500X0.160000X-0.197500X0.160000X0*%
%ADD12R,2.600000X0.300000*%
%ADD13RoundRect,0.150000X0.587500X0.150000X-0.587500X0.150000X-0.587500X-0.150000X0.587500X-0.150000X0*%
%ADD14RoundRect,0.150000X-0.587500X-0.150000X0.587500X-0.150000X0.587500X0.150000X-0.587500X0.150000X0*%
%ADD15RoundRect,0.150000X0.650000X0.150000X-0.650000X0.150000X-0.650000X-0.150000X0.650000X-0.150000X0*%
%ADD16RoundRect,0.155000X-0.155000X0.212500X-0.155000X-0.212500X0.155000X-0.212500X0.155000X0.212500X0*%
%ADD17RoundRect,0.155000X0.155000X-0.212500X0.155000X0.212500X-0.155000X0.212500X-0.155000X-0.212500X0*%
%ADD18RoundRect,0.155000X0.212500X0.155000X-0.212500X0.155000X-0.212500X-0.155000X0.212500X-0.155000X0*%
%ADD19RoundRect,0.250000X0.450000X-0.325000X0.450000X0.325000X-0.450000X0.325000X-0.450000X-0.325000X0*%
%ADD20RoundRect,0.155000X-0.212500X-0.155000X0.212500X-0.155000X0.212500X0.155000X-0.212500X0.155000X0*%
%ADD21RoundRect,0.162500X0.162500X-0.617500X0.162500X0.617500X-0.162500X0.617500X-0.162500X-0.617500X0*%
%ADD22R,1.000000X1.200000*%
%ADD23RoundRect,0.250000X-0.275000X-0.350000X0.275000X-0.350000X0.275000X0.350000X-0.275000X0.350000X0*%
%ADD24RoundRect,0.160000X0.197500X0.160000X-0.197500X0.160000X-0.197500X-0.160000X0.197500X-0.160000X0*%
%ADD25RoundRect,0.160000X-0.160000X0.197500X-0.160000X-0.197500X0.160000X-0.197500X0.160000X0.197500X0*%
%ADD26RoundRect,0.250000X0.350000X0.350000X-0.350000X0.350000X-0.350000X-0.350000X0.350000X-0.350000X0*%
%ADD27FreePoly0,180.000000*%
%ADD28RoundRect,0.050000X0.387500X0.050000X-0.387500X0.050000X-0.387500X-0.050000X0.387500X-0.050000X0*%
%ADD29FreePoly1,180.000000*%
%ADD30FreePoly2,180.000000*%
%ADD31RoundRect,0.050000X0.050000X0.387500X-0.050000X0.387500X-0.050000X-0.387500X0.050000X-0.387500X0*%
%ADD32FreePoly3,180.000000*%
%ADD33FreePoly4,180.000000*%
%ADD34FreePoly5,180.000000*%
%ADD35FreePoly6,180.000000*%
%ADD36FreePoly7,180.000000*%
G04 APERTURE END LIST*
D10*
X123698000Y-89141900D03*
X123698000Y-87946900D03*
X123596400Y-84671500D03*
X123596400Y-83476500D03*
D11*
X122236900Y-80975200D03*
X123431900Y-80975200D03*
X122224800Y-78689200D03*
X123419800Y-78689200D03*
D12*
X126427600Y-86146400D03*
X126427600Y-85646400D03*
X126427600Y-85146400D03*
X126427600Y-84646400D03*
X126427600Y-84146400D03*
X126427600Y-83646400D03*
X126427600Y-83146400D03*
X126427600Y-82646400D03*
X126427600Y-82146400D03*
X126427600Y-81646400D03*
X126427600Y-81146400D03*
X126427600Y-80646400D03*
X126427600Y-80146400D03*
X126427600Y-79646400D03*
X126427600Y-79146400D03*
X126427600Y-78646400D03*
X126427600Y-78146400D03*
X126427600Y-77646400D03*
X126427600Y-77146400D03*
D11*
X132346100Y-92506800D03*
X133541100Y-92506800D03*
X132346100Y-91389200D03*
X133541100Y-91389200D03*
D10*
X125656100Y-97194000D03*
X125656100Y-95999000D03*
D11*
X125730000Y-92633800D03*
X126925000Y-92633800D03*
D13*
X133322300Y-99641400D03*
X133322300Y-97741400D03*
X131447300Y-98691400D03*
X131447300Y-95031600D03*
X133322300Y-94081600D03*
X133322300Y-95981600D03*
D14*
X127281700Y-97754400D03*
X127281700Y-99654400D03*
X129156700Y-98704400D03*
X127286300Y-94081600D03*
X127286300Y-95981600D03*
X129161300Y-95031600D03*
D15*
X132842000Y-107950000D03*
X132842000Y-106680000D03*
X132842000Y-105410000D03*
X132842000Y-104140000D03*
X125642000Y-104140000D03*
X125642000Y-105410000D03*
X125642000Y-106680000D03*
X125642000Y-107950000D03*
D16*
X112826800Y-98010600D03*
X112826800Y-96875600D03*
D17*
X114401600Y-90788300D03*
X114401600Y-89653300D03*
D18*
X118169500Y-89611200D03*
X117034500Y-89611200D03*
D11*
X122236900Y-79857600D03*
X123431900Y-79857600D03*
D18*
X119287100Y-83632700D03*
X118152100Y-83632700D03*
D19*
X116433600Y-104250600D03*
X116433600Y-102200600D03*
D16*
X119430800Y-101887400D03*
X119430800Y-103022400D03*
D11*
X122186100Y-77622400D03*
X123381100Y-77622400D03*
X122186100Y-76504800D03*
X123381100Y-76504800D03*
D20*
X124654500Y-101473000D03*
X125789500Y-101473000D03*
D18*
X120104700Y-88306300D03*
X118969700Y-88306300D03*
D10*
X122428000Y-83401500D03*
X122428000Y-82206500D03*
D16*
X124333000Y-96714500D03*
X124333000Y-97849500D03*
X114706400Y-101854000D03*
X114706400Y-102989000D03*
D21*
X117587600Y-110910200D03*
X118537600Y-110910200D03*
X119487600Y-110910200D03*
X119487600Y-108210200D03*
X117587600Y-108210200D03*
D18*
X122893900Y-108000800D03*
X121758900Y-108000800D03*
D16*
X118059200Y-101887400D03*
X118059200Y-103022400D03*
D11*
X122186100Y-75438000D03*
X123381100Y-75438000D03*
D22*
X120500700Y-86833100D03*
X120500700Y-85133100D03*
X119200700Y-85133100D03*
X119200700Y-86833100D03*
D11*
X129958500Y-91389200D03*
X131153500Y-91389200D03*
D16*
X117195600Y-112961800D03*
X117195600Y-114096800D03*
D11*
X129974100Y-92506800D03*
X131169100Y-92506800D03*
D17*
X112826800Y-95453200D03*
X112826800Y-94318200D03*
X120257100Y-90673900D03*
X120257100Y-89538900D03*
D23*
X113099200Y-107950000D03*
X115399200Y-107950000D03*
D16*
X120396000Y-102937500D03*
X120396000Y-104072500D03*
X124333000Y-94301500D03*
X124333000Y-95436500D03*
D18*
X113326100Y-100584000D03*
X114461100Y-100584000D03*
D24*
X122263500Y-113436400D03*
X121068500Y-113436400D03*
D18*
X123613800Y-114503200D03*
X122478800Y-114503200D03*
D10*
X113538000Y-103416700D03*
X113538000Y-102221700D03*
D11*
X127672500Y-101473000D03*
X128867500Y-101473000D03*
D25*
X117767900Y-87099200D03*
X117767900Y-88294200D03*
D24*
X132309800Y-101447600D03*
X131114800Y-101447600D03*
D18*
X118725100Y-106210200D03*
X117590100Y-106210200D03*
D15*
X132842000Y-114173000D03*
X132842000Y-112903000D03*
X132842000Y-111633000D03*
X132842000Y-110363000D03*
X125642000Y-110363000D03*
X125642000Y-111633000D03*
X125642000Y-112903000D03*
X125642000Y-114173000D03*
D26*
X119771800Y-96508800D03*
X119771800Y-95108800D03*
X118371800Y-96508800D03*
X118371800Y-95108800D03*
D27*
X122509300Y-98608800D03*
D28*
X122509300Y-98208800D03*
X122509300Y-97808800D03*
X122509300Y-97408800D03*
X122509300Y-97008800D03*
X122509300Y-96608800D03*
X122509300Y-96208800D03*
X122509300Y-95808800D03*
X122509300Y-95408800D03*
X122509300Y-95008800D03*
X122509300Y-94608800D03*
X122509300Y-94208800D03*
X122509300Y-93808800D03*
X122509300Y-93408800D03*
D29*
X122509300Y-93008800D03*
D30*
X121871800Y-92371300D03*
D31*
X121471800Y-92371300D03*
X121071800Y-92371300D03*
X120671800Y-92371300D03*
X120271800Y-92371300D03*
X119871800Y-92371300D03*
X119471800Y-92371300D03*
X119071800Y-92371300D03*
X118671800Y-92371300D03*
X118271800Y-92371300D03*
X117871800Y-92371300D03*
X117471800Y-92371300D03*
X117071800Y-92371300D03*
X116671800Y-92371300D03*
D32*
X116271800Y-92371300D03*
D33*
X115634300Y-93008800D03*
D28*
X115634300Y-93408800D03*
X115634300Y-93808800D03*
X115634300Y-94208800D03*
X115634300Y-94608800D03*
X115634300Y-95008800D03*
X115634300Y-95408800D03*
X115634300Y-95808800D03*
X115634300Y-96208800D03*
X115634300Y-96608800D03*
X115634300Y-97008800D03*
X115634300Y-97408800D03*
X115634300Y-97808800D03*
X115634300Y-98208800D03*
D34*
X115634300Y-98608800D03*
D35*
X116271800Y-99246300D03*
D31*
X116671800Y-99246300D03*
X117071800Y-99246300D03*
X117471800Y-99246300D03*
X117871800Y-99246300D03*
X118271800Y-99246300D03*
X118671800Y-99246300D03*
X119071800Y-99246300D03*
X119471800Y-99246300D03*
X119871800Y-99246300D03*
X120271800Y-99246300D03*
X120671800Y-99246300D03*
X121071800Y-99246300D03*
X121471800Y-99246300D03*
D36*
X121871800Y-99246300D03*
M02*
