G04 #@! TF.GenerationSoftware,KiCad,Pcbnew,8.0.6*
G04 #@! TF.CreationDate,2024-12-19T22:23:14+01:00*
G04 #@! TF.ProjectId,gpu_extension,6770755f-6578-4746-956e-73696f6e2e6b,rev?*
G04 #@! TF.SameCoordinates,Original*
G04 #@! TF.FileFunction,Legend,Top*
G04 #@! TF.FilePolarity,Positive*
%FSLAX46Y46*%
G04 Gerber Fmt 4.6, Leading zero omitted, Abs format (unit mm)*
G04 Created by KiCad (PCBNEW 8.0.6) date 2024-12-19 22:23:14*
%MOMM*%
%LPD*%
G01*
G04 APERTURE LIST*
G04 Aperture macros list*
%AMRoundRect*
0 Rectangle with rounded corners*
0 $1 Rounding radius*
0 $2 $3 $4 $5 $6 $7 $8 $9 X,Y pos of 4 corners*
0 Add a 4 corners polygon primitive as box body*
4,1,4,$2,$3,$4,$5,$6,$7,$8,$9,$2,$3,0*
0 Add four circle primitives for the rounded corners*
1,1,$1+$1,$2,$3*
1,1,$1+$1,$4,$5*
1,1,$1+$1,$6,$7*
1,1,$1+$1,$8,$9*
0 Add four rect primitives between the rounded corners*
20,1,$1+$1,$2,$3,$4,$5,0*
20,1,$1+$1,$4,$5,$6,$7,0*
20,1,$1+$1,$6,$7,$8,$9,0*
20,1,$1+$1,$8,$9,$2,$3,0*%
%AMFreePoly0*
4,1,18,-0.437500,0.050000,-0.433694,0.069134,-0.422855,0.085355,-0.406634,0.096194,-0.387500,0.100000,0.387500,0.100000,0.437500,0.050000,0.437500,-0.050000,0.433694,-0.069134,0.422855,-0.085355,0.406634,-0.096194,0.387500,-0.100000,-0.387500,-0.100000,-0.406634,-0.096194,-0.422855,-0.085355,-0.433694,-0.069134,-0.437500,-0.050000,-0.437500,0.050000,-0.437500,0.050000,$1*%
%AMFreePoly1*
4,1,18,-0.437500,0.050000,-0.433694,0.069134,-0.422855,0.085355,-0.406634,0.096194,-0.387500,0.100000,0.387500,0.100000,0.406634,0.096194,0.422855,0.085355,0.433694,0.069134,0.437500,0.050000,0.437500,-0.050000,0.387500,-0.100000,-0.387500,-0.100000,-0.406634,-0.096194,-0.422855,-0.085355,-0.433694,-0.069134,-0.437500,-0.050000,-0.437500,0.050000,-0.437500,0.050000,$1*%
%AMFreePoly2*
4,1,18,-0.100000,0.387500,-0.050000,0.437500,0.050000,0.437500,0.069134,0.433694,0.085355,0.422855,0.096194,0.406634,0.100000,0.387500,0.100000,-0.387500,0.096194,-0.406634,0.085355,-0.422855,0.069134,-0.433694,0.050000,-0.437500,-0.050000,-0.437500,-0.069134,-0.433694,-0.085355,-0.422855,-0.096194,-0.406634,-0.100000,-0.387500,-0.100000,0.387500,-0.100000,0.387500,$1*%
%AMFreePoly3*
4,1,18,-0.100000,0.387500,-0.096194,0.406634,-0.085355,0.422855,-0.069134,0.433694,-0.050000,0.437500,0.050000,0.437500,0.100000,0.387500,0.100000,-0.387500,0.096194,-0.406634,0.085355,-0.422855,0.069134,-0.433694,0.050000,-0.437500,-0.050000,-0.437500,-0.069134,-0.433694,-0.085355,-0.422855,-0.096194,-0.406634,-0.100000,-0.387500,-0.100000,0.387500,-0.100000,0.387500,$1*%
%AMFreePoly4*
4,1,18,-0.437500,0.050000,-0.433694,0.069134,-0.422855,0.085355,-0.406634,0.096194,-0.387500,0.100000,0.387500,0.100000,0.406634,0.096194,0.422855,0.085355,0.433694,0.069134,0.437500,0.050000,0.437500,-0.050000,0.433694,-0.069134,0.422855,-0.085355,0.406634,-0.096194,0.387500,-0.100000,-0.387500,-0.100000,-0.437500,-0.050000,-0.437500,0.050000,-0.437500,0.050000,$1*%
%AMFreePoly5*
4,1,18,-0.437500,0.050000,-0.387500,0.100000,0.387500,0.100000,0.406634,0.096194,0.422855,0.085355,0.433694,0.069134,0.437500,0.050000,0.437500,-0.050000,0.433694,-0.069134,0.422855,-0.085355,0.406634,-0.096194,0.387500,-0.100000,-0.387500,-0.100000,-0.406634,-0.096194,-0.422855,-0.085355,-0.433694,-0.069134,-0.437500,-0.050000,-0.437500,0.050000,-0.437500,0.050000,$1*%
%AMFreePoly6*
4,1,18,-0.100000,0.387500,-0.096194,0.406634,-0.085355,0.422855,-0.069134,0.433694,-0.050000,0.437500,0.050000,0.437500,0.069134,0.433694,0.085355,0.422855,0.096194,0.406634,0.100000,0.387500,0.100000,-0.387500,0.050000,-0.437500,-0.050000,-0.437500,-0.069134,-0.433694,-0.085355,-0.422855,-0.096194,-0.406634,-0.100000,-0.387500,-0.100000,0.387500,-0.100000,0.387500,$1*%
%AMFreePoly7*
4,1,18,-0.100000,0.387500,-0.096194,0.406634,-0.085355,0.422855,-0.069134,0.433694,-0.050000,0.437500,0.050000,0.437500,0.069134,0.433694,0.085355,0.422855,0.096194,0.406634,0.100000,0.387500,0.100000,-0.387500,0.096194,-0.406634,0.085355,-0.422855,0.069134,-0.433694,0.050000,-0.437500,-0.050000,-0.437500,-0.100000,-0.387500,-0.100000,0.387500,-0.100000,0.387500,$1*%
G04 Aperture macros list end*
%ADD10C,0.152400*%
%ADD11C,0.203200*%
%ADD12C,0.120000*%
%ADD13C,0.200000*%
%ADD14RoundRect,0.160000X0.160000X-0.197500X0.160000X0.197500X-0.160000X0.197500X-0.160000X-0.197500X0*%
%ADD15RoundRect,0.160000X-0.197500X-0.160000X0.197500X-0.160000X0.197500X0.160000X-0.197500X0.160000X0*%
%ADD16O,2.300000X1.500000*%
%ADD17O,3.300000X1.500000*%
%ADD18R,2.600000X0.300000*%
%ADD19RoundRect,0.150000X0.587500X0.150000X-0.587500X0.150000X-0.587500X-0.150000X0.587500X-0.150000X0*%
%ADD20RoundRect,0.150000X-0.587500X-0.150000X0.587500X-0.150000X0.587500X0.150000X-0.587500X0.150000X0*%
%ADD21RoundRect,0.150000X0.650000X0.150000X-0.650000X0.150000X-0.650000X-0.150000X0.650000X-0.150000X0*%
%ADD22RoundRect,0.155000X-0.155000X0.212500X-0.155000X-0.212500X0.155000X-0.212500X0.155000X0.212500X0*%
%ADD23RoundRect,0.155000X0.155000X-0.212500X0.155000X0.212500X-0.155000X0.212500X-0.155000X-0.212500X0*%
%ADD24RoundRect,0.155000X0.212500X0.155000X-0.212500X0.155000X-0.212500X-0.155000X0.212500X-0.155000X0*%
%ADD25RoundRect,0.250000X0.450000X-0.325000X0.450000X0.325000X-0.450000X0.325000X-0.450000X-0.325000X0*%
%ADD26RoundRect,0.155000X-0.212500X-0.155000X0.212500X-0.155000X0.212500X0.155000X-0.212500X0.155000X0*%
%ADD27RoundRect,0.162500X0.162500X-0.617500X0.162500X0.617500X-0.162500X0.617500X-0.162500X-0.617500X0*%
%ADD28R,1.000000X1.200000*%
%ADD29RoundRect,0.250000X-0.275000X-0.350000X0.275000X-0.350000X0.275000X0.350000X-0.275000X0.350000X0*%
%ADD30R,1.700000X1.700000*%
%ADD31O,1.700000X1.700000*%
%ADD32RoundRect,0.160000X0.197500X0.160000X-0.197500X0.160000X-0.197500X-0.160000X0.197500X-0.160000X0*%
%ADD33RoundRect,0.160000X-0.160000X0.197500X-0.160000X-0.197500X0.160000X-0.197500X0.160000X0.197500X0*%
%ADD34FreePoly0,180.000000*%
%ADD35RoundRect,0.050000X0.387500X0.050000X-0.387500X0.050000X-0.387500X-0.050000X0.387500X-0.050000X0*%
%ADD36FreePoly1,180.000000*%
%ADD37FreePoly2,180.000000*%
%ADD38RoundRect,0.050000X0.050000X0.387500X-0.050000X0.387500X-0.050000X-0.387500X0.050000X-0.387500X0*%
%ADD39FreePoly3,180.000000*%
%ADD40FreePoly4,180.000000*%
%ADD41FreePoly5,180.000000*%
%ADD42FreePoly6,180.000000*%
%ADD43FreePoly7,180.000000*%
%ADD44RoundRect,0.153000X-1.547000X1.547000X-1.547000X-1.547000X1.547000X-1.547000X1.547000X1.547000X0*%
G04 APERTURE END LIST*
D10*
X124160095Y-91813742D02*
X123676286Y-92152409D01*
X124160095Y-92394314D02*
X123144095Y-92394314D01*
X123144095Y-92394314D02*
X123144095Y-92007266D01*
X123144095Y-92007266D02*
X123192476Y-91910504D01*
X123192476Y-91910504D02*
X123240857Y-91862123D01*
X123240857Y-91862123D02*
X123337619Y-91813742D01*
X123337619Y-91813742D02*
X123482762Y-91813742D01*
X123482762Y-91813742D02*
X123579524Y-91862123D01*
X123579524Y-91862123D02*
X123627905Y-91910504D01*
X123627905Y-91910504D02*
X123676286Y-92007266D01*
X123676286Y-92007266D02*
X123676286Y-92394314D01*
X124160095Y-90846123D02*
X124160095Y-91426695D01*
X124160095Y-91136409D02*
X123144095Y-91136409D01*
X123144095Y-91136409D02*
X123289238Y-91233171D01*
X123289238Y-91233171D02*
X123386000Y-91329933D01*
X123386000Y-91329933D02*
X123434381Y-91426695D01*
X123144095Y-89926885D02*
X123144095Y-90410695D01*
X123144095Y-90410695D02*
X123627905Y-90459076D01*
X123627905Y-90459076D02*
X123579524Y-90410695D01*
X123579524Y-90410695D02*
X123531143Y-90313933D01*
X123531143Y-90313933D02*
X123531143Y-90072028D01*
X123531143Y-90072028D02*
X123579524Y-89975266D01*
X123579524Y-89975266D02*
X123627905Y-89926885D01*
X123627905Y-89926885D02*
X123724667Y-89878504D01*
X123724667Y-89878504D02*
X123966572Y-89878504D01*
X123966572Y-89878504D02*
X124063334Y-89926885D01*
X124063334Y-89926885D02*
X124111715Y-89975266D01*
X124111715Y-89975266D02*
X124160095Y-90072028D01*
X124160095Y-90072028D02*
X124160095Y-90313933D01*
X124160095Y-90313933D02*
X124111715Y-90410695D01*
X124111715Y-90410695D02*
X124063334Y-90459076D01*
X119539657Y-81742095D02*
X119200990Y-81258286D01*
X118959085Y-81742095D02*
X118959085Y-80726095D01*
X118959085Y-80726095D02*
X119346133Y-80726095D01*
X119346133Y-80726095D02*
X119442895Y-80774476D01*
X119442895Y-80774476D02*
X119491276Y-80822857D01*
X119491276Y-80822857D02*
X119539657Y-80919619D01*
X119539657Y-80919619D02*
X119539657Y-81064762D01*
X119539657Y-81064762D02*
X119491276Y-81161524D01*
X119491276Y-81161524D02*
X119442895Y-81209905D01*
X119442895Y-81209905D02*
X119346133Y-81258286D01*
X119346133Y-81258286D02*
X118959085Y-81258286D01*
X120507276Y-81742095D02*
X119926704Y-81742095D01*
X120216990Y-81742095D02*
X120216990Y-80726095D01*
X120216990Y-80726095D02*
X120120228Y-80871238D01*
X120120228Y-80871238D02*
X120023466Y-80968000D01*
X120023466Y-80968000D02*
X119926704Y-81016381D01*
X120845942Y-80726095D02*
X121474895Y-80726095D01*
X121474895Y-80726095D02*
X121136228Y-81113143D01*
X121136228Y-81113143D02*
X121281371Y-81113143D01*
X121281371Y-81113143D02*
X121378133Y-81161524D01*
X121378133Y-81161524D02*
X121426514Y-81209905D01*
X121426514Y-81209905D02*
X121474895Y-81306667D01*
X121474895Y-81306667D02*
X121474895Y-81548572D01*
X121474895Y-81548572D02*
X121426514Y-81645334D01*
X121426514Y-81645334D02*
X121378133Y-81693715D01*
X121378133Y-81693715D02*
X121281371Y-81742095D01*
X121281371Y-81742095D02*
X120991085Y-81742095D01*
X120991085Y-81742095D02*
X120894323Y-81693715D01*
X120894323Y-81693715D02*
X120845942Y-81645334D01*
X119539657Y-79202095D02*
X119200990Y-78718286D01*
X118959085Y-79202095D02*
X118959085Y-78186095D01*
X118959085Y-78186095D02*
X119346133Y-78186095D01*
X119346133Y-78186095D02*
X119442895Y-78234476D01*
X119442895Y-78234476D02*
X119491276Y-78282857D01*
X119491276Y-78282857D02*
X119539657Y-78379619D01*
X119539657Y-78379619D02*
X119539657Y-78524762D01*
X119539657Y-78524762D02*
X119491276Y-78621524D01*
X119491276Y-78621524D02*
X119442895Y-78669905D01*
X119442895Y-78669905D02*
X119346133Y-78718286D01*
X119346133Y-78718286D02*
X118959085Y-78718286D01*
X120507276Y-79202095D02*
X119926704Y-79202095D01*
X120216990Y-79202095D02*
X120216990Y-78186095D01*
X120216990Y-78186095D02*
X120120228Y-78331238D01*
X120120228Y-78331238D02*
X120023466Y-78428000D01*
X120023466Y-78428000D02*
X119926704Y-78476381D01*
X120894323Y-78282857D02*
X120942704Y-78234476D01*
X120942704Y-78234476D02*
X121039466Y-78186095D01*
X121039466Y-78186095D02*
X121281371Y-78186095D01*
X121281371Y-78186095D02*
X121378133Y-78234476D01*
X121378133Y-78234476D02*
X121426514Y-78282857D01*
X121426514Y-78282857D02*
X121474895Y-78379619D01*
X121474895Y-78379619D02*
X121474895Y-78476381D01*
X121474895Y-78476381D02*
X121426514Y-78621524D01*
X121426514Y-78621524D02*
X120845942Y-79202095D01*
X120845942Y-79202095D02*
X121474895Y-79202095D01*
X126090495Y-98873732D02*
X125606686Y-99212399D01*
X126090495Y-99454304D02*
X125074495Y-99454304D01*
X125074495Y-99454304D02*
X125074495Y-99067256D01*
X125074495Y-99067256D02*
X125122876Y-98970494D01*
X125122876Y-98970494D02*
X125171257Y-98922113D01*
X125171257Y-98922113D02*
X125268019Y-98873732D01*
X125268019Y-98873732D02*
X125413162Y-98873732D01*
X125413162Y-98873732D02*
X125509924Y-98922113D01*
X125509924Y-98922113D02*
X125558305Y-98970494D01*
X125558305Y-98970494D02*
X125606686Y-99067256D01*
X125606686Y-99067256D02*
X125606686Y-99454304D01*
X125171257Y-98486685D02*
X125122876Y-98438304D01*
X125122876Y-98438304D02*
X125074495Y-98341542D01*
X125074495Y-98341542D02*
X125074495Y-98099637D01*
X125074495Y-98099637D02*
X125122876Y-98002875D01*
X125122876Y-98002875D02*
X125171257Y-97954494D01*
X125171257Y-97954494D02*
X125268019Y-97906113D01*
X125268019Y-97906113D02*
X125364781Y-97906113D01*
X125364781Y-97906113D02*
X125509924Y-97954494D01*
X125509924Y-97954494D02*
X126090495Y-98535066D01*
X126090495Y-98535066D02*
X126090495Y-97906113D01*
X126170267Y-92003695D02*
X125831600Y-91519886D01*
X125589695Y-92003695D02*
X125589695Y-90987695D01*
X125589695Y-90987695D02*
X125976743Y-90987695D01*
X125976743Y-90987695D02*
X126073505Y-91036076D01*
X126073505Y-91036076D02*
X126121886Y-91084457D01*
X126121886Y-91084457D02*
X126170267Y-91181219D01*
X126170267Y-91181219D02*
X126170267Y-91326362D01*
X126170267Y-91326362D02*
X126121886Y-91423124D01*
X126121886Y-91423124D02*
X126073505Y-91471505D01*
X126073505Y-91471505D02*
X125976743Y-91519886D01*
X125976743Y-91519886D02*
X125589695Y-91519886D01*
X127137886Y-92003695D02*
X126557314Y-92003695D01*
X126847600Y-92003695D02*
X126847600Y-90987695D01*
X126847600Y-90987695D02*
X126750838Y-91132838D01*
X126750838Y-91132838D02*
X126654076Y-91229600D01*
X126654076Y-91229600D02*
X126557314Y-91277981D01*
X122898504Y-102798695D02*
X122898504Y-103621172D01*
X122898504Y-103621172D02*
X122946885Y-103717934D01*
X122946885Y-103717934D02*
X122995266Y-103766315D01*
X122995266Y-103766315D02*
X123092028Y-103814695D01*
X123092028Y-103814695D02*
X123285552Y-103814695D01*
X123285552Y-103814695D02*
X123382314Y-103766315D01*
X123382314Y-103766315D02*
X123430695Y-103717934D01*
X123430695Y-103717934D02*
X123479076Y-103621172D01*
X123479076Y-103621172D02*
X123479076Y-102798695D01*
X124495076Y-103814695D02*
X123914504Y-103814695D01*
X124204790Y-103814695D02*
X124204790Y-102798695D01*
X124204790Y-102798695D02*
X124108028Y-102943838D01*
X124108028Y-102943838D02*
X124011266Y-103040600D01*
X124011266Y-103040600D02*
X123914504Y-103088981D01*
X112633334Y-99635732D02*
X112681715Y-99684113D01*
X112681715Y-99684113D02*
X112730095Y-99829256D01*
X112730095Y-99829256D02*
X112730095Y-99926018D01*
X112730095Y-99926018D02*
X112681715Y-100071161D01*
X112681715Y-100071161D02*
X112584953Y-100167923D01*
X112584953Y-100167923D02*
X112488191Y-100216304D01*
X112488191Y-100216304D02*
X112294667Y-100264685D01*
X112294667Y-100264685D02*
X112149524Y-100264685D01*
X112149524Y-100264685D02*
X111956000Y-100216304D01*
X111956000Y-100216304D02*
X111859238Y-100167923D01*
X111859238Y-100167923D02*
X111762476Y-100071161D01*
X111762476Y-100071161D02*
X111714095Y-99926018D01*
X111714095Y-99926018D02*
X111714095Y-99829256D01*
X111714095Y-99829256D02*
X111762476Y-99684113D01*
X111762476Y-99684113D02*
X111810857Y-99635732D01*
X111714095Y-98764875D02*
X111714095Y-98958399D01*
X111714095Y-98958399D02*
X111762476Y-99055161D01*
X111762476Y-99055161D02*
X111810857Y-99103542D01*
X111810857Y-99103542D02*
X111956000Y-99200304D01*
X111956000Y-99200304D02*
X112149524Y-99248685D01*
X112149524Y-99248685D02*
X112536572Y-99248685D01*
X112536572Y-99248685D02*
X112633334Y-99200304D01*
X112633334Y-99200304D02*
X112681715Y-99151923D01*
X112681715Y-99151923D02*
X112730095Y-99055161D01*
X112730095Y-99055161D02*
X112730095Y-98861637D01*
X112730095Y-98861637D02*
X112681715Y-98764875D01*
X112681715Y-98764875D02*
X112633334Y-98716494D01*
X112633334Y-98716494D02*
X112536572Y-98668113D01*
X112536572Y-98668113D02*
X112294667Y-98668113D01*
X112294667Y-98668113D02*
X112197905Y-98716494D01*
X112197905Y-98716494D02*
X112149524Y-98764875D01*
X112149524Y-98764875D02*
X112101143Y-98861637D01*
X112101143Y-98861637D02*
X112101143Y-99055161D01*
X112101143Y-99055161D02*
X112149524Y-99151923D01*
X112149524Y-99151923D02*
X112197905Y-99200304D01*
X112197905Y-99200304D02*
X112294667Y-99248685D01*
X113547734Y-90619942D02*
X113596115Y-90668323D01*
X113596115Y-90668323D02*
X113644495Y-90813466D01*
X113644495Y-90813466D02*
X113644495Y-90910228D01*
X113644495Y-90910228D02*
X113596115Y-91055371D01*
X113596115Y-91055371D02*
X113499353Y-91152133D01*
X113499353Y-91152133D02*
X113402591Y-91200514D01*
X113402591Y-91200514D02*
X113209067Y-91248895D01*
X113209067Y-91248895D02*
X113063924Y-91248895D01*
X113063924Y-91248895D02*
X112870400Y-91200514D01*
X112870400Y-91200514D02*
X112773638Y-91152133D01*
X112773638Y-91152133D02*
X112676876Y-91055371D01*
X112676876Y-91055371D02*
X112628495Y-90910228D01*
X112628495Y-90910228D02*
X112628495Y-90813466D01*
X112628495Y-90813466D02*
X112676876Y-90668323D01*
X112676876Y-90668323D02*
X112725257Y-90619942D01*
X113644495Y-89652323D02*
X113644495Y-90232895D01*
X113644495Y-89942609D02*
X112628495Y-89942609D01*
X112628495Y-89942609D02*
X112773638Y-90039371D01*
X112773638Y-90039371D02*
X112870400Y-90136133D01*
X112870400Y-90136133D02*
X112918781Y-90232895D01*
X112628495Y-89313657D02*
X112628495Y-88684704D01*
X112628495Y-88684704D02*
X113015543Y-89023371D01*
X113015543Y-89023371D02*
X113015543Y-88878228D01*
X113015543Y-88878228D02*
X113063924Y-88781466D01*
X113063924Y-88781466D02*
X113112305Y-88733085D01*
X113112305Y-88733085D02*
X113209067Y-88684704D01*
X113209067Y-88684704D02*
X113450972Y-88684704D01*
X113450972Y-88684704D02*
X113547734Y-88733085D01*
X113547734Y-88733085D02*
X113596115Y-88781466D01*
X113596115Y-88781466D02*
X113644495Y-88878228D01*
X113644495Y-88878228D02*
X113644495Y-89168514D01*
X113644495Y-89168514D02*
X113596115Y-89265276D01*
X113596115Y-89265276D02*
X113547734Y-89313657D01*
X115857867Y-91246534D02*
X115809486Y-91294915D01*
X115809486Y-91294915D02*
X115664343Y-91343295D01*
X115664343Y-91343295D02*
X115567581Y-91343295D01*
X115567581Y-91343295D02*
X115422438Y-91294915D01*
X115422438Y-91294915D02*
X115325676Y-91198153D01*
X115325676Y-91198153D02*
X115277295Y-91101391D01*
X115277295Y-91101391D02*
X115228914Y-90907867D01*
X115228914Y-90907867D02*
X115228914Y-90762724D01*
X115228914Y-90762724D02*
X115277295Y-90569200D01*
X115277295Y-90569200D02*
X115325676Y-90472438D01*
X115325676Y-90472438D02*
X115422438Y-90375676D01*
X115422438Y-90375676D02*
X115567581Y-90327295D01*
X115567581Y-90327295D02*
X115664343Y-90327295D01*
X115664343Y-90327295D02*
X115809486Y-90375676D01*
X115809486Y-90375676D02*
X115857867Y-90424057D01*
X116777105Y-90327295D02*
X116293295Y-90327295D01*
X116293295Y-90327295D02*
X116244914Y-90811105D01*
X116244914Y-90811105D02*
X116293295Y-90762724D01*
X116293295Y-90762724D02*
X116390057Y-90714343D01*
X116390057Y-90714343D02*
X116631962Y-90714343D01*
X116631962Y-90714343D02*
X116728724Y-90762724D01*
X116728724Y-90762724D02*
X116777105Y-90811105D01*
X116777105Y-90811105D02*
X116825486Y-90907867D01*
X116825486Y-90907867D02*
X116825486Y-91149772D01*
X116825486Y-91149772D02*
X116777105Y-91246534D01*
X116777105Y-91246534D02*
X116728724Y-91294915D01*
X116728724Y-91294915D02*
X116631962Y-91343295D01*
X116631962Y-91343295D02*
X116390057Y-91343295D01*
X116390057Y-91343295D02*
X116293295Y-91294915D01*
X116293295Y-91294915D02*
X116244914Y-91246534D01*
X120480667Y-80472095D02*
X120142000Y-79988286D01*
X119900095Y-80472095D02*
X119900095Y-79456095D01*
X119900095Y-79456095D02*
X120287143Y-79456095D01*
X120287143Y-79456095D02*
X120383905Y-79504476D01*
X120383905Y-79504476D02*
X120432286Y-79552857D01*
X120432286Y-79552857D02*
X120480667Y-79649619D01*
X120480667Y-79649619D02*
X120480667Y-79794762D01*
X120480667Y-79794762D02*
X120432286Y-79891524D01*
X120432286Y-79891524D02*
X120383905Y-79939905D01*
X120383905Y-79939905D02*
X120287143Y-79988286D01*
X120287143Y-79988286D02*
X119900095Y-79988286D01*
X120964476Y-80472095D02*
X121158000Y-80472095D01*
X121158000Y-80472095D02*
X121254762Y-80423715D01*
X121254762Y-80423715D02*
X121303143Y-80375334D01*
X121303143Y-80375334D02*
X121399905Y-80230191D01*
X121399905Y-80230191D02*
X121448286Y-80036667D01*
X121448286Y-80036667D02*
X121448286Y-79649619D01*
X121448286Y-79649619D02*
X121399905Y-79552857D01*
X121399905Y-79552857D02*
X121351524Y-79504476D01*
X121351524Y-79504476D02*
X121254762Y-79456095D01*
X121254762Y-79456095D02*
X121061238Y-79456095D01*
X121061238Y-79456095D02*
X120964476Y-79504476D01*
X120964476Y-79504476D02*
X120916095Y-79552857D01*
X120916095Y-79552857D02*
X120867714Y-79649619D01*
X120867714Y-79649619D02*
X120867714Y-79891524D01*
X120867714Y-79891524D02*
X120916095Y-79988286D01*
X120916095Y-79988286D02*
X120964476Y-80036667D01*
X120964476Y-80036667D02*
X121061238Y-80085048D01*
X121061238Y-80085048D02*
X121254762Y-80085048D01*
X121254762Y-80085048D02*
X121351524Y-80036667D01*
X121351524Y-80036667D02*
X121399905Y-79988286D01*
X121399905Y-79988286D02*
X121448286Y-79891524D01*
X117812457Y-82864534D02*
X117764076Y-82912915D01*
X117764076Y-82912915D02*
X117618933Y-82961295D01*
X117618933Y-82961295D02*
X117522171Y-82961295D01*
X117522171Y-82961295D02*
X117377028Y-82912915D01*
X117377028Y-82912915D02*
X117280266Y-82816153D01*
X117280266Y-82816153D02*
X117231885Y-82719391D01*
X117231885Y-82719391D02*
X117183504Y-82525867D01*
X117183504Y-82525867D02*
X117183504Y-82380724D01*
X117183504Y-82380724D02*
X117231885Y-82187200D01*
X117231885Y-82187200D02*
X117280266Y-82090438D01*
X117280266Y-82090438D02*
X117377028Y-81993676D01*
X117377028Y-81993676D02*
X117522171Y-81945295D01*
X117522171Y-81945295D02*
X117618933Y-81945295D01*
X117618933Y-81945295D02*
X117764076Y-81993676D01*
X117764076Y-81993676D02*
X117812457Y-82042057D01*
X118780076Y-82961295D02*
X118199504Y-82961295D01*
X118489790Y-82961295D02*
X118489790Y-81945295D01*
X118489790Y-81945295D02*
X118393028Y-82090438D01*
X118393028Y-82090438D02*
X118296266Y-82187200D01*
X118296266Y-82187200D02*
X118199504Y-82235581D01*
X119747695Y-82961295D02*
X119167123Y-82961295D01*
X119457409Y-82961295D02*
X119457409Y-81945295D01*
X119457409Y-81945295D02*
X119360647Y-82090438D01*
X119360647Y-82090438D02*
X119263885Y-82187200D01*
X119263885Y-82187200D02*
X119167123Y-82235581D01*
X117048095Y-106392132D02*
X117048095Y-106875942D01*
X117048095Y-106875942D02*
X116032095Y-106875942D01*
X117048095Y-105521275D02*
X117048095Y-106101847D01*
X117048095Y-105811561D02*
X116032095Y-105811561D01*
X116032095Y-105811561D02*
X116177238Y-105908323D01*
X116177238Y-105908323D02*
X116274000Y-106005085D01*
X116274000Y-106005085D02*
X116322381Y-106101847D01*
X119796134Y-104868132D02*
X119844515Y-104916513D01*
X119844515Y-104916513D02*
X119892895Y-105061656D01*
X119892895Y-105061656D02*
X119892895Y-105158418D01*
X119892895Y-105158418D02*
X119844515Y-105303561D01*
X119844515Y-105303561D02*
X119747753Y-105400323D01*
X119747753Y-105400323D02*
X119650991Y-105448704D01*
X119650991Y-105448704D02*
X119457467Y-105497085D01*
X119457467Y-105497085D02*
X119312324Y-105497085D01*
X119312324Y-105497085D02*
X119118800Y-105448704D01*
X119118800Y-105448704D02*
X119022038Y-105400323D01*
X119022038Y-105400323D02*
X118925276Y-105303561D01*
X118925276Y-105303561D02*
X118876895Y-105158418D01*
X118876895Y-105158418D02*
X118876895Y-105061656D01*
X118876895Y-105061656D02*
X118925276Y-104916513D01*
X118925276Y-104916513D02*
X118973657Y-104868132D01*
X119215562Y-103997275D02*
X119892895Y-103997275D01*
X118828515Y-104239180D02*
X119554229Y-104481085D01*
X119554229Y-104481085D02*
X119554229Y-103852132D01*
X120480667Y-77932095D02*
X120142000Y-77448286D01*
X119900095Y-77932095D02*
X119900095Y-76916095D01*
X119900095Y-76916095D02*
X120287143Y-76916095D01*
X120287143Y-76916095D02*
X120383905Y-76964476D01*
X120383905Y-76964476D02*
X120432286Y-77012857D01*
X120432286Y-77012857D02*
X120480667Y-77109619D01*
X120480667Y-77109619D02*
X120480667Y-77254762D01*
X120480667Y-77254762D02*
X120432286Y-77351524D01*
X120432286Y-77351524D02*
X120383905Y-77399905D01*
X120383905Y-77399905D02*
X120287143Y-77448286D01*
X120287143Y-77448286D02*
X119900095Y-77448286D01*
X121061238Y-77351524D02*
X120964476Y-77303143D01*
X120964476Y-77303143D02*
X120916095Y-77254762D01*
X120916095Y-77254762D02*
X120867714Y-77158000D01*
X120867714Y-77158000D02*
X120867714Y-77109619D01*
X120867714Y-77109619D02*
X120916095Y-77012857D01*
X120916095Y-77012857D02*
X120964476Y-76964476D01*
X120964476Y-76964476D02*
X121061238Y-76916095D01*
X121061238Y-76916095D02*
X121254762Y-76916095D01*
X121254762Y-76916095D02*
X121351524Y-76964476D01*
X121351524Y-76964476D02*
X121399905Y-77012857D01*
X121399905Y-77012857D02*
X121448286Y-77109619D01*
X121448286Y-77109619D02*
X121448286Y-77158000D01*
X121448286Y-77158000D02*
X121399905Y-77254762D01*
X121399905Y-77254762D02*
X121351524Y-77303143D01*
X121351524Y-77303143D02*
X121254762Y-77351524D01*
X121254762Y-77351524D02*
X121061238Y-77351524D01*
X121061238Y-77351524D02*
X120964476Y-77399905D01*
X120964476Y-77399905D02*
X120916095Y-77448286D01*
X120916095Y-77448286D02*
X120867714Y-77545048D01*
X120867714Y-77545048D02*
X120867714Y-77738572D01*
X120867714Y-77738572D02*
X120916095Y-77835334D01*
X120916095Y-77835334D02*
X120964476Y-77883715D01*
X120964476Y-77883715D02*
X121061238Y-77932095D01*
X121061238Y-77932095D02*
X121254762Y-77932095D01*
X121254762Y-77932095D02*
X121351524Y-77883715D01*
X121351524Y-77883715D02*
X121399905Y-77835334D01*
X121399905Y-77835334D02*
X121448286Y-77738572D01*
X121448286Y-77738572D02*
X121448286Y-77545048D01*
X121448286Y-77545048D02*
X121399905Y-77448286D01*
X121399905Y-77448286D02*
X121351524Y-77399905D01*
X121351524Y-77399905D02*
X121254762Y-77351524D01*
X119488857Y-76611295D02*
X119150190Y-76127486D01*
X118908285Y-76611295D02*
X118908285Y-75595295D01*
X118908285Y-75595295D02*
X119295333Y-75595295D01*
X119295333Y-75595295D02*
X119392095Y-75643676D01*
X119392095Y-75643676D02*
X119440476Y-75692057D01*
X119440476Y-75692057D02*
X119488857Y-75788819D01*
X119488857Y-75788819D02*
X119488857Y-75933962D01*
X119488857Y-75933962D02*
X119440476Y-76030724D01*
X119440476Y-76030724D02*
X119392095Y-76079105D01*
X119392095Y-76079105D02*
X119295333Y-76127486D01*
X119295333Y-76127486D02*
X118908285Y-76127486D01*
X120456476Y-76611295D02*
X119875904Y-76611295D01*
X120166190Y-76611295D02*
X120166190Y-75595295D01*
X120166190Y-75595295D02*
X120069428Y-75740438D01*
X120069428Y-75740438D02*
X119972666Y-75837200D01*
X119972666Y-75837200D02*
X119875904Y-75885581D01*
X121424095Y-76611295D02*
X120843523Y-76611295D01*
X121133809Y-76611295D02*
X121133809Y-75595295D01*
X121133809Y-75595295D02*
X121037047Y-75740438D01*
X121037047Y-75740438D02*
X120940285Y-75837200D01*
X120940285Y-75837200D02*
X120843523Y-75885581D01*
X122919067Y-101685934D02*
X122870686Y-101734315D01*
X122870686Y-101734315D02*
X122725543Y-101782695D01*
X122725543Y-101782695D02*
X122628781Y-101782695D01*
X122628781Y-101782695D02*
X122483638Y-101734315D01*
X122483638Y-101734315D02*
X122386876Y-101637553D01*
X122386876Y-101637553D02*
X122338495Y-101540791D01*
X122338495Y-101540791D02*
X122290114Y-101347267D01*
X122290114Y-101347267D02*
X122290114Y-101202124D01*
X122290114Y-101202124D02*
X122338495Y-101008600D01*
X122338495Y-101008600D02*
X122386876Y-100911838D01*
X122386876Y-100911838D02*
X122483638Y-100815076D01*
X122483638Y-100815076D02*
X122628781Y-100766695D01*
X122628781Y-100766695D02*
X122725543Y-100766695D01*
X122725543Y-100766695D02*
X122870686Y-100815076D01*
X122870686Y-100815076D02*
X122919067Y-100863457D01*
X123402876Y-101782695D02*
X123596400Y-101782695D01*
X123596400Y-101782695D02*
X123693162Y-101734315D01*
X123693162Y-101734315D02*
X123741543Y-101685934D01*
X123741543Y-101685934D02*
X123838305Y-101540791D01*
X123838305Y-101540791D02*
X123886686Y-101347267D01*
X123886686Y-101347267D02*
X123886686Y-100960219D01*
X123886686Y-100960219D02*
X123838305Y-100863457D01*
X123838305Y-100863457D02*
X123789924Y-100815076D01*
X123789924Y-100815076D02*
X123693162Y-100766695D01*
X123693162Y-100766695D02*
X123499638Y-100766695D01*
X123499638Y-100766695D02*
X123402876Y-100815076D01*
X123402876Y-100815076D02*
X123354495Y-100863457D01*
X123354495Y-100863457D02*
X123306114Y-100960219D01*
X123306114Y-100960219D02*
X123306114Y-101202124D01*
X123306114Y-101202124D02*
X123354495Y-101298886D01*
X123354495Y-101298886D02*
X123402876Y-101347267D01*
X123402876Y-101347267D02*
X123499638Y-101395648D01*
X123499638Y-101395648D02*
X123693162Y-101395648D01*
X123693162Y-101395648D02*
X123789924Y-101347267D01*
X123789924Y-101347267D02*
X123838305Y-101298886D01*
X123838305Y-101298886D02*
X123886686Y-101202124D01*
X121953867Y-88452534D02*
X121905486Y-88500915D01*
X121905486Y-88500915D02*
X121760343Y-88549295D01*
X121760343Y-88549295D02*
X121663581Y-88549295D01*
X121663581Y-88549295D02*
X121518438Y-88500915D01*
X121518438Y-88500915D02*
X121421676Y-88404153D01*
X121421676Y-88404153D02*
X121373295Y-88307391D01*
X121373295Y-88307391D02*
X121324914Y-88113867D01*
X121324914Y-88113867D02*
X121324914Y-87968724D01*
X121324914Y-87968724D02*
X121373295Y-87775200D01*
X121373295Y-87775200D02*
X121421676Y-87678438D01*
X121421676Y-87678438D02*
X121518438Y-87581676D01*
X121518438Y-87581676D02*
X121663581Y-87533295D01*
X121663581Y-87533295D02*
X121760343Y-87533295D01*
X121760343Y-87533295D02*
X121905486Y-87581676D01*
X121905486Y-87581676D02*
X121953867Y-87630057D01*
X122534438Y-87968724D02*
X122437676Y-87920343D01*
X122437676Y-87920343D02*
X122389295Y-87871962D01*
X122389295Y-87871962D02*
X122340914Y-87775200D01*
X122340914Y-87775200D02*
X122340914Y-87726819D01*
X122340914Y-87726819D02*
X122389295Y-87630057D01*
X122389295Y-87630057D02*
X122437676Y-87581676D01*
X122437676Y-87581676D02*
X122534438Y-87533295D01*
X122534438Y-87533295D02*
X122727962Y-87533295D01*
X122727962Y-87533295D02*
X122824724Y-87581676D01*
X122824724Y-87581676D02*
X122873105Y-87630057D01*
X122873105Y-87630057D02*
X122921486Y-87726819D01*
X122921486Y-87726819D02*
X122921486Y-87775200D01*
X122921486Y-87775200D02*
X122873105Y-87871962D01*
X122873105Y-87871962D02*
X122824724Y-87920343D01*
X122824724Y-87920343D02*
X122727962Y-87968724D01*
X122727962Y-87968724D02*
X122534438Y-87968724D01*
X122534438Y-87968724D02*
X122437676Y-88017105D01*
X122437676Y-88017105D02*
X122389295Y-88065486D01*
X122389295Y-88065486D02*
X122340914Y-88162248D01*
X122340914Y-88162248D02*
X122340914Y-88355772D01*
X122340914Y-88355772D02*
X122389295Y-88452534D01*
X122389295Y-88452534D02*
X122437676Y-88500915D01*
X122437676Y-88500915D02*
X122534438Y-88549295D01*
X122534438Y-88549295D02*
X122727962Y-88549295D01*
X122727962Y-88549295D02*
X122824724Y-88500915D01*
X122824724Y-88500915D02*
X122873105Y-88452534D01*
X122873105Y-88452534D02*
X122921486Y-88355772D01*
X122921486Y-88355772D02*
X122921486Y-88162248D01*
X122921486Y-88162248D02*
X122873105Y-88065486D01*
X122873105Y-88065486D02*
X122824724Y-88017105D01*
X122824724Y-88017105D02*
X122727962Y-87968724D01*
X122940895Y-86149542D02*
X122457086Y-86488209D01*
X122940895Y-86730114D02*
X121924895Y-86730114D01*
X121924895Y-86730114D02*
X121924895Y-86343066D01*
X121924895Y-86343066D02*
X121973276Y-86246304D01*
X121973276Y-86246304D02*
X122021657Y-86197923D01*
X122021657Y-86197923D02*
X122118419Y-86149542D01*
X122118419Y-86149542D02*
X122263562Y-86149542D01*
X122263562Y-86149542D02*
X122360324Y-86197923D01*
X122360324Y-86197923D02*
X122408705Y-86246304D01*
X122408705Y-86246304D02*
X122457086Y-86343066D01*
X122457086Y-86343066D02*
X122457086Y-86730114D01*
X122940895Y-85181923D02*
X122940895Y-85762495D01*
X122940895Y-85472209D02*
X121924895Y-85472209D01*
X121924895Y-85472209D02*
X122070038Y-85568971D01*
X122070038Y-85568971D02*
X122166800Y-85665733D01*
X122166800Y-85665733D02*
X122215181Y-85762495D01*
X121924895Y-84552971D02*
X121924895Y-84456209D01*
X121924895Y-84456209D02*
X121973276Y-84359447D01*
X121973276Y-84359447D02*
X122021657Y-84311066D01*
X122021657Y-84311066D02*
X122118419Y-84262685D01*
X122118419Y-84262685D02*
X122311943Y-84214304D01*
X122311943Y-84214304D02*
X122553848Y-84214304D01*
X122553848Y-84214304D02*
X122747372Y-84262685D01*
X122747372Y-84262685D02*
X122844134Y-84311066D01*
X122844134Y-84311066D02*
X122892515Y-84359447D01*
X122892515Y-84359447D02*
X122940895Y-84456209D01*
X122940895Y-84456209D02*
X122940895Y-84552971D01*
X122940895Y-84552971D02*
X122892515Y-84649733D01*
X122892515Y-84649733D02*
X122844134Y-84698114D01*
X122844134Y-84698114D02*
X122747372Y-84746495D01*
X122747372Y-84746495D02*
X122553848Y-84794876D01*
X122553848Y-84794876D02*
X122311943Y-84794876D01*
X122311943Y-84794876D02*
X122118419Y-84746495D01*
X122118419Y-84746495D02*
X122021657Y-84698114D01*
X122021657Y-84698114D02*
X121973276Y-84649733D01*
X121973276Y-84649733D02*
X121924895Y-84552971D01*
X124749134Y-99584932D02*
X124797515Y-99633313D01*
X124797515Y-99633313D02*
X124845895Y-99778456D01*
X124845895Y-99778456D02*
X124845895Y-99875218D01*
X124845895Y-99875218D02*
X124797515Y-100020361D01*
X124797515Y-100020361D02*
X124700753Y-100117123D01*
X124700753Y-100117123D02*
X124603991Y-100165504D01*
X124603991Y-100165504D02*
X124410467Y-100213885D01*
X124410467Y-100213885D02*
X124265324Y-100213885D01*
X124265324Y-100213885D02*
X124071800Y-100165504D01*
X124071800Y-100165504D02*
X123975038Y-100117123D01*
X123975038Y-100117123D02*
X123878276Y-100020361D01*
X123878276Y-100020361D02*
X123829895Y-99875218D01*
X123829895Y-99875218D02*
X123829895Y-99778456D01*
X123829895Y-99778456D02*
X123878276Y-99633313D01*
X123878276Y-99633313D02*
X123926657Y-99584932D01*
X123829895Y-99246266D02*
X123829895Y-98617313D01*
X123829895Y-98617313D02*
X124216943Y-98955980D01*
X124216943Y-98955980D02*
X124216943Y-98810837D01*
X124216943Y-98810837D02*
X124265324Y-98714075D01*
X124265324Y-98714075D02*
X124313705Y-98665694D01*
X124313705Y-98665694D02*
X124410467Y-98617313D01*
X124410467Y-98617313D02*
X124652372Y-98617313D01*
X124652372Y-98617313D02*
X124749134Y-98665694D01*
X124749134Y-98665694D02*
X124797515Y-98714075D01*
X124797515Y-98714075D02*
X124845895Y-98810837D01*
X124845895Y-98810837D02*
X124845895Y-99101123D01*
X124845895Y-99101123D02*
X124797515Y-99197885D01*
X124797515Y-99197885D02*
X124749134Y-99246266D01*
X115020934Y-104868132D02*
X115069315Y-104916513D01*
X115069315Y-104916513D02*
X115117695Y-105061656D01*
X115117695Y-105061656D02*
X115117695Y-105158418D01*
X115117695Y-105158418D02*
X115069315Y-105303561D01*
X115069315Y-105303561D02*
X114972553Y-105400323D01*
X114972553Y-105400323D02*
X114875791Y-105448704D01*
X114875791Y-105448704D02*
X114682267Y-105497085D01*
X114682267Y-105497085D02*
X114537124Y-105497085D01*
X114537124Y-105497085D02*
X114343600Y-105448704D01*
X114343600Y-105448704D02*
X114246838Y-105400323D01*
X114246838Y-105400323D02*
X114150076Y-105303561D01*
X114150076Y-105303561D02*
X114101695Y-105158418D01*
X114101695Y-105158418D02*
X114101695Y-105061656D01*
X114101695Y-105061656D02*
X114150076Y-104916513D01*
X114150076Y-104916513D02*
X114198457Y-104868132D01*
X114101695Y-104529466D02*
X114101695Y-103852132D01*
X114101695Y-103852132D02*
X115117695Y-104287561D01*
D11*
X120728453Y-110959295D02*
X121550930Y-110959295D01*
X121550930Y-110959295D02*
X121647692Y-110910914D01*
X121647692Y-110910914D02*
X121696073Y-110862533D01*
X121696073Y-110862533D02*
X121744453Y-110765771D01*
X121744453Y-110765771D02*
X121744453Y-110572247D01*
X121744453Y-110572247D02*
X121696073Y-110475485D01*
X121696073Y-110475485D02*
X121647692Y-110427104D01*
X121647692Y-110427104D02*
X121550930Y-110378723D01*
X121550930Y-110378723D02*
X120728453Y-110378723D01*
X120728453Y-109991676D02*
X120728453Y-109362723D01*
X120728453Y-109362723D02*
X121115501Y-109701390D01*
X121115501Y-109701390D02*
X121115501Y-109556247D01*
X121115501Y-109556247D02*
X121163882Y-109459485D01*
X121163882Y-109459485D02*
X121212263Y-109411104D01*
X121212263Y-109411104D02*
X121309025Y-109362723D01*
X121309025Y-109362723D02*
X121550930Y-109362723D01*
X121550930Y-109362723D02*
X121647692Y-109411104D01*
X121647692Y-109411104D02*
X121696073Y-109459485D01*
X121696073Y-109459485D02*
X121744453Y-109556247D01*
X121744453Y-109556247D02*
X121744453Y-109846533D01*
X121744453Y-109846533D02*
X121696073Y-109943295D01*
X121696073Y-109943295D02*
X121647692Y-109991676D01*
D10*
X123477867Y-107223134D02*
X123429486Y-107271515D01*
X123429486Y-107271515D02*
X123284343Y-107319895D01*
X123284343Y-107319895D02*
X123187581Y-107319895D01*
X123187581Y-107319895D02*
X123042438Y-107271515D01*
X123042438Y-107271515D02*
X122945676Y-107174753D01*
X122945676Y-107174753D02*
X122897295Y-107077991D01*
X122897295Y-107077991D02*
X122848914Y-106884467D01*
X122848914Y-106884467D02*
X122848914Y-106739324D01*
X122848914Y-106739324D02*
X122897295Y-106545800D01*
X122897295Y-106545800D02*
X122945676Y-106449038D01*
X122945676Y-106449038D02*
X123042438Y-106352276D01*
X123042438Y-106352276D02*
X123187581Y-106303895D01*
X123187581Y-106303895D02*
X123284343Y-106303895D01*
X123284343Y-106303895D02*
X123429486Y-106352276D01*
X123429486Y-106352276D02*
X123477867Y-106400657D01*
X124445486Y-107319895D02*
X123864914Y-107319895D01*
X124155200Y-107319895D02*
X124155200Y-106303895D01*
X124155200Y-106303895D02*
X124058438Y-106449038D01*
X124058438Y-106449038D02*
X123961676Y-106545800D01*
X123961676Y-106545800D02*
X123864914Y-106594181D01*
X118449934Y-104918932D02*
X118498315Y-104967313D01*
X118498315Y-104967313D02*
X118546695Y-105112456D01*
X118546695Y-105112456D02*
X118546695Y-105209218D01*
X118546695Y-105209218D02*
X118498315Y-105354361D01*
X118498315Y-105354361D02*
X118401553Y-105451123D01*
X118401553Y-105451123D02*
X118304791Y-105499504D01*
X118304791Y-105499504D02*
X118111267Y-105547885D01*
X118111267Y-105547885D02*
X117966124Y-105547885D01*
X117966124Y-105547885D02*
X117772600Y-105499504D01*
X117772600Y-105499504D02*
X117675838Y-105451123D01*
X117675838Y-105451123D02*
X117579076Y-105354361D01*
X117579076Y-105354361D02*
X117530695Y-105209218D01*
X117530695Y-105209218D02*
X117530695Y-105112456D01*
X117530695Y-105112456D02*
X117579076Y-104967313D01*
X117579076Y-104967313D02*
X117627457Y-104918932D01*
X117627457Y-104531885D02*
X117579076Y-104483504D01*
X117579076Y-104483504D02*
X117530695Y-104386742D01*
X117530695Y-104386742D02*
X117530695Y-104144837D01*
X117530695Y-104144837D02*
X117579076Y-104048075D01*
X117579076Y-104048075D02*
X117627457Y-103999694D01*
X117627457Y-103999694D02*
X117724219Y-103951313D01*
X117724219Y-103951313D02*
X117820981Y-103951313D01*
X117820981Y-103951313D02*
X117966124Y-103999694D01*
X117966124Y-103999694D02*
X118546695Y-104580266D01*
X118546695Y-104580266D02*
X118546695Y-103951313D01*
X120480667Y-75341295D02*
X120142000Y-74857486D01*
X119900095Y-75341295D02*
X119900095Y-74325295D01*
X119900095Y-74325295D02*
X120287143Y-74325295D01*
X120287143Y-74325295D02*
X120383905Y-74373676D01*
X120383905Y-74373676D02*
X120432286Y-74422057D01*
X120432286Y-74422057D02*
X120480667Y-74518819D01*
X120480667Y-74518819D02*
X120480667Y-74663962D01*
X120480667Y-74663962D02*
X120432286Y-74760724D01*
X120432286Y-74760724D02*
X120383905Y-74809105D01*
X120383905Y-74809105D02*
X120287143Y-74857486D01*
X120287143Y-74857486D02*
X119900095Y-74857486D01*
X120819333Y-74325295D02*
X121496667Y-74325295D01*
X121496667Y-74325295D02*
X121061238Y-75341295D01*
X117732686Y-85523009D02*
X118216495Y-85523009D01*
X117200495Y-85861676D02*
X117732686Y-85523009D01*
X117732686Y-85523009D02*
X117200495Y-85184342D01*
X118216495Y-84313485D02*
X118216495Y-84894057D01*
X118216495Y-84603771D02*
X117200495Y-84603771D01*
X117200495Y-84603771D02*
X117345638Y-84700533D01*
X117345638Y-84700533D02*
X117442400Y-84797295D01*
X117442400Y-84797295D02*
X117490781Y-84894057D01*
X128253067Y-91622695D02*
X127914400Y-91138886D01*
X127672495Y-91622695D02*
X127672495Y-90606695D01*
X127672495Y-90606695D02*
X128059543Y-90606695D01*
X128059543Y-90606695D02*
X128156305Y-90655076D01*
X128156305Y-90655076D02*
X128204686Y-90703457D01*
X128204686Y-90703457D02*
X128253067Y-90800219D01*
X128253067Y-90800219D02*
X128253067Y-90945362D01*
X128253067Y-90945362D02*
X128204686Y-91042124D01*
X128204686Y-91042124D02*
X128156305Y-91090505D01*
X128156305Y-91090505D02*
X128059543Y-91138886D01*
X128059543Y-91138886D02*
X127672495Y-91138886D01*
X129172305Y-90606695D02*
X128688495Y-90606695D01*
X128688495Y-90606695D02*
X128640114Y-91090505D01*
X128640114Y-91090505D02*
X128688495Y-91042124D01*
X128688495Y-91042124D02*
X128785257Y-90993743D01*
X128785257Y-90993743D02*
X129027162Y-90993743D01*
X129027162Y-90993743D02*
X129123924Y-91042124D01*
X129123924Y-91042124D02*
X129172305Y-91090505D01*
X129172305Y-91090505D02*
X129220686Y-91187267D01*
X129220686Y-91187267D02*
X129220686Y-91429172D01*
X129220686Y-91429172D02*
X129172305Y-91525934D01*
X129172305Y-91525934D02*
X129123924Y-91574315D01*
X129123924Y-91574315D02*
X129027162Y-91622695D01*
X129027162Y-91622695D02*
X128785257Y-91622695D01*
X128785257Y-91622695D02*
X128688495Y-91574315D01*
X128688495Y-91574315D02*
X128640114Y-91525934D01*
D11*
X118828292Y-114749942D02*
X118876673Y-114798323D01*
X118876673Y-114798323D02*
X118925053Y-114943466D01*
X118925053Y-114943466D02*
X118925053Y-115040228D01*
X118925053Y-115040228D02*
X118876673Y-115185371D01*
X118876673Y-115185371D02*
X118779911Y-115282133D01*
X118779911Y-115282133D02*
X118683149Y-115330514D01*
X118683149Y-115330514D02*
X118489625Y-115378895D01*
X118489625Y-115378895D02*
X118344482Y-115378895D01*
X118344482Y-115378895D02*
X118150958Y-115330514D01*
X118150958Y-115330514D02*
X118054196Y-115282133D01*
X118054196Y-115282133D02*
X117957434Y-115185371D01*
X117957434Y-115185371D02*
X117909053Y-115040228D01*
X117909053Y-115040228D02*
X117909053Y-114943466D01*
X117909053Y-114943466D02*
X117957434Y-114798323D01*
X117957434Y-114798323D02*
X118005815Y-114749942D01*
X118925053Y-113782323D02*
X118925053Y-114362895D01*
X118925053Y-114072609D02*
X117909053Y-114072609D01*
X117909053Y-114072609D02*
X118054196Y-114169371D01*
X118054196Y-114169371D02*
X118150958Y-114266133D01*
X118150958Y-114266133D02*
X118199339Y-114362895D01*
X118925053Y-113298514D02*
X118925053Y-113104990D01*
X118925053Y-113104990D02*
X118876673Y-113008228D01*
X118876673Y-113008228D02*
X118828292Y-112959847D01*
X118828292Y-112959847D02*
X118683149Y-112863085D01*
X118683149Y-112863085D02*
X118489625Y-112814704D01*
X118489625Y-112814704D02*
X118102577Y-112814704D01*
X118102577Y-112814704D02*
X118005815Y-112863085D01*
X118005815Y-112863085D02*
X117957434Y-112911466D01*
X117957434Y-112911466D02*
X117909053Y-113008228D01*
X117909053Y-113008228D02*
X117909053Y-113201752D01*
X117909053Y-113201752D02*
X117957434Y-113298514D01*
X117957434Y-113298514D02*
X118005815Y-113346895D01*
X118005815Y-113346895D02*
X118102577Y-113395276D01*
X118102577Y-113395276D02*
X118344482Y-113395276D01*
X118344482Y-113395276D02*
X118441244Y-113346895D01*
X118441244Y-113346895D02*
X118489625Y-113298514D01*
X118489625Y-113298514D02*
X118538006Y-113201752D01*
X118538006Y-113201752D02*
X118538006Y-113008228D01*
X118538006Y-113008228D02*
X118489625Y-112911466D01*
X118489625Y-112911466D02*
X118441244Y-112863085D01*
X118441244Y-112863085D02*
X118344482Y-112814704D01*
D10*
X128303867Y-92994295D02*
X127965200Y-92510486D01*
X127723295Y-92994295D02*
X127723295Y-91978295D01*
X127723295Y-91978295D02*
X128110343Y-91978295D01*
X128110343Y-91978295D02*
X128207105Y-92026676D01*
X128207105Y-92026676D02*
X128255486Y-92075057D01*
X128255486Y-92075057D02*
X128303867Y-92171819D01*
X128303867Y-92171819D02*
X128303867Y-92316962D01*
X128303867Y-92316962D02*
X128255486Y-92413724D01*
X128255486Y-92413724D02*
X128207105Y-92462105D01*
X128207105Y-92462105D02*
X128110343Y-92510486D01*
X128110343Y-92510486D02*
X127723295Y-92510486D01*
X129174724Y-91978295D02*
X128981200Y-91978295D01*
X128981200Y-91978295D02*
X128884438Y-92026676D01*
X128884438Y-92026676D02*
X128836057Y-92075057D01*
X128836057Y-92075057D02*
X128739295Y-92220200D01*
X128739295Y-92220200D02*
X128690914Y-92413724D01*
X128690914Y-92413724D02*
X128690914Y-92800772D01*
X128690914Y-92800772D02*
X128739295Y-92897534D01*
X128739295Y-92897534D02*
X128787676Y-92945915D01*
X128787676Y-92945915D02*
X128884438Y-92994295D01*
X128884438Y-92994295D02*
X129077962Y-92994295D01*
X129077962Y-92994295D02*
X129174724Y-92945915D01*
X129174724Y-92945915D02*
X129223105Y-92897534D01*
X129223105Y-92897534D02*
X129271486Y-92800772D01*
X129271486Y-92800772D02*
X129271486Y-92558867D01*
X129271486Y-92558867D02*
X129223105Y-92462105D01*
X129223105Y-92462105D02*
X129174724Y-92413724D01*
X129174724Y-92413724D02*
X129077962Y-92365343D01*
X129077962Y-92365343D02*
X128884438Y-92365343D01*
X128884438Y-92365343D02*
X128787676Y-92413724D01*
X128787676Y-92413724D02*
X128739295Y-92462105D01*
X128739295Y-92462105D02*
X128690914Y-92558867D01*
X122082134Y-90772342D02*
X122130515Y-90820723D01*
X122130515Y-90820723D02*
X122178895Y-90965866D01*
X122178895Y-90965866D02*
X122178895Y-91062628D01*
X122178895Y-91062628D02*
X122130515Y-91207771D01*
X122130515Y-91207771D02*
X122033753Y-91304533D01*
X122033753Y-91304533D02*
X121936991Y-91352914D01*
X121936991Y-91352914D02*
X121743467Y-91401295D01*
X121743467Y-91401295D02*
X121598324Y-91401295D01*
X121598324Y-91401295D02*
X121404800Y-91352914D01*
X121404800Y-91352914D02*
X121308038Y-91304533D01*
X121308038Y-91304533D02*
X121211276Y-91207771D01*
X121211276Y-91207771D02*
X121162895Y-91062628D01*
X121162895Y-91062628D02*
X121162895Y-90965866D01*
X121162895Y-90965866D02*
X121211276Y-90820723D01*
X121211276Y-90820723D02*
X121259657Y-90772342D01*
X122178895Y-89804723D02*
X122178895Y-90385295D01*
X122178895Y-90095009D02*
X121162895Y-90095009D01*
X121162895Y-90095009D02*
X121308038Y-90191771D01*
X121308038Y-90191771D02*
X121404800Y-90288533D01*
X121404800Y-90288533D02*
X121453181Y-90385295D01*
X121162895Y-88933866D02*
X121162895Y-89127390D01*
X121162895Y-89127390D02*
X121211276Y-89224152D01*
X121211276Y-89224152D02*
X121259657Y-89272533D01*
X121259657Y-89272533D02*
X121404800Y-89369295D01*
X121404800Y-89369295D02*
X121598324Y-89417676D01*
X121598324Y-89417676D02*
X121985372Y-89417676D01*
X121985372Y-89417676D02*
X122082134Y-89369295D01*
X122082134Y-89369295D02*
X122130515Y-89320914D01*
X122130515Y-89320914D02*
X122178895Y-89224152D01*
X122178895Y-89224152D02*
X122178895Y-89030628D01*
X122178895Y-89030628D02*
X122130515Y-88933866D01*
X122130515Y-88933866D02*
X122082134Y-88885485D01*
X122082134Y-88885485D02*
X121985372Y-88837104D01*
X121985372Y-88837104D02*
X121743467Y-88837104D01*
X121743467Y-88837104D02*
X121646705Y-88885485D01*
X121646705Y-88885485D02*
X121598324Y-88933866D01*
X121598324Y-88933866D02*
X121549943Y-89030628D01*
X121549943Y-89030628D02*
X121549943Y-89224152D01*
X121549943Y-89224152D02*
X121598324Y-89320914D01*
X121598324Y-89320914D02*
X121646705Y-89369295D01*
X121646705Y-89369295D02*
X121743467Y-89417676D01*
D11*
X112996133Y-106353263D02*
X112657466Y-106353263D01*
X112657466Y-106885453D02*
X112657466Y-105869453D01*
X112657466Y-105869453D02*
X113141276Y-105869453D01*
X113866990Y-106353263D02*
X114012133Y-106401644D01*
X114012133Y-106401644D02*
X114060514Y-106450025D01*
X114060514Y-106450025D02*
X114108895Y-106546787D01*
X114108895Y-106546787D02*
X114108895Y-106691930D01*
X114108895Y-106691930D02*
X114060514Y-106788692D01*
X114060514Y-106788692D02*
X114012133Y-106837073D01*
X114012133Y-106837073D02*
X113915371Y-106885453D01*
X113915371Y-106885453D02*
X113528323Y-106885453D01*
X113528323Y-106885453D02*
X113528323Y-105869453D01*
X113528323Y-105869453D02*
X113866990Y-105869453D01*
X113866990Y-105869453D02*
X113963752Y-105917834D01*
X113963752Y-105917834D02*
X114012133Y-105966215D01*
X114012133Y-105966215D02*
X114060514Y-106062977D01*
X114060514Y-106062977D02*
X114060514Y-106159739D01*
X114060514Y-106159739D02*
X114012133Y-106256501D01*
X114012133Y-106256501D02*
X113963752Y-106304882D01*
X113963752Y-106304882D02*
X113866990Y-106353263D01*
X113866990Y-106353263D02*
X113528323Y-106353263D01*
X115076514Y-106885453D02*
X114495942Y-106885453D01*
X114786228Y-106885453D02*
X114786228Y-105869453D01*
X114786228Y-105869453D02*
X114689466Y-106014596D01*
X114689466Y-106014596D02*
X114592704Y-106111358D01*
X114592704Y-106111358D02*
X114495942Y-106159739D01*
D10*
X122336134Y-103980342D02*
X122384515Y-104028723D01*
X122384515Y-104028723D02*
X122432895Y-104173866D01*
X122432895Y-104173866D02*
X122432895Y-104270628D01*
X122432895Y-104270628D02*
X122384515Y-104415771D01*
X122384515Y-104415771D02*
X122287753Y-104512533D01*
X122287753Y-104512533D02*
X122190991Y-104560914D01*
X122190991Y-104560914D02*
X121997467Y-104609295D01*
X121997467Y-104609295D02*
X121852324Y-104609295D01*
X121852324Y-104609295D02*
X121658800Y-104560914D01*
X121658800Y-104560914D02*
X121562038Y-104512533D01*
X121562038Y-104512533D02*
X121465276Y-104415771D01*
X121465276Y-104415771D02*
X121416895Y-104270628D01*
X121416895Y-104270628D02*
X121416895Y-104173866D01*
X121416895Y-104173866D02*
X121465276Y-104028723D01*
X121465276Y-104028723D02*
X121513657Y-103980342D01*
X122432895Y-103012723D02*
X122432895Y-103593295D01*
X122432895Y-103303009D02*
X121416895Y-103303009D01*
X121416895Y-103303009D02*
X121562038Y-103399771D01*
X121562038Y-103399771D02*
X121658800Y-103496533D01*
X121658800Y-103496533D02*
X121707181Y-103593295D01*
X121513657Y-102625676D02*
X121465276Y-102577295D01*
X121465276Y-102577295D02*
X121416895Y-102480533D01*
X121416895Y-102480533D02*
X121416895Y-102238628D01*
X121416895Y-102238628D02*
X121465276Y-102141866D01*
X121465276Y-102141866D02*
X121513657Y-102093485D01*
X121513657Y-102093485D02*
X121610419Y-102045104D01*
X121610419Y-102045104D02*
X121707181Y-102045104D01*
X121707181Y-102045104D02*
X121852324Y-102093485D01*
X121852324Y-102093485D02*
X122432895Y-102674057D01*
X122432895Y-102674057D02*
X122432895Y-102045104D01*
X121114457Y-112572295D02*
X120775790Y-112088486D01*
X120533885Y-112572295D02*
X120533885Y-111556295D01*
X120533885Y-111556295D02*
X120920933Y-111556295D01*
X120920933Y-111556295D02*
X121017695Y-111604676D01*
X121017695Y-111604676D02*
X121066076Y-111653057D01*
X121066076Y-111653057D02*
X121114457Y-111749819D01*
X121114457Y-111749819D02*
X121114457Y-111894962D01*
X121114457Y-111894962D02*
X121066076Y-111991724D01*
X121066076Y-111991724D02*
X121017695Y-112040105D01*
X121017695Y-112040105D02*
X120920933Y-112088486D01*
X120920933Y-112088486D02*
X120533885Y-112088486D01*
X121501504Y-111653057D02*
X121549885Y-111604676D01*
X121549885Y-111604676D02*
X121646647Y-111556295D01*
X121646647Y-111556295D02*
X121888552Y-111556295D01*
X121888552Y-111556295D02*
X121985314Y-111604676D01*
X121985314Y-111604676D02*
X122033695Y-111653057D01*
X122033695Y-111653057D02*
X122082076Y-111749819D01*
X122082076Y-111749819D02*
X122082076Y-111846581D01*
X122082076Y-111846581D02*
X122033695Y-111991724D01*
X122033695Y-111991724D02*
X121453123Y-112572295D01*
X121453123Y-112572295D02*
X122082076Y-112572295D01*
X122565885Y-112572295D02*
X122759409Y-112572295D01*
X122759409Y-112572295D02*
X122856171Y-112523915D01*
X122856171Y-112523915D02*
X122904552Y-112475534D01*
X122904552Y-112475534D02*
X123001314Y-112330391D01*
X123001314Y-112330391D02*
X123049695Y-112136867D01*
X123049695Y-112136867D02*
X123049695Y-111749819D01*
X123049695Y-111749819D02*
X123001314Y-111653057D01*
X123001314Y-111653057D02*
X122952933Y-111604676D01*
X122952933Y-111604676D02*
X122856171Y-111556295D01*
X122856171Y-111556295D02*
X122662647Y-111556295D01*
X122662647Y-111556295D02*
X122565885Y-111604676D01*
X122565885Y-111604676D02*
X122517504Y-111653057D01*
X122517504Y-111653057D02*
X122469123Y-111749819D01*
X122469123Y-111749819D02*
X122469123Y-111991724D01*
X122469123Y-111991724D02*
X122517504Y-112088486D01*
X122517504Y-112088486D02*
X122565885Y-112136867D01*
X122565885Y-112136867D02*
X122662647Y-112185248D01*
X122662647Y-112185248D02*
X122856171Y-112185248D01*
X122856171Y-112185248D02*
X122952933Y-112136867D01*
X122952933Y-112136867D02*
X123001314Y-112088486D01*
X123001314Y-112088486D02*
X123049695Y-111991724D01*
X119844457Y-115274934D02*
X119796076Y-115323315D01*
X119796076Y-115323315D02*
X119650933Y-115371695D01*
X119650933Y-115371695D02*
X119554171Y-115371695D01*
X119554171Y-115371695D02*
X119409028Y-115323315D01*
X119409028Y-115323315D02*
X119312266Y-115226553D01*
X119312266Y-115226553D02*
X119263885Y-115129791D01*
X119263885Y-115129791D02*
X119215504Y-114936267D01*
X119215504Y-114936267D02*
X119215504Y-114791124D01*
X119215504Y-114791124D02*
X119263885Y-114597600D01*
X119263885Y-114597600D02*
X119312266Y-114500838D01*
X119312266Y-114500838D02*
X119409028Y-114404076D01*
X119409028Y-114404076D02*
X119554171Y-114355695D01*
X119554171Y-114355695D02*
X119650933Y-114355695D01*
X119650933Y-114355695D02*
X119796076Y-114404076D01*
X119796076Y-114404076D02*
X119844457Y-114452457D01*
X120231504Y-114452457D02*
X120279885Y-114404076D01*
X120279885Y-114404076D02*
X120376647Y-114355695D01*
X120376647Y-114355695D02*
X120618552Y-114355695D01*
X120618552Y-114355695D02*
X120715314Y-114404076D01*
X120715314Y-114404076D02*
X120763695Y-114452457D01*
X120763695Y-114452457D02*
X120812076Y-114549219D01*
X120812076Y-114549219D02*
X120812076Y-114645981D01*
X120812076Y-114645981D02*
X120763695Y-114791124D01*
X120763695Y-114791124D02*
X120183123Y-115371695D01*
X120183123Y-115371695D02*
X120812076Y-115371695D01*
X121779695Y-115371695D02*
X121199123Y-115371695D01*
X121489409Y-115371695D02*
X121489409Y-114355695D01*
X121489409Y-114355695D02*
X121392647Y-114500838D01*
X121392647Y-114500838D02*
X121295885Y-114597600D01*
X121295885Y-114597600D02*
X121199123Y-114645981D01*
X112831695Y-103624742D02*
X112347886Y-103963409D01*
X112831695Y-104205314D02*
X111815695Y-104205314D01*
X111815695Y-104205314D02*
X111815695Y-103818266D01*
X111815695Y-103818266D02*
X111864076Y-103721504D01*
X111864076Y-103721504D02*
X111912457Y-103673123D01*
X111912457Y-103673123D02*
X112009219Y-103624742D01*
X112009219Y-103624742D02*
X112154362Y-103624742D01*
X112154362Y-103624742D02*
X112251124Y-103673123D01*
X112251124Y-103673123D02*
X112299505Y-103721504D01*
X112299505Y-103721504D02*
X112347886Y-103818266D01*
X112347886Y-103818266D02*
X112347886Y-104205314D01*
X111815695Y-103286076D02*
X111815695Y-102657123D01*
X111815695Y-102657123D02*
X112202743Y-102995790D01*
X112202743Y-102995790D02*
X112202743Y-102850647D01*
X112202743Y-102850647D02*
X112251124Y-102753885D01*
X112251124Y-102753885D02*
X112299505Y-102705504D01*
X112299505Y-102705504D02*
X112396267Y-102657123D01*
X112396267Y-102657123D02*
X112638172Y-102657123D01*
X112638172Y-102657123D02*
X112734934Y-102705504D01*
X112734934Y-102705504D02*
X112783315Y-102753885D01*
X112783315Y-102753885D02*
X112831695Y-102850647D01*
X112831695Y-102850647D02*
X112831695Y-103140933D01*
X112831695Y-103140933D02*
X112783315Y-103237695D01*
X112783315Y-103237695D02*
X112734934Y-103286076D01*
X111815695Y-102028171D02*
X111815695Y-101931409D01*
X111815695Y-101931409D02*
X111864076Y-101834647D01*
X111864076Y-101834647D02*
X111912457Y-101786266D01*
X111912457Y-101786266D02*
X112009219Y-101737885D01*
X112009219Y-101737885D02*
X112202743Y-101689504D01*
X112202743Y-101689504D02*
X112444648Y-101689504D01*
X112444648Y-101689504D02*
X112638172Y-101737885D01*
X112638172Y-101737885D02*
X112734934Y-101786266D01*
X112734934Y-101786266D02*
X112783315Y-101834647D01*
X112783315Y-101834647D02*
X112831695Y-101931409D01*
X112831695Y-101931409D02*
X112831695Y-102028171D01*
X112831695Y-102028171D02*
X112783315Y-102124933D01*
X112783315Y-102124933D02*
X112734934Y-102173314D01*
X112734934Y-102173314D02*
X112638172Y-102221695D01*
X112638172Y-102221695D02*
X112444648Y-102270076D01*
X112444648Y-102270076D02*
X112202743Y-102270076D01*
X112202743Y-102270076D02*
X112009219Y-102221695D01*
X112009219Y-102221695D02*
X111912457Y-102173314D01*
X111912457Y-102173314D02*
X111864076Y-102124933D01*
X111864076Y-102124933D02*
X111815695Y-102028171D01*
X127210457Y-103078095D02*
X126871790Y-102594286D01*
X126629885Y-103078095D02*
X126629885Y-102062095D01*
X126629885Y-102062095D02*
X127016933Y-102062095D01*
X127016933Y-102062095D02*
X127113695Y-102110476D01*
X127113695Y-102110476D02*
X127162076Y-102158857D01*
X127162076Y-102158857D02*
X127210457Y-102255619D01*
X127210457Y-102255619D02*
X127210457Y-102400762D01*
X127210457Y-102400762D02*
X127162076Y-102497524D01*
X127162076Y-102497524D02*
X127113695Y-102545905D01*
X127113695Y-102545905D02*
X127016933Y-102594286D01*
X127016933Y-102594286D02*
X126629885Y-102594286D01*
X127597504Y-102158857D02*
X127645885Y-102110476D01*
X127645885Y-102110476D02*
X127742647Y-102062095D01*
X127742647Y-102062095D02*
X127984552Y-102062095D01*
X127984552Y-102062095D02*
X128081314Y-102110476D01*
X128081314Y-102110476D02*
X128129695Y-102158857D01*
X128129695Y-102158857D02*
X128178076Y-102255619D01*
X128178076Y-102255619D02*
X128178076Y-102352381D01*
X128178076Y-102352381D02*
X128129695Y-102497524D01*
X128129695Y-102497524D02*
X127549123Y-103078095D01*
X127549123Y-103078095D02*
X128178076Y-103078095D01*
X128758647Y-102497524D02*
X128661885Y-102449143D01*
X128661885Y-102449143D02*
X128613504Y-102400762D01*
X128613504Y-102400762D02*
X128565123Y-102304000D01*
X128565123Y-102304000D02*
X128565123Y-102255619D01*
X128565123Y-102255619D02*
X128613504Y-102158857D01*
X128613504Y-102158857D02*
X128661885Y-102110476D01*
X128661885Y-102110476D02*
X128758647Y-102062095D01*
X128758647Y-102062095D02*
X128952171Y-102062095D01*
X128952171Y-102062095D02*
X129048933Y-102110476D01*
X129048933Y-102110476D02*
X129097314Y-102158857D01*
X129097314Y-102158857D02*
X129145695Y-102255619D01*
X129145695Y-102255619D02*
X129145695Y-102304000D01*
X129145695Y-102304000D02*
X129097314Y-102400762D01*
X129097314Y-102400762D02*
X129048933Y-102449143D01*
X129048933Y-102449143D02*
X128952171Y-102497524D01*
X128952171Y-102497524D02*
X128758647Y-102497524D01*
X128758647Y-102497524D02*
X128661885Y-102545905D01*
X128661885Y-102545905D02*
X128613504Y-102594286D01*
X128613504Y-102594286D02*
X128565123Y-102691048D01*
X128565123Y-102691048D02*
X128565123Y-102884572D01*
X128565123Y-102884572D02*
X128613504Y-102981334D01*
X128613504Y-102981334D02*
X128661885Y-103029715D01*
X128661885Y-103029715D02*
X128758647Y-103078095D01*
X128758647Y-103078095D02*
X128952171Y-103078095D01*
X128952171Y-103078095D02*
X129048933Y-103029715D01*
X129048933Y-103029715D02*
X129097314Y-102981334D01*
X129097314Y-102981334D02*
X129145695Y-102884572D01*
X129145695Y-102884572D02*
X129145695Y-102691048D01*
X129145695Y-102691048D02*
X129097314Y-102594286D01*
X129097314Y-102594286D02*
X129048933Y-102545905D01*
X129048933Y-102545905D02*
X128952171Y-102497524D01*
X116997295Y-88181542D02*
X116513486Y-88520209D01*
X116997295Y-88762114D02*
X115981295Y-88762114D01*
X115981295Y-88762114D02*
X115981295Y-88375066D01*
X115981295Y-88375066D02*
X116029676Y-88278304D01*
X116029676Y-88278304D02*
X116078057Y-88229923D01*
X116078057Y-88229923D02*
X116174819Y-88181542D01*
X116174819Y-88181542D02*
X116319962Y-88181542D01*
X116319962Y-88181542D02*
X116416724Y-88229923D01*
X116416724Y-88229923D02*
X116465105Y-88278304D01*
X116465105Y-88278304D02*
X116513486Y-88375066D01*
X116513486Y-88375066D02*
X116513486Y-88762114D01*
X115981295Y-87842876D02*
X115981295Y-87213923D01*
X115981295Y-87213923D02*
X116368343Y-87552590D01*
X116368343Y-87552590D02*
X116368343Y-87407447D01*
X116368343Y-87407447D02*
X116416724Y-87310685D01*
X116416724Y-87310685D02*
X116465105Y-87262304D01*
X116465105Y-87262304D02*
X116561867Y-87213923D01*
X116561867Y-87213923D02*
X116803772Y-87213923D01*
X116803772Y-87213923D02*
X116900534Y-87262304D01*
X116900534Y-87262304D02*
X116948915Y-87310685D01*
X116948915Y-87310685D02*
X116997295Y-87407447D01*
X116997295Y-87407447D02*
X116997295Y-87697733D01*
X116997295Y-87697733D02*
X116948915Y-87794495D01*
X116948915Y-87794495D02*
X116900534Y-87842876D01*
X116997295Y-86246304D02*
X116997295Y-86826876D01*
X116997295Y-86536590D02*
X115981295Y-86536590D01*
X115981295Y-86536590D02*
X116126438Y-86633352D01*
X116126438Y-86633352D02*
X116223200Y-86730114D01*
X116223200Y-86730114D02*
X116271581Y-86826876D01*
X130918857Y-103052695D02*
X130580190Y-102568886D01*
X130338285Y-103052695D02*
X130338285Y-102036695D01*
X130338285Y-102036695D02*
X130725333Y-102036695D01*
X130725333Y-102036695D02*
X130822095Y-102085076D01*
X130822095Y-102085076D02*
X130870476Y-102133457D01*
X130870476Y-102133457D02*
X130918857Y-102230219D01*
X130918857Y-102230219D02*
X130918857Y-102375362D01*
X130918857Y-102375362D02*
X130870476Y-102472124D01*
X130870476Y-102472124D02*
X130822095Y-102520505D01*
X130822095Y-102520505D02*
X130725333Y-102568886D01*
X130725333Y-102568886D02*
X130338285Y-102568886D01*
X131257523Y-102036695D02*
X131886476Y-102036695D01*
X131886476Y-102036695D02*
X131547809Y-102423743D01*
X131547809Y-102423743D02*
X131692952Y-102423743D01*
X131692952Y-102423743D02*
X131789714Y-102472124D01*
X131789714Y-102472124D02*
X131838095Y-102520505D01*
X131838095Y-102520505D02*
X131886476Y-102617267D01*
X131886476Y-102617267D02*
X131886476Y-102859172D01*
X131886476Y-102859172D02*
X131838095Y-102955934D01*
X131838095Y-102955934D02*
X131789714Y-103004315D01*
X131789714Y-103004315D02*
X131692952Y-103052695D01*
X131692952Y-103052695D02*
X131402666Y-103052695D01*
X131402666Y-103052695D02*
X131305904Y-103004315D01*
X131305904Y-103004315D02*
X131257523Y-102955934D01*
X132273523Y-102133457D02*
X132321904Y-102085076D01*
X132321904Y-102085076D02*
X132418666Y-102036695D01*
X132418666Y-102036695D02*
X132660571Y-102036695D01*
X132660571Y-102036695D02*
X132757333Y-102085076D01*
X132757333Y-102085076D02*
X132805714Y-102133457D01*
X132805714Y-102133457D02*
X132854095Y-102230219D01*
X132854095Y-102230219D02*
X132854095Y-102326981D01*
X132854095Y-102326981D02*
X132805714Y-102472124D01*
X132805714Y-102472124D02*
X132225142Y-103052695D01*
X132225142Y-103052695D02*
X132854095Y-103052695D01*
D11*
X120044457Y-106572892D02*
X119996076Y-106621273D01*
X119996076Y-106621273D02*
X119850933Y-106669653D01*
X119850933Y-106669653D02*
X119754171Y-106669653D01*
X119754171Y-106669653D02*
X119609028Y-106621273D01*
X119609028Y-106621273D02*
X119512266Y-106524511D01*
X119512266Y-106524511D02*
X119463885Y-106427749D01*
X119463885Y-106427749D02*
X119415504Y-106234225D01*
X119415504Y-106234225D02*
X119415504Y-106089082D01*
X119415504Y-106089082D02*
X119463885Y-105895558D01*
X119463885Y-105895558D02*
X119512266Y-105798796D01*
X119512266Y-105798796D02*
X119609028Y-105702034D01*
X119609028Y-105702034D02*
X119754171Y-105653653D01*
X119754171Y-105653653D02*
X119850933Y-105653653D01*
X119850933Y-105653653D02*
X119996076Y-105702034D01*
X119996076Y-105702034D02*
X120044457Y-105750415D01*
X120431504Y-105750415D02*
X120479885Y-105702034D01*
X120479885Y-105702034D02*
X120576647Y-105653653D01*
X120576647Y-105653653D02*
X120818552Y-105653653D01*
X120818552Y-105653653D02*
X120915314Y-105702034D01*
X120915314Y-105702034D02*
X120963695Y-105750415D01*
X120963695Y-105750415D02*
X121012076Y-105847177D01*
X121012076Y-105847177D02*
X121012076Y-105943939D01*
X121012076Y-105943939D02*
X120963695Y-106089082D01*
X120963695Y-106089082D02*
X120383123Y-106669653D01*
X120383123Y-106669653D02*
X121012076Y-106669653D01*
X121641028Y-105653653D02*
X121737790Y-105653653D01*
X121737790Y-105653653D02*
X121834552Y-105702034D01*
X121834552Y-105702034D02*
X121882933Y-105750415D01*
X121882933Y-105750415D02*
X121931314Y-105847177D01*
X121931314Y-105847177D02*
X121979695Y-106040701D01*
X121979695Y-106040701D02*
X121979695Y-106282606D01*
X121979695Y-106282606D02*
X121931314Y-106476130D01*
X121931314Y-106476130D02*
X121882933Y-106572892D01*
X121882933Y-106572892D02*
X121834552Y-106621273D01*
X121834552Y-106621273D02*
X121737790Y-106669653D01*
X121737790Y-106669653D02*
X121641028Y-106669653D01*
X121641028Y-106669653D02*
X121544266Y-106621273D01*
X121544266Y-106621273D02*
X121495885Y-106572892D01*
X121495885Y-106572892D02*
X121447504Y-106476130D01*
X121447504Y-106476130D02*
X121399123Y-106282606D01*
X121399123Y-106282606D02*
X121399123Y-106040701D01*
X121399123Y-106040701D02*
X121447504Y-105847177D01*
X121447504Y-105847177D02*
X121495885Y-105750415D01*
X121495885Y-105750415D02*
X121544266Y-105702034D01*
X121544266Y-105702034D02*
X121641028Y-105653653D01*
D10*
X122633504Y-109156295D02*
X122633504Y-109978772D01*
X122633504Y-109978772D02*
X122681885Y-110075534D01*
X122681885Y-110075534D02*
X122730266Y-110123915D01*
X122730266Y-110123915D02*
X122827028Y-110172295D01*
X122827028Y-110172295D02*
X123020552Y-110172295D01*
X123020552Y-110172295D02*
X123117314Y-110123915D01*
X123117314Y-110123915D02*
X123165695Y-110075534D01*
X123165695Y-110075534D02*
X123214076Y-109978772D01*
X123214076Y-109978772D02*
X123214076Y-109156295D01*
X124133314Y-109494962D02*
X124133314Y-110172295D01*
X123891409Y-109107915D02*
X123649504Y-109833629D01*
X123649504Y-109833629D02*
X124278457Y-109833629D01*
X112713104Y-92003695D02*
X112713104Y-92826172D01*
X112713104Y-92826172D02*
X112761485Y-92922934D01*
X112761485Y-92922934D02*
X112809866Y-92971315D01*
X112809866Y-92971315D02*
X112906628Y-93019695D01*
X112906628Y-93019695D02*
X113100152Y-93019695D01*
X113100152Y-93019695D02*
X113196914Y-92971315D01*
X113196914Y-92971315D02*
X113245295Y-92922934D01*
X113245295Y-92922934D02*
X113293676Y-92826172D01*
X113293676Y-92826172D02*
X113293676Y-92003695D01*
X113729104Y-92100457D02*
X113777485Y-92052076D01*
X113777485Y-92052076D02*
X113874247Y-92003695D01*
X113874247Y-92003695D02*
X114116152Y-92003695D01*
X114116152Y-92003695D02*
X114212914Y-92052076D01*
X114212914Y-92052076D02*
X114261295Y-92100457D01*
X114261295Y-92100457D02*
X114309676Y-92197219D01*
X114309676Y-92197219D02*
X114309676Y-92293981D01*
X114309676Y-92293981D02*
X114261295Y-92439124D01*
X114261295Y-92439124D02*
X113680723Y-93019695D01*
X113680723Y-93019695D02*
X114309676Y-93019695D01*
D12*
X123318000Y-88712021D02*
X123318000Y-88376779D01*
X124078000Y-88712021D02*
X124078000Y-88376779D01*
X123216400Y-84241621D02*
X123216400Y-83906379D01*
X123976400Y-84241621D02*
X123976400Y-83906379D01*
X122666779Y-80595200D02*
X123002021Y-80595200D01*
X122666779Y-81355200D02*
X123002021Y-81355200D01*
X122654679Y-78309200D02*
X122989921Y-78309200D01*
X122654679Y-79069200D02*
X122989921Y-79069200D01*
X134527600Y-89256400D02*
X136627600Y-89256400D01*
X134527600Y-74036400D02*
X136627600Y-74036400D01*
X129027600Y-89256400D02*
X131827600Y-89256400D01*
X129027600Y-74036400D02*
X131827600Y-74036400D01*
X125477600Y-88346400D02*
X125477600Y-86546400D01*
X125477600Y-76746400D02*
X125477600Y-74946400D01*
X124727600Y-76746400D02*
X125477600Y-76746400D01*
X132775979Y-92126800D02*
X133111221Y-92126800D01*
X132775979Y-92886800D02*
X133111221Y-92886800D01*
X132775979Y-91009200D02*
X133111221Y-91009200D01*
X132775979Y-91769200D02*
X133111221Y-91769200D01*
X125276100Y-96764121D02*
X125276100Y-96428879D01*
X126036100Y-96764121D02*
X126036100Y-96428879D01*
X126159879Y-92253800D02*
X126495121Y-92253800D01*
X126159879Y-93013800D02*
X126495121Y-93013800D01*
X132384800Y-100251400D02*
X133034800Y-100251400D01*
X132384800Y-100251400D02*
X131734800Y-100251400D01*
X132384800Y-97131400D02*
X133034800Y-97131400D01*
X132384800Y-97131400D02*
X131734800Y-97131400D01*
X133787300Y-100531400D02*
X133307300Y-100531400D01*
X133547300Y-100201400D01*
X133787300Y-100531400D01*
G36*
X133787300Y-100531400D02*
G01*
X133307300Y-100531400D01*
X133547300Y-100201400D01*
X133787300Y-100531400D01*
G37*
X133787300Y-96871600D02*
X133307300Y-96871600D01*
X133547300Y-96541600D01*
X133787300Y-96871600D01*
G36*
X133787300Y-96871600D02*
G01*
X133307300Y-96871600D01*
X133547300Y-96541600D01*
X133787300Y-96871600D01*
G37*
X132384800Y-93471600D02*
X131734800Y-93471600D01*
X132384800Y-93471600D02*
X133034800Y-93471600D01*
X132384800Y-96591600D02*
X131734800Y-96591600D01*
X132384800Y-96591600D02*
X133034800Y-96591600D01*
X128219200Y-97144400D02*
X127569200Y-97144400D01*
X128219200Y-97144400D02*
X128869200Y-97144400D01*
X128219200Y-100264400D02*
X127569200Y-100264400D01*
X128219200Y-100264400D02*
X128869200Y-100264400D01*
X127056700Y-97194400D02*
X126816700Y-96864400D01*
X127296700Y-96864400D01*
X127056700Y-97194400D01*
G36*
X127056700Y-97194400D02*
G01*
X126816700Y-96864400D01*
X127296700Y-96864400D01*
X127056700Y-97194400D01*
G37*
X128223800Y-93471600D02*
X127573800Y-93471600D01*
X128223800Y-93471600D02*
X128873800Y-93471600D01*
X128223800Y-96591600D02*
X127573800Y-96591600D01*
X128223800Y-96591600D02*
X128873800Y-96591600D01*
X127061300Y-93521600D02*
X126821300Y-93191600D01*
X127301300Y-93191600D01*
X127061300Y-93521600D01*
G36*
X127061300Y-93521600D02*
G01*
X126821300Y-93191600D01*
X127301300Y-93191600D01*
X127061300Y-93521600D01*
G37*
X126517000Y-103320000D02*
X126517000Y-103580000D01*
X126517000Y-108770000D02*
X126517000Y-108510000D01*
X129242000Y-103320000D02*
X126517000Y-103320000D01*
X129242000Y-103320000D02*
X131967000Y-103320000D01*
X129242000Y-108770000D02*
X126517000Y-108770000D01*
X129242000Y-108770000D02*
X131967000Y-108770000D01*
X131967000Y-103320000D02*
X131967000Y-103580000D01*
X131967000Y-108770000D02*
X131967000Y-108510000D01*
X132989500Y-108840000D02*
X132509500Y-108840000D01*
X132749500Y-108510000D01*
X132989500Y-108840000D01*
G36*
X132989500Y-108840000D02*
G01*
X132509500Y-108840000D01*
X132749500Y-108510000D01*
X132989500Y-108840000D01*
G37*
X112466800Y-97327265D02*
X112466800Y-97558935D01*
X113186800Y-97327265D02*
X113186800Y-97558935D01*
X114041600Y-90336635D02*
X114041600Y-90104965D01*
X114761600Y-90336635D02*
X114761600Y-90104965D01*
X117717835Y-89971200D02*
X117486165Y-89971200D01*
X117717835Y-89251200D02*
X117486165Y-89251200D01*
X122666779Y-79477600D02*
X123002021Y-79477600D01*
X122666779Y-80237600D02*
X123002021Y-80237600D01*
X118835435Y-83992700D02*
X118603765Y-83992700D01*
X118835435Y-83272700D02*
X118603765Y-83272700D01*
X117143600Y-103486852D02*
X117143600Y-102964348D01*
X115723600Y-103486852D02*
X115723600Y-102964348D01*
X119070800Y-102339065D02*
X119070800Y-102570735D01*
X119790800Y-102339065D02*
X119790800Y-102570735D01*
X122615979Y-77242400D02*
X122951221Y-77242400D01*
X122615979Y-78002400D02*
X122951221Y-78002400D01*
X122615979Y-76124800D02*
X122951221Y-76124800D01*
X122615979Y-76884800D02*
X122951221Y-76884800D01*
X125106165Y-101833000D02*
X125337835Y-101833000D01*
X125106165Y-101113000D02*
X125337835Y-101113000D01*
X119653035Y-87946300D02*
X119421365Y-87946300D01*
X119653035Y-88666300D02*
X119421365Y-88666300D01*
X122048000Y-82971621D02*
X122048000Y-82636379D01*
X122808000Y-82971621D02*
X122808000Y-82636379D01*
X123973000Y-97166165D02*
X123973000Y-97397835D01*
X124693000Y-97166165D02*
X124693000Y-97397835D01*
X115066400Y-102305665D02*
X115066400Y-102537335D01*
X114346400Y-102305665D02*
X114346400Y-102537335D01*
X120147600Y-110460200D02*
X120147600Y-108660200D01*
X116927600Y-109460200D02*
X116927600Y-110260200D01*
X116927600Y-109460200D02*
X116927600Y-108660200D01*
X116977600Y-110760200D02*
X116647600Y-111000200D01*
X116647600Y-110520200D01*
X116977600Y-110760200D01*
G36*
X116977600Y-110760200D02*
G01*
X116647600Y-111000200D01*
X116647600Y-110520200D01*
X116977600Y-110760200D01*
G37*
X122442235Y-107640800D02*
X122210565Y-107640800D01*
X122442235Y-108360800D02*
X122210565Y-108360800D01*
X117699200Y-102339065D02*
X117699200Y-102570735D01*
X118419200Y-102339065D02*
X118419200Y-102570735D01*
X122615979Y-75058000D02*
X122951221Y-75058000D01*
X122615979Y-75818000D02*
X122951221Y-75818000D01*
D13*
X120650700Y-88033100D02*
G75*
G02*
X120450700Y-88033100I-100000J0D01*
G01*
X120450700Y-88033100D02*
G75*
G02*
X120650700Y-88033100I100000J0D01*
G01*
D12*
X130388379Y-91009200D02*
X130723621Y-91009200D01*
X130388379Y-91769200D02*
X130723621Y-91769200D01*
X116835600Y-113413465D02*
X116835600Y-113645135D01*
X117555600Y-113413465D02*
X117555600Y-113645135D01*
X130403979Y-92126800D02*
X130739221Y-92126800D01*
X130403979Y-92886800D02*
X130739221Y-92886800D01*
X113186800Y-95001535D02*
X113186800Y-94769865D01*
X112466800Y-95001535D02*
X112466800Y-94769865D01*
X120617100Y-90222235D02*
X120617100Y-89990565D01*
X119897100Y-90222235D02*
X119897100Y-89990565D01*
X113838958Y-107390000D02*
X114659442Y-107390000D01*
X113838958Y-108510000D02*
X114659442Y-108510000D01*
X120036000Y-103389165D02*
X120036000Y-103620835D01*
X120756000Y-103389165D02*
X120756000Y-103620835D01*
X114664800Y-81940400D02*
X114664800Y-87080400D01*
X112004800Y-87080400D02*
X114664800Y-87080400D01*
X112004800Y-81940400D02*
X114664800Y-81940400D01*
X112004800Y-81940400D02*
X112004800Y-87080400D01*
X112004800Y-80670400D02*
X112004800Y-79340400D01*
X112004800Y-79340400D02*
X113334800Y-79340400D01*
X124693000Y-94753165D02*
X124693000Y-94984835D01*
X123973000Y-94753165D02*
X123973000Y-94984835D01*
X114009435Y-100224000D02*
X113777765Y-100224000D01*
X114009435Y-100944000D02*
X113777765Y-100944000D01*
X121833621Y-113056400D02*
X121498379Y-113056400D01*
X121833621Y-113816400D02*
X121498379Y-113816400D01*
X123162135Y-114863200D02*
X122930465Y-114863200D01*
X123162135Y-114143200D02*
X122930465Y-114143200D01*
X113918000Y-102986821D02*
X113918000Y-102651579D01*
X113158000Y-102986821D02*
X113158000Y-102651579D01*
X128102379Y-101853000D02*
X128437621Y-101853000D01*
X128102379Y-101093000D02*
X128437621Y-101093000D01*
X117387900Y-87529079D02*
X117387900Y-87864321D01*
X118147900Y-87529079D02*
X118147900Y-87864321D01*
X131879921Y-101067600D02*
X131544679Y-101067600D01*
X131879921Y-101827600D02*
X131544679Y-101827600D01*
X118273435Y-105850200D02*
X118041765Y-105850200D01*
X118273435Y-106570200D02*
X118041765Y-106570200D01*
X126517000Y-109543000D02*
X126517000Y-109803000D01*
X126517000Y-114993000D02*
X126517000Y-114733000D01*
X129242000Y-109543000D02*
X126517000Y-109543000D01*
X129242000Y-109543000D02*
X131967000Y-109543000D01*
X129242000Y-114993000D02*
X126517000Y-114993000D01*
X129242000Y-114993000D02*
X131967000Y-114993000D01*
X131967000Y-109543000D02*
X131967000Y-109803000D01*
X131967000Y-114993000D02*
X131967000Y-114733000D01*
X132989500Y-115063000D02*
X132509500Y-115063000D01*
X132749500Y-114733000D01*
X132989500Y-115063000D01*
G36*
X132989500Y-115063000D02*
G01*
X132509500Y-115063000D01*
X132749500Y-114733000D01*
X132989500Y-115063000D01*
G37*
X115461800Y-99418800D02*
X115461800Y-98968800D01*
X115911800Y-99418800D02*
X115461800Y-99418800D01*
X122231800Y-99418800D02*
X122681800Y-99418800D01*
X115461800Y-92198800D02*
X115461800Y-92648800D01*
X115911800Y-92198800D02*
X115461800Y-92198800D01*
X122231800Y-92198800D02*
X122681800Y-92198800D01*
X122681800Y-92198800D02*
X122681800Y-92648800D01*
X115426800Y-114923800D02*
X114096800Y-114923800D01*
X115426800Y-113593800D02*
X115426800Y-114923800D01*
X115426800Y-112323800D02*
X115426800Y-109723800D01*
X115426800Y-112323800D02*
X112766800Y-112323800D01*
X115426800Y-109723800D02*
X112766800Y-109723800D01*
X112766800Y-112323800D02*
X112766800Y-109723800D01*
X114664800Y-72760600D02*
X114664800Y-77900600D01*
X112004800Y-77900600D02*
X114664800Y-77900600D01*
X112004800Y-72760600D02*
X114664800Y-72760600D01*
X112004800Y-72760600D02*
X112004800Y-77900600D01*
X112004800Y-71490600D02*
X112004800Y-70160600D01*
X112004800Y-70160600D02*
X113334800Y-70160600D01*
%LPC*%
D14*
X123698000Y-89141900D03*
X123698000Y-87946900D03*
X123596400Y-84671500D03*
X123596400Y-83476500D03*
D15*
X122236900Y-80975200D03*
X123431900Y-80975200D03*
X122224800Y-78689200D03*
X123419800Y-78689200D03*
D16*
X133147600Y-88896400D03*
X133147600Y-74396400D03*
D17*
X127187600Y-88896400D03*
X127187600Y-74396400D03*
D18*
X126427600Y-86146400D03*
X126427600Y-85646400D03*
X126427600Y-85146400D03*
X126427600Y-84646400D03*
X126427600Y-84146400D03*
X126427600Y-83646400D03*
X126427600Y-83146400D03*
X126427600Y-82646400D03*
X126427600Y-82146400D03*
X126427600Y-81646400D03*
X126427600Y-81146400D03*
X126427600Y-80646400D03*
X126427600Y-80146400D03*
X126427600Y-79646400D03*
X126427600Y-79146400D03*
X126427600Y-78646400D03*
X126427600Y-78146400D03*
X126427600Y-77646400D03*
X126427600Y-77146400D03*
D15*
X132346100Y-92506800D03*
X133541100Y-92506800D03*
X132346100Y-91389200D03*
X133541100Y-91389200D03*
D14*
X125656100Y-97194000D03*
X125656100Y-95999000D03*
D15*
X125730000Y-92633800D03*
X126925000Y-92633800D03*
D19*
X133322300Y-99641400D03*
X133322300Y-97741400D03*
X131447300Y-98691400D03*
X131447300Y-95031600D03*
X133322300Y-94081600D03*
X133322300Y-95981600D03*
D20*
X127281700Y-97754400D03*
X127281700Y-99654400D03*
X129156700Y-98704400D03*
X127286300Y-94081600D03*
X127286300Y-95981600D03*
X129161300Y-95031600D03*
D21*
X132842000Y-107950000D03*
X132842000Y-106680000D03*
X132842000Y-105410000D03*
X132842000Y-104140000D03*
X125642000Y-104140000D03*
X125642000Y-105410000D03*
X125642000Y-106680000D03*
X125642000Y-107950000D03*
D22*
X112826800Y-98010600D03*
X112826800Y-96875600D03*
D23*
X114401600Y-90788300D03*
X114401600Y-89653300D03*
D24*
X118169500Y-89611200D03*
X117034500Y-89611200D03*
D15*
X122236900Y-79857600D03*
X123431900Y-79857600D03*
D24*
X119287100Y-83632700D03*
X118152100Y-83632700D03*
D25*
X116433600Y-104250600D03*
X116433600Y-102200600D03*
D22*
X119430800Y-101887400D03*
X119430800Y-103022400D03*
D15*
X122186100Y-77622400D03*
X123381100Y-77622400D03*
X122186100Y-76504800D03*
X123381100Y-76504800D03*
D26*
X124654500Y-101473000D03*
X125789500Y-101473000D03*
D24*
X120104700Y-88306300D03*
X118969700Y-88306300D03*
D14*
X122428000Y-83401500D03*
X122428000Y-82206500D03*
D22*
X124333000Y-96714500D03*
X124333000Y-97849500D03*
X114706400Y-101854000D03*
X114706400Y-102989000D03*
D27*
X117587600Y-110910200D03*
X118537600Y-110910200D03*
X119487600Y-110910200D03*
X119487600Y-108210200D03*
X117587600Y-108210200D03*
D24*
X122893900Y-108000800D03*
X121758900Y-108000800D03*
D22*
X118059200Y-101887400D03*
X118059200Y-103022400D03*
D15*
X122186100Y-75438000D03*
X123381100Y-75438000D03*
D28*
X120500700Y-86833100D03*
X120500700Y-85133100D03*
X119200700Y-85133100D03*
X119200700Y-86833100D03*
D15*
X129958500Y-91389200D03*
X131153500Y-91389200D03*
D22*
X117195600Y-112961800D03*
X117195600Y-114096800D03*
D15*
X129974100Y-92506800D03*
X131169100Y-92506800D03*
D23*
X112826800Y-95453200D03*
X112826800Y-94318200D03*
X120257100Y-90673900D03*
X120257100Y-89538900D03*
D29*
X113099200Y-107950000D03*
X115399200Y-107950000D03*
D22*
X120396000Y-102937500D03*
X120396000Y-104072500D03*
D30*
X113334800Y-80670400D03*
D31*
X113334800Y-83210400D03*
X113334800Y-85750400D03*
D22*
X124333000Y-94301500D03*
X124333000Y-95436500D03*
D24*
X113326100Y-100584000D03*
X114461100Y-100584000D03*
D32*
X122263500Y-113436400D03*
X121068500Y-113436400D03*
D24*
X123613800Y-114503200D03*
X122478800Y-114503200D03*
D14*
X113538000Y-103416700D03*
X113538000Y-102221700D03*
D15*
X127672500Y-101473000D03*
X128867500Y-101473000D03*
D33*
X117767900Y-87099200D03*
X117767900Y-88294200D03*
D32*
X132309800Y-101447600D03*
X131114800Y-101447600D03*
D24*
X118725100Y-106210200D03*
X117590100Y-106210200D03*
D21*
X132842000Y-114173000D03*
X132842000Y-112903000D03*
X132842000Y-111633000D03*
X132842000Y-110363000D03*
X125642000Y-110363000D03*
X125642000Y-111633000D03*
X125642000Y-112903000D03*
X125642000Y-114173000D03*
D34*
X122509300Y-98608800D03*
D35*
X122509300Y-98208800D03*
X122509300Y-97808800D03*
X122509300Y-97408800D03*
X122509300Y-97008800D03*
X122509300Y-96608800D03*
X122509300Y-96208800D03*
X122509300Y-95808800D03*
X122509300Y-95408800D03*
X122509300Y-95008800D03*
X122509300Y-94608800D03*
X122509300Y-94208800D03*
X122509300Y-93808800D03*
X122509300Y-93408800D03*
D36*
X122509300Y-93008800D03*
D37*
X121871800Y-92371300D03*
D38*
X121471800Y-92371300D03*
X121071800Y-92371300D03*
X120671800Y-92371300D03*
X120271800Y-92371300D03*
X119871800Y-92371300D03*
X119471800Y-92371300D03*
X119071800Y-92371300D03*
X118671800Y-92371300D03*
X118271800Y-92371300D03*
X117871800Y-92371300D03*
X117471800Y-92371300D03*
X117071800Y-92371300D03*
X116671800Y-92371300D03*
D39*
X116271800Y-92371300D03*
D40*
X115634300Y-93008800D03*
D35*
X115634300Y-93408800D03*
X115634300Y-93808800D03*
X115634300Y-94208800D03*
X115634300Y-94608800D03*
X115634300Y-95008800D03*
X115634300Y-95408800D03*
X115634300Y-95808800D03*
X115634300Y-96208800D03*
X115634300Y-96608800D03*
X115634300Y-97008800D03*
X115634300Y-97408800D03*
X115634300Y-97808800D03*
X115634300Y-98208800D03*
D41*
X115634300Y-98608800D03*
D42*
X116271800Y-99246300D03*
D38*
X116671800Y-99246300D03*
X117071800Y-99246300D03*
X117471800Y-99246300D03*
X117871800Y-99246300D03*
X118271800Y-99246300D03*
X118671800Y-99246300D03*
X119071800Y-99246300D03*
X119471800Y-99246300D03*
X119871800Y-99246300D03*
X120271800Y-99246300D03*
X120671800Y-99246300D03*
X121071800Y-99246300D03*
X121471800Y-99246300D03*
D43*
X121871800Y-99246300D03*
D44*
X119071800Y-95808800D03*
D30*
X114096800Y-113593800D03*
D31*
X114096800Y-111053800D03*
X113334800Y-76570600D03*
X113334800Y-74030600D03*
D30*
X113334800Y-71490600D03*
%LPD*%
M02*
