M48
; DRILL file {KiCad 8.0.6} date 2024-12-19T22:23:24+0100
; FORMAT={-:-/ absolute / metric / decimal}
; #@! TF.CreationDate,2024-12-19T22:23:24+01:00
; #@! TF.GenerationSoftware,Kicad,Pcbnew,8.0.6
; #@! TF.FileFunction,Plated,1,4,PTH
FMAT,2
METRIC
; #@! TA.AperFunction,Plated,PTH,ViaDrill
T1C0.305
; #@! TA.AperFunction,Plated,PTH,ComponentDrill
T2C0.350
; #@! TA.AperFunction,Plated,PTH,ComponentDrill
T3C0.900
; #@! TA.AperFunction,Plated,PTH,ComponentDrill
T4C1.000
%
G90
G05
T1
X112.065Y-94.285
X112.471Y-98.806
X112.573Y-100.076
X112.776Y-93.167
X112.827Y-91.846
X113.182Y-99.365
X113.64Y-90.729
X113.741Y-94.031
X113.792Y-95.301
X113.792Y-98.196
X113.843Y-96.774
X114.275Y-92.583
X114.402Y-88.748
X114.706Y-103.784
X115.621Y-91.643
X116.434Y-100.787
X116.586Y-106.223
X116.891Y-88.798
X117.196Y-83.566
X117.297Y-90.526
X117.45Y-93.472
X118.008Y-103.835
X118.11Y-90.576
X118.313Y-86.055
X118.466Y-115.062
X118.567Y-112.827
X119.482Y-103.835
X119.488Y-114.712
X120.244Y-113.436
X121.006Y-104.546
X121.019Y-88.887
X121.375Y-85.157
X121.412Y-114.275
X121.818Y-108.966
X123.495Y-113.487
X123.571Y-95.631
X123.825Y-99.441
X124.46Y-92.989
X124.511Y-89.205
X124.536Y-91.694
X124.968Y-98.044
X125.222Y-99.568
X125.578Y-94.59
X126.619Y-101.473
X127.381Y-98.755
X128.118Y-104.648
X128.27Y-82.146
X128.321Y-80.646
X128.321Y-85.141
X128.372Y-79.146
X128.422Y-77.646
X129.032Y-112.852
X130.073Y-101.498
X130.81Y-112.268
X131.623Y-104.089
X132.791Y-109.372
X133.502Y-95.098
X133.655Y-101.346
X134.366Y-92.507
T2
X117.697Y-94.434
X117.697Y-95.809
X117.697Y-97.184
X119.072Y-94.434
X119.072Y-95.809
X119.072Y-97.184
X120.447Y-94.434
X120.447Y-95.809
X120.447Y-97.184
T4
X113.335Y-71.491
X113.335Y-74.031
X113.335Y-76.571
X113.335Y-80.67
X113.335Y-83.21
X113.335Y-85.75
X114.097Y-111.054
X114.097Y-113.594
T3
X126.288Y-74.396G85X128.088Y-74.396
G05
X126.288Y-88.896G85X128.088Y-88.896
G05
X132.748Y-74.396G85X133.548Y-74.396
G05
X132.748Y-88.896G85X133.548Y-88.896
G05
M30
