%TF.GenerationSoftware,KiCad,Pcbnew,8.0.6*%
%TF.CreationDate,2024-12-19T19:50:33+01:00*%
%TF.ProjectId,gpu_extension,6770755f-6578-4746-956e-73696f6e2e6b,rev?*%
%TF.SameCoordinates,Original*%
%TF.FileFunction,Soldermask,Bot*%
%TF.FilePolarity,Negative*%
%FSLAX46Y46*%
G04 Gerber Fmt 4.6, Leading zero omitted, Abs format (unit mm)*
G04 Created by KiCad (PCBNEW 8.0.6) date 2024-12-19 19:50:33*
%MOMM*%
%LPD*%
G01*
G04 APERTURE LIST*
%ADD10O,1.700000X1.700000*%
%ADD11R,1.700000X1.700000*%
%ADD12C,4.000000*%
%ADD13R,1.600000X1.600000*%
%ADD14C,1.600000*%
%ADD15R,0.740000X2.400000*%
G04 APERTURE END LIST*
D10*
X117348000Y-88392000D03*
X117348000Y-85852000D03*
D11*
X117348000Y-83312000D03*
D12*
X135351600Y-96266200D03*
X135351600Y-71266200D03*
D13*
X133301600Y-79451200D03*
D14*
X133301600Y-81741200D03*
X133301600Y-84031200D03*
X133301600Y-86321200D03*
X133301600Y-88611200D03*
X135281600Y-78306200D03*
X135281600Y-80596200D03*
X135281600Y-82886200D03*
X135281600Y-85176200D03*
X135281600Y-87466200D03*
X137261600Y-79451200D03*
X137261600Y-81741200D03*
X137261600Y-84031200D03*
X137261600Y-86321200D03*
X137261600Y-88611200D03*
D11*
X136906000Y-112826800D03*
D10*
X136906000Y-115366800D03*
D11*
X136906000Y-108356400D03*
D10*
X136906000Y-105816400D03*
X136906000Y-103276400D03*
D15*
X133350000Y-112948000D03*
X133350000Y-109048000D03*
X132080000Y-112948000D03*
X132080000Y-109048000D03*
X130810000Y-112948000D03*
X130810000Y-109048000D03*
X129540000Y-112948000D03*
X129540000Y-109048000D03*
X128270000Y-112948000D03*
X128270000Y-109048000D03*
X127000000Y-112948000D03*
X127000000Y-109048000D03*
X125730000Y-112948000D03*
X125730000Y-109048000D03*
X124460000Y-112948000D03*
X124460000Y-109048000D03*
X123190000Y-112948000D03*
X123190000Y-109048000D03*
X121920000Y-112948000D03*
X121920000Y-109048000D03*
M02*
