M48
; DRILL file {KiCad 8.0.6} date 2024-12-19T19:50:35+0100
; FORMAT={-:-/ absolute / metric / decimal}
; #@! TF.CreationDate,2024-12-19T19:50:35+01:00
; #@! TF.GenerationSoftware,Kicad,Pcbnew,8.0.6
; #@! TF.FileFunction,Plated,1,4,PTH
FMAT,2
METRIC
; #@! TA.AperFunction,Plated,PTH,ViaDrill
T1C0.305
; #@! TA.AperFunction,Plated,PTH,ComponentDrill
T2C0.350
; #@! TA.AperFunction,Plated,PTH,ComponentDrill
T3C1.000
; #@! TA.AperFunction,Plated,PTH,ComponentDrill
T4C3.200
%
G90
G05
T1
X115.976Y-96.977
X116.027Y-94.793
X116.027Y-95.91
X116.078Y-114.097
X116.332Y-105.969
X116.84Y-107.34
X117.043Y-98.196
X117.653Y-111.354
X118.11Y-103.073
X118.669Y-109.474
X118.72Y-90.322
X118.72Y-102.057
X119.177Y-93.675
X119.189Y-95.567
X119.228Y-100.889
X119.482Y-77.368
X119.634Y-89.51
X120.04Y-115.722
X120.091Y-103.632
X120.599Y-110.642
X120.599Y-111.811
X120.802Y-89.459
X121.006Y-107.493
X122.53Y-106.223
X122.885Y-99.06
X122.885Y-103.581
X123.19Y-107.188
X123.19Y-114.503
X123.266Y-91.542
X123.292Y-88.748
X123.698Y-79.146
X124.104Y-114.757
X124.358Y-88.697
X124.358Y-105.308
X124.663Y-103.886
X125.882Y-111.15
X125.933Y-103.48
X126.086Y-94.894
X126.086Y-96.266
X126.848Y-103.581
X127.102Y-105.105
X127.152Y-88.951
X127.66Y-84.887
X127.711Y-83.769
X127.711Y-92.202
X127.711Y-102.26
X127.762Y-101.346
X128.146Y-106.81
X128.575Y-93.624
X128.575Y-94.945
X128.575Y-95.758
X129.134Y-100.178
X129.388Y-114.859
X129.54Y-93.98
X129.896Y-78.689
X130.099Y-77.521
X130.607Y-86.614
X130.658Y-93.32
X130.708Y-88.087
X131.064Y-105.816
X132.08Y-106.68
X132.436Y-114.96
X133.045Y-116.942
X134.518Y-113.538
X134.569Y-112.573
T2
X122.291Y-95.052
X122.291Y-96.427
X122.291Y-97.802
X123.666Y-95.052
X123.666Y-96.427
X123.666Y-97.802
X125.041Y-95.052
X125.041Y-96.427
X125.041Y-97.802
T3
X117.348Y-83.312
X117.348Y-85.852
X117.348Y-88.392
X133.302Y-79.451
X133.302Y-81.741
X133.302Y-84.031
X133.302Y-86.321
X133.302Y-88.611
X135.282Y-78.306
X135.282Y-80.596
X135.282Y-82.886
X135.282Y-85.176
X135.282Y-87.466
X136.906Y-103.276
X136.906Y-105.816
X136.906Y-108.356
X136.906Y-112.827
X136.906Y-115.367
X137.262Y-79.451
X137.262Y-81.741
X137.262Y-84.031
X137.262Y-86.321
X137.262Y-88.611
T4
X135.352Y-71.266
X135.352Y-96.266
M30
