%TF.GenerationSoftware,KiCad,Pcbnew,8.0.6*%
%TF.CreationDate,2024-12-19T19:50:33+01:00*%
%TF.ProjectId,gpu_extension,6770755f-6578-4746-956e-73696f6e2e6b,rev?*%
%TF.SameCoordinates,Original*%
%TF.FileFunction,Soldermask,Top*%
%TF.FilePolarity,Negative*%
%FSLAX46Y46*%
G04 Gerber Fmt 4.6, Leading zero omitted, Abs format (unit mm)*
G04 Created by KiCad (PCBNEW 8.0.6) date 2024-12-19 19:50:33*
%MOMM*%
%LPD*%
G01*
G04 APERTURE LIST*
G04 Aperture macros list*
%AMRoundRect*
0 Rectangle with rounded corners*
0 $1 Rounding radius*
0 $2 $3 $4 $5 $6 $7 $8 $9 X,Y pos of 4 corners*
0 Add a 4 corners polygon primitive as box body*
4,1,4,$2,$3,$4,$5,$6,$7,$8,$9,$2,$3,0*
0 Add four circle primitives for the rounded corners*
1,1,$1+$1,$2,$3*
1,1,$1+$1,$4,$5*
1,1,$1+$1,$6,$7*
1,1,$1+$1,$8,$9*
0 Add four rect primitives between the rounded corners*
20,1,$1+$1,$2,$3,$4,$5,0*
20,1,$1+$1,$4,$5,$6,$7,0*
20,1,$1+$1,$6,$7,$8,$9,0*
20,1,$1+$1,$8,$9,$2,$3,0*%
%AMFreePoly0*
4,1,18,-0.437500,0.050000,-0.433694,0.069134,-0.422855,0.085355,-0.406634,0.096194,-0.387500,0.100000,0.387500,0.100000,0.437500,0.050000,0.437500,-0.050000,0.433694,-0.069134,0.422855,-0.085355,0.406634,-0.096194,0.387500,-0.100000,-0.387500,-0.100000,-0.406634,-0.096194,-0.422855,-0.085355,-0.433694,-0.069134,-0.437500,-0.050000,-0.437500,0.050000,-0.437500,0.050000,$1*%
%AMFreePoly1*
4,1,18,-0.437500,0.050000,-0.433694,0.069134,-0.422855,0.085355,-0.406634,0.096194,-0.387500,0.100000,0.387500,0.100000,0.406634,0.096194,0.422855,0.085355,0.433694,0.069134,0.437500,0.050000,0.437500,-0.050000,0.387500,-0.100000,-0.387500,-0.100000,-0.406634,-0.096194,-0.422855,-0.085355,-0.433694,-0.069134,-0.437500,-0.050000,-0.437500,0.050000,-0.437500,0.050000,$1*%
%AMFreePoly2*
4,1,18,-0.100000,0.387500,-0.050000,0.437500,0.050000,0.437500,0.069134,0.433694,0.085355,0.422855,0.096194,0.406634,0.100000,0.387500,0.100000,-0.387500,0.096194,-0.406634,0.085355,-0.422855,0.069134,-0.433694,0.050000,-0.437500,-0.050000,-0.437500,-0.069134,-0.433694,-0.085355,-0.422855,-0.096194,-0.406634,-0.100000,-0.387500,-0.100000,0.387500,-0.100000,0.387500,$1*%
%AMFreePoly3*
4,1,18,-0.100000,0.387500,-0.096194,0.406634,-0.085355,0.422855,-0.069134,0.433694,-0.050000,0.437500,0.050000,0.437500,0.100000,0.387500,0.100000,-0.387500,0.096194,-0.406634,0.085355,-0.422855,0.069134,-0.433694,0.050000,-0.437500,-0.050000,-0.437500,-0.069134,-0.433694,-0.085355,-0.422855,-0.096194,-0.406634,-0.100000,-0.387500,-0.100000,0.387500,-0.100000,0.387500,$1*%
%AMFreePoly4*
4,1,18,-0.437500,0.050000,-0.433694,0.069134,-0.422855,0.085355,-0.406634,0.096194,-0.387500,0.100000,0.387500,0.100000,0.406634,0.096194,0.422855,0.085355,0.433694,0.069134,0.437500,0.050000,0.437500,-0.050000,0.433694,-0.069134,0.422855,-0.085355,0.406634,-0.096194,0.387500,-0.100000,-0.387500,-0.100000,-0.437500,-0.050000,-0.437500,0.050000,-0.437500,0.050000,$1*%
%AMFreePoly5*
4,1,18,-0.437500,0.050000,-0.387500,0.100000,0.387500,0.100000,0.406634,0.096194,0.422855,0.085355,0.433694,0.069134,0.437500,0.050000,0.437500,-0.050000,0.433694,-0.069134,0.422855,-0.085355,0.406634,-0.096194,0.387500,-0.100000,-0.387500,-0.100000,-0.406634,-0.096194,-0.422855,-0.085355,-0.433694,-0.069134,-0.437500,-0.050000,-0.437500,0.050000,-0.437500,0.050000,$1*%
%AMFreePoly6*
4,1,18,-0.100000,0.387500,-0.096194,0.406634,-0.085355,0.422855,-0.069134,0.433694,-0.050000,0.437500,0.050000,0.437500,0.069134,0.433694,0.085355,0.422855,0.096194,0.406634,0.100000,0.387500,0.100000,-0.387500,0.050000,-0.437500,-0.050000,-0.437500,-0.069134,-0.433694,-0.085355,-0.422855,-0.096194,-0.406634,-0.100000,-0.387500,-0.100000,0.387500,-0.100000,0.387500,$1*%
%AMFreePoly7*
4,1,18,-0.100000,0.387500,-0.096194,0.406634,-0.085355,0.422855,-0.069134,0.433694,-0.050000,0.437500,0.050000,0.437500,0.069134,0.433694,0.085355,0.422855,0.096194,0.406634,0.100000,0.387500,0.100000,-0.387500,0.096194,-0.406634,0.085355,-0.422855,0.069134,-0.433694,0.050000,-0.437500,-0.050000,-0.437500,-0.100000,-0.387500,-0.100000,0.387500,-0.100000,0.387500,$1*%
G04 Aperture macros list end*
%ADD10O,1.700000X1.700000*%
%ADD11R,1.700000X1.700000*%
%ADD12RoundRect,0.160000X0.160000X-0.197500X0.160000X0.197500X-0.160000X0.197500X-0.160000X-0.197500X0*%
%ADD13RoundRect,0.160000X-0.160000X0.197500X-0.160000X-0.197500X0.160000X-0.197500X0.160000X0.197500X0*%
%ADD14RoundRect,0.150000X0.650000X0.150000X-0.650000X0.150000X-0.650000X-0.150000X0.650000X-0.150000X0*%
%ADD15RoundRect,0.160000X0.197500X0.160000X-0.197500X0.160000X-0.197500X-0.160000X0.197500X-0.160000X0*%
%ADD16RoundRect,0.155000X0.155000X-0.212500X0.155000X0.212500X-0.155000X0.212500X-0.155000X-0.212500X0*%
%ADD17FreePoly0,90.000000*%
%ADD18RoundRect,0.050000X0.050000X-0.387500X0.050000X0.387500X-0.050000X0.387500X-0.050000X-0.387500X0*%
%ADD19FreePoly1,90.000000*%
%ADD20FreePoly2,90.000000*%
%ADD21RoundRect,0.050000X0.387500X-0.050000X0.387500X0.050000X-0.387500X0.050000X-0.387500X-0.050000X0*%
%ADD22FreePoly3,90.000000*%
%ADD23FreePoly4,90.000000*%
%ADD24FreePoly5,90.000000*%
%ADD25FreePoly6,90.000000*%
%ADD26FreePoly7,90.000000*%
%ADD27RoundRect,0.153000X1.547000X1.547000X-1.547000X1.547000X-1.547000X-1.547000X1.547000X-1.547000X0*%
%ADD28RoundRect,0.250000X-0.450000X0.325000X-0.450000X-0.325000X0.450000X-0.325000X0.450000X0.325000X0*%
%ADD29RoundRect,0.155000X0.212500X0.155000X-0.212500X0.155000X-0.212500X-0.155000X0.212500X-0.155000X0*%
%ADD30RoundRect,0.155000X-0.155000X0.212500X-0.155000X-0.212500X0.155000X-0.212500X0.155000X0.212500X0*%
%ADD31C,4.000000*%
%ADD32R,1.600000X1.600000*%
%ADD33C,1.600000*%
%ADD34RoundRect,0.155000X-0.212500X-0.155000X0.212500X-0.155000X0.212500X0.155000X-0.212500X0.155000X0*%
%ADD35RoundRect,0.162500X-0.162500X0.617500X-0.162500X-0.617500X0.162500X-0.617500X0.162500X0.617500X0*%
%ADD36R,1.000000X1.200000*%
%ADD37RoundRect,0.250000X-0.275000X-0.350000X0.275000X-0.350000X0.275000X0.350000X-0.275000X0.350000X0*%
G04 APERTURE END LIST*
D10*
X117348000Y-88392000D03*
X117348000Y-85852000D03*
D11*
X117348000Y-83312000D03*
D12*
X124307600Y-78461800D03*
X124307600Y-77266800D03*
D13*
X122986800Y-77266800D03*
X122986800Y-78461800D03*
D12*
X121869200Y-80239800D03*
X121869200Y-79044800D03*
X121869200Y-82729000D03*
X121869200Y-81534000D03*
D13*
X122986800Y-79857600D03*
X122986800Y-81052600D03*
D12*
X124307600Y-81052600D03*
X124307600Y-79857600D03*
X121869200Y-77750600D03*
X121869200Y-76555600D03*
X120142000Y-76645100D03*
X120142000Y-75450100D03*
X117805200Y-80417600D03*
X117805200Y-79222600D03*
X117805200Y-78030000D03*
X117805200Y-76835000D03*
X120142000Y-79286700D03*
X120142000Y-78091700D03*
D13*
X118872000Y-75450100D03*
X118872000Y-76645100D03*
X118872000Y-78142500D03*
X118872000Y-79337500D03*
D12*
X117805200Y-75642400D03*
X117805200Y-74447400D03*
D14*
X118320000Y-116053000D03*
X118320000Y-114783000D03*
X118320000Y-113513000D03*
X118320000Y-112243000D03*
X125520000Y-112243000D03*
X125520000Y-113513000D03*
X125520000Y-114783000D03*
X125520000Y-116053000D03*
D15*
X128727200Y-116078000D03*
X127532200Y-116078000D03*
D16*
X116484400Y-116027200D03*
X116484400Y-114892200D03*
D14*
X118370800Y-108585400D03*
X118370800Y-107315400D03*
X118370800Y-106045400D03*
X118370800Y-104775400D03*
X125570800Y-104775400D03*
X125570800Y-106045400D03*
X125570800Y-107315400D03*
X125570800Y-108585400D03*
D16*
X120954800Y-91550300D03*
X120954800Y-90415300D03*
X123393200Y-89551700D03*
X123393200Y-90686700D03*
D17*
X120866400Y-99864400D03*
D18*
X121266400Y-99864400D03*
X121666400Y-99864400D03*
X122066400Y-99864400D03*
X122466400Y-99864400D03*
X122866400Y-99864400D03*
X123266400Y-99864400D03*
X123666400Y-99864400D03*
X124066400Y-99864400D03*
X124466400Y-99864400D03*
X124866400Y-99864400D03*
X125266400Y-99864400D03*
X125666400Y-99864400D03*
X126066400Y-99864400D03*
D19*
X126466400Y-99864400D03*
D20*
X127103900Y-99226900D03*
D21*
X127103900Y-98826900D03*
X127103900Y-98426900D03*
X127103900Y-98026900D03*
X127103900Y-97626900D03*
X127103900Y-97226900D03*
X127103900Y-96826900D03*
X127103900Y-96426900D03*
X127103900Y-96026900D03*
X127103900Y-95626900D03*
X127103900Y-95226900D03*
X127103900Y-94826900D03*
X127103900Y-94426900D03*
X127103900Y-94026900D03*
D22*
X127103900Y-93626900D03*
D23*
X126466400Y-92989400D03*
D18*
X126066400Y-92989400D03*
X125666400Y-92989400D03*
X125266400Y-92989400D03*
X124866400Y-92989400D03*
X124466400Y-92989400D03*
X124066400Y-92989400D03*
X123666400Y-92989400D03*
X123266400Y-92989400D03*
X122866400Y-92989400D03*
X122466400Y-92989400D03*
X122066400Y-92989400D03*
X121666400Y-92989400D03*
X121266400Y-92989400D03*
D24*
X120866400Y-92989400D03*
D25*
X120228900Y-93626900D03*
D21*
X120228900Y-94026900D03*
X120228900Y-94426900D03*
X120228900Y-94826900D03*
X120228900Y-95226900D03*
X120228900Y-95626900D03*
X120228900Y-96026900D03*
X120228900Y-96426900D03*
X120228900Y-96826900D03*
X120228900Y-97226900D03*
X120228900Y-97626900D03*
X120228900Y-98026900D03*
X120228900Y-98426900D03*
X120228900Y-98826900D03*
D26*
X120228900Y-99226900D03*
D27*
X123666400Y-96426900D03*
D13*
X118821200Y-91604500D03*
X118821200Y-92799500D03*
X129489200Y-102424900D03*
X129489200Y-103619900D03*
D28*
X117144800Y-93176200D03*
X117144800Y-91126200D03*
D29*
X117966300Y-95910400D03*
X116831300Y-95910400D03*
D30*
X125120400Y-101692900D03*
X125120400Y-102827900D03*
D16*
X119888000Y-91550300D03*
X119888000Y-90415300D03*
D31*
X135351600Y-96266200D03*
X135351600Y-71266200D03*
D32*
X133301600Y-79451200D03*
D33*
X133301600Y-81741200D03*
X133301600Y-84031200D03*
X133301600Y-86321200D03*
X133301600Y-88611200D03*
X135281600Y-78306200D03*
X135281600Y-80596200D03*
X135281600Y-82886200D03*
X135281600Y-85176200D03*
X135281600Y-87466200D03*
X137261600Y-79451200D03*
X137261600Y-81741200D03*
X137261600Y-84031200D03*
X137261600Y-86321200D03*
X137261600Y-88611200D03*
D29*
X118838600Y-110439200D03*
X117703600Y-110439200D03*
D11*
X136906000Y-112826800D03*
D10*
X136906000Y-115366800D03*
D29*
X117966300Y-94843600D03*
X116831300Y-94843600D03*
X117957600Y-96977200D03*
X116822600Y-96977200D03*
D15*
X129680300Y-84836000D03*
X128485300Y-84836000D03*
D30*
X129133600Y-98229800D03*
X129133600Y-99364800D03*
X120142000Y-101642100D03*
X120142000Y-102777100D03*
D15*
X129680300Y-83769200D03*
X128485300Y-83769200D03*
D11*
X136906000Y-108356400D03*
D10*
X136906000Y-105816400D03*
X136906000Y-103276400D03*
D16*
X124460000Y-90686700D03*
X124460000Y-89551700D03*
X127152400Y-90940700D03*
X127152400Y-89805700D03*
X129489200Y-95969900D03*
X129489200Y-94834900D03*
D34*
X128659000Y-86563200D03*
X129794000Y-86563200D03*
D13*
X128727200Y-91350500D03*
X128727200Y-92545500D03*
D15*
X131509100Y-114960400D03*
X130314100Y-114960400D03*
D30*
X130149600Y-91380500D03*
X130149600Y-92515500D03*
X122885200Y-102777100D03*
X122885200Y-101642100D03*
D35*
X132340000Y-112948000D03*
X130440000Y-112948000D03*
X130440000Y-110248000D03*
X131390000Y-110248000D03*
X132340000Y-110248000D03*
D13*
X128078900Y-78701300D03*
X128078900Y-79896300D03*
D36*
X129844800Y-89787200D03*
X129844800Y-88087200D03*
X128544800Y-88087200D03*
X128544800Y-89787200D03*
D12*
X129145700Y-79908400D03*
X129145700Y-78713400D03*
X126910500Y-78817400D03*
X126910500Y-77622400D03*
D30*
X134010400Y-109728000D03*
X134010400Y-110863000D03*
D12*
X126910500Y-81205000D03*
X126910500Y-80010000D03*
D15*
X129298100Y-77583700D03*
X128103100Y-77583700D03*
D30*
X133858000Y-115104100D03*
X133858000Y-116239100D03*
D37*
X130491200Y-108000800D03*
X132791200Y-108000800D03*
M02*
