%TF.GenerationSoftware,KiCad,Pcbnew,8.0.6*%
%TF.CreationDate,2024-12-19T19:50:33+01:00*%
%TF.ProjectId,gpu_extension,6770755f-6578-4746-956e-73696f6e2e6b,rev?*%
%TF.SameCoordinates,Original*%
%TF.FileFunction,Legend,Top*%
%TF.FilePolarity,Positive*%
%FSLAX46Y46*%
G04 Gerber Fmt 4.6, Leading zero omitted, Abs format (unit mm)*
G04 Created by KiCad (PCBNEW 8.0.6) date 2024-12-19 19:50:33*
%MOMM*%
%LPD*%
G01*
G04 APERTURE LIST*
G04 Aperture macros list*
%AMRoundRect*
0 Rectangle with rounded corners*
0 $1 Rounding radius*
0 $2 $3 $4 $5 $6 $7 $8 $9 X,Y pos of 4 corners*
0 Add a 4 corners polygon primitive as box body*
4,1,4,$2,$3,$4,$5,$6,$7,$8,$9,$2,$3,0*
0 Add four circle primitives for the rounded corners*
1,1,$1+$1,$2,$3*
1,1,$1+$1,$4,$5*
1,1,$1+$1,$6,$7*
1,1,$1+$1,$8,$9*
0 Add four rect primitives between the rounded corners*
20,1,$1+$1,$2,$3,$4,$5,0*
20,1,$1+$1,$4,$5,$6,$7,0*
20,1,$1+$1,$6,$7,$8,$9,0*
20,1,$1+$1,$8,$9,$2,$3,0*%
%AMFreePoly0*
4,1,18,-0.437500,0.050000,-0.433694,0.069134,-0.422855,0.085355,-0.406634,0.096194,-0.387500,0.100000,0.387500,0.100000,0.437500,0.050000,0.437500,-0.050000,0.433694,-0.069134,0.422855,-0.085355,0.406634,-0.096194,0.387500,-0.100000,-0.387500,-0.100000,-0.406634,-0.096194,-0.422855,-0.085355,-0.433694,-0.069134,-0.437500,-0.050000,-0.437500,0.050000,-0.437500,0.050000,$1*%
%AMFreePoly1*
4,1,18,-0.437500,0.050000,-0.433694,0.069134,-0.422855,0.085355,-0.406634,0.096194,-0.387500,0.100000,0.387500,0.100000,0.406634,0.096194,0.422855,0.085355,0.433694,0.069134,0.437500,0.050000,0.437500,-0.050000,0.387500,-0.100000,-0.387500,-0.100000,-0.406634,-0.096194,-0.422855,-0.085355,-0.433694,-0.069134,-0.437500,-0.050000,-0.437500,0.050000,-0.437500,0.050000,$1*%
%AMFreePoly2*
4,1,18,-0.100000,0.387500,-0.050000,0.437500,0.050000,0.437500,0.069134,0.433694,0.085355,0.422855,0.096194,0.406634,0.100000,0.387500,0.100000,-0.387500,0.096194,-0.406634,0.085355,-0.422855,0.069134,-0.433694,0.050000,-0.437500,-0.050000,-0.437500,-0.069134,-0.433694,-0.085355,-0.422855,-0.096194,-0.406634,-0.100000,-0.387500,-0.100000,0.387500,-0.100000,0.387500,$1*%
%AMFreePoly3*
4,1,18,-0.100000,0.387500,-0.096194,0.406634,-0.085355,0.422855,-0.069134,0.433694,-0.050000,0.437500,0.050000,0.437500,0.100000,0.387500,0.100000,-0.387500,0.096194,-0.406634,0.085355,-0.422855,0.069134,-0.433694,0.050000,-0.437500,-0.050000,-0.437500,-0.069134,-0.433694,-0.085355,-0.422855,-0.096194,-0.406634,-0.100000,-0.387500,-0.100000,0.387500,-0.100000,0.387500,$1*%
%AMFreePoly4*
4,1,18,-0.437500,0.050000,-0.433694,0.069134,-0.422855,0.085355,-0.406634,0.096194,-0.387500,0.100000,0.387500,0.100000,0.406634,0.096194,0.422855,0.085355,0.433694,0.069134,0.437500,0.050000,0.437500,-0.050000,0.433694,-0.069134,0.422855,-0.085355,0.406634,-0.096194,0.387500,-0.100000,-0.387500,-0.100000,-0.437500,-0.050000,-0.437500,0.050000,-0.437500,0.050000,$1*%
%AMFreePoly5*
4,1,18,-0.437500,0.050000,-0.387500,0.100000,0.387500,0.100000,0.406634,0.096194,0.422855,0.085355,0.433694,0.069134,0.437500,0.050000,0.437500,-0.050000,0.433694,-0.069134,0.422855,-0.085355,0.406634,-0.096194,0.387500,-0.100000,-0.387500,-0.100000,-0.406634,-0.096194,-0.422855,-0.085355,-0.433694,-0.069134,-0.437500,-0.050000,-0.437500,0.050000,-0.437500,0.050000,$1*%
%AMFreePoly6*
4,1,18,-0.100000,0.387500,-0.096194,0.406634,-0.085355,0.422855,-0.069134,0.433694,-0.050000,0.437500,0.050000,0.437500,0.069134,0.433694,0.085355,0.422855,0.096194,0.406634,0.100000,0.387500,0.100000,-0.387500,0.050000,-0.437500,-0.050000,-0.437500,-0.069134,-0.433694,-0.085355,-0.422855,-0.096194,-0.406634,-0.100000,-0.387500,-0.100000,0.387500,-0.100000,0.387500,$1*%
%AMFreePoly7*
4,1,18,-0.100000,0.387500,-0.096194,0.406634,-0.085355,0.422855,-0.069134,0.433694,-0.050000,0.437500,0.050000,0.437500,0.069134,0.433694,0.085355,0.422855,0.096194,0.406634,0.100000,0.387500,0.100000,-0.387500,0.096194,-0.406634,0.085355,-0.422855,0.069134,-0.433694,0.050000,-0.437500,-0.050000,-0.437500,-0.100000,-0.387500,-0.100000,0.387500,-0.100000,0.387500,$1*%
G04 Aperture macros list end*
%ADD10C,0.152400*%
%ADD11C,0.203200*%
%ADD12C,0.120000*%
%ADD13C,0.200000*%
%ADD14O,1.700000X1.700000*%
%ADD15R,1.700000X1.700000*%
%ADD16RoundRect,0.160000X0.160000X-0.197500X0.160000X0.197500X-0.160000X0.197500X-0.160000X-0.197500X0*%
%ADD17RoundRect,0.160000X-0.160000X0.197500X-0.160000X-0.197500X0.160000X-0.197500X0.160000X0.197500X0*%
%ADD18RoundRect,0.150000X0.650000X0.150000X-0.650000X0.150000X-0.650000X-0.150000X0.650000X-0.150000X0*%
%ADD19RoundRect,0.160000X0.197500X0.160000X-0.197500X0.160000X-0.197500X-0.160000X0.197500X-0.160000X0*%
%ADD20RoundRect,0.155000X0.155000X-0.212500X0.155000X0.212500X-0.155000X0.212500X-0.155000X-0.212500X0*%
%ADD21FreePoly0,90.000000*%
%ADD22RoundRect,0.050000X0.050000X-0.387500X0.050000X0.387500X-0.050000X0.387500X-0.050000X-0.387500X0*%
%ADD23FreePoly1,90.000000*%
%ADD24FreePoly2,90.000000*%
%ADD25RoundRect,0.050000X0.387500X-0.050000X0.387500X0.050000X-0.387500X0.050000X-0.387500X-0.050000X0*%
%ADD26FreePoly3,90.000000*%
%ADD27FreePoly4,90.000000*%
%ADD28FreePoly5,90.000000*%
%ADD29FreePoly6,90.000000*%
%ADD30FreePoly7,90.000000*%
%ADD31RoundRect,0.153000X1.547000X1.547000X-1.547000X1.547000X-1.547000X-1.547000X1.547000X-1.547000X0*%
%ADD32RoundRect,0.250000X-0.450000X0.325000X-0.450000X-0.325000X0.450000X-0.325000X0.450000X0.325000X0*%
%ADD33RoundRect,0.155000X0.212500X0.155000X-0.212500X0.155000X-0.212500X-0.155000X0.212500X-0.155000X0*%
%ADD34RoundRect,0.155000X-0.155000X0.212500X-0.155000X-0.212500X0.155000X-0.212500X0.155000X0.212500X0*%
%ADD35C,4.000000*%
%ADD36R,1.600000X1.600000*%
%ADD37C,1.600000*%
%ADD38RoundRect,0.155000X-0.212500X-0.155000X0.212500X-0.155000X0.212500X0.155000X-0.212500X0.155000X0*%
%ADD39RoundRect,0.162500X-0.162500X0.617500X-0.162500X-0.617500X0.162500X-0.617500X0.162500X0.617500X0*%
%ADD40R,1.000000X1.200000*%
%ADD41RoundRect,0.250000X-0.275000X-0.350000X0.275000X-0.350000X0.275000X0.350000X-0.275000X0.350000X0*%
G04 APERTURE END LIST*
D10*
X132170586Y-101114555D02*
X132315729Y-101162935D01*
X132315729Y-101162935D02*
X132557634Y-101162935D01*
X132557634Y-101162935D02*
X132654396Y-101114555D01*
X132654396Y-101114555D02*
X132702777Y-101066174D01*
X132702777Y-101066174D02*
X132751158Y-100969412D01*
X132751158Y-100969412D02*
X132751158Y-100872650D01*
X132751158Y-100872650D02*
X132702777Y-100775888D01*
X132702777Y-100775888D02*
X132654396Y-100727507D01*
X132654396Y-100727507D02*
X132557634Y-100679126D01*
X132557634Y-100679126D02*
X132364110Y-100630745D01*
X132364110Y-100630745D02*
X132267348Y-100582364D01*
X132267348Y-100582364D02*
X132218967Y-100533983D01*
X132218967Y-100533983D02*
X132170586Y-100437221D01*
X132170586Y-100437221D02*
X132170586Y-100340459D01*
X132170586Y-100340459D02*
X132218967Y-100243697D01*
X132218967Y-100243697D02*
X132267348Y-100195316D01*
X132267348Y-100195316D02*
X132364110Y-100146935D01*
X132364110Y-100146935D02*
X132606015Y-100146935D01*
X132606015Y-100146935D02*
X132751158Y-100195316D01*
X133089824Y-100146935D02*
X133331729Y-101162935D01*
X133331729Y-101162935D02*
X133525253Y-100437221D01*
X133525253Y-100437221D02*
X133718777Y-101162935D01*
X133718777Y-101162935D02*
X133960682Y-100146935D01*
X134347729Y-101162935D02*
X134347729Y-100146935D01*
X134347729Y-100146935D02*
X134589634Y-100146935D01*
X134589634Y-100146935D02*
X134734777Y-100195316D01*
X134734777Y-100195316D02*
X134831539Y-100292078D01*
X134831539Y-100292078D02*
X134879920Y-100388840D01*
X134879920Y-100388840D02*
X134928301Y-100582364D01*
X134928301Y-100582364D02*
X134928301Y-100727507D01*
X134928301Y-100727507D02*
X134879920Y-100921031D01*
X134879920Y-100921031D02*
X134831539Y-101017793D01*
X134831539Y-101017793D02*
X134734777Y-101114555D01*
X134734777Y-101114555D02*
X134589634Y-101162935D01*
X134589634Y-101162935D02*
X134347729Y-101162935D01*
X119085958Y-80230916D02*
X118989196Y-80182535D01*
X118989196Y-80182535D02*
X118844053Y-80182535D01*
X118844053Y-80182535D02*
X118698910Y-80230916D01*
X118698910Y-80230916D02*
X118602148Y-80327678D01*
X118602148Y-80327678D02*
X118553767Y-80424440D01*
X118553767Y-80424440D02*
X118505386Y-80617964D01*
X118505386Y-80617964D02*
X118505386Y-80763107D01*
X118505386Y-80763107D02*
X118553767Y-80956631D01*
X118553767Y-80956631D02*
X118602148Y-81053393D01*
X118602148Y-81053393D02*
X118698910Y-81150155D01*
X118698910Y-81150155D02*
X118844053Y-81198535D01*
X118844053Y-81198535D02*
X118940815Y-81198535D01*
X118940815Y-81198535D02*
X119085958Y-81150155D01*
X119085958Y-81150155D02*
X119134339Y-81101774D01*
X119134339Y-81101774D02*
X119134339Y-80763107D01*
X119134339Y-80763107D02*
X118940815Y-80763107D01*
X119569767Y-81198535D02*
X119569767Y-80182535D01*
X119569767Y-80182535D02*
X120150339Y-81198535D01*
X120150339Y-81198535D02*
X120150339Y-80182535D01*
X120634148Y-81198535D02*
X120634148Y-80182535D01*
X120634148Y-80182535D02*
X120876053Y-80182535D01*
X120876053Y-80182535D02*
X121021196Y-80230916D01*
X121021196Y-80230916D02*
X121117958Y-80327678D01*
X121117958Y-80327678D02*
X121166339Y-80424440D01*
X121166339Y-80424440D02*
X121214720Y-80617964D01*
X121214720Y-80617964D02*
X121214720Y-80763107D01*
X121214720Y-80763107D02*
X121166339Y-80956631D01*
X121166339Y-80956631D02*
X121117958Y-81053393D01*
X121117958Y-81053393D02*
X121021196Y-81150155D01*
X121021196Y-81150155D02*
X120876053Y-81198535D01*
X120876053Y-81198535D02*
X120634148Y-81198535D01*
X120048739Y-84144935D02*
X119710072Y-83661126D01*
X119468167Y-84144935D02*
X119468167Y-83128935D01*
X119468167Y-83128935D02*
X119855215Y-83128935D01*
X119855215Y-83128935D02*
X119951977Y-83177316D01*
X119951977Y-83177316D02*
X120000358Y-83225697D01*
X120000358Y-83225697D02*
X120048739Y-83322459D01*
X120048739Y-83322459D02*
X120048739Y-83467602D01*
X120048739Y-83467602D02*
X120000358Y-83564364D01*
X120000358Y-83564364D02*
X119951977Y-83612745D01*
X119951977Y-83612745D02*
X119855215Y-83661126D01*
X119855215Y-83661126D02*
X119468167Y-83661126D01*
X120387405Y-83128935D02*
X121064739Y-84144935D01*
X121064739Y-83128935D02*
X120387405Y-84144935D01*
X119323024Y-81655735D02*
X119903596Y-81655735D01*
X119613310Y-82671735D02*
X119613310Y-81655735D01*
X120145500Y-81655735D02*
X120822834Y-82671735D01*
X120822834Y-81655735D02*
X120145500Y-82671735D01*
X131964967Y-104941488D02*
X132739063Y-104941488D01*
X132352015Y-105328535D02*
X132352015Y-104554440D01*
X133706682Y-104312535D02*
X133222872Y-104312535D01*
X133222872Y-104312535D02*
X133174491Y-104796345D01*
X133174491Y-104796345D02*
X133222872Y-104747964D01*
X133222872Y-104747964D02*
X133319634Y-104699583D01*
X133319634Y-104699583D02*
X133561539Y-104699583D01*
X133561539Y-104699583D02*
X133658301Y-104747964D01*
X133658301Y-104747964D02*
X133706682Y-104796345D01*
X133706682Y-104796345D02*
X133755063Y-104893107D01*
X133755063Y-104893107D02*
X133755063Y-105135012D01*
X133755063Y-105135012D02*
X133706682Y-105231774D01*
X133706682Y-105231774D02*
X133658301Y-105280155D01*
X133658301Y-105280155D02*
X133561539Y-105328535D01*
X133561539Y-105328535D02*
X133319634Y-105328535D01*
X133319634Y-105328535D02*
X133222872Y-105280155D01*
X133222872Y-105280155D02*
X133174491Y-105231774D01*
X134045348Y-104312535D02*
X134384015Y-105328535D01*
X134384015Y-105328535D02*
X134722682Y-104312535D01*
X132951939Y-102488574D02*
X132903558Y-102536955D01*
X132903558Y-102536955D02*
X132758415Y-102585335D01*
X132758415Y-102585335D02*
X132661653Y-102585335D01*
X132661653Y-102585335D02*
X132516510Y-102536955D01*
X132516510Y-102536955D02*
X132419748Y-102440193D01*
X132419748Y-102440193D02*
X132371367Y-102343431D01*
X132371367Y-102343431D02*
X132322986Y-102149907D01*
X132322986Y-102149907D02*
X132322986Y-102004764D01*
X132322986Y-102004764D02*
X132371367Y-101811240D01*
X132371367Y-101811240D02*
X132419748Y-101714478D01*
X132419748Y-101714478D02*
X132516510Y-101617716D01*
X132516510Y-101617716D02*
X132661653Y-101569335D01*
X132661653Y-101569335D02*
X132758415Y-101569335D01*
X132758415Y-101569335D02*
X132903558Y-101617716D01*
X132903558Y-101617716D02*
X132951939Y-101666097D01*
X133871177Y-102585335D02*
X133387367Y-102585335D01*
X133387367Y-102585335D02*
X133387367Y-101569335D01*
X134209843Y-102585335D02*
X134209843Y-101569335D01*
X134790415Y-102585335D02*
X134354986Y-102004764D01*
X134790415Y-101569335D02*
X134209843Y-102149907D01*
X132751158Y-102989316D02*
X132654396Y-102940935D01*
X132654396Y-102940935D02*
X132509253Y-102940935D01*
X132509253Y-102940935D02*
X132364110Y-102989316D01*
X132364110Y-102989316D02*
X132267348Y-103086078D01*
X132267348Y-103086078D02*
X132218967Y-103182840D01*
X132218967Y-103182840D02*
X132170586Y-103376364D01*
X132170586Y-103376364D02*
X132170586Y-103521507D01*
X132170586Y-103521507D02*
X132218967Y-103715031D01*
X132218967Y-103715031D02*
X132267348Y-103811793D01*
X132267348Y-103811793D02*
X132364110Y-103908555D01*
X132364110Y-103908555D02*
X132509253Y-103956935D01*
X132509253Y-103956935D02*
X132606015Y-103956935D01*
X132606015Y-103956935D02*
X132751158Y-103908555D01*
X132751158Y-103908555D02*
X132799539Y-103860174D01*
X132799539Y-103860174D02*
X132799539Y-103521507D01*
X132799539Y-103521507D02*
X132606015Y-103521507D01*
X133234967Y-103956935D02*
X133234967Y-102940935D01*
X133234967Y-102940935D02*
X133815539Y-103956935D01*
X133815539Y-103956935D02*
X133815539Y-102940935D01*
X134299348Y-103956935D02*
X134299348Y-102940935D01*
X134299348Y-102940935D02*
X134541253Y-102940935D01*
X134541253Y-102940935D02*
X134686396Y-102989316D01*
X134686396Y-102989316D02*
X134783158Y-103086078D01*
X134783158Y-103086078D02*
X134831539Y-103182840D01*
X134831539Y-103182840D02*
X134879920Y-103376364D01*
X134879920Y-103376364D02*
X134879920Y-103521507D01*
X134879920Y-103521507D02*
X134831539Y-103715031D01*
X134831539Y-103715031D02*
X134783158Y-103811793D01*
X134783158Y-103811793D02*
X134686396Y-103908555D01*
X134686396Y-103908555D02*
X134541253Y-103956935D01*
X134541253Y-103956935D02*
X134299348Y-103956935D01*
X124820495Y-73043142D02*
X124336686Y-73381809D01*
X124820495Y-73623714D02*
X123804495Y-73623714D01*
X123804495Y-73623714D02*
X123804495Y-73236666D01*
X123804495Y-73236666D02*
X123852876Y-73139904D01*
X123852876Y-73139904D02*
X123901257Y-73091523D01*
X123901257Y-73091523D02*
X123998019Y-73043142D01*
X123998019Y-73043142D02*
X124143162Y-73043142D01*
X124143162Y-73043142D02*
X124239924Y-73091523D01*
X124239924Y-73091523D02*
X124288305Y-73139904D01*
X124288305Y-73139904D02*
X124336686Y-73236666D01*
X124336686Y-73236666D02*
X124336686Y-73623714D01*
X124820495Y-72075523D02*
X124820495Y-72656095D01*
X124820495Y-72365809D02*
X123804495Y-72365809D01*
X123804495Y-72365809D02*
X123949638Y-72462571D01*
X123949638Y-72462571D02*
X124046400Y-72559333D01*
X124046400Y-72559333D02*
X124094781Y-72656095D01*
X123804495Y-71204666D02*
X123804495Y-71398190D01*
X123804495Y-71398190D02*
X123852876Y-71494952D01*
X123852876Y-71494952D02*
X123901257Y-71543333D01*
X123901257Y-71543333D02*
X124046400Y-71640095D01*
X124046400Y-71640095D02*
X124239924Y-71688476D01*
X124239924Y-71688476D02*
X124626972Y-71688476D01*
X124626972Y-71688476D02*
X124723734Y-71640095D01*
X124723734Y-71640095D02*
X124772115Y-71591714D01*
X124772115Y-71591714D02*
X124820495Y-71494952D01*
X124820495Y-71494952D02*
X124820495Y-71301428D01*
X124820495Y-71301428D02*
X124772115Y-71204666D01*
X124772115Y-71204666D02*
X124723734Y-71156285D01*
X124723734Y-71156285D02*
X124626972Y-71107904D01*
X124626972Y-71107904D02*
X124385067Y-71107904D01*
X124385067Y-71107904D02*
X124288305Y-71156285D01*
X124288305Y-71156285D02*
X124239924Y-71204666D01*
X124239924Y-71204666D02*
X124191543Y-71301428D01*
X124191543Y-71301428D02*
X124191543Y-71494952D01*
X124191543Y-71494952D02*
X124239924Y-71591714D01*
X124239924Y-71591714D02*
X124288305Y-71640095D01*
X124288305Y-71640095D02*
X124385067Y-71688476D01*
X123550495Y-73043142D02*
X123066686Y-73381809D01*
X123550495Y-73623714D02*
X122534495Y-73623714D01*
X122534495Y-73623714D02*
X122534495Y-73236666D01*
X122534495Y-73236666D02*
X122582876Y-73139904D01*
X122582876Y-73139904D02*
X122631257Y-73091523D01*
X122631257Y-73091523D02*
X122728019Y-73043142D01*
X122728019Y-73043142D02*
X122873162Y-73043142D01*
X122873162Y-73043142D02*
X122969924Y-73091523D01*
X122969924Y-73091523D02*
X123018305Y-73139904D01*
X123018305Y-73139904D02*
X123066686Y-73236666D01*
X123066686Y-73236666D02*
X123066686Y-73623714D01*
X123550495Y-72075523D02*
X123550495Y-72656095D01*
X123550495Y-72365809D02*
X122534495Y-72365809D01*
X122534495Y-72365809D02*
X122679638Y-72462571D01*
X122679638Y-72462571D02*
X122776400Y-72559333D01*
X122776400Y-72559333D02*
X122824781Y-72656095D01*
X122534495Y-71736857D02*
X122534495Y-71059523D01*
X122534495Y-71059523D02*
X123550495Y-71494952D01*
X122280495Y-73270532D02*
X121796686Y-73609199D01*
X122280495Y-73851104D02*
X121264495Y-73851104D01*
X121264495Y-73851104D02*
X121264495Y-73464056D01*
X121264495Y-73464056D02*
X121312876Y-73367294D01*
X121312876Y-73367294D02*
X121361257Y-73318913D01*
X121361257Y-73318913D02*
X121458019Y-73270532D01*
X121458019Y-73270532D02*
X121603162Y-73270532D01*
X121603162Y-73270532D02*
X121699924Y-73318913D01*
X121699924Y-73318913D02*
X121748305Y-73367294D01*
X121748305Y-73367294D02*
X121796686Y-73464056D01*
X121796686Y-73464056D02*
X121796686Y-73851104D01*
X121699924Y-72689961D02*
X121651543Y-72786723D01*
X121651543Y-72786723D02*
X121603162Y-72835104D01*
X121603162Y-72835104D02*
X121506400Y-72883485D01*
X121506400Y-72883485D02*
X121458019Y-72883485D01*
X121458019Y-72883485D02*
X121361257Y-72835104D01*
X121361257Y-72835104D02*
X121312876Y-72786723D01*
X121312876Y-72786723D02*
X121264495Y-72689961D01*
X121264495Y-72689961D02*
X121264495Y-72496437D01*
X121264495Y-72496437D02*
X121312876Y-72399675D01*
X121312876Y-72399675D02*
X121361257Y-72351294D01*
X121361257Y-72351294D02*
X121458019Y-72302913D01*
X121458019Y-72302913D02*
X121506400Y-72302913D01*
X121506400Y-72302913D02*
X121603162Y-72351294D01*
X121603162Y-72351294D02*
X121651543Y-72399675D01*
X121651543Y-72399675D02*
X121699924Y-72496437D01*
X121699924Y-72496437D02*
X121699924Y-72689961D01*
X121699924Y-72689961D02*
X121748305Y-72786723D01*
X121748305Y-72786723D02*
X121796686Y-72835104D01*
X121796686Y-72835104D02*
X121893448Y-72883485D01*
X121893448Y-72883485D02*
X122086972Y-72883485D01*
X122086972Y-72883485D02*
X122183734Y-72835104D01*
X122183734Y-72835104D02*
X122232115Y-72786723D01*
X122232115Y-72786723D02*
X122280495Y-72689961D01*
X122280495Y-72689961D02*
X122280495Y-72496437D01*
X122280495Y-72496437D02*
X122232115Y-72399675D01*
X122232115Y-72399675D02*
X122183734Y-72351294D01*
X122183734Y-72351294D02*
X122086972Y-72302913D01*
X122086972Y-72302913D02*
X121893448Y-72302913D01*
X121893448Y-72302913D02*
X121796686Y-72351294D01*
X121796686Y-72351294D02*
X121748305Y-72399675D01*
X121748305Y-72399675D02*
X121699924Y-72496437D01*
X122280495Y-75150132D02*
X121796686Y-75488799D01*
X122280495Y-75730704D02*
X121264495Y-75730704D01*
X121264495Y-75730704D02*
X121264495Y-75343656D01*
X121264495Y-75343656D02*
X121312876Y-75246894D01*
X121312876Y-75246894D02*
X121361257Y-75198513D01*
X121361257Y-75198513D02*
X121458019Y-75150132D01*
X121458019Y-75150132D02*
X121603162Y-75150132D01*
X121603162Y-75150132D02*
X121699924Y-75198513D01*
X121699924Y-75198513D02*
X121748305Y-75246894D01*
X121748305Y-75246894D02*
X121796686Y-75343656D01*
X121796686Y-75343656D02*
X121796686Y-75730704D01*
X122280495Y-74666323D02*
X122280495Y-74472799D01*
X122280495Y-74472799D02*
X122232115Y-74376037D01*
X122232115Y-74376037D02*
X122183734Y-74327656D01*
X122183734Y-74327656D02*
X122038591Y-74230894D01*
X122038591Y-74230894D02*
X121845067Y-74182513D01*
X121845067Y-74182513D02*
X121458019Y-74182513D01*
X121458019Y-74182513D02*
X121361257Y-74230894D01*
X121361257Y-74230894D02*
X121312876Y-74279275D01*
X121312876Y-74279275D02*
X121264495Y-74376037D01*
X121264495Y-74376037D02*
X121264495Y-74569561D01*
X121264495Y-74569561D02*
X121312876Y-74666323D01*
X121312876Y-74666323D02*
X121361257Y-74714704D01*
X121361257Y-74714704D02*
X121458019Y-74763085D01*
X121458019Y-74763085D02*
X121699924Y-74763085D01*
X121699924Y-74763085D02*
X121796686Y-74714704D01*
X121796686Y-74714704D02*
X121845067Y-74666323D01*
X121845067Y-74666323D02*
X121893448Y-74569561D01*
X121893448Y-74569561D02*
X121893448Y-74376037D01*
X121893448Y-74376037D02*
X121845067Y-74279275D01*
X121845067Y-74279275D02*
X121796686Y-74230894D01*
X121796686Y-74230894D02*
X121699924Y-74182513D01*
X123550495Y-75887942D02*
X123066686Y-76226609D01*
X123550495Y-76468514D02*
X122534495Y-76468514D01*
X122534495Y-76468514D02*
X122534495Y-76081466D01*
X122534495Y-76081466D02*
X122582876Y-75984704D01*
X122582876Y-75984704D02*
X122631257Y-75936323D01*
X122631257Y-75936323D02*
X122728019Y-75887942D01*
X122728019Y-75887942D02*
X122873162Y-75887942D01*
X122873162Y-75887942D02*
X122969924Y-75936323D01*
X122969924Y-75936323D02*
X123018305Y-75984704D01*
X123018305Y-75984704D02*
X123066686Y-76081466D01*
X123066686Y-76081466D02*
X123066686Y-76468514D01*
X123550495Y-74920323D02*
X123550495Y-75500895D01*
X123550495Y-75210609D02*
X122534495Y-75210609D01*
X122534495Y-75210609D02*
X122679638Y-75307371D01*
X122679638Y-75307371D02*
X122776400Y-75404133D01*
X122776400Y-75404133D02*
X122824781Y-75500895D01*
X122969924Y-74339752D02*
X122921543Y-74436514D01*
X122921543Y-74436514D02*
X122873162Y-74484895D01*
X122873162Y-74484895D02*
X122776400Y-74533276D01*
X122776400Y-74533276D02*
X122728019Y-74533276D01*
X122728019Y-74533276D02*
X122631257Y-74484895D01*
X122631257Y-74484895D02*
X122582876Y-74436514D01*
X122582876Y-74436514D02*
X122534495Y-74339752D01*
X122534495Y-74339752D02*
X122534495Y-74146228D01*
X122534495Y-74146228D02*
X122582876Y-74049466D01*
X122582876Y-74049466D02*
X122631257Y-74001085D01*
X122631257Y-74001085D02*
X122728019Y-73952704D01*
X122728019Y-73952704D02*
X122776400Y-73952704D01*
X122776400Y-73952704D02*
X122873162Y-74001085D01*
X122873162Y-74001085D02*
X122921543Y-74049466D01*
X122921543Y-74049466D02*
X122969924Y-74146228D01*
X122969924Y-74146228D02*
X122969924Y-74339752D01*
X122969924Y-74339752D02*
X123018305Y-74436514D01*
X123018305Y-74436514D02*
X123066686Y-74484895D01*
X123066686Y-74484895D02*
X123163448Y-74533276D01*
X123163448Y-74533276D02*
X123356972Y-74533276D01*
X123356972Y-74533276D02*
X123453734Y-74484895D01*
X123453734Y-74484895D02*
X123502115Y-74436514D01*
X123502115Y-74436514D02*
X123550495Y-74339752D01*
X123550495Y-74339752D02*
X123550495Y-74146228D01*
X123550495Y-74146228D02*
X123502115Y-74049466D01*
X123502115Y-74049466D02*
X123453734Y-74001085D01*
X123453734Y-74001085D02*
X123356972Y-73952704D01*
X123356972Y-73952704D02*
X123163448Y-73952704D01*
X123163448Y-73952704D02*
X123066686Y-74001085D01*
X123066686Y-74001085D02*
X123018305Y-74049466D01*
X123018305Y-74049466D02*
X122969924Y-74146228D01*
X124871295Y-75887942D02*
X124387486Y-76226609D01*
X124871295Y-76468514D02*
X123855295Y-76468514D01*
X123855295Y-76468514D02*
X123855295Y-76081466D01*
X123855295Y-76081466D02*
X123903676Y-75984704D01*
X123903676Y-75984704D02*
X123952057Y-75936323D01*
X123952057Y-75936323D02*
X124048819Y-75887942D01*
X124048819Y-75887942D02*
X124193962Y-75887942D01*
X124193962Y-75887942D02*
X124290724Y-75936323D01*
X124290724Y-75936323D02*
X124339105Y-75984704D01*
X124339105Y-75984704D02*
X124387486Y-76081466D01*
X124387486Y-76081466D02*
X124387486Y-76468514D01*
X124871295Y-74920323D02*
X124871295Y-75500895D01*
X124871295Y-75210609D02*
X123855295Y-75210609D01*
X123855295Y-75210609D02*
X124000438Y-75307371D01*
X124000438Y-75307371D02*
X124097200Y-75404133D01*
X124097200Y-75404133D02*
X124145581Y-75500895D01*
X124871295Y-74436514D02*
X124871295Y-74242990D01*
X124871295Y-74242990D02*
X124822915Y-74146228D01*
X124822915Y-74146228D02*
X124774534Y-74097847D01*
X124774534Y-74097847D02*
X124629391Y-74001085D01*
X124629391Y-74001085D02*
X124435867Y-73952704D01*
X124435867Y-73952704D02*
X124048819Y-73952704D01*
X124048819Y-73952704D02*
X123952057Y-74001085D01*
X123952057Y-74001085D02*
X123903676Y-74049466D01*
X123903676Y-74049466D02*
X123855295Y-74146228D01*
X123855295Y-74146228D02*
X123855295Y-74339752D01*
X123855295Y-74339752D02*
X123903676Y-74436514D01*
X123903676Y-74436514D02*
X123952057Y-74484895D01*
X123952057Y-74484895D02*
X124048819Y-74533276D01*
X124048819Y-74533276D02*
X124290724Y-74533276D01*
X124290724Y-74533276D02*
X124387486Y-74484895D01*
X124387486Y-74484895D02*
X124435867Y-74436514D01*
X124435867Y-74436514D02*
X124484248Y-74339752D01*
X124484248Y-74339752D02*
X124484248Y-74146228D01*
X124484248Y-74146228D02*
X124435867Y-74049466D01*
X124435867Y-74049466D02*
X124387486Y-74001085D01*
X124387486Y-74001085D02*
X124290724Y-73952704D01*
X122280495Y-71441732D02*
X121796686Y-71780399D01*
X122280495Y-72022304D02*
X121264495Y-72022304D01*
X121264495Y-72022304D02*
X121264495Y-71635256D01*
X121264495Y-71635256D02*
X121312876Y-71538494D01*
X121312876Y-71538494D02*
X121361257Y-71490113D01*
X121361257Y-71490113D02*
X121458019Y-71441732D01*
X121458019Y-71441732D02*
X121603162Y-71441732D01*
X121603162Y-71441732D02*
X121699924Y-71490113D01*
X121699924Y-71490113D02*
X121748305Y-71538494D01*
X121748305Y-71538494D02*
X121796686Y-71635256D01*
X121796686Y-71635256D02*
X121796686Y-72022304D01*
X121264495Y-71103066D02*
X121264495Y-70425732D01*
X121264495Y-70425732D02*
X122280495Y-70861161D01*
X119486495Y-71112742D02*
X119002686Y-71451409D01*
X119486495Y-71693314D02*
X118470495Y-71693314D01*
X118470495Y-71693314D02*
X118470495Y-71306266D01*
X118470495Y-71306266D02*
X118518876Y-71209504D01*
X118518876Y-71209504D02*
X118567257Y-71161123D01*
X118567257Y-71161123D02*
X118664019Y-71112742D01*
X118664019Y-71112742D02*
X118809162Y-71112742D01*
X118809162Y-71112742D02*
X118905924Y-71161123D01*
X118905924Y-71161123D02*
X118954305Y-71209504D01*
X118954305Y-71209504D02*
X119002686Y-71306266D01*
X119002686Y-71306266D02*
X119002686Y-71693314D01*
X118567257Y-70725695D02*
X118518876Y-70677314D01*
X118518876Y-70677314D02*
X118470495Y-70580552D01*
X118470495Y-70580552D02*
X118470495Y-70338647D01*
X118470495Y-70338647D02*
X118518876Y-70241885D01*
X118518876Y-70241885D02*
X118567257Y-70193504D01*
X118567257Y-70193504D02*
X118664019Y-70145123D01*
X118664019Y-70145123D02*
X118760781Y-70145123D01*
X118760781Y-70145123D02*
X118905924Y-70193504D01*
X118905924Y-70193504D02*
X119486495Y-70774076D01*
X119486495Y-70774076D02*
X119486495Y-70145123D01*
X118470495Y-69516171D02*
X118470495Y-69419409D01*
X118470495Y-69419409D02*
X118518876Y-69322647D01*
X118518876Y-69322647D02*
X118567257Y-69274266D01*
X118567257Y-69274266D02*
X118664019Y-69225885D01*
X118664019Y-69225885D02*
X118857543Y-69177504D01*
X118857543Y-69177504D02*
X119099448Y-69177504D01*
X119099448Y-69177504D02*
X119292972Y-69225885D01*
X119292972Y-69225885D02*
X119389734Y-69274266D01*
X119389734Y-69274266D02*
X119438115Y-69322647D01*
X119438115Y-69322647D02*
X119486495Y-69419409D01*
X119486495Y-69419409D02*
X119486495Y-69516171D01*
X119486495Y-69516171D02*
X119438115Y-69612933D01*
X119438115Y-69612933D02*
X119389734Y-69661314D01*
X119389734Y-69661314D02*
X119292972Y-69709695D01*
X119292972Y-69709695D02*
X119099448Y-69758076D01*
X119099448Y-69758076D02*
X118857543Y-69758076D01*
X118857543Y-69758076D02*
X118664019Y-69709695D01*
X118664019Y-69709695D02*
X118567257Y-69661314D01*
X118567257Y-69661314D02*
X118518876Y-69612933D01*
X118518876Y-69612933D02*
X118470495Y-69516171D01*
X116895695Y-80815542D02*
X116411886Y-81154209D01*
X116895695Y-81396114D02*
X115879695Y-81396114D01*
X115879695Y-81396114D02*
X115879695Y-81009066D01*
X115879695Y-81009066D02*
X115928076Y-80912304D01*
X115928076Y-80912304D02*
X115976457Y-80863923D01*
X115976457Y-80863923D02*
X116073219Y-80815542D01*
X116073219Y-80815542D02*
X116218362Y-80815542D01*
X116218362Y-80815542D02*
X116315124Y-80863923D01*
X116315124Y-80863923D02*
X116363505Y-80912304D01*
X116363505Y-80912304D02*
X116411886Y-81009066D01*
X116411886Y-81009066D02*
X116411886Y-81396114D01*
X116895695Y-79847923D02*
X116895695Y-80428495D01*
X116895695Y-80138209D02*
X115879695Y-80138209D01*
X115879695Y-80138209D02*
X116024838Y-80234971D01*
X116024838Y-80234971D02*
X116121600Y-80331733D01*
X116121600Y-80331733D02*
X116169981Y-80428495D01*
X115976457Y-79460876D02*
X115928076Y-79412495D01*
X115928076Y-79412495D02*
X115879695Y-79315733D01*
X115879695Y-79315733D02*
X115879695Y-79073828D01*
X115879695Y-79073828D02*
X115928076Y-78977066D01*
X115928076Y-78977066D02*
X115976457Y-78928685D01*
X115976457Y-78928685D02*
X116073219Y-78880304D01*
X116073219Y-78880304D02*
X116169981Y-78880304D01*
X116169981Y-78880304D02*
X116315124Y-78928685D01*
X116315124Y-78928685D02*
X116895695Y-79509257D01*
X116895695Y-79509257D02*
X116895695Y-78880304D01*
X116895695Y-77665942D02*
X116411886Y-78004609D01*
X116895695Y-78246514D02*
X115879695Y-78246514D01*
X115879695Y-78246514D02*
X115879695Y-77859466D01*
X115879695Y-77859466D02*
X115928076Y-77762704D01*
X115928076Y-77762704D02*
X115976457Y-77714323D01*
X115976457Y-77714323D02*
X116073219Y-77665942D01*
X116073219Y-77665942D02*
X116218362Y-77665942D01*
X116218362Y-77665942D02*
X116315124Y-77714323D01*
X116315124Y-77714323D02*
X116363505Y-77762704D01*
X116363505Y-77762704D02*
X116411886Y-77859466D01*
X116411886Y-77859466D02*
X116411886Y-78246514D01*
X116895695Y-76698323D02*
X116895695Y-77278895D01*
X116895695Y-76988609D02*
X115879695Y-76988609D01*
X115879695Y-76988609D02*
X116024838Y-77085371D01*
X116024838Y-77085371D02*
X116121600Y-77182133D01*
X116121600Y-77182133D02*
X116169981Y-77278895D01*
X116895695Y-75730704D02*
X116895695Y-76311276D01*
X116895695Y-76020990D02*
X115879695Y-76020990D01*
X115879695Y-76020990D02*
X116024838Y-76117752D01*
X116024838Y-76117752D02*
X116121600Y-76214514D01*
X116121600Y-76214514D02*
X116169981Y-76311276D01*
X120756495Y-74008342D02*
X120272686Y-74347009D01*
X120756495Y-74588914D02*
X119740495Y-74588914D01*
X119740495Y-74588914D02*
X119740495Y-74201866D01*
X119740495Y-74201866D02*
X119788876Y-74105104D01*
X119788876Y-74105104D02*
X119837257Y-74056723D01*
X119837257Y-74056723D02*
X119934019Y-74008342D01*
X119934019Y-74008342D02*
X120079162Y-74008342D01*
X120079162Y-74008342D02*
X120175924Y-74056723D01*
X120175924Y-74056723D02*
X120224305Y-74105104D01*
X120224305Y-74105104D02*
X120272686Y-74201866D01*
X120272686Y-74201866D02*
X120272686Y-74588914D01*
X119837257Y-73621295D02*
X119788876Y-73572914D01*
X119788876Y-73572914D02*
X119740495Y-73476152D01*
X119740495Y-73476152D02*
X119740495Y-73234247D01*
X119740495Y-73234247D02*
X119788876Y-73137485D01*
X119788876Y-73137485D02*
X119837257Y-73089104D01*
X119837257Y-73089104D02*
X119934019Y-73040723D01*
X119934019Y-73040723D02*
X120030781Y-73040723D01*
X120030781Y-73040723D02*
X120175924Y-73089104D01*
X120175924Y-73089104D02*
X120756495Y-73669676D01*
X120756495Y-73669676D02*
X120756495Y-73040723D01*
X119740495Y-72702057D02*
X119740495Y-72073104D01*
X119740495Y-72073104D02*
X120127543Y-72411771D01*
X120127543Y-72411771D02*
X120127543Y-72266628D01*
X120127543Y-72266628D02*
X120175924Y-72169866D01*
X120175924Y-72169866D02*
X120224305Y-72121485D01*
X120224305Y-72121485D02*
X120321067Y-72073104D01*
X120321067Y-72073104D02*
X120562972Y-72073104D01*
X120562972Y-72073104D02*
X120659734Y-72121485D01*
X120659734Y-72121485D02*
X120708115Y-72169866D01*
X120708115Y-72169866D02*
X120756495Y-72266628D01*
X120756495Y-72266628D02*
X120756495Y-72556914D01*
X120756495Y-72556914D02*
X120708115Y-72653676D01*
X120708115Y-72653676D02*
X120659734Y-72702057D01*
X119486495Y-73945442D02*
X119002686Y-74284109D01*
X119486495Y-74526014D02*
X118470495Y-74526014D01*
X118470495Y-74526014D02*
X118470495Y-74138966D01*
X118470495Y-74138966D02*
X118518876Y-74042204D01*
X118518876Y-74042204D02*
X118567257Y-73993823D01*
X118567257Y-73993823D02*
X118664019Y-73945442D01*
X118664019Y-73945442D02*
X118809162Y-73945442D01*
X118809162Y-73945442D02*
X118905924Y-73993823D01*
X118905924Y-73993823D02*
X118954305Y-74042204D01*
X118954305Y-74042204D02*
X119002686Y-74138966D01*
X119002686Y-74138966D02*
X119002686Y-74526014D01*
X118567257Y-73558395D02*
X118518876Y-73510014D01*
X118518876Y-73510014D02*
X118470495Y-73413252D01*
X118470495Y-73413252D02*
X118470495Y-73171347D01*
X118470495Y-73171347D02*
X118518876Y-73074585D01*
X118518876Y-73074585D02*
X118567257Y-73026204D01*
X118567257Y-73026204D02*
X118664019Y-72977823D01*
X118664019Y-72977823D02*
X118760781Y-72977823D01*
X118760781Y-72977823D02*
X118905924Y-73026204D01*
X118905924Y-73026204D02*
X119486495Y-73606776D01*
X119486495Y-73606776D02*
X119486495Y-72977823D01*
X119486495Y-72010204D02*
X119486495Y-72590776D01*
X119486495Y-72300490D02*
X118470495Y-72300490D01*
X118470495Y-72300490D02*
X118615638Y-72397252D01*
X118615638Y-72397252D02*
X118712400Y-72494014D01*
X118712400Y-72494014D02*
X118760781Y-72590776D01*
X120756495Y-71163542D02*
X120272686Y-71502209D01*
X120756495Y-71744114D02*
X119740495Y-71744114D01*
X119740495Y-71744114D02*
X119740495Y-71357066D01*
X119740495Y-71357066D02*
X119788876Y-71260304D01*
X119788876Y-71260304D02*
X119837257Y-71211923D01*
X119837257Y-71211923D02*
X119934019Y-71163542D01*
X119934019Y-71163542D02*
X120079162Y-71163542D01*
X120079162Y-71163542D02*
X120175924Y-71211923D01*
X120175924Y-71211923D02*
X120224305Y-71260304D01*
X120224305Y-71260304D02*
X120272686Y-71357066D01*
X120272686Y-71357066D02*
X120272686Y-71744114D01*
X119837257Y-70776495D02*
X119788876Y-70728114D01*
X119788876Y-70728114D02*
X119740495Y-70631352D01*
X119740495Y-70631352D02*
X119740495Y-70389447D01*
X119740495Y-70389447D02*
X119788876Y-70292685D01*
X119788876Y-70292685D02*
X119837257Y-70244304D01*
X119837257Y-70244304D02*
X119934019Y-70195923D01*
X119934019Y-70195923D02*
X120030781Y-70195923D01*
X120030781Y-70195923D02*
X120175924Y-70244304D01*
X120175924Y-70244304D02*
X120756495Y-70824876D01*
X120756495Y-70824876D02*
X120756495Y-70195923D01*
X119837257Y-69808876D02*
X119788876Y-69760495D01*
X119788876Y-69760495D02*
X119740495Y-69663733D01*
X119740495Y-69663733D02*
X119740495Y-69421828D01*
X119740495Y-69421828D02*
X119788876Y-69325066D01*
X119788876Y-69325066D02*
X119837257Y-69276685D01*
X119837257Y-69276685D02*
X119934019Y-69228304D01*
X119934019Y-69228304D02*
X120030781Y-69228304D01*
X120030781Y-69228304D02*
X120175924Y-69276685D01*
X120175924Y-69276685D02*
X120756495Y-69857257D01*
X120756495Y-69857257D02*
X120756495Y-69228304D01*
X116946495Y-74719542D02*
X116462686Y-75058209D01*
X116946495Y-75300114D02*
X115930495Y-75300114D01*
X115930495Y-75300114D02*
X115930495Y-74913066D01*
X115930495Y-74913066D02*
X115978876Y-74816304D01*
X115978876Y-74816304D02*
X116027257Y-74767923D01*
X116027257Y-74767923D02*
X116124019Y-74719542D01*
X116124019Y-74719542D02*
X116269162Y-74719542D01*
X116269162Y-74719542D02*
X116365924Y-74767923D01*
X116365924Y-74767923D02*
X116414305Y-74816304D01*
X116414305Y-74816304D02*
X116462686Y-74913066D01*
X116462686Y-74913066D02*
X116462686Y-75300114D01*
X116946495Y-73751923D02*
X116946495Y-74332495D01*
X116946495Y-74042209D02*
X115930495Y-74042209D01*
X115930495Y-74042209D02*
X116075638Y-74138971D01*
X116075638Y-74138971D02*
X116172400Y-74235733D01*
X116172400Y-74235733D02*
X116220781Y-74332495D01*
X115930495Y-73122971D02*
X115930495Y-73026209D01*
X115930495Y-73026209D02*
X115978876Y-72929447D01*
X115978876Y-72929447D02*
X116027257Y-72881066D01*
X116027257Y-72881066D02*
X116124019Y-72832685D01*
X116124019Y-72832685D02*
X116317543Y-72784304D01*
X116317543Y-72784304D02*
X116559448Y-72784304D01*
X116559448Y-72784304D02*
X116752972Y-72832685D01*
X116752972Y-72832685D02*
X116849734Y-72881066D01*
X116849734Y-72881066D02*
X116898115Y-72929447D01*
X116898115Y-72929447D02*
X116946495Y-73026209D01*
X116946495Y-73026209D02*
X116946495Y-73122971D01*
X116946495Y-73122971D02*
X116898115Y-73219733D01*
X116898115Y-73219733D02*
X116849734Y-73268114D01*
X116849734Y-73268114D02*
X116752972Y-73316495D01*
X116752972Y-73316495D02*
X116559448Y-73364876D01*
X116559448Y-73364876D02*
X116317543Y-73364876D01*
X116317543Y-73364876D02*
X116124019Y-73316495D01*
X116124019Y-73316495D02*
X116027257Y-73268114D01*
X116027257Y-73268114D02*
X115978876Y-73219733D01*
X115978876Y-73219733D02*
X115930495Y-73122971D01*
X126683104Y-110037695D02*
X126683104Y-110860172D01*
X126683104Y-110860172D02*
X126731485Y-110956934D01*
X126731485Y-110956934D02*
X126779866Y-111005315D01*
X126779866Y-111005315D02*
X126876628Y-111053695D01*
X126876628Y-111053695D02*
X127070152Y-111053695D01*
X127070152Y-111053695D02*
X127166914Y-111005315D01*
X127166914Y-111005315D02*
X127215295Y-110956934D01*
X127215295Y-110956934D02*
X127263676Y-110860172D01*
X127263676Y-110860172D02*
X127263676Y-110037695D01*
X128182914Y-110376362D02*
X128182914Y-111053695D01*
X127941009Y-109989315D02*
X127699104Y-110715029D01*
X127699104Y-110715029D02*
X128328057Y-110715029D01*
X127362857Y-115320895D02*
X127024190Y-114837086D01*
X126782285Y-115320895D02*
X126782285Y-114304895D01*
X126782285Y-114304895D02*
X127169333Y-114304895D01*
X127169333Y-114304895D02*
X127266095Y-114353276D01*
X127266095Y-114353276D02*
X127314476Y-114401657D01*
X127314476Y-114401657D02*
X127362857Y-114498419D01*
X127362857Y-114498419D02*
X127362857Y-114643562D01*
X127362857Y-114643562D02*
X127314476Y-114740324D01*
X127314476Y-114740324D02*
X127266095Y-114788705D01*
X127266095Y-114788705D02*
X127169333Y-114837086D01*
X127169333Y-114837086D02*
X126782285Y-114837086D01*
X127701523Y-114304895D02*
X128330476Y-114304895D01*
X128330476Y-114304895D02*
X127991809Y-114691943D01*
X127991809Y-114691943D02*
X128136952Y-114691943D01*
X128136952Y-114691943D02*
X128233714Y-114740324D01*
X128233714Y-114740324D02*
X128282095Y-114788705D01*
X128282095Y-114788705D02*
X128330476Y-114885467D01*
X128330476Y-114885467D02*
X128330476Y-115127372D01*
X128330476Y-115127372D02*
X128282095Y-115224134D01*
X128282095Y-115224134D02*
X128233714Y-115272515D01*
X128233714Y-115272515D02*
X128136952Y-115320895D01*
X128136952Y-115320895D02*
X127846666Y-115320895D01*
X127846666Y-115320895D02*
X127749904Y-115272515D01*
X127749904Y-115272515D02*
X127701523Y-115224134D01*
X128717523Y-114401657D02*
X128765904Y-114353276D01*
X128765904Y-114353276D02*
X128862666Y-114304895D01*
X128862666Y-114304895D02*
X129104571Y-114304895D01*
X129104571Y-114304895D02*
X129201333Y-114353276D01*
X129201333Y-114353276D02*
X129249714Y-114401657D01*
X129249714Y-114401657D02*
X129298095Y-114498419D01*
X129298095Y-114498419D02*
X129298095Y-114595181D01*
X129298095Y-114595181D02*
X129249714Y-114740324D01*
X129249714Y-114740324D02*
X128669142Y-115320895D01*
X128669142Y-115320895D02*
X129298095Y-115320895D01*
X116748134Y-113429142D02*
X116796515Y-113477523D01*
X116796515Y-113477523D02*
X116844895Y-113622666D01*
X116844895Y-113622666D02*
X116844895Y-113719428D01*
X116844895Y-113719428D02*
X116796515Y-113864571D01*
X116796515Y-113864571D02*
X116699753Y-113961333D01*
X116699753Y-113961333D02*
X116602991Y-114009714D01*
X116602991Y-114009714D02*
X116409467Y-114058095D01*
X116409467Y-114058095D02*
X116264324Y-114058095D01*
X116264324Y-114058095D02*
X116070800Y-114009714D01*
X116070800Y-114009714D02*
X115974038Y-113961333D01*
X115974038Y-113961333D02*
X115877276Y-113864571D01*
X115877276Y-113864571D02*
X115828895Y-113719428D01*
X115828895Y-113719428D02*
X115828895Y-113622666D01*
X115828895Y-113622666D02*
X115877276Y-113477523D01*
X115877276Y-113477523D02*
X115925657Y-113429142D01*
X115925657Y-113042095D02*
X115877276Y-112993714D01*
X115877276Y-112993714D02*
X115828895Y-112896952D01*
X115828895Y-112896952D02*
X115828895Y-112655047D01*
X115828895Y-112655047D02*
X115877276Y-112558285D01*
X115877276Y-112558285D02*
X115925657Y-112509904D01*
X115925657Y-112509904D02*
X116022419Y-112461523D01*
X116022419Y-112461523D02*
X116119181Y-112461523D01*
X116119181Y-112461523D02*
X116264324Y-112509904D01*
X116264324Y-112509904D02*
X116844895Y-113090476D01*
X116844895Y-113090476D02*
X116844895Y-112461523D01*
X116844895Y-111493904D02*
X116844895Y-112074476D01*
X116844895Y-111784190D02*
X115828895Y-111784190D01*
X115828895Y-111784190D02*
X115974038Y-111880952D01*
X115974038Y-111880952D02*
X116070800Y-111977714D01*
X116070800Y-111977714D02*
X116119181Y-112074476D01*
X127133504Y-103967495D02*
X127133504Y-104789972D01*
X127133504Y-104789972D02*
X127181885Y-104886734D01*
X127181885Y-104886734D02*
X127230266Y-104935115D01*
X127230266Y-104935115D02*
X127327028Y-104983495D01*
X127327028Y-104983495D02*
X127520552Y-104983495D01*
X127520552Y-104983495D02*
X127617314Y-104935115D01*
X127617314Y-104935115D02*
X127665695Y-104886734D01*
X127665695Y-104886734D02*
X127714076Y-104789972D01*
X127714076Y-104789972D02*
X127714076Y-103967495D01*
X128730076Y-104983495D02*
X128149504Y-104983495D01*
X128439790Y-104983495D02*
X128439790Y-103967495D01*
X128439790Y-103967495D02*
X128343028Y-104112638D01*
X128343028Y-104112638D02*
X128246266Y-104209400D01*
X128246266Y-104209400D02*
X128149504Y-104257781D01*
X122488534Y-88892742D02*
X122536915Y-88941123D01*
X122536915Y-88941123D02*
X122585295Y-89086266D01*
X122585295Y-89086266D02*
X122585295Y-89183028D01*
X122585295Y-89183028D02*
X122536915Y-89328171D01*
X122536915Y-89328171D02*
X122440153Y-89424933D01*
X122440153Y-89424933D02*
X122343391Y-89473314D01*
X122343391Y-89473314D02*
X122149867Y-89521695D01*
X122149867Y-89521695D02*
X122004724Y-89521695D01*
X122004724Y-89521695D02*
X121811200Y-89473314D01*
X121811200Y-89473314D02*
X121714438Y-89424933D01*
X121714438Y-89424933D02*
X121617676Y-89328171D01*
X121617676Y-89328171D02*
X121569295Y-89183028D01*
X121569295Y-89183028D02*
X121569295Y-89086266D01*
X121569295Y-89086266D02*
X121617676Y-88941123D01*
X121617676Y-88941123D02*
X121666057Y-88892742D01*
X122585295Y-87925123D02*
X122585295Y-88505695D01*
X122585295Y-88215409D02*
X121569295Y-88215409D01*
X121569295Y-88215409D02*
X121714438Y-88312171D01*
X121714438Y-88312171D02*
X121811200Y-88408933D01*
X121811200Y-88408933D02*
X121859581Y-88505695D01*
X121569295Y-87586457D02*
X121569295Y-86957504D01*
X121569295Y-86957504D02*
X121956343Y-87296171D01*
X121956343Y-87296171D02*
X121956343Y-87151028D01*
X121956343Y-87151028D02*
X122004724Y-87054266D01*
X122004724Y-87054266D02*
X122053105Y-87005885D01*
X122053105Y-87005885D02*
X122149867Y-86957504D01*
X122149867Y-86957504D02*
X122391772Y-86957504D01*
X122391772Y-86957504D02*
X122488534Y-87005885D01*
X122488534Y-87005885D02*
X122536915Y-87054266D01*
X122536915Y-87054266D02*
X122585295Y-87151028D01*
X122585295Y-87151028D02*
X122585295Y-87441314D01*
X122585295Y-87441314D02*
X122536915Y-87538076D01*
X122536915Y-87538076D02*
X122488534Y-87586457D01*
X123758534Y-87748532D02*
X123806915Y-87796913D01*
X123806915Y-87796913D02*
X123855295Y-87942056D01*
X123855295Y-87942056D02*
X123855295Y-88038818D01*
X123855295Y-88038818D02*
X123806915Y-88183961D01*
X123806915Y-88183961D02*
X123710153Y-88280723D01*
X123710153Y-88280723D02*
X123613391Y-88329104D01*
X123613391Y-88329104D02*
X123419867Y-88377485D01*
X123419867Y-88377485D02*
X123274724Y-88377485D01*
X123274724Y-88377485D02*
X123081200Y-88329104D01*
X123081200Y-88329104D02*
X122984438Y-88280723D01*
X122984438Y-88280723D02*
X122887676Y-88183961D01*
X122887676Y-88183961D02*
X122839295Y-88038818D01*
X122839295Y-88038818D02*
X122839295Y-87942056D01*
X122839295Y-87942056D02*
X122887676Y-87796913D01*
X122887676Y-87796913D02*
X122936057Y-87748532D01*
X122839295Y-86829294D02*
X122839295Y-87313104D01*
X122839295Y-87313104D02*
X123323105Y-87361485D01*
X123323105Y-87361485D02*
X123274724Y-87313104D01*
X123274724Y-87313104D02*
X123226343Y-87216342D01*
X123226343Y-87216342D02*
X123226343Y-86974437D01*
X123226343Y-86974437D02*
X123274724Y-86877675D01*
X123274724Y-86877675D02*
X123323105Y-86829294D01*
X123323105Y-86829294D02*
X123419867Y-86780913D01*
X123419867Y-86780913D02*
X123661772Y-86780913D01*
X123661772Y-86780913D02*
X123758534Y-86829294D01*
X123758534Y-86829294D02*
X123806915Y-86877675D01*
X123806915Y-86877675D02*
X123855295Y-86974437D01*
X123855295Y-86974437D02*
X123855295Y-87216342D01*
X123855295Y-87216342D02*
X123806915Y-87313104D01*
X123806915Y-87313104D02*
X123758534Y-87361485D01*
X118241895Y-101231095D02*
X119064372Y-101231095D01*
X119064372Y-101231095D02*
X119161134Y-101182714D01*
X119161134Y-101182714D02*
X119209515Y-101134333D01*
X119209515Y-101134333D02*
X119257895Y-101037571D01*
X119257895Y-101037571D02*
X119257895Y-100844047D01*
X119257895Y-100844047D02*
X119209515Y-100747285D01*
X119209515Y-100747285D02*
X119161134Y-100698904D01*
X119161134Y-100698904D02*
X119064372Y-100650523D01*
X119064372Y-100650523D02*
X118241895Y-100650523D01*
X118338657Y-100215095D02*
X118290276Y-100166714D01*
X118290276Y-100166714D02*
X118241895Y-100069952D01*
X118241895Y-100069952D02*
X118241895Y-99828047D01*
X118241895Y-99828047D02*
X118290276Y-99731285D01*
X118290276Y-99731285D02*
X118338657Y-99682904D01*
X118338657Y-99682904D02*
X118435419Y-99634523D01*
X118435419Y-99634523D02*
X118532181Y-99634523D01*
X118532181Y-99634523D02*
X118677324Y-99682904D01*
X118677324Y-99682904D02*
X119257895Y-100263476D01*
X119257895Y-100263476D02*
X119257895Y-99634523D01*
X120045295Y-87013142D02*
X119561486Y-87351809D01*
X120045295Y-87593714D02*
X119029295Y-87593714D01*
X119029295Y-87593714D02*
X119029295Y-87206666D01*
X119029295Y-87206666D02*
X119077676Y-87109904D01*
X119077676Y-87109904D02*
X119126057Y-87061523D01*
X119126057Y-87061523D02*
X119222819Y-87013142D01*
X119222819Y-87013142D02*
X119367962Y-87013142D01*
X119367962Y-87013142D02*
X119464724Y-87061523D01*
X119464724Y-87061523D02*
X119513105Y-87109904D01*
X119513105Y-87109904D02*
X119561486Y-87206666D01*
X119561486Y-87206666D02*
X119561486Y-87593714D01*
X119029295Y-86674476D02*
X119029295Y-86045523D01*
X119029295Y-86045523D02*
X119416343Y-86384190D01*
X119416343Y-86384190D02*
X119416343Y-86239047D01*
X119416343Y-86239047D02*
X119464724Y-86142285D01*
X119464724Y-86142285D02*
X119513105Y-86093904D01*
X119513105Y-86093904D02*
X119609867Y-86045523D01*
X119609867Y-86045523D02*
X119851772Y-86045523D01*
X119851772Y-86045523D02*
X119948534Y-86093904D01*
X119948534Y-86093904D02*
X119996915Y-86142285D01*
X119996915Y-86142285D02*
X120045295Y-86239047D01*
X120045295Y-86239047D02*
X120045295Y-86529333D01*
X120045295Y-86529333D02*
X119996915Y-86626095D01*
X119996915Y-86626095D02*
X119948534Y-86674476D01*
X119029295Y-85416571D02*
X119029295Y-85319809D01*
X119029295Y-85319809D02*
X119077676Y-85223047D01*
X119077676Y-85223047D02*
X119126057Y-85174666D01*
X119126057Y-85174666D02*
X119222819Y-85126285D01*
X119222819Y-85126285D02*
X119416343Y-85077904D01*
X119416343Y-85077904D02*
X119658248Y-85077904D01*
X119658248Y-85077904D02*
X119851772Y-85126285D01*
X119851772Y-85126285D02*
X119948534Y-85174666D01*
X119948534Y-85174666D02*
X119996915Y-85223047D01*
X119996915Y-85223047D02*
X120045295Y-85319809D01*
X120045295Y-85319809D02*
X120045295Y-85416571D01*
X120045295Y-85416571D02*
X119996915Y-85513333D01*
X119996915Y-85513333D02*
X119948534Y-85561714D01*
X119948534Y-85561714D02*
X119851772Y-85610095D01*
X119851772Y-85610095D02*
X119658248Y-85658476D01*
X119658248Y-85658476D02*
X119416343Y-85658476D01*
X119416343Y-85658476D02*
X119222819Y-85610095D01*
X119222819Y-85610095D02*
X119126057Y-85561714D01*
X119126057Y-85561714D02*
X119077676Y-85513333D01*
X119077676Y-85513333D02*
X119029295Y-85416571D01*
X131121295Y-103675542D02*
X130637486Y-104014209D01*
X131121295Y-104256114D02*
X130105295Y-104256114D01*
X130105295Y-104256114D02*
X130105295Y-103869066D01*
X130105295Y-103869066D02*
X130153676Y-103772304D01*
X130153676Y-103772304D02*
X130202057Y-103723923D01*
X130202057Y-103723923D02*
X130298819Y-103675542D01*
X130298819Y-103675542D02*
X130443962Y-103675542D01*
X130443962Y-103675542D02*
X130540724Y-103723923D01*
X130540724Y-103723923D02*
X130589105Y-103772304D01*
X130589105Y-103772304D02*
X130637486Y-103869066D01*
X130637486Y-103869066D02*
X130637486Y-104256114D01*
X130202057Y-103288495D02*
X130153676Y-103240114D01*
X130153676Y-103240114D02*
X130105295Y-103143352D01*
X130105295Y-103143352D02*
X130105295Y-102901447D01*
X130105295Y-102901447D02*
X130153676Y-102804685D01*
X130153676Y-102804685D02*
X130202057Y-102756304D01*
X130202057Y-102756304D02*
X130298819Y-102707923D01*
X130298819Y-102707923D02*
X130395581Y-102707923D01*
X130395581Y-102707923D02*
X130540724Y-102756304D01*
X130540724Y-102756304D02*
X131121295Y-103336876D01*
X131121295Y-103336876D02*
X131121295Y-102707923D01*
X130540724Y-102127352D02*
X130492343Y-102224114D01*
X130492343Y-102224114D02*
X130443962Y-102272495D01*
X130443962Y-102272495D02*
X130347200Y-102320876D01*
X130347200Y-102320876D02*
X130298819Y-102320876D01*
X130298819Y-102320876D02*
X130202057Y-102272495D01*
X130202057Y-102272495D02*
X130153676Y-102224114D01*
X130153676Y-102224114D02*
X130105295Y-102127352D01*
X130105295Y-102127352D02*
X130105295Y-101933828D01*
X130105295Y-101933828D02*
X130153676Y-101837066D01*
X130153676Y-101837066D02*
X130202057Y-101788685D01*
X130202057Y-101788685D02*
X130298819Y-101740304D01*
X130298819Y-101740304D02*
X130347200Y-101740304D01*
X130347200Y-101740304D02*
X130443962Y-101788685D01*
X130443962Y-101788685D02*
X130492343Y-101837066D01*
X130492343Y-101837066D02*
X130540724Y-101933828D01*
X130540724Y-101933828D02*
X130540724Y-102127352D01*
X130540724Y-102127352D02*
X130589105Y-102224114D01*
X130589105Y-102224114D02*
X130637486Y-102272495D01*
X130637486Y-102272495D02*
X130734248Y-102320876D01*
X130734248Y-102320876D02*
X130927772Y-102320876D01*
X130927772Y-102320876D02*
X131024534Y-102272495D01*
X131024534Y-102272495D02*
X131072915Y-102224114D01*
X131072915Y-102224114D02*
X131121295Y-102127352D01*
X131121295Y-102127352D02*
X131121295Y-101933828D01*
X131121295Y-101933828D02*
X131072915Y-101837066D01*
X131072915Y-101837066D02*
X131024534Y-101788685D01*
X131024534Y-101788685D02*
X130927772Y-101740304D01*
X130927772Y-101740304D02*
X130734248Y-101740304D01*
X130734248Y-101740304D02*
X130637486Y-101788685D01*
X130637486Y-101788685D02*
X130589105Y-101837066D01*
X130589105Y-101837066D02*
X130540724Y-101933828D01*
X119994495Y-88764532D02*
X119994495Y-89248342D01*
X119994495Y-89248342D02*
X118978495Y-89248342D01*
X119994495Y-87893675D02*
X119994495Y-88474247D01*
X119994495Y-88183961D02*
X118978495Y-88183961D01*
X118978495Y-88183961D02*
X119123638Y-88280723D01*
X119123638Y-88280723D02*
X119220400Y-88377485D01*
X119220400Y-88377485D02*
X119268781Y-88474247D01*
X117127867Y-99780934D02*
X117079486Y-99829315D01*
X117079486Y-99829315D02*
X116934343Y-99877695D01*
X116934343Y-99877695D02*
X116837581Y-99877695D01*
X116837581Y-99877695D02*
X116692438Y-99829315D01*
X116692438Y-99829315D02*
X116595676Y-99732553D01*
X116595676Y-99732553D02*
X116547295Y-99635791D01*
X116547295Y-99635791D02*
X116498914Y-99442267D01*
X116498914Y-99442267D02*
X116498914Y-99297124D01*
X116498914Y-99297124D02*
X116547295Y-99103600D01*
X116547295Y-99103600D02*
X116595676Y-99006838D01*
X116595676Y-99006838D02*
X116692438Y-98910076D01*
X116692438Y-98910076D02*
X116837581Y-98861695D01*
X116837581Y-98861695D02*
X116934343Y-98861695D01*
X116934343Y-98861695D02*
X117079486Y-98910076D01*
X117079486Y-98910076D02*
X117127867Y-98958457D01*
X117998724Y-99200362D02*
X117998724Y-99877695D01*
X117756819Y-98813315D02*
X117514914Y-99539029D01*
X117514914Y-99539029D02*
X118143867Y-99539029D01*
X126704934Y-102429732D02*
X126753315Y-102478113D01*
X126753315Y-102478113D02*
X126801695Y-102623256D01*
X126801695Y-102623256D02*
X126801695Y-102720018D01*
X126801695Y-102720018D02*
X126753315Y-102865161D01*
X126753315Y-102865161D02*
X126656553Y-102961923D01*
X126656553Y-102961923D02*
X126559791Y-103010304D01*
X126559791Y-103010304D02*
X126366267Y-103058685D01*
X126366267Y-103058685D02*
X126221124Y-103058685D01*
X126221124Y-103058685D02*
X126027600Y-103010304D01*
X126027600Y-103010304D02*
X125930838Y-102961923D01*
X125930838Y-102961923D02*
X125834076Y-102865161D01*
X125834076Y-102865161D02*
X125785695Y-102720018D01*
X125785695Y-102720018D02*
X125785695Y-102623256D01*
X125785695Y-102623256D02*
X125834076Y-102478113D01*
X125834076Y-102478113D02*
X125882457Y-102429732D01*
X126801695Y-101945923D02*
X126801695Y-101752399D01*
X126801695Y-101752399D02*
X126753315Y-101655637D01*
X126753315Y-101655637D02*
X126704934Y-101607256D01*
X126704934Y-101607256D02*
X126559791Y-101510494D01*
X126559791Y-101510494D02*
X126366267Y-101462113D01*
X126366267Y-101462113D02*
X125979219Y-101462113D01*
X125979219Y-101462113D02*
X125882457Y-101510494D01*
X125882457Y-101510494D02*
X125834076Y-101558875D01*
X125834076Y-101558875D02*
X125785695Y-101655637D01*
X125785695Y-101655637D02*
X125785695Y-101849161D01*
X125785695Y-101849161D02*
X125834076Y-101945923D01*
X125834076Y-101945923D02*
X125882457Y-101994304D01*
X125882457Y-101994304D02*
X125979219Y-102042685D01*
X125979219Y-102042685D02*
X126221124Y-102042685D01*
X126221124Y-102042685D02*
X126317886Y-101994304D01*
X126317886Y-101994304D02*
X126366267Y-101945923D01*
X126366267Y-101945923D02*
X126414648Y-101849161D01*
X126414648Y-101849161D02*
X126414648Y-101655637D01*
X126414648Y-101655637D02*
X126366267Y-101558875D01*
X126366267Y-101558875D02*
X126317886Y-101510494D01*
X126317886Y-101510494D02*
X126221124Y-101462113D01*
X121218534Y-88764532D02*
X121266915Y-88812913D01*
X121266915Y-88812913D02*
X121315295Y-88958056D01*
X121315295Y-88958056D02*
X121315295Y-89054818D01*
X121315295Y-89054818D02*
X121266915Y-89199961D01*
X121266915Y-89199961D02*
X121170153Y-89296723D01*
X121170153Y-89296723D02*
X121073391Y-89345104D01*
X121073391Y-89345104D02*
X120879867Y-89393485D01*
X120879867Y-89393485D02*
X120734724Y-89393485D01*
X120734724Y-89393485D02*
X120541200Y-89345104D01*
X120541200Y-89345104D02*
X120444438Y-89296723D01*
X120444438Y-89296723D02*
X120347676Y-89199961D01*
X120347676Y-89199961D02*
X120299295Y-89054818D01*
X120299295Y-89054818D02*
X120299295Y-88958056D01*
X120299295Y-88958056D02*
X120347676Y-88812913D01*
X120347676Y-88812913D02*
X120396057Y-88764532D01*
X120299295Y-88425866D02*
X120299295Y-87748532D01*
X120299295Y-87748532D02*
X121315295Y-88183961D01*
X116162667Y-110956934D02*
X116114286Y-111005315D01*
X116114286Y-111005315D02*
X115969143Y-111053695D01*
X115969143Y-111053695D02*
X115872381Y-111053695D01*
X115872381Y-111053695D02*
X115727238Y-111005315D01*
X115727238Y-111005315D02*
X115630476Y-110908553D01*
X115630476Y-110908553D02*
X115582095Y-110811791D01*
X115582095Y-110811791D02*
X115533714Y-110618267D01*
X115533714Y-110618267D02*
X115533714Y-110473124D01*
X115533714Y-110473124D02*
X115582095Y-110279600D01*
X115582095Y-110279600D02*
X115630476Y-110182838D01*
X115630476Y-110182838D02*
X115727238Y-110086076D01*
X115727238Y-110086076D02*
X115872381Y-110037695D01*
X115872381Y-110037695D02*
X115969143Y-110037695D01*
X115969143Y-110037695D02*
X116114286Y-110086076D01*
X116114286Y-110086076D02*
X116162667Y-110134457D01*
X117130286Y-111053695D02*
X116549714Y-111053695D01*
X116840000Y-111053695D02*
X116840000Y-110037695D01*
X116840000Y-110037695D02*
X116743238Y-110182838D01*
X116743238Y-110182838D02*
X116646476Y-110279600D01*
X116646476Y-110279600D02*
X116549714Y-110327981D01*
X117178667Y-98510934D02*
X117130286Y-98559315D01*
X117130286Y-98559315D02*
X116985143Y-98607695D01*
X116985143Y-98607695D02*
X116888381Y-98607695D01*
X116888381Y-98607695D02*
X116743238Y-98559315D01*
X116743238Y-98559315D02*
X116646476Y-98462553D01*
X116646476Y-98462553D02*
X116598095Y-98365791D01*
X116598095Y-98365791D02*
X116549714Y-98172267D01*
X116549714Y-98172267D02*
X116549714Y-98027124D01*
X116549714Y-98027124D02*
X116598095Y-97833600D01*
X116598095Y-97833600D02*
X116646476Y-97736838D01*
X116646476Y-97736838D02*
X116743238Y-97640076D01*
X116743238Y-97640076D02*
X116888381Y-97591695D01*
X116888381Y-97591695D02*
X116985143Y-97591695D01*
X116985143Y-97591695D02*
X117130286Y-97640076D01*
X117130286Y-97640076D02*
X117178667Y-97688457D01*
X117565714Y-97688457D02*
X117614095Y-97640076D01*
X117614095Y-97640076D02*
X117710857Y-97591695D01*
X117710857Y-97591695D02*
X117952762Y-97591695D01*
X117952762Y-97591695D02*
X118049524Y-97640076D01*
X118049524Y-97640076D02*
X118097905Y-97688457D01*
X118097905Y-97688457D02*
X118146286Y-97785219D01*
X118146286Y-97785219D02*
X118146286Y-97881981D01*
X118146286Y-97881981D02*
X118097905Y-98027124D01*
X118097905Y-98027124D02*
X117517333Y-98607695D01*
X117517333Y-98607695D02*
X118146286Y-98607695D01*
X125838857Y-85653695D02*
X125500190Y-85169886D01*
X125258285Y-85653695D02*
X125258285Y-84637695D01*
X125258285Y-84637695D02*
X125645333Y-84637695D01*
X125645333Y-84637695D02*
X125742095Y-84686076D01*
X125742095Y-84686076D02*
X125790476Y-84734457D01*
X125790476Y-84734457D02*
X125838857Y-84831219D01*
X125838857Y-84831219D02*
X125838857Y-84976362D01*
X125838857Y-84976362D02*
X125790476Y-85073124D01*
X125790476Y-85073124D02*
X125742095Y-85121505D01*
X125742095Y-85121505D02*
X125645333Y-85169886D01*
X125645333Y-85169886D02*
X125258285Y-85169886D01*
X126225904Y-84734457D02*
X126274285Y-84686076D01*
X126274285Y-84686076D02*
X126371047Y-84637695D01*
X126371047Y-84637695D02*
X126612952Y-84637695D01*
X126612952Y-84637695D02*
X126709714Y-84686076D01*
X126709714Y-84686076D02*
X126758095Y-84734457D01*
X126758095Y-84734457D02*
X126806476Y-84831219D01*
X126806476Y-84831219D02*
X126806476Y-84927981D01*
X126806476Y-84927981D02*
X126758095Y-85073124D01*
X126758095Y-85073124D02*
X126177523Y-85653695D01*
X126177523Y-85653695D02*
X126806476Y-85653695D01*
X127725714Y-84637695D02*
X127241904Y-84637695D01*
X127241904Y-84637695D02*
X127193523Y-85121505D01*
X127193523Y-85121505D02*
X127241904Y-85073124D01*
X127241904Y-85073124D02*
X127338666Y-85024743D01*
X127338666Y-85024743D02*
X127580571Y-85024743D01*
X127580571Y-85024743D02*
X127677333Y-85073124D01*
X127677333Y-85073124D02*
X127725714Y-85121505D01*
X127725714Y-85121505D02*
X127774095Y-85218267D01*
X127774095Y-85218267D02*
X127774095Y-85460172D01*
X127774095Y-85460172D02*
X127725714Y-85556934D01*
X127725714Y-85556934D02*
X127677333Y-85605315D01*
X127677333Y-85605315D02*
X127580571Y-85653695D01*
X127580571Y-85653695D02*
X127338666Y-85653695D01*
X127338666Y-85653695D02*
X127241904Y-85605315D01*
X127241904Y-85605315D02*
X127193523Y-85556934D01*
X130768934Y-99763942D02*
X130817315Y-99812323D01*
X130817315Y-99812323D02*
X130865695Y-99957466D01*
X130865695Y-99957466D02*
X130865695Y-100054228D01*
X130865695Y-100054228D02*
X130817315Y-100199371D01*
X130817315Y-100199371D02*
X130720553Y-100296133D01*
X130720553Y-100296133D02*
X130623791Y-100344514D01*
X130623791Y-100344514D02*
X130430267Y-100392895D01*
X130430267Y-100392895D02*
X130285124Y-100392895D01*
X130285124Y-100392895D02*
X130091600Y-100344514D01*
X130091600Y-100344514D02*
X129994838Y-100296133D01*
X129994838Y-100296133D02*
X129898076Y-100199371D01*
X129898076Y-100199371D02*
X129849695Y-100054228D01*
X129849695Y-100054228D02*
X129849695Y-99957466D01*
X129849695Y-99957466D02*
X129898076Y-99812323D01*
X129898076Y-99812323D02*
X129946457Y-99763942D01*
X130865695Y-98796323D02*
X130865695Y-99376895D01*
X130865695Y-99086609D02*
X129849695Y-99086609D01*
X129849695Y-99086609D02*
X129994838Y-99183371D01*
X129994838Y-99183371D02*
X130091600Y-99280133D01*
X130091600Y-99280133D02*
X130139981Y-99376895D01*
X129849695Y-97925466D02*
X129849695Y-98118990D01*
X129849695Y-98118990D02*
X129898076Y-98215752D01*
X129898076Y-98215752D02*
X129946457Y-98264133D01*
X129946457Y-98264133D02*
X130091600Y-98360895D01*
X130091600Y-98360895D02*
X130285124Y-98409276D01*
X130285124Y-98409276D02*
X130672172Y-98409276D01*
X130672172Y-98409276D02*
X130768934Y-98360895D01*
X130768934Y-98360895D02*
X130817315Y-98312514D01*
X130817315Y-98312514D02*
X130865695Y-98215752D01*
X130865695Y-98215752D02*
X130865695Y-98022228D01*
X130865695Y-98022228D02*
X130817315Y-97925466D01*
X130817315Y-97925466D02*
X130768934Y-97877085D01*
X130768934Y-97877085D02*
X130672172Y-97828704D01*
X130672172Y-97828704D02*
X130430267Y-97828704D01*
X130430267Y-97828704D02*
X130333505Y-97877085D01*
X130333505Y-97877085D02*
X130285124Y-97925466D01*
X130285124Y-97925466D02*
X130236743Y-98022228D01*
X130236743Y-98022228D02*
X130236743Y-98215752D01*
X130236743Y-98215752D02*
X130285124Y-98312514D01*
X130285124Y-98312514D02*
X130333505Y-98360895D01*
X130333505Y-98360895D02*
X130430267Y-98409276D01*
X121929734Y-102913542D02*
X121978115Y-102961923D01*
X121978115Y-102961923D02*
X122026495Y-103107066D01*
X122026495Y-103107066D02*
X122026495Y-103203828D01*
X122026495Y-103203828D02*
X121978115Y-103348971D01*
X121978115Y-103348971D02*
X121881353Y-103445733D01*
X121881353Y-103445733D02*
X121784591Y-103494114D01*
X121784591Y-103494114D02*
X121591067Y-103542495D01*
X121591067Y-103542495D02*
X121445924Y-103542495D01*
X121445924Y-103542495D02*
X121252400Y-103494114D01*
X121252400Y-103494114D02*
X121155638Y-103445733D01*
X121155638Y-103445733D02*
X121058876Y-103348971D01*
X121058876Y-103348971D02*
X121010495Y-103203828D01*
X121010495Y-103203828D02*
X121010495Y-103107066D01*
X121010495Y-103107066D02*
X121058876Y-102961923D01*
X121058876Y-102961923D02*
X121107257Y-102913542D01*
X122026495Y-101945923D02*
X122026495Y-102526495D01*
X122026495Y-102236209D02*
X121010495Y-102236209D01*
X121010495Y-102236209D02*
X121155638Y-102332971D01*
X121155638Y-102332971D02*
X121252400Y-102429733D01*
X121252400Y-102429733D02*
X121300781Y-102526495D01*
X121107257Y-101558876D02*
X121058876Y-101510495D01*
X121058876Y-101510495D02*
X121010495Y-101413733D01*
X121010495Y-101413733D02*
X121010495Y-101171828D01*
X121010495Y-101171828D02*
X121058876Y-101075066D01*
X121058876Y-101075066D02*
X121107257Y-101026685D01*
X121107257Y-101026685D02*
X121204019Y-100978304D01*
X121204019Y-100978304D02*
X121300781Y-100978304D01*
X121300781Y-100978304D02*
X121445924Y-101026685D01*
X121445924Y-101026685D02*
X122026495Y-101607257D01*
X122026495Y-101607257D02*
X122026495Y-100978304D01*
X125838857Y-84383695D02*
X125500190Y-83899886D01*
X125258285Y-84383695D02*
X125258285Y-83367695D01*
X125258285Y-83367695D02*
X125645333Y-83367695D01*
X125645333Y-83367695D02*
X125742095Y-83416076D01*
X125742095Y-83416076D02*
X125790476Y-83464457D01*
X125790476Y-83464457D02*
X125838857Y-83561219D01*
X125838857Y-83561219D02*
X125838857Y-83706362D01*
X125838857Y-83706362D02*
X125790476Y-83803124D01*
X125790476Y-83803124D02*
X125742095Y-83851505D01*
X125742095Y-83851505D02*
X125645333Y-83899886D01*
X125645333Y-83899886D02*
X125258285Y-83899886D01*
X126225904Y-83464457D02*
X126274285Y-83416076D01*
X126274285Y-83416076D02*
X126371047Y-83367695D01*
X126371047Y-83367695D02*
X126612952Y-83367695D01*
X126612952Y-83367695D02*
X126709714Y-83416076D01*
X126709714Y-83416076D02*
X126758095Y-83464457D01*
X126758095Y-83464457D02*
X126806476Y-83561219D01*
X126806476Y-83561219D02*
X126806476Y-83657981D01*
X126806476Y-83657981D02*
X126758095Y-83803124D01*
X126758095Y-83803124D02*
X126177523Y-84383695D01*
X126177523Y-84383695D02*
X126806476Y-84383695D01*
X127677333Y-83706362D02*
X127677333Y-84383695D01*
X127435428Y-83319315D02*
X127193523Y-84045029D01*
X127193523Y-84045029D02*
X127822476Y-84045029D01*
X124977734Y-88029142D02*
X125026115Y-88077523D01*
X125026115Y-88077523D02*
X125074495Y-88222666D01*
X125074495Y-88222666D02*
X125074495Y-88319428D01*
X125074495Y-88319428D02*
X125026115Y-88464571D01*
X125026115Y-88464571D02*
X124929353Y-88561333D01*
X124929353Y-88561333D02*
X124832591Y-88609714D01*
X124832591Y-88609714D02*
X124639067Y-88658095D01*
X124639067Y-88658095D02*
X124493924Y-88658095D01*
X124493924Y-88658095D02*
X124300400Y-88609714D01*
X124300400Y-88609714D02*
X124203638Y-88561333D01*
X124203638Y-88561333D02*
X124106876Y-88464571D01*
X124106876Y-88464571D02*
X124058495Y-88319428D01*
X124058495Y-88319428D02*
X124058495Y-88222666D01*
X124058495Y-88222666D02*
X124106876Y-88077523D01*
X124106876Y-88077523D02*
X124155257Y-88029142D01*
X125074495Y-87061523D02*
X125074495Y-87642095D01*
X125074495Y-87351809D02*
X124058495Y-87351809D01*
X124058495Y-87351809D02*
X124203638Y-87448571D01*
X124203638Y-87448571D02*
X124300400Y-87545333D01*
X124300400Y-87545333D02*
X124348781Y-87642095D01*
X124058495Y-86142285D02*
X124058495Y-86626095D01*
X124058495Y-86626095D02*
X124542305Y-86674476D01*
X124542305Y-86674476D02*
X124493924Y-86626095D01*
X124493924Y-86626095D02*
X124445543Y-86529333D01*
X124445543Y-86529333D02*
X124445543Y-86287428D01*
X124445543Y-86287428D02*
X124493924Y-86190666D01*
X124493924Y-86190666D02*
X124542305Y-86142285D01*
X124542305Y-86142285D02*
X124639067Y-86093904D01*
X124639067Y-86093904D02*
X124880972Y-86093904D01*
X124880972Y-86093904D02*
X124977734Y-86142285D01*
X124977734Y-86142285D02*
X125026115Y-86190666D01*
X125026115Y-86190666D02*
X125074495Y-86287428D01*
X125074495Y-86287428D02*
X125074495Y-86529333D01*
X125074495Y-86529333D02*
X125026115Y-86626095D01*
X125026115Y-86626095D02*
X124977734Y-86674476D01*
X131175334Y-96130532D02*
X131223715Y-96178913D01*
X131223715Y-96178913D02*
X131272095Y-96324056D01*
X131272095Y-96324056D02*
X131272095Y-96420818D01*
X131272095Y-96420818D02*
X131223715Y-96565961D01*
X131223715Y-96565961D02*
X131126953Y-96662723D01*
X131126953Y-96662723D02*
X131030191Y-96711104D01*
X131030191Y-96711104D02*
X130836667Y-96759485D01*
X130836667Y-96759485D02*
X130691524Y-96759485D01*
X130691524Y-96759485D02*
X130498000Y-96711104D01*
X130498000Y-96711104D02*
X130401238Y-96662723D01*
X130401238Y-96662723D02*
X130304476Y-96565961D01*
X130304476Y-96565961D02*
X130256095Y-96420818D01*
X130256095Y-96420818D02*
X130256095Y-96324056D01*
X130256095Y-96324056D02*
X130304476Y-96178913D01*
X130304476Y-96178913D02*
X130352857Y-96130532D01*
X130256095Y-95259675D02*
X130256095Y-95453199D01*
X130256095Y-95453199D02*
X130304476Y-95549961D01*
X130304476Y-95549961D02*
X130352857Y-95598342D01*
X130352857Y-95598342D02*
X130498000Y-95695104D01*
X130498000Y-95695104D02*
X130691524Y-95743485D01*
X130691524Y-95743485D02*
X131078572Y-95743485D01*
X131078572Y-95743485D02*
X131175334Y-95695104D01*
X131175334Y-95695104D02*
X131223715Y-95646723D01*
X131223715Y-95646723D02*
X131272095Y-95549961D01*
X131272095Y-95549961D02*
X131272095Y-95356437D01*
X131272095Y-95356437D02*
X131223715Y-95259675D01*
X131223715Y-95259675D02*
X131175334Y-95211294D01*
X131175334Y-95211294D02*
X131078572Y-95162913D01*
X131078572Y-95162913D02*
X130836667Y-95162913D01*
X130836667Y-95162913D02*
X130739905Y-95211294D01*
X130739905Y-95211294D02*
X130691524Y-95259675D01*
X130691524Y-95259675D02*
X130643143Y-95356437D01*
X130643143Y-95356437D02*
X130643143Y-95549961D01*
X130643143Y-95549961D02*
X130691524Y-95646723D01*
X130691524Y-95646723D02*
X130739905Y-95695104D01*
X130739905Y-95695104D02*
X130836667Y-95743485D01*
X126092857Y-86928534D02*
X126044476Y-86976915D01*
X126044476Y-86976915D02*
X125899333Y-87025295D01*
X125899333Y-87025295D02*
X125802571Y-87025295D01*
X125802571Y-87025295D02*
X125657428Y-86976915D01*
X125657428Y-86976915D02*
X125560666Y-86880153D01*
X125560666Y-86880153D02*
X125512285Y-86783391D01*
X125512285Y-86783391D02*
X125463904Y-86589867D01*
X125463904Y-86589867D02*
X125463904Y-86444724D01*
X125463904Y-86444724D02*
X125512285Y-86251200D01*
X125512285Y-86251200D02*
X125560666Y-86154438D01*
X125560666Y-86154438D02*
X125657428Y-86057676D01*
X125657428Y-86057676D02*
X125802571Y-86009295D01*
X125802571Y-86009295D02*
X125899333Y-86009295D01*
X125899333Y-86009295D02*
X126044476Y-86057676D01*
X126044476Y-86057676D02*
X126092857Y-86106057D01*
X127060476Y-87025295D02*
X126479904Y-87025295D01*
X126770190Y-87025295D02*
X126770190Y-86009295D01*
X126770190Y-86009295D02*
X126673428Y-86154438D01*
X126673428Y-86154438D02*
X126576666Y-86251200D01*
X126576666Y-86251200D02*
X126479904Y-86299581D01*
X128028095Y-87025295D02*
X127447523Y-87025295D01*
X127737809Y-87025295D02*
X127737809Y-86009295D01*
X127737809Y-86009295D02*
X127641047Y-86154438D01*
X127641047Y-86154438D02*
X127544285Y-86251200D01*
X127544285Y-86251200D02*
X127447523Y-86299581D01*
X128935295Y-95090342D02*
X128451486Y-95429009D01*
X128935295Y-95670914D02*
X127919295Y-95670914D01*
X127919295Y-95670914D02*
X127919295Y-95283866D01*
X127919295Y-95283866D02*
X127967676Y-95187104D01*
X127967676Y-95187104D02*
X128016057Y-95138723D01*
X128016057Y-95138723D02*
X128112819Y-95090342D01*
X128112819Y-95090342D02*
X128257962Y-95090342D01*
X128257962Y-95090342D02*
X128354724Y-95138723D01*
X128354724Y-95138723D02*
X128403105Y-95187104D01*
X128403105Y-95187104D02*
X128451486Y-95283866D01*
X128451486Y-95283866D02*
X128451486Y-95670914D01*
X127919295Y-94751676D02*
X127919295Y-94122723D01*
X127919295Y-94122723D02*
X128306343Y-94461390D01*
X128306343Y-94461390D02*
X128306343Y-94316247D01*
X128306343Y-94316247D02*
X128354724Y-94219485D01*
X128354724Y-94219485D02*
X128403105Y-94171104D01*
X128403105Y-94171104D02*
X128499867Y-94122723D01*
X128499867Y-94122723D02*
X128741772Y-94122723D01*
X128741772Y-94122723D02*
X128838534Y-94171104D01*
X128838534Y-94171104D02*
X128886915Y-94219485D01*
X128886915Y-94219485D02*
X128935295Y-94316247D01*
X128935295Y-94316247D02*
X128935295Y-94606533D01*
X128935295Y-94606533D02*
X128886915Y-94703295D01*
X128886915Y-94703295D02*
X128838534Y-94751676D01*
X128935295Y-93155104D02*
X128935295Y-93735676D01*
X128935295Y-93445390D02*
X127919295Y-93445390D01*
X127919295Y-93445390D02*
X128064438Y-93542152D01*
X128064438Y-93542152D02*
X128161200Y-93638914D01*
X128161200Y-93638914D02*
X128209581Y-93735676D01*
X128124857Y-117657695D02*
X127786190Y-117173886D01*
X127544285Y-117657695D02*
X127544285Y-116641695D01*
X127544285Y-116641695D02*
X127931333Y-116641695D01*
X127931333Y-116641695D02*
X128028095Y-116690076D01*
X128028095Y-116690076D02*
X128076476Y-116738457D01*
X128076476Y-116738457D02*
X128124857Y-116835219D01*
X128124857Y-116835219D02*
X128124857Y-116980362D01*
X128124857Y-116980362D02*
X128076476Y-117077124D01*
X128076476Y-117077124D02*
X128028095Y-117125505D01*
X128028095Y-117125505D02*
X127931333Y-117173886D01*
X127931333Y-117173886D02*
X127544285Y-117173886D01*
X128511904Y-116738457D02*
X128560285Y-116690076D01*
X128560285Y-116690076D02*
X128657047Y-116641695D01*
X128657047Y-116641695D02*
X128898952Y-116641695D01*
X128898952Y-116641695D02*
X128995714Y-116690076D01*
X128995714Y-116690076D02*
X129044095Y-116738457D01*
X129044095Y-116738457D02*
X129092476Y-116835219D01*
X129092476Y-116835219D02*
X129092476Y-116931981D01*
X129092476Y-116931981D02*
X129044095Y-117077124D01*
X129044095Y-117077124D02*
X128463523Y-117657695D01*
X128463523Y-117657695D02*
X129092476Y-117657695D01*
X129576285Y-117657695D02*
X129769809Y-117657695D01*
X129769809Y-117657695D02*
X129866571Y-117609315D01*
X129866571Y-117609315D02*
X129914952Y-117560934D01*
X129914952Y-117560934D02*
X130011714Y-117415791D01*
X130011714Y-117415791D02*
X130060095Y-117222267D01*
X130060095Y-117222267D02*
X130060095Y-116835219D01*
X130060095Y-116835219D02*
X130011714Y-116738457D01*
X130011714Y-116738457D02*
X129963333Y-116690076D01*
X129963333Y-116690076D02*
X129866571Y-116641695D01*
X129866571Y-116641695D02*
X129673047Y-116641695D01*
X129673047Y-116641695D02*
X129576285Y-116690076D01*
X129576285Y-116690076D02*
X129527904Y-116738457D01*
X129527904Y-116738457D02*
X129479523Y-116835219D01*
X129479523Y-116835219D02*
X129479523Y-117077124D01*
X129479523Y-117077124D02*
X129527904Y-117173886D01*
X129527904Y-117173886D02*
X129576285Y-117222267D01*
X129576285Y-117222267D02*
X129673047Y-117270648D01*
X129673047Y-117270648D02*
X129866571Y-117270648D01*
X129866571Y-117270648D02*
X129963333Y-117222267D01*
X129963333Y-117222267D02*
X130011714Y-117173886D01*
X130011714Y-117173886D02*
X130060095Y-117077124D01*
X131175334Y-94200132D02*
X131223715Y-94248513D01*
X131223715Y-94248513D02*
X131272095Y-94393656D01*
X131272095Y-94393656D02*
X131272095Y-94490418D01*
X131272095Y-94490418D02*
X131223715Y-94635561D01*
X131223715Y-94635561D02*
X131126953Y-94732323D01*
X131126953Y-94732323D02*
X131030191Y-94780704D01*
X131030191Y-94780704D02*
X130836667Y-94829085D01*
X130836667Y-94829085D02*
X130691524Y-94829085D01*
X130691524Y-94829085D02*
X130498000Y-94780704D01*
X130498000Y-94780704D02*
X130401238Y-94732323D01*
X130401238Y-94732323D02*
X130304476Y-94635561D01*
X130304476Y-94635561D02*
X130256095Y-94490418D01*
X130256095Y-94490418D02*
X130256095Y-94393656D01*
X130256095Y-94393656D02*
X130304476Y-94248513D01*
X130304476Y-94248513D02*
X130352857Y-94200132D01*
X130691524Y-93619561D02*
X130643143Y-93716323D01*
X130643143Y-93716323D02*
X130594762Y-93764704D01*
X130594762Y-93764704D02*
X130498000Y-93813085D01*
X130498000Y-93813085D02*
X130449619Y-93813085D01*
X130449619Y-93813085D02*
X130352857Y-93764704D01*
X130352857Y-93764704D02*
X130304476Y-93716323D01*
X130304476Y-93716323D02*
X130256095Y-93619561D01*
X130256095Y-93619561D02*
X130256095Y-93426037D01*
X130256095Y-93426037D02*
X130304476Y-93329275D01*
X130304476Y-93329275D02*
X130352857Y-93280894D01*
X130352857Y-93280894D02*
X130449619Y-93232513D01*
X130449619Y-93232513D02*
X130498000Y-93232513D01*
X130498000Y-93232513D02*
X130594762Y-93280894D01*
X130594762Y-93280894D02*
X130643143Y-93329275D01*
X130643143Y-93329275D02*
X130691524Y-93426037D01*
X130691524Y-93426037D02*
X130691524Y-93619561D01*
X130691524Y-93619561D02*
X130739905Y-93716323D01*
X130739905Y-93716323D02*
X130788286Y-93764704D01*
X130788286Y-93764704D02*
X130885048Y-93813085D01*
X130885048Y-93813085D02*
X131078572Y-93813085D01*
X131078572Y-93813085D02*
X131175334Y-93764704D01*
X131175334Y-93764704D02*
X131223715Y-93716323D01*
X131223715Y-93716323D02*
X131272095Y-93619561D01*
X131272095Y-93619561D02*
X131272095Y-93426037D01*
X131272095Y-93426037D02*
X131223715Y-93329275D01*
X131223715Y-93329275D02*
X131175334Y-93280894D01*
X131175334Y-93280894D02*
X131078572Y-93232513D01*
X131078572Y-93232513D02*
X130885048Y-93232513D01*
X130885048Y-93232513D02*
X130788286Y-93280894D01*
X130788286Y-93280894D02*
X130739905Y-93329275D01*
X130739905Y-93329275D02*
X130691524Y-93426037D01*
X124418934Y-102429732D02*
X124467315Y-102478113D01*
X124467315Y-102478113D02*
X124515695Y-102623256D01*
X124515695Y-102623256D02*
X124515695Y-102720018D01*
X124515695Y-102720018D02*
X124467315Y-102865161D01*
X124467315Y-102865161D02*
X124370553Y-102961923D01*
X124370553Y-102961923D02*
X124273791Y-103010304D01*
X124273791Y-103010304D02*
X124080267Y-103058685D01*
X124080267Y-103058685D02*
X123935124Y-103058685D01*
X123935124Y-103058685D02*
X123741600Y-103010304D01*
X123741600Y-103010304D02*
X123644838Y-102961923D01*
X123644838Y-102961923D02*
X123548076Y-102865161D01*
X123548076Y-102865161D02*
X123499695Y-102720018D01*
X123499695Y-102720018D02*
X123499695Y-102623256D01*
X123499695Y-102623256D02*
X123548076Y-102478113D01*
X123548076Y-102478113D02*
X123596457Y-102429732D01*
X123499695Y-102091066D02*
X123499695Y-101462113D01*
X123499695Y-101462113D02*
X123886743Y-101800780D01*
X123886743Y-101800780D02*
X123886743Y-101655637D01*
X123886743Y-101655637D02*
X123935124Y-101558875D01*
X123935124Y-101558875D02*
X123983505Y-101510494D01*
X123983505Y-101510494D02*
X124080267Y-101462113D01*
X124080267Y-101462113D02*
X124322172Y-101462113D01*
X124322172Y-101462113D02*
X124418934Y-101510494D01*
X124418934Y-101510494D02*
X124467315Y-101558875D01*
X124467315Y-101558875D02*
X124515695Y-101655637D01*
X124515695Y-101655637D02*
X124515695Y-101945923D01*
X124515695Y-101945923D02*
X124467315Y-102042685D01*
X124467315Y-102042685D02*
X124418934Y-102091066D01*
D11*
X128221453Y-113143695D02*
X129043930Y-113143695D01*
X129043930Y-113143695D02*
X129140692Y-113095314D01*
X129140692Y-113095314D02*
X129189073Y-113046933D01*
X129189073Y-113046933D02*
X129237453Y-112950171D01*
X129237453Y-112950171D02*
X129237453Y-112756647D01*
X129237453Y-112756647D02*
X129189073Y-112659885D01*
X129189073Y-112659885D02*
X129140692Y-112611504D01*
X129140692Y-112611504D02*
X129043930Y-112563123D01*
X129043930Y-112563123D02*
X128221453Y-112563123D01*
X128221453Y-112176076D02*
X128221453Y-111547123D01*
X128221453Y-111547123D02*
X128608501Y-111885790D01*
X128608501Y-111885790D02*
X128608501Y-111740647D01*
X128608501Y-111740647D02*
X128656882Y-111643885D01*
X128656882Y-111643885D02*
X128705263Y-111595504D01*
X128705263Y-111595504D02*
X128802025Y-111547123D01*
X128802025Y-111547123D02*
X129043930Y-111547123D01*
X129043930Y-111547123D02*
X129140692Y-111595504D01*
X129140692Y-111595504D02*
X129189073Y-111643885D01*
X129189073Y-111643885D02*
X129237453Y-111740647D01*
X129237453Y-111740647D02*
X129237453Y-112030933D01*
X129237453Y-112030933D02*
X129189073Y-112127695D01*
X129189073Y-112127695D02*
X129140692Y-112176076D01*
D10*
X128824695Y-82555542D02*
X128340886Y-82894209D01*
X128824695Y-83136114D02*
X127808695Y-83136114D01*
X127808695Y-83136114D02*
X127808695Y-82749066D01*
X127808695Y-82749066D02*
X127857076Y-82652304D01*
X127857076Y-82652304D02*
X127905457Y-82603923D01*
X127905457Y-82603923D02*
X128002219Y-82555542D01*
X128002219Y-82555542D02*
X128147362Y-82555542D01*
X128147362Y-82555542D02*
X128244124Y-82603923D01*
X128244124Y-82603923D02*
X128292505Y-82652304D01*
X128292505Y-82652304D02*
X128340886Y-82749066D01*
X128340886Y-82749066D02*
X128340886Y-83136114D01*
X128824695Y-81587923D02*
X128824695Y-82168495D01*
X128824695Y-81878209D02*
X127808695Y-81878209D01*
X127808695Y-81878209D02*
X127953838Y-81974971D01*
X127953838Y-81974971D02*
X128050600Y-82071733D01*
X128050600Y-82071733D02*
X128098981Y-82168495D01*
X128147362Y-80717066D02*
X128824695Y-80717066D01*
X127760315Y-80958971D02*
X128486029Y-81200876D01*
X128486029Y-81200876D02*
X128486029Y-80571923D01*
X127079886Y-88571009D02*
X127563695Y-88571009D01*
X126547695Y-88909676D02*
X127079886Y-88571009D01*
X127079886Y-88571009D02*
X126547695Y-88232342D01*
X127563695Y-87361485D02*
X127563695Y-87942057D01*
X127563695Y-87651771D02*
X126547695Y-87651771D01*
X126547695Y-87651771D02*
X126692838Y-87748533D01*
X126692838Y-87748533D02*
X126789600Y-87845295D01*
X126789600Y-87845295D02*
X126837981Y-87942057D01*
X130205295Y-82542742D02*
X129721486Y-82881409D01*
X130205295Y-83123314D02*
X129189295Y-83123314D01*
X129189295Y-83123314D02*
X129189295Y-82736266D01*
X129189295Y-82736266D02*
X129237676Y-82639504D01*
X129237676Y-82639504D02*
X129286057Y-82591123D01*
X129286057Y-82591123D02*
X129382819Y-82542742D01*
X129382819Y-82542742D02*
X129527962Y-82542742D01*
X129527962Y-82542742D02*
X129624724Y-82591123D01*
X129624724Y-82591123D02*
X129673105Y-82639504D01*
X129673105Y-82639504D02*
X129721486Y-82736266D01*
X129721486Y-82736266D02*
X129721486Y-83123314D01*
X130205295Y-81575123D02*
X130205295Y-82155695D01*
X130205295Y-81865409D02*
X129189295Y-81865409D01*
X129189295Y-81865409D02*
X129334438Y-81962171D01*
X129334438Y-81962171D02*
X129431200Y-82058933D01*
X129431200Y-82058933D02*
X129479581Y-82155695D01*
X129189295Y-80655885D02*
X129189295Y-81139695D01*
X129189295Y-81139695D02*
X129673105Y-81188076D01*
X129673105Y-81188076D02*
X129624724Y-81139695D01*
X129624724Y-81139695D02*
X129576343Y-81042933D01*
X129576343Y-81042933D02*
X129576343Y-80801028D01*
X129576343Y-80801028D02*
X129624724Y-80704266D01*
X129624724Y-80704266D02*
X129673105Y-80655885D01*
X129673105Y-80655885D02*
X129769867Y-80607504D01*
X129769867Y-80607504D02*
X130011772Y-80607504D01*
X130011772Y-80607504D02*
X130108534Y-80655885D01*
X130108534Y-80655885D02*
X130156915Y-80704266D01*
X130156915Y-80704266D02*
X130205295Y-80801028D01*
X130205295Y-80801028D02*
X130205295Y-81042933D01*
X130205295Y-81042933D02*
X130156915Y-81139695D01*
X130156915Y-81139695D02*
X130108534Y-81188076D01*
X126192095Y-78502932D02*
X125708286Y-78841599D01*
X126192095Y-79083504D02*
X125176095Y-79083504D01*
X125176095Y-79083504D02*
X125176095Y-78696456D01*
X125176095Y-78696456D02*
X125224476Y-78599694D01*
X125224476Y-78599694D02*
X125272857Y-78551313D01*
X125272857Y-78551313D02*
X125369619Y-78502932D01*
X125369619Y-78502932D02*
X125514762Y-78502932D01*
X125514762Y-78502932D02*
X125611524Y-78551313D01*
X125611524Y-78551313D02*
X125659905Y-78599694D01*
X125659905Y-78599694D02*
X125708286Y-78696456D01*
X125708286Y-78696456D02*
X125708286Y-79083504D01*
X125176095Y-77583694D02*
X125176095Y-78067504D01*
X125176095Y-78067504D02*
X125659905Y-78115885D01*
X125659905Y-78115885D02*
X125611524Y-78067504D01*
X125611524Y-78067504D02*
X125563143Y-77970742D01*
X125563143Y-77970742D02*
X125563143Y-77728837D01*
X125563143Y-77728837D02*
X125611524Y-77632075D01*
X125611524Y-77632075D02*
X125659905Y-77583694D01*
X125659905Y-77583694D02*
X125756667Y-77535313D01*
X125756667Y-77535313D02*
X125998572Y-77535313D01*
X125998572Y-77535313D02*
X126095334Y-77583694D01*
X126095334Y-77583694D02*
X126143715Y-77632075D01*
X126143715Y-77632075D02*
X126192095Y-77728837D01*
X126192095Y-77728837D02*
X126192095Y-77970742D01*
X126192095Y-77970742D02*
X126143715Y-78067504D01*
X126143715Y-78067504D02*
X126095334Y-78115885D01*
D11*
X134931892Y-108349142D02*
X134980273Y-108397523D01*
X134980273Y-108397523D02*
X135028653Y-108542666D01*
X135028653Y-108542666D02*
X135028653Y-108639428D01*
X135028653Y-108639428D02*
X134980273Y-108784571D01*
X134980273Y-108784571D02*
X134883511Y-108881333D01*
X134883511Y-108881333D02*
X134786749Y-108929714D01*
X134786749Y-108929714D02*
X134593225Y-108978095D01*
X134593225Y-108978095D02*
X134448082Y-108978095D01*
X134448082Y-108978095D02*
X134254558Y-108929714D01*
X134254558Y-108929714D02*
X134157796Y-108881333D01*
X134157796Y-108881333D02*
X134061034Y-108784571D01*
X134061034Y-108784571D02*
X134012653Y-108639428D01*
X134012653Y-108639428D02*
X134012653Y-108542666D01*
X134012653Y-108542666D02*
X134061034Y-108397523D01*
X134061034Y-108397523D02*
X134109415Y-108349142D01*
X135028653Y-107381523D02*
X135028653Y-107962095D01*
X135028653Y-107671809D02*
X134012653Y-107671809D01*
X134012653Y-107671809D02*
X134157796Y-107768571D01*
X134157796Y-107768571D02*
X134254558Y-107865333D01*
X134254558Y-107865333D02*
X134302939Y-107962095D01*
X135028653Y-106897714D02*
X135028653Y-106704190D01*
X135028653Y-106704190D02*
X134980273Y-106607428D01*
X134980273Y-106607428D02*
X134931892Y-106559047D01*
X134931892Y-106559047D02*
X134786749Y-106462285D01*
X134786749Y-106462285D02*
X134593225Y-106413904D01*
X134593225Y-106413904D02*
X134206177Y-106413904D01*
X134206177Y-106413904D02*
X134109415Y-106462285D01*
X134109415Y-106462285D02*
X134061034Y-106510666D01*
X134061034Y-106510666D02*
X134012653Y-106607428D01*
X134012653Y-106607428D02*
X134012653Y-106800952D01*
X134012653Y-106800952D02*
X134061034Y-106897714D01*
X134061034Y-106897714D02*
X134109415Y-106946095D01*
X134109415Y-106946095D02*
X134206177Y-106994476D01*
X134206177Y-106994476D02*
X134448082Y-106994476D01*
X134448082Y-106994476D02*
X134544844Y-106946095D01*
X134544844Y-106946095D02*
X134593225Y-106897714D01*
X134593225Y-106897714D02*
X134641606Y-106800952D01*
X134641606Y-106800952D02*
X134641606Y-106607428D01*
X134641606Y-106607428D02*
X134593225Y-106510666D01*
X134593225Y-106510666D02*
X134544844Y-106462285D01*
X134544844Y-106462285D02*
X134448082Y-106413904D01*
D10*
X126192095Y-80788932D02*
X125708286Y-81127599D01*
X126192095Y-81369504D02*
X125176095Y-81369504D01*
X125176095Y-81369504D02*
X125176095Y-80982456D01*
X125176095Y-80982456D02*
X125224476Y-80885694D01*
X125224476Y-80885694D02*
X125272857Y-80837313D01*
X125272857Y-80837313D02*
X125369619Y-80788932D01*
X125369619Y-80788932D02*
X125514762Y-80788932D01*
X125514762Y-80788932D02*
X125611524Y-80837313D01*
X125611524Y-80837313D02*
X125659905Y-80885694D01*
X125659905Y-80885694D02*
X125708286Y-80982456D01*
X125708286Y-80982456D02*
X125708286Y-81369504D01*
X125176095Y-79918075D02*
X125176095Y-80111599D01*
X125176095Y-80111599D02*
X125224476Y-80208361D01*
X125224476Y-80208361D02*
X125272857Y-80256742D01*
X125272857Y-80256742D02*
X125418000Y-80353504D01*
X125418000Y-80353504D02*
X125611524Y-80401885D01*
X125611524Y-80401885D02*
X125998572Y-80401885D01*
X125998572Y-80401885D02*
X126095334Y-80353504D01*
X126095334Y-80353504D02*
X126143715Y-80305123D01*
X126143715Y-80305123D02*
X126192095Y-80208361D01*
X126192095Y-80208361D02*
X126192095Y-80014837D01*
X126192095Y-80014837D02*
X126143715Y-79918075D01*
X126143715Y-79918075D02*
X126095334Y-79869694D01*
X126095334Y-79869694D02*
X125998572Y-79821313D01*
X125998572Y-79821313D02*
X125756667Y-79821313D01*
X125756667Y-79821313D02*
X125659905Y-79869694D01*
X125659905Y-79869694D02*
X125611524Y-79918075D01*
X125611524Y-79918075D02*
X125563143Y-80014837D01*
X125563143Y-80014837D02*
X125563143Y-80208361D01*
X125563143Y-80208361D02*
X125611524Y-80305123D01*
X125611524Y-80305123D02*
X125659905Y-80353504D01*
X125659905Y-80353504D02*
X125756667Y-80401885D01*
X128023257Y-76763695D02*
X127684590Y-76279886D01*
X127442685Y-76763695D02*
X127442685Y-75747695D01*
X127442685Y-75747695D02*
X127829733Y-75747695D01*
X127829733Y-75747695D02*
X127926495Y-75796076D01*
X127926495Y-75796076D02*
X127974876Y-75844457D01*
X127974876Y-75844457D02*
X128023257Y-75941219D01*
X128023257Y-75941219D02*
X128023257Y-76086362D01*
X128023257Y-76086362D02*
X127974876Y-76183124D01*
X127974876Y-76183124D02*
X127926495Y-76231505D01*
X127926495Y-76231505D02*
X127829733Y-76279886D01*
X127829733Y-76279886D02*
X127442685Y-76279886D01*
X128990876Y-76763695D02*
X128410304Y-76763695D01*
X128700590Y-76763695D02*
X128700590Y-75747695D01*
X128700590Y-75747695D02*
X128603828Y-75892838D01*
X128603828Y-75892838D02*
X128507066Y-75989600D01*
X128507066Y-75989600D02*
X128410304Y-76037981D01*
X129329542Y-75747695D02*
X129958495Y-75747695D01*
X129958495Y-75747695D02*
X129619828Y-76134743D01*
X129619828Y-76134743D02*
X129764971Y-76134743D01*
X129764971Y-76134743D02*
X129861733Y-76183124D01*
X129861733Y-76183124D02*
X129910114Y-76231505D01*
X129910114Y-76231505D02*
X129958495Y-76328267D01*
X129958495Y-76328267D02*
X129958495Y-76570172D01*
X129958495Y-76570172D02*
X129910114Y-76666934D01*
X129910114Y-76666934D02*
X129861733Y-76715315D01*
X129861733Y-76715315D02*
X129764971Y-76763695D01*
X129764971Y-76763695D02*
X129474685Y-76763695D01*
X129474685Y-76763695D02*
X129377923Y-76715315D01*
X129377923Y-76715315D02*
X129329542Y-76666934D01*
D11*
X131122057Y-116999492D02*
X131073676Y-117047873D01*
X131073676Y-117047873D02*
X130928533Y-117096253D01*
X130928533Y-117096253D02*
X130831771Y-117096253D01*
X130831771Y-117096253D02*
X130686628Y-117047873D01*
X130686628Y-117047873D02*
X130589866Y-116951111D01*
X130589866Y-116951111D02*
X130541485Y-116854349D01*
X130541485Y-116854349D02*
X130493104Y-116660825D01*
X130493104Y-116660825D02*
X130493104Y-116515682D01*
X130493104Y-116515682D02*
X130541485Y-116322158D01*
X130541485Y-116322158D02*
X130589866Y-116225396D01*
X130589866Y-116225396D02*
X130686628Y-116128634D01*
X130686628Y-116128634D02*
X130831771Y-116080253D01*
X130831771Y-116080253D02*
X130928533Y-116080253D01*
X130928533Y-116080253D02*
X131073676Y-116128634D01*
X131073676Y-116128634D02*
X131122057Y-116177015D01*
X131509104Y-116177015D02*
X131557485Y-116128634D01*
X131557485Y-116128634D02*
X131654247Y-116080253D01*
X131654247Y-116080253D02*
X131896152Y-116080253D01*
X131896152Y-116080253D02*
X131992914Y-116128634D01*
X131992914Y-116128634D02*
X132041295Y-116177015D01*
X132041295Y-116177015D02*
X132089676Y-116273777D01*
X132089676Y-116273777D02*
X132089676Y-116370539D01*
X132089676Y-116370539D02*
X132041295Y-116515682D01*
X132041295Y-116515682D02*
X131460723Y-117096253D01*
X131460723Y-117096253D02*
X132089676Y-117096253D01*
X132718628Y-116080253D02*
X132815390Y-116080253D01*
X132815390Y-116080253D02*
X132912152Y-116128634D01*
X132912152Y-116128634D02*
X132960533Y-116177015D01*
X132960533Y-116177015D02*
X133008914Y-116273777D01*
X133008914Y-116273777D02*
X133057295Y-116467301D01*
X133057295Y-116467301D02*
X133057295Y-116709206D01*
X133057295Y-116709206D02*
X133008914Y-116902730D01*
X133008914Y-116902730D02*
X132960533Y-116999492D01*
X132960533Y-116999492D02*
X132912152Y-117047873D01*
X132912152Y-117047873D02*
X132815390Y-117096253D01*
X132815390Y-117096253D02*
X132718628Y-117096253D01*
X132718628Y-117096253D02*
X132621866Y-117047873D01*
X132621866Y-117047873D02*
X132573485Y-116999492D01*
X132573485Y-116999492D02*
X132525104Y-116902730D01*
X132525104Y-116902730D02*
X132476723Y-116709206D01*
X132476723Y-116709206D02*
X132476723Y-116467301D01*
X132476723Y-116467301D02*
X132525104Y-116273777D01*
X132525104Y-116273777D02*
X132573485Y-116177015D01*
X132573485Y-116177015D02*
X132621866Y-116128634D01*
X132621866Y-116128634D02*
X132718628Y-116080253D01*
X129810933Y-105743663D02*
X129472266Y-105743663D01*
X129472266Y-106275853D02*
X129472266Y-105259853D01*
X129472266Y-105259853D02*
X129956076Y-105259853D01*
X130681790Y-105743663D02*
X130826933Y-105792044D01*
X130826933Y-105792044D02*
X130875314Y-105840425D01*
X130875314Y-105840425D02*
X130923695Y-105937187D01*
X130923695Y-105937187D02*
X130923695Y-106082330D01*
X130923695Y-106082330D02*
X130875314Y-106179092D01*
X130875314Y-106179092D02*
X130826933Y-106227473D01*
X130826933Y-106227473D02*
X130730171Y-106275853D01*
X130730171Y-106275853D02*
X130343123Y-106275853D01*
X130343123Y-106275853D02*
X130343123Y-105259853D01*
X130343123Y-105259853D02*
X130681790Y-105259853D01*
X130681790Y-105259853D02*
X130778552Y-105308234D01*
X130778552Y-105308234D02*
X130826933Y-105356615D01*
X130826933Y-105356615D02*
X130875314Y-105453377D01*
X130875314Y-105453377D02*
X130875314Y-105550139D01*
X130875314Y-105550139D02*
X130826933Y-105646901D01*
X130826933Y-105646901D02*
X130778552Y-105695282D01*
X130778552Y-105695282D02*
X130681790Y-105743663D01*
X130681790Y-105743663D02*
X130343123Y-105743663D01*
X131891314Y-106275853D02*
X131310742Y-106275853D01*
X131601028Y-106275853D02*
X131601028Y-105259853D01*
X131601028Y-105259853D02*
X131504266Y-105404996D01*
X131504266Y-105404996D02*
X131407504Y-105501758D01*
X131407504Y-105501758D02*
X131310742Y-105550139D01*
D12*
X118678000Y-84582000D02*
X118678000Y-89722000D01*
X116018000Y-89722000D02*
X118678000Y-89722000D01*
X116018000Y-84582000D02*
X118678000Y-84582000D01*
X116018000Y-84582000D02*
X116018000Y-89722000D01*
X116018000Y-83312000D02*
X116018000Y-81982000D01*
X116018000Y-81982000D02*
X117348000Y-81982000D01*
X123927600Y-78031921D02*
X123927600Y-77696679D01*
X124687600Y-78031921D02*
X124687600Y-77696679D01*
X122606800Y-77696679D02*
X122606800Y-78031921D01*
X123366800Y-77696679D02*
X123366800Y-78031921D01*
X122249200Y-79809921D02*
X122249200Y-79474679D01*
X121489200Y-79809921D02*
X121489200Y-79474679D01*
X122249200Y-82299121D02*
X122249200Y-81963879D01*
X121489200Y-82299121D02*
X121489200Y-81963879D01*
X122606800Y-80287479D02*
X122606800Y-80622721D01*
X123366800Y-80287479D02*
X123366800Y-80622721D01*
X123927600Y-80622721D02*
X123927600Y-80287479D01*
X124687600Y-80622721D02*
X124687600Y-80287479D01*
X122249200Y-77320721D02*
X122249200Y-76985479D01*
X121489200Y-77320721D02*
X121489200Y-76985479D01*
X119762000Y-76215221D02*
X119762000Y-75879979D01*
X120522000Y-76215221D02*
X120522000Y-75879979D01*
X118185200Y-79987721D02*
X118185200Y-79652479D01*
X117425200Y-79987721D02*
X117425200Y-79652479D01*
X118185200Y-77600121D02*
X118185200Y-77264879D01*
X117425200Y-77600121D02*
X117425200Y-77264879D01*
X119762000Y-78856821D02*
X119762000Y-78521579D01*
X120522000Y-78856821D02*
X120522000Y-78521579D01*
X118492000Y-75879979D02*
X118492000Y-76215221D01*
X119252000Y-75879979D02*
X119252000Y-76215221D01*
X118492000Y-78572379D02*
X118492000Y-78907621D01*
X119252000Y-78572379D02*
X119252000Y-78907621D01*
X118185200Y-75212521D02*
X118185200Y-74877279D01*
X117425200Y-75212521D02*
X117425200Y-74877279D01*
X125667500Y-116943000D02*
X125187500Y-116943000D01*
X125427500Y-116613000D01*
X125667500Y-116943000D01*
G36*
X125667500Y-116943000D02*
G01*
X125187500Y-116943000D01*
X125427500Y-116613000D01*
X125667500Y-116943000D01*
G37*
X119195000Y-111423000D02*
X119195000Y-111683000D01*
X119195000Y-116873000D02*
X119195000Y-116613000D01*
X121920000Y-111423000D02*
X119195000Y-111423000D01*
X121920000Y-111423000D02*
X124645000Y-111423000D01*
X121920000Y-116873000D02*
X119195000Y-116873000D01*
X121920000Y-116873000D02*
X124645000Y-116873000D01*
X124645000Y-111423000D02*
X124645000Y-111683000D01*
X124645000Y-116873000D02*
X124645000Y-116613000D01*
X128297321Y-116458000D02*
X127962079Y-116458000D01*
X128297321Y-115698000D02*
X127962079Y-115698000D01*
X116124400Y-115575535D02*
X116124400Y-115343865D01*
X116844400Y-115575535D02*
X116844400Y-115343865D01*
X125718300Y-109475400D02*
X125238300Y-109475400D01*
X125478300Y-109145400D01*
X125718300Y-109475400D01*
G36*
X125718300Y-109475400D02*
G01*
X125238300Y-109475400D01*
X125478300Y-109145400D01*
X125718300Y-109475400D01*
G37*
X119245800Y-109405400D02*
X119245800Y-109145400D01*
X121970800Y-109405400D02*
X119245800Y-109405400D01*
X121970800Y-109405400D02*
X124695800Y-109405400D01*
X124695800Y-109405400D02*
X124695800Y-109145400D01*
X119245800Y-103955400D02*
X119245800Y-104215400D01*
X121970800Y-103955400D02*
X119245800Y-103955400D01*
X121970800Y-103955400D02*
X124695800Y-103955400D01*
X124695800Y-103955400D02*
X124695800Y-104215400D01*
X120594800Y-91098635D02*
X120594800Y-90866965D01*
X121314800Y-91098635D02*
X121314800Y-90866965D01*
X123753200Y-90235035D02*
X123753200Y-90003365D01*
X123033200Y-90235035D02*
X123033200Y-90003365D01*
X120056400Y-92816900D02*
X120506400Y-92816900D01*
X120056400Y-93266900D02*
X120056400Y-92816900D01*
X120056400Y-99586900D02*
X120056400Y-100036900D01*
X127276400Y-92816900D02*
X126826400Y-92816900D01*
X127276400Y-93266900D02*
X127276400Y-92816900D01*
X127276400Y-99586900D02*
X127276400Y-100036900D01*
X127276400Y-100036900D02*
X126826400Y-100036900D01*
X118441200Y-92034379D02*
X118441200Y-92369621D01*
X119201200Y-92034379D02*
X119201200Y-92369621D01*
X129109200Y-102854779D02*
X129109200Y-103190021D01*
X129869200Y-102854779D02*
X129869200Y-103190021D01*
X116434800Y-91889948D02*
X116434800Y-92412452D01*
X117854800Y-91889948D02*
X117854800Y-92412452D01*
X117514635Y-95550400D02*
X117282965Y-95550400D01*
X117514635Y-96270400D02*
X117282965Y-96270400D01*
X124760400Y-102144565D02*
X124760400Y-102376235D01*
X125480400Y-102144565D02*
X125480400Y-102376235D01*
X119528000Y-91098635D02*
X119528000Y-90866965D01*
X120248000Y-91098635D02*
X120248000Y-90866965D01*
X130737262Y-79201200D02*
X131170275Y-79451200D01*
X130737262Y-79701200D02*
X130737262Y-79201200D01*
X131170275Y-79451200D02*
X130737262Y-79701200D01*
X131631600Y-68281200D02*
X140231600Y-68281200D01*
X131631600Y-99251200D02*
X131631600Y-68281200D01*
X140231600Y-99251200D02*
X131631600Y-99251200D01*
X118386935Y-110799200D02*
X118155265Y-110799200D01*
X118386935Y-110079200D02*
X118155265Y-110079200D01*
X135576000Y-111496800D02*
X136906000Y-111496800D01*
X135576000Y-112826800D02*
X135576000Y-111496800D01*
X135576000Y-114096800D02*
X135576000Y-116696800D01*
X135576000Y-114096800D02*
X138236000Y-114096800D01*
X135576000Y-116696800D02*
X138236000Y-116696800D01*
X138236000Y-114096800D02*
X138236000Y-116696800D01*
X117514635Y-95203600D02*
X117282965Y-95203600D01*
X117514635Y-94483600D02*
X117282965Y-94483600D01*
X117505935Y-96617200D02*
X117274265Y-96617200D01*
X117505935Y-97337200D02*
X117274265Y-97337200D01*
X129250421Y-84456000D02*
X128915179Y-84456000D01*
X129250421Y-85216000D02*
X128915179Y-85216000D01*
X129493600Y-98681465D02*
X129493600Y-98913135D01*
X128773600Y-98681465D02*
X128773600Y-98913135D01*
X119782000Y-102093765D02*
X119782000Y-102325435D01*
X120502000Y-102093765D02*
X120502000Y-102325435D01*
X129250421Y-83389200D02*
X128915179Y-83389200D01*
X129250421Y-84149200D02*
X128915179Y-84149200D01*
X138236000Y-109686400D02*
X136906000Y-109686400D01*
X138236000Y-108356400D02*
X138236000Y-109686400D01*
X138236000Y-107086400D02*
X138236000Y-101946400D01*
X138236000Y-107086400D02*
X135576000Y-107086400D01*
X138236000Y-101946400D02*
X135576000Y-101946400D01*
X135576000Y-107086400D02*
X135576000Y-101946400D01*
X124100000Y-90235035D02*
X124100000Y-90003365D01*
X124820000Y-90235035D02*
X124820000Y-90003365D01*
X126792400Y-90489035D02*
X126792400Y-90257365D01*
X127512400Y-90489035D02*
X127512400Y-90257365D01*
X129129200Y-95518235D02*
X129129200Y-95286565D01*
X129849200Y-95518235D02*
X129849200Y-95286565D01*
X129110665Y-86203200D02*
X129342335Y-86203200D01*
X129110665Y-86923200D02*
X129342335Y-86923200D01*
X129107200Y-91780379D02*
X129107200Y-92115621D01*
X128347200Y-91780379D02*
X128347200Y-92115621D01*
X131079221Y-115340400D02*
X130743979Y-115340400D01*
X131079221Y-114580400D02*
X130743979Y-114580400D01*
X129789600Y-91832165D02*
X129789600Y-92063835D01*
X130509600Y-91832165D02*
X130509600Y-92063835D01*
X123245200Y-102093765D02*
X123245200Y-102325435D01*
X122525200Y-102093765D02*
X122525200Y-102325435D01*
X133280000Y-110638000D02*
X132950000Y-110398000D01*
X133280000Y-110158000D01*
X133280000Y-110638000D01*
G36*
X133280000Y-110638000D02*
G01*
X132950000Y-110398000D01*
X133280000Y-110158000D01*
X133280000Y-110638000D01*
G37*
X133000000Y-111698000D02*
X133000000Y-110898000D01*
X129780000Y-110698000D02*
X129780000Y-112498000D01*
X133000000Y-111698000D02*
X133000000Y-112498000D01*
X127698900Y-79131179D02*
X127698900Y-79466421D01*
X128458900Y-79131179D02*
X128458900Y-79466421D01*
D13*
X129994800Y-90987200D02*
G75*
G02*
X129794800Y-90987200I-100000J0D01*
G01*
X129794800Y-90987200D02*
G75*
G02*
X129994800Y-90987200I100000J0D01*
G01*
D12*
X128765700Y-79478521D02*
X128765700Y-79143279D01*
X129525700Y-79478521D02*
X129525700Y-79143279D01*
X127290500Y-78387521D02*
X127290500Y-78052279D01*
X126530500Y-78387521D02*
X126530500Y-78052279D01*
X133650400Y-110179665D02*
X133650400Y-110411335D01*
X134370400Y-110179665D02*
X134370400Y-110411335D01*
X127290500Y-80775121D02*
X127290500Y-80439879D01*
X126530500Y-80775121D02*
X126530500Y-80439879D01*
X128868221Y-77963700D02*
X128532979Y-77963700D01*
X128868221Y-77203700D02*
X128532979Y-77203700D01*
X134218000Y-115555765D02*
X134218000Y-115787435D01*
X133498000Y-115555765D02*
X133498000Y-115787435D01*
X131230958Y-108560800D02*
X132051442Y-108560800D01*
X131230958Y-107440800D02*
X132051442Y-107440800D01*
%LPC*%
D14*
X117348000Y-88392000D03*
X117348000Y-85852000D03*
D15*
X117348000Y-83312000D03*
D16*
X124307600Y-78461800D03*
X124307600Y-77266800D03*
D17*
X122986800Y-77266800D03*
X122986800Y-78461800D03*
D16*
X121869200Y-80239800D03*
X121869200Y-79044800D03*
X121869200Y-82729000D03*
X121869200Y-81534000D03*
D17*
X122986800Y-79857600D03*
X122986800Y-81052600D03*
D16*
X124307600Y-81052600D03*
X124307600Y-79857600D03*
X121869200Y-77750600D03*
X121869200Y-76555600D03*
X120142000Y-76645100D03*
X120142000Y-75450100D03*
X117805200Y-80417600D03*
X117805200Y-79222600D03*
X117805200Y-78030000D03*
X117805200Y-76835000D03*
X120142000Y-79286700D03*
X120142000Y-78091700D03*
D17*
X118872000Y-75450100D03*
X118872000Y-76645100D03*
X118872000Y-78142500D03*
X118872000Y-79337500D03*
D16*
X117805200Y-75642400D03*
X117805200Y-74447400D03*
D18*
X118320000Y-116053000D03*
X118320000Y-114783000D03*
X118320000Y-113513000D03*
X118320000Y-112243000D03*
X125520000Y-112243000D03*
X125520000Y-113513000D03*
X125520000Y-114783000D03*
X125520000Y-116053000D03*
D19*
X128727200Y-116078000D03*
X127532200Y-116078000D03*
D20*
X116484400Y-116027200D03*
X116484400Y-114892200D03*
D18*
X118370800Y-108585400D03*
X118370800Y-107315400D03*
X118370800Y-106045400D03*
X118370800Y-104775400D03*
X125570800Y-104775400D03*
X125570800Y-106045400D03*
X125570800Y-107315400D03*
X125570800Y-108585400D03*
D20*
X120954800Y-91550300D03*
X120954800Y-90415300D03*
X123393200Y-89551700D03*
X123393200Y-90686700D03*
D21*
X120866400Y-99864400D03*
D22*
X121266400Y-99864400D03*
X121666400Y-99864400D03*
X122066400Y-99864400D03*
X122466400Y-99864400D03*
X122866400Y-99864400D03*
X123266400Y-99864400D03*
X123666400Y-99864400D03*
X124066400Y-99864400D03*
X124466400Y-99864400D03*
X124866400Y-99864400D03*
X125266400Y-99864400D03*
X125666400Y-99864400D03*
X126066400Y-99864400D03*
D23*
X126466400Y-99864400D03*
D24*
X127103900Y-99226900D03*
D25*
X127103900Y-98826900D03*
X127103900Y-98426900D03*
X127103900Y-98026900D03*
X127103900Y-97626900D03*
X127103900Y-97226900D03*
X127103900Y-96826900D03*
X127103900Y-96426900D03*
X127103900Y-96026900D03*
X127103900Y-95626900D03*
X127103900Y-95226900D03*
X127103900Y-94826900D03*
X127103900Y-94426900D03*
X127103900Y-94026900D03*
D26*
X127103900Y-93626900D03*
D27*
X126466400Y-92989400D03*
D22*
X126066400Y-92989400D03*
X125666400Y-92989400D03*
X125266400Y-92989400D03*
X124866400Y-92989400D03*
X124466400Y-92989400D03*
X124066400Y-92989400D03*
X123666400Y-92989400D03*
X123266400Y-92989400D03*
X122866400Y-92989400D03*
X122466400Y-92989400D03*
X122066400Y-92989400D03*
X121666400Y-92989400D03*
X121266400Y-92989400D03*
D28*
X120866400Y-92989400D03*
D29*
X120228900Y-93626900D03*
D25*
X120228900Y-94026900D03*
X120228900Y-94426900D03*
X120228900Y-94826900D03*
X120228900Y-95226900D03*
X120228900Y-95626900D03*
X120228900Y-96026900D03*
X120228900Y-96426900D03*
X120228900Y-96826900D03*
X120228900Y-97226900D03*
X120228900Y-97626900D03*
X120228900Y-98026900D03*
X120228900Y-98426900D03*
X120228900Y-98826900D03*
D30*
X120228900Y-99226900D03*
D31*
X123666400Y-96426900D03*
D17*
X118821200Y-91604500D03*
X118821200Y-92799500D03*
X129489200Y-102424900D03*
X129489200Y-103619900D03*
D32*
X117144800Y-93176200D03*
X117144800Y-91126200D03*
D33*
X117966300Y-95910400D03*
X116831300Y-95910400D03*
D34*
X125120400Y-101692900D03*
X125120400Y-102827900D03*
D20*
X119888000Y-91550300D03*
X119888000Y-90415300D03*
D35*
X135351600Y-96266200D03*
X135351600Y-71266200D03*
D36*
X133301600Y-79451200D03*
D37*
X133301600Y-81741200D03*
X133301600Y-84031200D03*
X133301600Y-86321200D03*
X133301600Y-88611200D03*
X135281600Y-78306200D03*
X135281600Y-80596200D03*
X135281600Y-82886200D03*
X135281600Y-85176200D03*
X135281600Y-87466200D03*
X137261600Y-79451200D03*
X137261600Y-81741200D03*
X137261600Y-84031200D03*
X137261600Y-86321200D03*
X137261600Y-88611200D03*
D33*
X118838600Y-110439200D03*
X117703600Y-110439200D03*
D15*
X136906000Y-112826800D03*
D14*
X136906000Y-115366800D03*
D33*
X117966300Y-94843600D03*
X116831300Y-94843600D03*
X117957600Y-96977200D03*
X116822600Y-96977200D03*
D19*
X129680300Y-84836000D03*
X128485300Y-84836000D03*
D34*
X129133600Y-98229800D03*
X129133600Y-99364800D03*
X120142000Y-101642100D03*
X120142000Y-102777100D03*
D19*
X129680300Y-83769200D03*
X128485300Y-83769200D03*
D15*
X136906000Y-108356400D03*
D14*
X136906000Y-105816400D03*
X136906000Y-103276400D03*
D20*
X124460000Y-90686700D03*
X124460000Y-89551700D03*
X127152400Y-90940700D03*
X127152400Y-89805700D03*
X129489200Y-95969900D03*
X129489200Y-94834900D03*
D38*
X128659000Y-86563200D03*
X129794000Y-86563200D03*
D17*
X128727200Y-91350500D03*
X128727200Y-92545500D03*
D19*
X131509100Y-114960400D03*
X130314100Y-114960400D03*
D34*
X130149600Y-91380500D03*
X130149600Y-92515500D03*
X122885200Y-102777100D03*
X122885200Y-101642100D03*
D39*
X132340000Y-112948000D03*
X130440000Y-112948000D03*
X130440000Y-110248000D03*
X131390000Y-110248000D03*
X132340000Y-110248000D03*
D17*
X128078900Y-78701300D03*
X128078900Y-79896300D03*
D40*
X129844800Y-89787200D03*
X129844800Y-88087200D03*
X128544800Y-88087200D03*
X128544800Y-89787200D03*
D16*
X129145700Y-79908400D03*
X129145700Y-78713400D03*
X126910500Y-78817400D03*
X126910500Y-77622400D03*
D34*
X134010400Y-109728000D03*
X134010400Y-110863000D03*
D16*
X126910500Y-81205000D03*
X126910500Y-80010000D03*
D19*
X129298100Y-77583700D03*
X128103100Y-77583700D03*
D34*
X133858000Y-115104100D03*
X133858000Y-116239100D03*
D41*
X130491200Y-108000800D03*
X132791200Y-108000800D03*
%LPD*%
M02*
