%TF.GenerationSoftware,KiCad,Pcbnew,8.0.6*%
%TF.CreationDate,2024-12-19T19:50:33+01:00*%
%TF.ProjectId,gpu_extension,6770755f-6578-4746-956e-73696f6e2e6b,rev?*%
%TF.SameCoordinates,Original*%
%TF.FileFunction,Copper,L4,Bot*%
%TF.FilePolarity,Positive*%
%FSLAX46Y46*%
G04 Gerber Fmt 4.6, Leading zero omitted, Abs format (unit mm)*
G04 Created by KiCad (PCBNEW 8.0.6) date 2024-12-19 19:50:33*
%MOMM*%
%LPD*%
G01*
G04 APERTURE LIST*
%TA.AperFunction,ComponentPad*%
%ADD10O,1.700000X1.700000*%
%TD*%
%TA.AperFunction,ComponentPad*%
%ADD11R,1.700000X1.700000*%
%TD*%
%TA.AperFunction,ComponentPad*%
%ADD12C,0.600000*%
%TD*%
%TA.AperFunction,ComponentPad*%
%ADD13C,4.000000*%
%TD*%
%TA.AperFunction,ComponentPad*%
%ADD14R,1.600000X1.600000*%
%TD*%
%TA.AperFunction,ComponentPad*%
%ADD15C,1.600000*%
%TD*%
%TA.AperFunction,SMDPad,CuDef*%
%ADD16R,0.740000X2.400000*%
%TD*%
%TA.AperFunction,ViaPad*%
%ADD17C,0.406400*%
%TD*%
%TA.AperFunction,ViaPad*%
%ADD18C,0.609600*%
%TD*%
%TA.AperFunction,ViaPad*%
%ADD19C,0.508000*%
%TD*%
%TA.AperFunction,Conductor*%
%ADD20C,0.317500*%
%TD*%
%TA.AperFunction,Conductor*%
%ADD21C,0.123190*%
%TD*%
%TA.AperFunction,Conductor*%
%ADD22C,0.406400*%
%TD*%
%TA.AperFunction,Conductor*%
%ADD23C,0.203200*%
%TD*%
G04 APERTURE END LIST*
D10*
X117348000Y-88392000D03*
X117348000Y-85852000D03*
D11*
X117348000Y-83312000D03*
D12*
X122291400Y-97801900D03*
X123666400Y-97801900D03*
X125041400Y-97801900D03*
X122291400Y-96426900D03*
X123666400Y-96426900D03*
X125041400Y-96426900D03*
X122291400Y-95051900D03*
X123666400Y-95051900D03*
X125041400Y-95051900D03*
D13*
X135351600Y-96266200D03*
X135351600Y-71266200D03*
D14*
X133301600Y-79451200D03*
D15*
X133301600Y-81741200D03*
X133301600Y-84031200D03*
X133301600Y-86321200D03*
X133301600Y-88611200D03*
X135281600Y-78306200D03*
X135281600Y-80596200D03*
X135281600Y-82886200D03*
X135281600Y-85176200D03*
X135281600Y-87466200D03*
X137261600Y-79451200D03*
X137261600Y-81741200D03*
X137261600Y-84031200D03*
X137261600Y-86321200D03*
X137261600Y-88611200D03*
D11*
X136906000Y-112826800D03*
D10*
X136906000Y-115366800D03*
D11*
X136906000Y-108356400D03*
D10*
X136906000Y-105816400D03*
X136906000Y-103276400D03*
D16*
X133350000Y-112948000D03*
X133350000Y-109048000D03*
X132080000Y-112948000D03*
X132080000Y-109048000D03*
X130810000Y-112948000D03*
X130810000Y-109048000D03*
X129540000Y-112948000D03*
X129540000Y-109048000D03*
X128270000Y-112948000D03*
X128270000Y-109048000D03*
X127000000Y-112948000D03*
X127000000Y-109048000D03*
X125730000Y-112948000D03*
X125730000Y-109048000D03*
X124460000Y-112948000D03*
X124460000Y-109048000D03*
X123190000Y-112948000D03*
X123190000Y-109048000D03*
X121920000Y-112948000D03*
X121920000Y-109048000D03*
D17*
X127711200Y-102260400D03*
X127762000Y-101346000D03*
X126085600Y-94894400D03*
X130657600Y-93319600D03*
X129895600Y-78689200D03*
X130098800Y-77520800D03*
X127711200Y-83769200D03*
X128574800Y-93624400D03*
X127660400Y-84886800D03*
X127711200Y-92202000D03*
X122885200Y-99060000D03*
X119189500Y-95567500D03*
X126085600Y-96266000D03*
X130708400Y-88087200D03*
X130606800Y-86614000D03*
X128574800Y-94945200D03*
X128574800Y-95758000D03*
X123266400Y-91541600D03*
D18*
X133045200Y-116941600D03*
X117043200Y-98196400D03*
X120040400Y-115722400D03*
D19*
X125882400Y-111150400D03*
D18*
X134569200Y-112572800D03*
X131064000Y-105816400D03*
D17*
X132435600Y-114960400D03*
X129387600Y-114858800D03*
D19*
X116078000Y-114096800D03*
X117652800Y-111353600D03*
X118668800Y-109474000D03*
X124358400Y-105308400D03*
D17*
X119227600Y-100888800D03*
X128146100Y-106810100D03*
X126847600Y-103581200D03*
X118719600Y-102057200D03*
X127101600Y-105105200D03*
X118110000Y-103073200D03*
X116840000Y-107340400D03*
X116332000Y-105968800D03*
X124663200Y-103886000D03*
X124104400Y-114757200D03*
X123190000Y-107188000D03*
X122529600Y-106222800D03*
X123190000Y-114503200D03*
X121005600Y-107492800D03*
X120599200Y-111810800D03*
X120599200Y-110642400D03*
X125933200Y-103479600D03*
X122885200Y-103581200D03*
D18*
X132080000Y-106680000D03*
X134518400Y-113538000D03*
D17*
X129133600Y-100177600D03*
X127152400Y-88950800D03*
X129540000Y-93980000D03*
D19*
X118719600Y-90322400D03*
D17*
X115976400Y-96977200D03*
X116027200Y-95910400D03*
X116027200Y-94792800D03*
X119634000Y-89509600D03*
X120802400Y-89458800D03*
X119176800Y-93675200D03*
X123698000Y-79146400D03*
X119481600Y-77368400D03*
X120091200Y-103632000D03*
X123291600Y-88747600D03*
X124358400Y-88696800D03*
D20*
X128574800Y-94945200D02*
X129032000Y-94945200D01*
X129032000Y-94945200D02*
X136906000Y-102819200D01*
X136906000Y-102819200D02*
X136906000Y-103276400D01*
X128574800Y-95758000D02*
X128574800Y-97485200D01*
X128574800Y-97485200D02*
X136906000Y-105816400D01*
D21*
X121005600Y-107492800D02*
X121005600Y-110006790D01*
X121005600Y-110006790D02*
X121590410Y-110591600D01*
X121590410Y-110591600D02*
X125120400Y-110591600D01*
X125120400Y-110591600D02*
X125730000Y-109982000D01*
X125730000Y-109982000D02*
X125730000Y-109048000D01*
X128778000Y-107238800D02*
X128778000Y-106121200D01*
D20*
X128778000Y-106121200D02*
X128778000Y-103327200D01*
X128778000Y-103327200D02*
X127711200Y-102260400D01*
X129590800Y-103174800D02*
X129590800Y-107137200D01*
X127762000Y-101346000D02*
X129590800Y-103174800D01*
X129590800Y-107137200D02*
X129554410Y-107137200D01*
X129554410Y-107137200D02*
X129286000Y-107405610D01*
X130200400Y-104495600D02*
X130200400Y-102311200D01*
X130200400Y-102311200D02*
X127558800Y-99669600D01*
X127558800Y-99669600D02*
X127558800Y-96367600D01*
X127558800Y-96367600D02*
X126085600Y-94894400D01*
D21*
X128879600Y-107812010D02*
X128879600Y-110334790D01*
X127000000Y-112214390D02*
X127000000Y-112948000D01*
X129286000Y-107405610D02*
X128879600Y-107812010D01*
X128879600Y-110334790D02*
X127000000Y-112214390D01*
X127000000Y-109048000D02*
X127000000Y-107899200D01*
X127000000Y-107899200D02*
X127355600Y-107543600D01*
X127355600Y-107543600D02*
X128473200Y-107543600D01*
X128473200Y-107543600D02*
X128778000Y-107238800D01*
X130200400Y-112338400D02*
X130810000Y-112948000D01*
X130200400Y-104495600D02*
X130200400Y-112338400D01*
D20*
X124104400Y-114757200D02*
X123291600Y-115570000D01*
X123291600Y-115570000D02*
X122326400Y-115570000D01*
X122326400Y-115570000D02*
X121920000Y-115163600D01*
X121920000Y-115163600D02*
X121920000Y-112948000D01*
X128146100Y-106810100D02*
X127812800Y-106476800D01*
X127812800Y-106476800D02*
X127812800Y-103479600D01*
X127812800Y-103479600D02*
X125730000Y-101396800D01*
X125730000Y-101396800D02*
X119735600Y-101396800D01*
X119735600Y-101396800D02*
X119227600Y-100888800D01*
D22*
X132080000Y-106680000D02*
X132080000Y-109048000D01*
X131064000Y-105816400D02*
X130810000Y-106070400D01*
X130810000Y-106070400D02*
X130810000Y-109048000D01*
D21*
X127000000Y-108000800D02*
X127000000Y-109048000D01*
D20*
X116332000Y-105968800D02*
X116332000Y-106832400D01*
X116332000Y-106832400D02*
X116840000Y-107340400D01*
X123190000Y-109048000D02*
X123190000Y-107188000D01*
X122529600Y-106222800D02*
X123748800Y-106222800D01*
X123748800Y-106222800D02*
X124460000Y-106934000D01*
X124460000Y-106934000D02*
X124460000Y-109048000D01*
X121920000Y-109048000D02*
X121920000Y-107442000D01*
X121666000Y-107188000D02*
X121666000Y-105918000D01*
X121920000Y-107442000D02*
X121666000Y-107188000D01*
X121666000Y-105918000D02*
X123698000Y-103886000D01*
X123698000Y-103886000D02*
X124663200Y-103886000D01*
X127101600Y-105105200D02*
X126681643Y-105105200D01*
X119907907Y-103016050D02*
X119850757Y-103073200D01*
X126681643Y-105105200D02*
X124592493Y-103016050D01*
X124592493Y-103016050D02*
X119907907Y-103016050D01*
X119850757Y-103073200D02*
X118110000Y-103073200D01*
X126847600Y-103581200D02*
X125577600Y-102311200D01*
X125577600Y-102311200D02*
X118973600Y-102311200D01*
X118973600Y-102311200D02*
X118719600Y-102057200D01*
D23*
X119189500Y-95567500D02*
X119189500Y-96634300D01*
X121615200Y-99060000D02*
X122885200Y-99060000D01*
X119189500Y-96634300D02*
X121615200Y-99060000D01*
D21*
X128574800Y-93624400D02*
X128625600Y-93573600D01*
X128625600Y-93573600D02*
X128625600Y-84683600D01*
X128625600Y-84683600D02*
X127711200Y-83769200D01*
D23*
X123063200Y-91744800D02*
X119024400Y-91744800D01*
X123266400Y-91541600D02*
X123063200Y-91744800D01*
D21*
X127711200Y-84937600D02*
X127660400Y-84886800D01*
X127711200Y-92202000D02*
X127711200Y-84937600D01*
D23*
X122885200Y-99060000D02*
X124663200Y-99060000D01*
X124663200Y-99060000D02*
X126085600Y-97637600D01*
X126085600Y-97637600D02*
X126085600Y-96266000D01*
X119024400Y-91744800D02*
X119126000Y-91643200D01*
X119126000Y-90728800D02*
X118719600Y-90322400D01*
X119126000Y-91643200D02*
X119126000Y-90728800D01*
X119189500Y-95567500D02*
X118313200Y-94691200D01*
X118313200Y-94691200D02*
X118313200Y-92456000D01*
X118313200Y-92456000D02*
X119024400Y-91744800D01*
D22*
X118668800Y-105714800D02*
X117094000Y-104140000D01*
X118668800Y-109474000D02*
X118668800Y-105714800D01*
X117094000Y-104140000D02*
X117094000Y-98247200D01*
X117094000Y-98247200D02*
X117043200Y-98196400D01*
X120040400Y-115722400D02*
X118668800Y-114350800D01*
X118668800Y-114350800D02*
X118668800Y-109474000D01*
X134518400Y-113538000D02*
X133928400Y-112948000D01*
X133928400Y-112948000D02*
X133350000Y-112948000D01*
D21*
X120599200Y-110642400D02*
X120904000Y-110947200D01*
X120904000Y-110947200D02*
X124561600Y-110947200D01*
X124561600Y-110947200D02*
X125730000Y-112115600D01*
X125730000Y-112115600D02*
X125730000Y-112948000D01*
X132435600Y-114960400D02*
X132435600Y-113303600D01*
X132435600Y-113303600D02*
X132080000Y-112948000D01*
X129387600Y-114858800D02*
X129336800Y-114808000D01*
X129336800Y-114808000D02*
X129336800Y-113151200D01*
X129336800Y-113151200D02*
X129540000Y-112948000D01*
X124155200Y-111353600D02*
X124460000Y-111658400D01*
X120599200Y-111810800D02*
X121056400Y-111353600D01*
X121056400Y-111353600D02*
X124155200Y-111353600D01*
X124460000Y-111658400D02*
X124460000Y-112948000D01*
X123190000Y-114503200D02*
X123190000Y-112948000D01*
D22*
X136906000Y-112826800D02*
X136093200Y-112826800D01*
X136093200Y-112826800D02*
X134264400Y-110998000D01*
X134264400Y-110998000D02*
X131521200Y-110998000D01*
X131521200Y-110998000D02*
X130810000Y-110286800D01*
X130810000Y-110286800D02*
X130810000Y-109048000D01*
M02*
