M48
; DRILL file {KiCad 8.0.4} date 2024-08-25T14:11:21+0200
; FORMAT={-:-/ absolute / metric / decimal}
; #@! TF.CreationDate,2024-08-25T14:11:21+02:00
; #@! TF.GenerationSoftware,Kicad,Pcbnew,8.0.4
; #@! TF.FileFunction,Plated,1,4,PTH
FMAT,2
METRIC
; #@! TA.AperFunction,Plated,PTH,ViaDrill
T1C0.305
; #@! TA.AperFunction,Plated,PTH,ComponentDrill
T2C0.350
; #@! TA.AperFunction,Plated,PTH,ComponentDrill
T3C1.000
; #@! TA.AperFunction,Plated,PTH,ComponentDrill
T4C3.200
%
G90
G05
T1
X115.849Y-96.19
X116.281Y-87.376
X116.332Y-98.044
X116.789Y-88.595
X117.246Y-92.278
X117.805Y-89.256
X118.186Y-92.227
X118.237Y-96.19
X118.321Y-90.483
X120.396Y-87.478
X120.396Y-102.997
X120.574Y-104.013
X120.625Y-105.181
X121.082Y-95.275
X121.266Y-101.092
X121.285Y-89.789
X121.768Y-103.886
X121.869Y-105.054
X121.92Y-85.496
X122.174Y-83.566
X122.174Y-102.718
X122.276Y-87.478
X122.301Y-84.709
X122.733Y-101.702
X122.936Y-99.06
X123.063Y-93.98
X123.19Y-89.433
X123.292Y-103.175
X123.444Y-87.478
X123.825Y-76.175
X123.85Y-75.082
X123.85Y-106.375
X124.181Y-89.306
X124.765Y-87.528
X124.892Y-103.022
X125.476Y-93.98
X125.832Y-98.298
X125.984Y-87.884
X126.111Y-94.996
X126.238Y-88.9
X126.238Y-97.003
X126.644Y-116.738
X126.695Y-102.514
X126.873Y-77.978
X127.356Y-89.535
X127.991Y-95.631
X128.016Y-78.994
X128.067Y-97.231
X128.067Y-101.956
X128.676Y-96.495
X128.981Y-94.767
X129.083Y-116.027
X129.184Y-81.636
X129.54Y-82.702
X130.048Y-81.915
X130.556Y-85.598
X130.683Y-83.312
X131.953Y-115.443
X132.334Y-116.205
X132.588Y-107.188
X133.223Y-115.697
X133.858Y-98.069
X134.112Y-103.378
X134.214Y-98.958
X136.398Y-116.205
T2
X122.291Y-95.052
X122.291Y-96.427
X122.291Y-97.802
X123.666Y-95.052
X123.666Y-96.427
X123.666Y-97.802
X125.041Y-95.052
X125.041Y-96.427
X125.041Y-97.802
T3
X117.653Y-108.473
X117.653Y-111.013
X117.653Y-113.553
X133.302Y-79.451
X133.302Y-81.741
X133.302Y-84.031
X133.302Y-86.321
X133.302Y-88.611
X135.282Y-78.306
X135.282Y-80.596
X135.282Y-82.886
X135.282Y-85.176
X135.282Y-87.466
X137.262Y-79.451
X137.262Y-81.741
X137.262Y-84.031
X137.262Y-86.321
X137.262Y-88.611
T4
X135.352Y-71.266
X135.352Y-96.266
M30
