  0
SECTION
  2
HEADER
  9
$ANGBASE
  50
0.0
  9
$ANGDIR
  70
1
  9
$MEASUREMENT
  70
1
  0
ENDSEC
  0
SECTION
  2
TABLES
  0
TABLE
  2
LTYPE
  70
4
  0
LTYPE
  5
40F
  2
CONTINUOUS
  70
0
  3
Solid line
  72
65
  73
0
  40
0.0
  0
LTYPE
  5
410
  2
DASHDOT
 70
0
  3
Dash Dot ____ _ ____ _
 72
65
 73
4
 40
2.0
 49
1.25
 49
-0.25
 49
0.25
 49
-0.25
  0
LTYPE
  5
411
  2
DASHED
 70
0
  3
Dashed __ __ __ __ __
 72
65
 73
2
 40
0.75
 49
0.5
 49
-0.25
  0
LTYPE
  5
43B
  2
DOTTED
 70
0
  3
Dotted .  .  .  .
 72
65
 73
2
 40
0.2
 49
0.0
 49
-0.2
  0
ENDTAB
  0
TABLE
  2
STYLE
  70
4
  0
STYLE
  2
KICAD
  70
0
  40
0
  41
1
  42
1
  50
0
  71
0
  3
isocp.shx
  0
STYLE
  2
KICADB
  70
0
  40
0
  41
1
  42
1
  50
0
  71
0
  3
isocp.shx
  0
STYLE
  2
KICADI
  70
0
  40
0
  41
1
  42
1
  50
15
  71
0
  3
isocp.shx
  0
STYLE
  2
KICADBI
  70
0
  40
0
  41
1
  42
1
  50
15
  71
0
  3
isocp.shx
  0
ENDTAB
  0
TABLE
  2
LAYER
  70
1
  0
LAYER
  2
BLACK
  70
0
  62
7
  6
CONTINUOUS
  0
ENDTAB
  0
ENDSEC
  0
SECTION
  2
ENTITIES
0
LINE
8
BLACK
6
CONTINUOUS
10
61.3415
20
-123.424
11
59.3415
21
-123.424
0
LINE
8
BLACK
6
CONTINUOUS
10
59.3415
20
-123.424
11
59.3415
21
-121.974
0
LINE
8
BLACK
6
CONTINUOUS
10
59.3415
20
-121.974
11
61.3415
21
-121.974
0
LINE
8
BLACK
6
CONTINUOUS
10
61.3415
20
-121.974
11
61.3415
21
-123.424
0
LINE
8
BLACK
6
CONTINUOUS
10
53.0415
20
-123.424
11
51.0415
21
-123.424
0
LINE
8
BLACK
6
CONTINUOUS
10
51.0415
20
-123.424
11
51.0415
21
-121.974
0
LINE
8
BLACK
6
CONTINUOUS
10
51.0415
20
-121.974
11
53.0415
21
-121.974
0
LINE
8
BLACK
6
CONTINUOUS
10
53.0415
20
-121.974
11
53.0415
21
-123.424
0
LINE
8
BLACK
6
CONTINUOUS
10
55.3915
20
-120.724
11
53.8915
21
-120.724
0
LINE
8
BLACK
6
CONTINUOUS
10
53.8915
20
-120.724
11
53.8915
21
-119.924
0
LINE
8
BLACK
6
CONTINUOUS
10
53.8915
20
-119.924
11
55.3915
21
-119.924
0
LINE
8
BLACK
6
CONTINUOUS
10
55.3915
20
-119.924
11
55.3915
21
-120.724
0
LINE
8
BLACK
6
CONTINUOUS
10
55.3915
20
-119.624
11
53.8915
21
-119.624
0
LINE
8
BLACK
6
CONTINUOUS
10
53.8915
20
-119.624
11
53.8915
21
-118.824
0
LINE
8
BLACK
6
CONTINUOUS
10
53.8915
20
-118.824
11
55.3915
21
-118.824
0
LINE
8
BLACK
6
CONTINUOUS
10
55.3915
20
-118.824
11
55.3915
21
-119.624
0
LINE
8
BLACK
6
CONTINUOUS
10
55.3915
20
-118.524
11
53.8915
21
-118.524
0
LINE
8
BLACK
6
CONTINUOUS
10
53.8915
20
-118.524
11
53.8915
21
-117.724
0
LINE
8
BLACK
6
CONTINUOUS
10
53.8915
20
-117.724
11
55.3915
21
-117.724
0
LINE
8
BLACK
6
CONTINUOUS
10
55.3915
20
-117.724
11
55.3915
21
-118.524
0
LINE
8
BLACK
6
CONTINUOUS
10
55.3915
20
-117.424
11
53.8915
21
-117.424
0
LINE
8
BLACK
6
CONTINUOUS
10
53.8915
20
-117.424
11
53.8915
21
-116.624
0
LINE
8
BLACK
6
CONTINUOUS
10
53.8915
20
-116.624
11
55.3915
21
-116.624
0
LINE
8
BLACK
6
CONTINUOUS
10
55.3915
20
-116.624
11
55.3915
21
-117.424
0
LINE
8
BLACK
6
CONTINUOUS
10
55.3915
20
-116.324
11
53.8915
21
-116.324
0
LINE
8
BLACK
6
CONTINUOUS
10
53.8915
20
-116.324
11
53.8915
21
-115.524
0
LINE
8
BLACK
6
CONTINUOUS
10
53.8915
20
-115.524
11
55.3915
21
-115.524
0
LINE
8
BLACK
6
CONTINUOUS
10
55.3915
20
-115.524
11
55.3915
21
-116.324
0
LINE
8
BLACK
6
CONTINUOUS
10
55.3915
20
-115.224
11
53.8915
21
-115.224
0
LINE
8
BLACK
6
CONTINUOUS
10
53.8915
20
-115.224
11
53.8915
21
-114.424
0
LINE
8
BLACK
6
CONTINUOUS
10
53.8915
20
-114.424
11
55.3915
21
-114.424
0
LINE
8
BLACK
6
CONTINUOUS
10
55.3915
20
-114.424
11
55.3915
21
-115.224
0
LINE
8
BLACK
6
CONTINUOUS
10
55.3915
20
-114.124
11
53.8915
21
-114.124
0
LINE
8
BLACK
6
CONTINUOUS
10
53.8915
20
-114.124
11
53.8915
21
-113.324
0
LINE
8
BLACK
6
CONTINUOUS
10
53.8915
20
-113.324
11
55.3915
21
-113.324
0
LINE
8
BLACK
6
CONTINUOUS
10
55.3915
20
-113.324
11
55.3915
21
-114.124
0
LINE
8
BLACK
6
CONTINUOUS
10
55.3915
20
-113.024
11
53.8915
21
-113.024
0
LINE
8
BLACK
6
CONTINUOUS
10
53.8915
20
-113.024
11
53.8915
21
-112.224
0
LINE
8
BLACK
6
CONTINUOUS
10
53.8915
20
-112.224
11
55.3915
21
-112.224
0
LINE
8
BLACK
6
CONTINUOUS
10
55.3915
20
-112.224
11
55.3915
21
-113.024
0
LINE
8
BLACK
6
CONTINUOUS
10
61.3415
20
-109.674
11
59.3415
21
-109.674
0
LINE
8
BLACK
6
CONTINUOUS
10
59.3415
20
-109.674
11
59.3415
21
-108.224
0
LINE
8
BLACK
6
CONTINUOUS
10
59.3415
20
-108.224
11
61.3415
21
-108.224
0
LINE
8
BLACK
6
CONTINUOUS
10
61.3415
20
-108.224
11
61.3415
21
-109.674
0
LINE
8
BLACK
6
CONTINUOUS
10
53.0415
20
-109.674
11
51.0415
21
-109.674
0
LINE
8
BLACK
6
CONTINUOUS
10
51.0415
20
-109.674
11
51.0415
21
-108.224
0
LINE
8
BLACK
6
CONTINUOUS
10
51.0415
20
-108.224
11
53.0415
21
-108.224
0
LINE
8
BLACK
6
CONTINUOUS
10
53.0415
20
-108.224
11
53.0415
21
-109.674
0
LINE
8
BLACK
6
CONTINUOUS
10
56.2708
20
-105.061
11
56.3211
21
-105.095
0
LINE
8
BLACK
6
CONTINUOUS
10
56.3211
20
-105.095
11
56.3547
21
-105.145
0
LINE
8
BLACK
6
CONTINUOUS
10
56.3547
20
-105.145
11
56.3665
21
-105.204
0
LINE
8
BLACK
6
CONTINUOUS
10
56.3665
20
-105.204
11
56.3665
21
-105.514
0
LINE
8
BLACK
6
CONTINUOUS
10
56.3665
20
-105.514
11
56.3547
21
-105.574
0
LINE
8
BLACK
6
CONTINUOUS
10
56.3547
20
-105.574
11
56.3211
21
-105.624
0
LINE
8
BLACK
6
CONTINUOUS
10
56.3211
20
-105.624
11
56.2708
21
-105.657
0
LINE
8
BLACK
6
CONTINUOUS
10
56.2708
20
-105.657
11
56.2115
21
-105.669
0
LINE
8
BLACK
6
CONTINUOUS
10
56.2115
20
-105.669
11
55.7865
21
-105.669
0
LINE
8
BLACK
6
CONTINUOUS
10
55.7865
20
-105.669
11
55.7272
21
-105.657
0
LINE
8
BLACK
6
CONTINUOUS
10
55.7272
20
-105.657
11
55.6769
21
-105.624
0
LINE
8
BLACK
6
CONTINUOUS
10
55.6769
20
-105.624
11
55.6433
21
-105.574
0
LINE
8
BLACK
6
CONTINUOUS
10
55.6433
20
-105.574
11
55.6315
21
-105.514
0
LINE
8
BLACK
6
CONTINUOUS
10
55.6315
20
-105.514
11
55.6315
21
-105.204
0
LINE
8
BLACK
6
CONTINUOUS
10
55.6315
20
-105.204
11
55.6433
21
-105.145
0
LINE
8
BLACK
6
CONTINUOUS
10
55.6433
20
-105.145
11
55.6769
21
-105.095
0
LINE
8
BLACK
6
CONTINUOUS
10
55.6769
20
-105.095
11
55.7272
21
-105.061
0
LINE
8
BLACK
6
CONTINUOUS
10
55.7272
20
-105.061
11
55.7865
21
-105.049
0
LINE
8
BLACK
6
CONTINUOUS
10
55.7865
20
-105.049
11
56.2115
21
-105.049
0
LINE
8
BLACK
6
CONTINUOUS
10
56.2115
20
-105.049
11
56.2708
21
-105.061
0
LINE
8
BLACK
6
CONTINUOUS
10
55.1358
20
-105.061
11
55.1861
21
-105.095
0
LINE
8
BLACK
6
CONTINUOUS
10
55.1861
20
-105.095
11
55.2197
21
-105.145
0
LINE
8
BLACK
6
CONTINUOUS
10
55.2197
20
-105.145
11
55.2315
21
-105.204
0
LINE
8
BLACK
6
CONTINUOUS
10
55.2315
20
-105.204
11
55.2315
21
-105.514
0
LINE
8
BLACK
6
CONTINUOUS
10
55.2315
20
-105.514
11
55.2197
21
-105.574
0
LINE
8
BLACK
6
CONTINUOUS
10
55.2197
20
-105.574
11
55.1861
21
-105.624
0
LINE
8
BLACK
6
CONTINUOUS
10
55.1861
20
-105.624
11
55.1358
21
-105.657
0
LINE
8
BLACK
6
CONTINUOUS
10
55.1358
20
-105.657
11
55.0765
21
-105.669
0
LINE
8
BLACK
6
CONTINUOUS
10
55.0765
20
-105.669
11
54.6515
21
-105.669
0
LINE
8
BLACK
6
CONTINUOUS
10
54.6515
20
-105.669
11
54.5922
21
-105.657
0
LINE
8
BLACK
6
CONTINUOUS
10
54.5922
20
-105.657
11
54.5419
21
-105.624
0
LINE
8
BLACK
6
CONTINUOUS
10
54.5419
20
-105.624
11
54.5083
21
-105.574
0
LINE
8
BLACK
6
CONTINUOUS
10
54.5083
20
-105.574
11
54.4965
21
-105.514
0
LINE
8
BLACK
6
CONTINUOUS
10
54.4965
20
-105.514
11
54.4965
21
-105.204
0
LINE
8
BLACK
6
CONTINUOUS
10
54.4965
20
-105.204
11
54.5083
21
-105.145
0
LINE
8
BLACK
6
CONTINUOUS
10
54.5083
20
-105.145
11
54.5419
21
-105.095
0
LINE
8
BLACK
6
CONTINUOUS
10
54.5419
20
-105.095
11
54.5922
21
-105.061
0
LINE
8
BLACK
6
CONTINUOUS
10
54.5922
20
-105.061
11
54.6515
21
-105.049
0
LINE
8
BLACK
6
CONTINUOUS
10
54.6515
20
-105.049
11
55.0765
21
-105.049
0
LINE
8
BLACK
6
CONTINUOUS
10
55.0765
20
-105.049
11
55.1358
21
-105.061
  0
ENDSEC
  0
EOF
