G04 #@! TF.GenerationSoftware,KiCad,Pcbnew,8.0.6*
G04 #@! TF.CreationDate,2024-12-19T12:02:48+01:00*
G04 #@! TF.ProjectId,gpu_extension,6770755f-6578-4746-956e-73696f6e2e6b,rev?*
G04 #@! TF.SameCoordinates,Original*
G04 #@! TF.FileFunction,Copper,L4,Bot*
G04 #@! TF.FilePolarity,Positive*
%FSLAX46Y46*%
G04 Gerber Fmt 4.6, Leading zero omitted, Abs format (unit mm)*
G04 Created by KiCad (PCBNEW 8.0.6) date 2024-12-19 12:02:48*
%MOMM*%
%LPD*%
G01*
G04 APERTURE LIST*
G04 Aperture macros list*
%AMRoundRect*
0 Rectangle with rounded corners*
0 $1 Rounding radius*
0 $2 $3 $4 $5 $6 $7 $8 $9 X,Y pos of 4 corners*
0 Add a 4 corners polygon primitive as box body*
4,1,4,$2,$3,$4,$5,$6,$7,$8,$9,$2,$3,0*
0 Add four circle primitives for the rounded corners*
1,1,$1+$1,$2,$3*
1,1,$1+$1,$4,$5*
1,1,$1+$1,$6,$7*
1,1,$1+$1,$8,$9*
0 Add four rect primitives between the rounded corners*
20,1,$1+$1,$2,$3,$4,$5,0*
20,1,$1+$1,$4,$5,$6,$7,0*
20,1,$1+$1,$6,$7,$8,$9,0*
20,1,$1+$1,$8,$9,$2,$3,0*%
G04 Aperture macros list end*
G04 #@! TA.AperFunction,SMDPad,CuDef*
%ADD10RoundRect,0.155000X-0.155000X0.212500X-0.155000X-0.212500X0.155000X-0.212500X0.155000X0.212500X0*%
G04 #@! TD*
G04 #@! TA.AperFunction,SMDPad,CuDef*
%ADD11RoundRect,0.155000X0.155000X-0.212500X0.155000X0.212500X-0.155000X0.212500X-0.155000X-0.212500X0*%
G04 #@! TD*
G04 #@! TA.AperFunction,SMDPad,CuDef*
%ADD12RoundRect,0.155000X0.212500X0.155000X-0.212500X0.155000X-0.212500X-0.155000X0.212500X-0.155000X0*%
G04 #@! TD*
G04 #@! TA.AperFunction,SMDPad,CuDef*
%ADD13RoundRect,0.155000X-0.212500X-0.155000X0.212500X-0.155000X0.212500X0.155000X-0.212500X0.155000X0*%
G04 #@! TD*
G04 #@! TA.AperFunction,SMDPad,CuDef*
%ADD14RoundRect,0.162500X0.617500X0.162500X-0.617500X0.162500X-0.617500X-0.162500X0.617500X-0.162500X0*%
G04 #@! TD*
G04 #@! TA.AperFunction,ComponentPad*
%ADD15R,1.700000X1.700000*%
G04 #@! TD*
G04 #@! TA.AperFunction,ComponentPad*
%ADD16O,1.700000X1.700000*%
G04 #@! TD*
G04 #@! TA.AperFunction,SMDPad,CuDef*
%ADD17RoundRect,0.250000X-0.275000X-0.350000X0.275000X-0.350000X0.275000X0.350000X-0.275000X0.350000X0*%
G04 #@! TD*
G04 #@! TA.AperFunction,ComponentPad*
%ADD18C,0.600000*%
G04 #@! TD*
G04 #@! TA.AperFunction,ComponentPad*
%ADD19C,4.000000*%
G04 #@! TD*
G04 #@! TA.AperFunction,ComponentPad*
%ADD20R,1.600000X1.600000*%
G04 #@! TD*
G04 #@! TA.AperFunction,ComponentPad*
%ADD21C,1.600000*%
G04 #@! TD*
G04 #@! TA.AperFunction,SMDPad,CuDef*
%ADD22RoundRect,0.160000X-0.197500X-0.160000X0.197500X-0.160000X0.197500X0.160000X-0.197500X0.160000X0*%
G04 #@! TD*
G04 #@! TA.AperFunction,SMDPad,CuDef*
%ADD23RoundRect,0.160000X-0.160000X0.197500X-0.160000X-0.197500X0.160000X-0.197500X0.160000X0.197500X0*%
G04 #@! TD*
G04 #@! TA.AperFunction,SMDPad,CuDef*
%ADD24RoundRect,0.160000X0.160000X-0.197500X0.160000X0.197500X-0.160000X0.197500X-0.160000X-0.197500X0*%
G04 #@! TD*
G04 #@! TA.AperFunction,SMDPad,CuDef*
%ADD25RoundRect,0.160000X0.197500X0.160000X-0.197500X0.160000X-0.197500X-0.160000X0.197500X-0.160000X0*%
G04 #@! TD*
G04 #@! TA.AperFunction,SMDPad,CuDef*
%ADD26R,1.000000X1.200000*%
G04 #@! TD*
G04 #@! TA.AperFunction,SMDPad,CuDef*
%ADD27R,0.740000X2.400000*%
G04 #@! TD*
G04 #@! TA.AperFunction,ViaPad*
%ADD28C,0.609600*%
G04 #@! TD*
G04 #@! TA.AperFunction,ViaPad*
%ADD29C,0.406400*%
G04 #@! TD*
G04 #@! TA.AperFunction,ViaPad*
%ADD30C,0.508000*%
G04 #@! TD*
G04 #@! TA.AperFunction,Conductor*
%ADD31C,0.317500*%
G04 #@! TD*
G04 #@! TA.AperFunction,Conductor*
%ADD32C,0.254000*%
G04 #@! TD*
G04 #@! TA.AperFunction,Conductor*
%ADD33C,0.123190*%
G04 #@! TD*
G04 #@! TA.AperFunction,Conductor*
%ADD34C,0.155448*%
G04 #@! TD*
G04 #@! TA.AperFunction,Conductor*
%ADD35C,0.152400*%
G04 #@! TD*
G04 #@! TA.AperFunction,Conductor*
%ADD36C,0.406400*%
G04 #@! TD*
G04 #@! TA.AperFunction,Conductor*
%ADD37C,0.203200*%
G04 #@! TD*
G04 APERTURE END LIST*
D10*
X130657600Y-101591300D03*
X130657600Y-102726300D03*
D11*
X137058400Y-103581200D03*
X137058400Y-102446200D03*
D12*
X127161100Y-95859600D03*
X126026100Y-95859600D03*
D10*
X132516400Y-95215900D03*
X132516400Y-96350900D03*
D13*
X129815300Y-99314000D03*
X130950300Y-99314000D03*
D11*
X121412000Y-98671000D03*
X121412000Y-97536000D03*
D14*
X135229600Y-101346000D03*
X135229600Y-102296000D03*
X135229600Y-103246000D03*
X132529600Y-103246000D03*
X132529600Y-101346000D03*
D15*
X117957600Y-70556200D03*
D16*
X117957600Y-73096200D03*
D17*
X131325000Y-105283000D03*
X133625000Y-105283000D03*
D18*
X122291400Y-97801900D03*
X123666400Y-97801900D03*
X125041400Y-97801900D03*
X122291400Y-96426900D03*
X123666400Y-96426900D03*
X125041400Y-96426900D03*
X122291400Y-95051900D03*
X123666400Y-95051900D03*
X125041400Y-95051900D03*
D19*
X135351600Y-96266200D03*
X135351600Y-71266200D03*
D20*
X133301600Y-79451200D03*
D21*
X133301600Y-81741200D03*
X133301600Y-84031200D03*
X133301600Y-86321200D03*
X133301600Y-88611200D03*
X135281600Y-78306200D03*
X135281600Y-80596200D03*
X135281600Y-82886200D03*
X135281600Y-85176200D03*
X135281600Y-87466200D03*
X137261600Y-79451200D03*
X137261600Y-81741200D03*
X137261600Y-84031200D03*
X137261600Y-86321200D03*
X137261600Y-88611200D03*
D15*
X117652800Y-108473000D03*
D16*
X117652800Y-111013000D03*
X117652800Y-113553000D03*
D22*
X119519100Y-76048800D03*
X120714100Y-76048800D03*
X122299800Y-78829500D03*
X123494800Y-78829500D03*
X119519100Y-74982000D03*
X120714100Y-74982000D03*
D23*
X122961400Y-73558400D03*
X122961400Y-74753400D03*
D22*
X122287700Y-79896300D03*
X123482700Y-79896300D03*
D24*
X124612400Y-78587600D03*
X124612400Y-77392600D03*
D25*
X131064000Y-94005400D03*
X129869000Y-94005400D03*
X130848700Y-116078000D03*
X129653700Y-116078000D03*
D24*
X124612400Y-80951000D03*
X124612400Y-79756000D03*
D23*
X122961400Y-75908500D03*
X122961400Y-77103500D03*
D24*
X126987900Y-82092800D03*
X126987900Y-80897800D03*
D26*
X129844800Y-97254800D03*
X129844800Y-95554800D03*
X131144800Y-95554800D03*
X131144800Y-97254800D03*
D23*
X128054700Y-80885700D03*
X128054700Y-82080700D03*
D22*
X124663200Y-83186200D03*
X125858200Y-83186200D03*
D23*
X125679200Y-79768100D03*
X125679200Y-80963100D03*
D22*
X124675300Y-82145000D03*
X125870300Y-82145000D03*
D25*
X128207100Y-83210400D03*
X127012100Y-83210400D03*
D24*
X121843800Y-77103500D03*
X121843800Y-75908500D03*
D27*
X133350000Y-112948000D03*
X133350000Y-109048000D03*
X132080000Y-112948000D03*
X132080000Y-109048000D03*
X130810000Y-112948000D03*
X130810000Y-109048000D03*
X129540000Y-112948000D03*
X129540000Y-109048000D03*
X128270000Y-112948000D03*
X128270000Y-109048000D03*
X127000000Y-112948000D03*
X127000000Y-109048000D03*
X125730000Y-112948000D03*
X125730000Y-109048000D03*
X124460000Y-112948000D03*
X124460000Y-109048000D03*
X123190000Y-112948000D03*
X123190000Y-109048000D03*
X121920000Y-112948000D03*
X121920000Y-109048000D03*
D22*
X122287700Y-80963100D03*
X123482700Y-80963100D03*
D23*
X125679200Y-77380500D03*
X125679200Y-78575500D03*
D22*
X119519100Y-77115600D03*
X120714100Y-77115600D03*
D24*
X121843800Y-74766700D03*
X121843800Y-73571700D03*
D28*
X132156200Y-115646200D03*
D29*
X131267200Y-90424000D03*
X131216400Y-89408000D03*
D28*
X127101600Y-104394000D03*
X130810000Y-100685600D03*
X135026400Y-100177600D03*
X120229800Y-78028800D03*
D30*
X131495800Y-110921800D03*
X131724400Y-102362000D03*
X137058400Y-101447600D03*
X123850400Y-106375200D03*
X123825000Y-76174600D03*
D29*
X124891800Y-103022400D03*
D28*
X133654800Y-115824000D03*
D29*
X120396000Y-102997000D03*
D30*
X126873000Y-77978000D03*
D29*
X121285000Y-89789000D03*
D30*
X128016000Y-78994000D03*
D29*
X132080000Y-100126800D03*
D30*
X129540000Y-82702400D03*
D29*
X123190000Y-89433400D03*
D30*
X123850400Y-75082400D03*
D28*
X132588000Y-107188000D03*
D29*
X115849400Y-96189800D03*
X128676400Y-116078000D03*
X117957600Y-91897200D03*
D28*
X121920000Y-85496400D03*
D30*
X129184400Y-81635600D03*
D29*
X124180600Y-89306400D03*
X118237000Y-96189800D03*
X127355600Y-89535000D03*
X118321200Y-90482800D03*
X128676400Y-96494600D03*
X116332000Y-98044000D03*
X117246400Y-92278200D03*
D30*
X126644400Y-116738400D03*
D29*
X123063000Y-93980000D03*
X126238000Y-97002600D03*
X121081800Y-95275400D03*
X122936000Y-99060000D03*
X128066800Y-97231200D03*
X122732800Y-101701600D03*
X121869200Y-105054400D03*
X122174000Y-102717600D03*
X126111000Y-94996000D03*
X121767600Y-103886000D03*
X121266400Y-101092000D03*
X126695200Y-102514400D03*
X123291600Y-103174800D03*
X120624600Y-105181400D03*
X120573800Y-104013000D03*
X128066800Y-101955600D03*
X125831600Y-98298000D03*
X127990600Y-95631000D03*
X128981200Y-94767400D03*
X121920000Y-83312000D03*
X132943600Y-116433600D03*
X136398000Y-116205000D03*
X122377200Y-84531200D03*
X117805200Y-89255600D03*
X116789200Y-88595200D03*
X116281200Y-87376000D03*
X120396000Y-87477600D03*
X122275600Y-87477600D03*
X123444000Y-87477600D03*
X124764800Y-87528400D03*
X125984000Y-87884000D03*
X126238000Y-88900000D03*
X130048000Y-81915000D03*
X130683000Y-83312000D03*
X125476000Y-93980000D03*
D31*
X135229600Y-101346000D02*
X135229600Y-100380800D01*
X135229600Y-100380800D02*
X135026400Y-100177600D01*
D32*
X132156200Y-115646200D02*
X132003800Y-115798600D01*
D33*
X132943600Y-116433600D02*
X136169400Y-116433600D01*
X136169400Y-116433600D02*
X136398000Y-116205000D01*
D32*
X133654800Y-115824000D02*
X133350000Y-115519200D01*
X133350000Y-115519200D02*
X133350000Y-112948000D01*
D33*
X131267200Y-90474800D02*
X131267200Y-90424000D01*
X126390400Y-90220800D02*
X124296805Y-88127205D01*
X131216400Y-89408000D02*
X130403600Y-90220800D01*
X124296805Y-88127205D02*
X124296805Y-86450805D01*
X130403600Y-90220800D02*
X126390400Y-90220800D01*
X124296805Y-86450805D02*
X122377200Y-84531200D01*
X121920000Y-83312000D02*
X121909205Y-83322795D01*
X121909205Y-83322795D02*
X121909205Y-84774405D01*
X121909205Y-84774405D02*
X123952000Y-86817200D01*
X123952000Y-86817200D02*
X123952000Y-88287096D01*
X123952000Y-88287096D02*
X126444504Y-90779600D01*
X126444504Y-90779600D02*
X130962400Y-90779600D01*
X130962400Y-90779600D02*
X131267200Y-90474800D01*
X125476000Y-93980000D02*
X128727200Y-93980000D01*
X128727200Y-93980000D02*
X131927600Y-90779600D01*
X131927600Y-90779600D02*
X131927600Y-85750400D01*
X131927600Y-85750400D02*
X130683000Y-84505800D01*
X130683000Y-84505800D02*
X130683000Y-83337400D01*
D34*
X131144800Y-97254800D02*
X131650000Y-97254800D01*
X131650000Y-97254800D02*
X132516400Y-96388400D01*
X132516400Y-96388400D02*
X132516400Y-96350900D01*
X128676400Y-96494600D02*
X128905000Y-96494600D01*
X128905000Y-96494600D02*
X129844800Y-95554800D01*
X132080000Y-100126800D02*
X131763100Y-100126800D01*
X131763100Y-100126800D02*
X130950300Y-99314000D01*
D31*
X130657600Y-100838000D02*
X130810000Y-100685600D01*
X130657600Y-101591300D02*
X130657600Y-100838000D01*
D32*
X132181600Y-115620800D02*
X132156200Y-115646200D01*
X132003800Y-115798600D02*
X132003800Y-116611400D01*
X132003800Y-116611400D02*
X131648200Y-116967000D01*
X131648200Y-116967000D02*
X126873000Y-116967000D01*
X126873000Y-116967000D02*
X126644400Y-116738400D01*
D34*
X131470400Y-115456300D02*
X130848700Y-116078000D01*
X132080000Y-112948000D02*
X132080000Y-113893600D01*
X132080000Y-113893600D02*
X131470400Y-114503200D01*
X131470400Y-114503200D02*
X131470400Y-115456300D01*
D35*
X129540000Y-112948000D02*
X129540000Y-115964300D01*
X129540000Y-115964300D02*
X129653700Y-116078000D01*
D36*
X131495800Y-110921800D02*
X130810000Y-110236000D01*
X130810000Y-110236000D02*
X130810000Y-109048000D01*
D31*
X135229600Y-101346000D02*
X134315200Y-101346000D01*
X133959600Y-101701600D02*
X133959600Y-102819200D01*
X134315200Y-101346000D02*
X133959600Y-101701600D01*
X133959600Y-102819200D02*
X134386400Y-103246000D01*
X134386400Y-103246000D02*
X135229600Y-103246000D01*
X133625000Y-105283000D02*
X133731000Y-105283000D01*
X133731000Y-105283000D02*
X135229600Y-103784400D01*
X135229600Y-103784400D02*
X135229600Y-103246000D01*
X130657600Y-101591300D02*
X131174300Y-101591300D01*
X131174300Y-101591300D02*
X131419600Y-101346000D01*
X131419600Y-101346000D02*
X132529600Y-101346000D01*
D32*
X131360100Y-102726300D02*
X131724400Y-102362000D01*
X130657600Y-102726300D02*
X131360100Y-102726300D01*
D34*
X130810000Y-112948000D02*
X130810000Y-111506000D01*
X129794000Y-100482400D02*
X127508000Y-98196400D01*
X127508000Y-96875600D02*
X128574800Y-95808800D01*
X130810000Y-111506000D02*
X130200400Y-110896400D01*
X127508000Y-98196400D02*
X127508000Y-96875600D01*
X128574800Y-95808800D02*
X128574800Y-95402400D01*
X130200400Y-110896400D02*
X130200400Y-103733600D01*
X128574800Y-95402400D02*
X128168400Y-94996000D01*
X130200400Y-103733600D02*
X129794000Y-103327200D01*
X129794000Y-103327200D02*
X129794000Y-100482400D01*
X128168400Y-94996000D02*
X126111000Y-94996000D01*
D36*
X135229600Y-103246000D02*
X135717200Y-103733600D01*
X135717200Y-103733600D02*
X136042400Y-103733600D01*
X136042400Y-103733600D02*
X136194800Y-103581200D01*
X136194800Y-103581200D02*
X137058400Y-103581200D01*
X137058400Y-102446200D02*
X137058400Y-101447600D01*
X135229600Y-102296000D02*
X136908200Y-102296000D01*
X136908200Y-102296000D02*
X137058400Y-102446200D01*
X130810000Y-109048000D02*
X130810000Y-107848400D01*
X130810000Y-107848400D02*
X131325000Y-107333400D01*
X131325000Y-107333400D02*
X131325000Y-105283000D01*
D33*
X123521400Y-74753400D02*
X123850400Y-75082400D01*
D34*
X132516400Y-96350900D02*
X135266900Y-96350900D01*
X135266900Y-96350900D02*
X135351600Y-96266200D01*
D35*
X126847600Y-77978000D02*
X126873000Y-77978000D01*
X126873000Y-77952600D02*
X126847600Y-77978000D01*
D34*
X128054700Y-82080700D02*
X128739300Y-82080700D01*
X129032000Y-83210400D02*
X129540000Y-82702400D01*
D37*
X131144800Y-97108800D02*
X131144800Y-97254800D01*
D35*
X125679200Y-79768100D02*
X127241900Y-79768100D01*
D32*
X132080000Y-109048000D02*
X132080000Y-107696000D01*
D33*
X122961400Y-75908500D02*
X123558900Y-75908500D01*
D34*
X128207100Y-83210400D02*
X129032000Y-83210400D01*
D35*
X126873000Y-77978000D02*
X126873000Y-77952600D01*
D34*
X125849100Y-95859600D02*
X125041400Y-95051900D01*
D35*
X126250100Y-78575500D02*
X126847600Y-77978000D01*
D37*
X129844800Y-95808800D02*
X131144800Y-97108800D01*
D34*
X128739300Y-82080700D02*
X129184400Y-81635600D01*
D35*
X125679200Y-78575500D02*
X126250100Y-78575500D01*
X127241900Y-79768100D02*
X128016000Y-78994000D01*
D33*
X123558900Y-75908500D02*
X123825000Y-76174600D01*
X122961400Y-74753400D02*
X123521400Y-74753400D01*
X122961400Y-74753400D02*
X122961400Y-75908500D01*
D37*
X129844800Y-95554800D02*
X129844800Y-95808800D01*
D34*
X126026100Y-95859600D02*
X125849100Y-95859600D01*
D37*
X121412000Y-97536000D02*
X122025500Y-97536000D01*
D32*
X132080000Y-107696000D02*
X132588000Y-107188000D01*
D37*
X122025500Y-97536000D02*
X122291400Y-97801900D01*
X117246400Y-97129600D02*
X116332000Y-98044000D01*
X117246400Y-92278200D02*
X117246400Y-97129600D01*
D32*
X126644400Y-116738400D02*
X126415800Y-116967000D01*
X116078000Y-98298000D02*
X116332000Y-98044000D01*
X117602000Y-116967000D02*
X116078000Y-115443000D01*
X126415800Y-116967000D02*
X117602000Y-116967000D01*
X116078000Y-115443000D02*
X116078000Y-98298000D01*
D34*
X121150000Y-98671000D02*
X120650000Y-98171000D01*
X123469400Y-99060000D02*
X122936000Y-99060000D01*
X120650000Y-95707200D02*
X121081800Y-95275400D01*
X124196524Y-97824876D02*
X124196524Y-98332876D01*
X122547000Y-98671000D02*
X121412000Y-98671000D01*
X124196524Y-98332876D02*
X123469400Y-99060000D01*
X126238000Y-97002600D02*
X126238000Y-96782700D01*
X123063000Y-93980000D02*
X121767600Y-93980000D01*
X121412000Y-98671000D02*
X121150000Y-98671000D01*
X121310400Y-95046800D02*
X121081800Y-95275400D01*
X121081800Y-95275400D02*
X121081800Y-95148400D01*
X121767600Y-93980000D02*
X121310400Y-94437200D01*
X121310400Y-94437200D02*
X121310400Y-95046800D01*
X125018800Y-97002600D02*
X124196524Y-97824876D01*
X126238000Y-96782700D02*
X127161100Y-95859600D01*
X126238000Y-97002600D02*
X125018800Y-97002600D01*
X120650000Y-98171000D02*
X120650000Y-95707200D01*
X122936000Y-99060000D02*
X122547000Y-98671000D01*
X129844800Y-99284500D02*
X129815300Y-99314000D01*
X128066800Y-97231200D02*
X128090400Y-97254800D01*
X128090400Y-97254800D02*
X129844800Y-97254800D01*
X129844800Y-97254800D02*
X129844800Y-99284500D01*
D31*
X124460000Y-103428800D02*
X122732800Y-101701600D01*
X124460000Y-109048000D02*
X124460000Y-106781600D01*
X124460000Y-106781600D02*
X124460000Y-103428800D01*
X121920000Y-109048000D02*
X121920000Y-106730800D01*
X121920000Y-105105200D02*
X121869200Y-105054400D01*
X121920000Y-106730800D02*
X121920000Y-105105200D01*
D34*
X122580400Y-110490000D02*
X123190000Y-111099600D01*
X123190000Y-111099600D02*
X123190000Y-112948000D01*
D31*
X122580400Y-103124000D02*
X122580400Y-107391200D01*
X122174000Y-102717600D02*
X122580400Y-103124000D01*
D34*
X122580400Y-107391200D02*
X122580400Y-110490000D01*
D31*
X121767600Y-103886000D02*
X121304050Y-104349550D01*
D34*
X122580400Y-111658400D02*
X122580400Y-114350800D01*
D31*
X121304050Y-104349550D02*
X121304050Y-105822750D01*
D34*
X122580400Y-114350800D02*
X122986800Y-114757200D01*
X123901200Y-114757200D02*
X124460000Y-114198400D01*
D31*
X121158000Y-105968800D02*
X121158000Y-110642400D01*
D34*
X124460000Y-114198400D02*
X124460000Y-112948000D01*
X122174000Y-111252000D02*
X122580400Y-111658400D01*
D31*
X121158000Y-110642400D02*
X121513600Y-110998000D01*
X121920000Y-110998000D02*
X122174000Y-111252000D01*
X121513600Y-110998000D02*
X121920000Y-110998000D01*
X121304050Y-105822750D02*
X121259600Y-105867200D01*
D34*
X122986800Y-114757200D02*
X123901200Y-114757200D01*
D31*
X121259600Y-105867200D02*
X121158000Y-105968800D01*
X125120400Y-107594400D02*
X125120400Y-106781600D01*
D34*
X125120400Y-110439200D02*
X125120400Y-110185200D01*
X125730000Y-111048800D02*
X125171200Y-110490000D01*
D31*
X125375924Y-102058724D02*
X125831600Y-102514400D01*
D34*
X125171200Y-110490000D02*
X125196600Y-110515400D01*
D31*
X125831600Y-106070400D02*
X125120400Y-106781600D01*
X125831600Y-102514400D02*
X125831600Y-106070400D01*
X124409200Y-101092000D02*
X125375924Y-102058724D01*
D34*
X125120400Y-110185200D02*
X125120400Y-107594400D01*
X125730000Y-112948000D02*
X125730000Y-111048800D01*
D31*
X121266400Y-101092000D02*
X124409200Y-101092000D01*
D34*
X125196600Y-110515400D02*
X125120400Y-110439200D01*
X127000000Y-112948000D02*
X127000000Y-110998000D01*
D31*
X126746000Y-106680000D02*
X128016000Y-105410000D01*
X126746000Y-106680000D02*
X126390400Y-107035600D01*
X126390400Y-107035600D02*
X126390400Y-107289600D01*
X128016000Y-105410000D02*
X128016000Y-103784400D01*
X128016000Y-103784400D02*
X126746000Y-102514400D01*
X126695200Y-102514400D02*
X126695200Y-102463600D01*
X126695200Y-102463600D02*
X126695200Y-102463600D01*
D34*
X126390400Y-110388400D02*
X126390400Y-107289600D01*
X127000000Y-110998000D02*
X126390400Y-110388400D01*
D31*
X126746000Y-102514400D02*
X126695200Y-102514400D01*
X123291600Y-103174800D02*
X123190000Y-103276400D01*
X123190000Y-109048000D02*
X123190000Y-106730800D01*
X123190000Y-103276400D02*
X123190000Y-106730800D01*
D37*
X121920000Y-112948000D02*
X121920000Y-112217200D01*
X120599200Y-105206800D02*
X120624600Y-105181400D01*
X121920000Y-112217200D02*
X120599200Y-110896400D01*
X120599200Y-110896400D02*
X120599200Y-105206800D01*
X120116600Y-114528600D02*
X120802400Y-115214400D01*
D34*
X125730000Y-110403448D02*
X125730000Y-109048000D01*
X126441200Y-111114648D02*
X125730000Y-110403448D01*
D37*
X120573800Y-104013000D02*
X120116600Y-104470200D01*
D31*
X120802400Y-115214400D02*
X125984000Y-115214400D01*
D34*
X120573800Y-104013000D02*
X120091200Y-104495600D01*
X125933200Y-115265200D02*
X126441200Y-114757200D01*
X126441200Y-114757200D02*
X126441200Y-111114648D01*
D31*
X120091200Y-114503200D02*
X120802400Y-115214400D01*
X120091200Y-111455200D02*
X120091200Y-114503200D01*
D34*
X120853200Y-115265200D02*
X125933200Y-115265200D01*
X120091200Y-114503200D02*
X120853200Y-115265200D01*
D37*
X120116600Y-104470200D02*
X120116600Y-114528600D01*
D34*
X120091200Y-104495600D02*
X120091200Y-111455200D01*
D31*
X125984000Y-115214400D02*
X126441200Y-114757200D01*
X127000000Y-107899200D02*
X127000000Y-109048000D01*
X128066800Y-101955600D02*
X129133600Y-103022400D01*
X129133600Y-103022400D02*
X129133600Y-105765600D01*
X129133600Y-105765600D02*
X127000000Y-107899200D01*
X119780050Y-99625150D02*
X124504450Y-99625150D01*
X118973600Y-100431600D02*
X119780050Y-99625150D01*
X124504450Y-99625150D02*
X125831600Y-98298000D01*
D37*
X117652800Y-111013000D02*
X118872000Y-109793800D01*
X118872000Y-109793800D02*
X118872000Y-100533200D01*
X118872000Y-100533200D02*
X118973600Y-100431600D01*
D31*
X117652800Y-113436400D02*
X117652800Y-113553000D01*
X126619000Y-99034600D02*
X125323600Y-100330000D01*
D37*
X119430800Y-101269800D02*
X119430800Y-111658400D01*
X119430800Y-111658400D02*
X119405400Y-111683800D01*
D34*
X126619000Y-97318144D02*
X126619000Y-99034600D01*
X127990600Y-95946544D02*
X126619000Y-97318144D01*
D37*
X119697500Y-101003100D02*
X119430800Y-101269800D01*
D31*
X120370600Y-100330000D02*
X119697500Y-101003100D01*
X125323600Y-100330000D02*
X120370600Y-100330000D01*
D34*
X127990600Y-95631000D02*
X127990600Y-95946544D01*
D31*
X119405400Y-111683800D02*
X117652800Y-113436400D01*
D34*
X131144800Y-95554800D02*
X132177500Y-95554800D01*
X132177500Y-95554800D02*
X132516400Y-95215900D01*
X131064000Y-94005400D02*
X131064000Y-95474000D01*
X131064000Y-95474000D02*
X131144800Y-95554800D01*
X128982400Y-94766200D02*
X129108200Y-94766200D01*
X128981200Y-94767400D02*
X128982400Y-94766200D01*
X129108200Y-94766200D02*
X129869000Y-94005400D01*
D33*
X131013200Y-75539600D02*
X133301600Y-77828000D01*
X120714100Y-74982000D02*
X120714100Y-74384500D01*
X121857100Y-73558400D02*
X121843800Y-73571700D01*
X122961400Y-73558400D02*
X123672600Y-73558400D01*
X123672600Y-73558400D02*
X125653800Y-75539600D01*
X125653800Y-75539600D02*
X131013200Y-75539600D01*
X122961400Y-73558400D02*
X121857100Y-73558400D01*
X133301600Y-77828000D02*
X133301600Y-79451200D01*
X121526900Y-73571700D02*
X121843800Y-73571700D01*
X120714100Y-74384500D02*
X121526900Y-73571700D01*
X128940900Y-77380500D02*
X133301600Y-81741200D01*
X124612400Y-77392600D02*
X125667100Y-77392600D01*
X123494800Y-78829500D02*
X123494800Y-78510200D01*
X125667100Y-77392600D02*
X125679200Y-77380500D01*
X125679200Y-77380500D02*
X128940900Y-77380500D01*
X123494800Y-78510200D02*
X124612400Y-77392600D01*
X130156100Y-80885700D02*
X133301600Y-84031200D01*
X128054700Y-80885700D02*
X130156100Y-80885700D01*
X125870300Y-82015400D02*
X126987900Y-80897800D01*
X125870300Y-82145000D02*
X125870300Y-82015400D01*
X126987900Y-80897800D02*
X128042600Y-80897800D01*
X128042600Y-80897800D02*
X128054700Y-80885700D01*
D35*
X125858200Y-83186200D02*
X126987900Y-83186200D01*
X126987900Y-82092800D02*
X126987900Y-83186200D01*
X126987900Y-83186200D02*
X127012100Y-83210400D01*
X123482700Y-80963100D02*
X124600300Y-80963100D01*
X124600300Y-80963100D02*
X124612400Y-80951000D01*
X124612400Y-80951000D02*
X125667100Y-80951000D01*
X125667100Y-80951000D02*
X125679200Y-80963100D01*
X124612400Y-79756000D02*
X124612400Y-78587600D01*
X123482700Y-79896300D02*
X124472100Y-79896300D01*
X124472100Y-79896300D02*
X124612400Y-79756000D01*
D34*
X121843800Y-77103500D02*
X120726200Y-77103500D01*
X122961400Y-77103500D02*
X121843800Y-77103500D01*
D33*
X118110000Y-88950800D02*
X118110000Y-78524700D01*
X117805200Y-89255600D02*
X118110000Y-88950800D01*
X118110000Y-78524700D02*
X119519100Y-77115600D01*
X116789200Y-88595200D02*
X117348000Y-88036400D01*
X119124800Y-76048800D02*
X119519100Y-76048800D01*
X117348000Y-88036400D02*
X117348000Y-77825600D01*
X117348000Y-77825600D02*
X119124800Y-76048800D01*
X116281200Y-87376000D02*
X116586000Y-87071200D01*
X116586000Y-77470000D02*
X119074000Y-74982000D01*
X116586000Y-87071200D02*
X116586000Y-77470000D01*
X119074000Y-74982000D02*
X119519100Y-74982000D01*
X120396000Y-87477600D02*
X120396000Y-81584800D01*
X120396000Y-81584800D02*
X121017700Y-80963100D01*
X121017700Y-80963100D02*
X122287700Y-80963100D01*
X121843800Y-74766700D02*
X121843800Y-75908500D01*
D34*
X120714100Y-76048800D02*
X121703500Y-76048800D01*
D33*
X120204900Y-79896300D02*
X122287700Y-79896300D01*
X119684800Y-87579200D02*
X119684800Y-80416400D01*
X120101995Y-87996395D02*
X119684800Y-87579200D01*
X119684800Y-80416400D02*
X120204900Y-79896300D01*
X121756805Y-87996395D02*
X120101995Y-87996395D01*
X122275600Y-87477600D02*
X121756805Y-87996395D01*
X118922800Y-87884000D02*
X118922800Y-79552800D01*
X123444000Y-87477600D02*
X122428000Y-88493600D01*
X118922800Y-79552800D02*
X119646100Y-78829500D01*
X119532400Y-88493600D02*
X118922800Y-87884000D01*
X122428000Y-88493600D02*
X119532400Y-88493600D01*
X119646100Y-78829500D02*
X122299800Y-78829500D01*
X125171200Y-84277200D02*
X124663200Y-83769200D01*
X124764800Y-87528400D02*
X125171200Y-87122000D01*
X124663200Y-83769200D02*
X124663200Y-83186200D01*
X125171200Y-87122000D02*
X125171200Y-84277200D01*
X125628400Y-83820000D02*
X125272800Y-83464400D01*
X125628400Y-87528400D02*
X125628400Y-83820000D01*
X125272800Y-82742500D02*
X124675300Y-82145000D01*
X125984000Y-87884000D02*
X125628400Y-87528400D01*
X125272800Y-83464400D02*
X125272800Y-82742500D01*
X126187200Y-88950800D02*
X126238000Y-88900000D01*
X126288800Y-88950800D02*
X126441200Y-88950800D01*
X130073400Y-85318600D02*
X130073400Y-81940400D01*
X126441200Y-88950800D02*
X130073400Y-85318600D01*
X126238000Y-88900000D02*
X126288800Y-88950800D01*
X126161800Y-88950800D02*
X126187200Y-88950800D01*
X125425200Y-93980000D02*
X125476000Y-93980000D01*
M02*
