G04 #@! TF.GenerationSoftware,KiCad,Pcbnew,8.0.6*
G04 #@! TF.CreationDate,2024-12-19T12:02:48+01:00*
G04 #@! TF.ProjectId,gpu_extension,6770755f-6578-4746-956e-73696f6e2e6b,rev?*
G04 #@! TF.SameCoordinates,Original*
G04 #@! TF.FileFunction,Legend,Bot*
G04 #@! TF.FilePolarity,Positive*
%FSLAX46Y46*%
G04 Gerber Fmt 4.6, Leading zero omitted, Abs format (unit mm)*
G04 Created by KiCad (PCBNEW 8.0.6) date 2024-12-19 12:02:48*
%MOMM*%
%LPD*%
G01*
G04 APERTURE LIST*
G04 Aperture macros list*
%AMRoundRect*
0 Rectangle with rounded corners*
0 $1 Rounding radius*
0 $2 $3 $4 $5 $6 $7 $8 $9 X,Y pos of 4 corners*
0 Add a 4 corners polygon primitive as box body*
4,1,4,$2,$3,$4,$5,$6,$7,$8,$9,$2,$3,0*
0 Add four circle primitives for the rounded corners*
1,1,$1+$1,$2,$3*
1,1,$1+$1,$4,$5*
1,1,$1+$1,$6,$7*
1,1,$1+$1,$8,$9*
0 Add four rect primitives between the rounded corners*
20,1,$1+$1,$2,$3,$4,$5,0*
20,1,$1+$1,$4,$5,$6,$7,0*
20,1,$1+$1,$6,$7,$8,$9,0*
20,1,$1+$1,$8,$9,$2,$3,0*%
G04 Aperture macros list end*
%ADD10C,0.203200*%
%ADD11C,0.152400*%
%ADD12C,0.120000*%
%ADD13C,0.200000*%
%ADD14RoundRect,0.155000X-0.155000X0.212500X-0.155000X-0.212500X0.155000X-0.212500X0.155000X0.212500X0*%
%ADD15RoundRect,0.155000X0.155000X-0.212500X0.155000X0.212500X-0.155000X0.212500X-0.155000X-0.212500X0*%
%ADD16RoundRect,0.155000X0.212500X0.155000X-0.212500X0.155000X-0.212500X-0.155000X0.212500X-0.155000X0*%
%ADD17RoundRect,0.155000X-0.212500X-0.155000X0.212500X-0.155000X0.212500X0.155000X-0.212500X0.155000X0*%
%ADD18RoundRect,0.162500X0.617500X0.162500X-0.617500X0.162500X-0.617500X-0.162500X0.617500X-0.162500X0*%
%ADD19R,1.700000X1.700000*%
%ADD20O,1.700000X1.700000*%
%ADD21RoundRect,0.250000X-0.275000X-0.350000X0.275000X-0.350000X0.275000X0.350000X-0.275000X0.350000X0*%
%ADD22C,4.000000*%
%ADD23R,1.600000X1.600000*%
%ADD24C,1.600000*%
%ADD25RoundRect,0.160000X-0.197500X-0.160000X0.197500X-0.160000X0.197500X0.160000X-0.197500X0.160000X0*%
%ADD26RoundRect,0.160000X-0.160000X0.197500X-0.160000X-0.197500X0.160000X-0.197500X0.160000X0.197500X0*%
%ADD27RoundRect,0.160000X0.160000X-0.197500X0.160000X0.197500X-0.160000X0.197500X-0.160000X-0.197500X0*%
%ADD28RoundRect,0.160000X0.197500X0.160000X-0.197500X0.160000X-0.197500X-0.160000X0.197500X-0.160000X0*%
%ADD29R,1.000000X1.200000*%
%ADD30R,0.740000X2.400000*%
G04 APERTURE END LIST*
D10*
X129851892Y-102216857D02*
X129900273Y-102168476D01*
X129900273Y-102168476D02*
X129948653Y-102023333D01*
X129948653Y-102023333D02*
X129948653Y-101926571D01*
X129948653Y-101926571D02*
X129900273Y-101781428D01*
X129900273Y-101781428D02*
X129803511Y-101684666D01*
X129803511Y-101684666D02*
X129706749Y-101636285D01*
X129706749Y-101636285D02*
X129513225Y-101587904D01*
X129513225Y-101587904D02*
X129368082Y-101587904D01*
X129368082Y-101587904D02*
X129174558Y-101636285D01*
X129174558Y-101636285D02*
X129077796Y-101684666D01*
X129077796Y-101684666D02*
X128981034Y-101781428D01*
X128981034Y-101781428D02*
X128932653Y-101926571D01*
X128932653Y-101926571D02*
X128932653Y-102023333D01*
X128932653Y-102023333D02*
X128981034Y-102168476D01*
X128981034Y-102168476D02*
X129029415Y-102216857D01*
X129029415Y-102603904D02*
X128981034Y-102652285D01*
X128981034Y-102652285D02*
X128932653Y-102749047D01*
X128932653Y-102749047D02*
X128932653Y-102990952D01*
X128932653Y-102990952D02*
X128981034Y-103087714D01*
X128981034Y-103087714D02*
X129029415Y-103136095D01*
X129029415Y-103136095D02*
X129126177Y-103184476D01*
X129126177Y-103184476D02*
X129222939Y-103184476D01*
X129222939Y-103184476D02*
X129368082Y-103136095D01*
X129368082Y-103136095D02*
X129948653Y-102555523D01*
X129948653Y-102555523D02*
X129948653Y-103184476D01*
X128932653Y-103813428D02*
X128932653Y-103910190D01*
X128932653Y-103910190D02*
X128981034Y-104006952D01*
X128981034Y-104006952D02*
X129029415Y-104055333D01*
X129029415Y-104055333D02*
X129126177Y-104103714D01*
X129126177Y-104103714D02*
X129319701Y-104152095D01*
X129319701Y-104152095D02*
X129561606Y-104152095D01*
X129561606Y-104152095D02*
X129755130Y-104103714D01*
X129755130Y-104103714D02*
X129851892Y-104055333D01*
X129851892Y-104055333D02*
X129900273Y-104006952D01*
X129900273Y-104006952D02*
X129948653Y-103910190D01*
X129948653Y-103910190D02*
X129948653Y-103813428D01*
X129948653Y-103813428D02*
X129900273Y-103716666D01*
X129900273Y-103716666D02*
X129851892Y-103668285D01*
X129851892Y-103668285D02*
X129755130Y-103619904D01*
X129755130Y-103619904D02*
X129561606Y-103571523D01*
X129561606Y-103571523D02*
X129319701Y-103571523D01*
X129319701Y-103571523D02*
X129126177Y-103619904D01*
X129126177Y-103619904D02*
X129029415Y-103668285D01*
X129029415Y-103668285D02*
X128981034Y-103716666D01*
X128981034Y-103716666D02*
X128932653Y-103813428D01*
X138581092Y-102360557D02*
X138629473Y-102312176D01*
X138629473Y-102312176D02*
X138677853Y-102167033D01*
X138677853Y-102167033D02*
X138677853Y-102070271D01*
X138677853Y-102070271D02*
X138629473Y-101925128D01*
X138629473Y-101925128D02*
X138532711Y-101828366D01*
X138532711Y-101828366D02*
X138435949Y-101779985D01*
X138435949Y-101779985D02*
X138242425Y-101731604D01*
X138242425Y-101731604D02*
X138097282Y-101731604D01*
X138097282Y-101731604D02*
X137903758Y-101779985D01*
X137903758Y-101779985D02*
X137806996Y-101828366D01*
X137806996Y-101828366D02*
X137710234Y-101925128D01*
X137710234Y-101925128D02*
X137661853Y-102070271D01*
X137661853Y-102070271D02*
X137661853Y-102167033D01*
X137661853Y-102167033D02*
X137710234Y-102312176D01*
X137710234Y-102312176D02*
X137758615Y-102360557D01*
X138677853Y-103328176D02*
X138677853Y-102747604D01*
X138677853Y-103037890D02*
X137661853Y-103037890D01*
X137661853Y-103037890D02*
X137806996Y-102941128D01*
X137806996Y-102941128D02*
X137903758Y-102844366D01*
X137903758Y-102844366D02*
X137952139Y-102747604D01*
X138677853Y-103811985D02*
X138677853Y-104005509D01*
X138677853Y-104005509D02*
X138629473Y-104102271D01*
X138629473Y-104102271D02*
X138581092Y-104150652D01*
X138581092Y-104150652D02*
X138435949Y-104247414D01*
X138435949Y-104247414D02*
X138242425Y-104295795D01*
X138242425Y-104295795D02*
X137855377Y-104295795D01*
X137855377Y-104295795D02*
X137758615Y-104247414D01*
X137758615Y-104247414D02*
X137710234Y-104199033D01*
X137710234Y-104199033D02*
X137661853Y-104102271D01*
X137661853Y-104102271D02*
X137661853Y-103908747D01*
X137661853Y-103908747D02*
X137710234Y-103811985D01*
X137710234Y-103811985D02*
X137758615Y-103763604D01*
X137758615Y-103763604D02*
X137855377Y-103715223D01*
X137855377Y-103715223D02*
X138097282Y-103715223D01*
X138097282Y-103715223D02*
X138194044Y-103763604D01*
X138194044Y-103763604D02*
X138242425Y-103811985D01*
X138242425Y-103811985D02*
X138290806Y-103908747D01*
X138290806Y-103908747D02*
X138290806Y-104102271D01*
X138290806Y-104102271D02*
X138242425Y-104199033D01*
X138242425Y-104199033D02*
X138194044Y-104247414D01*
X138194044Y-104247414D02*
X138097282Y-104295795D01*
D11*
X126762932Y-95064934D02*
X126811313Y-95113315D01*
X126811313Y-95113315D02*
X126956456Y-95161695D01*
X126956456Y-95161695D02*
X127053218Y-95161695D01*
X127053218Y-95161695D02*
X127198361Y-95113315D01*
X127198361Y-95113315D02*
X127295123Y-95016553D01*
X127295123Y-95016553D02*
X127343504Y-94919791D01*
X127343504Y-94919791D02*
X127391885Y-94726267D01*
X127391885Y-94726267D02*
X127391885Y-94581124D01*
X127391885Y-94581124D02*
X127343504Y-94387600D01*
X127343504Y-94387600D02*
X127295123Y-94290838D01*
X127295123Y-94290838D02*
X127198361Y-94194076D01*
X127198361Y-94194076D02*
X127053218Y-94145695D01*
X127053218Y-94145695D02*
X126956456Y-94145695D01*
X126956456Y-94145695D02*
X126811313Y-94194076D01*
X126811313Y-94194076D02*
X126762932Y-94242457D01*
X125892075Y-94145695D02*
X126085599Y-94145695D01*
X126085599Y-94145695D02*
X126182361Y-94194076D01*
X126182361Y-94194076D02*
X126230742Y-94242457D01*
X126230742Y-94242457D02*
X126327504Y-94387600D01*
X126327504Y-94387600D02*
X126375885Y-94581124D01*
X126375885Y-94581124D02*
X126375885Y-94968172D01*
X126375885Y-94968172D02*
X126327504Y-95064934D01*
X126327504Y-95064934D02*
X126279123Y-95113315D01*
X126279123Y-95113315D02*
X126182361Y-95161695D01*
X126182361Y-95161695D02*
X125988837Y-95161695D01*
X125988837Y-95161695D02*
X125892075Y-95113315D01*
X125892075Y-95113315D02*
X125843694Y-95064934D01*
X125843694Y-95064934D02*
X125795313Y-94968172D01*
X125795313Y-94968172D02*
X125795313Y-94726267D01*
X125795313Y-94726267D02*
X125843694Y-94629505D01*
X125843694Y-94629505D02*
X125892075Y-94581124D01*
X125892075Y-94581124D02*
X125988837Y-94532743D01*
X125988837Y-94532743D02*
X126182361Y-94532743D01*
X126182361Y-94532743D02*
X126279123Y-94581124D01*
X126279123Y-94581124D02*
X126327504Y-94629505D01*
X126327504Y-94629505D02*
X126375885Y-94726267D01*
X132826334Y-92818857D02*
X132874715Y-92770476D01*
X132874715Y-92770476D02*
X132923095Y-92625333D01*
X132923095Y-92625333D02*
X132923095Y-92528571D01*
X132923095Y-92528571D02*
X132874715Y-92383428D01*
X132874715Y-92383428D02*
X132777953Y-92286666D01*
X132777953Y-92286666D02*
X132681191Y-92238285D01*
X132681191Y-92238285D02*
X132487667Y-92189904D01*
X132487667Y-92189904D02*
X132342524Y-92189904D01*
X132342524Y-92189904D02*
X132149000Y-92238285D01*
X132149000Y-92238285D02*
X132052238Y-92286666D01*
X132052238Y-92286666D02*
X131955476Y-92383428D01*
X131955476Y-92383428D02*
X131907095Y-92528571D01*
X131907095Y-92528571D02*
X131907095Y-92625333D01*
X131907095Y-92625333D02*
X131955476Y-92770476D01*
X131955476Y-92770476D02*
X132003857Y-92818857D01*
X132923095Y-93786476D02*
X132923095Y-93205904D01*
X132923095Y-93496190D02*
X131907095Y-93496190D01*
X131907095Y-93496190D02*
X132052238Y-93399428D01*
X132052238Y-93399428D02*
X132149000Y-93302666D01*
X132149000Y-93302666D02*
X132197381Y-93205904D01*
X132923095Y-94754095D02*
X132923095Y-94173523D01*
X132923095Y-94463809D02*
X131907095Y-94463809D01*
X131907095Y-94463809D02*
X132052238Y-94367047D01*
X132052238Y-94367047D02*
X132149000Y-94270285D01*
X132149000Y-94270285D02*
X132197381Y-94173523D01*
X129201332Y-100898534D02*
X129249713Y-100946915D01*
X129249713Y-100946915D02*
X129394856Y-100995295D01*
X129394856Y-100995295D02*
X129491618Y-100995295D01*
X129491618Y-100995295D02*
X129636761Y-100946915D01*
X129636761Y-100946915D02*
X129733523Y-100850153D01*
X129733523Y-100850153D02*
X129781904Y-100753391D01*
X129781904Y-100753391D02*
X129830285Y-100559867D01*
X129830285Y-100559867D02*
X129830285Y-100414724D01*
X129830285Y-100414724D02*
X129781904Y-100221200D01*
X129781904Y-100221200D02*
X129733523Y-100124438D01*
X129733523Y-100124438D02*
X129636761Y-100027676D01*
X129636761Y-100027676D02*
X129491618Y-99979295D01*
X129491618Y-99979295D02*
X129394856Y-99979295D01*
X129394856Y-99979295D02*
X129249713Y-100027676D01*
X129249713Y-100027676D02*
X129201332Y-100076057D01*
X128620761Y-100414724D02*
X128717523Y-100366343D01*
X128717523Y-100366343D02*
X128765904Y-100317962D01*
X128765904Y-100317962D02*
X128814285Y-100221200D01*
X128814285Y-100221200D02*
X128814285Y-100172819D01*
X128814285Y-100172819D02*
X128765904Y-100076057D01*
X128765904Y-100076057D02*
X128717523Y-100027676D01*
X128717523Y-100027676D02*
X128620761Y-99979295D01*
X128620761Y-99979295D02*
X128427237Y-99979295D01*
X128427237Y-99979295D02*
X128330475Y-100027676D01*
X128330475Y-100027676D02*
X128282094Y-100076057D01*
X128282094Y-100076057D02*
X128233713Y-100172819D01*
X128233713Y-100172819D02*
X128233713Y-100221200D01*
X128233713Y-100221200D02*
X128282094Y-100317962D01*
X128282094Y-100317962D02*
X128330475Y-100366343D01*
X128330475Y-100366343D02*
X128427237Y-100414724D01*
X128427237Y-100414724D02*
X128620761Y-100414724D01*
X128620761Y-100414724D02*
X128717523Y-100463105D01*
X128717523Y-100463105D02*
X128765904Y-100511486D01*
X128765904Y-100511486D02*
X128814285Y-100608248D01*
X128814285Y-100608248D02*
X128814285Y-100801772D01*
X128814285Y-100801772D02*
X128765904Y-100898534D01*
X128765904Y-100898534D02*
X128717523Y-100946915D01*
X128717523Y-100946915D02*
X128620761Y-100995295D01*
X128620761Y-100995295D02*
X128427237Y-100995295D01*
X128427237Y-100995295D02*
X128330475Y-100946915D01*
X128330475Y-100946915D02*
X128282094Y-100898534D01*
X128282094Y-100898534D02*
X128233713Y-100801772D01*
X128233713Y-100801772D02*
X128233713Y-100608248D01*
X128233713Y-100608248D02*
X128282094Y-100511486D01*
X128282094Y-100511486D02*
X128330475Y-100463105D01*
X128330475Y-100463105D02*
X128427237Y-100414724D01*
X122937334Y-97934167D02*
X122985715Y-97885786D01*
X122985715Y-97885786D02*
X123034095Y-97740643D01*
X123034095Y-97740643D02*
X123034095Y-97643881D01*
X123034095Y-97643881D02*
X122985715Y-97498738D01*
X122985715Y-97498738D02*
X122888953Y-97401976D01*
X122888953Y-97401976D02*
X122792191Y-97353595D01*
X122792191Y-97353595D02*
X122598667Y-97305214D01*
X122598667Y-97305214D02*
X122453524Y-97305214D01*
X122453524Y-97305214D02*
X122260000Y-97353595D01*
X122260000Y-97353595D02*
X122163238Y-97401976D01*
X122163238Y-97401976D02*
X122066476Y-97498738D01*
X122066476Y-97498738D02*
X122018095Y-97643881D01*
X122018095Y-97643881D02*
X122018095Y-97740643D01*
X122018095Y-97740643D02*
X122066476Y-97885786D01*
X122066476Y-97885786D02*
X122114857Y-97934167D01*
X122018095Y-98272833D02*
X122018095Y-98901786D01*
X122018095Y-98901786D02*
X122405143Y-98563119D01*
X122405143Y-98563119D02*
X122405143Y-98708262D01*
X122405143Y-98708262D02*
X122453524Y-98805024D01*
X122453524Y-98805024D02*
X122501905Y-98853405D01*
X122501905Y-98853405D02*
X122598667Y-98901786D01*
X122598667Y-98901786D02*
X122840572Y-98901786D01*
X122840572Y-98901786D02*
X122937334Y-98853405D01*
X122937334Y-98853405D02*
X122985715Y-98805024D01*
X122985715Y-98805024D02*
X123034095Y-98708262D01*
X123034095Y-98708262D02*
X123034095Y-98417976D01*
X123034095Y-98417976D02*
X122985715Y-98321214D01*
X122985715Y-98321214D02*
X122937334Y-98272833D01*
D10*
X138137295Y-99976653D02*
X138137295Y-100799130D01*
X138137295Y-100799130D02*
X138088914Y-100895892D01*
X138088914Y-100895892D02*
X138040533Y-100944273D01*
X138040533Y-100944273D02*
X137943771Y-100992653D01*
X137943771Y-100992653D02*
X137750247Y-100992653D01*
X137750247Y-100992653D02*
X137653485Y-100944273D01*
X137653485Y-100944273D02*
X137605104Y-100895892D01*
X137605104Y-100895892D02*
X137556723Y-100799130D01*
X137556723Y-100799130D02*
X137556723Y-99976653D01*
X137169676Y-99976653D02*
X136540723Y-99976653D01*
X136540723Y-99976653D02*
X136879390Y-100363701D01*
X136879390Y-100363701D02*
X136734247Y-100363701D01*
X136734247Y-100363701D02*
X136637485Y-100412082D01*
X136637485Y-100412082D02*
X136589104Y-100460463D01*
X136589104Y-100460463D02*
X136540723Y-100557225D01*
X136540723Y-100557225D02*
X136540723Y-100799130D01*
X136540723Y-100799130D02*
X136589104Y-100895892D01*
X136589104Y-100895892D02*
X136637485Y-100944273D01*
X136637485Y-100944273D02*
X136734247Y-100992653D01*
X136734247Y-100992653D02*
X137024533Y-100992653D01*
X137024533Y-100992653D02*
X137121295Y-100944273D01*
X137121295Y-100944273D02*
X137169676Y-100895892D01*
X133321666Y-106760263D02*
X133660333Y-106760263D01*
X133660333Y-107292453D02*
X133660333Y-106276453D01*
X133660333Y-106276453D02*
X133176523Y-106276453D01*
X132450809Y-106760263D02*
X132305666Y-106808644D01*
X132305666Y-106808644D02*
X132257285Y-106857025D01*
X132257285Y-106857025D02*
X132208904Y-106953787D01*
X132208904Y-106953787D02*
X132208904Y-107098930D01*
X132208904Y-107098930D02*
X132257285Y-107195692D01*
X132257285Y-107195692D02*
X132305666Y-107244073D01*
X132305666Y-107244073D02*
X132402428Y-107292453D01*
X132402428Y-107292453D02*
X132789476Y-107292453D01*
X132789476Y-107292453D02*
X132789476Y-106276453D01*
X132789476Y-106276453D02*
X132450809Y-106276453D01*
X132450809Y-106276453D02*
X132354047Y-106324834D01*
X132354047Y-106324834D02*
X132305666Y-106373215D01*
X132305666Y-106373215D02*
X132257285Y-106469977D01*
X132257285Y-106469977D02*
X132257285Y-106566739D01*
X132257285Y-106566739D02*
X132305666Y-106663501D01*
X132305666Y-106663501D02*
X132354047Y-106711882D01*
X132354047Y-106711882D02*
X132450809Y-106760263D01*
X132450809Y-106760263D02*
X132789476Y-106760263D01*
X131241285Y-107292453D02*
X131821857Y-107292453D01*
X131531571Y-107292453D02*
X131531571Y-106276453D01*
X131531571Y-106276453D02*
X131628333Y-106421596D01*
X131628333Y-106421596D02*
X131725095Y-106518358D01*
X131725095Y-106518358D02*
X131821857Y-106566739D01*
D11*
X118229742Y-76307695D02*
X118568409Y-75823886D01*
X118810314Y-76307695D02*
X118810314Y-75291695D01*
X118810314Y-75291695D02*
X118423266Y-75291695D01*
X118423266Y-75291695D02*
X118326504Y-75340076D01*
X118326504Y-75340076D02*
X118278123Y-75388457D01*
X118278123Y-75388457D02*
X118229742Y-75485219D01*
X118229742Y-75485219D02*
X118229742Y-75630362D01*
X118229742Y-75630362D02*
X118278123Y-75727124D01*
X118278123Y-75727124D02*
X118326504Y-75775505D01*
X118326504Y-75775505D02*
X118423266Y-75823886D01*
X118423266Y-75823886D02*
X118810314Y-75823886D01*
X117262123Y-76307695D02*
X117842695Y-76307695D01*
X117552409Y-76307695D02*
X117552409Y-75291695D01*
X117552409Y-75291695D02*
X117649171Y-75436838D01*
X117649171Y-75436838D02*
X117745933Y-75533600D01*
X117745933Y-75533600D02*
X117842695Y-75581981D01*
X116294504Y-76307695D02*
X116875076Y-76307695D01*
X116584790Y-76307695D02*
X116584790Y-75291695D01*
X116584790Y-75291695D02*
X116681552Y-75436838D01*
X116681552Y-75436838D02*
X116778314Y-75533600D01*
X116778314Y-75533600D02*
X116875076Y-75581981D01*
X120438332Y-79342395D02*
X120776999Y-78858586D01*
X121018904Y-79342395D02*
X121018904Y-78326395D01*
X121018904Y-78326395D02*
X120631856Y-78326395D01*
X120631856Y-78326395D02*
X120535094Y-78374776D01*
X120535094Y-78374776D02*
X120486713Y-78423157D01*
X120486713Y-78423157D02*
X120438332Y-78519919D01*
X120438332Y-78519919D02*
X120438332Y-78665062D01*
X120438332Y-78665062D02*
X120486713Y-78761824D01*
X120486713Y-78761824D02*
X120535094Y-78810205D01*
X120535094Y-78810205D02*
X120631856Y-78858586D01*
X120631856Y-78858586D02*
X121018904Y-78858586D01*
X119954523Y-79342395D02*
X119760999Y-79342395D01*
X119760999Y-79342395D02*
X119664237Y-79294015D01*
X119664237Y-79294015D02*
X119615856Y-79245634D01*
X119615856Y-79245634D02*
X119519094Y-79100491D01*
X119519094Y-79100491D02*
X119470713Y-78906967D01*
X119470713Y-78906967D02*
X119470713Y-78519919D01*
X119470713Y-78519919D02*
X119519094Y-78423157D01*
X119519094Y-78423157D02*
X119567475Y-78374776D01*
X119567475Y-78374776D02*
X119664237Y-78326395D01*
X119664237Y-78326395D02*
X119857761Y-78326395D01*
X119857761Y-78326395D02*
X119954523Y-78374776D01*
X119954523Y-78374776D02*
X120002904Y-78423157D01*
X120002904Y-78423157D02*
X120051285Y-78519919D01*
X120051285Y-78519919D02*
X120051285Y-78761824D01*
X120051285Y-78761824D02*
X120002904Y-78858586D01*
X120002904Y-78858586D02*
X119954523Y-78906967D01*
X119954523Y-78906967D02*
X119857761Y-78955348D01*
X119857761Y-78955348D02*
X119664237Y-78955348D01*
X119664237Y-78955348D02*
X119567475Y-78906967D01*
X119567475Y-78906967D02*
X119519094Y-78858586D01*
X119519094Y-78858586D02*
X119470713Y-78761824D01*
X120959695Y-72295657D02*
X120475886Y-71956990D01*
X120959695Y-71715085D02*
X119943695Y-71715085D01*
X119943695Y-71715085D02*
X119943695Y-72102133D01*
X119943695Y-72102133D02*
X119992076Y-72198895D01*
X119992076Y-72198895D02*
X120040457Y-72247276D01*
X120040457Y-72247276D02*
X120137219Y-72295657D01*
X120137219Y-72295657D02*
X120282362Y-72295657D01*
X120282362Y-72295657D02*
X120379124Y-72247276D01*
X120379124Y-72247276D02*
X120427505Y-72198895D01*
X120427505Y-72198895D02*
X120475886Y-72102133D01*
X120475886Y-72102133D02*
X120475886Y-71715085D01*
X120959695Y-73263276D02*
X120959695Y-72682704D01*
X120959695Y-72972990D02*
X119943695Y-72972990D01*
X119943695Y-72972990D02*
X120088838Y-72876228D01*
X120088838Y-72876228D02*
X120185600Y-72779466D01*
X120185600Y-72779466D02*
X120233981Y-72682704D01*
X120040457Y-73650323D02*
X119992076Y-73698704D01*
X119992076Y-73698704D02*
X119943695Y-73795466D01*
X119943695Y-73795466D02*
X119943695Y-74037371D01*
X119943695Y-74037371D02*
X119992076Y-74134133D01*
X119992076Y-74134133D02*
X120040457Y-74182514D01*
X120040457Y-74182514D02*
X120137219Y-74230895D01*
X120137219Y-74230895D02*
X120233981Y-74230895D01*
X120233981Y-74230895D02*
X120379124Y-74182514D01*
X120379124Y-74182514D02*
X120959695Y-73601942D01*
X120959695Y-73601942D02*
X120959695Y-74230895D01*
X123525095Y-70849057D02*
X123041286Y-70510390D01*
X123525095Y-70268485D02*
X122509095Y-70268485D01*
X122509095Y-70268485D02*
X122509095Y-70655533D01*
X122509095Y-70655533D02*
X122557476Y-70752295D01*
X122557476Y-70752295D02*
X122605857Y-70800676D01*
X122605857Y-70800676D02*
X122702619Y-70849057D01*
X122702619Y-70849057D02*
X122847762Y-70849057D01*
X122847762Y-70849057D02*
X122944524Y-70800676D01*
X122944524Y-70800676D02*
X122992905Y-70752295D01*
X122992905Y-70752295D02*
X123041286Y-70655533D01*
X123041286Y-70655533D02*
X123041286Y-70268485D01*
X122605857Y-71236104D02*
X122557476Y-71284485D01*
X122557476Y-71284485D02*
X122509095Y-71381247D01*
X122509095Y-71381247D02*
X122509095Y-71623152D01*
X122509095Y-71623152D02*
X122557476Y-71719914D01*
X122557476Y-71719914D02*
X122605857Y-71768295D01*
X122605857Y-71768295D02*
X122702619Y-71816676D01*
X122702619Y-71816676D02*
X122799381Y-71816676D01*
X122799381Y-71816676D02*
X122944524Y-71768295D01*
X122944524Y-71768295D02*
X123525095Y-71187723D01*
X123525095Y-71187723D02*
X123525095Y-71816676D01*
X122509095Y-72155342D02*
X122509095Y-72784295D01*
X122509095Y-72784295D02*
X122896143Y-72445628D01*
X122896143Y-72445628D02*
X122896143Y-72590771D01*
X122896143Y-72590771D02*
X122944524Y-72687533D01*
X122944524Y-72687533D02*
X122992905Y-72735914D01*
X122992905Y-72735914D02*
X123089667Y-72784295D01*
X123089667Y-72784295D02*
X123331572Y-72784295D01*
X123331572Y-72784295D02*
X123428334Y-72735914D01*
X123428334Y-72735914D02*
X123476715Y-72687533D01*
X123476715Y-72687533D02*
X123525095Y-72590771D01*
X123525095Y-72590771D02*
X123525095Y-72300485D01*
X123525095Y-72300485D02*
X123476715Y-72203723D01*
X123476715Y-72203723D02*
X123428334Y-72155342D01*
X120438332Y-80612395D02*
X120776999Y-80128586D01*
X121018904Y-80612395D02*
X121018904Y-79596395D01*
X121018904Y-79596395D02*
X120631856Y-79596395D01*
X120631856Y-79596395D02*
X120535094Y-79644776D01*
X120535094Y-79644776D02*
X120486713Y-79693157D01*
X120486713Y-79693157D02*
X120438332Y-79789919D01*
X120438332Y-79789919D02*
X120438332Y-79935062D01*
X120438332Y-79935062D02*
X120486713Y-80031824D01*
X120486713Y-80031824D02*
X120535094Y-80080205D01*
X120535094Y-80080205D02*
X120631856Y-80128586D01*
X120631856Y-80128586D02*
X121018904Y-80128586D01*
X119857761Y-80031824D02*
X119954523Y-79983443D01*
X119954523Y-79983443D02*
X120002904Y-79935062D01*
X120002904Y-79935062D02*
X120051285Y-79838300D01*
X120051285Y-79838300D02*
X120051285Y-79789919D01*
X120051285Y-79789919D02*
X120002904Y-79693157D01*
X120002904Y-79693157D02*
X119954523Y-79644776D01*
X119954523Y-79644776D02*
X119857761Y-79596395D01*
X119857761Y-79596395D02*
X119664237Y-79596395D01*
X119664237Y-79596395D02*
X119567475Y-79644776D01*
X119567475Y-79644776D02*
X119519094Y-79693157D01*
X119519094Y-79693157D02*
X119470713Y-79789919D01*
X119470713Y-79789919D02*
X119470713Y-79838300D01*
X119470713Y-79838300D02*
X119519094Y-79935062D01*
X119519094Y-79935062D02*
X119567475Y-79983443D01*
X119567475Y-79983443D02*
X119664237Y-80031824D01*
X119664237Y-80031824D02*
X119857761Y-80031824D01*
X119857761Y-80031824D02*
X119954523Y-80080205D01*
X119954523Y-80080205D02*
X120002904Y-80128586D01*
X120002904Y-80128586D02*
X120051285Y-80225348D01*
X120051285Y-80225348D02*
X120051285Y-80418872D01*
X120051285Y-80418872D02*
X120002904Y-80515634D01*
X120002904Y-80515634D02*
X119954523Y-80564015D01*
X119954523Y-80564015D02*
X119857761Y-80612395D01*
X119857761Y-80612395D02*
X119664237Y-80612395D01*
X119664237Y-80612395D02*
X119567475Y-80564015D01*
X119567475Y-80564015D02*
X119519094Y-80515634D01*
X119519094Y-80515634D02*
X119470713Y-80418872D01*
X119470713Y-80418872D02*
X119470713Y-80225348D01*
X119470713Y-80225348D02*
X119519094Y-80128586D01*
X119519094Y-80128586D02*
X119567475Y-80080205D01*
X119567475Y-80080205D02*
X119664237Y-80031824D01*
X125176095Y-74683257D02*
X124692286Y-74344590D01*
X125176095Y-74102685D02*
X124160095Y-74102685D01*
X124160095Y-74102685D02*
X124160095Y-74489733D01*
X124160095Y-74489733D02*
X124208476Y-74586495D01*
X124208476Y-74586495D02*
X124256857Y-74634876D01*
X124256857Y-74634876D02*
X124353619Y-74683257D01*
X124353619Y-74683257D02*
X124498762Y-74683257D01*
X124498762Y-74683257D02*
X124595524Y-74634876D01*
X124595524Y-74634876D02*
X124643905Y-74586495D01*
X124643905Y-74586495D02*
X124692286Y-74489733D01*
X124692286Y-74489733D02*
X124692286Y-74102685D01*
X125176095Y-75650876D02*
X125176095Y-75070304D01*
X125176095Y-75360590D02*
X124160095Y-75360590D01*
X124160095Y-75360590D02*
X124305238Y-75263828D01*
X124305238Y-75263828D02*
X124402000Y-75167066D01*
X124402000Y-75167066D02*
X124450381Y-75070304D01*
X124595524Y-76231447D02*
X124547143Y-76134685D01*
X124547143Y-76134685D02*
X124498762Y-76086304D01*
X124498762Y-76086304D02*
X124402000Y-76037923D01*
X124402000Y-76037923D02*
X124353619Y-76037923D01*
X124353619Y-76037923D02*
X124256857Y-76086304D01*
X124256857Y-76086304D02*
X124208476Y-76134685D01*
X124208476Y-76134685D02*
X124160095Y-76231447D01*
X124160095Y-76231447D02*
X124160095Y-76424971D01*
X124160095Y-76424971D02*
X124208476Y-76521733D01*
X124208476Y-76521733D02*
X124256857Y-76570114D01*
X124256857Y-76570114D02*
X124353619Y-76618495D01*
X124353619Y-76618495D02*
X124402000Y-76618495D01*
X124402000Y-76618495D02*
X124498762Y-76570114D01*
X124498762Y-76570114D02*
X124547143Y-76521733D01*
X124547143Y-76521733D02*
X124595524Y-76424971D01*
X124595524Y-76424971D02*
X124595524Y-76231447D01*
X124595524Y-76231447D02*
X124643905Y-76134685D01*
X124643905Y-76134685D02*
X124692286Y-76086304D01*
X124692286Y-76086304D02*
X124789048Y-76037923D01*
X124789048Y-76037923D02*
X124982572Y-76037923D01*
X124982572Y-76037923D02*
X125079334Y-76086304D01*
X125079334Y-76086304D02*
X125127715Y-76134685D01*
X125127715Y-76134685D02*
X125176095Y-76231447D01*
X125176095Y-76231447D02*
X125176095Y-76424971D01*
X125176095Y-76424971D02*
X125127715Y-76521733D01*
X125127715Y-76521733D02*
X125079334Y-76570114D01*
X125079334Y-76570114D02*
X124982572Y-76618495D01*
X124982572Y-76618495D02*
X124789048Y-76618495D01*
X124789048Y-76618495D02*
X124692286Y-76570114D01*
X124692286Y-76570114D02*
X124643905Y-76521733D01*
X124643905Y-76521733D02*
X124595524Y-76424971D01*
X131119642Y-93297495D02*
X131458309Y-92813686D01*
X131700214Y-93297495D02*
X131700214Y-92281495D01*
X131700214Y-92281495D02*
X131313166Y-92281495D01*
X131313166Y-92281495D02*
X131216404Y-92329876D01*
X131216404Y-92329876D02*
X131168023Y-92378257D01*
X131168023Y-92378257D02*
X131119642Y-92475019D01*
X131119642Y-92475019D02*
X131119642Y-92620162D01*
X131119642Y-92620162D02*
X131168023Y-92716924D01*
X131168023Y-92716924D02*
X131216404Y-92765305D01*
X131216404Y-92765305D02*
X131313166Y-92813686D01*
X131313166Y-92813686D02*
X131700214Y-92813686D01*
X130780976Y-92281495D02*
X130152023Y-92281495D01*
X130152023Y-92281495D02*
X130490690Y-92668543D01*
X130490690Y-92668543D02*
X130345547Y-92668543D01*
X130345547Y-92668543D02*
X130248785Y-92716924D01*
X130248785Y-92716924D02*
X130200404Y-92765305D01*
X130200404Y-92765305D02*
X130152023Y-92862067D01*
X130152023Y-92862067D02*
X130152023Y-93103972D01*
X130152023Y-93103972D02*
X130200404Y-93200734D01*
X130200404Y-93200734D02*
X130248785Y-93249115D01*
X130248785Y-93249115D02*
X130345547Y-93297495D01*
X130345547Y-93297495D02*
X130635833Y-93297495D01*
X130635833Y-93297495D02*
X130732595Y-93249115D01*
X130732595Y-93249115D02*
X130780976Y-93200734D01*
X129184404Y-93297495D02*
X129764976Y-93297495D01*
X129474690Y-93297495D02*
X129474690Y-92281495D01*
X129474690Y-92281495D02*
X129571452Y-92426638D01*
X129571452Y-92426638D02*
X129668214Y-92523400D01*
X129668214Y-92523400D02*
X129764976Y-92571781D01*
X133317342Y-117581495D02*
X133656009Y-117097686D01*
X133897914Y-117581495D02*
X133897914Y-116565495D01*
X133897914Y-116565495D02*
X133510866Y-116565495D01*
X133510866Y-116565495D02*
X133414104Y-116613876D01*
X133414104Y-116613876D02*
X133365723Y-116662257D01*
X133365723Y-116662257D02*
X133317342Y-116759019D01*
X133317342Y-116759019D02*
X133317342Y-116904162D01*
X133317342Y-116904162D02*
X133365723Y-117000924D01*
X133365723Y-117000924D02*
X133414104Y-117049305D01*
X133414104Y-117049305D02*
X133510866Y-117097686D01*
X133510866Y-117097686D02*
X133897914Y-117097686D01*
X132930295Y-116662257D02*
X132881914Y-116613876D01*
X132881914Y-116613876D02*
X132785152Y-116565495D01*
X132785152Y-116565495D02*
X132543247Y-116565495D01*
X132543247Y-116565495D02*
X132446485Y-116613876D01*
X132446485Y-116613876D02*
X132398104Y-116662257D01*
X132398104Y-116662257D02*
X132349723Y-116759019D01*
X132349723Y-116759019D02*
X132349723Y-116855781D01*
X132349723Y-116855781D02*
X132398104Y-117000924D01*
X132398104Y-117000924D02*
X132978676Y-117581495D01*
X132978676Y-117581495D02*
X132349723Y-117581495D01*
X131865914Y-117581495D02*
X131672390Y-117581495D01*
X131672390Y-117581495D02*
X131575628Y-117533115D01*
X131575628Y-117533115D02*
X131527247Y-117484734D01*
X131527247Y-117484734D02*
X131430485Y-117339591D01*
X131430485Y-117339591D02*
X131382104Y-117146067D01*
X131382104Y-117146067D02*
X131382104Y-116759019D01*
X131382104Y-116759019D02*
X131430485Y-116662257D01*
X131430485Y-116662257D02*
X131478866Y-116613876D01*
X131478866Y-116613876D02*
X131575628Y-116565495D01*
X131575628Y-116565495D02*
X131769152Y-116565495D01*
X131769152Y-116565495D02*
X131865914Y-116613876D01*
X131865914Y-116613876D02*
X131914295Y-116662257D01*
X131914295Y-116662257D02*
X131962676Y-116759019D01*
X131962676Y-116759019D02*
X131962676Y-117000924D01*
X131962676Y-117000924D02*
X131914295Y-117097686D01*
X131914295Y-117097686D02*
X131865914Y-117146067D01*
X131865914Y-117146067D02*
X131769152Y-117194448D01*
X131769152Y-117194448D02*
X131575628Y-117194448D01*
X131575628Y-117194448D02*
X131478866Y-117146067D01*
X131478866Y-117146067D02*
X131430485Y-117097686D01*
X131430485Y-117097686D02*
X131382104Y-117000924D01*
X124922095Y-84563857D02*
X124438286Y-84225190D01*
X124922095Y-83983285D02*
X123906095Y-83983285D01*
X123906095Y-83983285D02*
X123906095Y-84370333D01*
X123906095Y-84370333D02*
X123954476Y-84467095D01*
X123954476Y-84467095D02*
X124002857Y-84515476D01*
X124002857Y-84515476D02*
X124099619Y-84563857D01*
X124099619Y-84563857D02*
X124244762Y-84563857D01*
X124244762Y-84563857D02*
X124341524Y-84515476D01*
X124341524Y-84515476D02*
X124389905Y-84467095D01*
X124389905Y-84467095D02*
X124438286Y-84370333D01*
X124438286Y-84370333D02*
X124438286Y-83983285D01*
X124922095Y-85531476D02*
X124922095Y-84950904D01*
X124922095Y-85241190D02*
X123906095Y-85241190D01*
X123906095Y-85241190D02*
X124051238Y-85144428D01*
X124051238Y-85144428D02*
X124148000Y-85047666D01*
X124148000Y-85047666D02*
X124196381Y-84950904D01*
X123906095Y-85870142D02*
X123906095Y-86547476D01*
X123906095Y-86547476D02*
X124922095Y-86112047D01*
X119080095Y-78594857D02*
X118596286Y-78256190D01*
X119080095Y-78014285D02*
X118064095Y-78014285D01*
X118064095Y-78014285D02*
X118064095Y-78401333D01*
X118064095Y-78401333D02*
X118112476Y-78498095D01*
X118112476Y-78498095D02*
X118160857Y-78546476D01*
X118160857Y-78546476D02*
X118257619Y-78594857D01*
X118257619Y-78594857D02*
X118402762Y-78594857D01*
X118402762Y-78594857D02*
X118499524Y-78546476D01*
X118499524Y-78546476D02*
X118547905Y-78498095D01*
X118547905Y-78498095D02*
X118596286Y-78401333D01*
X118596286Y-78401333D02*
X118596286Y-78014285D01*
X118160857Y-78981904D02*
X118112476Y-79030285D01*
X118112476Y-79030285D02*
X118064095Y-79127047D01*
X118064095Y-79127047D02*
X118064095Y-79368952D01*
X118064095Y-79368952D02*
X118112476Y-79465714D01*
X118112476Y-79465714D02*
X118160857Y-79514095D01*
X118160857Y-79514095D02*
X118257619Y-79562476D01*
X118257619Y-79562476D02*
X118354381Y-79562476D01*
X118354381Y-79562476D02*
X118499524Y-79514095D01*
X118499524Y-79514095D02*
X119080095Y-78933523D01*
X119080095Y-78933523D02*
X119080095Y-79562476D01*
X118064095Y-80191428D02*
X118064095Y-80288190D01*
X118064095Y-80288190D02*
X118112476Y-80384952D01*
X118112476Y-80384952D02*
X118160857Y-80433333D01*
X118160857Y-80433333D02*
X118257619Y-80481714D01*
X118257619Y-80481714D02*
X118451143Y-80530095D01*
X118451143Y-80530095D02*
X118693048Y-80530095D01*
X118693048Y-80530095D02*
X118886572Y-80481714D01*
X118886572Y-80481714D02*
X118983334Y-80433333D01*
X118983334Y-80433333D02*
X119031715Y-80384952D01*
X119031715Y-80384952D02*
X119080095Y-80288190D01*
X119080095Y-80288190D02*
X119080095Y-80191428D01*
X119080095Y-80191428D02*
X119031715Y-80094666D01*
X119031715Y-80094666D02*
X118983334Y-80046285D01*
X118983334Y-80046285D02*
X118886572Y-79997904D01*
X118886572Y-79997904D02*
X118693048Y-79949523D01*
X118693048Y-79949523D02*
X118451143Y-79949523D01*
X118451143Y-79949523D02*
X118257619Y-79997904D01*
X118257619Y-79997904D02*
X118160857Y-80046285D01*
X118160857Y-80046285D02*
X118112476Y-80094666D01*
X118112476Y-80094666D02*
X118064095Y-80191428D01*
X127551595Y-78137657D02*
X127067786Y-77798990D01*
X127551595Y-77557085D02*
X126535595Y-77557085D01*
X126535595Y-77557085D02*
X126535595Y-77944133D01*
X126535595Y-77944133D02*
X126583976Y-78040895D01*
X126583976Y-78040895D02*
X126632357Y-78089276D01*
X126632357Y-78089276D02*
X126729119Y-78137657D01*
X126729119Y-78137657D02*
X126874262Y-78137657D01*
X126874262Y-78137657D02*
X126971024Y-78089276D01*
X126971024Y-78089276D02*
X127019405Y-78040895D01*
X127019405Y-78040895D02*
X127067786Y-77944133D01*
X127067786Y-77944133D02*
X127067786Y-77557085D01*
X127551595Y-79105276D02*
X127551595Y-78524704D01*
X127551595Y-78814990D02*
X126535595Y-78814990D01*
X126535595Y-78814990D02*
X126680738Y-78718228D01*
X126680738Y-78718228D02*
X126777500Y-78621466D01*
X126777500Y-78621466D02*
X126825881Y-78524704D01*
X126874262Y-79976133D02*
X127551595Y-79976133D01*
X126487215Y-79734228D02*
X127212929Y-79492323D01*
X127212929Y-79492323D02*
X127212929Y-80121276D01*
X132693286Y-97433190D02*
X133177095Y-97433190D01*
X132161095Y-97094523D02*
X132693286Y-97433190D01*
X132693286Y-97433190D02*
X132161095Y-97771857D01*
X133177095Y-98642714D02*
X133177095Y-98062142D01*
X133177095Y-98352428D02*
X132161095Y-98352428D01*
X132161095Y-98352428D02*
X132306238Y-98255666D01*
X132306238Y-98255666D02*
X132403000Y-98158904D01*
X132403000Y-98158904D02*
X132451381Y-98062142D01*
X128923195Y-78188457D02*
X128439386Y-77849790D01*
X128923195Y-77607885D02*
X127907195Y-77607885D01*
X127907195Y-77607885D02*
X127907195Y-77994933D01*
X127907195Y-77994933D02*
X127955576Y-78091695D01*
X127955576Y-78091695D02*
X128003957Y-78140076D01*
X128003957Y-78140076D02*
X128100719Y-78188457D01*
X128100719Y-78188457D02*
X128245862Y-78188457D01*
X128245862Y-78188457D02*
X128342624Y-78140076D01*
X128342624Y-78140076D02*
X128391005Y-78091695D01*
X128391005Y-78091695D02*
X128439386Y-77994933D01*
X128439386Y-77994933D02*
X128439386Y-77607885D01*
X128923195Y-79156076D02*
X128923195Y-78575504D01*
X128923195Y-78865790D02*
X127907195Y-78865790D01*
X127907195Y-78865790D02*
X128052338Y-78769028D01*
X128052338Y-78769028D02*
X128149100Y-78672266D01*
X128149100Y-78672266D02*
X128197481Y-78575504D01*
X127907195Y-80075314D02*
X127907195Y-79591504D01*
X127907195Y-79591504D02*
X128391005Y-79543123D01*
X128391005Y-79543123D02*
X128342624Y-79591504D01*
X128342624Y-79591504D02*
X128294243Y-79688266D01*
X128294243Y-79688266D02*
X128294243Y-79930171D01*
X128294243Y-79930171D02*
X128342624Y-80026933D01*
X128342624Y-80026933D02*
X128391005Y-80075314D01*
X128391005Y-80075314D02*
X128487767Y-80123695D01*
X128487767Y-80123695D02*
X128729672Y-80123695D01*
X128729672Y-80123695D02*
X128826434Y-80075314D01*
X128826434Y-80075314D02*
X128874815Y-80026933D01*
X128874815Y-80026933D02*
X128923195Y-79930171D01*
X128923195Y-79930171D02*
X128923195Y-79688266D01*
X128923195Y-79688266D02*
X128874815Y-79591504D01*
X128874815Y-79591504D02*
X128826434Y-79543123D01*
X123105332Y-83902295D02*
X123443999Y-83418486D01*
X123685904Y-83902295D02*
X123685904Y-82886295D01*
X123685904Y-82886295D02*
X123298856Y-82886295D01*
X123298856Y-82886295D02*
X123202094Y-82934676D01*
X123202094Y-82934676D02*
X123153713Y-82983057D01*
X123153713Y-82983057D02*
X123105332Y-83079819D01*
X123105332Y-83079819D02*
X123105332Y-83224962D01*
X123105332Y-83224962D02*
X123153713Y-83321724D01*
X123153713Y-83321724D02*
X123202094Y-83370105D01*
X123202094Y-83370105D02*
X123298856Y-83418486D01*
X123298856Y-83418486D02*
X123685904Y-83418486D01*
X122186094Y-82886295D02*
X122669904Y-82886295D01*
X122669904Y-82886295D02*
X122718285Y-83370105D01*
X122718285Y-83370105D02*
X122669904Y-83321724D01*
X122669904Y-83321724D02*
X122573142Y-83273343D01*
X122573142Y-83273343D02*
X122331237Y-83273343D01*
X122331237Y-83273343D02*
X122234475Y-83321724D01*
X122234475Y-83321724D02*
X122186094Y-83370105D01*
X122186094Y-83370105D02*
X122137713Y-83466867D01*
X122137713Y-83466867D02*
X122137713Y-83708772D01*
X122137713Y-83708772D02*
X122186094Y-83805534D01*
X122186094Y-83805534D02*
X122234475Y-83853915D01*
X122234475Y-83853915D02*
X122331237Y-83902295D01*
X122331237Y-83902295D02*
X122573142Y-83902295D01*
X122573142Y-83902295D02*
X122669904Y-83853915D01*
X122669904Y-83853915D02*
X122718285Y-83805534D01*
X126192095Y-84563857D02*
X125708286Y-84225190D01*
X126192095Y-83983285D02*
X125176095Y-83983285D01*
X125176095Y-83983285D02*
X125176095Y-84370333D01*
X125176095Y-84370333D02*
X125224476Y-84467095D01*
X125224476Y-84467095D02*
X125272857Y-84515476D01*
X125272857Y-84515476D02*
X125369619Y-84563857D01*
X125369619Y-84563857D02*
X125514762Y-84563857D01*
X125514762Y-84563857D02*
X125611524Y-84515476D01*
X125611524Y-84515476D02*
X125659905Y-84467095D01*
X125659905Y-84467095D02*
X125708286Y-84370333D01*
X125708286Y-84370333D02*
X125708286Y-83983285D01*
X126192095Y-85531476D02*
X126192095Y-84950904D01*
X126192095Y-85241190D02*
X125176095Y-85241190D01*
X125176095Y-85241190D02*
X125321238Y-85144428D01*
X125321238Y-85144428D02*
X125418000Y-85047666D01*
X125418000Y-85047666D02*
X125466381Y-84950904D01*
X125176095Y-86402333D02*
X125176095Y-86208809D01*
X125176095Y-86208809D02*
X125224476Y-86112047D01*
X125224476Y-86112047D02*
X125272857Y-86063666D01*
X125272857Y-86063666D02*
X125418000Y-85966904D01*
X125418000Y-85966904D02*
X125611524Y-85918523D01*
X125611524Y-85918523D02*
X125998572Y-85918523D01*
X125998572Y-85918523D02*
X126095334Y-85966904D01*
X126095334Y-85966904D02*
X126143715Y-86015285D01*
X126143715Y-86015285D02*
X126192095Y-86112047D01*
X126192095Y-86112047D02*
X126192095Y-86305571D01*
X126192095Y-86305571D02*
X126143715Y-86402333D01*
X126143715Y-86402333D02*
X126095334Y-86450714D01*
X126095334Y-86450714D02*
X125998572Y-86499095D01*
X125998572Y-86499095D02*
X125756667Y-86499095D01*
X125756667Y-86499095D02*
X125659905Y-86450714D01*
X125659905Y-86450714D02*
X125611524Y-86402333D01*
X125611524Y-86402333D02*
X125563143Y-86305571D01*
X125563143Y-86305571D02*
X125563143Y-86112047D01*
X125563143Y-86112047D02*
X125611524Y-86015285D01*
X125611524Y-86015285D02*
X125659905Y-85966904D01*
X125659905Y-85966904D02*
X125756667Y-85918523D01*
X123105332Y-82632295D02*
X123443999Y-82148486D01*
X123685904Y-82632295D02*
X123685904Y-81616295D01*
X123685904Y-81616295D02*
X123298856Y-81616295D01*
X123298856Y-81616295D02*
X123202094Y-81664676D01*
X123202094Y-81664676D02*
X123153713Y-81713057D01*
X123153713Y-81713057D02*
X123105332Y-81809819D01*
X123105332Y-81809819D02*
X123105332Y-81954962D01*
X123105332Y-81954962D02*
X123153713Y-82051724D01*
X123153713Y-82051724D02*
X123202094Y-82100105D01*
X123202094Y-82100105D02*
X123298856Y-82148486D01*
X123298856Y-82148486D02*
X123685904Y-82148486D01*
X122234475Y-81616295D02*
X122427999Y-81616295D01*
X122427999Y-81616295D02*
X122524761Y-81664676D01*
X122524761Y-81664676D02*
X122573142Y-81713057D01*
X122573142Y-81713057D02*
X122669904Y-81858200D01*
X122669904Y-81858200D02*
X122718285Y-82051724D01*
X122718285Y-82051724D02*
X122718285Y-82438772D01*
X122718285Y-82438772D02*
X122669904Y-82535534D01*
X122669904Y-82535534D02*
X122621523Y-82583915D01*
X122621523Y-82583915D02*
X122524761Y-82632295D01*
X122524761Y-82632295D02*
X122331237Y-82632295D01*
X122331237Y-82632295D02*
X122234475Y-82583915D01*
X122234475Y-82583915D02*
X122186094Y-82535534D01*
X122186094Y-82535534D02*
X122137713Y-82438772D01*
X122137713Y-82438772D02*
X122137713Y-82196867D01*
X122137713Y-82196867D02*
X122186094Y-82100105D01*
X122186094Y-82100105D02*
X122234475Y-82051724D01*
X122234475Y-82051724D02*
X122331237Y-82003343D01*
X122331237Y-82003343D02*
X122524761Y-82003343D01*
X122524761Y-82003343D02*
X122621523Y-82051724D01*
X122621523Y-82051724D02*
X122669904Y-82100105D01*
X122669904Y-82100105D02*
X122718285Y-82196867D01*
X130892242Y-83723295D02*
X131230909Y-83239486D01*
X131472814Y-83723295D02*
X131472814Y-82707295D01*
X131472814Y-82707295D02*
X131085766Y-82707295D01*
X131085766Y-82707295D02*
X130989004Y-82755676D01*
X130989004Y-82755676D02*
X130940623Y-82804057D01*
X130940623Y-82804057D02*
X130892242Y-82900819D01*
X130892242Y-82900819D02*
X130892242Y-83045962D01*
X130892242Y-83045962D02*
X130940623Y-83142724D01*
X130940623Y-83142724D02*
X130989004Y-83191105D01*
X130989004Y-83191105D02*
X131085766Y-83239486D01*
X131085766Y-83239486D02*
X131472814Y-83239486D01*
X129924623Y-83723295D02*
X130505195Y-83723295D01*
X130214909Y-83723295D02*
X130214909Y-82707295D01*
X130214909Y-82707295D02*
X130311671Y-82852438D01*
X130311671Y-82852438D02*
X130408433Y-82949200D01*
X130408433Y-82949200D02*
X130505195Y-82997581D01*
X129585957Y-82707295D02*
X128957004Y-82707295D01*
X128957004Y-82707295D02*
X129295671Y-83094343D01*
X129295671Y-83094343D02*
X129150528Y-83094343D01*
X129150528Y-83094343D02*
X129053766Y-83142724D01*
X129053766Y-83142724D02*
X129005385Y-83191105D01*
X129005385Y-83191105D02*
X128957004Y-83287867D01*
X128957004Y-83287867D02*
X128957004Y-83529772D01*
X128957004Y-83529772D02*
X129005385Y-83626534D01*
X129005385Y-83626534D02*
X129053766Y-83674915D01*
X129053766Y-83674915D02*
X129150528Y-83723295D01*
X129150528Y-83723295D02*
X129440814Y-83723295D01*
X129440814Y-83723295D02*
X129537576Y-83674915D01*
X129537576Y-83674915D02*
X129585957Y-83626534D01*
X117683095Y-78594857D02*
X117199286Y-78256190D01*
X117683095Y-78014285D02*
X116667095Y-78014285D01*
X116667095Y-78014285D02*
X116667095Y-78401333D01*
X116667095Y-78401333D02*
X116715476Y-78498095D01*
X116715476Y-78498095D02*
X116763857Y-78546476D01*
X116763857Y-78546476D02*
X116860619Y-78594857D01*
X116860619Y-78594857D02*
X117005762Y-78594857D01*
X117005762Y-78594857D02*
X117102524Y-78546476D01*
X117102524Y-78546476D02*
X117150905Y-78498095D01*
X117150905Y-78498095D02*
X117199286Y-78401333D01*
X117199286Y-78401333D02*
X117199286Y-78014285D01*
X116763857Y-78981904D02*
X116715476Y-79030285D01*
X116715476Y-79030285D02*
X116667095Y-79127047D01*
X116667095Y-79127047D02*
X116667095Y-79368952D01*
X116667095Y-79368952D02*
X116715476Y-79465714D01*
X116715476Y-79465714D02*
X116763857Y-79514095D01*
X116763857Y-79514095D02*
X116860619Y-79562476D01*
X116860619Y-79562476D02*
X116957381Y-79562476D01*
X116957381Y-79562476D02*
X117102524Y-79514095D01*
X117102524Y-79514095D02*
X117683095Y-78933523D01*
X117683095Y-78933523D02*
X117683095Y-79562476D01*
X117683095Y-80530095D02*
X117683095Y-79949523D01*
X117683095Y-80239809D02*
X116667095Y-80239809D01*
X116667095Y-80239809D02*
X116812238Y-80143047D01*
X116812238Y-80143047D02*
X116909000Y-80046285D01*
X116909000Y-80046285D02*
X116957381Y-79949523D01*
X134853495Y-110710133D02*
X135579210Y-110710133D01*
X135579210Y-110710133D02*
X135724353Y-110661752D01*
X135724353Y-110661752D02*
X135821115Y-110564990D01*
X135821115Y-110564990D02*
X135869495Y-110419847D01*
X135869495Y-110419847D02*
X135869495Y-110323085D01*
X134853495Y-111097180D02*
X134853495Y-111726133D01*
X134853495Y-111726133D02*
X135240543Y-111387466D01*
X135240543Y-111387466D02*
X135240543Y-111532609D01*
X135240543Y-111532609D02*
X135288924Y-111629371D01*
X135288924Y-111629371D02*
X135337305Y-111677752D01*
X135337305Y-111677752D02*
X135434067Y-111726133D01*
X135434067Y-111726133D02*
X135675972Y-111726133D01*
X135675972Y-111726133D02*
X135772734Y-111677752D01*
X135772734Y-111677752D02*
X135821115Y-111629371D01*
X135821115Y-111629371D02*
X135869495Y-111532609D01*
X135869495Y-111532609D02*
X135869495Y-111242323D01*
X135869495Y-111242323D02*
X135821115Y-111145561D01*
X135821115Y-111145561D02*
X135772734Y-111097180D01*
X120438332Y-81869095D02*
X120776999Y-81385286D01*
X121018904Y-81869095D02*
X121018904Y-80853095D01*
X121018904Y-80853095D02*
X120631856Y-80853095D01*
X120631856Y-80853095D02*
X120535094Y-80901476D01*
X120535094Y-80901476D02*
X120486713Y-80949857D01*
X120486713Y-80949857D02*
X120438332Y-81046619D01*
X120438332Y-81046619D02*
X120438332Y-81191762D01*
X120438332Y-81191762D02*
X120486713Y-81288524D01*
X120486713Y-81288524D02*
X120535094Y-81336905D01*
X120535094Y-81336905D02*
X120631856Y-81385286D01*
X120631856Y-81385286D02*
X121018904Y-81385286D01*
X120099666Y-80853095D02*
X119422332Y-80853095D01*
X119422332Y-80853095D02*
X119857761Y-81869095D01*
X126446095Y-74671157D02*
X125962286Y-74332490D01*
X126446095Y-74090585D02*
X125430095Y-74090585D01*
X125430095Y-74090585D02*
X125430095Y-74477633D01*
X125430095Y-74477633D02*
X125478476Y-74574395D01*
X125478476Y-74574395D02*
X125526857Y-74622776D01*
X125526857Y-74622776D02*
X125623619Y-74671157D01*
X125623619Y-74671157D02*
X125768762Y-74671157D01*
X125768762Y-74671157D02*
X125865524Y-74622776D01*
X125865524Y-74622776D02*
X125913905Y-74574395D01*
X125913905Y-74574395D02*
X125962286Y-74477633D01*
X125962286Y-74477633D02*
X125962286Y-74090585D01*
X126446095Y-75638776D02*
X126446095Y-75058204D01*
X126446095Y-75348490D02*
X125430095Y-75348490D01*
X125430095Y-75348490D02*
X125575238Y-75251728D01*
X125575238Y-75251728D02*
X125672000Y-75154966D01*
X125672000Y-75154966D02*
X125720381Y-75058204D01*
X126446095Y-76122585D02*
X126446095Y-76316109D01*
X126446095Y-76316109D02*
X126397715Y-76412871D01*
X126397715Y-76412871D02*
X126349334Y-76461252D01*
X126349334Y-76461252D02*
X126204191Y-76558014D01*
X126204191Y-76558014D02*
X126010667Y-76606395D01*
X126010667Y-76606395D02*
X125623619Y-76606395D01*
X125623619Y-76606395D02*
X125526857Y-76558014D01*
X125526857Y-76558014D02*
X125478476Y-76509633D01*
X125478476Y-76509633D02*
X125430095Y-76412871D01*
X125430095Y-76412871D02*
X125430095Y-76219347D01*
X125430095Y-76219347D02*
X125478476Y-76122585D01*
X125478476Y-76122585D02*
X125526857Y-76074204D01*
X125526857Y-76074204D02*
X125623619Y-76025823D01*
X125623619Y-76025823D02*
X125865524Y-76025823D01*
X125865524Y-76025823D02*
X125962286Y-76074204D01*
X125962286Y-76074204D02*
X126010667Y-76122585D01*
X126010667Y-76122585D02*
X126059048Y-76219347D01*
X126059048Y-76219347D02*
X126059048Y-76412871D01*
X126059048Y-76412871D02*
X126010667Y-76509633D01*
X126010667Y-76509633D02*
X125962286Y-76558014D01*
X125962286Y-76558014D02*
X125865524Y-76606395D01*
X118128142Y-77577695D02*
X118466809Y-77093886D01*
X118708714Y-77577695D02*
X118708714Y-76561695D01*
X118708714Y-76561695D02*
X118321666Y-76561695D01*
X118321666Y-76561695D02*
X118224904Y-76610076D01*
X118224904Y-76610076D02*
X118176523Y-76658457D01*
X118176523Y-76658457D02*
X118128142Y-76755219D01*
X118128142Y-76755219D02*
X118128142Y-76900362D01*
X118128142Y-76900362D02*
X118176523Y-76997124D01*
X118176523Y-76997124D02*
X118224904Y-77045505D01*
X118224904Y-77045505D02*
X118321666Y-77093886D01*
X118321666Y-77093886D02*
X118708714Y-77093886D01*
X117160523Y-77577695D02*
X117741095Y-77577695D01*
X117450809Y-77577695D02*
X117450809Y-76561695D01*
X117450809Y-76561695D02*
X117547571Y-76706838D01*
X117547571Y-76706838D02*
X117644333Y-76803600D01*
X117644333Y-76803600D02*
X117741095Y-76851981D01*
X116531571Y-76561695D02*
X116434809Y-76561695D01*
X116434809Y-76561695D02*
X116338047Y-76610076D01*
X116338047Y-76610076D02*
X116289666Y-76658457D01*
X116289666Y-76658457D02*
X116241285Y-76755219D01*
X116241285Y-76755219D02*
X116192904Y-76948743D01*
X116192904Y-76948743D02*
X116192904Y-77190648D01*
X116192904Y-77190648D02*
X116241285Y-77384172D01*
X116241285Y-77384172D02*
X116289666Y-77480934D01*
X116289666Y-77480934D02*
X116338047Y-77529315D01*
X116338047Y-77529315D02*
X116434809Y-77577695D01*
X116434809Y-77577695D02*
X116531571Y-77577695D01*
X116531571Y-77577695D02*
X116628333Y-77529315D01*
X116628333Y-77529315D02*
X116676714Y-77480934D01*
X116676714Y-77480934D02*
X116725095Y-77384172D01*
X116725095Y-77384172D02*
X116773476Y-77190648D01*
X116773476Y-77190648D02*
X116773476Y-76948743D01*
X116773476Y-76948743D02*
X116725095Y-76755219D01*
X116725095Y-76755219D02*
X116676714Y-76658457D01*
X116676714Y-76658457D02*
X116628333Y-76610076D01*
X116628333Y-76610076D02*
X116531571Y-76561695D01*
X122255095Y-70849057D02*
X121771286Y-70510390D01*
X122255095Y-70268485D02*
X121239095Y-70268485D01*
X121239095Y-70268485D02*
X121239095Y-70655533D01*
X121239095Y-70655533D02*
X121287476Y-70752295D01*
X121287476Y-70752295D02*
X121335857Y-70800676D01*
X121335857Y-70800676D02*
X121432619Y-70849057D01*
X121432619Y-70849057D02*
X121577762Y-70849057D01*
X121577762Y-70849057D02*
X121674524Y-70800676D01*
X121674524Y-70800676D02*
X121722905Y-70752295D01*
X121722905Y-70752295D02*
X121771286Y-70655533D01*
X121771286Y-70655533D02*
X121771286Y-70268485D01*
X121335857Y-71236104D02*
X121287476Y-71284485D01*
X121287476Y-71284485D02*
X121239095Y-71381247D01*
X121239095Y-71381247D02*
X121239095Y-71623152D01*
X121239095Y-71623152D02*
X121287476Y-71719914D01*
X121287476Y-71719914D02*
X121335857Y-71768295D01*
X121335857Y-71768295D02*
X121432619Y-71816676D01*
X121432619Y-71816676D02*
X121529381Y-71816676D01*
X121529381Y-71816676D02*
X121674524Y-71768295D01*
X121674524Y-71768295D02*
X122255095Y-71187723D01*
X122255095Y-71187723D02*
X122255095Y-71816676D01*
X121335857Y-72203723D02*
X121287476Y-72252104D01*
X121287476Y-72252104D02*
X121239095Y-72348866D01*
X121239095Y-72348866D02*
X121239095Y-72590771D01*
X121239095Y-72590771D02*
X121287476Y-72687533D01*
X121287476Y-72687533D02*
X121335857Y-72735914D01*
X121335857Y-72735914D02*
X121432619Y-72784295D01*
X121432619Y-72784295D02*
X121529381Y-72784295D01*
X121529381Y-72784295D02*
X121674524Y-72735914D01*
X121674524Y-72735914D02*
X122255095Y-72155342D01*
X122255095Y-72155342D02*
X122255095Y-72784295D01*
D12*
X130297600Y-102274635D02*
X130297600Y-102042965D01*
X131017600Y-102274635D02*
X131017600Y-102042965D01*
X137418400Y-102897865D02*
X137418400Y-103129535D01*
X136698400Y-102897865D02*
X136698400Y-103129535D01*
X126477765Y-95499600D02*
X126709435Y-95499600D01*
X126477765Y-96219600D02*
X126709435Y-96219600D01*
X132156400Y-95899235D02*
X132156400Y-95667565D01*
X132876400Y-95899235D02*
X132876400Y-95667565D01*
X130498635Y-99674000D02*
X130266965Y-99674000D01*
X130498635Y-98954000D02*
X130266965Y-98954000D01*
X121772000Y-97987665D02*
X121772000Y-98219335D01*
X121052000Y-97987665D02*
X121052000Y-98219335D01*
X132979600Y-103906000D02*
X134779600Y-103906000D01*
X134579600Y-100686000D02*
X133779600Y-100686000D01*
X132979600Y-100686000D02*
X133779600Y-100686000D01*
X135079600Y-100736000D02*
X134839600Y-100406000D01*
X135319600Y-100406000D01*
X135079600Y-100736000D01*
G36*
X135079600Y-100736000D02*
G01*
X134839600Y-100406000D01*
X135319600Y-100406000D01*
X135079600Y-100736000D01*
G37*
X132885242Y-105843000D02*
X132064758Y-105843000D01*
X132885242Y-104723000D02*
X132064758Y-104723000D01*
X120284221Y-75668800D02*
X119948979Y-75668800D01*
X120284221Y-76428800D02*
X119948979Y-76428800D01*
X123064921Y-78449500D02*
X122729679Y-78449500D01*
X123064921Y-79209500D02*
X122729679Y-79209500D01*
X120284221Y-74602000D02*
X119948979Y-74602000D01*
X120284221Y-75362000D02*
X119948979Y-75362000D01*
X122581400Y-74323521D02*
X122581400Y-73988279D01*
X123341400Y-74323521D02*
X123341400Y-73988279D01*
X123052821Y-79516300D02*
X122717579Y-79516300D01*
X123052821Y-80276300D02*
X122717579Y-80276300D01*
X124232400Y-77822479D02*
X124232400Y-78157721D01*
X124992400Y-77822479D02*
X124992400Y-78157721D01*
X130298879Y-93625400D02*
X130634121Y-93625400D01*
X130298879Y-94385400D02*
X130634121Y-94385400D01*
X130083579Y-115698000D02*
X130418821Y-115698000D01*
X130083579Y-116458000D02*
X130418821Y-116458000D01*
X124232400Y-80185879D02*
X124232400Y-80521121D01*
X124992400Y-80185879D02*
X124992400Y-80521121D01*
X122581400Y-76673621D02*
X122581400Y-76338379D01*
X123341400Y-76673621D02*
X123341400Y-76338379D01*
X126607900Y-81327679D02*
X126607900Y-81662921D01*
X127367900Y-81327679D02*
X127367900Y-81662921D01*
D13*
X129894800Y-98454800D02*
G75*
G02*
X129694800Y-98454800I-100000J0D01*
G01*
X129694800Y-98454800D02*
G75*
G02*
X129894800Y-98454800I100000J0D01*
G01*
D12*
X127674700Y-81650821D02*
X127674700Y-81315579D01*
X128434700Y-81650821D02*
X128434700Y-81315579D01*
X125428321Y-82806200D02*
X125093079Y-82806200D01*
X125428321Y-83566200D02*
X125093079Y-83566200D01*
X125299200Y-80533221D02*
X125299200Y-80197979D01*
X126059200Y-80533221D02*
X126059200Y-80197979D01*
X125440421Y-81765000D02*
X125105179Y-81765000D01*
X125440421Y-82525000D02*
X125105179Y-82525000D01*
X127441979Y-82830400D02*
X127777221Y-82830400D01*
X127441979Y-83590400D02*
X127777221Y-83590400D01*
X121463800Y-76338379D02*
X121463800Y-76673621D01*
X122223800Y-76338379D02*
X122223800Y-76673621D01*
X121225000Y-109233000D02*
X121225000Y-112763000D01*
X121225000Y-109233000D02*
X121290000Y-109233000D01*
X121225000Y-112763000D02*
X121290000Y-112763000D01*
X133980000Y-109233000D02*
X134045000Y-109233000D01*
X133980000Y-112763000D02*
X133980000Y-114088000D01*
X133980000Y-112763000D02*
X134045000Y-112763000D01*
X134045000Y-109233000D02*
X134045000Y-112763000D01*
X123052821Y-80583100D02*
X122717579Y-80583100D01*
X123052821Y-81343100D02*
X122717579Y-81343100D01*
X125299200Y-78145621D02*
X125299200Y-77810379D01*
X126059200Y-78145621D02*
X126059200Y-77810379D01*
X120284221Y-76735600D02*
X119948979Y-76735600D01*
X120284221Y-77495600D02*
X119948979Y-77495600D01*
X121463800Y-74001579D02*
X121463800Y-74336821D01*
X122223800Y-74001579D02*
X122223800Y-74336821D01*
%LPC*%
D14*
X130657600Y-101591300D03*
X130657600Y-102726300D03*
D15*
X137058400Y-103581200D03*
X137058400Y-102446200D03*
D16*
X127161100Y-95859600D03*
X126026100Y-95859600D03*
D14*
X132516400Y-95215900D03*
X132516400Y-96350900D03*
D17*
X129815300Y-99314000D03*
X130950300Y-99314000D03*
D15*
X121412000Y-98671000D03*
X121412000Y-97536000D03*
D18*
X135229600Y-101346000D03*
X135229600Y-102296000D03*
X135229600Y-103246000D03*
X132529600Y-103246000D03*
X132529600Y-101346000D03*
D19*
X117957600Y-70556200D03*
D20*
X117957600Y-73096200D03*
D21*
X131325000Y-105283000D03*
X133625000Y-105283000D03*
D22*
X135351600Y-96266200D03*
X135351600Y-71266200D03*
D23*
X133301600Y-79451200D03*
D24*
X133301600Y-81741200D03*
X133301600Y-84031200D03*
X133301600Y-86321200D03*
X133301600Y-88611200D03*
X135281600Y-78306200D03*
X135281600Y-80596200D03*
X135281600Y-82886200D03*
X135281600Y-85176200D03*
X135281600Y-87466200D03*
X137261600Y-79451200D03*
X137261600Y-81741200D03*
X137261600Y-84031200D03*
X137261600Y-86321200D03*
X137261600Y-88611200D03*
D19*
X117652800Y-108473000D03*
D20*
X117652800Y-111013000D03*
X117652800Y-113553000D03*
D25*
X119519100Y-76048800D03*
X120714100Y-76048800D03*
X122299800Y-78829500D03*
X123494800Y-78829500D03*
X119519100Y-74982000D03*
X120714100Y-74982000D03*
D26*
X122961400Y-73558400D03*
X122961400Y-74753400D03*
D25*
X122287700Y-79896300D03*
X123482700Y-79896300D03*
D27*
X124612400Y-78587600D03*
X124612400Y-77392600D03*
D28*
X131064000Y-94005400D03*
X129869000Y-94005400D03*
X130848700Y-116078000D03*
X129653700Y-116078000D03*
D27*
X124612400Y-80951000D03*
X124612400Y-79756000D03*
D26*
X122961400Y-75908500D03*
X122961400Y-77103500D03*
D27*
X126987900Y-82092800D03*
X126987900Y-80897800D03*
D29*
X129844800Y-97254800D03*
X129844800Y-95554800D03*
X131144800Y-95554800D03*
X131144800Y-97254800D03*
D26*
X128054700Y-80885700D03*
X128054700Y-82080700D03*
D25*
X124663200Y-83186200D03*
X125858200Y-83186200D03*
D26*
X125679200Y-79768100D03*
X125679200Y-80963100D03*
D25*
X124675300Y-82145000D03*
X125870300Y-82145000D03*
D28*
X128207100Y-83210400D03*
X127012100Y-83210400D03*
D27*
X121843800Y-77103500D03*
X121843800Y-75908500D03*
D30*
X133350000Y-112948000D03*
X133350000Y-109048000D03*
X132080000Y-112948000D03*
X132080000Y-109048000D03*
X130810000Y-112948000D03*
X130810000Y-109048000D03*
X129540000Y-112948000D03*
X129540000Y-109048000D03*
X128270000Y-112948000D03*
X128270000Y-109048000D03*
X127000000Y-112948000D03*
X127000000Y-109048000D03*
X125730000Y-112948000D03*
X125730000Y-109048000D03*
X124460000Y-112948000D03*
X124460000Y-109048000D03*
X123190000Y-112948000D03*
X123190000Y-109048000D03*
X121920000Y-112948000D03*
X121920000Y-109048000D03*
D25*
X122287700Y-80963100D03*
X123482700Y-80963100D03*
D26*
X125679200Y-77380500D03*
X125679200Y-78575500D03*
D25*
X119519100Y-77115600D03*
X120714100Y-77115600D03*
D27*
X121843800Y-74766700D03*
X121843800Y-73571700D03*
%LPD*%
M02*
