G04 #@! TF.GenerationSoftware,KiCad,Pcbnew,8.0.6*
G04 #@! TF.CreationDate,2024-12-19T12:02:48+01:00*
G04 #@! TF.ProjectId,gpu_extension,6770755f-6578-4746-956e-73696f6e2e6b,rev?*
G04 #@! TF.SameCoordinates,Original*
G04 #@! TF.FileFunction,Soldermask,Top*
G04 #@! TF.FilePolarity,Negative*
%FSLAX46Y46*%
G04 Gerber Fmt 4.6, Leading zero omitted, Abs format (unit mm)*
G04 Created by KiCad (PCBNEW 8.0.6) date 2024-12-19 12:02:48*
%MOMM*%
%LPD*%
G01*
G04 APERTURE LIST*
G04 Aperture macros list*
%AMRoundRect*
0 Rectangle with rounded corners*
0 $1 Rounding radius*
0 $2 $3 $4 $5 $6 $7 $8 $9 X,Y pos of 4 corners*
0 Add a 4 corners polygon primitive as box body*
4,1,4,$2,$3,$4,$5,$6,$7,$8,$9,$2,$3,0*
0 Add four circle primitives for the rounded corners*
1,1,$1+$1,$2,$3*
1,1,$1+$1,$4,$5*
1,1,$1+$1,$6,$7*
1,1,$1+$1,$8,$9*
0 Add four rect primitives between the rounded corners*
20,1,$1+$1,$2,$3,$4,$5,0*
20,1,$1+$1,$4,$5,$6,$7,0*
20,1,$1+$1,$6,$7,$8,$9,0*
20,1,$1+$1,$8,$9,$2,$3,0*%
%AMFreePoly0*
4,1,18,-0.437500,0.050000,-0.433694,0.069134,-0.422855,0.085355,-0.406634,0.096194,-0.387500,0.100000,0.387500,0.100000,0.437500,0.050000,0.437500,-0.050000,0.433694,-0.069134,0.422855,-0.085355,0.406634,-0.096194,0.387500,-0.100000,-0.387500,-0.100000,-0.406634,-0.096194,-0.422855,-0.085355,-0.433694,-0.069134,-0.437500,-0.050000,-0.437500,0.050000,-0.437500,0.050000,$1*%
%AMFreePoly1*
4,1,18,-0.437500,0.050000,-0.433694,0.069134,-0.422855,0.085355,-0.406634,0.096194,-0.387500,0.100000,0.387500,0.100000,0.406634,0.096194,0.422855,0.085355,0.433694,0.069134,0.437500,0.050000,0.437500,-0.050000,0.387500,-0.100000,-0.387500,-0.100000,-0.406634,-0.096194,-0.422855,-0.085355,-0.433694,-0.069134,-0.437500,-0.050000,-0.437500,0.050000,-0.437500,0.050000,$1*%
%AMFreePoly2*
4,1,18,-0.100000,0.387500,-0.050000,0.437500,0.050000,0.437500,0.069134,0.433694,0.085355,0.422855,0.096194,0.406634,0.100000,0.387500,0.100000,-0.387500,0.096194,-0.406634,0.085355,-0.422855,0.069134,-0.433694,0.050000,-0.437500,-0.050000,-0.437500,-0.069134,-0.433694,-0.085355,-0.422855,-0.096194,-0.406634,-0.100000,-0.387500,-0.100000,0.387500,-0.100000,0.387500,$1*%
%AMFreePoly3*
4,1,18,-0.100000,0.387500,-0.096194,0.406634,-0.085355,0.422855,-0.069134,0.433694,-0.050000,0.437500,0.050000,0.437500,0.100000,0.387500,0.100000,-0.387500,0.096194,-0.406634,0.085355,-0.422855,0.069134,-0.433694,0.050000,-0.437500,-0.050000,-0.437500,-0.069134,-0.433694,-0.085355,-0.422855,-0.096194,-0.406634,-0.100000,-0.387500,-0.100000,0.387500,-0.100000,0.387500,$1*%
%AMFreePoly4*
4,1,18,-0.437500,0.050000,-0.433694,0.069134,-0.422855,0.085355,-0.406634,0.096194,-0.387500,0.100000,0.387500,0.100000,0.406634,0.096194,0.422855,0.085355,0.433694,0.069134,0.437500,0.050000,0.437500,-0.050000,0.433694,-0.069134,0.422855,-0.085355,0.406634,-0.096194,0.387500,-0.100000,-0.387500,-0.100000,-0.437500,-0.050000,-0.437500,0.050000,-0.437500,0.050000,$1*%
%AMFreePoly5*
4,1,18,-0.437500,0.050000,-0.387500,0.100000,0.387500,0.100000,0.406634,0.096194,0.422855,0.085355,0.433694,0.069134,0.437500,0.050000,0.437500,-0.050000,0.433694,-0.069134,0.422855,-0.085355,0.406634,-0.096194,0.387500,-0.100000,-0.387500,-0.100000,-0.406634,-0.096194,-0.422855,-0.085355,-0.433694,-0.069134,-0.437500,-0.050000,-0.437500,0.050000,-0.437500,0.050000,$1*%
%AMFreePoly6*
4,1,18,-0.100000,0.387500,-0.096194,0.406634,-0.085355,0.422855,-0.069134,0.433694,-0.050000,0.437500,0.050000,0.437500,0.069134,0.433694,0.085355,0.422855,0.096194,0.406634,0.100000,0.387500,0.100000,-0.387500,0.050000,-0.437500,-0.050000,-0.437500,-0.069134,-0.433694,-0.085355,-0.422855,-0.096194,-0.406634,-0.100000,-0.387500,-0.100000,0.387500,-0.100000,0.387500,$1*%
%AMFreePoly7*
4,1,18,-0.100000,0.387500,-0.096194,0.406634,-0.085355,0.422855,-0.069134,0.433694,-0.050000,0.437500,0.050000,0.437500,0.069134,0.433694,0.085355,0.422855,0.096194,0.406634,0.100000,0.387500,0.100000,-0.387500,0.096194,-0.406634,0.085355,-0.422855,0.069134,-0.433694,0.050000,-0.437500,-0.050000,-0.437500,-0.100000,-0.387500,-0.100000,0.387500,-0.100000,0.387500,$1*%
G04 Aperture macros list end*
%ADD10RoundRect,0.155000X-0.212500X-0.155000X0.212500X-0.155000X0.212500X0.155000X-0.212500X0.155000X0*%
%ADD11RoundRect,0.155000X0.155000X-0.212500X0.155000X0.212500X-0.155000X0.212500X-0.155000X-0.212500X0*%
%ADD12RoundRect,0.155000X-0.155000X0.212500X-0.155000X-0.212500X0.155000X-0.212500X0.155000X0.212500X0*%
%ADD13RoundRect,0.155000X0.212500X0.155000X-0.212500X0.155000X-0.212500X-0.155000X0.212500X-0.155000X0*%
%ADD14R,1.700000X1.700000*%
%ADD15O,1.700000X1.700000*%
%ADD16RoundRect,0.237500X-0.300000X-0.237500X0.300000X-0.237500X0.300000X0.237500X-0.300000X0.237500X0*%
%ADD17RoundRect,0.150000X-0.150000X0.650000X-0.150000X-0.650000X0.150000X-0.650000X0.150000X0.650000X0*%
%ADD18RoundRect,0.160000X-0.160000X0.197500X-0.160000X-0.197500X0.160000X-0.197500X0.160000X0.197500X0*%
%ADD19RoundRect,0.150000X0.150000X-0.587500X0.150000X0.587500X-0.150000X0.587500X-0.150000X-0.587500X0*%
%ADD20FreePoly0,90.000000*%
%ADD21RoundRect,0.050000X0.050000X-0.387500X0.050000X0.387500X-0.050000X0.387500X-0.050000X-0.387500X0*%
%ADD22FreePoly1,90.000000*%
%ADD23FreePoly2,90.000000*%
%ADD24RoundRect,0.050000X0.387500X-0.050000X0.387500X0.050000X-0.387500X0.050000X-0.387500X-0.050000X0*%
%ADD25FreePoly3,90.000000*%
%ADD26FreePoly4,90.000000*%
%ADD27FreePoly5,90.000000*%
%ADD28FreePoly6,90.000000*%
%ADD29FreePoly7,90.000000*%
%ADD30RoundRect,0.153000X1.547000X1.547000X-1.547000X1.547000X-1.547000X-1.547000X1.547000X-1.547000X0*%
%ADD31RoundRect,0.250000X0.450000X-0.325000X0.450000X0.325000X-0.450000X0.325000X-0.450000X-0.325000X0*%
%ADD32RoundRect,0.160000X0.197500X0.160000X-0.197500X0.160000X-0.197500X-0.160000X0.197500X-0.160000X0*%
%ADD33RoundRect,0.160000X-0.197500X-0.160000X0.197500X-0.160000X0.197500X0.160000X-0.197500X0.160000X0*%
%ADD34C,4.000000*%
%ADD35R,1.600000X1.600000*%
%ADD36C,1.600000*%
%ADD37R,2.400000X0.740000*%
%ADD38RoundRect,0.150000X-0.150000X0.587500X-0.150000X-0.587500X0.150000X-0.587500X0.150000X0.587500X0*%
G04 APERTURE END LIST*
D10*
X120336500Y-75184000D03*
X121471500Y-75184000D03*
D11*
X121285000Y-91626500D03*
X121285000Y-90491500D03*
X123190000Y-91313000D03*
X123190000Y-90178000D03*
D12*
X118846600Y-95478600D03*
X118846600Y-96613600D03*
X124968000Y-101235700D03*
X124968000Y-102370700D03*
D11*
X118922800Y-91617800D03*
X118922800Y-90482800D03*
D10*
X127550100Y-116840000D03*
X128685100Y-116840000D03*
D11*
X118770400Y-94090300D03*
X118770400Y-92955300D03*
D13*
X117610700Y-97078800D03*
X116475700Y-97078800D03*
D11*
X129336800Y-97883600D03*
X129336800Y-96748600D03*
D12*
X120396000Y-101210300D03*
X120396000Y-102345300D03*
D11*
X124180600Y-91313000D03*
X124180600Y-90178000D03*
X127355600Y-91397900D03*
X127355600Y-90262900D03*
D14*
X117957600Y-70556200D03*
D15*
X117957600Y-73096200D03*
D16*
X120601300Y-76673621D03*
X122326300Y-76673621D03*
D17*
X127635000Y-107652000D03*
X126365000Y-107652000D03*
X125095000Y-107652000D03*
X123825000Y-107652000D03*
X123825000Y-114852000D03*
X125095000Y-114852000D03*
X126365000Y-114852000D03*
X127635000Y-114852000D03*
D18*
X130974500Y-104013000D03*
X130974500Y-105208000D03*
D19*
X131675500Y-113000000D03*
X133575500Y-113000000D03*
X132625500Y-111125000D03*
D20*
X120866400Y-99864400D03*
D21*
X121266400Y-99864400D03*
X121666400Y-99864400D03*
X122066400Y-99864400D03*
X122466400Y-99864400D03*
X122866400Y-99864400D03*
X123266400Y-99864400D03*
X123666400Y-99864400D03*
X124066400Y-99864400D03*
X124466400Y-99864400D03*
X124866400Y-99864400D03*
X125266400Y-99864400D03*
X125666400Y-99864400D03*
X126066400Y-99864400D03*
D22*
X126466400Y-99864400D03*
D23*
X127103900Y-99226900D03*
D24*
X127103900Y-98826900D03*
X127103900Y-98426900D03*
X127103900Y-98026900D03*
X127103900Y-97626900D03*
X127103900Y-97226900D03*
X127103900Y-96826900D03*
X127103900Y-96426900D03*
X127103900Y-96026900D03*
X127103900Y-95626900D03*
X127103900Y-95226900D03*
X127103900Y-94826900D03*
X127103900Y-94426900D03*
X127103900Y-94026900D03*
D25*
X127103900Y-93626900D03*
D26*
X126466400Y-92989400D03*
D21*
X126066400Y-92989400D03*
X125666400Y-92989400D03*
X125266400Y-92989400D03*
X124866400Y-92989400D03*
X124466400Y-92989400D03*
X124066400Y-92989400D03*
X123666400Y-92989400D03*
X123266400Y-92989400D03*
X122866400Y-92989400D03*
X122466400Y-92989400D03*
X122066400Y-92989400D03*
X121666400Y-92989400D03*
X121266400Y-92989400D03*
D27*
X120866400Y-92989400D03*
D28*
X120228900Y-93626900D03*
D24*
X120228900Y-94026900D03*
X120228900Y-94426900D03*
X120228900Y-94826900D03*
X120228900Y-95226900D03*
X120228900Y-95626900D03*
X120228900Y-96026900D03*
X120228900Y-96426900D03*
X120228900Y-96826900D03*
X120228900Y-97226900D03*
X120228900Y-97626900D03*
X120228900Y-98026900D03*
X120228900Y-98426900D03*
X120228900Y-98826900D03*
D29*
X120228900Y-99226900D03*
D30*
X123666400Y-96426900D03*
D18*
X120040400Y-90452800D03*
X120040400Y-91647800D03*
X126136400Y-104113400D03*
X126136400Y-105308400D03*
D31*
X117043200Y-95563800D03*
X117043200Y-93513800D03*
D32*
X133731000Y-114681000D03*
X132536000Y-114681000D03*
D33*
X132117500Y-105283000D03*
X133312500Y-105283000D03*
D32*
X136271000Y-114681000D03*
X135076000Y-114681000D03*
D34*
X135351600Y-96266200D03*
X135351600Y-71266200D03*
D35*
X133301600Y-79451200D03*
D36*
X133301600Y-81741200D03*
X133301600Y-84031200D03*
X133301600Y-86321200D03*
X133301600Y-88611200D03*
X135281600Y-78306200D03*
X135281600Y-80596200D03*
X135281600Y-82886200D03*
X135281600Y-85176200D03*
X135281600Y-87466200D03*
X137261600Y-79451200D03*
X137261600Y-81741200D03*
X137261600Y-84031200D03*
X137261600Y-86321200D03*
X137261600Y-88611200D03*
D18*
X137832500Y-104088000D03*
X137832500Y-105283000D03*
D37*
X120229800Y-79146400D03*
X124129800Y-79146400D03*
X120229800Y-80416400D03*
X124129800Y-80416400D03*
X120229800Y-81686400D03*
X124129800Y-81686400D03*
X120229800Y-82956400D03*
X124129800Y-82956400D03*
X120229800Y-84226400D03*
X124129800Y-84226400D03*
X120229800Y-85496400D03*
X124129800Y-85496400D03*
D38*
X133575500Y-106964000D03*
X131675500Y-106964000D03*
X132625500Y-108839000D03*
X137258500Y-106964000D03*
X135358500Y-106964000D03*
X136308500Y-108839000D03*
D32*
X136741500Y-105283000D03*
X135546500Y-105283000D03*
X130315300Y-75768200D03*
X129120300Y-75768200D03*
D19*
X135358500Y-113000000D03*
X137258500Y-113000000D03*
X136308500Y-111125000D03*
D32*
X130340700Y-76936600D03*
X129145700Y-76936600D03*
D14*
X117652800Y-108473000D03*
D15*
X117652800Y-111013000D03*
X117652800Y-113553000D03*
M02*
