%TF.GenerationSoftware,KiCad,Pcbnew,8.0.4*%
%TF.CreationDate,2024-08-25T14:18:40+02:00*%
%TF.ProjectId,bus_adapter_10pin,6275735f-6164-4617-9074-65725f313070,rev?*%
%TF.SameCoordinates,Original*%
%TF.FileFunction,Legend,Bot*%
%TF.FilePolarity,Positive*%
%FSLAX46Y46*%
G04 Gerber Fmt 4.6, Leading zero omitted, Abs format (unit mm)*
G04 Created by KiCad (PCBNEW 8.0.4) date 2024-08-25 14:18:40*
%MOMM*%
%LPD*%
G01*
G04 APERTURE LIST*
%ADD10C,0.152400*%
%ADD11C,0.120000*%
G04 APERTURE END LIST*
D10*
X157675695Y-135585533D02*
X158401410Y-135585533D01*
X158401410Y-135585533D02*
X158546553Y-135537152D01*
X158546553Y-135537152D02*
X158643315Y-135440390D01*
X158643315Y-135440390D02*
X158691695Y-135295247D01*
X158691695Y-135295247D02*
X158691695Y-135198485D01*
X157675695Y-135972580D02*
X157675695Y-136601533D01*
X157675695Y-136601533D02*
X158062743Y-136262866D01*
X158062743Y-136262866D02*
X158062743Y-136408009D01*
X158062743Y-136408009D02*
X158111124Y-136504771D01*
X158111124Y-136504771D02*
X158159505Y-136553152D01*
X158159505Y-136553152D02*
X158256267Y-136601533D01*
X158256267Y-136601533D02*
X158498172Y-136601533D01*
X158498172Y-136601533D02*
X158594934Y-136553152D01*
X158594934Y-136553152D02*
X158643315Y-136504771D01*
X158643315Y-136504771D02*
X158691695Y-136408009D01*
X158691695Y-136408009D02*
X158691695Y-136117723D01*
X158691695Y-136117723D02*
X158643315Y-136020961D01*
X158643315Y-136020961D02*
X158594934Y-135972580D01*
D11*
X159592000Y-137740000D02*
X159592000Y-134210000D01*
X159657000Y-134210000D02*
X159592000Y-134210000D01*
X159657000Y-134210000D02*
X159657000Y-132885000D01*
X159657000Y-137740000D02*
X159592000Y-137740000D01*
X172412000Y-134210000D02*
X172347000Y-134210000D01*
X172412000Y-137740000D02*
X172347000Y-137740000D01*
X172412000Y-137740000D02*
X172412000Y-134210000D01*
M02*
