M48
; DRILL file {KiCad 8.0.4} date 2024-08-25T14:18:47+0200
; FORMAT={-:-/ absolute / metric / decimal}
; #@! TF.CreationDate,2024-08-25T14:18:47+02:00
; #@! TF.GenerationSoftware,Kicad,Pcbnew,8.0.4
; #@! TF.FileFunction,Plated,1,2,PTH
FMAT,2
METRIC
; #@! TA.AperFunction,Plated,PTH,ViaDrill
T1C0.300
; #@! TA.AperFunction,Plated,PTH,ComponentDrill
T2C1.000
%
G90
G05
T1
X160.3Y-139.833
X161.56Y-141.161
X162.84Y-139.833
X164.08Y-141.161
X165.36Y-139.833
X166.6Y-141.161
X167.91Y-139.833
X169.16Y-141.161
X170.41Y-139.833
T2
X157.86Y-102.66
X157.86Y-105.2
X157.86Y-107.74
X157.86Y-110.28
X157.86Y-112.82
X157.86Y-115.36
X157.86Y-117.9
X157.86Y-120.44
X157.86Y-122.98
X157.86Y-125.52
X173.61Y-102.67
X173.61Y-105.21
X173.61Y-107.75
X173.61Y-110.29
X173.61Y-112.83
X173.61Y-115.37
X173.61Y-117.91
X173.61Y-120.45
X173.61Y-122.99
X173.61Y-125.53
M30
