%TF.GenerationSoftware,KiCad,Pcbnew,8.0.4*%
%TF.CreationDate,2024-08-25T14:18:40+02:00*%
%TF.ProjectId,bus_adapter_10pin,6275735f-6164-4617-9074-65725f313070,rev?*%
%TF.SameCoordinates,Original*%
%TF.FileFunction,Copper,L1,Top*%
%TF.FilePolarity,Positive*%
%FSLAX46Y46*%
G04 Gerber Fmt 4.6, Leading zero omitted, Abs format (unit mm)*
G04 Created by KiCad (PCBNEW 8.0.4) date 2024-08-25 14:18:40*
%MOMM*%
%LPD*%
G01*
G04 APERTURE LIST*
%TA.AperFunction,ComponentPad*%
%ADD10R,1.700000X1.700000*%
%TD*%
%TA.AperFunction,ComponentPad*%
%ADD11O,1.700000X1.700000*%
%TD*%
%TA.AperFunction,ViaPad*%
%ADD12C,0.600000*%
%TD*%
%TA.AperFunction,Conductor*%
%ADD13C,0.200000*%
%TD*%
G04 APERTURE END LIST*
D10*
X157860000Y-125520000D03*
D11*
X157860000Y-122980000D03*
X157860000Y-120440000D03*
X157860000Y-117900000D03*
X157860000Y-115360000D03*
X157860000Y-112820000D03*
X157860000Y-110280000D03*
X157860000Y-107740000D03*
X157860000Y-105200000D03*
X157860000Y-102660000D03*
D10*
X173610000Y-102670000D03*
D11*
X173610000Y-105210000D03*
X173610000Y-107750000D03*
X173610000Y-110290000D03*
X173610000Y-112830000D03*
X173610000Y-115370000D03*
X173610000Y-117910000D03*
X173610000Y-120450000D03*
X173610000Y-122990000D03*
X173610000Y-125530000D03*
D12*
X169160000Y-141161500D03*
X162840000Y-139833500D03*
X165360000Y-139833500D03*
X170410000Y-139833500D03*
X164080000Y-141161500D03*
X166600000Y-141161500D03*
X167910000Y-139833500D03*
X160300000Y-139833500D03*
X161560000Y-141161500D03*
D13*
X169160000Y-141161500D02*
X169160000Y-122840000D01*
X169160000Y-122840000D02*
X171550000Y-120450000D01*
X171550000Y-120450000D02*
X173610000Y-120450000D01*
X162840000Y-139833500D02*
X162840000Y-116820000D01*
X171910000Y-107750000D02*
X173610000Y-107750000D01*
X162840000Y-116820000D02*
X171910000Y-107750000D01*
X165360000Y-139833500D02*
X165360000Y-119810000D01*
X172340000Y-112830000D02*
X173610000Y-112830000D01*
X165360000Y-119810000D02*
X172340000Y-112830000D01*
X170410000Y-139833500D02*
X170410000Y-124880000D01*
X172300000Y-122990000D02*
X173610000Y-122990000D01*
X170410000Y-124880000D02*
X172300000Y-122990000D01*
X172330000Y-110290000D02*
X173610000Y-110290000D01*
X164080000Y-118540000D02*
X172330000Y-110290000D01*
X164080000Y-141161500D02*
X164080000Y-118540000D01*
X171970000Y-115370000D02*
X173610000Y-115370000D01*
X166600000Y-120740000D02*
X171970000Y-115370000D01*
X166600000Y-141161500D02*
X166600000Y-120740000D01*
X171770000Y-117910000D02*
X173610000Y-117910000D01*
X167910000Y-139833500D02*
X167910000Y-121770000D01*
X167910000Y-121770000D02*
X171770000Y-117910000D01*
X160300000Y-139833500D02*
X160300000Y-113010000D01*
X160300000Y-113010000D02*
X170640000Y-102670000D01*
X170640000Y-102670000D02*
X173610000Y-102670000D01*
X161560000Y-141161500D02*
X161560000Y-114660000D01*
X171010000Y-105210000D02*
X173610000Y-105210000D01*
X161560000Y-114660000D02*
X171010000Y-105210000D01*
%TA.AperFunction,Conductor*%
G36*
X163150539Y-93315185D02*
G01*
X163196294Y-93367989D01*
X163207500Y-93419500D01*
X163207500Y-97946036D01*
X163245357Y-98245695D01*
X163320474Y-98538262D01*
X163320475Y-98538265D01*
X163431663Y-98819095D01*
X163431664Y-98819096D01*
X163431666Y-98819101D01*
X163431668Y-98819104D01*
X163577184Y-99083795D01*
X163577186Y-99083799D01*
X163577191Y-99083806D01*
X163754719Y-99328153D01*
X163754727Y-99328163D01*
X163961494Y-99548347D01*
X164194236Y-99740888D01*
X164405293Y-99874828D01*
X164449264Y-99902733D01*
X164608716Y-99977765D01*
X164722563Y-100031338D01*
X164722567Y-100031339D01*
X164722570Y-100031341D01*
X165009840Y-100124681D01*
X165306543Y-100181280D01*
X165306548Y-100181280D01*
X165306553Y-100181281D01*
X165607995Y-100200246D01*
X165608000Y-100200246D01*
X165608005Y-100200246D01*
X165909446Y-100181281D01*
X165909449Y-100181280D01*
X165909457Y-100181280D01*
X166206160Y-100124681D01*
X166493430Y-100031341D01*
X166766736Y-99902733D01*
X167021768Y-99740885D01*
X167254504Y-99548349D01*
X167461274Y-99328162D01*
X167638816Y-99083795D01*
X167784332Y-98819104D01*
X167895525Y-98538262D01*
X167970642Y-98245698D01*
X168008500Y-97946027D01*
X168008500Y-97795000D01*
X168008500Y-97729108D01*
X168008500Y-93419500D01*
X168028185Y-93352461D01*
X168080989Y-93306706D01*
X168132500Y-93295500D01*
X176983500Y-93295500D01*
X177050539Y-93315185D01*
X177096294Y-93367989D01*
X177107500Y-93419500D01*
X177107500Y-142170500D01*
X177087815Y-142237539D01*
X177035011Y-142283294D01*
X176983500Y-142294500D01*
X154232500Y-142294500D01*
X154165461Y-142274815D01*
X154119706Y-142222011D01*
X154108500Y-142170500D01*
X154108500Y-139833496D01*
X159494435Y-139833496D01*
X159494435Y-139833503D01*
X159514630Y-140012749D01*
X159514631Y-140012754D01*
X159574211Y-140183023D01*
X159640500Y-140288520D01*
X159670184Y-140335762D01*
X159797738Y-140463316D01*
X159876001Y-140512492D01*
X159929901Y-140546360D01*
X159950478Y-140559289D01*
X160111451Y-140615616D01*
X160120745Y-140618868D01*
X160120750Y-140618869D01*
X160299996Y-140639065D01*
X160300000Y-140639065D01*
X160300004Y-140639065D01*
X160479249Y-140618869D01*
X160479252Y-140618868D01*
X160479255Y-140618868D01*
X160649522Y-140559289D01*
X160670099Y-140546360D01*
X160723999Y-140512492D01*
X160757048Y-140491725D01*
X160824284Y-140472725D01*
X160891119Y-140493092D01*
X160936334Y-140546360D01*
X160945572Y-140615616D01*
X160928014Y-140662691D01*
X160834211Y-140811976D01*
X160774631Y-140982245D01*
X160774630Y-140982250D01*
X160754435Y-141161496D01*
X160754435Y-141161503D01*
X160774630Y-141340749D01*
X160774631Y-141340754D01*
X160834211Y-141511023D01*
X160930184Y-141663762D01*
X161057738Y-141791316D01*
X161210478Y-141887289D01*
X161380745Y-141946868D01*
X161380750Y-141946869D01*
X161559996Y-141967065D01*
X161560000Y-141967065D01*
X161560004Y-141967065D01*
X161739249Y-141946869D01*
X161739252Y-141946868D01*
X161739255Y-141946868D01*
X161909522Y-141887289D01*
X162062262Y-141791316D01*
X162189816Y-141663762D01*
X162285789Y-141511022D01*
X162345368Y-141340755D01*
X162365565Y-141161500D01*
X162345368Y-140982245D01*
X162285789Y-140811978D01*
X162189816Y-140659238D01*
X162189814Y-140659236D01*
X162189813Y-140659234D01*
X162187550Y-140656396D01*
X162186659Y-140654215D01*
X162186111Y-140653342D01*
X162186264Y-140653245D01*
X162161144Y-140591709D01*
X162160500Y-140579087D01*
X162160500Y-140576311D01*
X162180185Y-140509272D01*
X162232989Y-140463517D01*
X162302147Y-140453573D01*
X162350470Y-140471316D01*
X162490478Y-140559289D01*
X162651451Y-140615616D01*
X162660745Y-140618868D01*
X162660750Y-140618869D01*
X162839996Y-140639065D01*
X162840000Y-140639065D01*
X162840004Y-140639065D01*
X163019249Y-140618869D01*
X163019252Y-140618868D01*
X163019255Y-140618868D01*
X163189522Y-140559289D01*
X163210099Y-140546360D01*
X163263999Y-140512492D01*
X163331236Y-140493491D01*
X163398071Y-140513858D01*
X163443286Y-140567126D01*
X163452524Y-140636382D01*
X163434966Y-140683457D01*
X163354211Y-140811976D01*
X163294631Y-140982245D01*
X163294630Y-140982250D01*
X163274435Y-141161496D01*
X163274435Y-141161503D01*
X163294630Y-141340749D01*
X163294631Y-141340754D01*
X163354211Y-141511023D01*
X163450184Y-141663762D01*
X163577738Y-141791316D01*
X163730478Y-141887289D01*
X163900745Y-141946868D01*
X163900750Y-141946869D01*
X164079996Y-141967065D01*
X164080000Y-141967065D01*
X164080004Y-141967065D01*
X164259249Y-141946869D01*
X164259252Y-141946868D01*
X164259255Y-141946868D01*
X164429522Y-141887289D01*
X164582262Y-141791316D01*
X164709816Y-141663762D01*
X164805789Y-141511022D01*
X164865368Y-141340755D01*
X164885565Y-141161500D01*
X164865368Y-140982245D01*
X164805789Y-140811978D01*
X164709816Y-140659238D01*
X164709814Y-140659236D01*
X164709813Y-140659234D01*
X164707550Y-140656396D01*
X164706659Y-140654215D01*
X164706111Y-140653342D01*
X164706264Y-140653245D01*
X164681144Y-140591709D01*
X164680500Y-140579087D01*
X164680500Y-140576311D01*
X164700185Y-140509272D01*
X164752989Y-140463517D01*
X164822147Y-140453573D01*
X164870470Y-140471316D01*
X165010478Y-140559289D01*
X165171451Y-140615616D01*
X165180745Y-140618868D01*
X165180750Y-140618869D01*
X165359996Y-140639065D01*
X165360000Y-140639065D01*
X165360004Y-140639065D01*
X165539249Y-140618869D01*
X165539252Y-140618868D01*
X165539255Y-140618868D01*
X165709522Y-140559289D01*
X165730099Y-140546360D01*
X165783999Y-140512492D01*
X165851236Y-140493491D01*
X165918071Y-140513858D01*
X165963286Y-140567126D01*
X165972524Y-140636382D01*
X165954966Y-140683457D01*
X165874211Y-140811976D01*
X165814631Y-140982245D01*
X165814630Y-140982250D01*
X165794435Y-141161496D01*
X165794435Y-141161503D01*
X165814630Y-141340749D01*
X165814631Y-141340754D01*
X165874211Y-141511023D01*
X165970184Y-141663762D01*
X166097738Y-141791316D01*
X166250478Y-141887289D01*
X166420745Y-141946868D01*
X166420750Y-141946869D01*
X166599996Y-141967065D01*
X166600000Y-141967065D01*
X166600004Y-141967065D01*
X166779249Y-141946869D01*
X166779252Y-141946868D01*
X166779255Y-141946868D01*
X166949522Y-141887289D01*
X167102262Y-141791316D01*
X167229816Y-141663762D01*
X167325789Y-141511022D01*
X167385368Y-141340755D01*
X167405565Y-141161500D01*
X167385368Y-140982245D01*
X167325789Y-140811978D01*
X167229816Y-140659238D01*
X167229814Y-140659236D01*
X167229813Y-140659234D01*
X167227550Y-140656396D01*
X167226659Y-140654215D01*
X167226111Y-140653342D01*
X167226264Y-140653245D01*
X167201144Y-140591709D01*
X167200500Y-140579087D01*
X167200500Y-140555440D01*
X167220185Y-140488401D01*
X167272989Y-140442646D01*
X167342147Y-140432702D01*
X167401596Y-140459851D01*
X167402295Y-140458975D01*
X167407737Y-140463315D01*
X167407738Y-140463316D01*
X167486001Y-140512492D01*
X167539901Y-140546360D01*
X167560478Y-140559289D01*
X167721451Y-140615616D01*
X167730745Y-140618868D01*
X167730750Y-140618869D01*
X167909996Y-140639065D01*
X167910000Y-140639065D01*
X167910004Y-140639065D01*
X168089249Y-140618869D01*
X168089252Y-140618868D01*
X168089255Y-140618868D01*
X168259522Y-140559289D01*
X168280099Y-140546360D01*
X168333999Y-140512492D01*
X168350523Y-140502108D01*
X168417760Y-140483108D01*
X168484595Y-140503475D01*
X168529810Y-140556743D01*
X168539048Y-140625999D01*
X168521490Y-140673074D01*
X168434211Y-140811976D01*
X168374631Y-140982245D01*
X168374630Y-140982250D01*
X168354435Y-141161496D01*
X168354435Y-141161503D01*
X168374630Y-141340749D01*
X168374631Y-141340754D01*
X168434211Y-141511023D01*
X168530184Y-141663762D01*
X168657738Y-141791316D01*
X168810478Y-141887289D01*
X168980745Y-141946868D01*
X168980750Y-141946869D01*
X169159996Y-141967065D01*
X169160000Y-141967065D01*
X169160004Y-141967065D01*
X169339249Y-141946869D01*
X169339252Y-141946868D01*
X169339255Y-141946868D01*
X169509522Y-141887289D01*
X169662262Y-141791316D01*
X169789816Y-141663762D01*
X169885789Y-141511022D01*
X169945368Y-141340755D01*
X169965565Y-141161500D01*
X169945368Y-140982245D01*
X169885789Y-140811978D01*
X169885788Y-140811976D01*
X169885788Y-140811975D01*
X169798510Y-140673075D01*
X169779509Y-140605838D01*
X169799876Y-140539003D01*
X169853144Y-140493788D01*
X169922400Y-140484550D01*
X169969475Y-140502108D01*
X170039901Y-140546360D01*
X170060478Y-140559289D01*
X170221451Y-140615616D01*
X170230745Y-140618868D01*
X170230750Y-140618869D01*
X170409996Y-140639065D01*
X170410000Y-140639065D01*
X170410004Y-140639065D01*
X170589249Y-140618869D01*
X170589252Y-140618868D01*
X170589255Y-140618868D01*
X170759522Y-140559289D01*
X170912262Y-140463316D01*
X171039816Y-140335762D01*
X171135789Y-140183022D01*
X171195368Y-140012755D01*
X171215565Y-139833500D01*
X171195368Y-139654245D01*
X171135789Y-139483978D01*
X171039816Y-139331238D01*
X171039814Y-139331236D01*
X171039813Y-139331234D01*
X171037550Y-139328396D01*
X171036659Y-139326215D01*
X171036111Y-139325342D01*
X171036264Y-139325245D01*
X171011144Y-139263709D01*
X171010500Y-139251087D01*
X171010500Y-125180096D01*
X171030185Y-125113057D01*
X171046814Y-125092420D01*
X172346067Y-123793166D01*
X172407388Y-123759683D01*
X172477080Y-123764667D01*
X172533013Y-123806539D01*
X172535320Y-123809724D01*
X172571505Y-123861401D01*
X172571506Y-123861402D01*
X172571507Y-123861403D01*
X172738597Y-124028493D01*
X172738603Y-124028498D01*
X172924594Y-124158730D01*
X172968219Y-124213307D01*
X172975413Y-124282805D01*
X172943890Y-124345160D01*
X172924595Y-124361880D01*
X172738922Y-124491890D01*
X172738920Y-124491891D01*
X172571891Y-124658920D01*
X172571886Y-124658926D01*
X172436400Y-124852420D01*
X172436399Y-124852422D01*
X172336570Y-125066507D01*
X172336567Y-125066513D01*
X172279364Y-125279999D01*
X172279364Y-125280000D01*
X173176988Y-125280000D01*
X173144075Y-125337007D01*
X173110000Y-125464174D01*
X173110000Y-125595826D01*
X173144075Y-125722993D01*
X173176988Y-125780000D01*
X172279364Y-125780000D01*
X172336567Y-125993486D01*
X172336570Y-125993492D01*
X172436399Y-126207578D01*
X172571894Y-126401082D01*
X172738917Y-126568105D01*
X172932421Y-126703600D01*
X173146507Y-126803429D01*
X173146516Y-126803433D01*
X173360000Y-126860634D01*
X173360000Y-125963012D01*
X173417007Y-125995925D01*
X173544174Y-126030000D01*
X173675826Y-126030000D01*
X173802993Y-125995925D01*
X173860000Y-125963012D01*
X173860000Y-126860633D01*
X174073483Y-126803433D01*
X174073492Y-126803429D01*
X174287578Y-126703600D01*
X174481082Y-126568105D01*
X174648105Y-126401082D01*
X174783600Y-126207578D01*
X174883429Y-125993492D01*
X174883432Y-125993486D01*
X174940636Y-125780000D01*
X174043012Y-125780000D01*
X174075925Y-125722993D01*
X174110000Y-125595826D01*
X174110000Y-125464174D01*
X174075925Y-125337007D01*
X174043012Y-125280000D01*
X174940636Y-125280000D01*
X174940635Y-125279999D01*
X174883432Y-125066513D01*
X174883429Y-125066507D01*
X174783600Y-124852422D01*
X174783599Y-124852420D01*
X174648113Y-124658926D01*
X174648108Y-124658920D01*
X174481078Y-124491890D01*
X174295405Y-124361879D01*
X174251780Y-124307302D01*
X174244588Y-124237804D01*
X174276110Y-124175449D01*
X174295406Y-124158730D01*
X174328842Y-124135318D01*
X174481401Y-124028495D01*
X174648495Y-123861401D01*
X174784035Y-123667830D01*
X174883903Y-123453663D01*
X174945063Y-123225408D01*
X174965659Y-122990000D01*
X174945063Y-122754592D01*
X174883903Y-122526337D01*
X174784035Y-122312171D01*
X174784034Y-122312169D01*
X174648494Y-122118597D01*
X174481402Y-121951506D01*
X174481396Y-121951501D01*
X174295842Y-121821575D01*
X174252217Y-121766998D01*
X174245023Y-121697500D01*
X174276546Y-121635145D01*
X174295842Y-121618425D01*
X174318026Y-121602891D01*
X174481401Y-121488495D01*
X174648495Y-121321401D01*
X174784035Y-121127830D01*
X174883903Y-120913663D01*
X174945063Y-120685408D01*
X174965659Y-120450000D01*
X174945063Y-120214592D01*
X174883903Y-119986337D01*
X174784035Y-119772171D01*
X174784034Y-119772169D01*
X174648494Y-119578597D01*
X174481402Y-119411506D01*
X174481396Y-119411501D01*
X174295842Y-119281575D01*
X174252217Y-119226998D01*
X174245023Y-119157500D01*
X174276546Y-119095145D01*
X174295842Y-119078425D01*
X174318026Y-119062891D01*
X174481401Y-118948495D01*
X174648495Y-118781401D01*
X174784035Y-118587830D01*
X174883903Y-118373663D01*
X174945063Y-118145408D01*
X174965659Y-117910000D01*
X174945063Y-117674592D01*
X174883903Y-117446337D01*
X174784035Y-117232171D01*
X174784034Y-117232169D01*
X174648494Y-117038597D01*
X174481402Y-116871506D01*
X174481396Y-116871501D01*
X174295842Y-116741575D01*
X174252217Y-116686998D01*
X174245023Y-116617500D01*
X174276546Y-116555145D01*
X174295842Y-116538425D01*
X174420292Y-116451284D01*
X174481401Y-116408495D01*
X174648495Y-116241401D01*
X174784035Y-116047830D01*
X174883903Y-115833663D01*
X174945063Y-115605408D01*
X174965659Y-115370000D01*
X174945063Y-115134592D01*
X174883903Y-114906337D01*
X174784035Y-114692171D01*
X174784034Y-114692169D01*
X174648494Y-114498597D01*
X174481402Y-114331506D01*
X174481396Y-114331501D01*
X174295842Y-114201575D01*
X174252217Y-114146998D01*
X174245023Y-114077500D01*
X174276546Y-114015145D01*
X174295842Y-113998425D01*
X174318026Y-113982891D01*
X174481401Y-113868495D01*
X174648495Y-113701401D01*
X174784035Y-113507830D01*
X174883903Y-113293663D01*
X174945063Y-113065408D01*
X174965659Y-112830000D01*
X174945063Y-112594592D01*
X174883903Y-112366337D01*
X174784035Y-112152171D01*
X174648495Y-111958599D01*
X174648494Y-111958597D01*
X174481402Y-111791506D01*
X174481396Y-111791501D01*
X174295842Y-111661575D01*
X174252217Y-111606998D01*
X174245023Y-111537500D01*
X174276546Y-111475145D01*
X174295842Y-111458425D01*
X174318026Y-111442891D01*
X174481401Y-111328495D01*
X174648495Y-111161401D01*
X174784035Y-110967830D01*
X174883903Y-110753663D01*
X174945063Y-110525408D01*
X174965659Y-110290000D01*
X174945063Y-110054592D01*
X174883903Y-109826337D01*
X174784035Y-109612171D01*
X174648495Y-109418599D01*
X174648494Y-109418597D01*
X174481402Y-109251506D01*
X174481396Y-109251501D01*
X174295842Y-109121575D01*
X174252217Y-109066998D01*
X174245023Y-108997500D01*
X174276546Y-108935145D01*
X174295842Y-108918425D01*
X174318026Y-108902891D01*
X174481401Y-108788495D01*
X174648495Y-108621401D01*
X174784035Y-108427830D01*
X174883903Y-108213663D01*
X174945063Y-107985408D01*
X174965659Y-107750000D01*
X174945063Y-107514592D01*
X174883903Y-107286337D01*
X174784035Y-107072171D01*
X174784034Y-107072169D01*
X174648494Y-106878597D01*
X174481402Y-106711506D01*
X174481396Y-106711501D01*
X174295842Y-106581575D01*
X174252217Y-106526998D01*
X174245023Y-106457500D01*
X174276546Y-106395145D01*
X174295842Y-106378425D01*
X174318026Y-106362891D01*
X174481401Y-106248495D01*
X174648495Y-106081401D01*
X174784035Y-105887830D01*
X174883903Y-105673663D01*
X174945063Y-105445408D01*
X174965659Y-105210000D01*
X174945063Y-104974592D01*
X174883903Y-104746337D01*
X174784035Y-104532171D01*
X174784034Y-104532169D01*
X174648496Y-104338600D01*
X174638816Y-104328920D01*
X174526567Y-104216671D01*
X174493084Y-104155351D01*
X174498068Y-104085659D01*
X174539939Y-104029725D01*
X174570915Y-104012810D01*
X174702331Y-103963796D01*
X174817546Y-103877546D01*
X174903796Y-103762331D01*
X174954091Y-103627483D01*
X174960500Y-103567873D01*
X174960499Y-101772128D01*
X174954091Y-101712517D01*
X174920144Y-101621501D01*
X174903797Y-101577671D01*
X174903793Y-101577664D01*
X174817547Y-101462455D01*
X174817544Y-101462452D01*
X174702335Y-101376206D01*
X174702328Y-101376202D01*
X174567482Y-101325908D01*
X174567483Y-101325908D01*
X174507883Y-101319501D01*
X174507881Y-101319500D01*
X174507873Y-101319500D01*
X174507864Y-101319500D01*
X172712129Y-101319500D01*
X172712123Y-101319501D01*
X172652516Y-101325908D01*
X172517671Y-101376202D01*
X172517664Y-101376206D01*
X172402455Y-101462452D01*
X172402452Y-101462455D01*
X172316206Y-101577664D01*
X172316202Y-101577671D01*
X172265908Y-101712517D01*
X172259501Y-101772116D01*
X172259501Y-101772123D01*
X172259500Y-101772135D01*
X172259500Y-101945500D01*
X172239815Y-102012539D01*
X172187011Y-102058294D01*
X172135500Y-102069500D01*
X170719057Y-102069500D01*
X170560942Y-102069500D01*
X170408215Y-102110423D01*
X170408214Y-102110423D01*
X170408212Y-102110424D01*
X170408209Y-102110425D01*
X170358096Y-102139359D01*
X170358095Y-102139360D01*
X170314689Y-102164420D01*
X170271285Y-102189479D01*
X170271282Y-102189481D01*
X159819482Y-112641281D01*
X159819480Y-112641283D01*
X159819480Y-112641284D01*
X159773191Y-112721459D01*
X159773190Y-112721459D01*
X159740424Y-112778212D01*
X159740423Y-112778213D01*
X159726547Y-112829999D01*
X159699499Y-112930943D01*
X159699499Y-112930945D01*
X159699499Y-113099046D01*
X159699500Y-113099059D01*
X159699500Y-139251087D01*
X159679815Y-139318126D01*
X159672450Y-139328396D01*
X159670186Y-139331234D01*
X159574211Y-139483976D01*
X159514631Y-139654245D01*
X159514630Y-139654250D01*
X159494435Y-139833496D01*
X154108500Y-139833496D01*
X154108500Y-102659999D01*
X156504341Y-102659999D01*
X156504341Y-102660000D01*
X156524936Y-102895403D01*
X156524938Y-102895413D01*
X156586094Y-103123655D01*
X156586096Y-103123659D01*
X156586097Y-103123663D01*
X156655890Y-103273334D01*
X156685965Y-103337830D01*
X156685967Y-103337834D01*
X156821501Y-103531395D01*
X156821506Y-103531402D01*
X156988597Y-103698493D01*
X156988603Y-103698498D01*
X157174594Y-103828730D01*
X157218219Y-103883307D01*
X157225413Y-103952805D01*
X157193890Y-104015160D01*
X157174595Y-104031880D01*
X156988922Y-104161890D01*
X156988920Y-104161891D01*
X156821891Y-104328920D01*
X156821886Y-104328926D01*
X156686400Y-104522420D01*
X156686399Y-104522422D01*
X156586570Y-104736507D01*
X156586567Y-104736513D01*
X156529364Y-104949999D01*
X156529364Y-104950000D01*
X157426988Y-104950000D01*
X157394075Y-105007007D01*
X157360000Y-105134174D01*
X157360000Y-105265826D01*
X157394075Y-105392993D01*
X157426988Y-105450000D01*
X156529364Y-105450000D01*
X156586567Y-105663486D01*
X156586570Y-105663492D01*
X156686399Y-105877578D01*
X156821894Y-106071082D01*
X156988917Y-106238105D01*
X157174595Y-106368119D01*
X157218219Y-106422696D01*
X157225412Y-106492195D01*
X157193890Y-106554549D01*
X157174595Y-106571269D01*
X156988594Y-106701508D01*
X156821505Y-106868597D01*
X156685965Y-107062169D01*
X156685964Y-107062171D01*
X156592401Y-107262816D01*
X156589295Y-107269480D01*
X156586098Y-107276335D01*
X156586094Y-107276344D01*
X156524938Y-107504586D01*
X156524936Y-107504596D01*
X156504341Y-107739999D01*
X156504341Y-107740000D01*
X156524936Y-107975403D01*
X156524938Y-107975413D01*
X156586094Y-108203655D01*
X156586096Y-108203659D01*
X156586097Y-108203663D01*
X156655890Y-108353334D01*
X156685965Y-108417830D01*
X156685967Y-108417834D01*
X156821501Y-108611395D01*
X156821506Y-108611402D01*
X156988597Y-108778493D01*
X156988603Y-108778498D01*
X157174158Y-108908425D01*
X157217783Y-108963002D01*
X157224977Y-109032500D01*
X157193454Y-109094855D01*
X157174158Y-109111575D01*
X156988597Y-109241505D01*
X156821505Y-109408597D01*
X156685965Y-109602169D01*
X156685964Y-109602171D01*
X156592401Y-109802816D01*
X156589295Y-109809480D01*
X156586098Y-109816335D01*
X156586094Y-109816344D01*
X156524938Y-110044586D01*
X156524936Y-110044596D01*
X156504341Y-110279999D01*
X156504341Y-110280000D01*
X156524936Y-110515403D01*
X156524938Y-110515413D01*
X156586094Y-110743655D01*
X156586096Y-110743659D01*
X156586097Y-110743663D01*
X156590761Y-110753664D01*
X156685965Y-110957830D01*
X156685967Y-110957834D01*
X156821501Y-111151395D01*
X156821506Y-111151402D01*
X156988597Y-111318493D01*
X156988603Y-111318498D01*
X157174158Y-111448425D01*
X157217783Y-111503002D01*
X157224977Y-111572500D01*
X157193454Y-111634855D01*
X157174158Y-111651575D01*
X156988597Y-111781505D01*
X156821505Y-111948597D01*
X156685965Y-112142169D01*
X156685964Y-112142171D01*
X156626158Y-112270426D01*
X156589295Y-112349480D01*
X156586098Y-112356335D01*
X156586094Y-112356344D01*
X156524938Y-112584586D01*
X156524936Y-112584596D01*
X156504341Y-112819999D01*
X156504341Y-112820000D01*
X156524936Y-113055403D01*
X156524938Y-113055413D01*
X156586094Y-113283655D01*
X156586096Y-113283659D01*
X156586097Y-113283663D01*
X156685965Y-113497830D01*
X156685967Y-113497834D01*
X156821501Y-113691395D01*
X156821506Y-113691402D01*
X156988597Y-113858493D01*
X156988603Y-113858498D01*
X157174158Y-113988425D01*
X157217783Y-114043002D01*
X157224977Y-114112500D01*
X157193454Y-114174855D01*
X157174158Y-114191575D01*
X156988597Y-114321505D01*
X156821505Y-114488597D01*
X156685965Y-114682169D01*
X156685964Y-114682171D01*
X156597252Y-114872416D01*
X156589295Y-114889480D01*
X156586098Y-114896335D01*
X156586094Y-114896344D01*
X156524938Y-115124586D01*
X156524936Y-115124596D01*
X156504341Y-115359999D01*
X156504341Y-115360000D01*
X156524936Y-115595403D01*
X156524938Y-115595413D01*
X156586094Y-115823655D01*
X156586096Y-115823659D01*
X156586097Y-115823663D01*
X156655890Y-115973334D01*
X156685965Y-116037830D01*
X156685967Y-116037834D01*
X156821501Y-116231395D01*
X156821506Y-116231402D01*
X156988597Y-116398493D01*
X156988603Y-116398498D01*
X157174158Y-116528425D01*
X157217783Y-116583002D01*
X157224977Y-116652500D01*
X157193454Y-116714855D01*
X157174158Y-116731575D01*
X156988597Y-116861505D01*
X156821505Y-117028597D01*
X156685965Y-117222169D01*
X156685964Y-117222171D01*
X156626158Y-117350426D01*
X156589295Y-117429480D01*
X156586098Y-117436335D01*
X156586094Y-117436344D01*
X156524938Y-117664586D01*
X156524936Y-117664596D01*
X156504341Y-117899999D01*
X156504341Y-117900000D01*
X156524936Y-118135403D01*
X156524938Y-118135413D01*
X156586094Y-118363655D01*
X156586096Y-118363659D01*
X156586097Y-118363663D01*
X156655890Y-118513334D01*
X156685965Y-118577830D01*
X156685967Y-118577834D01*
X156821501Y-118771395D01*
X156821506Y-118771402D01*
X156988597Y-118938493D01*
X156988603Y-118938498D01*
X157174158Y-119068425D01*
X157217783Y-119123002D01*
X157224977Y-119192500D01*
X157193454Y-119254855D01*
X157174158Y-119271575D01*
X156988597Y-119401505D01*
X156821505Y-119568597D01*
X156685965Y-119762169D01*
X156685964Y-119762171D01*
X156626158Y-119890426D01*
X156589295Y-119969480D01*
X156586098Y-119976335D01*
X156586094Y-119976344D01*
X156524938Y-120204586D01*
X156524936Y-120204596D01*
X156504341Y-120439999D01*
X156504341Y-120440000D01*
X156524936Y-120675403D01*
X156524938Y-120675413D01*
X156586094Y-120903655D01*
X156586096Y-120903659D01*
X156586097Y-120903663D01*
X156655890Y-121053334D01*
X156685965Y-121117830D01*
X156685967Y-121117834D01*
X156821501Y-121311395D01*
X156821506Y-121311402D01*
X156988597Y-121478493D01*
X156988603Y-121478498D01*
X157174158Y-121608425D01*
X157217783Y-121663002D01*
X157224977Y-121732500D01*
X157193454Y-121794855D01*
X157174158Y-121811575D01*
X156988597Y-121941505D01*
X156821505Y-122108597D01*
X156685965Y-122302169D01*
X156685964Y-122302171D01*
X156626158Y-122430426D01*
X156589295Y-122509480D01*
X156586098Y-122516335D01*
X156586094Y-122516344D01*
X156524938Y-122744586D01*
X156524936Y-122744596D01*
X156504341Y-122979999D01*
X156504341Y-122980000D01*
X156524936Y-123215403D01*
X156524938Y-123215413D01*
X156586094Y-123443655D01*
X156586096Y-123443659D01*
X156586097Y-123443663D01*
X156590761Y-123453664D01*
X156685965Y-123657830D01*
X156685967Y-123657834D01*
X156707562Y-123688674D01*
X156821501Y-123851396D01*
X156821506Y-123851402D01*
X156943430Y-123973326D01*
X156976915Y-124034649D01*
X156971931Y-124104341D01*
X156930059Y-124160274D01*
X156899083Y-124177189D01*
X156767669Y-124226203D01*
X156767664Y-124226206D01*
X156652455Y-124312452D01*
X156652452Y-124312455D01*
X156566206Y-124427664D01*
X156566202Y-124427671D01*
X156515908Y-124562517D01*
X156509501Y-124622116D01*
X156509501Y-124622123D01*
X156509500Y-124622135D01*
X156509500Y-126417870D01*
X156509501Y-126417876D01*
X156515908Y-126477483D01*
X156566202Y-126612328D01*
X156566206Y-126612335D01*
X156652452Y-126727544D01*
X156652455Y-126727547D01*
X156767664Y-126813793D01*
X156767671Y-126813797D01*
X156902517Y-126864091D01*
X156902516Y-126864091D01*
X156909444Y-126864835D01*
X156962127Y-126870500D01*
X158757872Y-126870499D01*
X158817483Y-126864091D01*
X158952331Y-126813796D01*
X159067546Y-126727546D01*
X159153796Y-126612331D01*
X159204091Y-126477483D01*
X159210500Y-126417873D01*
X159210499Y-124622128D01*
X159204091Y-124562517D01*
X159184982Y-124511284D01*
X159153797Y-124427671D01*
X159153793Y-124427664D01*
X159067547Y-124312455D01*
X159067544Y-124312452D01*
X158952335Y-124226206D01*
X158952328Y-124226202D01*
X158820917Y-124177189D01*
X158764983Y-124135318D01*
X158740566Y-124069853D01*
X158755418Y-124001580D01*
X158776563Y-123973332D01*
X158898495Y-123851401D01*
X159034035Y-123657830D01*
X159133903Y-123443663D01*
X159195063Y-123215408D01*
X159215659Y-122980000D01*
X159195063Y-122744592D01*
X159136584Y-122526344D01*
X159133905Y-122516344D01*
X159133904Y-122516343D01*
X159133903Y-122516337D01*
X159034035Y-122302171D01*
X158898495Y-122108599D01*
X158898494Y-122108597D01*
X158731402Y-121941506D01*
X158731396Y-121941501D01*
X158545842Y-121811575D01*
X158502217Y-121756998D01*
X158495023Y-121687500D01*
X158526546Y-121625145D01*
X158545842Y-121608425D01*
X158717115Y-121488498D01*
X158731401Y-121478495D01*
X158898495Y-121311401D01*
X159034035Y-121117830D01*
X159133903Y-120903663D01*
X159195063Y-120675408D01*
X159215659Y-120440000D01*
X159195063Y-120204592D01*
X159136584Y-119986344D01*
X159133905Y-119976344D01*
X159133904Y-119976343D01*
X159133903Y-119976337D01*
X159034035Y-119762171D01*
X158905229Y-119578215D01*
X158898494Y-119568597D01*
X158731402Y-119401506D01*
X158731396Y-119401501D01*
X158545842Y-119271575D01*
X158502217Y-119216998D01*
X158495023Y-119147500D01*
X158526546Y-119085145D01*
X158545842Y-119068425D01*
X158717115Y-118948498D01*
X158731401Y-118938495D01*
X158898495Y-118771401D01*
X159034035Y-118577830D01*
X159133903Y-118363663D01*
X159195063Y-118135408D01*
X159215659Y-117900000D01*
X159195063Y-117664592D01*
X159136584Y-117446344D01*
X159133905Y-117436344D01*
X159133904Y-117436343D01*
X159133903Y-117436337D01*
X159034035Y-117222171D01*
X158962563Y-117120097D01*
X158898494Y-117028597D01*
X158731402Y-116861506D01*
X158731396Y-116861501D01*
X158545842Y-116731575D01*
X158502217Y-116676998D01*
X158495023Y-116607500D01*
X158526546Y-116545145D01*
X158545842Y-116528425D01*
X158633446Y-116467084D01*
X158731401Y-116398495D01*
X158898495Y-116231401D01*
X159034035Y-116037830D01*
X159133903Y-115823663D01*
X159195063Y-115595408D01*
X159215659Y-115360000D01*
X159195063Y-115124592D01*
X159136584Y-114906344D01*
X159133905Y-114896344D01*
X159133904Y-114896343D01*
X159133903Y-114896337D01*
X159034035Y-114682171D01*
X158898495Y-114488599D01*
X158898494Y-114488597D01*
X158731402Y-114321506D01*
X158731396Y-114321501D01*
X158545842Y-114191575D01*
X158502217Y-114136998D01*
X158495023Y-114067500D01*
X158526546Y-114005145D01*
X158545842Y-113988425D01*
X158717115Y-113868498D01*
X158731401Y-113858495D01*
X158898495Y-113691401D01*
X159034035Y-113497830D01*
X159133903Y-113283663D01*
X159195063Y-113055408D01*
X159215659Y-112820000D01*
X159195063Y-112584592D01*
X159136584Y-112366344D01*
X159133905Y-112356344D01*
X159133904Y-112356343D01*
X159133903Y-112356337D01*
X159034035Y-112142171D01*
X158898495Y-111948599D01*
X158898494Y-111948597D01*
X158731402Y-111781506D01*
X158731396Y-111781501D01*
X158545842Y-111651575D01*
X158502217Y-111596998D01*
X158495023Y-111527500D01*
X158526546Y-111465145D01*
X158545842Y-111448425D01*
X158717115Y-111328498D01*
X158731401Y-111318495D01*
X158898495Y-111151401D01*
X159034035Y-110957830D01*
X159133903Y-110743663D01*
X159195063Y-110515408D01*
X159215659Y-110280000D01*
X159195063Y-110044592D01*
X159136584Y-109826344D01*
X159133905Y-109816344D01*
X159133904Y-109816343D01*
X159133903Y-109816337D01*
X159034035Y-109602171D01*
X158898495Y-109408599D01*
X158898494Y-109408597D01*
X158731402Y-109241506D01*
X158731396Y-109241501D01*
X158545842Y-109111575D01*
X158502217Y-109056998D01*
X158495023Y-108987500D01*
X158526546Y-108925145D01*
X158545842Y-108908425D01*
X158717115Y-108788498D01*
X158731401Y-108778495D01*
X158898495Y-108611401D01*
X159034035Y-108417830D01*
X159133903Y-108203663D01*
X159195063Y-107975408D01*
X159215659Y-107740000D01*
X159195063Y-107504592D01*
X159136584Y-107286344D01*
X159133905Y-107276344D01*
X159133904Y-107276343D01*
X159133903Y-107276337D01*
X159034035Y-107062171D01*
X158898495Y-106868599D01*
X158898494Y-106868597D01*
X158731402Y-106701506D01*
X158731401Y-106701505D01*
X158560123Y-106581575D01*
X158545405Y-106571269D01*
X158501781Y-106516692D01*
X158494588Y-106447193D01*
X158526110Y-106384839D01*
X158545405Y-106368119D01*
X158731082Y-106238105D01*
X158898105Y-106071082D01*
X159033600Y-105877578D01*
X159133429Y-105663492D01*
X159133432Y-105663486D01*
X159190636Y-105450000D01*
X158293012Y-105450000D01*
X158325925Y-105392993D01*
X158360000Y-105265826D01*
X158360000Y-105134174D01*
X158325925Y-105007007D01*
X158293012Y-104950000D01*
X159190636Y-104950000D01*
X159190635Y-104949999D01*
X159133432Y-104736513D01*
X159133429Y-104736507D01*
X159033600Y-104522422D01*
X159033599Y-104522420D01*
X158898113Y-104328926D01*
X158898108Y-104328920D01*
X158731078Y-104161890D01*
X158545405Y-104031879D01*
X158501780Y-103977302D01*
X158494588Y-103907804D01*
X158526110Y-103845449D01*
X158545406Y-103828730D01*
X158640228Y-103762335D01*
X158731401Y-103698495D01*
X158898495Y-103531401D01*
X159034035Y-103337830D01*
X159133903Y-103123663D01*
X159195063Y-102895408D01*
X159215659Y-102660000D01*
X159195063Y-102424592D01*
X159133903Y-102196337D01*
X159034035Y-101982171D01*
X158898495Y-101788599D01*
X158898494Y-101788597D01*
X158731402Y-101621506D01*
X158731395Y-101621501D01*
X158537834Y-101485967D01*
X158537830Y-101485965D01*
X158487413Y-101462455D01*
X158323663Y-101386097D01*
X158323659Y-101386096D01*
X158323655Y-101386094D01*
X158095413Y-101324938D01*
X158095403Y-101324936D01*
X157860001Y-101304341D01*
X157859999Y-101304341D01*
X157624596Y-101324936D01*
X157624586Y-101324938D01*
X157396344Y-101386094D01*
X157396335Y-101386098D01*
X157182171Y-101485964D01*
X157182169Y-101485965D01*
X156988597Y-101621505D01*
X156821505Y-101788597D01*
X156685965Y-101982169D01*
X156685964Y-101982171D01*
X156592401Y-102182816D01*
X156589295Y-102189480D01*
X156586098Y-102196335D01*
X156586094Y-102196344D01*
X156524938Y-102424586D01*
X156524936Y-102424596D01*
X156504341Y-102659999D01*
X154108500Y-102659999D01*
X154108500Y-93419500D01*
X154128185Y-93352461D01*
X154180989Y-93306706D01*
X154232500Y-93295500D01*
X163083500Y-93295500D01*
X163150539Y-93315185D01*
G37*
%TD.AperFunction*%
M02*
