%TF.GenerationSoftware,KiCad,Pcbnew,8.0.4*%
%TF.CreationDate,2024-08-25T14:17:10+02:00*%
%TF.ProjectId,bus_adapter_30pin,6275735f-6164-4617-9074-65725f333070,rev?*%
%TF.SameCoordinates,Original*%
%TF.FileFunction,Legend,Top*%
%TF.FilePolarity,Positive*%
%FSLAX46Y46*%
G04 Gerber Fmt 4.6, Leading zero omitted, Abs format (unit mm)*
G04 Created by KiCad (PCBNEW 8.0.4) date 2024-08-25 14:17:10*
%MOMM*%
%LPD*%
G01*
G04 APERTURE LIST*
%ADD10C,0.152400*%
%ADD11C,0.300000*%
%ADD12C,0.120000*%
G04 APERTURE END LIST*
D10*
X131152167Y-99617161D02*
X131152167Y-98601161D01*
X131152167Y-98601161D02*
X131394072Y-98601161D01*
X131394072Y-98601161D02*
X131539215Y-98649542D01*
X131539215Y-98649542D02*
X131635977Y-98746304D01*
X131635977Y-98746304D02*
X131684358Y-98843066D01*
X131684358Y-98843066D02*
X131732739Y-99036590D01*
X131732739Y-99036590D02*
X131732739Y-99181733D01*
X131732739Y-99181733D02*
X131684358Y-99375257D01*
X131684358Y-99375257D02*
X131635977Y-99472019D01*
X131635977Y-99472019D02*
X131539215Y-99568781D01*
X131539215Y-99568781D02*
X131394072Y-99617161D01*
X131394072Y-99617161D02*
X131152167Y-99617161D01*
X132700358Y-99617161D02*
X132119786Y-99617161D01*
X132410072Y-99617161D02*
X132410072Y-98601161D01*
X132410072Y-98601161D02*
X132313310Y-98746304D01*
X132313310Y-98746304D02*
X132216548Y-98843066D01*
X132216548Y-98843066D02*
X132119786Y-98891447D01*
X156896881Y-104642735D02*
X156896881Y-103626735D01*
X156896881Y-103626735D02*
X157138786Y-103626735D01*
X157138786Y-103626735D02*
X157283929Y-103675116D01*
X157283929Y-103675116D02*
X157380691Y-103771878D01*
X157380691Y-103771878D02*
X157429072Y-103868640D01*
X157429072Y-103868640D02*
X157477453Y-104062164D01*
X157477453Y-104062164D02*
X157477453Y-104207307D01*
X157477453Y-104207307D02*
X157429072Y-104400831D01*
X157429072Y-104400831D02*
X157380691Y-104497593D01*
X157380691Y-104497593D02*
X157283929Y-104594355D01*
X157283929Y-104594355D02*
X157138786Y-104642735D01*
X157138786Y-104642735D02*
X156896881Y-104642735D01*
X158106405Y-103626735D02*
X158203167Y-103626735D01*
X158203167Y-103626735D02*
X158299929Y-103675116D01*
X158299929Y-103675116D02*
X158348310Y-103723497D01*
X158348310Y-103723497D02*
X158396691Y-103820259D01*
X158396691Y-103820259D02*
X158445072Y-104013783D01*
X158445072Y-104013783D02*
X158445072Y-104255688D01*
X158445072Y-104255688D02*
X158396691Y-104449212D01*
X158396691Y-104449212D02*
X158348310Y-104545974D01*
X158348310Y-104545974D02*
X158299929Y-104594355D01*
X158299929Y-104594355D02*
X158203167Y-104642735D01*
X158203167Y-104642735D02*
X158106405Y-104642735D01*
X158106405Y-104642735D02*
X158009643Y-104594355D01*
X158009643Y-104594355D02*
X157961262Y-104545974D01*
X157961262Y-104545974D02*
X157912881Y-104449212D01*
X157912881Y-104449212D02*
X157864500Y-104255688D01*
X157864500Y-104255688D02*
X157864500Y-104013783D01*
X157864500Y-104013783D02*
X157912881Y-103820259D01*
X157912881Y-103820259D02*
X157961262Y-103723497D01*
X157961262Y-103723497D02*
X158009643Y-103675116D01*
X158009643Y-103675116D02*
X158106405Y-103626735D01*
X154622977Y-109879974D02*
X154574596Y-109928355D01*
X154574596Y-109928355D02*
X154429453Y-109976735D01*
X154429453Y-109976735D02*
X154332691Y-109976735D01*
X154332691Y-109976735D02*
X154187548Y-109928355D01*
X154187548Y-109928355D02*
X154090786Y-109831593D01*
X154090786Y-109831593D02*
X154042405Y-109734831D01*
X154042405Y-109734831D02*
X153994024Y-109541307D01*
X153994024Y-109541307D02*
X153994024Y-109396164D01*
X153994024Y-109396164D02*
X154042405Y-109202640D01*
X154042405Y-109202640D02*
X154090786Y-109105878D01*
X154090786Y-109105878D02*
X154187548Y-109009116D01*
X154187548Y-109009116D02*
X154332691Y-108960735D01*
X154332691Y-108960735D02*
X154429453Y-108960735D01*
X154429453Y-108960735D02*
X154574596Y-109009116D01*
X154574596Y-109009116D02*
X154622977Y-109057497D01*
X155010024Y-109928355D02*
X155155167Y-109976735D01*
X155155167Y-109976735D02*
X155397072Y-109976735D01*
X155397072Y-109976735D02*
X155493834Y-109928355D01*
X155493834Y-109928355D02*
X155542215Y-109879974D01*
X155542215Y-109879974D02*
X155590596Y-109783212D01*
X155590596Y-109783212D02*
X155590596Y-109686450D01*
X155590596Y-109686450D02*
X155542215Y-109589688D01*
X155542215Y-109589688D02*
X155493834Y-109541307D01*
X155493834Y-109541307D02*
X155397072Y-109492926D01*
X155397072Y-109492926D02*
X155203548Y-109444545D01*
X155203548Y-109444545D02*
X155106786Y-109396164D01*
X155106786Y-109396164D02*
X155058405Y-109347783D01*
X155058405Y-109347783D02*
X155010024Y-109251021D01*
X155010024Y-109251021D02*
X155010024Y-109154259D01*
X155010024Y-109154259D02*
X155058405Y-109057497D01*
X155058405Y-109057497D02*
X155106786Y-109009116D01*
X155106786Y-109009116D02*
X155203548Y-108960735D01*
X155203548Y-108960735D02*
X155445453Y-108960735D01*
X155445453Y-108960735D02*
X155590596Y-109009116D01*
X155977643Y-109299402D02*
X156703358Y-109299402D01*
X156267929Y-108863974D02*
X155977643Y-110170259D01*
X156606596Y-109734831D02*
X155880881Y-109734831D01*
X156316310Y-110170259D02*
X156606596Y-108863974D01*
X156993643Y-109686450D02*
X157477453Y-109686450D01*
X156896881Y-109976735D02*
X157235548Y-108960735D01*
X157235548Y-108960735D02*
X157574215Y-109976735D01*
X158106405Y-108960735D02*
X158203167Y-108960735D01*
X158203167Y-108960735D02*
X158299929Y-109009116D01*
X158299929Y-109009116D02*
X158348310Y-109057497D01*
X158348310Y-109057497D02*
X158396691Y-109154259D01*
X158396691Y-109154259D02*
X158445072Y-109347783D01*
X158445072Y-109347783D02*
X158445072Y-109589688D01*
X158445072Y-109589688D02*
X158396691Y-109783212D01*
X158396691Y-109783212D02*
X158348310Y-109879974D01*
X158348310Y-109879974D02*
X158299929Y-109928355D01*
X158299929Y-109928355D02*
X158203167Y-109976735D01*
X158203167Y-109976735D02*
X158106405Y-109976735D01*
X158106405Y-109976735D02*
X158009643Y-109928355D01*
X158009643Y-109928355D02*
X157961262Y-109879974D01*
X157961262Y-109879974D02*
X157912881Y-109783212D01*
X157912881Y-109783212D02*
X157864500Y-109589688D01*
X157864500Y-109589688D02*
X157864500Y-109347783D01*
X157864500Y-109347783D02*
X157912881Y-109154259D01*
X157912881Y-109154259D02*
X157961262Y-109057497D01*
X157961262Y-109057497D02*
X158009643Y-109009116D01*
X158009643Y-109009116D02*
X158106405Y-108960735D01*
X156316310Y-119423116D02*
X156219548Y-119374735D01*
X156219548Y-119374735D02*
X156074405Y-119374735D01*
X156074405Y-119374735D02*
X155929262Y-119423116D01*
X155929262Y-119423116D02*
X155832500Y-119519878D01*
X155832500Y-119519878D02*
X155784119Y-119616640D01*
X155784119Y-119616640D02*
X155735738Y-119810164D01*
X155735738Y-119810164D02*
X155735738Y-119955307D01*
X155735738Y-119955307D02*
X155784119Y-120148831D01*
X155784119Y-120148831D02*
X155832500Y-120245593D01*
X155832500Y-120245593D02*
X155929262Y-120342355D01*
X155929262Y-120342355D02*
X156074405Y-120390735D01*
X156074405Y-120390735D02*
X156171167Y-120390735D01*
X156171167Y-120390735D02*
X156316310Y-120342355D01*
X156316310Y-120342355D02*
X156364691Y-120293974D01*
X156364691Y-120293974D02*
X156364691Y-119955307D01*
X156364691Y-119955307D02*
X156171167Y-119955307D01*
X156800119Y-120390735D02*
X156800119Y-119374735D01*
X156800119Y-119374735D02*
X157380691Y-120390735D01*
X157380691Y-120390735D02*
X157380691Y-119374735D01*
X157864500Y-120390735D02*
X157864500Y-119374735D01*
X157864500Y-119374735D02*
X158106405Y-119374735D01*
X158106405Y-119374735D02*
X158251548Y-119423116D01*
X158251548Y-119423116D02*
X158348310Y-119519878D01*
X158348310Y-119519878D02*
X158396691Y-119616640D01*
X158396691Y-119616640D02*
X158445072Y-119810164D01*
X158445072Y-119810164D02*
X158445072Y-119955307D01*
X158445072Y-119955307D02*
X158396691Y-120148831D01*
X158396691Y-120148831D02*
X158348310Y-120245593D01*
X158348310Y-120245593D02*
X158251548Y-120342355D01*
X158251548Y-120342355D02*
X158106405Y-120390735D01*
X158106405Y-120390735D02*
X157864500Y-120390735D01*
X131684358Y-85904187D02*
X131587596Y-85855806D01*
X131587596Y-85855806D02*
X131442453Y-85855806D01*
X131442453Y-85855806D02*
X131297310Y-85904187D01*
X131297310Y-85904187D02*
X131200548Y-86000949D01*
X131200548Y-86000949D02*
X131152167Y-86097711D01*
X131152167Y-86097711D02*
X131103786Y-86291235D01*
X131103786Y-86291235D02*
X131103786Y-86436378D01*
X131103786Y-86436378D02*
X131152167Y-86629902D01*
X131152167Y-86629902D02*
X131200548Y-86726664D01*
X131200548Y-86726664D02*
X131297310Y-86823426D01*
X131297310Y-86823426D02*
X131442453Y-86871806D01*
X131442453Y-86871806D02*
X131539215Y-86871806D01*
X131539215Y-86871806D02*
X131684358Y-86823426D01*
X131684358Y-86823426D02*
X131732739Y-86775045D01*
X131732739Y-86775045D02*
X131732739Y-86436378D01*
X131732739Y-86436378D02*
X131539215Y-86436378D01*
X132168167Y-86871806D02*
X132168167Y-85855806D01*
X132168167Y-85855806D02*
X132748739Y-86871806D01*
X132748739Y-86871806D02*
X132748739Y-85855806D01*
X133232548Y-86871806D02*
X133232548Y-85855806D01*
X133232548Y-85855806D02*
X133474453Y-85855806D01*
X133474453Y-85855806D02*
X133619596Y-85904187D01*
X133619596Y-85904187D02*
X133716358Y-86000949D01*
X133716358Y-86000949D02*
X133764739Y-86097711D01*
X133764739Y-86097711D02*
X133813120Y-86291235D01*
X133813120Y-86291235D02*
X133813120Y-86436378D01*
X133813120Y-86436378D02*
X133764739Y-86629902D01*
X133764739Y-86629902D02*
X133716358Y-86726664D01*
X133716358Y-86726664D02*
X133619596Y-86823426D01*
X133619596Y-86823426D02*
X133474453Y-86871806D01*
X133474453Y-86871806D02*
X133232548Y-86871806D01*
X131152167Y-102166232D02*
X131152167Y-101150232D01*
X131152167Y-101150232D02*
X131394072Y-101150232D01*
X131394072Y-101150232D02*
X131539215Y-101198613D01*
X131539215Y-101198613D02*
X131635977Y-101295375D01*
X131635977Y-101295375D02*
X131684358Y-101392137D01*
X131684358Y-101392137D02*
X131732739Y-101585661D01*
X131732739Y-101585661D02*
X131732739Y-101730804D01*
X131732739Y-101730804D02*
X131684358Y-101924328D01*
X131684358Y-101924328D02*
X131635977Y-102021090D01*
X131635977Y-102021090D02*
X131539215Y-102117852D01*
X131539215Y-102117852D02*
X131394072Y-102166232D01*
X131394072Y-102166232D02*
X131152167Y-102166232D01*
X132071405Y-101150232D02*
X132700358Y-101150232D01*
X132700358Y-101150232D02*
X132361691Y-101537280D01*
X132361691Y-101537280D02*
X132506834Y-101537280D01*
X132506834Y-101537280D02*
X132603596Y-101585661D01*
X132603596Y-101585661D02*
X132651977Y-101634042D01*
X132651977Y-101634042D02*
X132700358Y-101730804D01*
X132700358Y-101730804D02*
X132700358Y-101972709D01*
X132700358Y-101972709D02*
X132651977Y-102069471D01*
X132651977Y-102069471D02*
X132603596Y-102117852D01*
X132603596Y-102117852D02*
X132506834Y-102166232D01*
X132506834Y-102166232D02*
X132216548Y-102166232D01*
X132216548Y-102166232D02*
X132119786Y-102117852D01*
X132119786Y-102117852D02*
X132071405Y-102069471D01*
X154622977Y-107212974D02*
X154574596Y-107261355D01*
X154574596Y-107261355D02*
X154429453Y-107309735D01*
X154429453Y-107309735D02*
X154332691Y-107309735D01*
X154332691Y-107309735D02*
X154187548Y-107261355D01*
X154187548Y-107261355D02*
X154090786Y-107164593D01*
X154090786Y-107164593D02*
X154042405Y-107067831D01*
X154042405Y-107067831D02*
X153994024Y-106874307D01*
X153994024Y-106874307D02*
X153994024Y-106729164D01*
X153994024Y-106729164D02*
X154042405Y-106535640D01*
X154042405Y-106535640D02*
X154090786Y-106438878D01*
X154090786Y-106438878D02*
X154187548Y-106342116D01*
X154187548Y-106342116D02*
X154332691Y-106293735D01*
X154332691Y-106293735D02*
X154429453Y-106293735D01*
X154429453Y-106293735D02*
X154574596Y-106342116D01*
X154574596Y-106342116D02*
X154622977Y-106390497D01*
X155010024Y-107261355D02*
X155155167Y-107309735D01*
X155155167Y-107309735D02*
X155397072Y-107309735D01*
X155397072Y-107309735D02*
X155493834Y-107261355D01*
X155493834Y-107261355D02*
X155542215Y-107212974D01*
X155542215Y-107212974D02*
X155590596Y-107116212D01*
X155590596Y-107116212D02*
X155590596Y-107019450D01*
X155590596Y-107019450D02*
X155542215Y-106922688D01*
X155542215Y-106922688D02*
X155493834Y-106874307D01*
X155493834Y-106874307D02*
X155397072Y-106825926D01*
X155397072Y-106825926D02*
X155203548Y-106777545D01*
X155203548Y-106777545D02*
X155106786Y-106729164D01*
X155106786Y-106729164D02*
X155058405Y-106680783D01*
X155058405Y-106680783D02*
X155010024Y-106584021D01*
X155010024Y-106584021D02*
X155010024Y-106487259D01*
X155010024Y-106487259D02*
X155058405Y-106390497D01*
X155058405Y-106390497D02*
X155106786Y-106342116D01*
X155106786Y-106342116D02*
X155203548Y-106293735D01*
X155203548Y-106293735D02*
X155445453Y-106293735D01*
X155445453Y-106293735D02*
X155590596Y-106342116D01*
X155977643Y-106632402D02*
X156703358Y-106632402D01*
X156267929Y-106196974D02*
X155977643Y-107503259D01*
X156606596Y-107067831D02*
X155880881Y-107067831D01*
X156316310Y-107503259D02*
X156606596Y-106196974D01*
X156993643Y-107019450D02*
X157477453Y-107019450D01*
X156896881Y-107309735D02*
X157235548Y-106293735D01*
X157235548Y-106293735D02*
X157574215Y-107309735D01*
X158445072Y-107309735D02*
X157864500Y-107309735D01*
X158154786Y-107309735D02*
X158154786Y-106293735D01*
X158154786Y-106293735D02*
X158058024Y-106438878D01*
X158058024Y-106438878D02*
X157961262Y-106535640D01*
X157961262Y-106535640D02*
X157864500Y-106584021D01*
X131152167Y-89033830D02*
X131926263Y-89033830D01*
X131539215Y-89420877D02*
X131539215Y-88646782D01*
X132893882Y-88404877D02*
X132410072Y-88404877D01*
X132410072Y-88404877D02*
X132361691Y-88888687D01*
X132361691Y-88888687D02*
X132410072Y-88840306D01*
X132410072Y-88840306D02*
X132506834Y-88791925D01*
X132506834Y-88791925D02*
X132748739Y-88791925D01*
X132748739Y-88791925D02*
X132845501Y-88840306D01*
X132845501Y-88840306D02*
X132893882Y-88888687D01*
X132893882Y-88888687D02*
X132942263Y-88985449D01*
X132942263Y-88985449D02*
X132942263Y-89227354D01*
X132942263Y-89227354D02*
X132893882Y-89324116D01*
X132893882Y-89324116D02*
X132845501Y-89372497D01*
X132845501Y-89372497D02*
X132748739Y-89420877D01*
X132748739Y-89420877D02*
X132506834Y-89420877D01*
X132506834Y-89420877D02*
X132410072Y-89372497D01*
X132410072Y-89372497D02*
X132361691Y-89324116D01*
X133232548Y-88404877D02*
X133571215Y-89420877D01*
X133571215Y-89420877D02*
X133909882Y-88404877D01*
X131684358Y-119042116D02*
X131587596Y-118993735D01*
X131587596Y-118993735D02*
X131442453Y-118993735D01*
X131442453Y-118993735D02*
X131297310Y-119042116D01*
X131297310Y-119042116D02*
X131200548Y-119138878D01*
X131200548Y-119138878D02*
X131152167Y-119235640D01*
X131152167Y-119235640D02*
X131103786Y-119429164D01*
X131103786Y-119429164D02*
X131103786Y-119574307D01*
X131103786Y-119574307D02*
X131152167Y-119767831D01*
X131152167Y-119767831D02*
X131200548Y-119864593D01*
X131200548Y-119864593D02*
X131297310Y-119961355D01*
X131297310Y-119961355D02*
X131442453Y-120009735D01*
X131442453Y-120009735D02*
X131539215Y-120009735D01*
X131539215Y-120009735D02*
X131684358Y-119961355D01*
X131684358Y-119961355D02*
X131732739Y-119912974D01*
X131732739Y-119912974D02*
X131732739Y-119574307D01*
X131732739Y-119574307D02*
X131539215Y-119574307D01*
X132168167Y-120009735D02*
X132168167Y-118993735D01*
X132168167Y-118993735D02*
X132748739Y-120009735D01*
X132748739Y-120009735D02*
X132748739Y-118993735D01*
X133232548Y-120009735D02*
X133232548Y-118993735D01*
X133232548Y-118993735D02*
X133474453Y-118993735D01*
X133474453Y-118993735D02*
X133619596Y-119042116D01*
X133619596Y-119042116D02*
X133716358Y-119138878D01*
X133716358Y-119138878D02*
X133764739Y-119235640D01*
X133764739Y-119235640D02*
X133813120Y-119429164D01*
X133813120Y-119429164D02*
X133813120Y-119574307D01*
X133813120Y-119574307D02*
X133764739Y-119767831D01*
X133764739Y-119767831D02*
X133716358Y-119864593D01*
X133716358Y-119864593D02*
X133619596Y-119961355D01*
X133619596Y-119961355D02*
X133474453Y-120009735D01*
X133474453Y-120009735D02*
X133232548Y-120009735D01*
X131152167Y-109813445D02*
X131152167Y-108797445D01*
X131152167Y-108797445D02*
X131394072Y-108797445D01*
X131394072Y-108797445D02*
X131539215Y-108845826D01*
X131539215Y-108845826D02*
X131635977Y-108942588D01*
X131635977Y-108942588D02*
X131684358Y-109039350D01*
X131684358Y-109039350D02*
X131732739Y-109232874D01*
X131732739Y-109232874D02*
X131732739Y-109378017D01*
X131732739Y-109378017D02*
X131684358Y-109571541D01*
X131684358Y-109571541D02*
X131635977Y-109668303D01*
X131635977Y-109668303D02*
X131539215Y-109765065D01*
X131539215Y-109765065D02*
X131394072Y-109813445D01*
X131394072Y-109813445D02*
X131152167Y-109813445D01*
X132216548Y-109813445D02*
X132410072Y-109813445D01*
X132410072Y-109813445D02*
X132506834Y-109765065D01*
X132506834Y-109765065D02*
X132555215Y-109716684D01*
X132555215Y-109716684D02*
X132651977Y-109571541D01*
X132651977Y-109571541D02*
X132700358Y-109378017D01*
X132700358Y-109378017D02*
X132700358Y-108990969D01*
X132700358Y-108990969D02*
X132651977Y-108894207D01*
X132651977Y-108894207D02*
X132603596Y-108845826D01*
X132603596Y-108845826D02*
X132506834Y-108797445D01*
X132506834Y-108797445D02*
X132313310Y-108797445D01*
X132313310Y-108797445D02*
X132216548Y-108845826D01*
X132216548Y-108845826D02*
X132168167Y-108894207D01*
X132168167Y-108894207D02*
X132119786Y-108990969D01*
X132119786Y-108990969D02*
X132119786Y-109232874D01*
X132119786Y-109232874D02*
X132168167Y-109329636D01*
X132168167Y-109329636D02*
X132216548Y-109378017D01*
X132216548Y-109378017D02*
X132313310Y-109426398D01*
X132313310Y-109426398D02*
X132506834Y-109426398D01*
X132506834Y-109426398D02*
X132603596Y-109378017D01*
X132603596Y-109378017D02*
X132651977Y-109329636D01*
X132651977Y-109329636D02*
X132700358Y-109232874D01*
X156896881Y-97022735D02*
X156896881Y-96006735D01*
X156896881Y-96006735D02*
X157138786Y-96006735D01*
X157138786Y-96006735D02*
X157283929Y-96055116D01*
X157283929Y-96055116D02*
X157380691Y-96151878D01*
X157380691Y-96151878D02*
X157429072Y-96248640D01*
X157429072Y-96248640D02*
X157477453Y-96442164D01*
X157477453Y-96442164D02*
X157477453Y-96587307D01*
X157477453Y-96587307D02*
X157429072Y-96780831D01*
X157429072Y-96780831D02*
X157380691Y-96877593D01*
X157380691Y-96877593D02*
X157283929Y-96974355D01*
X157283929Y-96974355D02*
X157138786Y-97022735D01*
X157138786Y-97022735D02*
X156896881Y-97022735D01*
X158348310Y-96006735D02*
X158154786Y-96006735D01*
X158154786Y-96006735D02*
X158058024Y-96055116D01*
X158058024Y-96055116D02*
X158009643Y-96103497D01*
X158009643Y-96103497D02*
X157912881Y-96248640D01*
X157912881Y-96248640D02*
X157864500Y-96442164D01*
X157864500Y-96442164D02*
X157864500Y-96829212D01*
X157864500Y-96829212D02*
X157912881Y-96925974D01*
X157912881Y-96925974D02*
X157961262Y-96974355D01*
X157961262Y-96974355D02*
X158058024Y-97022735D01*
X158058024Y-97022735D02*
X158251548Y-97022735D01*
X158251548Y-97022735D02*
X158348310Y-96974355D01*
X158348310Y-96974355D02*
X158396691Y-96925974D01*
X158396691Y-96925974D02*
X158445072Y-96829212D01*
X158445072Y-96829212D02*
X158445072Y-96587307D01*
X158445072Y-96587307D02*
X158396691Y-96490545D01*
X158396691Y-96490545D02*
X158348310Y-96442164D01*
X158348310Y-96442164D02*
X158251548Y-96393783D01*
X158251548Y-96393783D02*
X158058024Y-96393783D01*
X158058024Y-96393783D02*
X157961262Y-96442164D01*
X157961262Y-96442164D02*
X157912881Y-96490545D01*
X157912881Y-96490545D02*
X157864500Y-96587307D01*
X131055405Y-83306735D02*
X131732739Y-84322735D01*
X131732739Y-83306735D02*
X131055405Y-84322735D01*
X155929262Y-89402735D02*
X155929262Y-88386735D01*
X155929262Y-88386735D02*
X156171167Y-88386735D01*
X156171167Y-88386735D02*
X156316310Y-88435116D01*
X156316310Y-88435116D02*
X156413072Y-88531878D01*
X156413072Y-88531878D02*
X156461453Y-88628640D01*
X156461453Y-88628640D02*
X156509834Y-88822164D01*
X156509834Y-88822164D02*
X156509834Y-88967307D01*
X156509834Y-88967307D02*
X156461453Y-89160831D01*
X156461453Y-89160831D02*
X156413072Y-89257593D01*
X156413072Y-89257593D02*
X156316310Y-89354355D01*
X156316310Y-89354355D02*
X156171167Y-89402735D01*
X156171167Y-89402735D02*
X155929262Y-89402735D01*
X157477453Y-89402735D02*
X156896881Y-89402735D01*
X157187167Y-89402735D02*
X157187167Y-88386735D01*
X157187167Y-88386735D02*
X157090405Y-88531878D01*
X157090405Y-88531878D02*
X156993643Y-88628640D01*
X156993643Y-88628640D02*
X156896881Y-88677021D01*
X157864500Y-88483497D02*
X157912881Y-88435116D01*
X157912881Y-88435116D02*
X158009643Y-88386735D01*
X158009643Y-88386735D02*
X158251548Y-88386735D01*
X158251548Y-88386735D02*
X158348310Y-88435116D01*
X158348310Y-88435116D02*
X158396691Y-88483497D01*
X158396691Y-88483497D02*
X158445072Y-88580259D01*
X158445072Y-88580259D02*
X158445072Y-88677021D01*
X158445072Y-88677021D02*
X158396691Y-88822164D01*
X158396691Y-88822164D02*
X157816119Y-89402735D01*
X157816119Y-89402735D02*
X158445072Y-89402735D01*
X156316310Y-83355116D02*
X156219548Y-83306735D01*
X156219548Y-83306735D02*
X156074405Y-83306735D01*
X156074405Y-83306735D02*
X155929262Y-83355116D01*
X155929262Y-83355116D02*
X155832500Y-83451878D01*
X155832500Y-83451878D02*
X155784119Y-83548640D01*
X155784119Y-83548640D02*
X155735738Y-83742164D01*
X155735738Y-83742164D02*
X155735738Y-83887307D01*
X155735738Y-83887307D02*
X155784119Y-84080831D01*
X155784119Y-84080831D02*
X155832500Y-84177593D01*
X155832500Y-84177593D02*
X155929262Y-84274355D01*
X155929262Y-84274355D02*
X156074405Y-84322735D01*
X156074405Y-84322735D02*
X156171167Y-84322735D01*
X156171167Y-84322735D02*
X156316310Y-84274355D01*
X156316310Y-84274355D02*
X156364691Y-84225974D01*
X156364691Y-84225974D02*
X156364691Y-83887307D01*
X156364691Y-83887307D02*
X156171167Y-83887307D01*
X156800119Y-84322735D02*
X156800119Y-83306735D01*
X156800119Y-83306735D02*
X157380691Y-84322735D01*
X157380691Y-84322735D02*
X157380691Y-83306735D01*
X157864500Y-84322735D02*
X157864500Y-83306735D01*
X157864500Y-83306735D02*
X158106405Y-83306735D01*
X158106405Y-83306735D02*
X158251548Y-83355116D01*
X158251548Y-83355116D02*
X158348310Y-83451878D01*
X158348310Y-83451878D02*
X158396691Y-83548640D01*
X158396691Y-83548640D02*
X158445072Y-83742164D01*
X158445072Y-83742164D02*
X158445072Y-83887307D01*
X158445072Y-83887307D02*
X158396691Y-84080831D01*
X158396691Y-84080831D02*
X158348310Y-84177593D01*
X158348310Y-84177593D02*
X158251548Y-84274355D01*
X158251548Y-84274355D02*
X158106405Y-84322735D01*
X158106405Y-84322735D02*
X157864500Y-84322735D01*
X156896881Y-99689735D02*
X156896881Y-98673735D01*
X156896881Y-98673735D02*
X157138786Y-98673735D01*
X157138786Y-98673735D02*
X157283929Y-98722116D01*
X157283929Y-98722116D02*
X157380691Y-98818878D01*
X157380691Y-98818878D02*
X157429072Y-98915640D01*
X157429072Y-98915640D02*
X157477453Y-99109164D01*
X157477453Y-99109164D02*
X157477453Y-99254307D01*
X157477453Y-99254307D02*
X157429072Y-99447831D01*
X157429072Y-99447831D02*
X157380691Y-99544593D01*
X157380691Y-99544593D02*
X157283929Y-99641355D01*
X157283929Y-99641355D02*
X157138786Y-99689735D01*
X157138786Y-99689735D02*
X156896881Y-99689735D01*
X158348310Y-99012402D02*
X158348310Y-99689735D01*
X158106405Y-98625355D02*
X157864500Y-99351069D01*
X157864500Y-99351069D02*
X158493453Y-99351069D01*
X131152167Y-91969948D02*
X131152167Y-90953948D01*
X131635977Y-91969948D02*
X131635977Y-90953948D01*
X131635977Y-90953948D02*
X132216549Y-91969948D01*
X132216549Y-91969948D02*
X132216549Y-90953948D01*
X132555215Y-90953948D02*
X133135787Y-90953948D01*
X132845501Y-91969948D02*
X132845501Y-90953948D01*
X156509834Y-115183735D02*
X156171167Y-114699926D01*
X155929262Y-115183735D02*
X155929262Y-114167735D01*
X155929262Y-114167735D02*
X156316310Y-114167735D01*
X156316310Y-114167735D02*
X156413072Y-114216116D01*
X156413072Y-114216116D02*
X156461453Y-114264497D01*
X156461453Y-114264497D02*
X156509834Y-114361259D01*
X156509834Y-114361259D02*
X156509834Y-114506402D01*
X156509834Y-114506402D02*
X156461453Y-114603164D01*
X156461453Y-114603164D02*
X156413072Y-114651545D01*
X156413072Y-114651545D02*
X156316310Y-114699926D01*
X156316310Y-114699926D02*
X155929262Y-114699926D01*
X156945262Y-114651545D02*
X157283929Y-114651545D01*
X157429072Y-115183735D02*
X156945262Y-115183735D01*
X156945262Y-115183735D02*
X156945262Y-114167735D01*
X156945262Y-114167735D02*
X157429072Y-114167735D01*
X157816119Y-114506402D02*
X158541834Y-114506402D01*
X158106405Y-114070974D02*
X157816119Y-115377259D01*
X158445072Y-114941831D02*
X157719357Y-114941831D01*
X158154786Y-115377259D02*
X158445072Y-114070974D01*
X131152167Y-117460658D02*
X131152167Y-116444658D01*
X131152167Y-116444658D02*
X131394072Y-116444658D01*
X131394072Y-116444658D02*
X131539215Y-116493039D01*
X131539215Y-116493039D02*
X131635977Y-116589801D01*
X131635977Y-116589801D02*
X131684358Y-116686563D01*
X131684358Y-116686563D02*
X131732739Y-116880087D01*
X131732739Y-116880087D02*
X131732739Y-117025230D01*
X131732739Y-117025230D02*
X131684358Y-117218754D01*
X131684358Y-117218754D02*
X131635977Y-117315516D01*
X131635977Y-117315516D02*
X131539215Y-117412278D01*
X131539215Y-117412278D02*
X131394072Y-117460658D01*
X131394072Y-117460658D02*
X131152167Y-117460658D01*
X132700358Y-117460658D02*
X132119786Y-117460658D01*
X132410072Y-117460658D02*
X132410072Y-116444658D01*
X132410072Y-116444658D02*
X132313310Y-116589801D01*
X132313310Y-116589801D02*
X132216548Y-116686563D01*
X132216548Y-116686563D02*
X132119786Y-116734944D01*
X133619596Y-116444658D02*
X133135786Y-116444658D01*
X133135786Y-116444658D02*
X133087405Y-116928468D01*
X133087405Y-116928468D02*
X133135786Y-116880087D01*
X133135786Y-116880087D02*
X133232548Y-116831706D01*
X133232548Y-116831706D02*
X133474453Y-116831706D01*
X133474453Y-116831706D02*
X133571215Y-116880087D01*
X133571215Y-116880087D02*
X133619596Y-116928468D01*
X133619596Y-116928468D02*
X133667977Y-117025230D01*
X133667977Y-117025230D02*
X133667977Y-117267135D01*
X133667977Y-117267135D02*
X133619596Y-117363897D01*
X133619596Y-117363897D02*
X133571215Y-117412278D01*
X133571215Y-117412278D02*
X133474453Y-117460658D01*
X133474453Y-117460658D02*
X133232548Y-117460658D01*
X133232548Y-117460658D02*
X133135786Y-117412278D01*
X133135786Y-117412278D02*
X133087405Y-117363897D01*
X156896881Y-102229735D02*
X156896881Y-101213735D01*
X156896881Y-101213735D02*
X157138786Y-101213735D01*
X157138786Y-101213735D02*
X157283929Y-101262116D01*
X157283929Y-101262116D02*
X157380691Y-101358878D01*
X157380691Y-101358878D02*
X157429072Y-101455640D01*
X157429072Y-101455640D02*
X157477453Y-101649164D01*
X157477453Y-101649164D02*
X157477453Y-101794307D01*
X157477453Y-101794307D02*
X157429072Y-101987831D01*
X157429072Y-101987831D02*
X157380691Y-102084593D01*
X157380691Y-102084593D02*
X157283929Y-102181355D01*
X157283929Y-102181355D02*
X157138786Y-102229735D01*
X157138786Y-102229735D02*
X156896881Y-102229735D01*
X157864500Y-101310497D02*
X157912881Y-101262116D01*
X157912881Y-101262116D02*
X158009643Y-101213735D01*
X158009643Y-101213735D02*
X158251548Y-101213735D01*
X158251548Y-101213735D02*
X158348310Y-101262116D01*
X158348310Y-101262116D02*
X158396691Y-101310497D01*
X158396691Y-101310497D02*
X158445072Y-101407259D01*
X158445072Y-101407259D02*
X158445072Y-101504021D01*
X158445072Y-101504021D02*
X158396691Y-101649164D01*
X158396691Y-101649164D02*
X157816119Y-102229735D01*
X157816119Y-102229735D02*
X158445072Y-102229735D01*
X154816500Y-117463688D02*
X155590596Y-117463688D01*
X155203548Y-117850735D02*
X155203548Y-117076640D01*
X155977643Y-116834735D02*
X156606596Y-116834735D01*
X156606596Y-116834735D02*
X156267929Y-117221783D01*
X156267929Y-117221783D02*
X156413072Y-117221783D01*
X156413072Y-117221783D02*
X156509834Y-117270164D01*
X156509834Y-117270164D02*
X156558215Y-117318545D01*
X156558215Y-117318545D02*
X156606596Y-117415307D01*
X156606596Y-117415307D02*
X156606596Y-117657212D01*
X156606596Y-117657212D02*
X156558215Y-117753974D01*
X156558215Y-117753974D02*
X156509834Y-117802355D01*
X156509834Y-117802355D02*
X156413072Y-117850735D01*
X156413072Y-117850735D02*
X156122786Y-117850735D01*
X156122786Y-117850735D02*
X156026024Y-117802355D01*
X156026024Y-117802355D02*
X155977643Y-117753974D01*
X156896881Y-116834735D02*
X157235548Y-117850735D01*
X157235548Y-117850735D02*
X157574215Y-116834735D01*
X157816119Y-116834735D02*
X158445072Y-116834735D01*
X158445072Y-116834735D02*
X158106405Y-117221783D01*
X158106405Y-117221783D02*
X158251548Y-117221783D01*
X158251548Y-117221783D02*
X158348310Y-117270164D01*
X158348310Y-117270164D02*
X158396691Y-117318545D01*
X158396691Y-117318545D02*
X158445072Y-117415307D01*
X158445072Y-117415307D02*
X158445072Y-117657212D01*
X158445072Y-117657212D02*
X158396691Y-117753974D01*
X158396691Y-117753974D02*
X158348310Y-117802355D01*
X158348310Y-117802355D02*
X158251548Y-117850735D01*
X158251548Y-117850735D02*
X157961262Y-117850735D01*
X157961262Y-117850735D02*
X157864500Y-117802355D01*
X157864500Y-117802355D02*
X157816119Y-117753974D01*
X155929262Y-86862735D02*
X155929262Y-85846735D01*
X155929262Y-85846735D02*
X156171167Y-85846735D01*
X156171167Y-85846735D02*
X156316310Y-85895116D01*
X156316310Y-85895116D02*
X156413072Y-85991878D01*
X156413072Y-85991878D02*
X156461453Y-86088640D01*
X156461453Y-86088640D02*
X156509834Y-86282164D01*
X156509834Y-86282164D02*
X156509834Y-86427307D01*
X156509834Y-86427307D02*
X156461453Y-86620831D01*
X156461453Y-86620831D02*
X156413072Y-86717593D01*
X156413072Y-86717593D02*
X156316310Y-86814355D01*
X156316310Y-86814355D02*
X156171167Y-86862735D01*
X156171167Y-86862735D02*
X155929262Y-86862735D01*
X157477453Y-86862735D02*
X156896881Y-86862735D01*
X157187167Y-86862735D02*
X157187167Y-85846735D01*
X157187167Y-85846735D02*
X157090405Y-85991878D01*
X157090405Y-85991878D02*
X156993643Y-86088640D01*
X156993643Y-86088640D02*
X156896881Y-86137021D01*
X158348310Y-86185402D02*
X158348310Y-86862735D01*
X158106405Y-85798355D02*
X157864500Y-86524069D01*
X157864500Y-86524069D02*
X158493453Y-86524069D01*
X156896881Y-94482735D02*
X156896881Y-93466735D01*
X156896881Y-93466735D02*
X157138786Y-93466735D01*
X157138786Y-93466735D02*
X157283929Y-93515116D01*
X157283929Y-93515116D02*
X157380691Y-93611878D01*
X157380691Y-93611878D02*
X157429072Y-93708640D01*
X157429072Y-93708640D02*
X157477453Y-93902164D01*
X157477453Y-93902164D02*
X157477453Y-94047307D01*
X157477453Y-94047307D02*
X157429072Y-94240831D01*
X157429072Y-94240831D02*
X157380691Y-94337593D01*
X157380691Y-94337593D02*
X157283929Y-94434355D01*
X157283929Y-94434355D02*
X157138786Y-94482735D01*
X157138786Y-94482735D02*
X156896881Y-94482735D01*
X158058024Y-93902164D02*
X157961262Y-93853783D01*
X157961262Y-93853783D02*
X157912881Y-93805402D01*
X157912881Y-93805402D02*
X157864500Y-93708640D01*
X157864500Y-93708640D02*
X157864500Y-93660259D01*
X157864500Y-93660259D02*
X157912881Y-93563497D01*
X157912881Y-93563497D02*
X157961262Y-93515116D01*
X157961262Y-93515116D02*
X158058024Y-93466735D01*
X158058024Y-93466735D02*
X158251548Y-93466735D01*
X158251548Y-93466735D02*
X158348310Y-93515116D01*
X158348310Y-93515116D02*
X158396691Y-93563497D01*
X158396691Y-93563497D02*
X158445072Y-93660259D01*
X158445072Y-93660259D02*
X158445072Y-93708640D01*
X158445072Y-93708640D02*
X158396691Y-93805402D01*
X158396691Y-93805402D02*
X158348310Y-93853783D01*
X158348310Y-93853783D02*
X158251548Y-93902164D01*
X158251548Y-93902164D02*
X158058024Y-93902164D01*
X158058024Y-93902164D02*
X157961262Y-93950545D01*
X157961262Y-93950545D02*
X157912881Y-93998926D01*
X157912881Y-93998926D02*
X157864500Y-94095688D01*
X157864500Y-94095688D02*
X157864500Y-94289212D01*
X157864500Y-94289212D02*
X157912881Y-94385974D01*
X157912881Y-94385974D02*
X157961262Y-94434355D01*
X157961262Y-94434355D02*
X158058024Y-94482735D01*
X158058024Y-94482735D02*
X158251548Y-94482735D01*
X158251548Y-94482735D02*
X158348310Y-94434355D01*
X158348310Y-94434355D02*
X158396691Y-94385974D01*
X158396691Y-94385974D02*
X158445072Y-94289212D01*
X158445072Y-94289212D02*
X158445072Y-94095688D01*
X158445072Y-94095688D02*
X158396691Y-93998926D01*
X158396691Y-93998926D02*
X158348310Y-93950545D01*
X158348310Y-93950545D02*
X158251548Y-93902164D01*
X131732739Y-96971329D02*
X131684358Y-97019710D01*
X131684358Y-97019710D02*
X131539215Y-97068090D01*
X131539215Y-97068090D02*
X131442453Y-97068090D01*
X131442453Y-97068090D02*
X131297310Y-97019710D01*
X131297310Y-97019710D02*
X131200548Y-96922948D01*
X131200548Y-96922948D02*
X131152167Y-96826186D01*
X131152167Y-96826186D02*
X131103786Y-96632662D01*
X131103786Y-96632662D02*
X131103786Y-96487519D01*
X131103786Y-96487519D02*
X131152167Y-96293995D01*
X131152167Y-96293995D02*
X131200548Y-96197233D01*
X131200548Y-96197233D02*
X131297310Y-96100471D01*
X131297310Y-96100471D02*
X131442453Y-96052090D01*
X131442453Y-96052090D02*
X131539215Y-96052090D01*
X131539215Y-96052090D02*
X131684358Y-96100471D01*
X131684358Y-96100471D02*
X131732739Y-96148852D01*
X132651977Y-97068090D02*
X132168167Y-97068090D01*
X132168167Y-97068090D02*
X132168167Y-96052090D01*
X132990643Y-97068090D02*
X132990643Y-96052090D01*
X133571215Y-97068090D02*
X133135786Y-96487519D01*
X133571215Y-96052090D02*
X132990643Y-96632662D01*
X131055405Y-93503019D02*
X131732739Y-94519019D01*
X131732739Y-93503019D02*
X131055405Y-94519019D01*
X156171167Y-112770735D02*
X156171167Y-111754735D01*
X156171167Y-111754735D02*
X156413072Y-111754735D01*
X156413072Y-111754735D02*
X156558215Y-111803116D01*
X156558215Y-111803116D02*
X156654977Y-111899878D01*
X156654977Y-111899878D02*
X156703358Y-111996640D01*
X156703358Y-111996640D02*
X156751739Y-112190164D01*
X156751739Y-112190164D02*
X156751739Y-112335307D01*
X156751739Y-112335307D02*
X156703358Y-112528831D01*
X156703358Y-112528831D02*
X156654977Y-112625593D01*
X156654977Y-112625593D02*
X156558215Y-112722355D01*
X156558215Y-112722355D02*
X156413072Y-112770735D01*
X156413072Y-112770735D02*
X156171167Y-112770735D01*
X157187167Y-112238545D02*
X157525834Y-112238545D01*
X157670977Y-112770735D02*
X157187167Y-112770735D01*
X157187167Y-112770735D02*
X157187167Y-111754735D01*
X157187167Y-111754735D02*
X157670977Y-111754735D01*
X157961262Y-111754735D02*
X158541834Y-111754735D01*
X158251548Y-112770735D02*
X158251548Y-111754735D01*
X131152167Y-107264374D02*
X131152167Y-106248374D01*
X131152167Y-106248374D02*
X131394072Y-106248374D01*
X131394072Y-106248374D02*
X131539215Y-106296755D01*
X131539215Y-106296755D02*
X131635977Y-106393517D01*
X131635977Y-106393517D02*
X131684358Y-106490279D01*
X131684358Y-106490279D02*
X131732739Y-106683803D01*
X131732739Y-106683803D02*
X131732739Y-106828946D01*
X131732739Y-106828946D02*
X131684358Y-107022470D01*
X131684358Y-107022470D02*
X131635977Y-107119232D01*
X131635977Y-107119232D02*
X131539215Y-107215994D01*
X131539215Y-107215994D02*
X131394072Y-107264374D01*
X131394072Y-107264374D02*
X131152167Y-107264374D01*
X132071405Y-106248374D02*
X132748739Y-106248374D01*
X132748739Y-106248374D02*
X132313310Y-107264374D01*
D11*
X164898912Y-116539489D02*
X163398912Y-116539489D01*
X163398912Y-116539489D02*
X164470341Y-116039489D01*
X164470341Y-116039489D02*
X163398912Y-115539489D01*
X163398912Y-115539489D02*
X164898912Y-115539489D01*
X164827484Y-114896631D02*
X164898912Y-114682346D01*
X164898912Y-114682346D02*
X164898912Y-114325203D01*
X164898912Y-114325203D02*
X164827484Y-114182346D01*
X164827484Y-114182346D02*
X164756055Y-114110917D01*
X164756055Y-114110917D02*
X164613198Y-114039488D01*
X164613198Y-114039488D02*
X164470341Y-114039488D01*
X164470341Y-114039488D02*
X164327484Y-114110917D01*
X164327484Y-114110917D02*
X164256055Y-114182346D01*
X164256055Y-114182346D02*
X164184626Y-114325203D01*
X164184626Y-114325203D02*
X164113198Y-114610917D01*
X164113198Y-114610917D02*
X164041769Y-114753774D01*
X164041769Y-114753774D02*
X163970341Y-114825203D01*
X163970341Y-114825203D02*
X163827484Y-114896631D01*
X163827484Y-114896631D02*
X163684626Y-114896631D01*
X163684626Y-114896631D02*
X163541769Y-114825203D01*
X163541769Y-114825203D02*
X163470341Y-114753774D01*
X163470341Y-114753774D02*
X163398912Y-114610917D01*
X163398912Y-114610917D02*
X163398912Y-114253774D01*
X163398912Y-114253774D02*
X163470341Y-114039488D01*
X164898912Y-113396632D02*
X163398912Y-113396632D01*
X163398912Y-113396632D02*
X163398912Y-112825203D01*
X163398912Y-112825203D02*
X163470341Y-112682346D01*
X163470341Y-112682346D02*
X163541769Y-112610917D01*
X163541769Y-112610917D02*
X163684626Y-112539489D01*
X163684626Y-112539489D02*
X163898912Y-112539489D01*
X163898912Y-112539489D02*
X164041769Y-112610917D01*
X164041769Y-112610917D02*
X164113198Y-112682346D01*
X164113198Y-112682346D02*
X164184626Y-112825203D01*
X164184626Y-112825203D02*
X164184626Y-113396632D01*
X164756055Y-111039489D02*
X164827484Y-111110917D01*
X164827484Y-111110917D02*
X164898912Y-111325203D01*
X164898912Y-111325203D02*
X164898912Y-111468060D01*
X164898912Y-111468060D02*
X164827484Y-111682346D01*
X164827484Y-111682346D02*
X164684626Y-111825203D01*
X164684626Y-111825203D02*
X164541769Y-111896632D01*
X164541769Y-111896632D02*
X164256055Y-111968060D01*
X164256055Y-111968060D02*
X164041769Y-111968060D01*
X164041769Y-111968060D02*
X163756055Y-111896632D01*
X163756055Y-111896632D02*
X163613198Y-111825203D01*
X163613198Y-111825203D02*
X163470341Y-111682346D01*
X163470341Y-111682346D02*
X163398912Y-111468060D01*
X163398912Y-111468060D02*
X163398912Y-111325203D01*
X163398912Y-111325203D02*
X163470341Y-111110917D01*
X163470341Y-111110917D02*
X163541769Y-111039489D01*
X163898912Y-110539489D02*
X164898912Y-110182346D01*
X164898912Y-110182346D02*
X163898912Y-109825203D01*
X163541769Y-109325203D02*
X163470341Y-109253775D01*
X163470341Y-109253775D02*
X163398912Y-109110918D01*
X163398912Y-109110918D02*
X163398912Y-108753775D01*
X163398912Y-108753775D02*
X163470341Y-108610918D01*
X163470341Y-108610918D02*
X163541769Y-108539489D01*
X163541769Y-108539489D02*
X163684626Y-108468060D01*
X163684626Y-108468060D02*
X163827484Y-108468060D01*
X163827484Y-108468060D02*
X164041769Y-108539489D01*
X164041769Y-108539489D02*
X164898912Y-109396632D01*
X164898912Y-109396632D02*
X164898912Y-108468060D01*
X164113198Y-106182347D02*
X164184626Y-105968061D01*
X164184626Y-105968061D02*
X164256055Y-105896632D01*
X164256055Y-105896632D02*
X164398912Y-105825204D01*
X164398912Y-105825204D02*
X164613198Y-105825204D01*
X164613198Y-105825204D02*
X164756055Y-105896632D01*
X164756055Y-105896632D02*
X164827484Y-105968061D01*
X164827484Y-105968061D02*
X164898912Y-106110918D01*
X164898912Y-106110918D02*
X164898912Y-106682347D01*
X164898912Y-106682347D02*
X163398912Y-106682347D01*
X163398912Y-106682347D02*
X163398912Y-106182347D01*
X163398912Y-106182347D02*
X163470341Y-106039490D01*
X163470341Y-106039490D02*
X163541769Y-105968061D01*
X163541769Y-105968061D02*
X163684626Y-105896632D01*
X163684626Y-105896632D02*
X163827484Y-105896632D01*
X163827484Y-105896632D02*
X163970341Y-105968061D01*
X163970341Y-105968061D02*
X164041769Y-106039490D01*
X164041769Y-106039490D02*
X164113198Y-106182347D01*
X164113198Y-106182347D02*
X164113198Y-106682347D01*
X163398912Y-105182347D02*
X164613198Y-105182347D01*
X164613198Y-105182347D02*
X164756055Y-105110918D01*
X164756055Y-105110918D02*
X164827484Y-105039490D01*
X164827484Y-105039490D02*
X164898912Y-104896632D01*
X164898912Y-104896632D02*
X164898912Y-104610918D01*
X164898912Y-104610918D02*
X164827484Y-104468061D01*
X164827484Y-104468061D02*
X164756055Y-104396632D01*
X164756055Y-104396632D02*
X164613198Y-104325204D01*
X164613198Y-104325204D02*
X163398912Y-104325204D01*
X164827484Y-103682346D02*
X164898912Y-103468061D01*
X164898912Y-103468061D02*
X164898912Y-103110918D01*
X164898912Y-103110918D02*
X164827484Y-102968061D01*
X164827484Y-102968061D02*
X164756055Y-102896632D01*
X164756055Y-102896632D02*
X164613198Y-102825203D01*
X164613198Y-102825203D02*
X164470341Y-102825203D01*
X164470341Y-102825203D02*
X164327484Y-102896632D01*
X164327484Y-102896632D02*
X164256055Y-102968061D01*
X164256055Y-102968061D02*
X164184626Y-103110918D01*
X164184626Y-103110918D02*
X164113198Y-103396632D01*
X164113198Y-103396632D02*
X164041769Y-103539489D01*
X164041769Y-103539489D02*
X163970341Y-103610918D01*
X163970341Y-103610918D02*
X163827484Y-103682346D01*
X163827484Y-103682346D02*
X163684626Y-103682346D01*
X163684626Y-103682346D02*
X163541769Y-103610918D01*
X163541769Y-103610918D02*
X163470341Y-103539489D01*
X163470341Y-103539489D02*
X163398912Y-103396632D01*
X163398912Y-103396632D02*
X163398912Y-103039489D01*
X163398912Y-103039489D02*
X163470341Y-102825203D01*
X163541769Y-101110918D02*
X163470341Y-101039490D01*
X163470341Y-101039490D02*
X163398912Y-100896633D01*
X163398912Y-100896633D02*
X163398912Y-100539490D01*
X163398912Y-100539490D02*
X163470341Y-100396633D01*
X163470341Y-100396633D02*
X163541769Y-100325204D01*
X163541769Y-100325204D02*
X163684626Y-100253775D01*
X163684626Y-100253775D02*
X163827484Y-100253775D01*
X163827484Y-100253775D02*
X164041769Y-100325204D01*
X164041769Y-100325204D02*
X164898912Y-101182347D01*
X164898912Y-101182347D02*
X164898912Y-100253775D01*
X164898912Y-99753776D02*
X163898912Y-98968062D01*
X163898912Y-99753776D02*
X164898912Y-98968062D01*
X164898912Y-97610918D02*
X164898912Y-98468061D01*
X164898912Y-98039490D02*
X163398912Y-98039490D01*
X163398912Y-98039490D02*
X163613198Y-98182347D01*
X163613198Y-98182347D02*
X163756055Y-98325204D01*
X163756055Y-98325204D02*
X163827484Y-98468061D01*
X163398912Y-96253776D02*
X163398912Y-96968062D01*
X163398912Y-96968062D02*
X164113198Y-97039490D01*
X164113198Y-97039490D02*
X164041769Y-96968062D01*
X164041769Y-96968062D02*
X163970341Y-96825205D01*
X163970341Y-96825205D02*
X163970341Y-96468062D01*
X163970341Y-96468062D02*
X164041769Y-96325205D01*
X164041769Y-96325205D02*
X164113198Y-96253776D01*
X164113198Y-96253776D02*
X164256055Y-96182347D01*
X164256055Y-96182347D02*
X164613198Y-96182347D01*
X164613198Y-96182347D02*
X164756055Y-96253776D01*
X164756055Y-96253776D02*
X164827484Y-96325205D01*
X164827484Y-96325205D02*
X164898912Y-96468062D01*
X164898912Y-96468062D02*
X164898912Y-96825205D01*
X164898912Y-96825205D02*
X164827484Y-96968062D01*
X164827484Y-96968062D02*
X164756055Y-97039490D01*
X164470341Y-94468062D02*
X164470341Y-93753777D01*
X164898912Y-94610919D02*
X163398912Y-94110919D01*
X163398912Y-94110919D02*
X164898912Y-93610919D01*
X164898912Y-92468063D02*
X163398912Y-92468063D01*
X164827484Y-92468063D02*
X164898912Y-92610920D01*
X164898912Y-92610920D02*
X164898912Y-92896634D01*
X164898912Y-92896634D02*
X164827484Y-93039491D01*
X164827484Y-93039491D02*
X164756055Y-93110920D01*
X164756055Y-93110920D02*
X164613198Y-93182348D01*
X164613198Y-93182348D02*
X164184626Y-93182348D01*
X164184626Y-93182348D02*
X164041769Y-93110920D01*
X164041769Y-93110920D02*
X163970341Y-93039491D01*
X163970341Y-93039491D02*
X163898912Y-92896634D01*
X163898912Y-92896634D02*
X163898912Y-92610920D01*
X163898912Y-92610920D02*
X163970341Y-92468063D01*
X164898912Y-91110920D02*
X164113198Y-91110920D01*
X164113198Y-91110920D02*
X163970341Y-91182348D01*
X163970341Y-91182348D02*
X163898912Y-91325205D01*
X163898912Y-91325205D02*
X163898912Y-91610920D01*
X163898912Y-91610920D02*
X163970341Y-91753777D01*
X164827484Y-91110920D02*
X164898912Y-91253777D01*
X164898912Y-91253777D02*
X164898912Y-91610920D01*
X164898912Y-91610920D02*
X164827484Y-91753777D01*
X164827484Y-91753777D02*
X164684626Y-91825205D01*
X164684626Y-91825205D02*
X164541769Y-91825205D01*
X164541769Y-91825205D02*
X164398912Y-91753777D01*
X164398912Y-91753777D02*
X164327484Y-91610920D01*
X164327484Y-91610920D02*
X164327484Y-91253777D01*
X164327484Y-91253777D02*
X164256055Y-91110920D01*
X163898912Y-90396634D02*
X165398912Y-90396634D01*
X163970341Y-90396634D02*
X163898912Y-90253777D01*
X163898912Y-90253777D02*
X163898912Y-89968062D01*
X163898912Y-89968062D02*
X163970341Y-89825205D01*
X163970341Y-89825205D02*
X164041769Y-89753777D01*
X164041769Y-89753777D02*
X164184626Y-89682348D01*
X164184626Y-89682348D02*
X164613198Y-89682348D01*
X164613198Y-89682348D02*
X164756055Y-89753777D01*
X164756055Y-89753777D02*
X164827484Y-89825205D01*
X164827484Y-89825205D02*
X164898912Y-89968062D01*
X164898912Y-89968062D02*
X164898912Y-90253777D01*
X164898912Y-90253777D02*
X164827484Y-90396634D01*
X163898912Y-89253776D02*
X163898912Y-88682348D01*
X163398912Y-89039491D02*
X164684626Y-89039491D01*
X164684626Y-89039491D02*
X164827484Y-88968062D01*
X164827484Y-88968062D02*
X164898912Y-88825205D01*
X164898912Y-88825205D02*
X164898912Y-88682348D01*
X164827484Y-87610919D02*
X164898912Y-87753776D01*
X164898912Y-87753776D02*
X164898912Y-88039491D01*
X164898912Y-88039491D02*
X164827484Y-88182348D01*
X164827484Y-88182348D02*
X164684626Y-88253776D01*
X164684626Y-88253776D02*
X164113198Y-88253776D01*
X164113198Y-88253776D02*
X163970341Y-88182348D01*
X163970341Y-88182348D02*
X163898912Y-88039491D01*
X163898912Y-88039491D02*
X163898912Y-87753776D01*
X163898912Y-87753776D02*
X163970341Y-87610919D01*
X163970341Y-87610919D02*
X164113198Y-87539491D01*
X164113198Y-87539491D02*
X164256055Y-87539491D01*
X164256055Y-87539491D02*
X164398912Y-88253776D01*
X164898912Y-86896634D02*
X163898912Y-86896634D01*
X164184626Y-86896634D02*
X164041769Y-86825205D01*
X164041769Y-86825205D02*
X163970341Y-86753777D01*
X163970341Y-86753777D02*
X163898912Y-86610919D01*
X163898912Y-86610919D02*
X163898912Y-86468062D01*
X167313828Y-116539489D02*
X165813828Y-116539489D01*
X165813828Y-116539489D02*
X166885257Y-116039489D01*
X166885257Y-116039489D02*
X165813828Y-115539489D01*
X165813828Y-115539489D02*
X167313828Y-115539489D01*
X167313828Y-114182346D02*
X166528114Y-114182346D01*
X166528114Y-114182346D02*
X166385257Y-114253774D01*
X166385257Y-114253774D02*
X166313828Y-114396631D01*
X166313828Y-114396631D02*
X166313828Y-114682346D01*
X166313828Y-114682346D02*
X166385257Y-114825203D01*
X167242400Y-114182346D02*
X167313828Y-114325203D01*
X167313828Y-114325203D02*
X167313828Y-114682346D01*
X167313828Y-114682346D02*
X167242400Y-114825203D01*
X167242400Y-114825203D02*
X167099542Y-114896631D01*
X167099542Y-114896631D02*
X166956685Y-114896631D01*
X166956685Y-114896631D02*
X166813828Y-114825203D01*
X166813828Y-114825203D02*
X166742400Y-114682346D01*
X166742400Y-114682346D02*
X166742400Y-114325203D01*
X166742400Y-114325203D02*
X166670971Y-114182346D01*
X166313828Y-113682345D02*
X166313828Y-113110917D01*
X165813828Y-113468060D02*
X167099542Y-113468060D01*
X167099542Y-113468060D02*
X167242400Y-113396631D01*
X167242400Y-113396631D02*
X167313828Y-113253774D01*
X167313828Y-113253774D02*
X167313828Y-113110917D01*
X167242400Y-112039488D02*
X167313828Y-112182345D01*
X167313828Y-112182345D02*
X167313828Y-112468060D01*
X167313828Y-112468060D02*
X167242400Y-112610917D01*
X167242400Y-112610917D02*
X167099542Y-112682345D01*
X167099542Y-112682345D02*
X166528114Y-112682345D01*
X166528114Y-112682345D02*
X166385257Y-112610917D01*
X166385257Y-112610917D02*
X166313828Y-112468060D01*
X166313828Y-112468060D02*
X166313828Y-112182345D01*
X166313828Y-112182345D02*
X166385257Y-112039488D01*
X166385257Y-112039488D02*
X166528114Y-111968060D01*
X166528114Y-111968060D02*
X166670971Y-111968060D01*
X166670971Y-111968060D02*
X166813828Y-112682345D01*
X166313828Y-110682346D02*
X167313828Y-110682346D01*
X166313828Y-111325203D02*
X167099542Y-111325203D01*
X167099542Y-111325203D02*
X167242400Y-111253774D01*
X167242400Y-111253774D02*
X167313828Y-111110917D01*
X167313828Y-111110917D02*
X167313828Y-110896631D01*
X167313828Y-110896631D02*
X167242400Y-110753774D01*
X167242400Y-110753774D02*
X167170971Y-110682346D01*
X167242400Y-110039488D02*
X167313828Y-109896631D01*
X167313828Y-109896631D02*
X167313828Y-109610917D01*
X167313828Y-109610917D02*
X167242400Y-109468060D01*
X167242400Y-109468060D02*
X167099542Y-109396631D01*
X167099542Y-109396631D02*
X167028114Y-109396631D01*
X167028114Y-109396631D02*
X166885257Y-109468060D01*
X166885257Y-109468060D02*
X166813828Y-109610917D01*
X166813828Y-109610917D02*
X166813828Y-109825203D01*
X166813828Y-109825203D02*
X166742400Y-109968060D01*
X166742400Y-109968060D02*
X166599542Y-110039488D01*
X166599542Y-110039488D02*
X166528114Y-110039488D01*
X166528114Y-110039488D02*
X166385257Y-109968060D01*
X166385257Y-109968060D02*
X166313828Y-109825203D01*
X166313828Y-109825203D02*
X166313828Y-109610917D01*
X166313828Y-109610917D02*
X166385257Y-109468060D01*
X166313828Y-108896631D02*
X166313828Y-108110917D01*
X166313828Y-108110917D02*
X167313828Y-108896631D01*
X167313828Y-108896631D02*
X167313828Y-108110917D01*
X167242400Y-106468059D02*
X167313828Y-106253774D01*
X167313828Y-106253774D02*
X167313828Y-105896631D01*
X167313828Y-105896631D02*
X167242400Y-105753774D01*
X167242400Y-105753774D02*
X167170971Y-105682345D01*
X167170971Y-105682345D02*
X167028114Y-105610916D01*
X167028114Y-105610916D02*
X166885257Y-105610916D01*
X166885257Y-105610916D02*
X166742400Y-105682345D01*
X166742400Y-105682345D02*
X166670971Y-105753774D01*
X166670971Y-105753774D02*
X166599542Y-105896631D01*
X166599542Y-105896631D02*
X166528114Y-106182345D01*
X166528114Y-106182345D02*
X166456685Y-106325202D01*
X166456685Y-106325202D02*
X166385257Y-106396631D01*
X166385257Y-106396631D02*
X166242400Y-106468059D01*
X166242400Y-106468059D02*
X166099542Y-106468059D01*
X166099542Y-106468059D02*
X165956685Y-106396631D01*
X165956685Y-106396631D02*
X165885257Y-106325202D01*
X165885257Y-106325202D02*
X165813828Y-106182345D01*
X165813828Y-106182345D02*
X165813828Y-105825202D01*
X165813828Y-105825202D02*
X165885257Y-105610916D01*
X166313828Y-105182345D02*
X166313828Y-104610917D01*
X165813828Y-104968060D02*
X167099542Y-104968060D01*
X167099542Y-104968060D02*
X167242400Y-104896631D01*
X167242400Y-104896631D02*
X167313828Y-104753774D01*
X167313828Y-104753774D02*
X167313828Y-104610917D01*
X167313828Y-103468060D02*
X166528114Y-103468060D01*
X166528114Y-103468060D02*
X166385257Y-103539488D01*
X166385257Y-103539488D02*
X166313828Y-103682345D01*
X166313828Y-103682345D02*
X166313828Y-103968060D01*
X166313828Y-103968060D02*
X166385257Y-104110917D01*
X167242400Y-103468060D02*
X167313828Y-103610917D01*
X167313828Y-103610917D02*
X167313828Y-103968060D01*
X167313828Y-103968060D02*
X167242400Y-104110917D01*
X167242400Y-104110917D02*
X167099542Y-104182345D01*
X167099542Y-104182345D02*
X166956685Y-104182345D01*
X166956685Y-104182345D02*
X166813828Y-104110917D01*
X166813828Y-104110917D02*
X166742400Y-103968060D01*
X166742400Y-103968060D02*
X166742400Y-103610917D01*
X166742400Y-103610917D02*
X166670971Y-103468060D01*
X167313828Y-102110917D02*
X165813828Y-102110917D01*
X167242400Y-102110917D02*
X167313828Y-102253774D01*
X167313828Y-102253774D02*
X167313828Y-102539488D01*
X167313828Y-102539488D02*
X167242400Y-102682345D01*
X167242400Y-102682345D02*
X167170971Y-102753774D01*
X167170971Y-102753774D02*
X167028114Y-102825202D01*
X167028114Y-102825202D02*
X166599542Y-102825202D01*
X166599542Y-102825202D02*
X166456685Y-102753774D01*
X166456685Y-102753774D02*
X166385257Y-102682345D01*
X166385257Y-102682345D02*
X166313828Y-102539488D01*
X166313828Y-102539488D02*
X166313828Y-102253774D01*
X166313828Y-102253774D02*
X166385257Y-102110917D01*
X166313828Y-101396631D02*
X167313828Y-101396631D01*
X166456685Y-101396631D02*
X166385257Y-101325202D01*
X166385257Y-101325202D02*
X166313828Y-101182345D01*
X166313828Y-101182345D02*
X166313828Y-100968059D01*
X166313828Y-100968059D02*
X166385257Y-100825202D01*
X166385257Y-100825202D02*
X166528114Y-100753774D01*
X166528114Y-100753774D02*
X167313828Y-100753774D01*
X167313828Y-100039488D02*
X166313828Y-100039488D01*
X165813828Y-100039488D02*
X165885257Y-100110916D01*
X165885257Y-100110916D02*
X165956685Y-100039488D01*
X165956685Y-100039488D02*
X165885257Y-99968059D01*
X165885257Y-99968059D02*
X165813828Y-100039488D01*
X165813828Y-100039488D02*
X165956685Y-100039488D01*
X167313828Y-99325202D02*
X165813828Y-99325202D01*
X166742400Y-99182345D02*
X167313828Y-98753773D01*
X166313828Y-98753773D02*
X166885257Y-99325202D01*
X167885257Y-96539487D02*
X167813828Y-96610916D01*
X167813828Y-96610916D02*
X167599542Y-96753773D01*
X167599542Y-96753773D02*
X167456685Y-96825202D01*
X167456685Y-96825202D02*
X167242400Y-96896630D01*
X167242400Y-96896630D02*
X166885257Y-96968059D01*
X166885257Y-96968059D02*
X166599542Y-96968059D01*
X166599542Y-96968059D02*
X166242400Y-96896630D01*
X166242400Y-96896630D02*
X166028114Y-96825202D01*
X166028114Y-96825202D02*
X165885257Y-96753773D01*
X165885257Y-96753773D02*
X165670971Y-96610916D01*
X165670971Y-96610916D02*
X165599542Y-96539487D01*
X165956685Y-96039487D02*
X165885257Y-95968059D01*
X165885257Y-95968059D02*
X165813828Y-95825202D01*
X165813828Y-95825202D02*
X165813828Y-95468059D01*
X165813828Y-95468059D02*
X165885257Y-95325202D01*
X165885257Y-95325202D02*
X165956685Y-95253773D01*
X165956685Y-95253773D02*
X166099542Y-95182344D01*
X166099542Y-95182344D02*
X166242400Y-95182344D01*
X166242400Y-95182344D02*
X166456685Y-95253773D01*
X166456685Y-95253773D02*
X167313828Y-96110916D01*
X167313828Y-96110916D02*
X167313828Y-95182344D01*
X165813828Y-94253773D02*
X165813828Y-94110916D01*
X165813828Y-94110916D02*
X165885257Y-93968059D01*
X165885257Y-93968059D02*
X165956685Y-93896631D01*
X165956685Y-93896631D02*
X166099542Y-93825202D01*
X166099542Y-93825202D02*
X166385257Y-93753773D01*
X166385257Y-93753773D02*
X166742400Y-93753773D01*
X166742400Y-93753773D02*
X167028114Y-93825202D01*
X167028114Y-93825202D02*
X167170971Y-93896631D01*
X167170971Y-93896631D02*
X167242400Y-93968059D01*
X167242400Y-93968059D02*
X167313828Y-94110916D01*
X167313828Y-94110916D02*
X167313828Y-94253773D01*
X167313828Y-94253773D02*
X167242400Y-94396631D01*
X167242400Y-94396631D02*
X167170971Y-94468059D01*
X167170971Y-94468059D02*
X167028114Y-94539488D01*
X167028114Y-94539488D02*
X166742400Y-94610916D01*
X166742400Y-94610916D02*
X166385257Y-94610916D01*
X166385257Y-94610916D02*
X166099542Y-94539488D01*
X166099542Y-94539488D02*
X165956685Y-94468059D01*
X165956685Y-94468059D02*
X165885257Y-94396631D01*
X165885257Y-94396631D02*
X165813828Y-94253773D01*
X165956685Y-93182345D02*
X165885257Y-93110917D01*
X165885257Y-93110917D02*
X165813828Y-92968060D01*
X165813828Y-92968060D02*
X165813828Y-92610917D01*
X165813828Y-92610917D02*
X165885257Y-92468060D01*
X165885257Y-92468060D02*
X165956685Y-92396631D01*
X165956685Y-92396631D02*
X166099542Y-92325202D01*
X166099542Y-92325202D02*
X166242400Y-92325202D01*
X166242400Y-92325202D02*
X166456685Y-92396631D01*
X166456685Y-92396631D02*
X167313828Y-93253774D01*
X167313828Y-93253774D02*
X167313828Y-92325202D01*
X166313828Y-91039489D02*
X167313828Y-91039489D01*
X165742400Y-91396631D02*
X166813828Y-91753774D01*
X166813828Y-91753774D02*
X166813828Y-90825203D01*
X167885257Y-90396632D02*
X167813828Y-90325203D01*
X167813828Y-90325203D02*
X167599542Y-90182346D01*
X167599542Y-90182346D02*
X167456685Y-90110918D01*
X167456685Y-90110918D02*
X167242400Y-90039489D01*
X167242400Y-90039489D02*
X166885257Y-89968060D01*
X166885257Y-89968060D02*
X166599542Y-89968060D01*
X166599542Y-89968060D02*
X166242400Y-90039489D01*
X166242400Y-90039489D02*
X166028114Y-90110918D01*
X166028114Y-90110918D02*
X165885257Y-90182346D01*
X165885257Y-90182346D02*
X165670971Y-90325203D01*
X165670971Y-90325203D02*
X165599542Y-90396632D01*
D10*
X131152167Y-112362516D02*
X131152167Y-111346516D01*
X131152167Y-111346516D02*
X131394072Y-111346516D01*
X131394072Y-111346516D02*
X131539215Y-111394897D01*
X131539215Y-111394897D02*
X131635977Y-111491659D01*
X131635977Y-111491659D02*
X131684358Y-111588421D01*
X131684358Y-111588421D02*
X131732739Y-111781945D01*
X131732739Y-111781945D02*
X131732739Y-111927088D01*
X131732739Y-111927088D02*
X131684358Y-112120612D01*
X131684358Y-112120612D02*
X131635977Y-112217374D01*
X131635977Y-112217374D02*
X131539215Y-112314136D01*
X131539215Y-112314136D02*
X131394072Y-112362516D01*
X131394072Y-112362516D02*
X131152167Y-112362516D01*
X132700358Y-112362516D02*
X132119786Y-112362516D01*
X132410072Y-112362516D02*
X132410072Y-111346516D01*
X132410072Y-111346516D02*
X132313310Y-111491659D01*
X132313310Y-111491659D02*
X132216548Y-111588421D01*
X132216548Y-111588421D02*
X132119786Y-111636802D01*
X133667977Y-112362516D02*
X133087405Y-112362516D01*
X133377691Y-112362516D02*
X133377691Y-111346516D01*
X133377691Y-111346516D02*
X133280929Y-111491659D01*
X133280929Y-111491659D02*
X133184167Y-111588421D01*
X133184167Y-111588421D02*
X133087405Y-111636802D01*
X131152167Y-104715303D02*
X131152167Y-103699303D01*
X131152167Y-103699303D02*
X131394072Y-103699303D01*
X131394072Y-103699303D02*
X131539215Y-103747684D01*
X131539215Y-103747684D02*
X131635977Y-103844446D01*
X131635977Y-103844446D02*
X131684358Y-103941208D01*
X131684358Y-103941208D02*
X131732739Y-104134732D01*
X131732739Y-104134732D02*
X131732739Y-104279875D01*
X131732739Y-104279875D02*
X131684358Y-104473399D01*
X131684358Y-104473399D02*
X131635977Y-104570161D01*
X131635977Y-104570161D02*
X131539215Y-104666923D01*
X131539215Y-104666923D02*
X131394072Y-104715303D01*
X131394072Y-104715303D02*
X131152167Y-104715303D01*
X132651977Y-103699303D02*
X132168167Y-103699303D01*
X132168167Y-103699303D02*
X132119786Y-104183113D01*
X132119786Y-104183113D02*
X132168167Y-104134732D01*
X132168167Y-104134732D02*
X132264929Y-104086351D01*
X132264929Y-104086351D02*
X132506834Y-104086351D01*
X132506834Y-104086351D02*
X132603596Y-104134732D01*
X132603596Y-104134732D02*
X132651977Y-104183113D01*
X132651977Y-104183113D02*
X132700358Y-104279875D01*
X132700358Y-104279875D02*
X132700358Y-104521780D01*
X132700358Y-104521780D02*
X132651977Y-104618542D01*
X132651977Y-104618542D02*
X132603596Y-104666923D01*
X132603596Y-104666923D02*
X132506834Y-104715303D01*
X132506834Y-104715303D02*
X132264929Y-104715303D01*
X132264929Y-104715303D02*
X132168167Y-104666923D01*
X132168167Y-104666923D02*
X132119786Y-104618542D01*
X131152167Y-114911587D02*
X131152167Y-113895587D01*
X131152167Y-113895587D02*
X131394072Y-113895587D01*
X131394072Y-113895587D02*
X131539215Y-113943968D01*
X131539215Y-113943968D02*
X131635977Y-114040730D01*
X131635977Y-114040730D02*
X131684358Y-114137492D01*
X131684358Y-114137492D02*
X131732739Y-114331016D01*
X131732739Y-114331016D02*
X131732739Y-114476159D01*
X131732739Y-114476159D02*
X131684358Y-114669683D01*
X131684358Y-114669683D02*
X131635977Y-114766445D01*
X131635977Y-114766445D02*
X131539215Y-114863207D01*
X131539215Y-114863207D02*
X131394072Y-114911587D01*
X131394072Y-114911587D02*
X131152167Y-114911587D01*
X132700358Y-114911587D02*
X132119786Y-114911587D01*
X132410072Y-114911587D02*
X132410072Y-113895587D01*
X132410072Y-113895587D02*
X132313310Y-114040730D01*
X132313310Y-114040730D02*
X132216548Y-114137492D01*
X132216548Y-114137492D02*
X132119786Y-114185873D01*
X133039024Y-113895587D02*
X133667977Y-113895587D01*
X133667977Y-113895587D02*
X133329310Y-114282635D01*
X133329310Y-114282635D02*
X133474453Y-114282635D01*
X133474453Y-114282635D02*
X133571215Y-114331016D01*
X133571215Y-114331016D02*
X133619596Y-114379397D01*
X133619596Y-114379397D02*
X133667977Y-114476159D01*
X133667977Y-114476159D02*
X133667977Y-114718064D01*
X133667977Y-114718064D02*
X133619596Y-114814826D01*
X133619596Y-114814826D02*
X133571215Y-114863207D01*
X133571215Y-114863207D02*
X133474453Y-114911587D01*
X133474453Y-114911587D02*
X133184167Y-114911587D01*
X133184167Y-114911587D02*
X133087405Y-114863207D01*
X133087405Y-114863207D02*
X133039024Y-114814826D01*
X155929262Y-91942735D02*
X155929262Y-90926735D01*
X155929262Y-90926735D02*
X156171167Y-90926735D01*
X156171167Y-90926735D02*
X156316310Y-90975116D01*
X156316310Y-90975116D02*
X156413072Y-91071878D01*
X156413072Y-91071878D02*
X156461453Y-91168640D01*
X156461453Y-91168640D02*
X156509834Y-91362164D01*
X156509834Y-91362164D02*
X156509834Y-91507307D01*
X156509834Y-91507307D02*
X156461453Y-91700831D01*
X156461453Y-91700831D02*
X156413072Y-91797593D01*
X156413072Y-91797593D02*
X156316310Y-91894355D01*
X156316310Y-91894355D02*
X156171167Y-91942735D01*
X156171167Y-91942735D02*
X155929262Y-91942735D01*
X157477453Y-91942735D02*
X156896881Y-91942735D01*
X157187167Y-91942735D02*
X157187167Y-90926735D01*
X157187167Y-90926735D02*
X157090405Y-91071878D01*
X157090405Y-91071878D02*
X156993643Y-91168640D01*
X156993643Y-91168640D02*
X156896881Y-91217021D01*
X158106405Y-90926735D02*
X158203167Y-90926735D01*
X158203167Y-90926735D02*
X158299929Y-90975116D01*
X158299929Y-90975116D02*
X158348310Y-91023497D01*
X158348310Y-91023497D02*
X158396691Y-91120259D01*
X158396691Y-91120259D02*
X158445072Y-91313783D01*
X158445072Y-91313783D02*
X158445072Y-91555688D01*
X158445072Y-91555688D02*
X158396691Y-91749212D01*
X158396691Y-91749212D02*
X158348310Y-91845974D01*
X158348310Y-91845974D02*
X158299929Y-91894355D01*
X158299929Y-91894355D02*
X158203167Y-91942735D01*
X158203167Y-91942735D02*
X158106405Y-91942735D01*
X158106405Y-91942735D02*
X158009643Y-91894355D01*
X158009643Y-91894355D02*
X157961262Y-91845974D01*
X157961262Y-91845974D02*
X157912881Y-91749212D01*
X157912881Y-91749212D02*
X157864500Y-91555688D01*
X157864500Y-91555688D02*
X157864500Y-91313783D01*
X157864500Y-91313783D02*
X157912881Y-91120259D01*
X157912881Y-91120259D02*
X157961262Y-91023497D01*
X157961262Y-91023497D02*
X158009643Y-90975116D01*
X158009643Y-90975116D02*
X158106405Y-90926735D01*
X128439333Y-80726095D02*
X128439333Y-81451810D01*
X128439333Y-81451810D02*
X128390952Y-81596953D01*
X128390952Y-81596953D02*
X128294190Y-81693715D01*
X128294190Y-81693715D02*
X128149047Y-81742095D01*
X128149047Y-81742095D02*
X128052285Y-81742095D01*
X128874761Y-80822857D02*
X128923142Y-80774476D01*
X128923142Y-80774476D02*
X129019904Y-80726095D01*
X129019904Y-80726095D02*
X129261809Y-80726095D01*
X129261809Y-80726095D02*
X129358571Y-80774476D01*
X129358571Y-80774476D02*
X129406952Y-80822857D01*
X129406952Y-80822857D02*
X129455333Y-80919619D01*
X129455333Y-80919619D02*
X129455333Y-81016381D01*
X129455333Y-81016381D02*
X129406952Y-81161524D01*
X129406952Y-81161524D02*
X128826380Y-81742095D01*
X128826380Y-81742095D02*
X129455333Y-81742095D01*
X160316333Y-80599095D02*
X160316333Y-81324810D01*
X160316333Y-81324810D02*
X160267952Y-81469953D01*
X160267952Y-81469953D02*
X160171190Y-81566715D01*
X160171190Y-81566715D02*
X160026047Y-81615095D01*
X160026047Y-81615095D02*
X159929285Y-81615095D01*
X160703380Y-80599095D02*
X161332333Y-80599095D01*
X161332333Y-80599095D02*
X160993666Y-80986143D01*
X160993666Y-80986143D02*
X161138809Y-80986143D01*
X161138809Y-80986143D02*
X161235571Y-81034524D01*
X161235571Y-81034524D02*
X161283952Y-81082905D01*
X161283952Y-81082905D02*
X161332333Y-81179667D01*
X161332333Y-81179667D02*
X161332333Y-81421572D01*
X161332333Y-81421572D02*
X161283952Y-81518334D01*
X161283952Y-81518334D02*
X161235571Y-81566715D01*
X161235571Y-81566715D02*
X161138809Y-81615095D01*
X161138809Y-81615095D02*
X160848523Y-81615095D01*
X160848523Y-81615095D02*
X160751761Y-81566715D01*
X160751761Y-81566715D02*
X160703380Y-81518334D01*
D12*
X127321000Y-82617000D02*
X128651000Y-82617000D01*
X127321000Y-83947000D02*
X127321000Y-82617000D01*
X127321000Y-85217000D02*
X127321000Y-120837000D01*
X127321000Y-85217000D02*
X129981000Y-85217000D01*
X127321000Y-120837000D02*
X129981000Y-120837000D01*
X129981000Y-85217000D02*
X129981000Y-120837000D01*
X159198000Y-118227000D02*
X159198000Y-82607000D01*
X161858000Y-82607000D02*
X159198000Y-82607000D01*
X161858000Y-118227000D02*
X159198000Y-118227000D01*
X161858000Y-118227000D02*
X161858000Y-82607000D01*
X161858000Y-119497000D02*
X161858000Y-120827000D01*
X161858000Y-120827000D02*
X160528000Y-120827000D01*
M02*
