%TF.GenerationSoftware,KiCad,Pcbnew,8.0.4*%
%TF.CreationDate,2024-08-25T14:17:10+02:00*%
%TF.ProjectId,bus_adapter_30pin,6275735f-6164-4617-9074-65725f333070,rev?*%
%TF.SameCoordinates,Original*%
%TF.FileFunction,Copper,L1,Top*%
%TF.FilePolarity,Positive*%
%FSLAX46Y46*%
G04 Gerber Fmt 4.6, Leading zero omitted, Abs format (unit mm)*
G04 Created by KiCad (PCBNEW 8.0.4) date 2024-08-25 14:17:10*
%MOMM*%
%LPD*%
G01*
G04 APERTURE LIST*
%TA.AperFunction,ComponentPad*%
%ADD10R,1.700000X1.700000*%
%TD*%
%TA.AperFunction,ComponentPad*%
%ADD11O,1.700000X1.700000*%
%TD*%
%TA.AperFunction,ViaPad*%
%ADD12C,0.711200*%
%TD*%
%TA.AperFunction,Conductor*%
%ADD13C,0.200000*%
%TD*%
G04 APERTURE END LIST*
D10*
X128651000Y-83947000D03*
D11*
X128651000Y-86487000D03*
X128651000Y-89027000D03*
X128651000Y-91567000D03*
X128651000Y-94107000D03*
X128651000Y-96647000D03*
X128651000Y-99187000D03*
X128651000Y-101727000D03*
X128651000Y-104267000D03*
X128651000Y-106807000D03*
X128651000Y-109347000D03*
X128651000Y-111887000D03*
X128651000Y-114427000D03*
X128651000Y-116967000D03*
X128651000Y-119507000D03*
D10*
X160528000Y-119497000D03*
D11*
X160528000Y-116957000D03*
X160528000Y-114417000D03*
X160528000Y-111877000D03*
X160528000Y-109337000D03*
X160528000Y-106797000D03*
X160528000Y-104257000D03*
X160528000Y-101717000D03*
X160528000Y-99177000D03*
X160528000Y-96637000D03*
X160528000Y-94097000D03*
X160528000Y-91557000D03*
X160528000Y-89017000D03*
X160528000Y-86477000D03*
X160528000Y-83937000D03*
D12*
X147193000Y-122936000D03*
X138277600Y-124193300D03*
X140868400Y-124193300D03*
X144653000Y-122936000D03*
X142138400Y-122936000D03*
X139547600Y-122936000D03*
X150977600Y-124193300D03*
X145897600Y-124193300D03*
X149733000Y-122936000D03*
X136906000Y-122936000D03*
X143357600Y-124193300D03*
X148386800Y-124193300D03*
D13*
X156728000Y-106797000D02*
X160528000Y-106797000D01*
X147193000Y-122936000D02*
X147193000Y-116332000D01*
X147193000Y-116332000D02*
X156728000Y-106797000D01*
X148002028Y-89017000D02*
X160528000Y-89017000D01*
X138277600Y-98741428D02*
X148002028Y-89017000D01*
X138277600Y-124193300D02*
X138277600Y-98741428D01*
X159156400Y-94183200D02*
X159242600Y-94097000D01*
X150291800Y-94183200D02*
X159156400Y-94183200D01*
X140868400Y-103606600D02*
X150291800Y-94183200D01*
X140868400Y-124193300D02*
X140868400Y-103606600D01*
X159242600Y-94097000D02*
X160528000Y-94097000D01*
X160528000Y-101717000D02*
X154061000Y-101717000D01*
X144653000Y-111125000D02*
X144653000Y-122936000D01*
X154061000Y-101717000D02*
X144653000Y-111125000D01*
X142138400Y-106146600D02*
X142138400Y-122936000D01*
X160528000Y-96637000D02*
X151648000Y-96637000D01*
X151648000Y-96637000D02*
X142138400Y-106146600D01*
X139547600Y-101117400D02*
X149108000Y-91557000D01*
X139547600Y-122936000D02*
X139547600Y-101117400D01*
X149108000Y-91557000D02*
X160528000Y-91557000D01*
X159903000Y-114417000D02*
X150977600Y-123342400D01*
X160528000Y-114417000D02*
X159903000Y-114417000D01*
X150977600Y-123342400D02*
X150977600Y-124193300D01*
X145897600Y-113817400D02*
X155575000Y-104140000D01*
X145897600Y-124193300D02*
X145897600Y-113817400D01*
X160411000Y-104140000D02*
X160528000Y-104257000D01*
X155575000Y-104140000D02*
X160411000Y-104140000D01*
X149733000Y-122936000D02*
X149733000Y-121129157D01*
X149733000Y-121129157D02*
X158985157Y-111877000D01*
X158985157Y-111877000D02*
X160528000Y-111877000D01*
X136906000Y-122936000D02*
X136906000Y-95504000D01*
X145933000Y-86477000D02*
X160528000Y-86477000D01*
X136906000Y-95504000D02*
X145933000Y-86477000D01*
X152918000Y-99177000D02*
X160528000Y-99177000D01*
X143357600Y-124193300D02*
X143357600Y-108737400D01*
X143357600Y-108737400D02*
X152918000Y-99177000D01*
X148386800Y-124218700D02*
X148336000Y-124167900D01*
X148336000Y-124409200D02*
X148336000Y-119824500D01*
X158823500Y-109337000D02*
X160528000Y-109337000D01*
X148336000Y-119824500D02*
X158823500Y-109337000D01*
%TA.AperFunction,Conductor*%
G36*
X142302539Y-76350185D02*
G01*
X142348294Y-76402989D01*
X142359500Y-76454500D01*
X142359500Y-80981036D01*
X142397357Y-81280695D01*
X142472474Y-81573262D01*
X142472475Y-81573265D01*
X142583663Y-81854095D01*
X142583664Y-81854096D01*
X142583666Y-81854101D01*
X142583668Y-81854104D01*
X142729184Y-82118795D01*
X142729186Y-82118799D01*
X142729191Y-82118806D01*
X142809615Y-82229500D01*
X142906726Y-82363162D01*
X143113496Y-82583349D01*
X143346232Y-82775885D01*
X143346236Y-82775888D01*
X143470368Y-82854664D01*
X143601264Y-82937733D01*
X143711309Y-82989516D01*
X143874563Y-83066338D01*
X143874567Y-83066339D01*
X143874570Y-83066341D01*
X144161840Y-83159681D01*
X144458543Y-83216280D01*
X144458548Y-83216280D01*
X144458553Y-83216281D01*
X144759995Y-83235246D01*
X144760000Y-83235246D01*
X144760005Y-83235246D01*
X145061446Y-83216281D01*
X145061449Y-83216280D01*
X145061457Y-83216280D01*
X145358160Y-83159681D01*
X145645430Y-83066341D01*
X145918736Y-82937733D01*
X146173768Y-82775885D01*
X146406504Y-82583349D01*
X146613274Y-82363162D01*
X146790816Y-82118795D01*
X146936332Y-81854104D01*
X147047525Y-81573262D01*
X147122642Y-81280698D01*
X147160500Y-80981027D01*
X147160500Y-80830000D01*
X147160500Y-80764108D01*
X147160500Y-76454500D01*
X147180185Y-76387461D01*
X147232989Y-76341706D01*
X147284500Y-76330500D01*
X167885500Y-76330500D01*
X167952539Y-76350185D01*
X167998294Y-76402989D01*
X168009500Y-76454500D01*
X168009500Y-125205500D01*
X167989815Y-125272539D01*
X167937011Y-125318294D01*
X167885500Y-125329500D01*
X121634500Y-125329500D01*
X121567461Y-125309815D01*
X121521706Y-125257011D01*
X121510500Y-125205500D01*
X121510500Y-122936000D01*
X136045184Y-122936000D01*
X136063995Y-123114975D01*
X136063996Y-123114977D01*
X136109499Y-123255024D01*
X136119605Y-123286125D01*
X136209585Y-123441975D01*
X136330002Y-123575711D01*
X136475592Y-123681489D01*
X136639993Y-123754685D01*
X136639996Y-123754685D01*
X136639997Y-123754686D01*
X136665022Y-123760005D01*
X136816020Y-123792100D01*
X136995980Y-123792100D01*
X137172007Y-123754685D01*
X137324376Y-123686845D01*
X137393625Y-123677561D01*
X137456902Y-123707189D01*
X137494115Y-123766324D01*
X137493450Y-123836191D01*
X137492742Y-123838442D01*
X137435597Y-124014319D01*
X137435595Y-124014324D01*
X137435595Y-124014326D01*
X137416784Y-124193300D01*
X137435595Y-124372274D01*
X137491205Y-124543425D01*
X137581185Y-124699275D01*
X137701602Y-124833011D01*
X137847192Y-124938789D01*
X138011593Y-125011985D01*
X138011596Y-125011985D01*
X138011597Y-125011986D01*
X138039728Y-125017965D01*
X138187620Y-125049400D01*
X138367580Y-125049400D01*
X138543607Y-125011985D01*
X138708008Y-124938789D01*
X138853598Y-124833011D01*
X138974015Y-124699275D01*
X139063995Y-124543425D01*
X139119605Y-124372274D01*
X139138416Y-124193300D01*
X139119605Y-124014326D01*
X139079640Y-123891328D01*
X139077646Y-123821488D01*
X139113727Y-123761655D01*
X139176428Y-123730827D01*
X139245842Y-123738792D01*
X139248007Y-123739731D01*
X139281593Y-123754685D01*
X139457620Y-123792100D01*
X139637580Y-123792100D01*
X139813607Y-123754685D01*
X139906584Y-123713288D01*
X139975833Y-123704004D01*
X140039110Y-123733632D01*
X140076323Y-123792767D01*
X140075658Y-123862633D01*
X140074950Y-123864885D01*
X140026397Y-124014319D01*
X140026395Y-124014324D01*
X140026395Y-124014326D01*
X140007584Y-124193300D01*
X140026395Y-124372274D01*
X140082005Y-124543425D01*
X140171985Y-124699275D01*
X140292402Y-124833011D01*
X140437992Y-124938789D01*
X140602393Y-125011985D01*
X140602396Y-125011985D01*
X140602397Y-125011986D01*
X140630528Y-125017965D01*
X140778420Y-125049400D01*
X140958380Y-125049400D01*
X141134407Y-125011985D01*
X141298808Y-124938789D01*
X141444398Y-124833011D01*
X141564815Y-124699275D01*
X141654795Y-124543425D01*
X141710405Y-124372274D01*
X141729216Y-124193300D01*
X141710405Y-124014326D01*
X141670440Y-123891328D01*
X141668446Y-123821488D01*
X141704527Y-123761655D01*
X141767228Y-123730827D01*
X141836642Y-123738792D01*
X141838807Y-123739731D01*
X141872393Y-123754685D01*
X142048420Y-123792100D01*
X142228379Y-123792100D01*
X142228380Y-123792100D01*
X142404387Y-123754689D01*
X142474051Y-123760005D01*
X142529785Y-123802142D01*
X142553890Y-123867722D01*
X142548096Y-123914296D01*
X142515597Y-124014319D01*
X142515595Y-124014324D01*
X142515595Y-124014326D01*
X142496784Y-124193300D01*
X142515595Y-124372274D01*
X142571205Y-124543425D01*
X142661185Y-124699275D01*
X142781602Y-124833011D01*
X142927192Y-124938789D01*
X143091593Y-125011985D01*
X143091596Y-125011985D01*
X143091597Y-125011986D01*
X143119728Y-125017965D01*
X143267620Y-125049400D01*
X143447580Y-125049400D01*
X143623607Y-125011985D01*
X143788008Y-124938789D01*
X143933598Y-124833011D01*
X144054015Y-124699275D01*
X144143995Y-124543425D01*
X144199605Y-124372274D01*
X144218416Y-124193300D01*
X144199605Y-124014326D01*
X144155344Y-123878106D01*
X144153350Y-123808265D01*
X144189431Y-123748433D01*
X144252132Y-123717605D01*
X144321546Y-123725570D01*
X144323667Y-123726490D01*
X144386993Y-123754685D01*
X144563020Y-123792100D01*
X144742980Y-123792100D01*
X144919007Y-123754685D01*
X144922890Y-123752955D01*
X144992139Y-123743667D01*
X145055417Y-123773291D01*
X145092634Y-123832424D01*
X145091973Y-123902290D01*
X145091263Y-123904549D01*
X145055597Y-124014319D01*
X145055595Y-124014324D01*
X145055595Y-124014326D01*
X145036784Y-124193300D01*
X145055595Y-124372274D01*
X145111205Y-124543425D01*
X145201185Y-124699275D01*
X145321602Y-124833011D01*
X145467192Y-124938789D01*
X145631593Y-125011985D01*
X145631596Y-125011985D01*
X145631597Y-125011986D01*
X145659728Y-125017965D01*
X145807620Y-125049400D01*
X145987580Y-125049400D01*
X146163607Y-125011985D01*
X146328008Y-124938789D01*
X146473598Y-124833011D01*
X146594015Y-124699275D01*
X146683995Y-124543425D01*
X146739605Y-124372274D01*
X146758416Y-124193300D01*
X146739605Y-124014326D01*
X146695344Y-123878106D01*
X146693350Y-123808265D01*
X146729431Y-123748433D01*
X146792132Y-123717605D01*
X146861546Y-123725570D01*
X146863667Y-123726490D01*
X146926993Y-123754685D01*
X147103020Y-123792100D01*
X147282979Y-123792100D01*
X147282980Y-123792100D01*
X147431700Y-123760489D01*
X147501366Y-123765805D01*
X147557100Y-123807942D01*
X147581205Y-123873522D01*
X147575411Y-123920096D01*
X147544797Y-124014319D01*
X147544795Y-124014324D01*
X147544795Y-124014326D01*
X147525984Y-124193300D01*
X147544795Y-124372274D01*
X147600405Y-124543425D01*
X147690385Y-124699275D01*
X147810802Y-124833011D01*
X147956392Y-124938789D01*
X148120793Y-125011985D01*
X148120796Y-125011985D01*
X148120797Y-125011986D01*
X148148928Y-125017965D01*
X148296820Y-125049400D01*
X148476780Y-125049400D01*
X148652807Y-125011985D01*
X148817208Y-124938789D01*
X148962798Y-124833011D01*
X149083215Y-124699275D01*
X149173195Y-124543425D01*
X149228805Y-124372274D01*
X149247616Y-124193300D01*
X149228805Y-124014326D01*
X149175952Y-123851663D01*
X149173958Y-123781823D01*
X149210039Y-123721990D01*
X149272740Y-123691162D01*
X149342154Y-123699127D01*
X149344276Y-123700048D01*
X149466993Y-123754685D01*
X149643020Y-123792100D01*
X149822980Y-123792100D01*
X149999007Y-123754685D01*
X150002890Y-123752955D01*
X150072139Y-123743667D01*
X150135417Y-123773291D01*
X150172634Y-123832424D01*
X150171973Y-123902290D01*
X150171263Y-123904549D01*
X150135597Y-124014319D01*
X150135595Y-124014324D01*
X150135595Y-124014326D01*
X150116784Y-124193300D01*
X150135595Y-124372274D01*
X150191205Y-124543425D01*
X150281185Y-124699275D01*
X150401602Y-124833011D01*
X150547192Y-124938789D01*
X150711593Y-125011985D01*
X150711596Y-125011985D01*
X150711597Y-125011986D01*
X150739728Y-125017965D01*
X150887620Y-125049400D01*
X151067580Y-125049400D01*
X151243607Y-125011985D01*
X151408008Y-124938789D01*
X151553598Y-124833011D01*
X151674015Y-124699275D01*
X151763995Y-124543425D01*
X151819605Y-124372274D01*
X151838416Y-124193300D01*
X151819605Y-124014326D01*
X151763995Y-123843175D01*
X151674015Y-123687325D01*
X151661732Y-123673683D01*
X151631503Y-123610691D01*
X151640129Y-123541356D01*
X151666199Y-123503034D01*
X159616635Y-115552599D01*
X159677956Y-115519116D01*
X159747648Y-115524100D01*
X159775437Y-115538707D01*
X159842158Y-115585425D01*
X159885783Y-115640001D01*
X159892977Y-115709500D01*
X159861455Y-115771855D01*
X159842158Y-115788575D01*
X159656597Y-115918505D01*
X159489505Y-116085597D01*
X159353965Y-116279169D01*
X159353964Y-116279171D01*
X159254098Y-116493335D01*
X159254094Y-116493344D01*
X159192938Y-116721586D01*
X159192936Y-116721596D01*
X159172341Y-116956999D01*
X159172341Y-116957000D01*
X159192936Y-117192403D01*
X159192938Y-117192413D01*
X159254094Y-117420655D01*
X159254096Y-117420659D01*
X159254097Y-117420663D01*
X159258761Y-117430664D01*
X159353965Y-117634830D01*
X159353967Y-117634834D01*
X159462281Y-117789521D01*
X159489501Y-117828396D01*
X159489506Y-117828402D01*
X159611818Y-117950714D01*
X159645303Y-118012037D01*
X159640319Y-118081729D01*
X159598447Y-118137662D01*
X159567471Y-118154577D01*
X159435912Y-118203646D01*
X159435906Y-118203649D01*
X159320812Y-118289809D01*
X159320809Y-118289812D01*
X159234649Y-118404906D01*
X159234645Y-118404913D01*
X159184403Y-118539620D01*
X159184401Y-118539627D01*
X159178000Y-118599155D01*
X159178000Y-119247000D01*
X160094988Y-119247000D01*
X160062075Y-119304007D01*
X160028000Y-119431174D01*
X160028000Y-119562826D01*
X160062075Y-119689993D01*
X160094988Y-119747000D01*
X159178000Y-119747000D01*
X159178000Y-120394844D01*
X159184401Y-120454372D01*
X159184403Y-120454379D01*
X159234645Y-120589086D01*
X159234649Y-120589093D01*
X159320809Y-120704187D01*
X159320812Y-120704190D01*
X159435906Y-120790350D01*
X159435913Y-120790354D01*
X159570620Y-120840596D01*
X159570627Y-120840598D01*
X159630155Y-120846999D01*
X159630172Y-120847000D01*
X160278000Y-120847000D01*
X160278000Y-119930012D01*
X160335007Y-119962925D01*
X160462174Y-119997000D01*
X160593826Y-119997000D01*
X160720993Y-119962925D01*
X160778000Y-119930012D01*
X160778000Y-120847000D01*
X161425828Y-120847000D01*
X161425844Y-120846999D01*
X161485372Y-120840598D01*
X161485379Y-120840596D01*
X161620086Y-120790354D01*
X161620093Y-120790350D01*
X161735187Y-120704190D01*
X161735190Y-120704187D01*
X161821350Y-120589093D01*
X161821354Y-120589086D01*
X161871596Y-120454379D01*
X161871598Y-120454372D01*
X161877999Y-120394844D01*
X161878000Y-120394827D01*
X161878000Y-119747000D01*
X160961012Y-119747000D01*
X160993925Y-119689993D01*
X161028000Y-119562826D01*
X161028000Y-119431174D01*
X160993925Y-119304007D01*
X160961012Y-119247000D01*
X161878000Y-119247000D01*
X161878000Y-118599172D01*
X161877999Y-118599155D01*
X161871598Y-118539627D01*
X161871596Y-118539620D01*
X161821354Y-118404913D01*
X161821350Y-118404906D01*
X161735190Y-118289812D01*
X161735187Y-118289809D01*
X161620093Y-118203649D01*
X161620088Y-118203646D01*
X161488528Y-118154577D01*
X161432595Y-118112705D01*
X161408178Y-118047241D01*
X161423030Y-117978968D01*
X161444175Y-117950720D01*
X161566495Y-117828401D01*
X161702035Y-117634830D01*
X161801903Y-117420663D01*
X161863063Y-117192408D01*
X161883659Y-116957000D01*
X161863063Y-116721592D01*
X161804584Y-116503344D01*
X161801905Y-116493344D01*
X161801904Y-116493343D01*
X161801903Y-116493337D01*
X161702035Y-116279171D01*
X161576730Y-116100215D01*
X161566494Y-116085597D01*
X161399402Y-115918506D01*
X161399396Y-115918501D01*
X161213842Y-115788575D01*
X161170217Y-115733998D01*
X161163023Y-115664500D01*
X161194546Y-115602145D01*
X161213842Y-115585425D01*
X161385115Y-115465498D01*
X161399401Y-115455495D01*
X161566495Y-115288401D01*
X161702035Y-115094830D01*
X161801903Y-114880663D01*
X161863063Y-114652408D01*
X161883659Y-114417000D01*
X161863063Y-114181592D01*
X161804584Y-113963344D01*
X161801905Y-113953344D01*
X161801904Y-113953343D01*
X161801903Y-113953337D01*
X161702035Y-113739171D01*
X161701456Y-113738343D01*
X161566494Y-113545597D01*
X161399402Y-113378506D01*
X161399396Y-113378501D01*
X161213842Y-113248575D01*
X161170217Y-113193998D01*
X161163023Y-113124500D01*
X161194546Y-113062145D01*
X161213842Y-113045425D01*
X161385115Y-112925498D01*
X161399401Y-112915495D01*
X161566495Y-112748401D01*
X161702035Y-112554830D01*
X161801903Y-112340663D01*
X161863063Y-112112408D01*
X161883659Y-111877000D01*
X161863063Y-111641592D01*
X161804584Y-111423344D01*
X161801905Y-111413344D01*
X161801904Y-111413343D01*
X161801903Y-111413337D01*
X161702035Y-111199171D01*
X161702034Y-111199169D01*
X161566494Y-111005597D01*
X161399402Y-110838506D01*
X161399396Y-110838501D01*
X161213842Y-110708575D01*
X161170217Y-110653998D01*
X161163023Y-110584500D01*
X161194546Y-110522145D01*
X161213842Y-110505425D01*
X161385115Y-110385498D01*
X161399401Y-110375495D01*
X161566495Y-110208401D01*
X161702035Y-110014830D01*
X161801903Y-109800663D01*
X161863063Y-109572408D01*
X161883659Y-109337000D01*
X161863063Y-109101592D01*
X161804584Y-108883344D01*
X161801905Y-108873344D01*
X161801904Y-108873343D01*
X161801903Y-108873337D01*
X161702035Y-108659171D01*
X161702034Y-108659169D01*
X161566494Y-108465597D01*
X161399402Y-108298506D01*
X161399396Y-108298501D01*
X161213842Y-108168575D01*
X161170217Y-108113998D01*
X161163023Y-108044500D01*
X161194546Y-107982145D01*
X161213842Y-107965425D01*
X161385115Y-107845498D01*
X161399401Y-107835495D01*
X161566495Y-107668401D01*
X161702035Y-107474830D01*
X161801903Y-107260663D01*
X161863063Y-107032408D01*
X161883659Y-106797000D01*
X161863063Y-106561592D01*
X161804584Y-106343344D01*
X161801905Y-106333344D01*
X161801904Y-106333343D01*
X161801903Y-106333337D01*
X161702035Y-106119171D01*
X161702034Y-106119169D01*
X161566494Y-105925597D01*
X161399402Y-105758506D01*
X161399396Y-105758501D01*
X161213842Y-105628575D01*
X161170217Y-105573998D01*
X161163023Y-105504500D01*
X161194546Y-105442145D01*
X161213842Y-105425425D01*
X161385115Y-105305498D01*
X161399401Y-105295495D01*
X161566495Y-105128401D01*
X161702035Y-104934830D01*
X161801903Y-104720663D01*
X161863063Y-104492408D01*
X161883659Y-104257000D01*
X161863063Y-104021592D01*
X161804584Y-103803344D01*
X161801905Y-103793344D01*
X161801904Y-103793343D01*
X161801903Y-103793337D01*
X161702035Y-103579171D01*
X161681935Y-103550464D01*
X161566494Y-103385597D01*
X161399402Y-103218506D01*
X161399396Y-103218501D01*
X161213842Y-103088575D01*
X161170217Y-103033998D01*
X161163023Y-102964500D01*
X161194546Y-102902145D01*
X161213842Y-102885425D01*
X161385115Y-102765498D01*
X161399401Y-102755495D01*
X161566495Y-102588401D01*
X161702035Y-102394830D01*
X161801903Y-102180663D01*
X161863063Y-101952408D01*
X161883659Y-101717000D01*
X161863063Y-101481592D01*
X161804584Y-101263344D01*
X161801905Y-101253344D01*
X161801904Y-101253343D01*
X161801903Y-101253337D01*
X161702035Y-101039171D01*
X161702034Y-101039169D01*
X161566494Y-100845597D01*
X161399402Y-100678506D01*
X161399396Y-100678501D01*
X161213842Y-100548575D01*
X161170217Y-100493998D01*
X161163023Y-100424500D01*
X161194546Y-100362145D01*
X161213842Y-100345425D01*
X161385115Y-100225498D01*
X161399401Y-100215495D01*
X161566495Y-100048401D01*
X161702035Y-99854830D01*
X161801903Y-99640663D01*
X161863063Y-99412408D01*
X161883659Y-99177000D01*
X161863063Y-98941592D01*
X161804584Y-98723344D01*
X161801905Y-98713344D01*
X161801904Y-98713343D01*
X161801903Y-98713337D01*
X161702035Y-98499171D01*
X161702034Y-98499169D01*
X161566494Y-98305597D01*
X161399402Y-98138506D01*
X161399396Y-98138501D01*
X161213842Y-98008575D01*
X161170217Y-97953998D01*
X161163023Y-97884500D01*
X161194546Y-97822145D01*
X161213842Y-97805425D01*
X161385115Y-97685498D01*
X161399401Y-97675495D01*
X161566495Y-97508401D01*
X161702035Y-97314830D01*
X161801903Y-97100663D01*
X161863063Y-96872408D01*
X161883659Y-96637000D01*
X161863063Y-96401592D01*
X161804584Y-96183344D01*
X161801905Y-96173344D01*
X161801904Y-96173343D01*
X161801903Y-96173337D01*
X161702035Y-95959171D01*
X161702034Y-95959169D01*
X161566494Y-95765597D01*
X161399402Y-95598506D01*
X161399396Y-95598501D01*
X161213842Y-95468575D01*
X161170217Y-95413998D01*
X161163023Y-95344500D01*
X161194546Y-95282145D01*
X161213842Y-95265425D01*
X161385115Y-95145498D01*
X161399401Y-95135495D01*
X161566495Y-94968401D01*
X161702035Y-94774830D01*
X161801903Y-94560663D01*
X161863063Y-94332408D01*
X161883659Y-94097000D01*
X161863063Y-93861592D01*
X161816626Y-93688285D01*
X161801905Y-93633344D01*
X161801904Y-93633343D01*
X161801903Y-93633337D01*
X161702035Y-93419171D01*
X161702034Y-93419169D01*
X161566494Y-93225597D01*
X161399402Y-93058506D01*
X161399396Y-93058501D01*
X161213842Y-92928575D01*
X161170217Y-92873998D01*
X161163023Y-92804500D01*
X161194546Y-92742145D01*
X161213842Y-92725425D01*
X161385115Y-92605498D01*
X161399401Y-92595495D01*
X161566495Y-92428401D01*
X161702035Y-92234830D01*
X161801903Y-92020663D01*
X161863063Y-91792408D01*
X161883659Y-91557000D01*
X161863063Y-91321592D01*
X161804584Y-91103344D01*
X161801905Y-91093344D01*
X161801904Y-91093343D01*
X161801903Y-91093337D01*
X161702035Y-90879171D01*
X161702034Y-90879169D01*
X161566494Y-90685597D01*
X161399402Y-90518506D01*
X161399396Y-90518501D01*
X161213842Y-90388575D01*
X161170217Y-90333998D01*
X161163023Y-90264500D01*
X161194546Y-90202145D01*
X161213842Y-90185425D01*
X161385115Y-90065498D01*
X161399401Y-90055495D01*
X161566495Y-89888401D01*
X161702035Y-89694830D01*
X161801903Y-89480663D01*
X161863063Y-89252408D01*
X161883659Y-89017000D01*
X161863063Y-88781592D01*
X161804584Y-88563344D01*
X161801905Y-88553344D01*
X161801904Y-88553343D01*
X161801903Y-88553337D01*
X161702035Y-88339171D01*
X161702034Y-88339169D01*
X161566494Y-88145597D01*
X161399402Y-87978506D01*
X161399396Y-87978501D01*
X161213842Y-87848575D01*
X161170217Y-87793998D01*
X161163023Y-87724500D01*
X161194546Y-87662145D01*
X161213842Y-87645425D01*
X161236026Y-87629891D01*
X161399401Y-87515495D01*
X161566495Y-87348401D01*
X161702035Y-87154830D01*
X161801903Y-86940663D01*
X161863063Y-86712408D01*
X161883659Y-86477000D01*
X161863063Y-86241592D01*
X161801903Y-86013337D01*
X161702035Y-85799171D01*
X161702034Y-85799169D01*
X161566494Y-85605597D01*
X161399402Y-85438506D01*
X161399401Y-85438505D01*
X161213405Y-85308269D01*
X161169781Y-85253692D01*
X161162588Y-85184193D01*
X161194110Y-85121839D01*
X161213405Y-85105119D01*
X161399082Y-84975105D01*
X161566105Y-84808082D01*
X161701600Y-84614578D01*
X161801429Y-84400492D01*
X161801432Y-84400486D01*
X161858636Y-84187000D01*
X160961012Y-84187000D01*
X160993925Y-84129993D01*
X161028000Y-84002826D01*
X161028000Y-83871174D01*
X160993925Y-83744007D01*
X160961012Y-83687000D01*
X161858636Y-83687000D01*
X161858635Y-83686999D01*
X161801432Y-83473513D01*
X161801429Y-83473507D01*
X161701600Y-83259422D01*
X161701599Y-83259420D01*
X161566113Y-83065926D01*
X161566108Y-83065920D01*
X161399082Y-82898894D01*
X161205578Y-82763399D01*
X160991492Y-82663570D01*
X160991486Y-82663567D01*
X160778000Y-82606364D01*
X160778000Y-83503988D01*
X160720993Y-83471075D01*
X160593826Y-83437000D01*
X160462174Y-83437000D01*
X160335007Y-83471075D01*
X160278000Y-83503988D01*
X160278000Y-82606364D01*
X160277999Y-82606364D01*
X160064513Y-82663567D01*
X160064507Y-82663570D01*
X159850422Y-82763399D01*
X159850420Y-82763400D01*
X159656926Y-82898886D01*
X159656920Y-82898891D01*
X159489891Y-83065920D01*
X159489886Y-83065926D01*
X159354400Y-83259420D01*
X159354399Y-83259422D01*
X159254570Y-83473507D01*
X159254567Y-83473513D01*
X159197364Y-83686999D01*
X159197364Y-83687000D01*
X160094988Y-83687000D01*
X160062075Y-83744007D01*
X160028000Y-83871174D01*
X160028000Y-84002826D01*
X160062075Y-84129993D01*
X160094988Y-84187000D01*
X159197364Y-84187000D01*
X159254567Y-84400486D01*
X159254570Y-84400492D01*
X159354399Y-84614578D01*
X159489894Y-84808082D01*
X159656917Y-84975105D01*
X159842595Y-85105119D01*
X159886219Y-85159696D01*
X159893412Y-85229195D01*
X159861890Y-85291549D01*
X159842595Y-85308269D01*
X159656594Y-85438508D01*
X159489506Y-85605596D01*
X159353965Y-85799170D01*
X159353962Y-85799175D01*
X159351289Y-85804909D01*
X159305115Y-85857346D01*
X159238909Y-85876500D01*
X146019669Y-85876500D01*
X146019653Y-85876499D01*
X146012057Y-85876499D01*
X145853943Y-85876499D01*
X145746587Y-85905265D01*
X145701210Y-85917424D01*
X145701209Y-85917425D01*
X145651096Y-85946359D01*
X145651095Y-85946360D01*
X145607689Y-85971420D01*
X145564285Y-85996479D01*
X145564282Y-85996481D01*
X136425481Y-95135282D01*
X136425479Y-95135285D01*
X136375361Y-95222094D01*
X136375359Y-95222096D01*
X136346425Y-95272209D01*
X136346424Y-95272210D01*
X136333618Y-95320002D01*
X136305499Y-95424943D01*
X136305499Y-95424945D01*
X136305499Y-95593046D01*
X136305500Y-95593059D01*
X136305500Y-122275901D01*
X136285815Y-122342940D01*
X136273650Y-122358873D01*
X136209584Y-122430025D01*
X136119604Y-122585876D01*
X136063996Y-122757022D01*
X136063995Y-122757024D01*
X136045184Y-122936000D01*
X121510500Y-122936000D01*
X121510500Y-89026999D01*
X127295341Y-89026999D01*
X127295341Y-89027000D01*
X127315936Y-89262403D01*
X127315938Y-89262413D01*
X127377094Y-89490655D01*
X127377096Y-89490659D01*
X127377097Y-89490663D01*
X127472302Y-89694830D01*
X127476965Y-89704830D01*
X127476967Y-89704834D01*
X127612501Y-89898395D01*
X127612506Y-89898402D01*
X127779597Y-90065493D01*
X127779603Y-90065498D01*
X127965158Y-90195425D01*
X128008783Y-90250002D01*
X128015977Y-90319500D01*
X127984454Y-90381855D01*
X127965158Y-90398575D01*
X127779597Y-90528505D01*
X127612505Y-90695597D01*
X127476965Y-90889169D01*
X127476964Y-90889171D01*
X127377098Y-91103335D01*
X127377094Y-91103344D01*
X127315938Y-91331586D01*
X127315936Y-91331596D01*
X127295341Y-91566999D01*
X127295341Y-91567000D01*
X127315936Y-91802403D01*
X127315938Y-91802413D01*
X127377094Y-92030655D01*
X127377096Y-92030659D01*
X127377097Y-92030663D01*
X127472302Y-92234830D01*
X127476965Y-92244830D01*
X127476967Y-92244834D01*
X127612501Y-92438395D01*
X127612506Y-92438402D01*
X127779597Y-92605493D01*
X127779603Y-92605498D01*
X127965158Y-92735425D01*
X128008783Y-92790002D01*
X128015977Y-92859500D01*
X127984454Y-92921855D01*
X127965158Y-92938575D01*
X127779597Y-93068505D01*
X127612505Y-93235597D01*
X127476965Y-93429169D01*
X127476964Y-93429171D01*
X127377098Y-93643335D01*
X127377097Y-93643337D01*
X127315938Y-93871586D01*
X127315936Y-93871596D01*
X127295341Y-94106999D01*
X127295341Y-94107000D01*
X127315936Y-94342403D01*
X127315938Y-94342413D01*
X127377094Y-94570655D01*
X127377096Y-94570659D01*
X127377097Y-94570663D01*
X127462816Y-94754488D01*
X127476965Y-94784830D01*
X127476967Y-94784834D01*
X127612501Y-94978395D01*
X127612506Y-94978402D01*
X127779597Y-95145493D01*
X127779603Y-95145498D01*
X127965158Y-95275425D01*
X128008783Y-95330002D01*
X128015977Y-95399500D01*
X127984454Y-95461855D01*
X127965158Y-95478575D01*
X127779597Y-95608505D01*
X127612505Y-95775597D01*
X127476965Y-95969169D01*
X127476964Y-95969171D01*
X127377098Y-96183335D01*
X127377094Y-96183344D01*
X127315938Y-96411586D01*
X127315936Y-96411596D01*
X127295341Y-96646999D01*
X127295341Y-96647000D01*
X127315936Y-96882403D01*
X127315938Y-96882413D01*
X127377094Y-97110655D01*
X127377096Y-97110659D01*
X127377097Y-97110663D01*
X127472302Y-97314830D01*
X127476965Y-97324830D01*
X127476967Y-97324834D01*
X127612501Y-97518395D01*
X127612506Y-97518402D01*
X127779597Y-97685493D01*
X127779603Y-97685498D01*
X127965158Y-97815425D01*
X128008783Y-97870002D01*
X128015977Y-97939500D01*
X127984454Y-98001855D01*
X127965158Y-98018575D01*
X127779597Y-98148505D01*
X127612505Y-98315597D01*
X127476965Y-98509169D01*
X127476964Y-98509171D01*
X127377098Y-98723335D01*
X127377094Y-98723344D01*
X127315938Y-98951586D01*
X127315936Y-98951596D01*
X127295341Y-99186999D01*
X127295341Y-99187000D01*
X127315936Y-99422403D01*
X127315938Y-99422413D01*
X127377094Y-99650655D01*
X127377096Y-99650659D01*
X127377097Y-99650663D01*
X127472302Y-99854830D01*
X127476965Y-99864830D01*
X127476967Y-99864834D01*
X127612501Y-100058395D01*
X127612506Y-100058402D01*
X127779597Y-100225493D01*
X127779603Y-100225498D01*
X127965158Y-100355425D01*
X128008783Y-100410002D01*
X128015977Y-100479500D01*
X127984454Y-100541855D01*
X127965158Y-100558575D01*
X127779597Y-100688505D01*
X127612505Y-100855597D01*
X127476965Y-101049169D01*
X127476964Y-101049171D01*
X127377098Y-101263335D01*
X127377094Y-101263344D01*
X127315938Y-101491586D01*
X127315936Y-101491596D01*
X127295341Y-101726999D01*
X127295341Y-101727000D01*
X127315936Y-101962403D01*
X127315938Y-101962413D01*
X127377094Y-102190655D01*
X127377096Y-102190659D01*
X127377097Y-102190663D01*
X127472302Y-102394830D01*
X127476965Y-102404830D01*
X127476967Y-102404834D01*
X127612501Y-102598395D01*
X127612506Y-102598402D01*
X127779597Y-102765493D01*
X127779603Y-102765498D01*
X127965158Y-102895425D01*
X128008783Y-102950002D01*
X128015977Y-103019500D01*
X127984454Y-103081855D01*
X127965158Y-103098575D01*
X127779597Y-103228505D01*
X127612505Y-103395597D01*
X127476965Y-103589169D01*
X127476964Y-103589171D01*
X127377098Y-103803335D01*
X127377094Y-103803344D01*
X127315938Y-104031586D01*
X127315936Y-104031596D01*
X127295341Y-104266999D01*
X127295341Y-104267000D01*
X127315936Y-104502403D01*
X127315938Y-104502413D01*
X127377094Y-104730655D01*
X127377096Y-104730659D01*
X127377097Y-104730663D01*
X127472301Y-104934829D01*
X127476965Y-104944830D01*
X127476967Y-104944834D01*
X127612501Y-105138395D01*
X127612506Y-105138402D01*
X127779597Y-105305493D01*
X127779603Y-105305498D01*
X127965158Y-105435425D01*
X128008783Y-105490002D01*
X128015977Y-105559500D01*
X127984454Y-105621855D01*
X127965158Y-105638575D01*
X127779597Y-105768505D01*
X127612505Y-105935597D01*
X127476965Y-106129169D01*
X127476964Y-106129171D01*
X127377098Y-106343335D01*
X127377094Y-106343344D01*
X127315938Y-106571586D01*
X127315936Y-106571596D01*
X127295341Y-106806999D01*
X127295341Y-106807000D01*
X127315936Y-107042403D01*
X127315938Y-107042413D01*
X127377094Y-107270655D01*
X127377096Y-107270659D01*
X127377097Y-107270663D01*
X127472302Y-107474830D01*
X127476965Y-107484830D01*
X127476967Y-107484834D01*
X127612501Y-107678395D01*
X127612506Y-107678402D01*
X127779597Y-107845493D01*
X127779603Y-107845498D01*
X127965158Y-107975425D01*
X128008783Y-108030002D01*
X128015977Y-108099500D01*
X127984454Y-108161855D01*
X127965158Y-108178575D01*
X127779597Y-108308505D01*
X127612505Y-108475597D01*
X127476965Y-108669169D01*
X127476964Y-108669171D01*
X127377098Y-108883335D01*
X127377094Y-108883344D01*
X127315938Y-109111586D01*
X127315936Y-109111596D01*
X127295341Y-109346999D01*
X127295341Y-109347000D01*
X127315936Y-109582403D01*
X127315938Y-109582413D01*
X127377094Y-109810655D01*
X127377096Y-109810659D01*
X127377097Y-109810663D01*
X127472302Y-110014830D01*
X127476965Y-110024830D01*
X127476967Y-110024834D01*
X127612501Y-110218395D01*
X127612506Y-110218402D01*
X127779597Y-110385493D01*
X127779603Y-110385498D01*
X127965158Y-110515425D01*
X128008783Y-110570002D01*
X128015977Y-110639500D01*
X127984454Y-110701855D01*
X127965158Y-110718575D01*
X127779597Y-110848505D01*
X127612505Y-111015597D01*
X127476965Y-111209169D01*
X127476964Y-111209171D01*
X127377098Y-111423335D01*
X127377094Y-111423344D01*
X127315938Y-111651586D01*
X127315936Y-111651596D01*
X127295341Y-111886999D01*
X127295341Y-111887000D01*
X127315936Y-112122403D01*
X127315938Y-112122413D01*
X127377094Y-112350655D01*
X127377096Y-112350659D01*
X127377097Y-112350663D01*
X127436242Y-112477500D01*
X127476965Y-112564830D01*
X127476967Y-112564834D01*
X127612501Y-112758395D01*
X127612506Y-112758402D01*
X127779597Y-112925493D01*
X127779603Y-112925498D01*
X127965158Y-113055425D01*
X128008783Y-113110002D01*
X128015977Y-113179500D01*
X127984454Y-113241855D01*
X127965158Y-113258575D01*
X127779597Y-113388505D01*
X127612505Y-113555597D01*
X127476965Y-113749169D01*
X127476964Y-113749171D01*
X127377098Y-113963335D01*
X127377094Y-113963344D01*
X127315938Y-114191586D01*
X127315936Y-114191596D01*
X127295341Y-114426999D01*
X127295341Y-114427000D01*
X127315936Y-114662403D01*
X127315938Y-114662413D01*
X127377094Y-114890655D01*
X127377096Y-114890659D01*
X127377097Y-114890663D01*
X127472302Y-115094830D01*
X127476965Y-115104830D01*
X127476967Y-115104834D01*
X127612501Y-115298395D01*
X127612506Y-115298402D01*
X127779597Y-115465493D01*
X127779603Y-115465498D01*
X127965158Y-115595425D01*
X128008783Y-115650002D01*
X128015977Y-115719500D01*
X127984454Y-115781855D01*
X127965158Y-115798575D01*
X127779597Y-115928505D01*
X127612505Y-116095597D01*
X127476965Y-116289169D01*
X127476964Y-116289171D01*
X127377098Y-116503335D01*
X127377094Y-116503344D01*
X127315938Y-116731586D01*
X127315936Y-116731596D01*
X127295341Y-116966999D01*
X127295341Y-116967000D01*
X127315936Y-117202403D01*
X127315938Y-117202413D01*
X127377094Y-117430655D01*
X127377096Y-117430659D01*
X127377097Y-117430663D01*
X127472302Y-117634830D01*
X127476965Y-117644830D01*
X127476967Y-117644834D01*
X127585281Y-117799521D01*
X127605499Y-117828396D01*
X127612501Y-117838395D01*
X127612506Y-117838402D01*
X127779597Y-118005493D01*
X127779603Y-118005498D01*
X127965594Y-118135730D01*
X128009219Y-118190307D01*
X128016413Y-118259805D01*
X127984890Y-118322160D01*
X127965595Y-118338880D01*
X127779922Y-118468890D01*
X127779920Y-118468891D01*
X127612891Y-118635920D01*
X127612886Y-118635926D01*
X127477400Y-118829420D01*
X127477399Y-118829422D01*
X127377570Y-119043507D01*
X127377567Y-119043513D01*
X127320364Y-119256999D01*
X127320364Y-119257000D01*
X128217988Y-119257000D01*
X128185075Y-119314007D01*
X128151000Y-119441174D01*
X128151000Y-119572826D01*
X128185075Y-119699993D01*
X128217988Y-119757000D01*
X127320364Y-119757000D01*
X127377567Y-119970486D01*
X127377570Y-119970492D01*
X127477399Y-120184578D01*
X127612894Y-120378082D01*
X127779917Y-120545105D01*
X127973421Y-120680600D01*
X128187507Y-120780429D01*
X128187516Y-120780433D01*
X128401000Y-120837634D01*
X128401000Y-119940012D01*
X128458007Y-119972925D01*
X128585174Y-120007000D01*
X128716826Y-120007000D01*
X128843993Y-119972925D01*
X128901000Y-119940012D01*
X128901000Y-120837633D01*
X129114483Y-120780433D01*
X129114492Y-120780429D01*
X129328578Y-120680600D01*
X129522082Y-120545105D01*
X129689105Y-120378082D01*
X129824600Y-120184578D01*
X129924429Y-119970492D01*
X129924432Y-119970486D01*
X129981636Y-119757000D01*
X129084012Y-119757000D01*
X129116925Y-119699993D01*
X129151000Y-119572826D01*
X129151000Y-119441174D01*
X129116925Y-119314007D01*
X129084012Y-119257000D01*
X129981636Y-119257000D01*
X129981635Y-119256999D01*
X129924432Y-119043513D01*
X129924429Y-119043507D01*
X129824600Y-118829422D01*
X129824599Y-118829420D01*
X129689113Y-118635926D01*
X129689108Y-118635920D01*
X129522078Y-118468890D01*
X129336405Y-118338879D01*
X129292780Y-118284302D01*
X129285588Y-118214804D01*
X129317110Y-118152449D01*
X129336406Y-118135730D01*
X129369289Y-118112705D01*
X129522401Y-118005495D01*
X129689495Y-117838401D01*
X129825035Y-117644830D01*
X129924903Y-117430663D01*
X129986063Y-117202408D01*
X130006659Y-116967000D01*
X129986063Y-116731592D01*
X129924903Y-116503337D01*
X129825035Y-116289171D01*
X129692728Y-116100215D01*
X129689494Y-116095597D01*
X129522402Y-115928506D01*
X129522396Y-115928501D01*
X129336842Y-115798575D01*
X129293217Y-115743998D01*
X129286023Y-115674500D01*
X129317546Y-115612145D01*
X129336842Y-115595425D01*
X129398001Y-115552601D01*
X129522401Y-115465495D01*
X129689495Y-115298401D01*
X129825035Y-115104830D01*
X129924903Y-114890663D01*
X129986063Y-114662408D01*
X130006659Y-114427000D01*
X129986063Y-114191592D01*
X129924903Y-113963337D01*
X129825035Y-113749171D01*
X129817454Y-113738343D01*
X129689494Y-113555597D01*
X129522402Y-113388506D01*
X129522396Y-113388501D01*
X129336842Y-113258575D01*
X129293217Y-113203998D01*
X129286023Y-113134500D01*
X129317546Y-113072145D01*
X129336842Y-113055425D01*
X129359026Y-113039891D01*
X129522401Y-112925495D01*
X129689495Y-112758401D01*
X129825035Y-112564830D01*
X129924903Y-112350663D01*
X129986063Y-112122408D01*
X130006659Y-111887000D01*
X129986063Y-111651592D01*
X129924903Y-111423337D01*
X129825035Y-111209171D01*
X129821457Y-111204060D01*
X129689494Y-111015597D01*
X129522402Y-110848506D01*
X129522396Y-110848501D01*
X129336842Y-110718575D01*
X129293217Y-110663998D01*
X129286023Y-110594500D01*
X129317546Y-110532145D01*
X129336842Y-110515425D01*
X129359026Y-110499891D01*
X129522401Y-110385495D01*
X129689495Y-110218401D01*
X129825035Y-110024830D01*
X129924903Y-109810663D01*
X129986063Y-109582408D01*
X130006659Y-109347000D01*
X129986063Y-109111592D01*
X129924903Y-108883337D01*
X129825035Y-108669171D01*
X129818033Y-108659170D01*
X129689494Y-108475597D01*
X129522402Y-108308506D01*
X129522396Y-108308501D01*
X129336842Y-108178575D01*
X129293217Y-108123998D01*
X129286023Y-108054500D01*
X129317546Y-107992145D01*
X129336842Y-107975425D01*
X129359026Y-107959891D01*
X129522401Y-107845495D01*
X129689495Y-107678401D01*
X129825035Y-107484830D01*
X129924903Y-107270663D01*
X129986063Y-107042408D01*
X130006659Y-106807000D01*
X129986063Y-106571592D01*
X129924903Y-106343337D01*
X129825035Y-106129171D01*
X129818033Y-106119170D01*
X129689494Y-105935597D01*
X129522402Y-105768506D01*
X129522396Y-105768501D01*
X129336842Y-105638575D01*
X129293217Y-105583998D01*
X129286023Y-105514500D01*
X129317546Y-105452145D01*
X129336842Y-105435425D01*
X129359026Y-105419891D01*
X129522401Y-105305495D01*
X129689495Y-105138401D01*
X129825035Y-104944830D01*
X129924903Y-104730663D01*
X129986063Y-104502408D01*
X130006659Y-104267000D01*
X129986063Y-104031592D01*
X129924903Y-103803337D01*
X129825035Y-103589171D01*
X129797933Y-103550464D01*
X129689494Y-103395597D01*
X129522402Y-103228506D01*
X129522396Y-103228501D01*
X129336842Y-103098575D01*
X129293217Y-103043998D01*
X129286023Y-102974500D01*
X129317546Y-102912145D01*
X129336842Y-102895425D01*
X129359026Y-102879891D01*
X129522401Y-102765495D01*
X129689495Y-102598401D01*
X129825035Y-102404830D01*
X129924903Y-102190663D01*
X129986063Y-101962408D01*
X130006659Y-101727000D01*
X129986063Y-101491592D01*
X129924903Y-101263337D01*
X129825035Y-101049171D01*
X129818033Y-101039170D01*
X129689494Y-100855597D01*
X129522402Y-100688506D01*
X129522396Y-100688501D01*
X129336842Y-100558575D01*
X129293217Y-100503998D01*
X129286023Y-100434500D01*
X129317546Y-100372145D01*
X129336842Y-100355425D01*
X129359026Y-100339891D01*
X129522401Y-100225495D01*
X129689495Y-100058401D01*
X129825035Y-99864830D01*
X129924903Y-99650663D01*
X129986063Y-99422408D01*
X130006659Y-99187000D01*
X129986063Y-98951592D01*
X129924903Y-98723337D01*
X129825035Y-98509171D01*
X129818033Y-98499170D01*
X129689494Y-98315597D01*
X129522402Y-98148506D01*
X129522396Y-98148501D01*
X129336842Y-98018575D01*
X129293217Y-97963998D01*
X129286023Y-97894500D01*
X129317546Y-97832145D01*
X129336842Y-97815425D01*
X129359026Y-97799891D01*
X129522401Y-97685495D01*
X129689495Y-97518401D01*
X129825035Y-97324830D01*
X129924903Y-97110663D01*
X129986063Y-96882408D01*
X130006659Y-96647000D01*
X129986063Y-96411592D01*
X129924903Y-96183337D01*
X129825035Y-95969171D01*
X129818033Y-95959170D01*
X129689494Y-95775597D01*
X129522402Y-95608506D01*
X129522396Y-95608501D01*
X129336842Y-95478575D01*
X129293217Y-95423998D01*
X129286023Y-95354500D01*
X129317546Y-95292145D01*
X129336842Y-95275425D01*
X129359026Y-95259891D01*
X129522401Y-95145495D01*
X129689495Y-94978401D01*
X129825035Y-94784830D01*
X129924903Y-94570663D01*
X129986063Y-94342408D01*
X130006659Y-94107000D01*
X129986063Y-93871592D01*
X129924903Y-93643337D01*
X129825035Y-93429171D01*
X129818033Y-93419170D01*
X129689494Y-93235597D01*
X129522402Y-93068506D01*
X129522396Y-93068501D01*
X129336842Y-92938575D01*
X129293217Y-92883998D01*
X129286023Y-92814500D01*
X129317546Y-92752145D01*
X129336842Y-92735425D01*
X129359026Y-92719891D01*
X129522401Y-92605495D01*
X129689495Y-92438401D01*
X129825035Y-92244830D01*
X129924903Y-92030663D01*
X129986063Y-91802408D01*
X130006659Y-91567000D01*
X129986063Y-91331592D01*
X129924903Y-91103337D01*
X129825035Y-90889171D01*
X129818033Y-90879170D01*
X129689494Y-90695597D01*
X129522402Y-90528506D01*
X129522396Y-90528501D01*
X129336842Y-90398575D01*
X129293217Y-90343998D01*
X129286023Y-90274500D01*
X129317546Y-90212145D01*
X129336842Y-90195425D01*
X129359026Y-90179891D01*
X129522401Y-90065495D01*
X129689495Y-89898401D01*
X129825035Y-89704830D01*
X129924903Y-89490663D01*
X129986063Y-89262408D01*
X130006659Y-89027000D01*
X129986063Y-88791592D01*
X129924903Y-88563337D01*
X129825035Y-88349171D01*
X129818033Y-88339170D01*
X129689494Y-88155597D01*
X129522402Y-87988506D01*
X129522401Y-87988505D01*
X129336405Y-87858269D01*
X129292781Y-87803692D01*
X129285588Y-87734193D01*
X129317110Y-87671839D01*
X129336405Y-87655119D01*
X129522082Y-87525105D01*
X129689105Y-87358082D01*
X129824600Y-87164578D01*
X129924429Y-86950492D01*
X129924432Y-86950486D01*
X129981636Y-86737000D01*
X129084012Y-86737000D01*
X129116925Y-86679993D01*
X129151000Y-86552826D01*
X129151000Y-86421174D01*
X129116925Y-86294007D01*
X129084012Y-86237000D01*
X129981636Y-86237000D01*
X129981635Y-86236999D01*
X129924432Y-86023513D01*
X129924429Y-86023507D01*
X129824600Y-85809422D01*
X129824599Y-85809420D01*
X129689113Y-85615926D01*
X129689108Y-85615920D01*
X129567053Y-85493865D01*
X129533568Y-85432542D01*
X129538552Y-85362850D01*
X129580424Y-85306917D01*
X129611400Y-85290002D01*
X129743331Y-85240796D01*
X129858546Y-85154546D01*
X129944796Y-85039331D01*
X129995091Y-84904483D01*
X130001500Y-84844873D01*
X130001499Y-83049128D01*
X129995091Y-82989517D01*
X129975777Y-82937734D01*
X129944797Y-82854671D01*
X129944793Y-82854664D01*
X129858547Y-82739455D01*
X129858544Y-82739452D01*
X129743335Y-82653206D01*
X129743328Y-82653202D01*
X129608482Y-82602908D01*
X129608483Y-82602908D01*
X129548883Y-82596501D01*
X129548881Y-82596500D01*
X129548873Y-82596500D01*
X129548864Y-82596500D01*
X127753129Y-82596500D01*
X127753123Y-82596501D01*
X127693516Y-82602908D01*
X127558671Y-82653202D01*
X127558664Y-82653206D01*
X127443455Y-82739452D01*
X127443452Y-82739455D01*
X127357206Y-82854664D01*
X127357202Y-82854671D01*
X127306908Y-82989517D01*
X127300501Y-83049116D01*
X127300501Y-83049123D01*
X127300500Y-83049135D01*
X127300500Y-84844870D01*
X127300501Y-84844876D01*
X127306908Y-84904483D01*
X127357202Y-85039328D01*
X127357206Y-85039335D01*
X127443452Y-85154544D01*
X127443455Y-85154547D01*
X127558664Y-85240793D01*
X127558671Y-85240797D01*
X127558674Y-85240798D01*
X127690598Y-85290002D01*
X127746531Y-85331873D01*
X127770949Y-85397337D01*
X127756098Y-85465610D01*
X127734947Y-85493865D01*
X127612886Y-85615926D01*
X127477400Y-85809420D01*
X127477399Y-85809422D01*
X127377570Y-86023507D01*
X127377567Y-86023513D01*
X127320364Y-86236999D01*
X127320364Y-86237000D01*
X128217988Y-86237000D01*
X128185075Y-86294007D01*
X128151000Y-86421174D01*
X128151000Y-86552826D01*
X128185075Y-86679993D01*
X128217988Y-86737000D01*
X127320364Y-86737000D01*
X127377567Y-86950486D01*
X127377570Y-86950492D01*
X127477399Y-87164578D01*
X127612894Y-87358082D01*
X127779917Y-87525105D01*
X127965595Y-87655119D01*
X128009219Y-87709696D01*
X128016412Y-87779195D01*
X127984890Y-87841549D01*
X127965595Y-87858269D01*
X127779594Y-87988508D01*
X127612505Y-88155597D01*
X127476965Y-88349169D01*
X127476964Y-88349171D01*
X127377098Y-88563335D01*
X127377094Y-88563344D01*
X127315938Y-88791586D01*
X127315936Y-88791596D01*
X127295341Y-89026999D01*
X121510500Y-89026999D01*
X121510500Y-76454500D01*
X121530185Y-76387461D01*
X121582989Y-76341706D01*
X121634500Y-76330500D01*
X142235500Y-76330500D01*
X142302539Y-76350185D01*
G37*
%TD.AperFunction*%
M02*
