M48
; DRILL file {KiCad 8.0.4} date 2024-08-25T14:17:15+0200
; FORMAT={-:-/ absolute / metric / decimal}
; #@! TF.CreationDate,2024-08-25T14:17:15+02:00
; #@! TF.GenerationSoftware,Kicad,Pcbnew,8.0.4
; #@! TF.FileFunction,Plated,1,2,PTH
FMAT,2
METRIC
; #@! TA.AperFunction,Plated,PTH,ViaDrill
T1C0.406
; #@! TA.AperFunction,Plated,PTH,ComponentDrill
T2C1.000
%
G90
G05
T1
X136.906Y-122.936
X138.278Y-124.193
X139.548Y-122.936
X140.868Y-124.193
X142.138Y-122.936
X143.358Y-124.193
X144.653Y-122.936
X145.898Y-124.193
X147.193Y-122.936
X148.387Y-124.193
X149.733Y-122.936
X150.978Y-124.193
T2
X128.651Y-83.947
X128.651Y-86.487
X128.651Y-89.027
X128.651Y-91.567
X128.651Y-94.107
X128.651Y-96.647
X128.651Y-99.187
X128.651Y-101.727
X128.651Y-104.267
X128.651Y-106.807
X128.651Y-109.347
X128.651Y-111.887
X128.651Y-114.427
X128.651Y-116.967
X128.651Y-119.507
X160.528Y-83.937
X160.528Y-86.477
X160.528Y-89.017
X160.528Y-91.557
X160.528Y-94.097
X160.528Y-96.637
X160.528Y-99.177
X160.528Y-101.717
X160.528Y-104.257
X160.528Y-106.797
X160.528Y-109.337
X160.528Y-111.877
X160.528Y-114.417
X160.528Y-116.957
X160.528Y-119.497
M30
