%TF.GenerationSoftware,KiCad,Pcbnew,8.0.4*%
%TF.CreationDate,2024-08-25T14:17:10+02:00*%
%TF.ProjectId,bus_adapter_30pin,6275735f-6164-4617-9074-65725f333070,rev?*%
%TF.SameCoordinates,Original*%
%TF.FileFunction,Soldermask,Bot*%
%TF.FilePolarity,Negative*%
%FSLAX46Y46*%
G04 Gerber Fmt 4.6, Leading zero omitted, Abs format (unit mm)*
G04 Created by KiCad (PCBNEW 8.0.4) date 2024-08-25 14:17:10*
%MOMM*%
%LPD*%
G01*
G04 APERTURE LIST*
%ADD10R,1.700000X1.700000*%
%ADD11O,1.700000X1.700000*%
%ADD12R,0.740000X2.400000*%
G04 APERTURE END LIST*
D10*
X128651000Y-83947000D03*
D11*
X128651000Y-86487000D03*
X128651000Y-89027000D03*
X128651000Y-91567000D03*
X128651000Y-94107000D03*
X128651000Y-96647000D03*
X128651000Y-99187000D03*
X128651000Y-101727000D03*
X128651000Y-104267000D03*
X128651000Y-106807000D03*
X128651000Y-109347000D03*
X128651000Y-111887000D03*
X128651000Y-114427000D03*
X128651000Y-116967000D03*
X128651000Y-119507000D03*
D10*
X160528000Y-119497000D03*
D11*
X160528000Y-116957000D03*
X160528000Y-114417000D03*
X160528000Y-111877000D03*
X160528000Y-109337000D03*
X160528000Y-106797000D03*
X160528000Y-104257000D03*
X160528000Y-101717000D03*
X160528000Y-99177000D03*
X160528000Y-96637000D03*
X160528000Y-94097000D03*
X160528000Y-91557000D03*
X160528000Y-89017000D03*
X160528000Y-86477000D03*
X160528000Y-83937000D03*
D12*
X153543000Y-120904000D03*
X153543000Y-117004000D03*
X152273000Y-120904000D03*
X152273000Y-117004000D03*
X151003000Y-120904000D03*
X151003000Y-117004000D03*
X149733000Y-120904000D03*
X149733000Y-117004000D03*
X148463000Y-120904000D03*
X148463000Y-117004000D03*
X147193000Y-120904000D03*
X147193000Y-117004000D03*
X145923000Y-120904000D03*
X145923000Y-117004000D03*
X144653000Y-120904000D03*
X144653000Y-117004000D03*
X143383000Y-120904000D03*
X143383000Y-117004000D03*
X142113000Y-120904000D03*
X142113000Y-117004000D03*
X140843000Y-120904000D03*
X140843000Y-117004000D03*
X139573000Y-120904000D03*
X139573000Y-117004000D03*
X138303000Y-120904000D03*
X138303000Y-117004000D03*
X137033000Y-120904000D03*
X137033000Y-117004000D03*
X135763000Y-120904000D03*
X135763000Y-117004000D03*
M02*
