%TF.GenerationSoftware,KiCad,Pcbnew,8.0.4*%
%TF.CreationDate,2024-08-25T14:17:10+02:00*%
%TF.ProjectId,bus_adapter_30pin,6275735f-6164-4617-9074-65725f333070,rev?*%
%TF.SameCoordinates,Original*%
%TF.FileFunction,Copper,L2,Bot*%
%TF.FilePolarity,Positive*%
%FSLAX46Y46*%
G04 Gerber Fmt 4.6, Leading zero omitted, Abs format (unit mm)*
G04 Created by KiCad (PCBNEW 8.0.4) date 2024-08-25 14:17:10*
%MOMM*%
%LPD*%
G01*
G04 APERTURE LIST*
%TA.AperFunction,ComponentPad*%
%ADD10R,1.700000X1.700000*%
%TD*%
%TA.AperFunction,ComponentPad*%
%ADD11O,1.700000X1.700000*%
%TD*%
%TA.AperFunction,SMDPad,CuDef*%
%ADD12R,0.740000X2.400000*%
%TD*%
%TA.AperFunction,ViaPad*%
%ADD13C,0.711200*%
%TD*%
%TA.AperFunction,Conductor*%
%ADD14C,0.200000*%
%TD*%
%TA.AperFunction,Conductor*%
%ADD15C,0.609600*%
%TD*%
G04 APERTURE END LIST*
D10*
X128651000Y-83947000D03*
D11*
X128651000Y-86487000D03*
X128651000Y-89027000D03*
X128651000Y-91567000D03*
X128651000Y-94107000D03*
X128651000Y-96647000D03*
X128651000Y-99187000D03*
X128651000Y-101727000D03*
X128651000Y-104267000D03*
X128651000Y-106807000D03*
X128651000Y-109347000D03*
X128651000Y-111887000D03*
X128651000Y-114427000D03*
X128651000Y-116967000D03*
X128651000Y-119507000D03*
D10*
X160528000Y-119497000D03*
D11*
X160528000Y-116957000D03*
X160528000Y-114417000D03*
X160528000Y-111877000D03*
X160528000Y-109337000D03*
X160528000Y-106797000D03*
X160528000Y-104257000D03*
X160528000Y-101717000D03*
X160528000Y-99177000D03*
X160528000Y-96637000D03*
X160528000Y-94097000D03*
X160528000Y-91557000D03*
X160528000Y-89017000D03*
X160528000Y-86477000D03*
X160528000Y-83937000D03*
D12*
X153543000Y-120904000D03*
X153543000Y-117004000D03*
X152273000Y-120904000D03*
X152273000Y-117004000D03*
X151003000Y-120904000D03*
X151003000Y-117004000D03*
X149733000Y-120904000D03*
X149733000Y-117004000D03*
X148463000Y-120904000D03*
X148463000Y-117004000D03*
X147193000Y-120904000D03*
X147193000Y-117004000D03*
X145923000Y-120904000D03*
X145923000Y-117004000D03*
X144653000Y-120904000D03*
X144653000Y-117004000D03*
X143383000Y-120904000D03*
X143383000Y-117004000D03*
X142113000Y-120904000D03*
X142113000Y-117004000D03*
X140843000Y-120904000D03*
X140843000Y-117004000D03*
X139573000Y-120904000D03*
X139573000Y-117004000D03*
X138303000Y-120904000D03*
X138303000Y-117004000D03*
X137033000Y-120904000D03*
X137033000Y-117004000D03*
X135763000Y-120904000D03*
X135763000Y-117004000D03*
D13*
X147193000Y-122936000D03*
X138277600Y-124193300D03*
X140868400Y-124193300D03*
X144653000Y-122936000D03*
X142138400Y-122936000D03*
X139547600Y-122936000D03*
X150977600Y-124193300D03*
X145897600Y-124193300D03*
X149733000Y-122936000D03*
X136906000Y-122936000D03*
X143357600Y-124193300D03*
X148386800Y-124193300D03*
D14*
X147193000Y-122936000D02*
X147193000Y-120904000D01*
X147193000Y-117004000D02*
X147193000Y-107061000D01*
X147193000Y-107061000D02*
X136779000Y-96647000D01*
X136779000Y-96647000D02*
X128651000Y-96647000D01*
X145923000Y-108331000D02*
X136779000Y-99187000D01*
X136779000Y-99187000D02*
X128651000Y-99187000D01*
X145923000Y-117004000D02*
X145923000Y-108331000D01*
X140843000Y-113411000D02*
X136779000Y-109347000D01*
X136779000Y-109347000D02*
X128651000Y-109347000D01*
X140843000Y-117004000D02*
X140843000Y-113411000D01*
X137033000Y-115189000D02*
X136398000Y-114554000D01*
X137033000Y-117004000D02*
X137033000Y-115189000D01*
X136398000Y-114554000D02*
X132905500Y-114554000D01*
X132905500Y-114554000D02*
X130492500Y-116967000D01*
X130492500Y-116967000D02*
X128651000Y-116967000D01*
X138277600Y-124409200D02*
X138277600Y-121818400D01*
X138277600Y-121818400D02*
X138303000Y-121793000D01*
X138303000Y-121793000D02*
X138303000Y-120904000D01*
X140843000Y-124383800D02*
X140843000Y-120904000D01*
X140868400Y-124206000D02*
X140843000Y-124180600D01*
X144653000Y-123063000D02*
X144653000Y-120904000D01*
X138303000Y-83947000D02*
X128651000Y-83947000D01*
X153543000Y-117004000D02*
X153543000Y-99187000D01*
X153543000Y-99187000D02*
X138303000Y-83947000D01*
X136779000Y-111887000D02*
X128651000Y-111887000D01*
X139573000Y-114681000D02*
X136779000Y-111887000D01*
X139573000Y-117004000D02*
X139573000Y-114681000D01*
X142113000Y-117004000D02*
X142113000Y-112141000D01*
X142113000Y-112141000D02*
X136779000Y-106807000D01*
X136779000Y-106807000D02*
X128651000Y-106807000D01*
X136779000Y-94107000D02*
X148463000Y-105791000D01*
X128651000Y-94107000D02*
X136779000Y-94107000D01*
X148463000Y-105791000D02*
X148463000Y-117004000D01*
X149733000Y-104521000D02*
X136779000Y-91567000D01*
X149733000Y-117004000D02*
X149733000Y-104521000D01*
X136779000Y-91567000D02*
X128651000Y-91567000D01*
X142138400Y-123139200D02*
X142113000Y-123113800D01*
X142113000Y-123113800D02*
X142113000Y-120904000D01*
X139573000Y-123215400D02*
X139573000Y-120904000D01*
X139547600Y-123240800D02*
X139573000Y-123215400D01*
X151003000Y-124180600D02*
X151003000Y-120904000D01*
X150977600Y-124206000D02*
X151003000Y-124180600D01*
X145897600Y-124206000D02*
X145923000Y-124180600D01*
X145923000Y-124434600D02*
X145923000Y-120904000D01*
X149733000Y-122936000D02*
X149733000Y-120904000D01*
X136779000Y-101727000D02*
X128651000Y-101727000D01*
X144653000Y-109601000D02*
X136779000Y-101727000D01*
X144653000Y-117004000D02*
X144653000Y-109601000D01*
D15*
X150939500Y-103187500D02*
X150939500Y-114617500D01*
X151003000Y-114681000D02*
X151003000Y-117004000D01*
X136779000Y-89027000D02*
X140716000Y-92964000D01*
X140716000Y-92964000D02*
X150939500Y-103187500D01*
X128651000Y-89027000D02*
X136779000Y-89027000D01*
X150939500Y-114617500D02*
X151003000Y-114681000D01*
D14*
X136779000Y-104267000D02*
X143383000Y-110871000D01*
X128651000Y-104267000D02*
X136779000Y-104267000D01*
X143383000Y-110871000D02*
X143383000Y-117004000D01*
D15*
X159522000Y-116957000D02*
X160528000Y-116957000D01*
X154940000Y-123952000D02*
X156972000Y-121920000D01*
X152273000Y-120904000D02*
X152273000Y-122809000D01*
X152273000Y-122809000D02*
X153416000Y-123952000D01*
X156972000Y-121920000D02*
X156972000Y-119507000D01*
X153416000Y-123952000D02*
X154940000Y-123952000D01*
X156972000Y-119507000D02*
X159522000Y-116957000D01*
D14*
X138303000Y-114935000D02*
X136906000Y-113538000D01*
X138303000Y-117004000D02*
X138303000Y-114935000D01*
X136906000Y-113538000D02*
X129540000Y-113538000D01*
X129540000Y-113538000D02*
X128651000Y-114427000D01*
X137033000Y-121734000D02*
X137033000Y-120904000D01*
X136906000Y-123342400D02*
X136906000Y-121861000D01*
X136906000Y-121861000D02*
X137033000Y-121734000D01*
X143383000Y-124434600D02*
X143383000Y-120904000D01*
X143357600Y-124206000D02*
X143383000Y-124180600D01*
X148386800Y-124231400D02*
X148463000Y-124155200D01*
X148463000Y-124383800D02*
X148463000Y-120904000D01*
%TA.AperFunction,Conductor*%
G36*
X142302539Y-76350185D02*
G01*
X142348294Y-76402989D01*
X142359500Y-76454500D01*
X142359500Y-80981036D01*
X142397357Y-81280695D01*
X142472474Y-81573262D01*
X142472475Y-81573265D01*
X142583663Y-81854095D01*
X142583664Y-81854096D01*
X142583666Y-81854101D01*
X142583668Y-81854104D01*
X142729184Y-82118795D01*
X142729186Y-82118799D01*
X142729191Y-82118806D01*
X142809615Y-82229500D01*
X142906726Y-82363162D01*
X143113496Y-82583349D01*
X143346232Y-82775885D01*
X143346236Y-82775888D01*
X143470368Y-82854664D01*
X143601264Y-82937733D01*
X143711309Y-82989516D01*
X143874563Y-83066338D01*
X143874567Y-83066339D01*
X143874570Y-83066341D01*
X144161840Y-83159681D01*
X144458543Y-83216280D01*
X144458548Y-83216280D01*
X144458553Y-83216281D01*
X144759995Y-83235246D01*
X144760000Y-83235246D01*
X144760005Y-83235246D01*
X145061446Y-83216281D01*
X145061449Y-83216280D01*
X145061457Y-83216280D01*
X145358160Y-83159681D01*
X145645430Y-83066341D01*
X145918736Y-82937733D01*
X146173768Y-82775885D01*
X146406504Y-82583349D01*
X146613274Y-82363162D01*
X146790816Y-82118795D01*
X146936332Y-81854104D01*
X147047525Y-81573262D01*
X147122642Y-81280698D01*
X147160500Y-80981027D01*
X147160500Y-80830000D01*
X147160500Y-80764108D01*
X147160500Y-76454500D01*
X147180185Y-76387461D01*
X147232989Y-76341706D01*
X147284500Y-76330500D01*
X167885500Y-76330500D01*
X167952539Y-76350185D01*
X167998294Y-76402989D01*
X168009500Y-76454500D01*
X168009500Y-125205500D01*
X167989815Y-125272539D01*
X167937011Y-125318294D01*
X167885500Y-125329500D01*
X121634500Y-125329500D01*
X121567461Y-125309815D01*
X121521706Y-125257011D01*
X121510500Y-125205500D01*
X121510500Y-122151844D01*
X134893000Y-122151844D01*
X134899401Y-122211372D01*
X134899403Y-122211379D01*
X134949645Y-122346086D01*
X134949649Y-122346093D01*
X135035809Y-122461187D01*
X135035812Y-122461190D01*
X135150906Y-122547350D01*
X135150913Y-122547354D01*
X135285620Y-122597596D01*
X135285627Y-122597598D01*
X135345155Y-122603999D01*
X135345172Y-122604000D01*
X135513000Y-122604000D01*
X135513000Y-121154000D01*
X134893000Y-121154000D01*
X134893000Y-122151844D01*
X121510500Y-122151844D01*
X121510500Y-89026999D01*
X127295341Y-89026999D01*
X127295341Y-89027000D01*
X127315936Y-89262403D01*
X127315938Y-89262413D01*
X127377094Y-89490655D01*
X127377096Y-89490659D01*
X127377097Y-89490663D01*
X127472302Y-89694830D01*
X127476965Y-89704830D01*
X127476967Y-89704834D01*
X127612501Y-89898395D01*
X127612506Y-89898402D01*
X127779597Y-90065493D01*
X127779603Y-90065498D01*
X127965158Y-90195425D01*
X128008783Y-90250002D01*
X128015977Y-90319500D01*
X127984454Y-90381855D01*
X127965158Y-90398575D01*
X127779597Y-90528505D01*
X127612505Y-90695597D01*
X127476965Y-90889169D01*
X127476964Y-90889171D01*
X127377098Y-91103335D01*
X127377094Y-91103344D01*
X127315938Y-91331586D01*
X127315936Y-91331596D01*
X127295341Y-91566999D01*
X127295341Y-91567000D01*
X127315936Y-91802403D01*
X127315938Y-91802413D01*
X127377094Y-92030655D01*
X127377096Y-92030659D01*
X127377097Y-92030663D01*
X127449839Y-92186658D01*
X127476965Y-92244830D01*
X127476967Y-92244834D01*
X127612501Y-92438395D01*
X127612506Y-92438402D01*
X127779597Y-92605493D01*
X127779603Y-92605498D01*
X127965158Y-92735425D01*
X128008783Y-92790002D01*
X128015977Y-92859500D01*
X127984454Y-92921855D01*
X127965158Y-92938575D01*
X127779597Y-93068505D01*
X127612505Y-93235597D01*
X127476965Y-93429169D01*
X127476964Y-93429171D01*
X127377098Y-93643335D01*
X127377094Y-93643344D01*
X127315938Y-93871586D01*
X127315936Y-93871596D01*
X127295341Y-94106999D01*
X127295341Y-94107000D01*
X127315936Y-94342403D01*
X127315938Y-94342413D01*
X127377094Y-94570655D01*
X127377096Y-94570659D01*
X127377097Y-94570663D01*
X127449839Y-94726658D01*
X127476965Y-94784830D01*
X127476967Y-94784834D01*
X127612501Y-94978395D01*
X127612506Y-94978402D01*
X127779597Y-95145493D01*
X127779603Y-95145498D01*
X127965158Y-95275425D01*
X128008783Y-95330002D01*
X128015977Y-95399500D01*
X127984454Y-95461855D01*
X127965158Y-95478575D01*
X127779597Y-95608505D01*
X127612505Y-95775597D01*
X127476965Y-95969169D01*
X127476964Y-95969171D01*
X127377098Y-96183335D01*
X127377094Y-96183344D01*
X127315938Y-96411586D01*
X127315936Y-96411596D01*
X127295341Y-96646999D01*
X127295341Y-96647000D01*
X127315936Y-96882403D01*
X127315938Y-96882413D01*
X127377094Y-97110655D01*
X127377096Y-97110659D01*
X127377097Y-97110663D01*
X127449839Y-97266658D01*
X127476965Y-97324830D01*
X127476967Y-97324834D01*
X127612501Y-97518395D01*
X127612506Y-97518402D01*
X127779597Y-97685493D01*
X127779603Y-97685498D01*
X127965158Y-97815425D01*
X128008783Y-97870002D01*
X128015977Y-97939500D01*
X127984454Y-98001855D01*
X127965158Y-98018575D01*
X127779597Y-98148505D01*
X127612505Y-98315597D01*
X127476965Y-98509169D01*
X127476964Y-98509171D01*
X127377098Y-98723335D01*
X127377094Y-98723344D01*
X127315938Y-98951586D01*
X127315936Y-98951596D01*
X127295341Y-99186999D01*
X127295341Y-99187000D01*
X127315936Y-99422403D01*
X127315938Y-99422413D01*
X127377094Y-99650655D01*
X127377096Y-99650659D01*
X127377097Y-99650663D01*
X127449839Y-99806658D01*
X127476965Y-99864830D01*
X127476967Y-99864834D01*
X127612501Y-100058395D01*
X127612506Y-100058402D01*
X127779597Y-100225493D01*
X127779603Y-100225498D01*
X127965158Y-100355425D01*
X128008783Y-100410002D01*
X128015977Y-100479500D01*
X127984454Y-100541855D01*
X127965158Y-100558575D01*
X127779597Y-100688505D01*
X127612505Y-100855597D01*
X127476965Y-101049169D01*
X127476964Y-101049171D01*
X127377098Y-101263335D01*
X127377094Y-101263344D01*
X127315938Y-101491586D01*
X127315936Y-101491596D01*
X127295341Y-101726999D01*
X127295341Y-101727000D01*
X127315936Y-101962403D01*
X127315938Y-101962413D01*
X127377094Y-102190655D01*
X127377096Y-102190659D01*
X127377097Y-102190663D01*
X127449839Y-102346658D01*
X127476965Y-102404830D01*
X127476967Y-102404834D01*
X127612501Y-102598395D01*
X127612506Y-102598402D01*
X127779597Y-102765493D01*
X127779603Y-102765498D01*
X127965158Y-102895425D01*
X128008783Y-102950002D01*
X128015977Y-103019500D01*
X127984454Y-103081855D01*
X127965158Y-103098575D01*
X127779597Y-103228505D01*
X127612505Y-103395597D01*
X127476965Y-103589169D01*
X127476964Y-103589171D01*
X127377098Y-103803335D01*
X127377094Y-103803344D01*
X127315938Y-104031586D01*
X127315936Y-104031596D01*
X127295341Y-104266999D01*
X127295341Y-104267000D01*
X127315936Y-104502403D01*
X127315938Y-104502413D01*
X127377094Y-104730655D01*
X127377096Y-104730659D01*
X127377097Y-104730663D01*
X127449839Y-104886658D01*
X127476965Y-104944830D01*
X127476967Y-104944834D01*
X127612501Y-105138395D01*
X127612506Y-105138402D01*
X127779597Y-105305493D01*
X127779603Y-105305498D01*
X127965158Y-105435425D01*
X128008783Y-105490002D01*
X128015977Y-105559500D01*
X127984454Y-105621855D01*
X127965158Y-105638575D01*
X127779597Y-105768505D01*
X127612505Y-105935597D01*
X127476965Y-106129169D01*
X127476964Y-106129171D01*
X127377098Y-106343335D01*
X127377094Y-106343344D01*
X127315938Y-106571586D01*
X127315936Y-106571596D01*
X127295341Y-106806999D01*
X127295341Y-106807000D01*
X127315936Y-107042403D01*
X127315938Y-107042413D01*
X127377094Y-107270655D01*
X127377096Y-107270659D01*
X127377097Y-107270663D01*
X127449839Y-107426658D01*
X127476965Y-107484830D01*
X127476967Y-107484834D01*
X127612501Y-107678395D01*
X127612506Y-107678402D01*
X127779597Y-107845493D01*
X127779603Y-107845498D01*
X127965158Y-107975425D01*
X128008783Y-108030002D01*
X128015977Y-108099500D01*
X127984454Y-108161855D01*
X127965158Y-108178575D01*
X127779597Y-108308505D01*
X127612505Y-108475597D01*
X127476965Y-108669169D01*
X127476964Y-108669171D01*
X127377098Y-108883335D01*
X127377094Y-108883344D01*
X127315938Y-109111586D01*
X127315936Y-109111596D01*
X127295341Y-109346999D01*
X127295341Y-109347000D01*
X127315936Y-109582403D01*
X127315938Y-109582413D01*
X127377094Y-109810655D01*
X127377096Y-109810659D01*
X127377097Y-109810663D01*
X127449839Y-109966658D01*
X127476965Y-110024830D01*
X127476967Y-110024834D01*
X127612501Y-110218395D01*
X127612506Y-110218402D01*
X127779597Y-110385493D01*
X127779603Y-110385498D01*
X127965158Y-110515425D01*
X128008783Y-110570002D01*
X128015977Y-110639500D01*
X127984454Y-110701855D01*
X127965158Y-110718575D01*
X127779597Y-110848505D01*
X127612505Y-111015597D01*
X127476965Y-111209169D01*
X127476964Y-111209171D01*
X127377098Y-111423335D01*
X127377094Y-111423344D01*
X127315938Y-111651586D01*
X127315936Y-111651596D01*
X127295341Y-111886999D01*
X127295341Y-111887000D01*
X127315936Y-112122403D01*
X127315938Y-112122413D01*
X127377094Y-112350655D01*
X127377096Y-112350659D01*
X127377097Y-112350663D01*
X127449839Y-112506658D01*
X127476965Y-112564830D01*
X127476967Y-112564834D01*
X127612501Y-112758395D01*
X127612506Y-112758402D01*
X127779597Y-112925493D01*
X127779603Y-112925498D01*
X127965158Y-113055425D01*
X128008783Y-113110002D01*
X128015977Y-113179500D01*
X127984454Y-113241855D01*
X127965158Y-113258575D01*
X127779597Y-113388505D01*
X127612505Y-113555597D01*
X127476965Y-113749169D01*
X127476964Y-113749171D01*
X127377098Y-113963335D01*
X127377094Y-113963344D01*
X127315938Y-114191586D01*
X127315936Y-114191596D01*
X127295341Y-114426999D01*
X127295341Y-114427000D01*
X127315936Y-114662403D01*
X127315938Y-114662413D01*
X127377094Y-114890655D01*
X127377096Y-114890659D01*
X127377097Y-114890663D01*
X127395317Y-114929735D01*
X127476965Y-115104830D01*
X127476967Y-115104834D01*
X127612501Y-115298395D01*
X127612506Y-115298402D01*
X127779597Y-115465493D01*
X127779603Y-115465498D01*
X127965158Y-115595425D01*
X128008783Y-115650002D01*
X128015977Y-115719500D01*
X127984454Y-115781855D01*
X127965158Y-115798575D01*
X127779597Y-115928505D01*
X127612505Y-116095597D01*
X127476965Y-116289169D01*
X127476964Y-116289171D01*
X127377098Y-116503335D01*
X127377094Y-116503344D01*
X127315938Y-116731586D01*
X127315936Y-116731596D01*
X127295341Y-116966999D01*
X127295341Y-116967000D01*
X127315936Y-117202403D01*
X127315938Y-117202413D01*
X127377094Y-117430655D01*
X127377096Y-117430659D01*
X127377097Y-117430663D01*
X127440906Y-117567501D01*
X127476965Y-117644830D01*
X127476967Y-117644834D01*
X127585281Y-117799521D01*
X127605499Y-117828396D01*
X127612501Y-117838395D01*
X127612506Y-117838402D01*
X127779597Y-118005493D01*
X127779603Y-118005498D01*
X127965594Y-118135730D01*
X128009219Y-118190307D01*
X128016413Y-118259805D01*
X127984890Y-118322160D01*
X127965595Y-118338880D01*
X127779922Y-118468890D01*
X127779920Y-118468891D01*
X127612891Y-118635920D01*
X127612886Y-118635926D01*
X127477400Y-118829420D01*
X127477399Y-118829422D01*
X127377570Y-119043507D01*
X127377567Y-119043513D01*
X127320364Y-119256999D01*
X127320364Y-119257000D01*
X128217988Y-119257000D01*
X128185075Y-119314007D01*
X128151000Y-119441174D01*
X128151000Y-119572826D01*
X128185075Y-119699993D01*
X128217988Y-119757000D01*
X127320364Y-119757000D01*
X127377567Y-119970486D01*
X127377570Y-119970492D01*
X127477399Y-120184578D01*
X127612894Y-120378082D01*
X127779917Y-120545105D01*
X127973421Y-120680600D01*
X128187507Y-120780429D01*
X128187516Y-120780433D01*
X128401000Y-120837634D01*
X128401000Y-119940012D01*
X128458007Y-119972925D01*
X128585174Y-120007000D01*
X128716826Y-120007000D01*
X128843993Y-119972925D01*
X128901000Y-119940012D01*
X128901000Y-120837633D01*
X129114483Y-120780433D01*
X129114492Y-120780429D01*
X129328578Y-120680600D01*
X129522082Y-120545105D01*
X129689105Y-120378082D01*
X129824600Y-120184578D01*
X129924429Y-119970492D01*
X129924432Y-119970486D01*
X129981636Y-119757000D01*
X129084012Y-119757000D01*
X129116925Y-119699993D01*
X129128672Y-119656155D01*
X134893000Y-119656155D01*
X134893000Y-120654000D01*
X135513000Y-120654000D01*
X135513000Y-119204000D01*
X136013000Y-119204000D01*
X136013000Y-122604000D01*
X136035285Y-122626285D01*
X136068770Y-122687608D01*
X136065537Y-122752277D01*
X136063997Y-122757015D01*
X136063995Y-122757023D01*
X136045184Y-122935999D01*
X136063995Y-123114975D01*
X136063996Y-123114977D01*
X136073382Y-123143866D01*
X136119605Y-123286125D01*
X136209585Y-123441975D01*
X136330002Y-123575711D01*
X136338482Y-123581872D01*
X136372984Y-123620190D01*
X136425477Y-123711112D01*
X136425479Y-123711115D01*
X136425480Y-123711116D01*
X136537284Y-123822920D01*
X136537286Y-123822921D01*
X136537290Y-123822924D01*
X136640742Y-123882651D01*
X136674216Y-123901977D01*
X136826943Y-123942900D01*
X136826945Y-123942900D01*
X136985055Y-123942900D01*
X136985057Y-123942900D01*
X137137784Y-123901977D01*
X137269542Y-123825906D01*
X137337442Y-123809434D01*
X137403469Y-123832287D01*
X137446660Y-123887208D01*
X137453301Y-123956761D01*
X137449474Y-123971610D01*
X137435595Y-124014324D01*
X137416784Y-124193300D01*
X137435595Y-124372275D01*
X137435596Y-124372277D01*
X137463537Y-124458273D01*
X137491205Y-124543425D01*
X137581185Y-124699275D01*
X137701602Y-124833011D01*
X137847192Y-124938789D01*
X138011593Y-125011985D01*
X138011596Y-125011985D01*
X138011597Y-125011986D01*
X138039728Y-125017965D01*
X138187620Y-125049400D01*
X138367580Y-125049400D01*
X138543607Y-125011985D01*
X138708008Y-124938789D01*
X138853598Y-124833011D01*
X138974015Y-124699275D01*
X139063995Y-124543425D01*
X139119605Y-124372274D01*
X139138416Y-124193300D01*
X139119605Y-124014326D01*
X139088551Y-123918754D01*
X139086557Y-123848914D01*
X139122637Y-123789081D01*
X139185338Y-123758253D01*
X139254753Y-123766218D01*
X139268482Y-123773049D01*
X139315815Y-123800377D01*
X139468543Y-123841301D01*
X139468546Y-123841301D01*
X139626654Y-123841301D01*
X139626657Y-123841301D01*
X139779385Y-123800377D01*
X139889246Y-123736947D01*
X139957146Y-123720474D01*
X140023173Y-123743326D01*
X140066364Y-123798247D01*
X140073006Y-123867800D01*
X140069178Y-123882651D01*
X140026397Y-124014319D01*
X140026395Y-124014324D01*
X140007584Y-124193300D01*
X140026395Y-124372275D01*
X140026396Y-124372277D01*
X140054337Y-124458273D01*
X140082005Y-124543425D01*
X140171985Y-124699275D01*
X140292402Y-124833011D01*
X140437992Y-124938789D01*
X140602393Y-125011985D01*
X140602396Y-125011985D01*
X140602397Y-125011986D01*
X140630528Y-125017965D01*
X140778420Y-125049400D01*
X140958380Y-125049400D01*
X141134407Y-125011985D01*
X141298808Y-124938789D01*
X141444398Y-124833011D01*
X141564815Y-124699275D01*
X141654795Y-124543425D01*
X141710405Y-124372274D01*
X141729216Y-124193300D01*
X141710405Y-124014326D01*
X141670440Y-123891328D01*
X141668446Y-123821488D01*
X141704527Y-123761655D01*
X141767228Y-123730827D01*
X141836642Y-123738792D01*
X141838807Y-123739731D01*
X141872393Y-123754685D01*
X142048420Y-123792100D01*
X142228379Y-123792100D01*
X142228380Y-123792100D01*
X142404387Y-123754689D01*
X142474051Y-123760005D01*
X142529785Y-123802142D01*
X142553890Y-123867722D01*
X142548096Y-123914296D01*
X142515597Y-124014319D01*
X142515595Y-124014324D01*
X142496784Y-124193300D01*
X142515595Y-124372275D01*
X142515596Y-124372277D01*
X142543537Y-124458273D01*
X142571205Y-124543425D01*
X142661185Y-124699275D01*
X142781602Y-124833011D01*
X142927192Y-124938789D01*
X143091593Y-125011985D01*
X143091596Y-125011985D01*
X143091597Y-125011986D01*
X143119728Y-125017965D01*
X143267620Y-125049400D01*
X143447580Y-125049400D01*
X143623607Y-125011985D01*
X143788008Y-124938789D01*
X143933598Y-124833011D01*
X144054015Y-124699275D01*
X144143995Y-124543425D01*
X144199605Y-124372274D01*
X144218416Y-124193300D01*
X144199605Y-124014326D01*
X144155344Y-123878106D01*
X144153350Y-123808265D01*
X144189431Y-123748433D01*
X144252132Y-123717605D01*
X144321546Y-123725570D01*
X144323667Y-123726490D01*
X144386993Y-123754685D01*
X144563020Y-123792100D01*
X144742980Y-123792100D01*
X144919007Y-123754685D01*
X144922890Y-123752955D01*
X144992139Y-123743667D01*
X145055417Y-123773291D01*
X145092634Y-123832424D01*
X145091973Y-123902290D01*
X145091263Y-123904549D01*
X145055597Y-124014319D01*
X145055595Y-124014324D01*
X145036784Y-124193300D01*
X145055595Y-124372275D01*
X145055596Y-124372277D01*
X145083537Y-124458273D01*
X145111205Y-124543425D01*
X145201185Y-124699275D01*
X145321602Y-124833011D01*
X145467192Y-124938789D01*
X145631593Y-125011985D01*
X145631596Y-125011985D01*
X145631597Y-125011986D01*
X145659728Y-125017965D01*
X145807620Y-125049400D01*
X145987580Y-125049400D01*
X146163607Y-125011985D01*
X146328008Y-124938789D01*
X146473598Y-124833011D01*
X146594015Y-124699275D01*
X146683995Y-124543425D01*
X146739605Y-124372274D01*
X146758416Y-124193300D01*
X146739605Y-124014326D01*
X146695344Y-123878106D01*
X146693350Y-123808265D01*
X146729431Y-123748433D01*
X146792132Y-123717605D01*
X146861546Y-123725570D01*
X146863667Y-123726490D01*
X146926993Y-123754685D01*
X147103020Y-123792100D01*
X147282979Y-123792100D01*
X147282980Y-123792100D01*
X147431700Y-123760489D01*
X147501366Y-123765805D01*
X147557100Y-123807942D01*
X147581205Y-123873522D01*
X147575411Y-123920096D01*
X147544797Y-124014319D01*
X147544795Y-124014324D01*
X147525984Y-124193300D01*
X147544795Y-124372275D01*
X147544796Y-124372277D01*
X147572737Y-124458273D01*
X147600405Y-124543425D01*
X147690385Y-124699275D01*
X147810802Y-124833011D01*
X147956392Y-124938789D01*
X148120793Y-125011985D01*
X148120796Y-125011985D01*
X148120797Y-125011986D01*
X148148928Y-125017965D01*
X148296820Y-125049400D01*
X148476780Y-125049400D01*
X148652807Y-125011985D01*
X148817208Y-124938789D01*
X148962798Y-124833011D01*
X149083215Y-124699275D01*
X149173195Y-124543425D01*
X149228805Y-124372274D01*
X149247616Y-124193300D01*
X149228805Y-124014326D01*
X149175952Y-123851663D01*
X149173958Y-123781823D01*
X149210039Y-123721990D01*
X149272740Y-123691162D01*
X149342154Y-123699127D01*
X149344276Y-123700048D01*
X149466993Y-123754685D01*
X149643020Y-123792100D01*
X149822980Y-123792100D01*
X149999007Y-123754685D01*
X150002890Y-123752955D01*
X150072139Y-123743667D01*
X150135417Y-123773291D01*
X150172634Y-123832424D01*
X150171973Y-123902290D01*
X150171263Y-123904549D01*
X150135597Y-124014319D01*
X150135595Y-124014324D01*
X150116784Y-124193300D01*
X150135595Y-124372275D01*
X150135596Y-124372277D01*
X150163537Y-124458273D01*
X150191205Y-124543425D01*
X150281185Y-124699275D01*
X150401602Y-124833011D01*
X150547192Y-124938789D01*
X150711593Y-125011985D01*
X150711596Y-125011985D01*
X150711597Y-125011986D01*
X150739728Y-125017965D01*
X150887620Y-125049400D01*
X151067580Y-125049400D01*
X151243607Y-125011985D01*
X151408008Y-124938789D01*
X151553598Y-124833011D01*
X151674015Y-124699275D01*
X151763995Y-124543425D01*
X151819605Y-124372274D01*
X151838416Y-124193300D01*
X151819605Y-124014326D01*
X151763995Y-123843175D01*
X151682628Y-123702243D01*
X151666155Y-123634343D01*
X151689008Y-123568316D01*
X151743929Y-123525125D01*
X151813482Y-123518484D01*
X151875585Y-123550500D01*
X151877696Y-123552562D01*
X152787356Y-124462222D01*
X152787385Y-124462253D01*
X152902647Y-124577515D01*
X152902651Y-124577518D01*
X153034540Y-124665644D01*
X153034553Y-124665651D01*
X153115730Y-124699275D01*
X153181103Y-124726353D01*
X153181107Y-124726353D01*
X153181108Y-124726354D01*
X153336681Y-124757301D01*
X153336684Y-124757301D01*
X153501429Y-124757301D01*
X153501449Y-124757300D01*
X154854551Y-124757300D01*
X154854571Y-124757301D01*
X154860685Y-124757301D01*
X155019317Y-124757301D01*
X155123982Y-124736480D01*
X155174897Y-124726353D01*
X155321453Y-124665648D01*
X155358365Y-124640984D01*
X155453349Y-124577518D01*
X155565518Y-124465349D01*
X155565519Y-124465347D01*
X155572585Y-124458281D01*
X155572588Y-124458277D01*
X157485345Y-122545520D01*
X157485349Y-122545518D01*
X157597518Y-122433349D01*
X157685648Y-122301453D01*
X157746353Y-122154897D01*
X157746955Y-122151872D01*
X157777301Y-121999315D01*
X157777301Y-121840685D01*
X157777301Y-121835575D01*
X157777300Y-121835549D01*
X157777300Y-119891927D01*
X157796985Y-119824888D01*
X157813614Y-119804251D01*
X158966321Y-118651544D01*
X159027642Y-118618061D01*
X159097334Y-118623045D01*
X159153267Y-118664917D01*
X159177684Y-118730381D01*
X159178000Y-118739227D01*
X159178000Y-119247000D01*
X160094988Y-119247000D01*
X160062075Y-119304007D01*
X160028000Y-119431174D01*
X160028000Y-119562826D01*
X160062075Y-119689993D01*
X160094988Y-119747000D01*
X159178000Y-119747000D01*
X159178000Y-120394844D01*
X159184401Y-120454372D01*
X159184403Y-120454379D01*
X159234645Y-120589086D01*
X159234649Y-120589093D01*
X159320809Y-120704187D01*
X159320812Y-120704190D01*
X159435906Y-120790350D01*
X159435913Y-120790354D01*
X159570620Y-120840596D01*
X159570627Y-120840598D01*
X159630155Y-120846999D01*
X159630172Y-120847000D01*
X160278000Y-120847000D01*
X160278000Y-119930012D01*
X160335007Y-119962925D01*
X160462174Y-119997000D01*
X160593826Y-119997000D01*
X160720993Y-119962925D01*
X160778000Y-119930012D01*
X160778000Y-120847000D01*
X161425828Y-120847000D01*
X161425844Y-120846999D01*
X161485372Y-120840598D01*
X161485379Y-120840596D01*
X161620086Y-120790354D01*
X161620093Y-120790350D01*
X161735187Y-120704190D01*
X161735190Y-120704187D01*
X161821350Y-120589093D01*
X161821354Y-120589086D01*
X161871596Y-120454379D01*
X161871598Y-120454372D01*
X161877999Y-120394844D01*
X161878000Y-120394827D01*
X161878000Y-119747000D01*
X160961012Y-119747000D01*
X160993925Y-119689993D01*
X161028000Y-119562826D01*
X161028000Y-119431174D01*
X160993925Y-119304007D01*
X160961012Y-119247000D01*
X161878000Y-119247000D01*
X161878000Y-118599172D01*
X161877999Y-118599155D01*
X161871598Y-118539627D01*
X161871596Y-118539620D01*
X161821354Y-118404913D01*
X161821350Y-118404906D01*
X161735190Y-118289812D01*
X161735187Y-118289809D01*
X161620093Y-118203649D01*
X161620088Y-118203646D01*
X161488528Y-118154577D01*
X161432595Y-118112705D01*
X161408178Y-118047241D01*
X161423030Y-117978968D01*
X161444175Y-117950720D01*
X161566495Y-117828401D01*
X161702035Y-117634830D01*
X161801903Y-117420663D01*
X161863063Y-117192408D01*
X161883659Y-116957000D01*
X161863063Y-116721592D01*
X161804584Y-116503344D01*
X161801905Y-116493344D01*
X161801904Y-116493343D01*
X161801903Y-116493337D01*
X161702035Y-116279171D01*
X161676957Y-116243355D01*
X161566494Y-116085597D01*
X161399402Y-115918506D01*
X161399396Y-115918501D01*
X161213842Y-115788575D01*
X161170217Y-115733998D01*
X161163023Y-115664500D01*
X161194546Y-115602145D01*
X161213842Y-115585425D01*
X161385115Y-115465498D01*
X161399401Y-115455495D01*
X161566495Y-115288401D01*
X161702035Y-115094830D01*
X161801903Y-114880663D01*
X161863063Y-114652408D01*
X161883659Y-114417000D01*
X161863063Y-114181592D01*
X161804584Y-113963344D01*
X161801905Y-113953344D01*
X161801904Y-113953343D01*
X161801903Y-113953337D01*
X161702035Y-113739171D01*
X161682378Y-113711097D01*
X161566494Y-113545597D01*
X161399402Y-113378506D01*
X161399396Y-113378501D01*
X161213842Y-113248575D01*
X161170217Y-113193998D01*
X161163023Y-113124500D01*
X161194546Y-113062145D01*
X161213842Y-113045425D01*
X161280229Y-112998940D01*
X161399401Y-112915495D01*
X161566495Y-112748401D01*
X161702035Y-112554830D01*
X161801903Y-112340663D01*
X161863063Y-112112408D01*
X161883659Y-111877000D01*
X161882092Y-111859095D01*
X161864840Y-111661901D01*
X161863063Y-111641592D01*
X161804584Y-111423344D01*
X161801905Y-111413344D01*
X161801904Y-111413343D01*
X161801903Y-111413337D01*
X161702035Y-111199171D01*
X161682378Y-111171097D01*
X161566494Y-111005597D01*
X161399402Y-110838506D01*
X161399396Y-110838501D01*
X161213842Y-110708575D01*
X161170217Y-110653998D01*
X161163023Y-110584500D01*
X161194546Y-110522145D01*
X161213842Y-110505425D01*
X161280229Y-110458940D01*
X161399401Y-110375495D01*
X161566495Y-110208401D01*
X161702035Y-110014830D01*
X161801903Y-109800663D01*
X161863063Y-109572408D01*
X161883659Y-109337000D01*
X161863063Y-109101592D01*
X161804584Y-108883344D01*
X161801905Y-108873344D01*
X161801904Y-108873343D01*
X161801903Y-108873337D01*
X161702035Y-108659171D01*
X161682378Y-108631097D01*
X161566494Y-108465597D01*
X161399402Y-108298506D01*
X161399396Y-108298501D01*
X161213842Y-108168575D01*
X161170217Y-108113998D01*
X161163023Y-108044500D01*
X161194546Y-107982145D01*
X161213842Y-107965425D01*
X161280229Y-107918940D01*
X161399401Y-107835495D01*
X161566495Y-107668401D01*
X161702035Y-107474830D01*
X161801903Y-107260663D01*
X161863063Y-107032408D01*
X161883659Y-106797000D01*
X161882092Y-106779095D01*
X161864840Y-106581901D01*
X161863063Y-106561592D01*
X161804584Y-106343344D01*
X161801905Y-106333344D01*
X161801904Y-106333343D01*
X161801903Y-106333337D01*
X161702035Y-106119171D01*
X161682378Y-106091097D01*
X161566494Y-105925597D01*
X161399402Y-105758506D01*
X161399396Y-105758501D01*
X161213842Y-105628575D01*
X161170217Y-105573998D01*
X161163023Y-105504500D01*
X161194546Y-105442145D01*
X161213842Y-105425425D01*
X161280229Y-105378940D01*
X161399401Y-105295495D01*
X161566495Y-105128401D01*
X161702035Y-104934830D01*
X161801903Y-104720663D01*
X161863063Y-104492408D01*
X161883659Y-104257000D01*
X161863063Y-104021592D01*
X161804584Y-103803344D01*
X161801905Y-103793344D01*
X161801904Y-103793343D01*
X161801903Y-103793337D01*
X161702035Y-103579171D01*
X161566495Y-103385599D01*
X161566494Y-103385597D01*
X161399402Y-103218506D01*
X161399396Y-103218501D01*
X161213842Y-103088575D01*
X161170217Y-103033998D01*
X161163023Y-102964500D01*
X161194546Y-102902145D01*
X161213842Y-102885425D01*
X161236026Y-102869891D01*
X161399401Y-102755495D01*
X161566495Y-102588401D01*
X161702035Y-102394830D01*
X161801903Y-102180663D01*
X161863063Y-101952408D01*
X161883659Y-101717000D01*
X161863063Y-101481592D01*
X161804584Y-101263344D01*
X161801905Y-101253344D01*
X161801904Y-101253343D01*
X161801903Y-101253337D01*
X161702035Y-101039171D01*
X161566495Y-100845599D01*
X161566494Y-100845597D01*
X161399402Y-100678506D01*
X161399396Y-100678501D01*
X161213842Y-100548575D01*
X161170217Y-100493998D01*
X161163023Y-100424500D01*
X161194546Y-100362145D01*
X161213842Y-100345425D01*
X161385115Y-100225498D01*
X161399401Y-100215495D01*
X161566495Y-100048401D01*
X161702035Y-99854830D01*
X161801903Y-99640663D01*
X161863063Y-99412408D01*
X161883659Y-99177000D01*
X161863063Y-98941592D01*
X161804584Y-98723344D01*
X161801905Y-98713344D01*
X161801904Y-98713343D01*
X161801903Y-98713337D01*
X161702035Y-98499171D01*
X161566495Y-98305599D01*
X161566494Y-98305597D01*
X161399402Y-98138506D01*
X161399396Y-98138501D01*
X161213842Y-98008575D01*
X161170217Y-97953998D01*
X161163023Y-97884500D01*
X161194546Y-97822145D01*
X161213842Y-97805425D01*
X161385115Y-97685498D01*
X161399401Y-97675495D01*
X161566495Y-97508401D01*
X161702035Y-97314830D01*
X161801903Y-97100663D01*
X161863063Y-96872408D01*
X161883659Y-96637000D01*
X161863063Y-96401592D01*
X161804584Y-96183344D01*
X161801905Y-96173344D01*
X161801904Y-96173343D01*
X161801903Y-96173337D01*
X161702035Y-95959171D01*
X161566495Y-95765599D01*
X161566494Y-95765597D01*
X161399402Y-95598506D01*
X161399396Y-95598501D01*
X161213842Y-95468575D01*
X161170217Y-95413998D01*
X161163023Y-95344500D01*
X161194546Y-95282145D01*
X161213842Y-95265425D01*
X161385115Y-95145498D01*
X161399401Y-95135495D01*
X161566495Y-94968401D01*
X161702035Y-94774830D01*
X161801903Y-94560663D01*
X161863063Y-94332408D01*
X161883659Y-94097000D01*
X161863063Y-93861592D01*
X161804584Y-93643344D01*
X161801905Y-93633344D01*
X161801904Y-93633343D01*
X161801903Y-93633337D01*
X161702035Y-93419171D01*
X161566495Y-93225599D01*
X161566494Y-93225597D01*
X161399402Y-93058506D01*
X161399396Y-93058501D01*
X161213842Y-92928575D01*
X161170217Y-92873998D01*
X161163023Y-92804500D01*
X161194546Y-92742145D01*
X161213842Y-92725425D01*
X161385115Y-92605498D01*
X161399401Y-92595495D01*
X161566495Y-92428401D01*
X161702035Y-92234830D01*
X161801903Y-92020663D01*
X161863063Y-91792408D01*
X161883659Y-91557000D01*
X161863063Y-91321592D01*
X161804584Y-91103344D01*
X161801905Y-91093344D01*
X161801904Y-91093343D01*
X161801903Y-91093337D01*
X161702035Y-90879171D01*
X161566495Y-90685599D01*
X161566494Y-90685597D01*
X161399402Y-90518506D01*
X161399396Y-90518501D01*
X161213842Y-90388575D01*
X161170217Y-90333998D01*
X161163023Y-90264500D01*
X161194546Y-90202145D01*
X161213842Y-90185425D01*
X161385115Y-90065498D01*
X161399401Y-90055495D01*
X161566495Y-89888401D01*
X161702035Y-89694830D01*
X161801903Y-89480663D01*
X161863063Y-89252408D01*
X161883659Y-89017000D01*
X161863063Y-88781592D01*
X161804584Y-88563344D01*
X161801905Y-88553344D01*
X161801904Y-88553343D01*
X161801903Y-88553337D01*
X161702035Y-88339171D01*
X161683957Y-88313352D01*
X161566494Y-88145597D01*
X161399402Y-87978506D01*
X161399396Y-87978501D01*
X161213842Y-87848575D01*
X161170217Y-87793998D01*
X161163023Y-87724500D01*
X161194546Y-87662145D01*
X161213842Y-87645425D01*
X161236026Y-87629891D01*
X161399401Y-87515495D01*
X161566495Y-87348401D01*
X161702035Y-87154830D01*
X161801903Y-86940663D01*
X161863063Y-86712408D01*
X161883659Y-86477000D01*
X161863063Y-86241592D01*
X161801903Y-86013337D01*
X161702035Y-85799171D01*
X161566495Y-85605599D01*
X161566494Y-85605597D01*
X161399402Y-85438506D01*
X161399401Y-85438505D01*
X161213405Y-85308269D01*
X161169781Y-85253692D01*
X161162588Y-85184193D01*
X161194110Y-85121839D01*
X161213405Y-85105119D01*
X161399082Y-84975105D01*
X161566105Y-84808082D01*
X161701600Y-84614578D01*
X161801429Y-84400492D01*
X161801432Y-84400486D01*
X161858636Y-84187000D01*
X160961012Y-84187000D01*
X160993925Y-84129993D01*
X161028000Y-84002826D01*
X161028000Y-83871174D01*
X160993925Y-83744007D01*
X160961012Y-83687000D01*
X161858636Y-83687000D01*
X161858635Y-83686999D01*
X161801432Y-83473513D01*
X161801429Y-83473507D01*
X161701600Y-83259422D01*
X161701599Y-83259420D01*
X161566113Y-83065926D01*
X161566108Y-83065920D01*
X161399082Y-82898894D01*
X161205578Y-82763399D01*
X160991492Y-82663570D01*
X160991486Y-82663567D01*
X160778000Y-82606364D01*
X160778000Y-83503988D01*
X160720993Y-83471075D01*
X160593826Y-83437000D01*
X160462174Y-83437000D01*
X160335007Y-83471075D01*
X160278000Y-83503988D01*
X160278000Y-82606364D01*
X160277999Y-82606364D01*
X160064513Y-82663567D01*
X160064507Y-82663570D01*
X159850422Y-82763399D01*
X159850420Y-82763400D01*
X159656926Y-82898886D01*
X159656920Y-82898891D01*
X159489891Y-83065920D01*
X159489886Y-83065926D01*
X159354400Y-83259420D01*
X159354399Y-83259422D01*
X159254570Y-83473507D01*
X159254567Y-83473513D01*
X159197364Y-83686999D01*
X159197364Y-83687000D01*
X160094988Y-83687000D01*
X160062075Y-83744007D01*
X160028000Y-83871174D01*
X160028000Y-84002826D01*
X160062075Y-84129993D01*
X160094988Y-84187000D01*
X159197364Y-84187000D01*
X159254567Y-84400486D01*
X159254570Y-84400492D01*
X159354399Y-84614578D01*
X159489894Y-84808082D01*
X159656917Y-84975105D01*
X159842595Y-85105119D01*
X159886219Y-85159696D01*
X159893412Y-85229195D01*
X159861890Y-85291549D01*
X159842595Y-85308269D01*
X159656594Y-85438508D01*
X159489505Y-85605597D01*
X159353965Y-85799169D01*
X159353964Y-85799171D01*
X159254098Y-86013335D01*
X159254094Y-86013344D01*
X159192938Y-86241586D01*
X159192936Y-86241596D01*
X159172341Y-86476999D01*
X159172341Y-86477000D01*
X159192936Y-86712403D01*
X159192938Y-86712413D01*
X159254094Y-86940655D01*
X159254096Y-86940659D01*
X159254097Y-86940663D01*
X159353965Y-87154830D01*
X159353967Y-87154834D01*
X159489501Y-87348395D01*
X159489506Y-87348402D01*
X159656597Y-87515493D01*
X159656603Y-87515498D01*
X159842158Y-87645425D01*
X159885783Y-87700002D01*
X159892977Y-87769500D01*
X159861454Y-87831855D01*
X159842158Y-87848575D01*
X159656597Y-87978505D01*
X159489505Y-88145597D01*
X159353965Y-88339169D01*
X159353964Y-88339171D01*
X159254098Y-88553335D01*
X159254094Y-88553344D01*
X159192938Y-88781586D01*
X159192936Y-88781596D01*
X159172341Y-89016999D01*
X159172341Y-89017000D01*
X159192936Y-89252403D01*
X159192938Y-89252413D01*
X159254094Y-89480655D01*
X159254096Y-89480659D01*
X159254097Y-89480663D01*
X159258761Y-89490664D01*
X159353965Y-89694830D01*
X159353967Y-89694834D01*
X159450223Y-89832300D01*
X159475653Y-89868619D01*
X159489501Y-89888395D01*
X159489506Y-89888402D01*
X159656597Y-90055493D01*
X159656603Y-90055498D01*
X159842158Y-90185425D01*
X159885783Y-90240002D01*
X159892977Y-90309500D01*
X159861454Y-90371855D01*
X159842158Y-90388575D01*
X159656597Y-90518505D01*
X159489505Y-90685597D01*
X159353965Y-90879169D01*
X159353964Y-90879171D01*
X159280667Y-91036358D01*
X159257295Y-91086480D01*
X159254098Y-91093335D01*
X159254094Y-91093344D01*
X159192938Y-91321586D01*
X159192936Y-91321596D01*
X159172341Y-91556999D01*
X159172341Y-91557000D01*
X159192936Y-91792403D01*
X159192938Y-91792413D01*
X159254094Y-92020655D01*
X159254096Y-92020659D01*
X159254097Y-92020663D01*
X159331502Y-92186658D01*
X159353965Y-92234830D01*
X159353967Y-92234834D01*
X159489501Y-92428395D01*
X159489506Y-92428402D01*
X159656597Y-92595493D01*
X159656603Y-92595498D01*
X159842158Y-92725425D01*
X159885783Y-92780002D01*
X159892977Y-92849500D01*
X159861454Y-92911855D01*
X159842158Y-92928575D01*
X159656597Y-93058505D01*
X159489505Y-93225597D01*
X159353965Y-93419169D01*
X159353964Y-93419171D01*
X159280667Y-93576358D01*
X159257295Y-93626480D01*
X159254098Y-93633335D01*
X159254094Y-93633344D01*
X159192938Y-93861586D01*
X159192936Y-93861596D01*
X159172341Y-94096999D01*
X159172341Y-94097000D01*
X159192936Y-94332403D01*
X159192938Y-94332413D01*
X159254094Y-94560655D01*
X159254096Y-94560659D01*
X159254097Y-94560663D01*
X159331502Y-94726658D01*
X159353965Y-94774830D01*
X159353967Y-94774834D01*
X159489501Y-94968395D01*
X159489506Y-94968402D01*
X159656597Y-95135493D01*
X159656603Y-95135498D01*
X159842158Y-95265425D01*
X159885783Y-95320002D01*
X159892977Y-95389500D01*
X159861454Y-95451855D01*
X159842158Y-95468575D01*
X159656597Y-95598505D01*
X159489505Y-95765597D01*
X159353965Y-95959169D01*
X159353964Y-95959171D01*
X159280667Y-96116358D01*
X159257295Y-96166480D01*
X159254098Y-96173335D01*
X159254094Y-96173344D01*
X159192938Y-96401586D01*
X159192936Y-96401596D01*
X159172341Y-96636999D01*
X159172341Y-96637000D01*
X159192936Y-96872403D01*
X159192938Y-96872413D01*
X159254094Y-97100655D01*
X159254096Y-97100659D01*
X159254097Y-97100663D01*
X159331502Y-97266658D01*
X159353965Y-97314830D01*
X159353967Y-97314834D01*
X159489501Y-97508395D01*
X159489506Y-97508402D01*
X159656597Y-97675493D01*
X159656603Y-97675498D01*
X159842158Y-97805425D01*
X159885783Y-97860002D01*
X159892977Y-97929500D01*
X159861454Y-97991855D01*
X159842158Y-98008575D01*
X159656597Y-98138505D01*
X159489505Y-98305597D01*
X159353965Y-98499169D01*
X159353964Y-98499171D01*
X159280667Y-98656358D01*
X159257295Y-98706480D01*
X159254098Y-98713335D01*
X159254094Y-98713344D01*
X159192938Y-98941586D01*
X159192936Y-98941596D01*
X159172341Y-99176999D01*
X159172341Y-99177000D01*
X159192936Y-99412403D01*
X159192938Y-99412413D01*
X159254094Y-99640655D01*
X159254096Y-99640659D01*
X159254097Y-99640663D01*
X159331502Y-99806658D01*
X159353965Y-99854830D01*
X159353967Y-99854834D01*
X159489501Y-100048395D01*
X159489506Y-100048402D01*
X159656597Y-100215493D01*
X159656603Y-100215498D01*
X159842158Y-100345425D01*
X159885783Y-100400002D01*
X159892977Y-100469500D01*
X159861454Y-100531855D01*
X159842158Y-100548575D01*
X159656597Y-100678505D01*
X159489505Y-100845597D01*
X159353965Y-101039169D01*
X159353964Y-101039171D01*
X159280667Y-101196358D01*
X159257295Y-101246480D01*
X159254098Y-101253335D01*
X159254094Y-101253344D01*
X159192938Y-101481586D01*
X159192936Y-101481596D01*
X159172341Y-101716999D01*
X159172341Y-101717000D01*
X159192936Y-101952403D01*
X159192938Y-101952413D01*
X159254094Y-102180655D01*
X159254096Y-102180659D01*
X159254097Y-102180663D01*
X159331502Y-102346658D01*
X159353965Y-102394830D01*
X159353967Y-102394834D01*
X159489501Y-102588395D01*
X159489506Y-102588402D01*
X159656597Y-102755493D01*
X159656603Y-102755498D01*
X159842158Y-102885425D01*
X159885783Y-102940002D01*
X159892977Y-103009500D01*
X159861454Y-103071855D01*
X159842158Y-103088575D01*
X159656597Y-103218505D01*
X159489505Y-103385597D01*
X159353965Y-103579169D01*
X159353964Y-103579171D01*
X159280667Y-103736358D01*
X159257295Y-103786480D01*
X159254098Y-103793335D01*
X159254094Y-103793344D01*
X159192938Y-104021586D01*
X159192936Y-104021596D01*
X159172341Y-104256999D01*
X159172341Y-104257000D01*
X159192936Y-104492403D01*
X159192938Y-104492413D01*
X159254094Y-104720655D01*
X159254096Y-104720659D01*
X159254097Y-104720663D01*
X159331502Y-104886658D01*
X159353965Y-104934830D01*
X159353967Y-104934834D01*
X159489501Y-105128395D01*
X159489506Y-105128402D01*
X159656597Y-105295493D01*
X159656603Y-105295498D01*
X159842158Y-105425425D01*
X159885783Y-105480002D01*
X159892977Y-105549500D01*
X159861454Y-105611855D01*
X159842158Y-105628575D01*
X159656597Y-105758505D01*
X159489505Y-105925597D01*
X159353965Y-106119169D01*
X159353964Y-106119171D01*
X159282923Y-106271519D01*
X159257295Y-106326480D01*
X159254098Y-106333335D01*
X159254094Y-106333344D01*
X159192938Y-106561586D01*
X159192936Y-106561596D01*
X159172341Y-106796999D01*
X159172341Y-106797000D01*
X159192936Y-107032403D01*
X159192938Y-107032413D01*
X159254094Y-107260655D01*
X159254096Y-107260659D01*
X159254097Y-107260663D01*
X159331502Y-107426658D01*
X159353965Y-107474830D01*
X159353967Y-107474834D01*
X159489501Y-107668395D01*
X159489506Y-107668402D01*
X159656597Y-107835493D01*
X159656603Y-107835498D01*
X159842158Y-107965425D01*
X159885783Y-108020002D01*
X159892977Y-108089500D01*
X159861454Y-108151855D01*
X159842158Y-108168575D01*
X159656597Y-108298505D01*
X159489505Y-108465597D01*
X159353965Y-108659169D01*
X159353964Y-108659171D01*
X159282923Y-108811519D01*
X159257295Y-108866480D01*
X159254098Y-108873335D01*
X159254094Y-108873344D01*
X159192938Y-109101586D01*
X159192936Y-109101596D01*
X159172341Y-109336999D01*
X159172341Y-109337000D01*
X159192936Y-109572403D01*
X159192938Y-109572413D01*
X159254094Y-109800655D01*
X159254096Y-109800659D01*
X159254097Y-109800663D01*
X159331502Y-109966658D01*
X159353965Y-110014830D01*
X159353967Y-110014834D01*
X159489501Y-110208395D01*
X159489506Y-110208402D01*
X159656597Y-110375493D01*
X159656603Y-110375498D01*
X159842158Y-110505425D01*
X159885783Y-110560002D01*
X159892977Y-110629500D01*
X159861454Y-110691855D01*
X159842158Y-110708575D01*
X159656597Y-110838505D01*
X159489505Y-111005597D01*
X159353965Y-111199169D01*
X159353964Y-111199171D01*
X159282923Y-111351519D01*
X159257295Y-111406480D01*
X159254098Y-111413335D01*
X159254094Y-111413344D01*
X159192938Y-111641586D01*
X159192936Y-111641596D01*
X159172341Y-111876999D01*
X159172341Y-111877000D01*
X159192936Y-112112403D01*
X159192938Y-112112413D01*
X159254094Y-112340655D01*
X159254096Y-112340659D01*
X159254097Y-112340663D01*
X159331502Y-112506658D01*
X159353965Y-112554830D01*
X159353967Y-112554834D01*
X159489501Y-112748395D01*
X159489506Y-112748402D01*
X159656597Y-112915493D01*
X159656603Y-112915498D01*
X159842158Y-113045425D01*
X159885783Y-113100002D01*
X159892977Y-113169500D01*
X159861454Y-113231855D01*
X159842158Y-113248575D01*
X159656597Y-113378505D01*
X159489505Y-113545597D01*
X159353965Y-113739169D01*
X159353964Y-113739171D01*
X159254098Y-113953335D01*
X159254094Y-113953344D01*
X159192938Y-114181586D01*
X159192936Y-114181596D01*
X159172341Y-114416999D01*
X159172341Y-114417000D01*
X159192936Y-114652403D01*
X159192938Y-114652413D01*
X159254094Y-114880655D01*
X159254096Y-114880659D01*
X159254097Y-114880663D01*
X159258761Y-114890664D01*
X159353965Y-115094830D01*
X159353967Y-115094834D01*
X159489501Y-115288395D01*
X159489506Y-115288402D01*
X159656597Y-115455493D01*
X159656603Y-115455498D01*
X159842158Y-115585425D01*
X159885783Y-115640002D01*
X159892977Y-115709500D01*
X159861454Y-115771855D01*
X159842158Y-115788575D01*
X159656597Y-115918505D01*
X159489508Y-116085595D01*
X159489497Y-116085608D01*
X159471861Y-116110795D01*
X159417284Y-116154419D01*
X159394479Y-116161287D01*
X159287110Y-116182644D01*
X159287102Y-116182646D01*
X159140550Y-116243350D01*
X159140540Y-116243355D01*
X159008651Y-116331481D01*
X159008647Y-116331484D01*
X157088289Y-118251844D01*
X156458653Y-118881480D01*
X156458651Y-118881482D01*
X156402565Y-118937567D01*
X156346480Y-118993652D01*
X156258355Y-119125540D01*
X156258348Y-119125553D01*
X156197648Y-119272098D01*
X156197645Y-119272108D01*
X156166699Y-119427682D01*
X156166699Y-119592428D01*
X156166700Y-119592449D01*
X156166700Y-121535072D01*
X156147015Y-121602111D01*
X156130381Y-121622753D01*
X154642753Y-123110381D01*
X154581430Y-123143866D01*
X154555072Y-123146700D01*
X153800928Y-123146700D01*
X153733889Y-123127015D01*
X153713247Y-123110381D01*
X153329319Y-122726453D01*
X153295834Y-122665130D01*
X153293000Y-122638772D01*
X153293000Y-122604000D01*
X153793000Y-122604000D01*
X153960828Y-122604000D01*
X153960844Y-122603999D01*
X154020372Y-122597598D01*
X154020379Y-122597596D01*
X154155086Y-122547354D01*
X154155093Y-122547350D01*
X154270187Y-122461190D01*
X154270190Y-122461187D01*
X154356350Y-122346093D01*
X154356354Y-122346086D01*
X154406596Y-122211379D01*
X154406598Y-122211372D01*
X154412999Y-122151844D01*
X154413000Y-122151827D01*
X154413000Y-121154000D01*
X153793000Y-121154000D01*
X153793000Y-122604000D01*
X153293000Y-122604000D01*
X153293000Y-120654000D01*
X153793000Y-120654000D01*
X154413000Y-120654000D01*
X154413000Y-119656172D01*
X154412999Y-119656155D01*
X154406598Y-119596627D01*
X154406596Y-119596620D01*
X154356354Y-119461913D01*
X154356350Y-119461906D01*
X154270190Y-119346812D01*
X154270187Y-119346809D01*
X154155093Y-119260649D01*
X154155086Y-119260645D01*
X154020379Y-119210403D01*
X154020372Y-119210401D01*
X153960844Y-119204000D01*
X153793000Y-119204000D01*
X153793000Y-120654000D01*
X153293000Y-120654000D01*
X153293000Y-119204000D01*
X153125155Y-119204000D01*
X153065627Y-119210401D01*
X153065620Y-119210403D01*
X152952047Y-119252763D01*
X152882355Y-119257747D01*
X152865381Y-119252763D01*
X152750482Y-119209908D01*
X152750483Y-119209908D01*
X152690883Y-119203501D01*
X152690881Y-119203500D01*
X152690873Y-119203500D01*
X152690864Y-119203500D01*
X151855129Y-119203500D01*
X151855123Y-119203501D01*
X151795516Y-119209908D01*
X151681333Y-119252496D01*
X151611641Y-119257480D01*
X151594667Y-119252496D01*
X151480482Y-119209908D01*
X151480483Y-119209908D01*
X151420883Y-119203501D01*
X151420881Y-119203500D01*
X151420873Y-119203500D01*
X151420864Y-119203500D01*
X150585129Y-119203500D01*
X150585123Y-119203501D01*
X150525516Y-119209908D01*
X150411333Y-119252496D01*
X150341641Y-119257480D01*
X150324667Y-119252496D01*
X150210482Y-119209908D01*
X150210483Y-119209908D01*
X150150883Y-119203501D01*
X150150881Y-119203500D01*
X150150873Y-119203500D01*
X150150864Y-119203500D01*
X149315129Y-119203500D01*
X149315123Y-119203501D01*
X149255516Y-119209908D01*
X149141333Y-119252496D01*
X149071641Y-119257480D01*
X149054667Y-119252496D01*
X148940482Y-119209908D01*
X148940483Y-119209908D01*
X148880883Y-119203501D01*
X148880881Y-119203500D01*
X148880873Y-119203500D01*
X148880864Y-119203500D01*
X148045129Y-119203500D01*
X148045123Y-119203501D01*
X147985516Y-119209908D01*
X147871333Y-119252496D01*
X147801641Y-119257480D01*
X147784667Y-119252496D01*
X147670482Y-119209908D01*
X147670483Y-119209908D01*
X147610883Y-119203501D01*
X147610881Y-119203500D01*
X147610873Y-119203500D01*
X147610864Y-119203500D01*
X146775129Y-119203500D01*
X146775123Y-119203501D01*
X146715516Y-119209908D01*
X146601333Y-119252496D01*
X146531641Y-119257480D01*
X146514667Y-119252496D01*
X146400482Y-119209908D01*
X146400483Y-119209908D01*
X146340883Y-119203501D01*
X146340881Y-119203500D01*
X146340873Y-119203500D01*
X146340864Y-119203500D01*
X145505129Y-119203500D01*
X145505123Y-119203501D01*
X145445516Y-119209908D01*
X145331333Y-119252496D01*
X145261641Y-119257480D01*
X145244667Y-119252496D01*
X145130482Y-119209908D01*
X145130483Y-119209908D01*
X145070883Y-119203501D01*
X145070881Y-119203500D01*
X145070873Y-119203500D01*
X145070864Y-119203500D01*
X144235129Y-119203500D01*
X144235123Y-119203501D01*
X144175516Y-119209908D01*
X144061333Y-119252496D01*
X143991641Y-119257480D01*
X143974667Y-119252496D01*
X143860482Y-119209908D01*
X143860483Y-119209908D01*
X143800883Y-119203501D01*
X143800881Y-119203500D01*
X143800873Y-119203500D01*
X143800864Y-119203500D01*
X142965129Y-119203500D01*
X142965123Y-119203501D01*
X142905516Y-119209908D01*
X142791333Y-119252496D01*
X142721641Y-119257480D01*
X142704667Y-119252496D01*
X142590482Y-119209908D01*
X142590483Y-119209908D01*
X142530883Y-119203501D01*
X142530881Y-119203500D01*
X142530873Y-119203500D01*
X142530864Y-119203500D01*
X141695129Y-119203500D01*
X141695123Y-119203501D01*
X141635516Y-119209908D01*
X141521333Y-119252496D01*
X141451641Y-119257480D01*
X141434667Y-119252496D01*
X141320482Y-119209908D01*
X141320483Y-119209908D01*
X141260883Y-119203501D01*
X141260881Y-119203500D01*
X141260873Y-119203500D01*
X141260864Y-119203500D01*
X140425129Y-119203500D01*
X140425123Y-119203501D01*
X140365516Y-119209908D01*
X140251333Y-119252496D01*
X140181641Y-119257480D01*
X140164667Y-119252496D01*
X140050482Y-119209908D01*
X140050483Y-119209908D01*
X139990883Y-119203501D01*
X139990881Y-119203500D01*
X139990873Y-119203500D01*
X139990864Y-119203500D01*
X139155129Y-119203500D01*
X139155123Y-119203501D01*
X139095516Y-119209908D01*
X138981333Y-119252496D01*
X138911641Y-119257480D01*
X138894667Y-119252496D01*
X138780482Y-119209908D01*
X138780483Y-119209908D01*
X138720883Y-119203501D01*
X138720881Y-119203500D01*
X138720873Y-119203500D01*
X138720864Y-119203500D01*
X137885129Y-119203500D01*
X137885123Y-119203501D01*
X137825516Y-119209908D01*
X137711333Y-119252496D01*
X137641641Y-119257480D01*
X137624667Y-119252496D01*
X137510482Y-119209908D01*
X137510483Y-119209908D01*
X137450883Y-119203501D01*
X137450881Y-119203500D01*
X137450873Y-119203500D01*
X137450864Y-119203500D01*
X136615129Y-119203500D01*
X136615123Y-119203501D01*
X136555516Y-119209908D01*
X136440618Y-119252763D01*
X136370926Y-119257747D01*
X136353952Y-119252763D01*
X136240379Y-119210403D01*
X136240372Y-119210401D01*
X136180844Y-119204000D01*
X136013000Y-119204000D01*
X135513000Y-119204000D01*
X135345155Y-119204000D01*
X135285627Y-119210401D01*
X135285620Y-119210403D01*
X135150913Y-119260645D01*
X135150906Y-119260649D01*
X135035812Y-119346809D01*
X135035809Y-119346812D01*
X134949649Y-119461906D01*
X134949645Y-119461913D01*
X134899403Y-119596620D01*
X134899401Y-119596627D01*
X134893000Y-119656155D01*
X129128672Y-119656155D01*
X129151000Y-119572826D01*
X129151000Y-119441174D01*
X129116925Y-119314007D01*
X129084012Y-119257000D01*
X129981636Y-119257000D01*
X129981635Y-119256999D01*
X129924432Y-119043513D01*
X129924429Y-119043507D01*
X129824600Y-118829422D01*
X129824599Y-118829420D01*
X129689113Y-118635926D01*
X129689108Y-118635920D01*
X129522078Y-118468890D01*
X129336405Y-118338879D01*
X129292780Y-118284302D01*
X129289421Y-118251844D01*
X134893000Y-118251844D01*
X134899401Y-118311372D01*
X134899403Y-118311379D01*
X134949645Y-118446086D01*
X134949649Y-118446093D01*
X135035809Y-118561187D01*
X135035812Y-118561190D01*
X135150906Y-118647350D01*
X135150913Y-118647354D01*
X135285620Y-118697596D01*
X135285627Y-118697598D01*
X135345155Y-118703999D01*
X135345172Y-118704000D01*
X135513000Y-118704000D01*
X135513000Y-117254000D01*
X134893000Y-117254000D01*
X134893000Y-118251844D01*
X129289421Y-118251844D01*
X129285588Y-118214804D01*
X129317110Y-118152449D01*
X129336406Y-118135730D01*
X129369289Y-118112705D01*
X129522401Y-118005495D01*
X129689495Y-117838401D01*
X129825035Y-117644830D01*
X129827707Y-117639097D01*
X129873878Y-117586658D01*
X129940091Y-117567500D01*
X130405831Y-117567500D01*
X130405847Y-117567501D01*
X130413443Y-117567501D01*
X130571554Y-117567501D01*
X130571557Y-117567501D01*
X130724285Y-117526577D01*
X130774404Y-117497639D01*
X130861216Y-117447520D01*
X130973020Y-117335716D01*
X130973020Y-117335714D01*
X130983228Y-117325507D01*
X130983229Y-117325504D01*
X133117916Y-115190819D01*
X133179239Y-115157334D01*
X133205597Y-115154500D01*
X135053731Y-115154500D01*
X135120770Y-115174185D01*
X135166525Y-115226989D01*
X135176469Y-115296147D01*
X135147444Y-115359703D01*
X135128042Y-115377766D01*
X135035812Y-115446809D01*
X135035809Y-115446812D01*
X134949649Y-115561906D01*
X134949645Y-115561913D01*
X134899403Y-115696620D01*
X134899401Y-115696627D01*
X134893000Y-115756155D01*
X134893000Y-116754000D01*
X135889000Y-116754000D01*
X135956039Y-116773685D01*
X136001794Y-116826489D01*
X136013000Y-116878000D01*
X136013000Y-118704000D01*
X136180828Y-118704000D01*
X136180844Y-118703999D01*
X136240372Y-118697598D01*
X136240376Y-118697597D01*
X136353951Y-118655236D01*
X136423643Y-118650252D01*
X136440608Y-118655232D01*
X136555517Y-118698091D01*
X136615127Y-118704500D01*
X137450872Y-118704499D01*
X137510483Y-118698091D01*
X137624667Y-118655502D01*
X137694358Y-118650519D01*
X137711333Y-118655503D01*
X137825517Y-118698091D01*
X137825516Y-118698091D01*
X137832444Y-118698835D01*
X137885127Y-118704500D01*
X138720872Y-118704499D01*
X138780483Y-118698091D01*
X138894667Y-118655502D01*
X138964358Y-118650519D01*
X138981333Y-118655503D01*
X139095517Y-118698091D01*
X139095516Y-118698091D01*
X139102444Y-118698835D01*
X139155127Y-118704500D01*
X139990872Y-118704499D01*
X140050483Y-118698091D01*
X140164667Y-118655502D01*
X140234358Y-118650519D01*
X140251333Y-118655503D01*
X140365517Y-118698091D01*
X140365516Y-118698091D01*
X140372444Y-118698835D01*
X140425127Y-118704500D01*
X141260872Y-118704499D01*
X141320483Y-118698091D01*
X141434667Y-118655502D01*
X141504358Y-118650519D01*
X141521333Y-118655503D01*
X141635517Y-118698091D01*
X141635516Y-118698091D01*
X141642444Y-118698835D01*
X141695127Y-118704500D01*
X142530872Y-118704499D01*
X142590483Y-118698091D01*
X142704667Y-118655502D01*
X142774358Y-118650519D01*
X142791333Y-118655503D01*
X142905517Y-118698091D01*
X142905516Y-118698091D01*
X142912444Y-118698835D01*
X142965127Y-118704500D01*
X143800872Y-118704499D01*
X143860483Y-118698091D01*
X143974667Y-118655502D01*
X144044358Y-118650519D01*
X144061333Y-118655503D01*
X144175517Y-118698091D01*
X144175516Y-118698091D01*
X144182444Y-118698835D01*
X144235127Y-118704500D01*
X145070872Y-118704499D01*
X145130483Y-118698091D01*
X145244667Y-118655502D01*
X145314358Y-118650519D01*
X145331333Y-118655503D01*
X145445517Y-118698091D01*
X145445516Y-118698091D01*
X145452444Y-118698835D01*
X145505127Y-118704500D01*
X146340872Y-118704499D01*
X146400483Y-118698091D01*
X146514667Y-118655502D01*
X146584358Y-118650519D01*
X146601333Y-118655503D01*
X146715517Y-118698091D01*
X146715516Y-118698091D01*
X146722444Y-118698835D01*
X146775127Y-118704500D01*
X147610872Y-118704499D01*
X147670483Y-118698091D01*
X147784667Y-118655502D01*
X147854358Y-118650519D01*
X147871333Y-118655503D01*
X147985517Y-118698091D01*
X147985516Y-118698091D01*
X147992444Y-118698835D01*
X148045127Y-118704500D01*
X148880872Y-118704499D01*
X148940483Y-118698091D01*
X149054667Y-118655502D01*
X149124358Y-118650519D01*
X149141333Y-118655503D01*
X149255517Y-118698091D01*
X149255516Y-118698091D01*
X149262444Y-118698835D01*
X149315127Y-118704500D01*
X150150872Y-118704499D01*
X150210483Y-118698091D01*
X150324667Y-118655502D01*
X150394358Y-118650519D01*
X150411333Y-118655503D01*
X150525517Y-118698091D01*
X150525516Y-118698091D01*
X150532444Y-118698835D01*
X150585127Y-118704500D01*
X151420872Y-118704499D01*
X151480483Y-118698091D01*
X151595383Y-118655235D01*
X151665073Y-118650252D01*
X151682049Y-118655236D01*
X151795623Y-118697597D01*
X151795627Y-118697598D01*
X151855155Y-118703999D01*
X151855172Y-118704000D01*
X152023000Y-118704000D01*
X152023000Y-115304000D01*
X151932300Y-115304000D01*
X151865261Y-115284315D01*
X151819506Y-115231511D01*
X151808300Y-115180000D01*
X151808300Y-114766450D01*
X151808301Y-114766429D01*
X151808301Y-114601684D01*
X151808300Y-114601680D01*
X151777355Y-114446110D01*
X151777354Y-114446103D01*
X151777352Y-114446098D01*
X151754239Y-114390297D01*
X151744800Y-114342845D01*
X151744800Y-103108185D01*
X151744799Y-103108182D01*
X151739784Y-103082962D01*
X151739784Y-103082961D01*
X151713854Y-102952607D01*
X151713853Y-102952606D01*
X151713853Y-102952602D01*
X151688351Y-102891035D01*
X151688351Y-102891034D01*
X151653151Y-102806053D01*
X151653144Y-102806040D01*
X151565018Y-102674151D01*
X151565015Y-102674147D01*
X151449753Y-102558885D01*
X151449722Y-102558856D01*
X137408858Y-88517992D01*
X137408838Y-88517970D01*
X137292352Y-88401484D01*
X137292348Y-88401481D01*
X137160459Y-88313355D01*
X137160446Y-88313348D01*
X137013901Y-88252648D01*
X137013894Y-88252646D01*
X137006894Y-88251254D01*
X136999893Y-88249861D01*
X136999891Y-88249860D01*
X136999891Y-88249861D01*
X136858317Y-88221699D01*
X136858315Y-88221699D01*
X136699685Y-88221699D01*
X136693571Y-88221699D01*
X136693551Y-88221700D01*
X129800330Y-88221700D01*
X129733291Y-88202015D01*
X129698755Y-88168824D01*
X129689491Y-88155594D01*
X129522402Y-87988506D01*
X129522401Y-87988505D01*
X129336405Y-87858269D01*
X129292781Y-87803692D01*
X129285588Y-87734193D01*
X129317110Y-87671839D01*
X129336405Y-87655119D01*
X129522082Y-87525105D01*
X129689105Y-87358082D01*
X129824600Y-87164578D01*
X129924429Y-86950492D01*
X129924432Y-86950486D01*
X129981636Y-86737000D01*
X129084012Y-86737000D01*
X129116925Y-86679993D01*
X129151000Y-86552826D01*
X129151000Y-86421174D01*
X129116925Y-86294007D01*
X129084012Y-86237000D01*
X129981636Y-86237000D01*
X129981635Y-86236999D01*
X129924432Y-86023513D01*
X129924429Y-86023507D01*
X129824600Y-85809422D01*
X129824599Y-85809420D01*
X129689113Y-85615926D01*
X129689108Y-85615920D01*
X129567053Y-85493865D01*
X129533568Y-85432542D01*
X129538552Y-85362850D01*
X129580424Y-85306917D01*
X129611400Y-85290002D01*
X129743331Y-85240796D01*
X129858546Y-85154546D01*
X129944796Y-85039331D01*
X129995091Y-84904483D01*
X130001500Y-84844873D01*
X130001500Y-84671500D01*
X130021185Y-84604461D01*
X130073989Y-84558706D01*
X130125500Y-84547500D01*
X138002903Y-84547500D01*
X138069942Y-84567185D01*
X138090584Y-84583819D01*
X152906181Y-99399416D01*
X152939666Y-99460739D01*
X152942500Y-99487097D01*
X152942500Y-115203466D01*
X152922815Y-115270505D01*
X152870011Y-115316260D01*
X152800853Y-115326204D01*
X152775168Y-115319648D01*
X152750382Y-115310403D01*
X152750372Y-115310401D01*
X152690844Y-115304000D01*
X152523000Y-115304000D01*
X152523000Y-118704000D01*
X152690828Y-118704000D01*
X152690844Y-118703999D01*
X152750372Y-118697598D01*
X152750376Y-118697597D01*
X152863951Y-118655236D01*
X152933643Y-118650252D01*
X152950608Y-118655232D01*
X153065517Y-118698091D01*
X153125127Y-118704500D01*
X153960872Y-118704499D01*
X154020483Y-118698091D01*
X154155331Y-118647796D01*
X154270546Y-118561546D01*
X154356796Y-118446331D01*
X154407091Y-118311483D01*
X154413500Y-118251873D01*
X154413499Y-115756128D01*
X154407091Y-115696517D01*
X154403541Y-115687000D01*
X154356797Y-115561671D01*
X154356793Y-115561664D01*
X154270547Y-115446455D01*
X154193188Y-115388543D01*
X154151318Y-115332609D01*
X154143500Y-115289277D01*
X154143500Y-99276060D01*
X154143501Y-99276047D01*
X154143501Y-99107944D01*
X154102576Y-98955214D01*
X154102573Y-98955209D01*
X154023524Y-98818290D01*
X154023518Y-98818282D01*
X146410588Y-91205352D01*
X138790589Y-83585354D01*
X138790588Y-83585352D01*
X138671717Y-83466481D01*
X138671716Y-83466480D01*
X138584904Y-83416360D01*
X138584904Y-83416359D01*
X138584900Y-83416358D01*
X138534785Y-83387423D01*
X138382057Y-83346499D01*
X138223943Y-83346499D01*
X138216347Y-83346499D01*
X138216331Y-83346500D01*
X130125499Y-83346500D01*
X130058460Y-83326815D01*
X130012705Y-83274011D01*
X130001499Y-83222500D01*
X130001499Y-83049129D01*
X130001498Y-83049123D01*
X130001497Y-83049116D01*
X129995091Y-82989517D01*
X129975777Y-82937734D01*
X129944797Y-82854671D01*
X129944793Y-82854664D01*
X129858547Y-82739455D01*
X129858544Y-82739452D01*
X129743335Y-82653206D01*
X129743328Y-82653202D01*
X129608482Y-82602908D01*
X129608483Y-82602908D01*
X129548883Y-82596501D01*
X129548881Y-82596500D01*
X129548873Y-82596500D01*
X129548864Y-82596500D01*
X127753129Y-82596500D01*
X127753123Y-82596501D01*
X127693516Y-82602908D01*
X127558671Y-82653202D01*
X127558664Y-82653206D01*
X127443455Y-82739452D01*
X127443452Y-82739455D01*
X127357206Y-82854664D01*
X127357202Y-82854671D01*
X127306908Y-82989517D01*
X127300501Y-83049116D01*
X127300501Y-83049123D01*
X127300500Y-83049135D01*
X127300500Y-84844870D01*
X127300501Y-84844876D01*
X127306908Y-84904483D01*
X127357202Y-85039328D01*
X127357206Y-85039335D01*
X127443452Y-85154544D01*
X127443455Y-85154547D01*
X127558664Y-85240793D01*
X127558671Y-85240797D01*
X127558674Y-85240798D01*
X127690598Y-85290002D01*
X127746531Y-85331873D01*
X127770949Y-85397337D01*
X127756098Y-85465610D01*
X127734947Y-85493865D01*
X127612886Y-85615926D01*
X127477400Y-85809420D01*
X127477399Y-85809422D01*
X127377570Y-86023507D01*
X127377567Y-86023513D01*
X127320364Y-86236999D01*
X127320364Y-86237000D01*
X128217988Y-86237000D01*
X128185075Y-86294007D01*
X128151000Y-86421174D01*
X128151000Y-86552826D01*
X128185075Y-86679993D01*
X128217988Y-86737000D01*
X127320364Y-86737000D01*
X127377567Y-86950486D01*
X127377570Y-86950492D01*
X127477399Y-87164578D01*
X127612894Y-87358082D01*
X127779917Y-87525105D01*
X127965595Y-87655119D01*
X128009219Y-87709696D01*
X128016412Y-87779195D01*
X127984890Y-87841549D01*
X127965595Y-87858269D01*
X127779594Y-87988508D01*
X127612505Y-88155597D01*
X127476965Y-88349169D01*
X127476964Y-88349171D01*
X127377098Y-88563335D01*
X127377094Y-88563344D01*
X127315938Y-88791586D01*
X127315936Y-88791596D01*
X127295341Y-89026999D01*
X121510500Y-89026999D01*
X121510500Y-76454500D01*
X121530185Y-76387461D01*
X121582989Y-76341706D01*
X121634500Y-76330500D01*
X142235500Y-76330500D01*
X142302539Y-76350185D01*
G37*
%TD.AperFunction*%
M02*
