%TF.GenerationSoftware,KiCad,Pcbnew,8.0.4*%
%TF.CreationDate,2024-08-25T14:14:58+02:00*%
%TF.ProjectId,gpu_dvi_board,6770755f-6476-4695-9f62-6f6172642e6b,rev?*%
%TF.SameCoordinates,Original*%
%TF.FileFunction,Copper,L1,Top*%
%TF.FilePolarity,Positive*%
%FSLAX46Y46*%
G04 Gerber Fmt 4.6, Leading zero omitted, Abs format (unit mm)*
G04 Created by KiCad (PCBNEW 8.0.4) date 2024-08-25 14:14:58*
%MOMM*%
%LPD*%
G01*
G04 APERTURE LIST*
G04 Aperture macros list*
%AMRoundRect*
0 Rectangle with rounded corners*
0 $1 Rounding radius*
0 $2 $3 $4 $5 $6 $7 $8 $9 X,Y pos of 4 corners*
0 Add a 4 corners polygon primitive as box body*
4,1,4,$2,$3,$4,$5,$6,$7,$8,$9,$2,$3,0*
0 Add four circle primitives for the rounded corners*
1,1,$1+$1,$2,$3*
1,1,$1+$1,$4,$5*
1,1,$1+$1,$6,$7*
1,1,$1+$1,$8,$9*
0 Add four rect primitives between the rounded corners*
20,1,$1+$1,$2,$3,$4,$5,0*
20,1,$1+$1,$4,$5,$6,$7,0*
20,1,$1+$1,$6,$7,$8,$9,0*
20,1,$1+$1,$8,$9,$2,$3,0*%
G04 Aperture macros list end*
%TA.AperFunction,SMDPad,CuDef*%
%ADD10RoundRect,0.160000X-0.197500X-0.160000X0.197500X-0.160000X0.197500X0.160000X-0.197500X0.160000X0*%
%TD*%
%TA.AperFunction,SMDPad,CuDef*%
%ADD11R,2.600000X0.300000*%
%TD*%
%TA.AperFunction,ComponentPad*%
%ADD12O,3.300000X1.500000*%
%TD*%
%TA.AperFunction,ComponentPad*%
%ADD13O,2.300000X1.500000*%
%TD*%
%TA.AperFunction,ViaPad*%
%ADD14C,0.406400*%
%TD*%
%TA.AperFunction,ViaPad*%
%ADD15C,0.609600*%
%TD*%
%TA.AperFunction,Conductor*%
%ADD16C,0.203200*%
%TD*%
%TA.AperFunction,Conductor*%
%ADD17C,0.119380*%
%TD*%
G04 APERTURE END LIST*
D10*
X133679000Y-95123000D03*
X134874000Y-95123000D03*
X133679000Y-94107000D03*
X134874000Y-94107000D03*
X133679000Y-98171000D03*
X134874000Y-98171000D03*
X133679000Y-91059000D03*
X134874000Y-91059000D03*
D11*
X138574000Y-92020000D03*
X138574000Y-92520000D03*
X138574000Y-93020000D03*
X138574000Y-93520000D03*
X138574000Y-94020000D03*
X138574000Y-94520000D03*
X138574000Y-95020000D03*
X138574000Y-95520000D03*
X138574000Y-96020000D03*
X138574000Y-96520000D03*
X138574000Y-97020000D03*
X138574000Y-97520000D03*
X138574000Y-98020000D03*
X138574000Y-98520000D03*
X138574000Y-99020000D03*
X138574000Y-99520000D03*
X138574000Y-100020000D03*
X138574000Y-100520000D03*
X138574000Y-101020000D03*
D12*
X139334000Y-89270000D03*
X139334000Y-103770000D03*
D13*
X145294000Y-89270000D03*
X145294000Y-103770000D03*
D10*
X133679000Y-97155000D03*
X134874000Y-97155000D03*
X133679000Y-92075000D03*
X134874000Y-92075000D03*
X133679000Y-93091000D03*
X134874000Y-93091000D03*
X133679000Y-96139000D03*
X134874000Y-96139000D03*
D14*
X131064000Y-99568000D03*
D15*
X140716000Y-92456000D03*
X127000000Y-100838000D03*
X140716000Y-95504000D03*
X140716000Y-93980000D03*
D14*
X140716000Y-100076000D03*
D15*
X140716000Y-97028000D03*
X127000000Y-93599000D03*
D14*
X131191000Y-98425000D03*
X132080000Y-91694000D03*
X131064000Y-93980000D03*
X130937000Y-96520000D03*
X132715000Y-90043000D03*
X133604000Y-90170000D03*
X131064000Y-95250000D03*
X131064000Y-92583000D03*
X131572000Y-90297000D03*
D16*
X136331400Y-100203000D02*
X131699000Y-100203000D01*
X131699000Y-100203000D02*
X131064000Y-99568000D01*
X137014400Y-99520000D02*
X136331400Y-100203000D01*
X138574000Y-99520000D02*
X137014400Y-99520000D01*
D17*
X134977000Y-95020000D02*
X138574000Y-95020000D01*
X134874000Y-95123000D02*
X134977000Y-95020000D01*
X134874000Y-93091000D02*
X135763000Y-93091000D01*
X135763000Y-93091000D02*
X136192000Y-93520000D01*
X136192000Y-93520000D02*
X138574000Y-93520000D01*
D16*
X138574000Y-95520000D02*
X140700000Y-95520000D01*
X140660000Y-100020000D02*
X140716000Y-100076000D01*
X138574000Y-92520000D02*
X140525000Y-92520000D01*
X138574000Y-97020000D02*
X140708000Y-97020000D01*
X140700000Y-95520000D02*
X140716000Y-95504000D01*
X140525000Y-92520000D02*
X140716000Y-92456000D01*
X140676000Y-94020000D02*
X140716000Y-93980000D01*
X140708000Y-97020000D02*
X140716000Y-97028000D01*
X138574000Y-100020000D02*
X140660000Y-100020000D01*
X140716000Y-92456000D02*
X140589000Y-92456000D01*
X138574000Y-94020000D02*
X140676000Y-94020000D01*
D17*
X136454000Y-93020000D02*
X138574000Y-93020000D01*
X135509000Y-92075000D02*
X136454000Y-93020000D01*
X134874000Y-92075000D02*
X135509000Y-92075000D01*
D16*
X129159000Y-100965000D02*
X125857000Y-97663000D01*
X138574000Y-100520000D02*
X137014400Y-100520000D01*
X125857000Y-94234000D02*
X126492000Y-93599000D01*
X125857000Y-97663000D02*
X125857000Y-94234000D01*
X126492000Y-93599000D02*
X127000000Y-93599000D01*
X137014400Y-100520000D02*
X136569400Y-100965000D01*
X136569400Y-100965000D02*
X129159000Y-100965000D01*
X136311000Y-99020000D02*
X138574000Y-99020000D01*
X131191000Y-98425000D02*
X132334000Y-99568000D01*
X132334000Y-99568000D02*
X135763000Y-99568000D01*
X135763000Y-99568000D02*
X136311000Y-99020000D01*
D17*
X134874000Y-91059000D02*
X135128000Y-91059000D01*
X136089000Y-92020000D02*
X138574000Y-92020000D01*
X135128000Y-91059000D02*
X136089000Y-92020000D01*
X134874000Y-98171000D02*
X135890000Y-98171000D01*
X135890000Y-98171000D02*
X136541000Y-97520000D01*
X136541000Y-97520000D02*
X138574000Y-97520000D01*
X134874000Y-96139000D02*
X135001000Y-96012000D01*
X138566000Y-96012000D02*
X138574000Y-96020000D01*
X135001000Y-96012000D02*
X138566000Y-96012000D01*
X135763000Y-96520000D02*
X138574000Y-96520000D01*
X134874000Y-97155000D02*
X135128000Y-97155000D01*
X135128000Y-97155000D02*
X135763000Y-96520000D01*
X136303000Y-94520000D02*
X138574000Y-94520000D01*
X135890000Y-94107000D02*
X136303000Y-94520000D01*
X134874000Y-94107000D02*
X135890000Y-94107000D01*
X133477000Y-93091000D02*
X133679000Y-93091000D01*
X132080000Y-91694000D02*
X133477000Y-93091000D01*
X130175000Y-96520000D02*
X130810000Y-97155000D01*
X132334000Y-98171000D02*
X133679000Y-98171000D01*
X131318000Y-97155000D02*
X132334000Y-98171000D01*
X130175000Y-94869000D02*
X130175000Y-96520000D01*
X131064000Y-93980000D02*
X130175000Y-94869000D01*
X130810000Y-97155000D02*
X131318000Y-97155000D01*
X132461000Y-97155000D02*
X133679000Y-97155000D01*
X131826000Y-96520000D02*
X132461000Y-97155000D01*
X130937000Y-96520000D02*
X131826000Y-96520000D01*
X132715000Y-91111000D02*
X133679000Y-92075000D01*
X132715000Y-90043000D02*
X132715000Y-91111000D01*
X133604000Y-90170000D02*
X133604000Y-90984000D01*
X133604000Y-90984000D02*
X133679000Y-91059000D01*
X131064000Y-95250000D02*
X131953000Y-96139000D01*
X131953000Y-96139000D02*
X133679000Y-96139000D01*
X133223000Y-95123000D02*
X133679000Y-95123000D01*
X131064000Y-92583000D02*
X131064000Y-92964000D01*
X131064000Y-92964000D02*
X133223000Y-95123000D01*
X131572000Y-90297000D02*
X131572000Y-92000000D01*
X131572000Y-92000000D02*
X133679000Y-94107000D01*
M02*
