%TF.GenerationSoftware,KiCad,Pcbnew,8.0.4*%
%TF.CreationDate,2024-08-25T14:14:58+02:00*%
%TF.ProjectId,gpu_dvi_board,6770755f-6476-4695-9f62-6f6172642e6b,rev?*%
%TF.SameCoordinates,Original*%
%TF.FileFunction,Legend,Bot*%
%TF.FilePolarity,Positive*%
%FSLAX46Y46*%
G04 Gerber Fmt 4.6, Leading zero omitted, Abs format (unit mm)*
G04 Created by KiCad (PCBNEW 8.0.4) date 2024-08-25 14:14:58*
%MOMM*%
%LPD*%
G01*
G04 APERTURE LIST*
%ADD10C,0.152400*%
%ADD11C,0.120000*%
%ADD12O,3.300000X1.500000*%
%ADD13O,2.300000X1.500000*%
%ADD14C,2.200000*%
%ADD15R,2.400000X0.740000*%
G04 APERTURE END LIST*
D10*
X131411666Y-91375095D02*
X131411666Y-92100810D01*
X131411666Y-92100810D02*
X131460047Y-92245953D01*
X131460047Y-92245953D02*
X131556809Y-92342715D01*
X131556809Y-92342715D02*
X131701952Y-92391095D01*
X131701952Y-92391095D02*
X131798714Y-92391095D01*
X131024619Y-91375095D02*
X130395666Y-91375095D01*
X130395666Y-91375095D02*
X130734333Y-91762143D01*
X130734333Y-91762143D02*
X130589190Y-91762143D01*
X130589190Y-91762143D02*
X130492428Y-91810524D01*
X130492428Y-91810524D02*
X130444047Y-91858905D01*
X130444047Y-91858905D02*
X130395666Y-91955667D01*
X130395666Y-91955667D02*
X130395666Y-92197572D01*
X130395666Y-92197572D02*
X130444047Y-92294334D01*
X130444047Y-92294334D02*
X130492428Y-92342715D01*
X130492428Y-92342715D02*
X130589190Y-92391095D01*
X130589190Y-92391095D02*
X130879476Y-92391095D01*
X130879476Y-92391095D02*
X130976238Y-92342715D01*
X130976238Y-92342715D02*
X131024619Y-92294334D01*
D11*
X129308000Y-92929000D02*
X132838000Y-92929000D01*
X129308000Y-92994000D02*
X129308000Y-92929000D01*
X129308000Y-100669000D02*
X129308000Y-100604000D01*
X129308000Y-100669000D02*
X132838000Y-100669000D01*
X132838000Y-92994000D02*
X132838000Y-92929000D01*
X132838000Y-92994000D02*
X134163000Y-92994000D01*
X132838000Y-100669000D02*
X132838000Y-100604000D01*
%LPC*%
D12*
X139334000Y-89270000D03*
X139334000Y-103770000D03*
D13*
X145294000Y-89270000D03*
X145294000Y-103770000D03*
D14*
X127381000Y-85725000D03*
X127381000Y-106807000D03*
D15*
X133023000Y-93624000D03*
X129123000Y-93624000D03*
X133023000Y-94894000D03*
X129123000Y-94894000D03*
X133023000Y-96164000D03*
X129123000Y-96164000D03*
X133023000Y-97434000D03*
X129123000Y-97434000D03*
X133023000Y-98704000D03*
X129123000Y-98704000D03*
X133023000Y-99974000D03*
X129123000Y-99974000D03*
%LPD*%
M02*
