M48
; DRILL file {KiCad 8.0.4} date 2024-08-25T14:15:04+0200
; FORMAT={-:-/ absolute / metric / decimal}
; #@! TF.CreationDate,2024-08-25T14:15:04+02:00
; #@! TF.GenerationSoftware,Kicad,Pcbnew,8.0.4
; #@! TF.FileFunction,Plated,1,4,PTH
FMAT,2
METRIC
; #@! TA.AperFunction,Plated,PTH,ViaDrill
T1C0.305
; #@! TA.AperFunction,Plated,PTH,ComponentDrill
T2C0.900
%
G90
G05
T1
X127.0Y-93.599
X127.0Y-100.838
X130.937Y-96.52
X131.064Y-92.583
X131.064Y-93.98
X131.064Y-95.25
X131.064Y-99.568
X131.191Y-98.425
X131.572Y-90.297
X132.08Y-91.694
X132.715Y-90.043
X133.604Y-90.17
X140.716Y-92.456
X140.716Y-93.98
X140.716Y-95.504
X140.716Y-97.028
X140.716Y-100.076
T2
X138.434Y-89.27G85X140.234Y-89.27
G05
X138.434Y-103.77G85X140.234Y-103.77
G05
X144.894Y-89.27G85X145.694Y-89.27
G05
X144.894Y-103.77G85X145.694Y-103.77
G05
M30
