%TF.GenerationSoftware,KiCad,Pcbnew,8.0.4*%
%TF.CreationDate,2024-08-25T14:14:58+02:00*%
%TF.ProjectId,gpu_dvi_board,6770755f-6476-4695-9f62-6f6172642e6b,rev?*%
%TF.SameCoordinates,Original*%
%TF.FileFunction,Copper,L4,Bot*%
%TF.FilePolarity,Positive*%
%FSLAX46Y46*%
G04 Gerber Fmt 4.6, Leading zero omitted, Abs format (unit mm)*
G04 Created by KiCad (PCBNEW 8.0.4) date 2024-08-25 14:14:58*
%MOMM*%
%LPD*%
G01*
G04 APERTURE LIST*
%TA.AperFunction,ComponentPad*%
%ADD10O,3.300000X1.500000*%
%TD*%
%TA.AperFunction,ComponentPad*%
%ADD11O,2.300000X1.500000*%
%TD*%
%TA.AperFunction,SMDPad,CuDef*%
%ADD12R,2.400000X0.740000*%
%TD*%
%TA.AperFunction,ViaPad*%
%ADD13C,0.406400*%
%TD*%
%TA.AperFunction,ViaPad*%
%ADD14C,0.609600*%
%TD*%
%TA.AperFunction,Conductor*%
%ADD15C,0.203200*%
%TD*%
%TA.AperFunction,Conductor*%
%ADD16C,0.119380*%
%TD*%
G04 APERTURE END LIST*
D10*
X139334000Y-89270000D03*
X139334000Y-103770000D03*
D11*
X145294000Y-89270000D03*
X145294000Y-103770000D03*
D12*
X133023000Y-93624000D03*
X129123000Y-93624000D03*
X133023000Y-94894000D03*
X129123000Y-94894000D03*
X133023000Y-96164000D03*
X129123000Y-96164000D03*
X133023000Y-97434000D03*
X129123000Y-97434000D03*
X133023000Y-98704000D03*
X129123000Y-98704000D03*
X133023000Y-99974000D03*
X129123000Y-99974000D03*
D13*
X131064000Y-99568000D03*
D14*
X140716000Y-92456000D03*
X127000000Y-100838000D03*
X140716000Y-95504000D03*
X140716000Y-93980000D03*
D13*
X140716000Y-100076000D03*
D14*
X140716000Y-97028000D03*
X127000000Y-93599000D03*
D13*
X131191000Y-98425000D03*
X132080000Y-91694000D03*
X131064000Y-93980000D03*
X130937000Y-96520000D03*
X132715000Y-90043000D03*
X133604000Y-90170000D03*
X131064000Y-95250000D03*
X131064000Y-92583000D03*
X131572000Y-90297000D03*
D15*
X130200000Y-98704000D02*
X129123000Y-98704000D01*
X131064000Y-99568000D02*
X130200000Y-98704000D01*
X129123000Y-99974000D02*
X127864000Y-99974000D01*
X127864000Y-99974000D02*
X127000000Y-100838000D01*
X127000000Y-93599000D02*
X127508000Y-93599000D01*
X127508000Y-93599000D02*
X127533000Y-93624000D01*
X127533000Y-93624000D02*
X129123000Y-93624000D01*
X129123000Y-97434000D02*
X130200000Y-97434000D01*
X130200000Y-97434000D02*
X131191000Y-98425000D01*
D16*
X134493000Y-92710000D02*
X133096000Y-92710000D01*
X134874000Y-93091000D02*
X134493000Y-92710000D01*
X133096000Y-92710000D02*
X132080000Y-91694000D01*
X134874000Y-95143000D02*
X134874000Y-93091000D01*
X133853000Y-96164000D02*
X134874000Y-95143000D01*
X133023000Y-96164000D02*
X133853000Y-96164000D01*
X131064000Y-93980000D02*
X130150000Y-94894000D01*
X130150000Y-94894000D02*
X129123000Y-94894000D01*
X130581000Y-96164000D02*
X129123000Y-96164000D01*
X130937000Y-96520000D02*
X130581000Y-96164000D01*
X133648620Y-89027000D02*
X135636000Y-89027000D01*
X135636000Y-89027000D02*
X136271000Y-89662000D01*
X132715000Y-89960620D02*
X133648620Y-89027000D01*
X132715000Y-90043000D02*
X132715000Y-89960620D01*
X136271000Y-89662000D02*
X136271000Y-98679000D01*
X136271000Y-98679000D02*
X134976000Y-99974000D01*
X134976000Y-99974000D02*
X133023000Y-99974000D01*
X133731000Y-89662000D02*
X133604000Y-89789000D01*
X135763000Y-98298000D02*
X135763000Y-90678000D01*
X133023000Y-98704000D02*
X135357000Y-98704000D01*
X135763000Y-90678000D02*
X135763000Y-90424000D01*
X135001000Y-89662000D02*
X133731000Y-89662000D01*
X133604000Y-89789000D02*
X133604000Y-90170000D01*
X135357000Y-98704000D02*
X135763000Y-98298000D01*
X135763000Y-90424000D02*
X135001000Y-89662000D01*
X131064000Y-95250000D02*
X131420000Y-94894000D01*
X131420000Y-94894000D02*
X133023000Y-94894000D01*
X131064000Y-92583000D02*
X131982000Y-92583000D01*
X131982000Y-92583000D02*
X133023000Y-93624000D01*
X135255000Y-96032000D02*
X135255000Y-92837000D01*
X133477000Y-92202000D02*
X131572000Y-90297000D01*
X131445000Y-90297000D02*
X131445000Y-90297000D01*
X135255000Y-92837000D02*
X134620000Y-92202000D01*
X131572000Y-90297000D02*
X131445000Y-90297000D01*
X134620000Y-92202000D02*
X133477000Y-92202000D01*
X133023000Y-97434000D02*
X133853000Y-97434000D01*
X133853000Y-97434000D02*
X135255000Y-96032000D01*
M02*
