%TF.GenerationSoftware,KiCad,Pcbnew,8.0.4*%
%TF.CreationDate,2024-08-25T14:09:58+02:00*%
%TF.ProjectId,mainboard,6d61696e-626f-4617-9264-2e6b69636164,rev?*%
%TF.SameCoordinates,Original*%
%TF.FileFunction,Soldermask,Bot*%
%TF.FilePolarity,Negative*%
%FSLAX46Y46*%
G04 Gerber Fmt 4.6, Leading zero omitted, Abs format (unit mm)*
G04 Created by KiCad (PCBNEW 8.0.4) date 2024-08-25 14:09:58*
%MOMM*%
%LPD*%
G01*
G04 APERTURE LIST*
G04 Aperture macros list*
%AMRoundRect*
0 Rectangle with rounded corners*
0 $1 Rounding radius*
0 $2 $3 $4 $5 $6 $7 $8 $9 X,Y pos of 4 corners*
0 Add a 4 corners polygon primitive as box body*
4,1,4,$2,$3,$4,$5,$6,$7,$8,$9,$2,$3,0*
0 Add four circle primitives for the rounded corners*
1,1,$1+$1,$2,$3*
1,1,$1+$1,$4,$5*
1,1,$1+$1,$6,$7*
1,1,$1+$1,$8,$9*
0 Add four rect primitives between the rounded corners*
20,1,$1+$1,$2,$3,$4,$5,0*
20,1,$1+$1,$4,$5,$6,$7,0*
20,1,$1+$1,$6,$7,$8,$9,0*
20,1,$1+$1,$8,$9,$2,$3,0*%
G04 Aperture macros list end*
%ADD10C,3.200000*%
%ADD11C,2.200000*%
%ADD12C,1.500000*%
%ADD13R,1.700000X1.700000*%
%ADD14O,1.700000X1.700000*%
%ADD15C,0.700000*%
%ADD16R,4.600000X2.000000*%
%ADD17O,4.200000X2.000000*%
%ADD18O,2.000000X4.200000*%
%ADD19R,1.500000X1.500000*%
%ADD20C,3.000000*%
%ADD21RoundRect,0.155000X-0.212500X-0.155000X0.212500X-0.155000X0.212500X0.155000X-0.212500X0.155000X0*%
%ADD22RoundRect,0.062500X-0.062500X0.325000X-0.062500X-0.325000X0.062500X-0.325000X0.062500X0.325000X0*%
%ADD23RoundRect,0.062500X-0.325000X0.062500X-0.325000X-0.062500X0.325000X-0.062500X0.325000X0.062500X0*%
%ADD24R,2.450000X2.450000*%
%ADD25RoundRect,0.155000X0.155000X-0.212500X0.155000X0.212500X-0.155000X0.212500X-0.155000X-0.212500X0*%
%ADD26R,1.500000X0.800000*%
%ADD27R,2.000000X1.450000*%
%ADD28RoundRect,0.160000X-0.197500X-0.160000X0.197500X-0.160000X0.197500X0.160000X-0.197500X0.160000X0*%
%ADD29RoundRect,0.155000X-0.155000X0.212500X-0.155000X-0.212500X0.155000X-0.212500X0.155000X0.212500X0*%
%ADD30RoundRect,0.150000X0.150000X-0.650000X0.150000X0.650000X-0.150000X0.650000X-0.150000X-0.650000X0*%
%ADD31RoundRect,0.250000X-0.650000X0.412500X-0.650000X-0.412500X0.650000X-0.412500X0.650000X0.412500X0*%
%ADD32RoundRect,0.160000X0.160000X-0.197500X0.160000X0.197500X-0.160000X0.197500X-0.160000X-0.197500X0*%
%ADD33RoundRect,0.160000X0.197500X0.160000X-0.197500X0.160000X-0.197500X-0.160000X0.197500X-0.160000X0*%
G04 APERTURE END LIST*
D10*
X55000000Y-130000000D03*
D11*
X111000000Y-53500000D03*
D12*
X107508000Y-147659000D03*
X107508000Y-140659000D03*
D10*
X55000000Y-55000000D03*
D13*
X53736000Y-121285000D03*
D14*
X56276000Y-121285000D03*
X58816000Y-121285000D03*
D15*
X71475600Y-115620800D03*
X71475600Y-114487467D03*
X71475600Y-113354134D03*
X70342267Y-115620800D03*
X70342267Y-114487467D03*
X70342267Y-113354134D03*
X69208934Y-115620800D03*
X69208934Y-114487467D03*
X69208934Y-113354134D03*
D11*
X137780800Y-53500000D03*
D12*
X121008000Y-147659000D03*
X121008000Y-140659000D03*
D13*
X53975000Y-116840000D03*
D14*
X53975000Y-114300000D03*
X53975000Y-111760000D03*
D10*
X145000000Y-130000000D03*
D12*
X145796000Y-64135000D03*
D10*
X145000000Y-55000000D03*
D13*
X54102000Y-102743000D03*
D14*
X56642000Y-102743000D03*
D16*
X140574000Y-137414000D03*
D17*
X140574000Y-143714000D03*
D18*
X145374000Y-140314000D03*
D11*
X74500000Y-53500000D03*
D13*
X56642000Y-106680000D03*
D14*
X54102000Y-106680000D03*
D13*
X58547000Y-116967000D03*
D14*
X58547000Y-114427000D03*
X58547000Y-111887000D03*
D19*
X59000000Y-142472000D03*
D12*
X61500000Y-142472000D03*
X63500000Y-142472000D03*
X66000000Y-142472000D03*
X59000000Y-145092000D03*
X61500000Y-145092000D03*
X63500000Y-145092000D03*
X66000000Y-145092000D03*
D20*
X55930000Y-142122000D03*
X55930000Y-147802000D03*
X69070000Y-142122000D03*
X69070000Y-147802000D03*
D13*
X100457000Y-109093000D03*
D14*
X102997000Y-109093000D03*
X105537000Y-109093000D03*
X108077000Y-109093000D03*
D19*
X77780000Y-142472000D03*
D12*
X80280000Y-142472000D03*
X82280000Y-142472000D03*
X84780000Y-142472000D03*
X77780000Y-145092000D03*
X80280000Y-145092000D03*
X82280000Y-145092000D03*
X84780000Y-145092000D03*
D20*
X74710000Y-142122000D03*
X74710000Y-147802000D03*
X87850000Y-142122000D03*
X87850000Y-147802000D03*
D21*
X59376500Y-87757000D03*
X60511500Y-87757000D03*
D22*
X90233600Y-109010500D03*
X90733600Y-109010500D03*
X91233600Y-109010500D03*
X91733600Y-109010500D03*
X92233600Y-109010500D03*
X92733600Y-109010500D03*
D23*
X93471100Y-109748000D03*
X93471100Y-110248000D03*
X93471100Y-110748000D03*
X93471100Y-111248000D03*
X93471100Y-111748000D03*
X93471100Y-112248000D03*
D22*
X92733600Y-112985500D03*
X92233600Y-112985500D03*
X91733600Y-112985500D03*
X91233600Y-112985500D03*
X90733600Y-112985500D03*
X90233600Y-112985500D03*
D23*
X89496100Y-112248000D03*
X89496100Y-111748000D03*
X89496100Y-111248000D03*
X89496100Y-110748000D03*
X89496100Y-110248000D03*
X89496100Y-109748000D03*
D24*
X91483600Y-110998000D03*
D25*
X88265000Y-121217500D03*
X88265000Y-120082500D03*
D21*
X93944100Y-115233500D03*
X95079100Y-115233500D03*
X93944100Y-114217500D03*
X95079100Y-114217500D03*
D25*
X88161600Y-109070000D03*
X88161600Y-107935000D03*
D26*
X57251000Y-75286000D03*
X57251000Y-76386000D03*
X57251000Y-77486000D03*
X57251000Y-78586000D03*
X57251000Y-79686000D03*
X57251000Y-80786000D03*
X57251000Y-81886000D03*
X57251000Y-82986000D03*
D27*
X62951000Y-71611000D03*
X54651000Y-71611000D03*
X62951000Y-85361000D03*
X54651000Y-85361000D03*
D28*
X53631500Y-88011000D03*
X54826500Y-88011000D03*
D29*
X89939600Y-114352500D03*
X89939600Y-115487500D03*
D30*
X86741000Y-128612000D03*
X85471000Y-128612000D03*
X84201000Y-128612000D03*
X82931000Y-128612000D03*
X82931000Y-121412000D03*
X84201000Y-121412000D03*
X85471000Y-121412000D03*
X86741000Y-121412000D03*
D25*
X91971600Y-115487500D03*
X91971600Y-114352500D03*
D31*
X86383600Y-108337000D03*
X86383600Y-111462000D03*
D32*
X88265000Y-123533500D03*
X88265000Y-122338500D03*
D25*
X90955600Y-115487500D03*
X90955600Y-114352500D03*
D33*
X57404000Y-88011000D03*
X56209000Y-88011000D03*
M02*
