M48
; DRILL file {KiCad 8.0.4} date 2024-09-03T15:37:09+0200
; FORMAT={-:-/ absolute / metric / decimal}
; #@! TF.CreationDate,2024-09-03T15:37:09+02:00
; #@! TF.GenerationSoftware,Kicad,Pcbnew,8.0.4
; #@! TF.FileFunction,Plated,1,4,PTH
FMAT,2
METRIC
; #@! TA.AperFunction,Plated,PTH,ViaDrill
T1C0.305
; #@! TA.AperFunction,Plated,PTH,ComponentDrill
T2C0.350
; #@! TA.AperFunction,Plated,PTH,ViaDrill
T3C0.508
; #@! TA.AperFunction,Plated,PTH,ComponentDrill
T4C0.700
; #@! TA.AperFunction,Plated,PTH,ComponentDrill
T5C0.920
; #@! TA.AperFunction,Plated,PTH,ComponentDrill
T6C1.000
; #@! TA.AperFunction,Plated,PTH,ComponentDrill
T7C2.300
%
G90
G05
T1
X52.07Y-144.907
X54.737Y-70.358
X54.737Y-86.487
X54.864Y-88.773
X55.499Y-79.629
X55.626Y-76.454
X55.88Y-80.772
X56.261Y-88.773
X56.261Y-139.319
X56.388Y-99.162
X58.293Y-123.698
X58.547Y-81.915
X60.706Y-82.677
X60.706Y-117.094
X61.214Y-114.046
X61.214Y-116.027
X61.265Y-115.062
X61.341Y-87.757
X61.468Y-138.303
X61.62Y-119.583
X61.671Y-120.447
X62.433Y-116.23
X62.865Y-109.779
X62.865Y-138.303
X62.992Y-86.487
X63.119Y-70.358
X63.805Y-120.498
X64.059Y-114.605
X64.262Y-90.932
X64.262Y-97.79
X64.897Y-124.841
X65.278Y-119.888
X65.405Y-109.728
X65.532Y-94.285
X65.557Y-106.324
X65.583Y-98.501
X65.786Y-103.236
X65.888Y-121.869
X66.405Y-118.415
X66.548Y-114.3
X66.548Y-117.094
X66.751Y-94.285
X66.802Y-110.998
X67.32Y-118.364
X67.37Y-123.038
X67.412Y-98.501
X67.564Y-115.519
X67.818Y-108.001
X68.072Y-94.285
X68.072Y-139.319
X68.58Y-128.524
X68.682Y-98.501
X68.783Y-121.615
X68.834Y-108.737
X69.24Y-118.364
X69.342Y-94.285
X69.723Y-111.862
X69.952Y-98.501
X69.977Y-104.267
X69.977Y-105.156
X70.256Y-127.067
X70.485Y-123.444
X70.612Y-94.285
X70.612Y-144.907
X70.739Y-118.364
X70.866Y-106.147
X70.968Y-110.541
X71.222Y-98.501
X71.882Y-94.285
X72.009Y-126.238
X72.492Y-98.501
X72.898Y-118.364
X73.152Y-94.285
X73.152Y-106.299
X73.152Y-126.238
X73.203Y-110.541
X73.203Y-114.681
X73.762Y-98.501
X74.168Y-112.674
X74.168Y-116.688
X74.295Y-122.428
X74.295Y-126.238
X74.422Y-94.285
X75.311Y-98.425
X75.946Y-122.809
X76.637Y-139.192
X77.47Y-126.238
X78.359Y-116.688
X78.486Y-112.649
X78.511Y-114.63
X81.395Y-90.373
X81.788Y-140.081
X82.042Y-121.412
X82.169Y-128.651
X82.804Y-112.776
X83.312Y-140.081
X83.439Y-104.648
X83.439Y-127.0
X83.566Y-97.79
X83.566Y-122.936
X84.709Y-127.0
X84.836Y-122.936
X85.407Y-104.584
X86.106Y-127.0
X86.384Y-112.566
X87.935Y-119.253
X88.035Y-109.899
X88.265Y-130.937
X88.416Y-111.248
X88.519Y-139.065
X88.924Y-107.486
X89.027Y-114.046
X89.305Y-113.201
X89.408Y-108.458
X89.662Y-116.249
X90.17Y-79.629
X90.297Y-134.874
X90.322Y-121.218
X90.424Y-107.823
X90.575Y-110.077
X90.575Y-110.992
X90.575Y-111.906
X91.186Y-75.819
X91.21Y-116.63
X91.211Y-119.126
X91.313Y-107.061
X91.514Y-110.077
X91.514Y-111.017
X91.514Y-111.906
X91.694Y-80.518
X91.872Y-119.913
X92.075Y-107.95
X92.403Y-110.077
X92.403Y-111.017
X92.403Y-111.906
X92.607Y-116.63
X92.988Y-114.218
X93.599Y-102.616
X93.599Y-105.791
X94.488Y-108.077
X94.512Y-109.264
X94.512Y-110.661
X95.301Y-73.609
X95.758Y-110.236
X96.036Y-114.218
X96.036Y-115.233
X97.155Y-112.522
X97.638Y-74.27
X97.739Y-77.521
X97.942Y-73.254
X99.314Y-111.887
X100.838Y-125.222
X102.108Y-70.358
X102.108Y-146.05
X102.362Y-117.043
X102.362Y-118.974
X103.505Y-74.295
X103.505Y-76.2
X103.835Y-115.722
X104.013Y-71.882
X104.775Y-74.93
X104.851Y-72.873
X105.791Y-88.138
X105.791Y-94.234
X105.969Y-120.396
X107.036Y-88.9
X107.061Y-94.234
X107.188Y-76.2
X107.645Y-115.672
X108.331Y-94.234
X108.356Y-89.662
X108.839Y-88.011
X109.118Y-78.181
X109.474Y-121.793
X109.595Y-90.424
X109.601Y-94.234
X109.652Y-80.366
X110.236Y-131.826
X110.338Y-76.759
X110.363Y-104.648
X111.379Y-72.009
X111.43Y-103.53
X112.395Y-75.438
X112.395Y-84.709
X112.522Y-77.851
X112.903Y-108.801
X112.903Y-111.595
X113.03Y-117.551
X113.03Y-137.922
X113.055Y-103.988
X113.132Y-76.758
X114.656Y-82.855
X115.062Y-70.358
X115.316Y-79.375
X115.57Y-146.05
X115.773Y-111.608
X115.824Y-108.763
X115.945Y-90.303
X116.84Y-123.787
X116.967Y-71.755
X117.094Y-115.062
X117.526Y-84.074
X118.364Y-96.266
X118.62Y-121.405
X118.62Y-122.421
X118.62Y-123.437
X119.509Y-127.628
X119.636Y-121.405
X119.636Y-122.421
X119.636Y-123.437
X120.193Y-126.543
X120.269Y-71.247
X120.269Y-76.454
X120.65Y-79.375
X120.652Y-121.405
X120.652Y-122.421
X120.652Y-123.437
X121.668Y-121.405
X121.668Y-122.421
X121.668Y-123.437
X122.684Y-121.405
X122.684Y-122.421
X122.684Y-123.437
X123.7Y-121.405
X123.7Y-122.421
X123.7Y-123.437
X124.716Y-121.405
X124.716Y-122.421
X124.716Y-123.437
X125.67Y-126.2
X125.73Y-129.121
X125.732Y-121.405
X125.732Y-122.421
X125.732Y-123.437
X126.746Y-137.922
X128.676Y-121.209
X130.048Y-112.776
X131.928Y-125.07
X131.953Y-100.076
X132.283Y-90.805
X132.588Y-121.412
X132.588Y-122.428
X132.588Y-123.444
X132.842Y-112.776
X133.248Y-126.949
X133.35Y-99.314
X133.553Y-90.805
X133.604Y-121.412
X133.604Y-122.428
X133.604Y-123.444
X134.493Y-98.552
X134.62Y-121.412
X134.62Y-122.428
X134.62Y-123.444
X134.823Y-90.805
X135.636Y-121.412
X135.636Y-122.428
X135.636Y-123.444
X135.89Y-97.79
X136.093Y-90.805
X136.652Y-121.412
X136.652Y-122.428
X136.652Y-123.444
X137.16Y-126.746
X137.668Y-121.412
X137.668Y-122.428
X137.668Y-123.444
X138.684Y-121.412
X138.684Y-122.428
X138.684Y-123.444
X139.395Y-127.66
X140.716Y-94.488
X142.494Y-90.424
X142.748Y-87.63
X143.51Y-88.9
X143.51Y-107.188
X143.51Y-110.236
X143.715Y-98.122
X146.304Y-107.188
X146.304Y-110.236
T2
X69.209Y-113.354
X69.209Y-114.487
X69.209Y-115.621
X70.342Y-113.354
X70.342Y-114.487
X70.342Y-115.621
X71.476Y-113.354
X71.476Y-114.487
X71.476Y-115.621
T3
X86.046Y-102.81
X87.63Y-84.582
X95.758Y-130.556
X103.378Y-132.842
X114.681Y-86.106
X116.078Y-102.87
X128.524Y-109.22
X130.048Y-109.22
X131.572Y-109.22
X138.43Y-102.87
X141.097Y-86.106
X147.828Y-98.044
X147.828Y-99.568
X147.828Y-101.092
T4
X145.796Y-64.135
T5
X59.0Y-142.472
X59.0Y-145.092
X61.5Y-142.472
X61.5Y-145.092
X63.5Y-142.472
X63.5Y-145.092
X66.0Y-142.472
X66.0Y-145.092
X77.78Y-142.472
X77.78Y-145.092
X80.28Y-142.472
X80.28Y-145.092
X82.28Y-142.472
X82.28Y-145.092
X84.78Y-142.472
X84.78Y-145.092
T6
X53.736Y-121.285
X53.975Y-111.76
X53.975Y-114.3
X53.975Y-116.84
X54.102Y-102.743
X54.102Y-106.68
X56.276Y-121.285
X56.642Y-102.743
X56.642Y-106.68
X58.547Y-111.887
X58.547Y-114.427
X58.547Y-116.967
X58.816Y-121.285
X100.457Y-109.093
X102.997Y-109.093
X105.537Y-109.093
X108.077Y-109.093
T7
X55.93Y-142.122
X55.93Y-147.802
X69.07Y-142.122
X69.07Y-147.802
X74.71Y-142.122
X74.71Y-147.802
X87.85Y-142.122
X87.85Y-147.802
T6
X139.274Y-137.414G85X141.874Y-137.414
G05
X139.474Y-143.714G85X141.674Y-143.714
G05
X145.374Y-139.214G85X145.374Y-141.414
G05
M30
