%TF.GenerationSoftware,KiCad,Pcbnew,8.0.4*%
%TF.CreationDate,2024-08-25T14:09:58+02:00*%
%TF.ProjectId,mainboard,6d61696e-626f-4617-9264-2e6b69636164,rev?*%
%TF.SameCoordinates,Original*%
%TF.FileFunction,Paste,Bot*%
%TF.FilePolarity,Positive*%
%FSLAX46Y46*%
G04 Gerber Fmt 4.6, Leading zero omitted, Abs format (unit mm)*
G04 Created by KiCad (PCBNEW 8.0.4) date 2024-08-25 14:09:58*
%MOMM*%
%LPD*%
G01*
G04 APERTURE LIST*
G04 Aperture macros list*
%AMRoundRect*
0 Rectangle with rounded corners*
0 $1 Rounding radius*
0 $2 $3 $4 $5 $6 $7 $8 $9 X,Y pos of 4 corners*
0 Add a 4 corners polygon primitive as box body*
4,1,4,$2,$3,$4,$5,$6,$7,$8,$9,$2,$3,0*
0 Add four circle primitives for the rounded corners*
1,1,$1+$1,$2,$3*
1,1,$1+$1,$4,$5*
1,1,$1+$1,$6,$7*
1,1,$1+$1,$8,$9*
0 Add four rect primitives between the rounded corners*
20,1,$1+$1,$2,$3,$4,$5,0*
20,1,$1+$1,$4,$5,$6,$7,0*
20,1,$1+$1,$6,$7,$8,$9,0*
20,1,$1+$1,$8,$9,$2,$3,0*%
G04 Aperture macros list end*
%ADD10RoundRect,0.155000X-0.212500X-0.155000X0.212500X-0.155000X0.212500X0.155000X-0.212500X0.155000X0*%
%ADD11RoundRect,0.165000X-0.165000X0.165000X-0.165000X-0.165000X0.165000X-0.165000X0.165000X0.165000X0*%
%ADD12RoundRect,0.062500X-0.062500X0.325000X-0.062500X-0.325000X0.062500X-0.325000X0.062500X0.325000X0*%
%ADD13RoundRect,0.062500X-0.325000X0.062500X-0.325000X-0.062500X0.325000X-0.062500X0.325000X0.062500X0*%
%ADD14RoundRect,0.155000X0.155000X-0.212500X0.155000X0.212500X-0.155000X0.212500X-0.155000X-0.212500X0*%
%ADD15R,1.500000X0.800000*%
%ADD16R,2.000000X1.450000*%
%ADD17RoundRect,0.160000X-0.197500X-0.160000X0.197500X-0.160000X0.197500X0.160000X-0.197500X0.160000X0*%
%ADD18RoundRect,0.155000X-0.155000X0.212500X-0.155000X-0.212500X0.155000X-0.212500X0.155000X0.212500X0*%
%ADD19RoundRect,0.150000X0.150000X-0.650000X0.150000X0.650000X-0.150000X0.650000X-0.150000X-0.650000X0*%
%ADD20RoundRect,0.250000X-0.650000X0.412500X-0.650000X-0.412500X0.650000X-0.412500X0.650000X0.412500X0*%
%ADD21RoundRect,0.160000X0.160000X-0.197500X0.160000X0.197500X-0.160000X0.197500X-0.160000X-0.197500X0*%
%ADD22RoundRect,0.160000X0.197500X0.160000X-0.197500X0.160000X-0.197500X-0.160000X0.197500X-0.160000X0*%
G04 APERTURE END LIST*
D10*
X59376500Y-87757000D03*
X60511500Y-87757000D03*
D11*
X92303600Y-110178000D03*
X91483600Y-110178000D03*
X90663600Y-110178000D03*
X92303600Y-110998000D03*
X91483600Y-110998000D03*
X90663600Y-110998000D03*
X92303600Y-111818000D03*
X91483600Y-111818000D03*
X90663600Y-111818000D03*
D12*
X90233600Y-109010500D03*
X90733600Y-109010500D03*
X91233600Y-109010500D03*
X91733600Y-109010500D03*
X92233600Y-109010500D03*
X92733600Y-109010500D03*
D13*
X93471100Y-109748000D03*
X93471100Y-110248000D03*
X93471100Y-110748000D03*
X93471100Y-111248000D03*
X93471100Y-111748000D03*
X93471100Y-112248000D03*
D12*
X92733600Y-112985500D03*
X92233600Y-112985500D03*
X91733600Y-112985500D03*
X91233600Y-112985500D03*
X90733600Y-112985500D03*
X90233600Y-112985500D03*
D13*
X89496100Y-112248000D03*
X89496100Y-111748000D03*
X89496100Y-111248000D03*
X89496100Y-110748000D03*
X89496100Y-110248000D03*
X89496100Y-109748000D03*
D14*
X88265000Y-121217500D03*
X88265000Y-120082500D03*
D10*
X93944100Y-115233500D03*
X95079100Y-115233500D03*
X93944100Y-114217500D03*
X95079100Y-114217500D03*
D14*
X88161600Y-109070000D03*
X88161600Y-107935000D03*
D15*
X57251000Y-75286000D03*
X57251000Y-76386000D03*
X57251000Y-77486000D03*
X57251000Y-78586000D03*
X57251000Y-79686000D03*
X57251000Y-80786000D03*
X57251000Y-81886000D03*
X57251000Y-82986000D03*
D16*
X62951000Y-71611000D03*
X54651000Y-71611000D03*
X62951000Y-85361000D03*
X54651000Y-85361000D03*
D17*
X53631500Y-88011000D03*
X54826500Y-88011000D03*
D18*
X89939600Y-114352500D03*
X89939600Y-115487500D03*
D19*
X86741000Y-128612000D03*
X85471000Y-128612000D03*
X84201000Y-128612000D03*
X82931000Y-128612000D03*
X82931000Y-121412000D03*
X84201000Y-121412000D03*
X85471000Y-121412000D03*
X86741000Y-121412000D03*
D14*
X91971600Y-115487500D03*
X91971600Y-114352500D03*
D20*
X86383600Y-108337000D03*
X86383600Y-111462000D03*
D21*
X88265000Y-123533500D03*
X88265000Y-122338500D03*
D14*
X90955600Y-115487500D03*
X90955600Y-114352500D03*
D22*
X57404000Y-88011000D03*
X56209000Y-88011000D03*
M02*
