%TF.GenerationSoftware,KiCad,Pcbnew,8.0.4*%
%TF.CreationDate,2024-09-03T15:36:58+02:00*%
%TF.ProjectId,mainboard,6d61696e-626f-4617-9264-2e6b69636164,rev?*%
%TF.SameCoordinates,Original*%
%TF.FileFunction,Legend,Bot*%
%TF.FilePolarity,Positive*%
%FSLAX46Y46*%
G04 Gerber Fmt 4.6, Leading zero omitted, Abs format (unit mm)*
G04 Created by KiCad (PCBNEW 8.0.4) date 2024-09-03 15:36:58*
%MOMM*%
%LPD*%
G01*
G04 APERTURE LIST*
G04 Aperture macros list*
%AMRoundRect*
0 Rectangle with rounded corners*
0 $1 Rounding radius*
0 $2 $3 $4 $5 $6 $7 $8 $9 X,Y pos of 4 corners*
0 Add a 4 corners polygon primitive as box body*
4,1,4,$2,$3,$4,$5,$6,$7,$8,$9,$2,$3,0*
0 Add four circle primitives for the rounded corners*
1,1,$1+$1,$2,$3*
1,1,$1+$1,$4,$5*
1,1,$1+$1,$6,$7*
1,1,$1+$1,$8,$9*
0 Add four rect primitives between the rounded corners*
20,1,$1+$1,$2,$3,$4,$5,0*
20,1,$1+$1,$4,$5,$6,$7,0*
20,1,$1+$1,$6,$7,$8,$9,0*
20,1,$1+$1,$8,$9,$2,$3,0*%
G04 Aperture macros list end*
%ADD10C,0.152400*%
%ADD11C,0.120000*%
%ADD12C,3.200000*%
%ADD13C,2.200000*%
%ADD14C,1.500000*%
%ADD15R,1.700000X1.700000*%
%ADD16O,1.700000X1.700000*%
%ADD17C,0.700000*%
%ADD18RoundRect,0.155000X0.212500X0.155000X-0.212500X0.155000X-0.212500X-0.155000X0.212500X-0.155000X0*%
%ADD19R,4.600000X2.000000*%
%ADD20O,4.200000X2.000000*%
%ADD21O,2.000000X4.200000*%
%ADD22R,1.500000X1.500000*%
%ADD23C,3.000000*%
%ADD24RoundRect,0.155000X-0.212500X-0.155000X0.212500X-0.155000X0.212500X0.155000X-0.212500X0.155000X0*%
%ADD25RoundRect,0.062500X-0.062500X0.325000X-0.062500X-0.325000X0.062500X-0.325000X0.062500X0.325000X0*%
%ADD26RoundRect,0.062500X-0.325000X0.062500X-0.325000X-0.062500X0.325000X-0.062500X0.325000X0.062500X0*%
%ADD27R,2.450000X2.450000*%
%ADD28RoundRect,0.155000X0.155000X-0.212500X0.155000X0.212500X-0.155000X0.212500X-0.155000X-0.212500X0*%
%ADD29R,1.500000X0.800000*%
%ADD30R,2.000000X1.450000*%
%ADD31RoundRect,0.160000X-0.197500X-0.160000X0.197500X-0.160000X0.197500X0.160000X-0.197500X0.160000X0*%
%ADD32RoundRect,0.155000X-0.155000X0.212500X-0.155000X-0.212500X0.155000X-0.212500X0.155000X0.212500X0*%
%ADD33RoundRect,0.150000X0.150000X-0.650000X0.150000X0.650000X-0.150000X0.650000X-0.150000X-0.650000X0*%
%ADD34RoundRect,0.250000X-0.650000X0.412500X-0.650000X-0.412500X0.650000X-0.412500X0.650000X0.412500X0*%
%ADD35RoundRect,0.160000X0.160000X-0.197500X0.160000X0.197500X-0.160000X0.197500X-0.160000X-0.197500X0*%
%ADD36RoundRect,0.160000X0.197500X0.160000X-0.197500X0.160000X-0.197500X-0.160000X0.197500X-0.160000X0*%
G04 APERTURE END LIST*
D10*
X62653332Y-116595734D02*
X62701713Y-116644115D01*
X62701713Y-116644115D02*
X62846856Y-116692495D01*
X62846856Y-116692495D02*
X62943618Y-116692495D01*
X62943618Y-116692495D02*
X63088761Y-116644115D01*
X63088761Y-116644115D02*
X63185523Y-116547353D01*
X63185523Y-116547353D02*
X63233904Y-116450591D01*
X63233904Y-116450591D02*
X63282285Y-116257067D01*
X63282285Y-116257067D02*
X63282285Y-116111924D01*
X63282285Y-116111924D02*
X63233904Y-115918400D01*
X63233904Y-115918400D02*
X63185523Y-115821638D01*
X63185523Y-115821638D02*
X63088761Y-115724876D01*
X63088761Y-115724876D02*
X62943618Y-115676495D01*
X62943618Y-115676495D02*
X62846856Y-115676495D01*
X62846856Y-115676495D02*
X62701713Y-115724876D01*
X62701713Y-115724876D02*
X62653332Y-115773257D01*
X61734094Y-115676495D02*
X62217904Y-115676495D01*
X62217904Y-115676495D02*
X62266285Y-116160305D01*
X62266285Y-116160305D02*
X62217904Y-116111924D01*
X62217904Y-116111924D02*
X62121142Y-116063543D01*
X62121142Y-116063543D02*
X61879237Y-116063543D01*
X61879237Y-116063543D02*
X61782475Y-116111924D01*
X61782475Y-116111924D02*
X61734094Y-116160305D01*
X61734094Y-116160305D02*
X61685713Y-116257067D01*
X61685713Y-116257067D02*
X61685713Y-116498972D01*
X61685713Y-116498972D02*
X61734094Y-116595734D01*
X61734094Y-116595734D02*
X61782475Y-116644115D01*
X61782475Y-116644115D02*
X61879237Y-116692495D01*
X61879237Y-116692495D02*
X62121142Y-116692495D01*
X62121142Y-116692495D02*
X62217904Y-116644115D01*
X62217904Y-116644115D02*
X62266285Y-116595734D01*
X63137142Y-113242934D02*
X63185523Y-113291315D01*
X63185523Y-113291315D02*
X63330666Y-113339695D01*
X63330666Y-113339695D02*
X63427428Y-113339695D01*
X63427428Y-113339695D02*
X63572571Y-113291315D01*
X63572571Y-113291315D02*
X63669333Y-113194553D01*
X63669333Y-113194553D02*
X63717714Y-113097791D01*
X63717714Y-113097791D02*
X63766095Y-112904267D01*
X63766095Y-112904267D02*
X63766095Y-112759124D01*
X63766095Y-112759124D02*
X63717714Y-112565600D01*
X63717714Y-112565600D02*
X63669333Y-112468838D01*
X63669333Y-112468838D02*
X63572571Y-112372076D01*
X63572571Y-112372076D02*
X63427428Y-112323695D01*
X63427428Y-112323695D02*
X63330666Y-112323695D01*
X63330666Y-112323695D02*
X63185523Y-112372076D01*
X63185523Y-112372076D02*
X63137142Y-112420457D01*
X62169523Y-113339695D02*
X62750095Y-113339695D01*
X62459809Y-113339695D02*
X62459809Y-112323695D01*
X62459809Y-112323695D02*
X62556571Y-112468838D01*
X62556571Y-112468838D02*
X62653333Y-112565600D01*
X62653333Y-112565600D02*
X62750095Y-112613981D01*
X61201904Y-113339695D02*
X61782476Y-113339695D01*
X61492190Y-113339695D02*
X61492190Y-112323695D01*
X61492190Y-112323695D02*
X61588952Y-112468838D01*
X61588952Y-112468838D02*
X61685714Y-112565600D01*
X61685714Y-112565600D02*
X61782476Y-112613981D01*
X60597142Y-89282334D02*
X60645523Y-89330715D01*
X60645523Y-89330715D02*
X60790666Y-89379095D01*
X60790666Y-89379095D02*
X60887428Y-89379095D01*
X60887428Y-89379095D02*
X61032571Y-89330715D01*
X61032571Y-89330715D02*
X61129333Y-89233953D01*
X61129333Y-89233953D02*
X61177714Y-89137191D01*
X61177714Y-89137191D02*
X61226095Y-88943667D01*
X61226095Y-88943667D02*
X61226095Y-88798524D01*
X61226095Y-88798524D02*
X61177714Y-88605000D01*
X61177714Y-88605000D02*
X61129333Y-88508238D01*
X61129333Y-88508238D02*
X61032571Y-88411476D01*
X61032571Y-88411476D02*
X60887428Y-88363095D01*
X60887428Y-88363095D02*
X60790666Y-88363095D01*
X60790666Y-88363095D02*
X60645523Y-88411476D01*
X60645523Y-88411476D02*
X60597142Y-88459857D01*
X59726285Y-88363095D02*
X59919809Y-88363095D01*
X59919809Y-88363095D02*
X60016571Y-88411476D01*
X60016571Y-88411476D02*
X60064952Y-88459857D01*
X60064952Y-88459857D02*
X60161714Y-88605000D01*
X60161714Y-88605000D02*
X60210095Y-88798524D01*
X60210095Y-88798524D02*
X60210095Y-89185572D01*
X60210095Y-89185572D02*
X60161714Y-89282334D01*
X60161714Y-89282334D02*
X60113333Y-89330715D01*
X60113333Y-89330715D02*
X60016571Y-89379095D01*
X60016571Y-89379095D02*
X59823047Y-89379095D01*
X59823047Y-89379095D02*
X59726285Y-89330715D01*
X59726285Y-89330715D02*
X59677904Y-89282334D01*
X59677904Y-89282334D02*
X59629523Y-89185572D01*
X59629523Y-89185572D02*
X59629523Y-88943667D01*
X59629523Y-88943667D02*
X59677904Y-88846905D01*
X59677904Y-88846905D02*
X59726285Y-88798524D01*
X59726285Y-88798524D02*
X59823047Y-88750143D01*
X59823047Y-88750143D02*
X60016571Y-88750143D01*
X60016571Y-88750143D02*
X60113333Y-88798524D01*
X60113333Y-88798524D02*
X60161714Y-88846905D01*
X60161714Y-88846905D02*
X60210095Y-88943667D01*
X58758666Y-88363095D02*
X58952190Y-88363095D01*
X58952190Y-88363095D02*
X59048952Y-88411476D01*
X59048952Y-88411476D02*
X59097333Y-88459857D01*
X59097333Y-88459857D02*
X59194095Y-88605000D01*
X59194095Y-88605000D02*
X59242476Y-88798524D01*
X59242476Y-88798524D02*
X59242476Y-89185572D01*
X59242476Y-89185572D02*
X59194095Y-89282334D01*
X59194095Y-89282334D02*
X59145714Y-89330715D01*
X59145714Y-89330715D02*
X59048952Y-89379095D01*
X59048952Y-89379095D02*
X58855428Y-89379095D01*
X58855428Y-89379095D02*
X58758666Y-89330715D01*
X58758666Y-89330715D02*
X58710285Y-89282334D01*
X58710285Y-89282334D02*
X58661904Y-89185572D01*
X58661904Y-89185572D02*
X58661904Y-88943667D01*
X58661904Y-88943667D02*
X58710285Y-88846905D01*
X58710285Y-88846905D02*
X58758666Y-88798524D01*
X58758666Y-88798524D02*
X58855428Y-88750143D01*
X58855428Y-88750143D02*
X59048952Y-88750143D01*
X59048952Y-88750143D02*
X59145714Y-88798524D01*
X59145714Y-88798524D02*
X59194095Y-88846905D01*
X59194095Y-88846905D02*
X59242476Y-88943667D01*
X87634895Y-112713104D02*
X88457372Y-112713104D01*
X88457372Y-112713104D02*
X88554134Y-112761485D01*
X88554134Y-112761485D02*
X88602515Y-112809866D01*
X88602515Y-112809866D02*
X88650895Y-112906628D01*
X88650895Y-112906628D02*
X88650895Y-113100152D01*
X88650895Y-113100152D02*
X88602515Y-113196914D01*
X88602515Y-113196914D02*
X88554134Y-113245295D01*
X88554134Y-113245295D02*
X88457372Y-113293676D01*
X88457372Y-113293676D02*
X87634895Y-113293676D01*
X87973562Y-114212914D02*
X88650895Y-114212914D01*
X87586515Y-113971009D02*
X88312229Y-113729104D01*
X88312229Y-113729104D02*
X88312229Y-114358057D01*
X89874934Y-119946057D02*
X89923315Y-119897676D01*
X89923315Y-119897676D02*
X89971695Y-119752533D01*
X89971695Y-119752533D02*
X89971695Y-119655771D01*
X89971695Y-119655771D02*
X89923315Y-119510628D01*
X89923315Y-119510628D02*
X89826553Y-119413866D01*
X89826553Y-119413866D02*
X89729791Y-119365485D01*
X89729791Y-119365485D02*
X89536267Y-119317104D01*
X89536267Y-119317104D02*
X89391124Y-119317104D01*
X89391124Y-119317104D02*
X89197600Y-119365485D01*
X89197600Y-119365485D02*
X89100838Y-119413866D01*
X89100838Y-119413866D02*
X89004076Y-119510628D01*
X89004076Y-119510628D02*
X88955695Y-119655771D01*
X88955695Y-119655771D02*
X88955695Y-119752533D01*
X88955695Y-119752533D02*
X89004076Y-119897676D01*
X89004076Y-119897676D02*
X89052457Y-119946057D01*
X88955695Y-120816914D02*
X88955695Y-120623390D01*
X88955695Y-120623390D02*
X89004076Y-120526628D01*
X89004076Y-120526628D02*
X89052457Y-120478247D01*
X89052457Y-120478247D02*
X89197600Y-120381485D01*
X89197600Y-120381485D02*
X89391124Y-120333104D01*
X89391124Y-120333104D02*
X89778172Y-120333104D01*
X89778172Y-120333104D02*
X89874934Y-120381485D01*
X89874934Y-120381485D02*
X89923315Y-120429866D01*
X89923315Y-120429866D02*
X89971695Y-120526628D01*
X89971695Y-120526628D02*
X89971695Y-120720152D01*
X89971695Y-120720152D02*
X89923315Y-120816914D01*
X89923315Y-120816914D02*
X89874934Y-120865295D01*
X89874934Y-120865295D02*
X89778172Y-120913676D01*
X89778172Y-120913676D02*
X89536267Y-120913676D01*
X89536267Y-120913676D02*
X89439505Y-120865295D01*
X89439505Y-120865295D02*
X89391124Y-120816914D01*
X89391124Y-120816914D02*
X89342743Y-120720152D01*
X89342743Y-120720152D02*
X89342743Y-120526628D01*
X89342743Y-120526628D02*
X89391124Y-120429866D01*
X89391124Y-120429866D02*
X89439505Y-120381485D01*
X89439505Y-120381485D02*
X89536267Y-120333104D01*
X88955695Y-121832914D02*
X88955695Y-121349104D01*
X88955695Y-121349104D02*
X89439505Y-121300723D01*
X89439505Y-121300723D02*
X89391124Y-121349104D01*
X89391124Y-121349104D02*
X89342743Y-121445866D01*
X89342743Y-121445866D02*
X89342743Y-121687771D01*
X89342743Y-121687771D02*
X89391124Y-121784533D01*
X89391124Y-121784533D02*
X89439505Y-121832914D01*
X89439505Y-121832914D02*
X89536267Y-121881295D01*
X89536267Y-121881295D02*
X89778172Y-121881295D01*
X89778172Y-121881295D02*
X89874934Y-121832914D01*
X89874934Y-121832914D02*
X89923315Y-121784533D01*
X89923315Y-121784533D02*
X89971695Y-121687771D01*
X89971695Y-121687771D02*
X89971695Y-121445866D01*
X89971695Y-121445866D02*
X89923315Y-121349104D01*
X89923315Y-121349104D02*
X89874934Y-121300723D01*
X97899242Y-116360834D02*
X97947623Y-116409215D01*
X97947623Y-116409215D02*
X98092766Y-116457595D01*
X98092766Y-116457595D02*
X98189528Y-116457595D01*
X98189528Y-116457595D02*
X98334671Y-116409215D01*
X98334671Y-116409215D02*
X98431433Y-116312453D01*
X98431433Y-116312453D02*
X98479814Y-116215691D01*
X98479814Y-116215691D02*
X98528195Y-116022167D01*
X98528195Y-116022167D02*
X98528195Y-115877024D01*
X98528195Y-115877024D02*
X98479814Y-115683500D01*
X98479814Y-115683500D02*
X98431433Y-115586738D01*
X98431433Y-115586738D02*
X98334671Y-115489976D01*
X98334671Y-115489976D02*
X98189528Y-115441595D01*
X98189528Y-115441595D02*
X98092766Y-115441595D01*
X98092766Y-115441595D02*
X97947623Y-115489976D01*
X97947623Y-115489976D02*
X97899242Y-115538357D01*
X97512195Y-115538357D02*
X97463814Y-115489976D01*
X97463814Y-115489976D02*
X97367052Y-115441595D01*
X97367052Y-115441595D02*
X97125147Y-115441595D01*
X97125147Y-115441595D02*
X97028385Y-115489976D01*
X97028385Y-115489976D02*
X96980004Y-115538357D01*
X96980004Y-115538357D02*
X96931623Y-115635119D01*
X96931623Y-115635119D02*
X96931623Y-115731881D01*
X96931623Y-115731881D02*
X96980004Y-115877024D01*
X96980004Y-115877024D02*
X97560576Y-116457595D01*
X97560576Y-116457595D02*
X96931623Y-116457595D01*
X96544576Y-115538357D02*
X96496195Y-115489976D01*
X96496195Y-115489976D02*
X96399433Y-115441595D01*
X96399433Y-115441595D02*
X96157528Y-115441595D01*
X96157528Y-115441595D02*
X96060766Y-115489976D01*
X96060766Y-115489976D02*
X96012385Y-115538357D01*
X96012385Y-115538357D02*
X95964004Y-115635119D01*
X95964004Y-115635119D02*
X95964004Y-115731881D01*
X95964004Y-115731881D02*
X96012385Y-115877024D01*
X96012385Y-115877024D02*
X96592957Y-116457595D01*
X96592957Y-116457595D02*
X95964004Y-116457595D01*
X97772242Y-113185834D02*
X97820623Y-113234215D01*
X97820623Y-113234215D02*
X97965766Y-113282595D01*
X97965766Y-113282595D02*
X98062528Y-113282595D01*
X98062528Y-113282595D02*
X98207671Y-113234215D01*
X98207671Y-113234215D02*
X98304433Y-113137453D01*
X98304433Y-113137453D02*
X98352814Y-113040691D01*
X98352814Y-113040691D02*
X98401195Y-112847167D01*
X98401195Y-112847167D02*
X98401195Y-112702024D01*
X98401195Y-112702024D02*
X98352814Y-112508500D01*
X98352814Y-112508500D02*
X98304433Y-112411738D01*
X98304433Y-112411738D02*
X98207671Y-112314976D01*
X98207671Y-112314976D02*
X98062528Y-112266595D01*
X98062528Y-112266595D02*
X97965766Y-112266595D01*
X97965766Y-112266595D02*
X97820623Y-112314976D01*
X97820623Y-112314976D02*
X97772242Y-112363357D01*
X96853004Y-112266595D02*
X97336814Y-112266595D01*
X97336814Y-112266595D02*
X97385195Y-112750405D01*
X97385195Y-112750405D02*
X97336814Y-112702024D01*
X97336814Y-112702024D02*
X97240052Y-112653643D01*
X97240052Y-112653643D02*
X96998147Y-112653643D01*
X96998147Y-112653643D02*
X96901385Y-112702024D01*
X96901385Y-112702024D02*
X96853004Y-112750405D01*
X96853004Y-112750405D02*
X96804623Y-112847167D01*
X96804623Y-112847167D02*
X96804623Y-113089072D01*
X96804623Y-113089072D02*
X96853004Y-113185834D01*
X96853004Y-113185834D02*
X96901385Y-113234215D01*
X96901385Y-113234215D02*
X96998147Y-113282595D01*
X96998147Y-113282595D02*
X97240052Y-113282595D01*
X97240052Y-113282595D02*
X97336814Y-113234215D01*
X97336814Y-113234215D02*
X97385195Y-113185834D01*
X96224052Y-112702024D02*
X96320814Y-112653643D01*
X96320814Y-112653643D02*
X96369195Y-112605262D01*
X96369195Y-112605262D02*
X96417576Y-112508500D01*
X96417576Y-112508500D02*
X96417576Y-112460119D01*
X96417576Y-112460119D02*
X96369195Y-112363357D01*
X96369195Y-112363357D02*
X96320814Y-112314976D01*
X96320814Y-112314976D02*
X96224052Y-112266595D01*
X96224052Y-112266595D02*
X96030528Y-112266595D01*
X96030528Y-112266595D02*
X95933766Y-112314976D01*
X95933766Y-112314976D02*
X95885385Y-112363357D01*
X95885385Y-112363357D02*
X95837004Y-112460119D01*
X95837004Y-112460119D02*
X95837004Y-112508500D01*
X95837004Y-112508500D02*
X95885385Y-112605262D01*
X95885385Y-112605262D02*
X95933766Y-112653643D01*
X95933766Y-112653643D02*
X96030528Y-112702024D01*
X96030528Y-112702024D02*
X96224052Y-112702024D01*
X96224052Y-112702024D02*
X96320814Y-112750405D01*
X96320814Y-112750405D02*
X96369195Y-112798786D01*
X96369195Y-112798786D02*
X96417576Y-112895548D01*
X96417576Y-112895548D02*
X96417576Y-113089072D01*
X96417576Y-113089072D02*
X96369195Y-113185834D01*
X96369195Y-113185834D02*
X96320814Y-113234215D01*
X96320814Y-113234215D02*
X96224052Y-113282595D01*
X96224052Y-113282595D02*
X96030528Y-113282595D01*
X96030528Y-113282595D02*
X95933766Y-113234215D01*
X95933766Y-113234215D02*
X95885385Y-113185834D01*
X95885385Y-113185834D02*
X95837004Y-113089072D01*
X95837004Y-113089072D02*
X95837004Y-112895548D01*
X95837004Y-112895548D02*
X95885385Y-112798786D01*
X95885385Y-112798786D02*
X95933766Y-112750405D01*
X95933766Y-112750405D02*
X96030528Y-112702024D01*
X88526934Y-105122857D02*
X88575315Y-105074476D01*
X88575315Y-105074476D02*
X88623695Y-104929333D01*
X88623695Y-104929333D02*
X88623695Y-104832571D01*
X88623695Y-104832571D02*
X88575315Y-104687428D01*
X88575315Y-104687428D02*
X88478553Y-104590666D01*
X88478553Y-104590666D02*
X88381791Y-104542285D01*
X88381791Y-104542285D02*
X88188267Y-104493904D01*
X88188267Y-104493904D02*
X88043124Y-104493904D01*
X88043124Y-104493904D02*
X87849600Y-104542285D01*
X87849600Y-104542285D02*
X87752838Y-104590666D01*
X87752838Y-104590666D02*
X87656076Y-104687428D01*
X87656076Y-104687428D02*
X87607695Y-104832571D01*
X87607695Y-104832571D02*
X87607695Y-104929333D01*
X87607695Y-104929333D02*
X87656076Y-105074476D01*
X87656076Y-105074476D02*
X87704457Y-105122857D01*
X87607695Y-106042095D02*
X87607695Y-105558285D01*
X87607695Y-105558285D02*
X88091505Y-105509904D01*
X88091505Y-105509904D02*
X88043124Y-105558285D01*
X88043124Y-105558285D02*
X87994743Y-105655047D01*
X87994743Y-105655047D02*
X87994743Y-105896952D01*
X87994743Y-105896952D02*
X88043124Y-105993714D01*
X88043124Y-105993714D02*
X88091505Y-106042095D01*
X88091505Y-106042095D02*
X88188267Y-106090476D01*
X88188267Y-106090476D02*
X88430172Y-106090476D01*
X88430172Y-106090476D02*
X88526934Y-106042095D01*
X88526934Y-106042095D02*
X88575315Y-105993714D01*
X88575315Y-105993714D02*
X88623695Y-105896952D01*
X88623695Y-105896952D02*
X88623695Y-105655047D01*
X88623695Y-105655047D02*
X88575315Y-105558285D01*
X88575315Y-105558285D02*
X88526934Y-105509904D01*
X88623695Y-106574285D02*
X88623695Y-106767809D01*
X88623695Y-106767809D02*
X88575315Y-106864571D01*
X88575315Y-106864571D02*
X88526934Y-106912952D01*
X88526934Y-106912952D02*
X88381791Y-107009714D01*
X88381791Y-107009714D02*
X88188267Y-107058095D01*
X88188267Y-107058095D02*
X87801219Y-107058095D01*
X87801219Y-107058095D02*
X87704457Y-107009714D01*
X87704457Y-107009714D02*
X87656076Y-106961333D01*
X87656076Y-106961333D02*
X87607695Y-106864571D01*
X87607695Y-106864571D02*
X87607695Y-106671047D01*
X87607695Y-106671047D02*
X87656076Y-106574285D01*
X87656076Y-106574285D02*
X87704457Y-106525904D01*
X87704457Y-106525904D02*
X87801219Y-106477523D01*
X87801219Y-106477523D02*
X88043124Y-106477523D01*
X88043124Y-106477523D02*
X88139886Y-106525904D01*
X88139886Y-106525904D02*
X88188267Y-106574285D01*
X88188267Y-106574285D02*
X88236648Y-106671047D01*
X88236648Y-106671047D02*
X88236648Y-106864571D01*
X88236648Y-106864571D02*
X88188267Y-106961333D01*
X88188267Y-106961333D02*
X88139886Y-107009714D01*
X88139886Y-107009714D02*
X88043124Y-107058095D01*
X67873695Y-78502933D02*
X68599410Y-78502933D01*
X68599410Y-78502933D02*
X68744553Y-78454552D01*
X68744553Y-78454552D02*
X68841315Y-78357790D01*
X68841315Y-78357790D02*
X68889695Y-78212647D01*
X68889695Y-78212647D02*
X68889695Y-78115885D01*
X67873695Y-79422171D02*
X67873695Y-79228647D01*
X67873695Y-79228647D02*
X67922076Y-79131885D01*
X67922076Y-79131885D02*
X67970457Y-79083504D01*
X67970457Y-79083504D02*
X68115600Y-78986742D01*
X68115600Y-78986742D02*
X68309124Y-78938361D01*
X68309124Y-78938361D02*
X68696172Y-78938361D01*
X68696172Y-78938361D02*
X68792934Y-78986742D01*
X68792934Y-78986742D02*
X68841315Y-79035123D01*
X68841315Y-79035123D02*
X68889695Y-79131885D01*
X68889695Y-79131885D02*
X68889695Y-79325409D01*
X68889695Y-79325409D02*
X68841315Y-79422171D01*
X68841315Y-79422171D02*
X68792934Y-79470552D01*
X68792934Y-79470552D02*
X68696172Y-79518933D01*
X68696172Y-79518933D02*
X68454267Y-79518933D01*
X68454267Y-79518933D02*
X68357505Y-79470552D01*
X68357505Y-79470552D02*
X68309124Y-79422171D01*
X68309124Y-79422171D02*
X68260743Y-79325409D01*
X68260743Y-79325409D02*
X68260743Y-79131885D01*
X68260743Y-79131885D02*
X68309124Y-79035123D01*
X68309124Y-79035123D02*
X68357505Y-78986742D01*
X68357505Y-78986742D02*
X68454267Y-78938361D01*
X54882142Y-89643095D02*
X55220809Y-89159286D01*
X55462714Y-89643095D02*
X55462714Y-88627095D01*
X55462714Y-88627095D02*
X55075666Y-88627095D01*
X55075666Y-88627095D02*
X54978904Y-88675476D01*
X54978904Y-88675476D02*
X54930523Y-88723857D01*
X54930523Y-88723857D02*
X54882142Y-88820619D01*
X54882142Y-88820619D02*
X54882142Y-88965762D01*
X54882142Y-88965762D02*
X54930523Y-89062524D01*
X54930523Y-89062524D02*
X54978904Y-89110905D01*
X54978904Y-89110905D02*
X55075666Y-89159286D01*
X55075666Y-89159286D02*
X55462714Y-89159286D01*
X54495095Y-88723857D02*
X54446714Y-88675476D01*
X54446714Y-88675476D02*
X54349952Y-88627095D01*
X54349952Y-88627095D02*
X54108047Y-88627095D01*
X54108047Y-88627095D02*
X54011285Y-88675476D01*
X54011285Y-88675476D02*
X53962904Y-88723857D01*
X53962904Y-88723857D02*
X53914523Y-88820619D01*
X53914523Y-88820619D02*
X53914523Y-88917381D01*
X53914523Y-88917381D02*
X53962904Y-89062524D01*
X53962904Y-89062524D02*
X54543476Y-89643095D01*
X54543476Y-89643095D02*
X53914523Y-89643095D01*
X53527476Y-88723857D02*
X53479095Y-88675476D01*
X53479095Y-88675476D02*
X53382333Y-88627095D01*
X53382333Y-88627095D02*
X53140428Y-88627095D01*
X53140428Y-88627095D02*
X53043666Y-88675476D01*
X53043666Y-88675476D02*
X52995285Y-88723857D01*
X52995285Y-88723857D02*
X52946904Y-88820619D01*
X52946904Y-88820619D02*
X52946904Y-88917381D01*
X52946904Y-88917381D02*
X52995285Y-89062524D01*
X52995285Y-89062524D02*
X53575857Y-89643095D01*
X53575857Y-89643095D02*
X52946904Y-89643095D01*
X89366934Y-117202857D02*
X89415315Y-117154476D01*
X89415315Y-117154476D02*
X89463695Y-117009333D01*
X89463695Y-117009333D02*
X89463695Y-116912571D01*
X89463695Y-116912571D02*
X89415315Y-116767428D01*
X89415315Y-116767428D02*
X89318553Y-116670666D01*
X89318553Y-116670666D02*
X89221791Y-116622285D01*
X89221791Y-116622285D02*
X89028267Y-116573904D01*
X89028267Y-116573904D02*
X88883124Y-116573904D01*
X88883124Y-116573904D02*
X88689600Y-116622285D01*
X88689600Y-116622285D02*
X88592838Y-116670666D01*
X88592838Y-116670666D02*
X88496076Y-116767428D01*
X88496076Y-116767428D02*
X88447695Y-116912571D01*
X88447695Y-116912571D02*
X88447695Y-117009333D01*
X88447695Y-117009333D02*
X88496076Y-117154476D01*
X88496076Y-117154476D02*
X88544457Y-117202857D01*
X88447695Y-118073714D02*
X88447695Y-117880190D01*
X88447695Y-117880190D02*
X88496076Y-117783428D01*
X88496076Y-117783428D02*
X88544457Y-117735047D01*
X88544457Y-117735047D02*
X88689600Y-117638285D01*
X88689600Y-117638285D02*
X88883124Y-117589904D01*
X88883124Y-117589904D02*
X89270172Y-117589904D01*
X89270172Y-117589904D02*
X89366934Y-117638285D01*
X89366934Y-117638285D02*
X89415315Y-117686666D01*
X89415315Y-117686666D02*
X89463695Y-117783428D01*
X89463695Y-117783428D02*
X89463695Y-117976952D01*
X89463695Y-117976952D02*
X89415315Y-118073714D01*
X89415315Y-118073714D02*
X89366934Y-118122095D01*
X89366934Y-118122095D02*
X89270172Y-118170476D01*
X89270172Y-118170476D02*
X89028267Y-118170476D01*
X89028267Y-118170476D02*
X88931505Y-118122095D01*
X88931505Y-118122095D02*
X88883124Y-118073714D01*
X88883124Y-118073714D02*
X88834743Y-117976952D01*
X88834743Y-117976952D02*
X88834743Y-117783428D01*
X88834743Y-117783428D02*
X88883124Y-117686666D01*
X88883124Y-117686666D02*
X88931505Y-117638285D01*
X88931505Y-117638285D02*
X89028267Y-117589904D01*
X88447695Y-118799428D02*
X88447695Y-118896190D01*
X88447695Y-118896190D02*
X88496076Y-118992952D01*
X88496076Y-118992952D02*
X88544457Y-119041333D01*
X88544457Y-119041333D02*
X88641219Y-119089714D01*
X88641219Y-119089714D02*
X88834743Y-119138095D01*
X88834743Y-119138095D02*
X89076648Y-119138095D01*
X89076648Y-119138095D02*
X89270172Y-119089714D01*
X89270172Y-119089714D02*
X89366934Y-119041333D01*
X89366934Y-119041333D02*
X89415315Y-118992952D01*
X89415315Y-118992952D02*
X89463695Y-118896190D01*
X89463695Y-118896190D02*
X89463695Y-118799428D01*
X89463695Y-118799428D02*
X89415315Y-118702666D01*
X89415315Y-118702666D02*
X89366934Y-118654285D01*
X89366934Y-118654285D02*
X89270172Y-118605904D01*
X89270172Y-118605904D02*
X89076648Y-118557523D01*
X89076648Y-118557523D02*
X88834743Y-118557523D01*
X88834743Y-118557523D02*
X88641219Y-118605904D01*
X88641219Y-118605904D02*
X88544457Y-118654285D01*
X88544457Y-118654285D02*
X88496076Y-118702666D01*
X88496076Y-118702666D02*
X88447695Y-118799428D01*
X80726095Y-123754095D02*
X81548572Y-123754095D01*
X81548572Y-123754095D02*
X81645334Y-123802476D01*
X81645334Y-123802476D02*
X81693715Y-123850857D01*
X81693715Y-123850857D02*
X81742095Y-123947619D01*
X81742095Y-123947619D02*
X81742095Y-124141143D01*
X81742095Y-124141143D02*
X81693715Y-124237905D01*
X81693715Y-124237905D02*
X81645334Y-124286286D01*
X81645334Y-124286286D02*
X81548572Y-124334667D01*
X81548572Y-124334667D02*
X80726095Y-124334667D01*
X81742095Y-125350667D02*
X81742095Y-124770095D01*
X81742095Y-125060381D02*
X80726095Y-125060381D01*
X80726095Y-125060381D02*
X80871238Y-124963619D01*
X80871238Y-124963619D02*
X80968000Y-124866857D01*
X80968000Y-124866857D02*
X81016381Y-124770095D01*
X80726095Y-125979619D02*
X80726095Y-126076381D01*
X80726095Y-126076381D02*
X80774476Y-126173143D01*
X80774476Y-126173143D02*
X80822857Y-126221524D01*
X80822857Y-126221524D02*
X80919619Y-126269905D01*
X80919619Y-126269905D02*
X81113143Y-126318286D01*
X81113143Y-126318286D02*
X81355048Y-126318286D01*
X81355048Y-126318286D02*
X81548572Y-126269905D01*
X81548572Y-126269905D02*
X81645334Y-126221524D01*
X81645334Y-126221524D02*
X81693715Y-126173143D01*
X81693715Y-126173143D02*
X81742095Y-126076381D01*
X81742095Y-126076381D02*
X81742095Y-125979619D01*
X81742095Y-125979619D02*
X81693715Y-125882857D01*
X81693715Y-125882857D02*
X81645334Y-125834476D01*
X81645334Y-125834476D02*
X81548572Y-125786095D01*
X81548572Y-125786095D02*
X81355048Y-125737714D01*
X81355048Y-125737714D02*
X81113143Y-125737714D01*
X81113143Y-125737714D02*
X80919619Y-125786095D01*
X80919619Y-125786095D02*
X80822857Y-125834476D01*
X80822857Y-125834476D02*
X80774476Y-125882857D01*
X80774476Y-125882857D02*
X80726095Y-125979619D01*
X94040534Y-116593257D02*
X94088915Y-116544876D01*
X94088915Y-116544876D02*
X94137295Y-116399733D01*
X94137295Y-116399733D02*
X94137295Y-116302971D01*
X94137295Y-116302971D02*
X94088915Y-116157828D01*
X94088915Y-116157828D02*
X93992153Y-116061066D01*
X93992153Y-116061066D02*
X93895391Y-116012685D01*
X93895391Y-116012685D02*
X93701867Y-115964304D01*
X93701867Y-115964304D02*
X93556724Y-115964304D01*
X93556724Y-115964304D02*
X93363200Y-116012685D01*
X93363200Y-116012685D02*
X93266438Y-116061066D01*
X93266438Y-116061066D02*
X93169676Y-116157828D01*
X93169676Y-116157828D02*
X93121295Y-116302971D01*
X93121295Y-116302971D02*
X93121295Y-116399733D01*
X93121295Y-116399733D02*
X93169676Y-116544876D01*
X93169676Y-116544876D02*
X93218057Y-116593257D01*
X94137295Y-117560876D02*
X94137295Y-116980304D01*
X94137295Y-117270590D02*
X93121295Y-117270590D01*
X93121295Y-117270590D02*
X93266438Y-117173828D01*
X93266438Y-117173828D02*
X93363200Y-117077066D01*
X93363200Y-117077066D02*
X93411581Y-116980304D01*
X94137295Y-118044685D02*
X94137295Y-118238209D01*
X94137295Y-118238209D02*
X94088915Y-118334971D01*
X94088915Y-118334971D02*
X94040534Y-118383352D01*
X94040534Y-118383352D02*
X93895391Y-118480114D01*
X93895391Y-118480114D02*
X93701867Y-118528495D01*
X93701867Y-118528495D02*
X93314819Y-118528495D01*
X93314819Y-118528495D02*
X93218057Y-118480114D01*
X93218057Y-118480114D02*
X93169676Y-118431733D01*
X93169676Y-118431733D02*
X93121295Y-118334971D01*
X93121295Y-118334971D02*
X93121295Y-118141447D01*
X93121295Y-118141447D02*
X93169676Y-118044685D01*
X93169676Y-118044685D02*
X93218057Y-117996304D01*
X93218057Y-117996304D02*
X93314819Y-117947923D01*
X93314819Y-117947923D02*
X93556724Y-117947923D01*
X93556724Y-117947923D02*
X93653486Y-117996304D01*
X93653486Y-117996304D02*
X93701867Y-118044685D01*
X93701867Y-118044685D02*
X93750248Y-118141447D01*
X93750248Y-118141447D02*
X93750248Y-118334971D01*
X93750248Y-118334971D02*
X93701867Y-118431733D01*
X93701867Y-118431733D02*
X93653486Y-118480114D01*
X93653486Y-118480114D02*
X93556724Y-118528495D01*
X88604934Y-110395657D02*
X88653315Y-110347276D01*
X88653315Y-110347276D02*
X88701695Y-110202133D01*
X88701695Y-110202133D02*
X88701695Y-110105371D01*
X88701695Y-110105371D02*
X88653315Y-109960228D01*
X88653315Y-109960228D02*
X88556553Y-109863466D01*
X88556553Y-109863466D02*
X88459791Y-109815085D01*
X88459791Y-109815085D02*
X88266267Y-109766704D01*
X88266267Y-109766704D02*
X88121124Y-109766704D01*
X88121124Y-109766704D02*
X87927600Y-109815085D01*
X87927600Y-109815085D02*
X87830838Y-109863466D01*
X87830838Y-109863466D02*
X87734076Y-109960228D01*
X87734076Y-109960228D02*
X87685695Y-110105371D01*
X87685695Y-110105371D02*
X87685695Y-110202133D01*
X87685695Y-110202133D02*
X87734076Y-110347276D01*
X87734076Y-110347276D02*
X87782457Y-110395657D01*
X87685695Y-111314895D02*
X87685695Y-110831085D01*
X87685695Y-110831085D02*
X88169505Y-110782704D01*
X88169505Y-110782704D02*
X88121124Y-110831085D01*
X88121124Y-110831085D02*
X88072743Y-110927847D01*
X88072743Y-110927847D02*
X88072743Y-111169752D01*
X88072743Y-111169752D02*
X88121124Y-111266514D01*
X88121124Y-111266514D02*
X88169505Y-111314895D01*
X88169505Y-111314895D02*
X88266267Y-111363276D01*
X88266267Y-111363276D02*
X88508172Y-111363276D01*
X88508172Y-111363276D02*
X88604934Y-111314895D01*
X88604934Y-111314895D02*
X88653315Y-111266514D01*
X88653315Y-111266514D02*
X88701695Y-111169752D01*
X88701695Y-111169752D02*
X88701695Y-110927847D01*
X88701695Y-110927847D02*
X88653315Y-110831085D01*
X88653315Y-110831085D02*
X88604934Y-110782704D01*
X87685695Y-111701942D02*
X87685695Y-112379276D01*
X87685695Y-112379276D02*
X88701695Y-111943847D01*
X89971695Y-122740057D02*
X89487886Y-122401390D01*
X89971695Y-122159485D02*
X88955695Y-122159485D01*
X88955695Y-122159485D02*
X88955695Y-122546533D01*
X88955695Y-122546533D02*
X89004076Y-122643295D01*
X89004076Y-122643295D02*
X89052457Y-122691676D01*
X89052457Y-122691676D02*
X89149219Y-122740057D01*
X89149219Y-122740057D02*
X89294362Y-122740057D01*
X89294362Y-122740057D02*
X89391124Y-122691676D01*
X89391124Y-122691676D02*
X89439505Y-122643295D01*
X89439505Y-122643295D02*
X89487886Y-122546533D01*
X89487886Y-122546533D02*
X89487886Y-122159485D01*
X88955695Y-123078723D02*
X88955695Y-123707676D01*
X88955695Y-123707676D02*
X89342743Y-123369009D01*
X89342743Y-123369009D02*
X89342743Y-123514152D01*
X89342743Y-123514152D02*
X89391124Y-123610914D01*
X89391124Y-123610914D02*
X89439505Y-123659295D01*
X89439505Y-123659295D02*
X89536267Y-123707676D01*
X89536267Y-123707676D02*
X89778172Y-123707676D01*
X89778172Y-123707676D02*
X89874934Y-123659295D01*
X89874934Y-123659295D02*
X89923315Y-123610914D01*
X89923315Y-123610914D02*
X89971695Y-123514152D01*
X89971695Y-123514152D02*
X89971695Y-123223866D01*
X89971695Y-123223866D02*
X89923315Y-123127104D01*
X89923315Y-123127104D02*
X89874934Y-123078723D01*
X89971695Y-124675295D02*
X89971695Y-124094723D01*
X89971695Y-124385009D02*
X88955695Y-124385009D01*
X88955695Y-124385009D02*
X89100838Y-124288247D01*
X89100838Y-124288247D02*
X89197600Y-124191485D01*
X89197600Y-124191485D02*
X89245981Y-124094723D01*
X90586134Y-117202857D02*
X90634515Y-117154476D01*
X90634515Y-117154476D02*
X90682895Y-117009333D01*
X90682895Y-117009333D02*
X90682895Y-116912571D01*
X90682895Y-116912571D02*
X90634515Y-116767428D01*
X90634515Y-116767428D02*
X90537753Y-116670666D01*
X90537753Y-116670666D02*
X90440991Y-116622285D01*
X90440991Y-116622285D02*
X90247467Y-116573904D01*
X90247467Y-116573904D02*
X90102324Y-116573904D01*
X90102324Y-116573904D02*
X89908800Y-116622285D01*
X89908800Y-116622285D02*
X89812038Y-116670666D01*
X89812038Y-116670666D02*
X89715276Y-116767428D01*
X89715276Y-116767428D02*
X89666895Y-116912571D01*
X89666895Y-116912571D02*
X89666895Y-117009333D01*
X89666895Y-117009333D02*
X89715276Y-117154476D01*
X89715276Y-117154476D02*
X89763657Y-117202857D01*
X89763657Y-117589904D02*
X89715276Y-117638285D01*
X89715276Y-117638285D02*
X89666895Y-117735047D01*
X89666895Y-117735047D02*
X89666895Y-117976952D01*
X89666895Y-117976952D02*
X89715276Y-118073714D01*
X89715276Y-118073714D02*
X89763657Y-118122095D01*
X89763657Y-118122095D02*
X89860419Y-118170476D01*
X89860419Y-118170476D02*
X89957181Y-118170476D01*
X89957181Y-118170476D02*
X90102324Y-118122095D01*
X90102324Y-118122095D02*
X90682895Y-117541523D01*
X90682895Y-117541523D02*
X90682895Y-118170476D01*
X89666895Y-118799428D02*
X89666895Y-118896190D01*
X89666895Y-118896190D02*
X89715276Y-118992952D01*
X89715276Y-118992952D02*
X89763657Y-119041333D01*
X89763657Y-119041333D02*
X89860419Y-119089714D01*
X89860419Y-119089714D02*
X90053943Y-119138095D01*
X90053943Y-119138095D02*
X90295848Y-119138095D01*
X90295848Y-119138095D02*
X90489372Y-119089714D01*
X90489372Y-119089714D02*
X90586134Y-119041333D01*
X90586134Y-119041333D02*
X90634515Y-118992952D01*
X90634515Y-118992952D02*
X90682895Y-118896190D01*
X90682895Y-118896190D02*
X90682895Y-118799428D01*
X90682895Y-118799428D02*
X90634515Y-118702666D01*
X90634515Y-118702666D02*
X90586134Y-118654285D01*
X90586134Y-118654285D02*
X90489372Y-118605904D01*
X90489372Y-118605904D02*
X90295848Y-118557523D01*
X90295848Y-118557523D02*
X90053943Y-118557523D01*
X90053943Y-118557523D02*
X89860419Y-118605904D01*
X89860419Y-118605904D02*
X89763657Y-118654285D01*
X89763657Y-118654285D02*
X89715276Y-118702666D01*
X89715276Y-118702666D02*
X89666895Y-118799428D01*
X57676142Y-89666895D02*
X58014809Y-89183086D01*
X58256714Y-89666895D02*
X58256714Y-88650895D01*
X58256714Y-88650895D02*
X57869666Y-88650895D01*
X57869666Y-88650895D02*
X57772904Y-88699276D01*
X57772904Y-88699276D02*
X57724523Y-88747657D01*
X57724523Y-88747657D02*
X57676142Y-88844419D01*
X57676142Y-88844419D02*
X57676142Y-88989562D01*
X57676142Y-88989562D02*
X57724523Y-89086324D01*
X57724523Y-89086324D02*
X57772904Y-89134705D01*
X57772904Y-89134705D02*
X57869666Y-89183086D01*
X57869666Y-89183086D02*
X58256714Y-89183086D01*
X57289095Y-88747657D02*
X57240714Y-88699276D01*
X57240714Y-88699276D02*
X57143952Y-88650895D01*
X57143952Y-88650895D02*
X56902047Y-88650895D01*
X56902047Y-88650895D02*
X56805285Y-88699276D01*
X56805285Y-88699276D02*
X56756904Y-88747657D01*
X56756904Y-88747657D02*
X56708523Y-88844419D01*
X56708523Y-88844419D02*
X56708523Y-88941181D01*
X56708523Y-88941181D02*
X56756904Y-89086324D01*
X56756904Y-89086324D02*
X57337476Y-89666895D01*
X57337476Y-89666895D02*
X56708523Y-89666895D01*
X56369857Y-88650895D02*
X55740904Y-88650895D01*
X55740904Y-88650895D02*
X56079571Y-89037943D01*
X56079571Y-89037943D02*
X55934428Y-89037943D01*
X55934428Y-89037943D02*
X55837666Y-89086324D01*
X55837666Y-89086324D02*
X55789285Y-89134705D01*
X55789285Y-89134705D02*
X55740904Y-89231467D01*
X55740904Y-89231467D02*
X55740904Y-89473372D01*
X55740904Y-89473372D02*
X55789285Y-89570134D01*
X55789285Y-89570134D02*
X55837666Y-89618515D01*
X55837666Y-89618515D02*
X55934428Y-89666895D01*
X55934428Y-89666895D02*
X56224714Y-89666895D01*
X56224714Y-89666895D02*
X56321476Y-89618515D01*
X56321476Y-89618515D02*
X56369857Y-89570134D01*
D11*
X62368165Y-115422000D02*
X62599835Y-115422000D01*
X62368165Y-114702000D02*
X62599835Y-114702000D01*
X62368165Y-114406000D02*
X62599835Y-114406000D01*
X62368165Y-113686000D02*
X62599835Y-113686000D01*
X60059835Y-87397000D02*
X59828165Y-87397000D01*
X60059835Y-88117000D02*
X59828165Y-88117000D01*
X89373600Y-109188000D02*
X89373600Y-109363000D01*
X89373600Y-113108000D02*
X89373600Y-112633000D01*
X89613600Y-108888000D02*
X89848600Y-108888000D01*
X89848600Y-113108000D02*
X89373600Y-113108000D01*
X93118600Y-108888000D02*
X93593600Y-108888000D01*
X93118600Y-113108000D02*
X93593600Y-113108000D01*
X93593600Y-108888000D02*
X93593600Y-109363000D01*
X93593600Y-113108000D02*
X93593600Y-112633000D01*
X89373600Y-108888000D02*
X89043600Y-109128000D01*
X89043600Y-108648000D01*
X89373600Y-108888000D01*
G36*
X89373600Y-108888000D02*
G01*
X89043600Y-109128000D01*
X89043600Y-108648000D01*
X89373600Y-108888000D01*
G37*
X87905000Y-120534165D02*
X87905000Y-120765835D01*
X88625000Y-120534165D02*
X88625000Y-120765835D01*
X94627435Y-114873500D02*
X94395765Y-114873500D01*
X94627435Y-115593500D02*
X94395765Y-115593500D01*
X94627435Y-113857500D02*
X94395765Y-113857500D01*
X94627435Y-114577500D02*
X94395765Y-114577500D01*
X87801600Y-108386665D02*
X87801600Y-108618335D01*
X88521600Y-108386665D02*
X88521600Y-108618335D01*
X51491000Y-83486000D02*
X51491000Y-73486000D01*
X51991000Y-72986000D02*
X52991000Y-72986000D01*
X51991000Y-83986000D02*
X52991000Y-83986000D01*
X52091000Y-83986000D02*
X52191000Y-83486000D01*
X52191000Y-83486000D02*
X52491000Y-82186000D01*
X52291000Y-73786000D02*
X52091000Y-72986000D01*
X52491000Y-82186000D02*
X52691000Y-80686000D01*
X52591000Y-75486000D02*
X52291000Y-73786000D01*
X52691000Y-76286000D02*
X52591000Y-75486000D01*
X52691000Y-80686000D02*
X52791000Y-79386000D01*
X52791000Y-77586000D02*
X52691000Y-76286000D01*
X52791000Y-79386000D02*
X52791000Y-77586000D01*
X52991000Y-85396000D02*
X52991000Y-71576000D01*
X53391000Y-71576000D02*
X52991000Y-71576000D01*
X53391000Y-85396000D02*
X52991000Y-85396000D01*
X61691000Y-71576000D02*
X55911000Y-71576000D01*
X61691000Y-85396000D02*
X55911000Y-85396000D01*
X66911000Y-71576000D02*
X64211000Y-71576000D01*
X66911000Y-71576000D02*
X66911000Y-85396000D01*
X66911000Y-85396000D02*
X64211000Y-85396000D01*
X51491000Y-73486000D02*
G75*
G02*
X51991000Y-72986000I500001J-1D01*
G01*
X51991000Y-83986000D02*
G75*
G02*
X51491000Y-83486000I0J500000D01*
G01*
X54396621Y-87631000D02*
X54061379Y-87631000D01*
X54396621Y-88391000D02*
X54061379Y-88391000D01*
X89579600Y-115035835D02*
X89579600Y-114804165D01*
X90299600Y-115035835D02*
X90299600Y-114804165D01*
X82111000Y-122287000D02*
X82111000Y-125012000D01*
X82111000Y-127737000D02*
X82111000Y-125012000D01*
X82371000Y-122287000D02*
X82111000Y-122287000D01*
X82371000Y-127737000D02*
X82111000Y-127737000D01*
X87301000Y-122287000D02*
X87561000Y-122287000D01*
X87301000Y-127737000D02*
X87561000Y-127737000D01*
X87561000Y-122287000D02*
X87561000Y-125012000D01*
X87561000Y-127737000D02*
X87561000Y-125012000D01*
X87631000Y-128759500D02*
X87301000Y-128519500D01*
X87631000Y-128279500D01*
X87631000Y-128759500D01*
G36*
X87631000Y-128759500D02*
G01*
X87301000Y-128519500D01*
X87631000Y-128279500D01*
X87631000Y-128759500D01*
G37*
X91611600Y-114804165D02*
X91611600Y-115035835D01*
X92331600Y-114804165D02*
X92331600Y-115035835D01*
X85473600Y-110610752D02*
X85473600Y-109188248D01*
X87293600Y-110610752D02*
X87293600Y-109188248D01*
X87885000Y-122768379D02*
X87885000Y-123103621D01*
X88645000Y-122768379D02*
X88645000Y-123103621D01*
X90595600Y-114804165D02*
X90595600Y-115035835D01*
X91315600Y-114804165D02*
X91315600Y-115035835D01*
X56638879Y-87631000D02*
X56974121Y-87631000D01*
X56638879Y-88391000D02*
X56974121Y-88391000D01*
%LPC*%
D12*
X55000000Y-130000000D03*
D13*
X111000000Y-53500000D03*
D14*
X107508000Y-147659000D03*
X107508000Y-140659000D03*
D12*
X55000000Y-55000000D03*
D15*
X53736000Y-121285000D03*
D16*
X56276000Y-121285000D03*
X58816000Y-121285000D03*
D17*
X71475600Y-115620800D03*
X71475600Y-114487467D03*
X71475600Y-113354134D03*
X70342267Y-115620800D03*
X70342267Y-114487467D03*
X70342267Y-113354134D03*
X69208934Y-115620800D03*
X69208934Y-114487467D03*
X69208934Y-113354134D03*
D18*
X63051500Y-115062000D03*
X61916500Y-115062000D03*
D13*
X137780800Y-53500000D03*
D14*
X121008000Y-147659000D03*
X121008000Y-140659000D03*
D15*
X53975000Y-116840000D03*
D16*
X53975000Y-114300000D03*
X53975000Y-111760000D03*
D12*
X145000000Y-130000000D03*
D14*
X145796000Y-64135000D03*
D18*
X63051500Y-114046000D03*
X61916500Y-114046000D03*
D12*
X145000000Y-55000000D03*
D15*
X54102000Y-102743000D03*
D16*
X56642000Y-102743000D03*
D19*
X140574000Y-137414000D03*
D20*
X140574000Y-143714000D03*
D21*
X145374000Y-140314000D03*
D13*
X74500000Y-53500000D03*
D15*
X56642000Y-106680000D03*
D16*
X54102000Y-106680000D03*
D15*
X58547000Y-116967000D03*
D16*
X58547000Y-114427000D03*
X58547000Y-111887000D03*
D22*
X59000000Y-142472000D03*
D14*
X61500000Y-142472000D03*
X63500000Y-142472000D03*
X66000000Y-142472000D03*
X59000000Y-145092000D03*
X61500000Y-145092000D03*
X63500000Y-145092000D03*
X66000000Y-145092000D03*
D23*
X55930000Y-142122000D03*
X55930000Y-147802000D03*
X69070000Y-142122000D03*
X69070000Y-147802000D03*
D15*
X100457000Y-109093000D03*
D16*
X102997000Y-109093000D03*
X105537000Y-109093000D03*
X108077000Y-109093000D03*
D22*
X77780000Y-142472000D03*
D14*
X80280000Y-142472000D03*
X82280000Y-142472000D03*
X84780000Y-142472000D03*
X77780000Y-145092000D03*
X80280000Y-145092000D03*
X82280000Y-145092000D03*
X84780000Y-145092000D03*
D23*
X74710000Y-142122000D03*
X74710000Y-147802000D03*
X87850000Y-142122000D03*
X87850000Y-147802000D03*
D24*
X59376500Y-87757000D03*
X60511500Y-87757000D03*
D25*
X90233600Y-109010500D03*
X90733600Y-109010500D03*
X91233600Y-109010500D03*
X91733600Y-109010500D03*
X92233600Y-109010500D03*
X92733600Y-109010500D03*
D26*
X93471100Y-109748000D03*
X93471100Y-110248000D03*
X93471100Y-110748000D03*
X93471100Y-111248000D03*
X93471100Y-111748000D03*
X93471100Y-112248000D03*
D25*
X92733600Y-112985500D03*
X92233600Y-112985500D03*
X91733600Y-112985500D03*
X91233600Y-112985500D03*
X90733600Y-112985500D03*
X90233600Y-112985500D03*
D26*
X89496100Y-112248000D03*
X89496100Y-111748000D03*
X89496100Y-111248000D03*
X89496100Y-110748000D03*
X89496100Y-110248000D03*
X89496100Y-109748000D03*
D27*
X91483600Y-110998000D03*
D28*
X88265000Y-121217500D03*
X88265000Y-120082500D03*
D24*
X93944100Y-115233500D03*
X95079100Y-115233500D03*
X93944100Y-114217500D03*
X95079100Y-114217500D03*
D28*
X88161600Y-109070000D03*
X88161600Y-107935000D03*
D29*
X57251000Y-75286000D03*
X57251000Y-76386000D03*
X57251000Y-77486000D03*
X57251000Y-78586000D03*
X57251000Y-79686000D03*
X57251000Y-80786000D03*
X57251000Y-81886000D03*
X57251000Y-82986000D03*
D30*
X62951000Y-71611000D03*
X54651000Y-71611000D03*
X62951000Y-85361000D03*
X54651000Y-85361000D03*
D31*
X53631500Y-88011000D03*
X54826500Y-88011000D03*
D32*
X89939600Y-114352500D03*
X89939600Y-115487500D03*
D33*
X86741000Y-128612000D03*
X85471000Y-128612000D03*
X84201000Y-128612000D03*
X82931000Y-128612000D03*
X82931000Y-121412000D03*
X84201000Y-121412000D03*
X85471000Y-121412000D03*
X86741000Y-121412000D03*
D28*
X91971600Y-115487500D03*
X91971600Y-114352500D03*
D34*
X86383600Y-108337000D03*
X86383600Y-111462000D03*
D35*
X88265000Y-123533500D03*
X88265000Y-122338500D03*
D28*
X90955600Y-115487500D03*
X90955600Y-114352500D03*
D36*
X57404000Y-88011000D03*
X56209000Y-88011000D03*
%LPD*%
M02*
